<svg width="122" height="74" viewBox="0 0 122 74" fill="none" xmlns="http://www.w3.org/2000/svg">
<path fill-rule="evenodd" clip-rule="evenodd" d="M93 1H1V73.5H93V1ZM85.5 39.5L46 7L6 36.5L46 69.5L85.5 39.5Z" fill="#D9D9D9"/>
<path fill-rule="evenodd" clip-rule="evenodd" d="M93 1H1V73.5H93V1ZM85.5 39.5L46 7L6 36.5L46 69.5L85.5 39.5Z" fill="#FDD903"/>
<path fill-rule="evenodd" clip-rule="evenodd" d="M46 15.5L17 36.5L46 61.5L73.5 39.5L46 15.5ZM22 37L45.5 19L68 39.5L44.5 57L22 37Z" fill="#D9D9D9"/>
<path fill-rule="evenodd" clip-rule="evenodd" d="M46 15.5L17 36.5L46 61.5L73.5 39.5L46 15.5ZM22 37L45.5 19L68 39.5L44.5 57L22 37Z" fill="#FDD903"/>
<path fill-rule="evenodd" clip-rule="evenodd" d="M45.5 24.2688L28 37L44.5 52L61 39.5L45.5 24.2688ZM33.5 37L45 28.5L56.5 39L44.5 47.5L33.5 37Z" fill="#D9D9D9"/>
<path fill-rule="evenodd" clip-rule="evenodd" d="M45.5 24.2688L28 37L44.5 52L61 39.5L45.5 24.2688ZM33.5 37L45 28.5L56.5 39L44.5 47.5L33.5 37Z" fill="#FDD903"/>
<path d="M45 31.5L37 37L44.5 44.5L52.5 39L45 31.5Z" fill="#D9D9D9"/>
<path d="M45 31.5L37 37L44.5 44.5L52.5 39L45 31.5Z" fill="#FDD903"/>
<path fill-rule="evenodd" clip-rule="evenodd" d="M46 7L85.5 39.5L46 69.5L6 36.5L46 7ZM17 36.5L46 15.5L73.5 39.5L46 61.5L17 36.5Z" fill="#D9D9D9"/>
<path fill-rule="evenodd" clip-rule="evenodd" d="M46 7L85.5 39.5L46 69.5L6 36.5L46 7ZM17 36.5L46 15.5L73.5 39.5L46 61.5L17 36.5Z" fill="#FF6964"/>
<path fill-rule="evenodd" clip-rule="evenodd" d="M45.5 19L22 37L44.5 57L68 39.5L45.5 19ZM28 37L45.5 24.2688L61 39.5L44.5 52L28 37Z" fill="#D9D9D9"/>
<path fill-rule="evenodd" clip-rule="evenodd" d="M45.5 19L22 37L44.5 57L68 39.5L45.5 19ZM28 37L45.5 24.2688L61 39.5L44.5 52L28 37Z" fill="#FF6964"/>
<path fill-rule="evenodd" clip-rule="evenodd" d="M45 28.5L33.5 37L44.5 47.5L56.5 39L45 28.5ZM37 37L45 31.5L52.5 39L44.5 44.5L37 37Z" fill="#D9D9D9"/>
<path fill-rule="evenodd" clip-rule="evenodd" d="M45 28.5L33.5 37L44.5 47.5L56.5 39L45 28.5ZM37 37L45 31.5L52.5 39L44.5 44.5L37 37Z" fill="#FF6964"/>
<path d="M93 1H1V73.5H93M93 1V73.5M93 1L117.5 27C122.249 34.0752 121.899 37.89 117.5 44.5L93 73.5M46 7L85.5 39.5L46 69.5L6 36.5L46 7ZM46 15.5L17 36.5L46 61.5L73.5 39.5L46 15.5ZM45.5 19L22 37L44.5 57L68 39.5L45.5 19ZM45.5 24.2688L28 37L44.5 52L61 39.5L45.5 24.2688ZM45 28.5L33.5 37L44.5 47.5L56.5 39L45 28.5ZM45 31.5L37 37L44.5 44.5L52.5 39L45 31.5Z" stroke="black"/>
</svg>
