<svg width="268" height="168" viewBox="0 0 268 168" fill="none" xmlns="http://www.w3.org/2000/svg">
<path d="M166.793 0.950402C170.801 0.904103 174.806 0.901936 178.814 0.928446C180.323 0.930912 181.833 0.918162 183.342 0.888612C190.971 0.748399 196.737 0.97155 202.685 6.28557C204.144 7.83749 205.583 9.40902 207 11.0001C208.63 12.5172 210.275 14.0195 211.938 15.5001C212.756 16.24 213.575 16.9799 214.418 17.7423C217.136 20.1185 219.929 22.3729 222.75 24.6251C227.069 28.108 230.501 31.7129 234 36.0001C234.99 36.6601 235.98 37.3201 237 38.0001C237 38.6601 237 39.3201 237 40.0001C237.588 40.2721 238.176 40.5441 238.782 40.8243C250.326 46.942 262.104 60.6498 266 73.0001C269.126 85.7434 267.464 98.5117 260.813 109.688C257.983 113.92 254.984 117.137 251.035 120.324C248.878 122.101 246.953 124.002 245 126C241.905 129.138 238.702 132.06 235.356 134.926C233.429 136.623 231.547 138.348 229.676 140.106C229.091 140.654 228.506 141.202 227.903 141.767C226.729 142.87 225.559 143.977 224.392 145.089C220.221 149 220.221 149 218 149C217.67 149.99 217.34 150.98 217 152C215.304 153.52 213.544 154.97 211.75 156.375C208.826 158.675 206.174 160.802 203.717 163.603C200.437 166.497 198.987 166.645 194.674 166.702C193.405 166.731 192.136 166.759 190.828 166.789C189.433 166.794 188.038 166.8 186.643 166.804C185.169 166.827 183.695 166.851 182.222 166.877C178.282 166.939 174.343 166.969 170.403 166.988C168.046 167 165.689 167.018 163.333 167.039C152.678 167.128 142.024 167.142 131.369 167.134C126.836 167.132 122.303 167.134 117.77 167.136C110.203 167.138 102.637 167.135 95.0701 167.13C86.3234 167.125 77.5767 167.127 68.8299 167.132C61.2675 167.137 53.7051 167.137 46.1427 167.135C41.6467 167.133 37.1507 167.133 32.6547 167.136C28.4585 167.139 24.2622 167.137 20.066 167.131C18.5248 167.13 16.9836 167.131 15.4423 167.133C13.349 167.135 11.2558 167.132 9.16254 167.127C7.98955 167.127 6.81658 167.126 5.60805 167.126C3.00031 167 3.00031 167 2.00031 166C1.89147 164.093 1.85341 162.183 1.84209 160.273C1.8323 159.028 1.82251 157.783 1.81243 156.501C1.80652 155.108 1.80071 153.716 1.79498 152.323C1.78541 150.866 1.7754 149.41 1.76499 147.953C1.73785 143.981 1.71687 140.009 1.69698 136.037C1.67512 131.877 1.64773 127.716 1.62093 123.556C1.5766 116.554 1.53584 109.553 1.49762 102.552C1.44393 92.7159 1.3843 82.88 1.32323 73.0441C1.24146 59.8335 1.1618 46.623 1.08841 33.4124C1.08047 31.9891 1.07242 30.5659 1.06423 29.1426C1.01426 20.4283 0.99023 11.7145 1.00031 3.00008C9.49737 2.05547 17.9186 1.82674 26.4632 1.77889C27.8858 1.76764 29.3085 1.75601 30.7311 1.74402C34.5715 1.71292 38.4119 1.68765 42.2524 1.66382C45.4905 1.6432 48.7286 1.61972 51.9668 1.59629C59.6426 1.54079 67.3185 1.4901 74.9944 1.44246C82.8142 1.39385 90.6339 1.33748 98.4536 1.27704C105.236 1.2249 112.018 1.17777 118.8 1.13435C122.819 1.10858 126.838 1.08121 130.857 1.04898C139.017 0.985052 147.176 0.951246 155.336 0.987433C159.156 1.00246 162.974 0.994781 166.793 0.950402Z" fill="#FCFCFC"/>
<path d="M115.593 27.1326C118.672 28.242 120.659 29.7258 122.999 31.9998C122.999 32.9898 122.999 33.9798 122.999 34.9998C124.649 35.6598 126.299 36.3198 127.999 36.9998C127.999 37.9898 127.999 38.9798 127.999 39.9998C128.592 40.0939 129.185 40.188 129.796 40.2849C132.491 41.1592 133.463 42.267 135.249 44.4373C136.031 45.3634 136.031 45.3634 136.828 46.3083C137.999 47.9998 137.999 47.9998 137.999 49.9998C138.639 50.2679 139.278 50.536 139.937 50.8123C141.999 51.9998 141.999 51.9998 142.999 54.9998C143.989 54.9998 144.979 54.9998 145.999 54.9998C145.999 55.6598 145.999 56.3198 145.999 56.9998C147.484 57.4948 147.484 57.4948 148.999 57.9998C151.999 61.4442 151.999 61.4442 151.999 63.9998C152.569 64.2331 153.139 64.4664 153.726 64.7068C156.547 66.3113 158.242 68.2441 160.374 70.6873C161.161 71.5793 161.947 72.4713 162.757 73.3904C164.615 75.5525 166.436 77.7383 168.249 79.9373C170.528 82.6364 172.806 84.4033 175.999 85.9998C175.452 89.3744 174.945 91.0821 172.999 93.9998C172.339 93.9998 171.679 93.9998 170.999 93.9998C170.896 94.5979 170.793 95.196 170.687 95.8123C169.901 98.3123 169.03 99.3751 166.999 101C166.339 101 165.679 101 164.999 101C164.504 102.485 164.504 102.485 163.999 104C163.009 104 162.019 104 160.999 104C160.999 104.66 160.999 105.32 160.999 106C159.346 107.349 157.678 108.681 155.999 110C155.339 110.99 154.679 111.98 153.999 113C153.339 113 152.679 113 151.999 113C151.999 113.66 151.999 114.32 151.999 115C151.009 115 150.019 115 148.999 115C148.999 115.99 148.999 116.98 148.999 118C148.339 118 147.679 118 146.999 118C146.504 119.485 146.504 119.485 145.999 121C145.339 121 144.679 121 143.999 121C143.504 122.485 143.504 122.485 142.999 124C141.89 125.176 140.771 126.345 139.601 127.461C138.364 128.65 137.155 129.87 135.96 131.101C135.251 131.831 134.542 132.561 133.812 133.312C133.138 134.01 132.464 134.707 131.769 135.426C129.999 137 129.999 137 127.999 137C127.339 138.65 126.679 140.3 125.999 142C125.009 142 124.019 142 122.999 142C122.628 142.866 122.628 142.866 122.249 143.75C120.787 146.383 119.361 148.124 116.999 150C113.659 149.629 111.741 148.239 109.249 146.062C108.636 145.538 108.022 145.013 107.39 144.472C105.999 143 105.999 143 105.999 141C105.444 140.773 104.888 140.546 104.316 140.312C101.334 138.623 99.3123 136.465 96.9369 134C94.3445 131.318 92.1076 129.072 88.9994 127C88.9994 126.34 88.9994 125.68 88.9994 125C88.0094 125 87.0194 125 85.9994 125C85.9994 124.01 85.9994 123.02 85.9994 122C85.3394 122 84.6794 122 83.9994 122C82.777 120.282 81.5586 118.561 80.3744 116.816C78.575 114.439 76.3485 112.812 73.9994 111C73.9994 110.34 73.9994 109.68 73.9994 109C73.3394 109 72.6794 109 71.9994 109C70.3744 107.625 70.3744 107.625 68.9994 106C68.9994 105.34 68.9994 104.68 68.9994 104C68.0094 103.67 67.0194 103.34 65.9994 103C64.3119 101.562 64.3119 101.562 62.9994 99.9998C62.9994 99.3398 62.9994 98.6798 62.9994 97.9998C62.4426 97.9585 61.8857 97.9173 61.3119 97.8748C57.6727 96.4977 56.1332 94.1699 53.9994 90.9998C53.8187 87.3854 55.2829 85.4328 57.4369 82.6873C58.2826 81.8004 59.1282 80.9135 59.9994 79.9998C60.6594 79.9998 61.3194 79.9998 61.9994 79.9998C62.6594 78.6798 63.3194 77.3598 63.9994 75.9998C64.6594 75.9998 65.3194 75.9998 65.9994 75.9998C65.9994 75.3398 65.9994 74.6798 65.9994 73.9998C68.3923 71.4017 70.8467 69.1197 73.6244 66.9373C76.0561 65.1121 76.0561 65.1121 77.6869 62.7498C78.1201 62.1723 78.5532 61.5948 78.9994 60.9998C79.6594 60.9998 80.3194 60.9998 80.9994 60.9998C80.9994 60.3398 80.9994 59.6798 80.9994 58.9998C81.6594 58.9998 82.3194 58.9998 82.9994 58.9998C83.3294 58.0098 83.6594 57.0198 83.9994 55.9998C85.6217 54.2898 87.2936 52.6263 88.9994 50.9998C89.7007 50.2366 90.4019 49.4735 91.1244 48.6873C92.9994 46.9998 92.9994 46.9998 95.9994 46.9998C95.9994 45.6798 95.9994 44.3598 95.9994 42.9998C97.433 41.3943 97.433 41.3943 99.4369 39.8123C103.628 36.4017 107.213 32.6384 110.824 28.6248C112.999 26.9998 112.999 26.9998 115.593 27.1326Z" fill="#FAFBFA"/>
<path d="M166.793 0.950402C170.801 0.904103 174.806 0.901936 178.814 0.928446C180.323 0.930912 181.833 0.918162 183.342 0.888612C190.971 0.748399 196.737 0.97155 202.685 6.28557C204.144 7.83749 205.583 9.40902 207 11.0001C208.63 12.5172 210.275 14.0195 211.938 15.5001C212.756 16.24 213.575 16.9799 214.418 17.7423C217.136 20.1185 219.929 22.3729 222.75 24.6251C227.069 28.108 230.501 31.7129 234 36.0001C234.99 36.6601 235.98 37.3201 237 38.0001C237 38.6601 237 39.3201 237 40.0001C237.588 40.2721 238.176 40.5441 238.782 40.8243C250.326 46.942 262.104 60.6498 266 73.0001C269.126 85.7434 267.464 98.5117 260.813 109.688C257.983 113.92 254.984 117.137 251.035 120.324C248.878 122.101 246.953 124.002 245 126C241.905 129.138 238.702 132.06 235.356 134.926C233.429 136.623 231.547 138.348 229.676 140.106C229.091 140.654 228.506 141.202 227.903 141.767C226.729 142.87 225.559 143.977 224.392 145.089C220.221 149 220.221 149 218 149C217.67 149.99 217.34 150.98 217 152C215.304 153.52 213.544 154.97 211.75 156.375C208.826 158.675 206.174 160.802 203.717 163.603C200.437 166.497 198.987 166.645 194.674 166.702C193.405 166.731 192.136 166.759 190.828 166.789C189.433 166.794 188.038 166.8 186.643 166.804C185.169 166.827 183.695 166.851 182.222 166.877C178.282 166.939 174.343 166.969 170.403 166.988C168.046 167 165.689 167.018 163.333 167.039C152.678 167.128 142.024 167.142 131.369 167.134C126.836 167.132 122.303 167.134 117.77 167.136C110.203 167.138 102.637 167.135 95.0701 167.13C86.3234 167.125 77.5767 167.127 68.8299 167.132C61.2675 167.137 53.7051 167.137 46.1427 167.135C41.6467 167.133 37.1507 167.133 32.6547 167.136C28.4585 167.139 24.2622 167.137 20.066 167.131C18.5248 167.13 16.9836 167.131 15.4423 167.133C13.349 167.135 11.2558 167.132 9.16254 167.127C7.98955 167.127 6.81658 167.126 5.60805 167.126C3.00031 167 3.00031 167 2.00031 166C1.89147 164.093 1.85341 162.183 1.84209 160.273C1.8323 159.028 1.82251 157.783 1.81243 156.501C1.80652 155.108 1.80071 153.716 1.79498 152.323C1.78541 150.866 1.7754 149.41 1.76499 147.953C1.73785 143.981 1.71687 140.009 1.69698 136.037C1.67512 131.877 1.64773 127.716 1.62093 123.556C1.5766 116.554 1.53584 109.553 1.49762 102.552C1.44393 92.7159 1.3843 82.88 1.32323 73.0441C1.24146 59.8335 1.1618 46.623 1.08841 33.4124C1.08047 31.9891 1.07242 30.5659 1.06423 29.1426C1.01426 20.4283 0.99023 11.7145 1.00031 3.00008C9.49737 2.05547 17.9186 1.82674 26.4632 1.77889C27.8858 1.76764 29.3085 1.75601 30.7311 1.74402C34.5715 1.71292 38.4119 1.68765 42.2524 1.66382C45.4905 1.6432 48.7286 1.61972 51.9668 1.59629C59.6426 1.54079 67.3185 1.4901 74.9944 1.44246C82.8142 1.39385 90.6339 1.33748 98.4536 1.27704C105.236 1.2249 112.018 1.17777 118.8 1.13435C122.819 1.10858 126.838 1.08121 130.857 1.04898C139.017 0.985052 147.176 0.951246 155.336 0.987433C159.156 1.00246 162.974 0.994781 166.793 0.950402ZM6.00031 7.00008C6.00031 58.4801 6.00031 109.96 6.00031 163C69.3603 163 132.72 163 198 163C198.66 161.35 199.32 159.7 200 158C202.125 157.188 202.125 157.188 204 157C204 156.34 204 155.68 204 155C205.083 154.66 205.083 154.66 206.188 154.313C209.577 152.731 211.543 150.799 214 148C214.33 147.01 214.66 146.02 215 145C215.99 144.67 216.98 144.34 218 144C218 143.34 218 142.68 218 142C218.99 142 219.98 142 221 142C221 141.34 221 140.68 221 140C221.619 139.753 222.238 139.505 222.875 139.25C225.138 138.179 225.138 138.179 226 136C227.281 133.438 228.457 133.235 231 132C232.165 130.868 233.326 129.731 234.45 128.559C238.571 124.417 243.002 120.488 247.688 117C250.526 114.546 252.517 111.766 254.668 108.707C256 107 256 107 258 106C259.096 103.692 259.096 103.692 260.063 101C261.911 96.0889 261.911 96.0889 263 95.0001C263.182 92.131 263.279 89.3091 263.313 86.4376C263.356 85.2571 263.356 85.2571 263.401 84.0528C263.465 78.0843 262.09 74.0698 259 69.0001C258.244 67.7258 258.244 67.7258 257.473 66.4259C254.626 62.1601 251.777 58.5073 248 55.0001C246.665 53.6481 245.332 52.2938 244 50.9376C241.138 48.0697 238.201 45.4897 235 43.0001C233.667 41.6667 232.334 40.3334 231 39.0001C227.909 35.9937 227.909 35.9937 224 35.0001C224 34.0101 224 33.0201 224 32.0001C221.784 29.8684 221.784 29.8684 218.938 27.7501C214.296 24.0792 210.072 20.2848 206 16.0001C202.513 12.1852 202.513 12.1852 198 10.0001C197.421 9.32951 196.841 8.65895 196.244 7.96806C193.148 5.25302 191.178 5.50449 187.097 5.51233C186.403 5.50821 185.708 5.50408 184.993 5.49984C182.665 5.4909 180.339 5.51057 178.011 5.53011C176.342 5.5296 174.673 5.52734 173.003 5.52347C168.465 5.51804 163.928 5.53749 159.39 5.56157C154.63 5.58288 149.87 5.58227 145.11 5.58426C137.104 5.59071 129.098 5.61197 121.091 5.64339C110.856 5.6835 100.621 5.70105 90.3852 5.7107C81.551 5.71905 72.7169 5.73628 63.8827 5.75573C61.996 5.75977 60.1094 5.76351 58.2227 5.76696C52.8277 5.77684 47.4328 5.79152 42.0379 5.8138C40.4127 5.81984 38.7875 5.82433 37.1623 5.82704C34.9173 5.83112 32.6723 5.84133 30.4272 5.85291C28.5546 5.85932 28.5546 5.85932 26.6441 5.86586C19.7553 6.06496 12.8785 6.57019 6.00031 7.00008Z" fill="#4A4C4C"/>
<path d="M115.593 27.1326C118.672 28.242 120.659 29.7258 122.999 31.9998C122.999 32.9898 122.999 33.9798 122.999 34.9998C124.649 35.6598 126.299 36.3198 127.999 36.9998C127.999 37.9898 127.999 38.9798 127.999 39.9998C128.592 40.0939 129.185 40.188 129.796 40.2849C132.491 41.1592 133.463 42.267 135.249 44.4373C136.031 45.3634 136.031 45.3634 136.828 46.3083C137.999 47.9998 137.999 47.9998 137.999 49.9998C138.639 50.2679 139.278 50.536 139.937 50.8123C141.999 51.9998 141.999 51.9998 142.999 54.9998C143.989 54.9998 144.979 54.9998 145.999 54.9998C145.999 55.6598 145.999 56.3198 145.999 56.9998C147.484 57.4948 147.484 57.4948 148.999 57.9998C151.999 61.4442 151.999 61.4442 151.999 63.9998C152.569 64.2331 153.139 64.4664 153.726 64.7068C156.547 66.3113 158.242 68.2441 160.374 70.6873C161.161 71.5793 161.947 72.4713 162.757 73.3904C164.615 75.5525 166.436 77.7383 168.249 79.9373C170.528 82.6364 172.806 84.4033 175.999 85.9998C175.452 89.3744 174.945 91.0821 172.999 93.9998C172.339 93.9998 171.679 93.9998 170.999 93.9998C170.896 94.5979 170.793 95.196 170.687 95.8123C169.901 98.3123 169.03 99.3751 166.999 101C166.339 101 165.679 101 164.999 101C164.504 102.485 164.504 102.485 163.999 104C163.009 104 162.019 104 160.999 104C160.999 104.66 160.999 105.32 160.999 106C159.346 107.349 157.678 108.681 155.999 110C155.339 110.99 154.679 111.98 153.999 113C153.339 113 152.679 113 151.999 113C151.999 113.66 151.999 114.32 151.999 115C151.009 115 150.019 115 148.999 115C148.999 115.99 148.999 116.98 148.999 118C148.339 118 147.679 118 146.999 118C146.504 119.485 146.504 119.485 145.999 121C145.339 121 144.679 121 143.999 121C143.504 122.485 143.504 122.485 142.999 124C141.89 125.176 140.771 126.345 139.601 127.461C138.364 128.65 137.155 129.87 135.96 131.101C135.251 131.831 134.542 132.561 133.812 133.312C133.138 134.01 132.464 134.707 131.769 135.426C129.999 137 129.999 137 127.999 137C127.339 138.65 126.679 140.3 125.999 142C125.009 142 124.019 142 122.999 142C122.628 142.866 122.628 142.866 122.249 143.75C120.787 146.383 119.361 148.124 116.999 150C113.659 149.629 111.741 148.239 109.249 146.062C108.636 145.538 108.022 145.013 107.39 144.472C105.999 143 105.999 143 105.999 141C105.444 140.773 104.888 140.546 104.316 140.312C101.334 138.623 99.3123 136.465 96.9369 134C94.3445 131.318 92.1076 129.072 88.9994 127C88.9994 126.34 88.9994 125.68 88.9994 125C88.0094 125 87.0194 125 85.9994 125C85.9994 124.01 85.9994 123.02 85.9994 122C85.3394 122 84.6794 122 83.9994 122C82.777 120.282 81.5586 118.561 80.3744 116.816C78.575 114.439 76.3485 112.812 73.9994 111C73.9994 110.34 73.9994 109.68 73.9994 109C73.3394 109 72.6794 109 71.9994 109C70.3744 107.625 70.3744 107.625 68.9994 106C68.9994 105.34 68.9994 104.68 68.9994 104C68.0094 103.67 67.0194 103.34 65.9994 103C64.3119 101.562 64.3119 101.562 62.9994 99.9998C62.9994 99.3398 62.9994 98.6798 62.9994 97.9998C62.4426 97.9585 61.8857 97.9173 61.3119 97.8748C57.6727 96.4977 56.1332 94.1699 53.9994 90.9998C53.8187 87.3854 55.2829 85.4328 57.4369 82.6873C58.2826 81.8004 59.1282 80.9135 59.9994 79.9998C60.6594 79.9998 61.3194 79.9998 61.9994 79.9998C62.6594 78.6798 63.3194 77.3598 63.9994 75.9998C64.6594 75.9998 65.3194 75.9998 65.9994 75.9998C65.9994 75.3398 65.9994 74.6798 65.9994 73.9998C68.3923 71.4017 70.8467 69.1197 73.6244 66.9373C76.0561 65.1121 76.0561 65.1121 77.6869 62.7498C78.1201 62.1723 78.5532 61.5948 78.9994 60.9998C79.6594 60.9998 80.3194 60.9998 80.9994 60.9998C80.9994 60.3398 80.9994 59.6798 80.9994 58.9998C81.6594 58.9998 82.3194 58.9998 82.9994 58.9998C83.3294 58.0098 83.6594 57.0198 83.9994 55.9998C85.6217 54.2898 87.2936 52.6263 88.9994 50.9998C89.7007 50.2366 90.4019 49.4735 91.1244 48.6873C92.9994 46.9998 92.9994 46.9998 95.9994 46.9998C95.9994 45.6798 95.9994 44.3598 95.9994 42.9998C97.433 41.3943 97.433 41.3943 99.4369 39.8123C103.628 36.4017 107.213 32.6384 110.824 28.6248C112.999 26.9998 112.999 26.9998 115.593 27.1326ZM113.999 32.9998C112.494 34.2845 110.995 35.5778 109.499 36.8748C108.246 37.9537 108.246 37.9537 106.968 39.0544C106.318 39.6964 105.669 40.3383 104.999 40.9998C104.999 41.6598 104.999 42.3198 104.999 42.9998C104.339 42.9998 103.679 42.9998 102.999 42.9998C101.399 44.6207 101.399 44.6207 99.7494 46.6873C96.7562 50.2185 93.5588 53.0336 89.9994 55.9998C85.3985 60.6541 85.3985 60.6541 82.0463 66.1833C81.7008 66.7828 81.3554 67.3822 80.9994 67.9998C79.6719 68.3556 78.3377 68.6869 76.9994 68.9998C75.047 70.7305 75.047 70.7305 73.3119 72.8748C72.7099 73.5734 72.1079 74.2721 71.4877 74.9919C69.8173 77.028 69.8173 77.028 68.9994 79.9998C67.6661 80.6664 66.3328 81.3331 64.9994 81.9998C62.5766 84.6342 62.5766 84.6342 61.9994 87.9998C61.3394 87.9998 60.6794 87.9998 59.9994 87.9998C60.5402 91.7938 61.9878 93.1532 64.9369 95.4998C68.7903 98.5768 68.7903 98.5768 70.0658 101.156C70.9108 103.361 70.9108 103.361 73.9994 104C75.5424 105.566 75.5424 105.566 77.1869 107.562C80.9051 111.949 84.8972 115.975 88.9994 120C93.9994 125 93.9994 125 95.6869 126.812C96.9516 128.223 96.9516 128.223 98.9994 128C98.9994 128.66 98.9994 129.32 98.9994 130C101.636 132.398 101.636 132.398 104.999 133C105.185 133.701 105.371 134.402 105.562 135.125C107.548 139.096 110.539 141.307 113.999 144C118.493 142.627 120.23 140.722 122.999 137C125.511 134.356 128.031 131.974 130.874 129.687C134.099 127.067 136.661 123.996 139.347 120.84C141.359 118.6 143.651 116.879 145.999 115C147.763 113.07 149.458 111.089 151.152 109.097C153.533 106.394 156.098 103.918 158.714 101.445C160.221 100.073 160.221 100.073 159.999 97.9998C160.659 97.9998 161.319 97.9998 161.999 97.9998C161.999 97.3398 161.999 96.6798 161.999 95.9998C162.577 95.7316 163.154 95.4635 163.749 95.1873C166.032 93.9826 167.973 92.5918 169.999 90.9998C168.348 82.1852 158.303 75.2297 152.155 69.1919C151.202 68.2518 151.202 68.2518 150.23 67.2927C149.37 66.45 149.37 66.45 148.492 65.5903C146.999 63.9998 146.999 63.9998 144.999 60.9998C144.339 60.9998 143.679 60.9998 142.999 60.9998C142.999 60.3398 142.999 59.6798 142.999 58.9998C142.381 58.9173 141.762 58.8348 141.124 58.7498C138.307 57.7553 138.267 56.6337 136.999 53.9998C133.7 49.6742 129.891 45.7914 125.999 41.9998C125.113 41.0716 124.226 40.1435 123.312 39.1873C121.288 36.7707 121.288 36.7707 118.999 36.9998C118.999 36.3398 118.999 35.6798 118.999 34.9998C116.524 34.0098 116.524 34.0098 113.999 32.9998Z" fill="#474948"/>
<path d="M168 1.99983C171.946 1.7747 175.89 1.61287 179.841 1.50545C181.833 1.43875 183.823 1.32429 185.812 1.20882C192.92 1.04728 197.23 1.39121 202.637 6.25374C204.112 7.81653 205.567 9.39862 207 10.9998C208.63 12.5167 210.274 14.019 211.938 15.4998C213.165 16.6097 213.165 16.6097 214.418 17.742C217.135 20.1183 219.929 22.3727 222.75 24.6248C227.069 28.1078 230.5 31.7127 234 35.9998C235.485 36.9898 235.485 36.9898 237 37.9998C237 38.6598 237 39.3198 237 39.9998C237.588 40.2718 238.176 40.5438 238.781 40.8241C247.91 45.6619 259.962 57.3543 263.25 67.3123C263.498 68.5292 263.745 69.7461 264 70.9998C263.01 71.4948 263.01 71.4948 262 71.9998C261.34 70.6798 260.68 69.3598 260 67.9998C259.01 67.9998 258.02 67.9998 257 67.9998C255.789 66.4256 255.789 66.4256 254.625 64.3123C252.457 60.6352 250.147 57.9218 247 54.9998C245.852 53.8355 244.706 52.6686 243.562 51.4998C241.324 49.2463 239.043 47.1706 236.562 45.1873C235.717 44.4655 234.871 43.7436 234 42.9998C234 42.3398 234 41.6798 234 40.9998C233.278 40.7523 232.556 40.5048 231.812 40.2498C228.704 38.8684 226.473 37.3313 224 34.9998C224 34.0098 224 33.0198 224 31.9998C223.461 31.7794 222.922 31.559 222.367 31.3319C219.208 29.5543 216.738 27.1649 214.125 24.6873C213.108 23.7315 212.09 22.7771 211.07 21.8241C210.569 21.3553 210.068 20.8866 209.552 20.4036C207.968 18.9706 206.337 17.6172 204.68 16.2694C202 13.9998 202 13.9998 201 11.9998C198.983 10.8663 198.983 10.8663 197 9.99983C197 9.33983 197 8.67983 197 7.99983C193.773 6.92413 191.363 6.84272 187.968 6.79451C186.727 6.77457 185.486 6.75462 184.207 6.73407C182.853 6.71709 181.499 6.70021 180.145 6.68343C178.759 6.66285 177.373 6.64186 175.987 6.62045C172.343 6.5653 168.698 6.51586 165.053 6.46761C161.333 6.41734 157.613 6.36168 153.893 6.30647C146.595 6.19898 139.298 6.09751 132 5.99983C132 5.66983 132 5.33983 132 4.99983C158.73 4.50483 158.73 4.50483 186 3.99983C180.06 3.99983 174.12 3.99983 168 3.99983C168 3.33983 168 2.67983 168 1.99983Z" fill="#535353"/>
<path d="M122 76.9999C125.226 78.6373 127.36 80.7195 129 83.9999C129.438 88.2881 129.449 91.9441 127.75 95.9374C125.948 98.0607 124.585 99.0194 122 99.9999C122 100.66 122 101.32 122 102C115.968 103.164 112.507 103.221 107 99.9999C102.119 95.729 102.119 95.729 101.848 91.7851C102.222 87.6912 102.902 83.5673 105 79.9999C110.365 76.107 115.585 76.0463 122 76.9999Z" fill="#282922"/>
<path d="M168 1.99989C168 2.65989 168 3.31989 168 3.99989C168.66 3.66989 169.32 3.33989 170 2.99989C171.375 2.91681 172.755 2.89253 174.133 2.90224C174.938 2.90546 175.744 2.90868 176.574 2.912C177.416 2.92038 178.258 2.92876 179.125 2.93739C179.974 2.9419 180.824 2.94642 181.699 2.95107C183.8 2.96286 185.9 2.9808 188 2.99989C185.578 5.42223 184.96 5.26333 181.641 5.31874C180.726 5.3386 179.811 5.35846 178.868 5.37892C177.862 5.39048 176.856 5.40204 175.82 5.41396C174.239 5.44314 174.239 5.44314 172.627 5.47292C169.126 5.5341 165.626 5.58011 162.125 5.62489C159.674 5.66222 157.223 5.69982 154.771 5.73769C114.497 6.32455 74.2633 6.08778 34 4.99989C34 4.33989 34 3.67989 34 2.99989C35.1464 2.98959 36.2928 2.97928 37.4739 2.96866C48.4278 2.8697 59.3817 2.76688 70.3355 2.66055C75.9632 2.60605 81.5908 2.55276 87.2185 2.50258C93.7303 2.44431 100.242 2.38201 106.754 2.3163C107.813 2.30575 108.872 2.2952 109.963 2.28434C124.324 2.13622 138.67 1.86497 153.018 1.23904C154.695 1.17082 154.695 1.17082 156.406 1.10121C157.352 1.05766 158.299 1.01411 159.274 0.969238C162.271 1.00294 165.06 1.43819 168 1.99989Z" fill="#363A39"/>
<path d="M22 2C57.97 2 93.94 2 131 2C131 2.33 131 2.66 131 3C98.99 3 66.98 3 34 3C34 3.66 34 4.32 34 5C49.18 5 64.36 5 80 5C80 5.33 80 5.66 80 6C72.7141 6.13208 65.4282 6.26256 58.1422 6.39115C54.7572 6.45094 51.3723 6.51123 47.9873 6.57275C44.0749 6.6436 40.1625 6.71259 36.25 6.78125C35.0639 6.80312 33.8778 6.825 32.6558 6.84753C23.7662 7.00096 14.8947 7 6 7C6 52.21 6 97.42 6 144C5.67 144 5.34 144 5 144C5 98.46 5 52.92 5 6C13.415 5.01 13.415 5.01 22 4C22 3.34 22 2.68 22 2Z" fill="#6F7070"/>
<path d="M83.0564 161.978C83.9352 161.988 84.8141 161.997 85.7196 162.007C88.6035 162.04 91.4873 162.08 94.3711 162.121C96.3789 162.145 98.3867 162.169 100.395 162.192C105.664 162.255 110.932 162.324 116.201 162.395C121.584 162.466 126.967 162.53 132.35 162.595C142.9 162.724 153.45 162.86 164 163C163.34 163.99 162.68 164.98 162 166C159.319 166.342 156.86 166.489 154.172 166.512C152.965 166.539 152.965 166.539 151.734 166.566C149.073 166.622 146.412 166.655 143.75 166.687C141.903 166.719 140.055 166.753 138.208 166.786C132.472 166.884 126.736 166.947 121 167C120.093 167.008 119.186 167.017 118.251 167.026C112.272 167.08 106.292 167.111 100.312 167.125C99.1476 167.129 99.1476 167.129 97.9591 167.133C71.406 167.203 71.406 167.203 67 165C67 164.34 67 163.68 67 163C72.4137 162.08 77.5727 161.891 83.0564 161.978Z" fill="#3D4140"/>
<path d="M1.99925 128C2.32925 128 2.65925 128 2.99925 128C3.32925 135.92 3.65925 143.84 3.99925 152C4.32925 149.36 4.65925 146.72 4.99925 144C5.32925 144 5.65925 144 5.99925 144C5.99925 150.27 5.99925 156.54 5.99925 163C26.1292 163 46.2592 163 66.9992 163C66.9992 163.66 66.9992 164.32 66.9992 165C67.6592 165.33 68.3192 165.66 68.9992 166C61.6893 166.144 54.3793 166.286 47.0693 166.427C44.5875 166.475 42.1058 166.524 39.624 166.573C36.0369 166.643 32.4497 166.712 28.8625 166.781C27.2242 166.814 27.2242 166.814 25.5528 166.848C19.9548 166.953 14.3566 167.033 8.75779 167.076C7.13946 167.091 7.13946 167.091 5.48843 167.105C2.99925 167 2.99925 167 1.99925 166C1.91063 163.188 1.88402 160.401 1.90159 157.59C1.90301 156.748 1.90442 155.906 1.90588 155.038C1.9115 152.338 1.92405 149.638 1.93675 146.938C1.94176 145.111 1.94632 143.285 1.95042 141.459C1.96147 136.973 1.97875 132.486 1.99925 128Z" fill="#494B4A"/>
<path d="M260 67C260.454 67.66 260.907 68.32 261.375 69C261.911 69.66 262.447 70.32 263 71C263.66 71 264.32 71 265 71C268.226 82.6938 268.539 94.8657 263.051 105.91C261.581 108.367 260.593 109.814 257.812 110.688C256.915 110.842 256.915 110.842 256 111C255.67 111.99 255.34 112.98 255 114C254.01 114 253.02 114 252 114C252.597 110.658 253.736 108.536 256 106C256.66 106 257.32 106 258 106C258.103 105.484 258.206 104.969 258.312 104.438C259 102 259 102 260.52 98.9023C262.362 94.6362 262.456 90.7213 262.375 86.125C262.369 85.3343 262.363 84.5436 262.357 83.729C262.23 77.9834 261.352 73.2912 259 68C259.33 67.67 259.66 67.34 260 67Z" fill="#4D5050"/>
<path d="M236 41C242.01 41.8659 244.776 44.8448 249 49C249.736 49.7217 249.736 49.7217 250.486 50.458C262.185 62.0781 262.185 62.0781 264 71C263.34 71.33 262.68 71.66 262 72C261.34 70.68 260.68 69.36 260 68C259.01 68 258.02 68 257 68C255.789 66.4258 255.789 66.4258 254.625 64.3125C252.457 60.6354 250.147 57.922 247 55C245.829 53.8374 244.663 52.6704 243.5 51.5C242.911 50.9109 242.322 50.3218 241.715 49.7148C239.477 47.4766 237.238 45.2383 235 43C235.33 42.34 235.66 41.68 236 41Z" fill="#4A4A4A"/>
<path d="M146 59C148 59 148 59 149.812 60.75C150.895 61.8637 150.895 61.8637 152 63C152.763 63.5775 153.526 64.155 154.312 64.75C157.222 67.1861 159.559 69.817 162.02 72.6953C164.286 75.3333 166.608 77.9176 168.938 80.5C169.71 81.3559 170.482 82.2119 171.277 83.0938C171.846 83.7228 172.414 84.3519 173 85C172.34 86.32 171.68 87.64 171 89C170.364 88.358 169.729 87.7161 169.074 87.0547C166.631 84.6074 164.141 82.2129 161.645 79.8203C160.034 78.2555 158.423 76.6904 156.812 75.125C155.993 74.3477 155.174 73.5704 154.33 72.7695C149.842 68.3736 146.965 65.2951 146 59Z" fill="#474747"/>
<path d="M168 2.00024C172.038 1.87618 176.076 1.78569 180.115 1.72559C181.488 1.70052 182.861 1.66645 184.233 1.62305C186.211 1.56207 188.189 1.53663 190.168 1.51196C191.357 1.48578 192.545 1.45959 193.77 1.43262C197.893 2.15723 199.356 3.85105 202 7.00024C201.34 8.32024 200.68 9.64024 200 11.0002C199.01 10.6702 198.02 10.3402 197 10.0002C197 9.34024 197 8.68024 197 8.00024C193.773 6.92454 191.363 6.84313 187.968 6.79492C186.727 6.77498 185.486 6.75503 184.207 6.73448C182.853 6.7175 181.499 6.70062 180.145 6.68384C178.759 6.66326 177.373 6.64227 175.987 6.62086C172.343 6.56571 168.698 6.51627 165.053 6.46802C161.333 6.41775 157.613 6.36209 153.893 6.30688C146.595 6.19939 139.298 6.09792 132 6.00024C132 5.67024 132 5.34024 132 5.00024C158.73 4.50524 158.73 4.50524 186 4.00024C180.06 4.00024 174.12 4.00024 168 4.00024C168 3.34024 168 2.68024 168 2.00024Z" fill="#5F6261"/>
<path d="M90.5 120.063C93.1598 122.124 94.9656 124.334 97 127C97.66 127.33 98.32 127.66 99 128C99 128.66 99 129.32 99 130C99.5981 130.268 100.196 130.536 100.812 130.813C104.54 132.836 106.278 135.159 108 139C106.02 139.99 106.02 139.99 104 141C103.169 140.157 102.337 139.314 101.48 138.445C100.383 137.339 99.2853 136.232 98.1875 135.125C97.6403 134.57 97.0931 134.014 96.5293 133.442C95.9976 132.907 95.4658 132.372 94.918 131.82C94.4309 131.328 93.9439 130.836 93.4421 130.329C91.83 128.774 91.83 128.774 89 127C89 126.34 89 125.68 89 125C88.01 125 87.02 125 86 125C86 124.01 86 123.02 86 122C85.34 121.67 84.68 121.34 84 121C86.6501 119.135 87.4384 118.762 90.5 120.063Z" fill="#404040"/>
<path d="M131 41C135.763 45.5125 135.763 45.5125 137.062 48.1875C138.278 50.538 139.67 50.8725 142 52C142.33 52.99 142.66 53.98 143 55C143.99 55 144.98 55 146 55C146 55.66 146 56.32 146 57C146.99 57.33 147.98 57.66 149 58C150.688 60.5625 150.688 60.5625 152 63C150.68 62.34 149.36 61.68 148 61C148 62.32 148 63.64 148 65C146.293 63.7194 144.626 62.3823 143 61C143 60.34 143 59.68 143 59C142.416 58.9149 141.832 58.8298 141.23 58.7422C138.367 57.7894 137.248 56.4173 135.312 54.125C134.711 53.4263 134.109 52.7277 133.488 52.0078C132 50 132 50 131 47C129 45.7912 129 45.7912 127 45C128.32 43.68 129.64 42.36 131 41Z" fill="#4D4D4D"/>
<path d="M123 163C136.53 163 150.06 163 164 163C163.34 163.99 162.68 164.98 162 166C159.269 166.304 156.768 166.42 154.035 166.398C152.851 166.403 152.851 166.403 151.644 166.407C149.974 166.409 148.303 166.404 146.633 166.391C144.076 166.375 141.52 166.391 138.963 166.41C137.341 166.408 135.719 166.404 134.098 166.398C132.949 166.408 132.949 166.408 131.777 166.417C127.304 166.358 126.311 166.311 123 163Z" fill="#353938"/>
<path d="M92 50C92.99 50.33 93.98 50.66 95 51C93.4281 54.8582 90.9554 57.1103 88 60C86.2288 62.0611 84.4791 64.1372 82.7461 66.2305C80.906 68.0953 79.4352 69.0597 77 70C76.01 70 75.02 70 74 70C73.67 70.66 73.34 71.32 73 72C73.609 68.9069 74.5987 66.8036 76.4375 64.25C76.8693 63.6364 77.3012 63.0228 77.7461 62.3906C78.3668 61.7023 78.3668 61.7023 79 61C79.66 61 80.32 61 81 61C81 60.34 81 59.68 81 59C81.66 59 82.32 59 83 59C83.33 58.01 83.66 57.02 84 56C85.375 54.3125 85.375 54.3125 87 53C87.99 53 88.98 53 90 53C90.66 52.01 91.32 51.02 92 50Z" fill="#414141"/>
<path d="M3.00098 98C3.66098 98 4.32098 98 5.00098 98C5.00098 116.15 5.00098 134.3 5.00098 153C4.34098 152.67 3.68098 152.34 3.00098 152C2.05176 133.926 2.05176 116.074 3.00098 98Z" fill="#343434"/>
<path d="M68 100C68.99 100 69.98 100 71 100C71 100.99 71 101.98 71 103C72.32 103.33 73.64 103.66 75 104C75 104.66 75 105.32 75 106C75.8779 106.375 75.8779 106.375 76.7734 106.758C79.2953 108.165 80.7509 109.687 82.625 111.875C83.2154 112.553 83.8058 113.231 84.4141 113.93C85.9132 115.887 86.9857 117.76 88 120C86.68 120.33 85.36 120.66 84 121C83.2781 120.092 82.5562 119.185 81.8125 118.25C80.0187 116.077 78.424 114.539 76.1875 112.75C75.4656 112.173 74.7437 111.595 74 111C74 110.34 74 109.68 74 109C73.34 109 72.68 109 72 109C68.88 105.696 68 104.676 68 100Z" fill="#3B3D3C"/>
<path d="M23.9991 3.99998C23.9991 4.32998 23.9991 4.65998 23.9991 4.99998C14.5941 5.49498 14.5941 5.49498 4.99913 5.99998C4.64851 8.57811 4.29788 11.1562 3.93663 13.8125C3.82312 14.6205 3.7096 15.4285 3.59264 16.261C3.16007 19.5796 2.92808 21.7868 3.99913 25C3.72143 27.3406 3.39373 29.6762 2.99913 32C2.66913 32 2.33913 32 1.99913 32C0.95395 22.3134 0.895415 12.7265 0.999134 2.99998C17.9117 0.753358 17.9117 0.753358 23.9991 3.99998Z" fill="#535353"/>
<path d="M114 28C117.782 28.2986 120.265 29.3662 123 32C123 32.99 123 33.98 123 35C125.475 35.99 125.475 35.99 128 37C128 37.99 128 38.98 128 40C128.99 40.33 129.98 40.66 131 41C130.34 42.32 129.68 43.64 129 45C127.893 44.2329 126.79 43.4611 125.688 42.6875C125.073 42.2582 124.458 41.829 123.824 41.3867C122.036 40.0274 120.476 38.6939 119 37C119 36.34 119 35.68 119 35C118.34 35 117.68 35 117 35C117 33.68 117 32.36 117 31C115.02 31.66 113.04 32.32 111 33C112 30 112 30 114 28Z" fill="#424242"/>
<path d="M172 84C173.32 84.66 174.64 85.32 176 86C175.453 89.3746 174.945 91.0824 173 94C172.34 94 171.68 94 171 94C170.845 94.8972 170.845 94.8972 170.688 95.8125C169.902 98.3126 169.031 99.3754 167 101C166.34 101 165.68 101 165 101C164.67 101.99 164.34 102.98 164 104C163.34 103.67 162.68 103.34 162 103C162 102.01 162 101.02 162 100C161.67 100.33 161.34 100.66 161 101C160.34 100.67 159.68 100.34 159 100C159.33 99.34 159.66 98.68 160 98C160.66 98 161.32 98 162 98C162 97.34 162 96.68 162 96C167.476 91 167.476 91 170 91C170.778 88.6668 171.424 86.3856 172 84Z" fill="#4D4D4D"/>
<path d="M257 109C257.99 109.66 258.98 110.32 260 111C258.333 112.667 256.667 114.333 255 116C254.196 116.825 253.391 117.65 252.562 118.5C249.819 121.176 246.971 123.582 244 126C243.67 125.34 243.34 124.68 243 124C241.68 124.33 240.36 124.66 239 125C240.238 121.286 241.852 120.226 245 118C245.66 118 246.32 118 247 118C247.33 117.01 247.66 116.02 248 115C248.66 115 249.32 115 250 115C250.33 114.01 250.66 113.02 251 112C252.32 112.33 253.64 112.66 255 113C255.66 111.68 256.32 110.36 257 109Z" fill="#4E4E4E"/>
<path d="M80 3.00008C103.582 2.79369 103.582 2.79369 115 4.00008C115 4.66008 115 5.32008 115 6.00008C103.45 6.00008 91.9 6.00008 80 6.00008C80 5.01008 80 4.02008 80 3.00008Z" fill="#3B3E3D"/>
<path d="M114 95C115.65 95.33 117.3 95.66 119 96C119 97.65 119 99.3 119 101C119.66 101 120.32 101 121 101C121 99.68 121 98.36 121 97C121.99 96.67 122.98 96.34 124 96C124 97.32 124 98.64 124 100C123.34 100 122.68 100 122 100C122 100.66 122 101.32 122 102C115.812 103.194 112.537 103.101 107 100C106.34 99.01 105.68 98.02 105 97C107.64 96.67 110.28 96.34 113 96C113.33 96.66 113.66 97.32 114 98C114 97.01 114 96.02 114 95Z" fill="#2F312F"/>
<path d="M251 52C252.667 53.6667 254.333 55.3333 256 57C256.866 57.7425 257.733 58.485 258.625 59.25C261.727 62.8422 262.787 66.4717 264 71C263.34 71.33 262.68 71.66 262 72C261.34 70.68 260.68 69.36 260 68C259.01 68 258.02 68 257 68C255.68 65.36 254.36 62.72 253 60C253.66 60 254.32 60 255 60C255 59.34 255 58.68 255 58C253.68 57.34 252.36 56.68 251 56C251 54.68 251 53.36 251 52Z" fill="#4B4B4B"/>
<path d="M201 7C206.441 9.33166 209.848 13.2473 212.125 18.6875C212.414 19.4506 212.702 20.2138 213 21C208.206 20.1149 205.359 17.3916 202 14C200.062 11.125 200.062 11.125 199 9C199.66 9 200.32 9 201 9C201 8.34 201 7.68 201 7Z" fill="#474747"/>
<path d="M18 163C21.96 163 25.92 163 30 163C30 163.66 30 164.32 30 165C31.5101 164.874 31.5101 164.874 33.0508 164.746C44.1285 163.914 54.9264 164.21 66 165C66.33 164.34 66.66 163.68 67 163C67 163.66 67 164.32 67 165C67.66 165.33 68.32 165.66 69 166C48.21 166.495 48.21 166.495 27 167C27 166.34 27 165.68 27 165C24.03 164.67 21.06 164.34 18 164C18 163.67 18 163.34 18 163Z" fill="#4A4D4C"/>
<path d="M124 78.6876C126.5 80.3285 127.62 81.3093 129 84.0001C129.583 88.874 129.463 92.683 127 97.0001C126.34 96.6701 125.68 96.3401 125 96.0001C125.186 94.7626 125.371 93.5251 125.562 92.2501C125.947 89.2373 126.087 86.9 125 84.0001C124.34 84.0001 123.68 84.0001 123 84.0001C122.897 83.3607 122.794 82.7213 122.688 82.0626C122.461 81.382 122.234 80.7013 122 80.0001C121.01 79.6701 120.02 79.3401 119 79.0001C122 78.0001 122 78.0001 124 78.6876Z" fill="#41423C"/>
<path d="M209 13C209.436 13.3751 209.871 13.7502 210.32 14.1367C214.186 17.4586 218.077 20.7464 222 24C221.01 24.33 220.02 24.66 219 25C218.67 25.99 218.34 26.98 218 28C215.69 26.02 213.38 24.04 211 22C211.33 21.34 211.66 20.68 212 20C211.34 19.01 210.68 18.02 210 17C209.375 14.8125 209.375 14.8125 209 13Z" fill="#555555"/>
<path d="M260 67C260.454 67.66 260.907 68.32 261.375 69C261.911 69.66 262.447 70.32 263 71C263.66 71 264.32 71 265 71C266.703 77.0825 267.132 81.771 266 88C264.095 84.4324 262.704 80.731 261.312 76.9375C260.855 75.709 260.397 74.4805 259.926 73.2148C259 70 259 70 260 67Z" fill="#383838"/>
<path d="M105 139C110.492 139.61 110.492 139.61 112.875 141.438C114 143 114 143 114 145C114.66 145 115.32 145 116 145C116 146.32 116 147.64 116 149C111.651 148.498 109.075 145.939 106 143C105.125 140.688 105.125 140.688 105 139Z" fill="#3E3E3E"/>
<path d="M107 39C107 42.66 106.308 43.0917 103.875 45.6875C100.72 49.1364 97.9456 52.7076 95.2617 56.5312C94.8454 57.0159 94.429 57.5006 94 58C93.34 58 92.68 58 92 58C92 58.66 92 59.32 92 60C90.68 59.67 89.36 59.34 88 59C88.6394 58.3606 89.2788 57.7212 89.9375 57.0625C90.3848 56.6139 90.8321 56.1653 91.293 55.7031C92.6239 54.3752 93.9611 53.0535 95.3008 51.7344C96.109 50.9352 96.9173 50.1359 97.75 49.3125C98.9179 48.162 98.9179 48.162 100.109 46.9883C102.052 45.1389 102.052 45.1389 103 43C103.66 43 104.32 43 105 43C105.66 41.68 106.32 40.36 107 39Z" fill="#D7D7D7"/>
<path d="M24 4.00002C24 4.33002 24 4.66002 24 5.00002C23.0706 5.049 22.1412 5.09798 21.1836 5.14845C11.9234 5.69679 11.9234 5.69679 3 8.00002C3.1875 6.12502 3.1875 6.12502 4 4.00002C9.55087 0.418806 18.3217 0.971608 24 4.00002Z" fill="#414141"/>
<path d="M164 77C168.274 78.5831 170.265 81.5057 173 85C172.34 86.32 171.68 87.64 171 89C169.333 87.3333 167.667 85.6667 166 84C165.381 83.4844 164.762 82.9688 164.125 82.4375C163.754 81.9631 163.382 81.4888 163 81C163.312 78.8125 163.312 78.8125 164 77Z" fill="#3A3A3A"/>
<path d="M90.6875 120.062C93 122 93 122 93.9375 124.562C93.9581 125.367 93.9787 126.171 94 127C93.34 127.66 92.68 128.32 92 129C91.01 128.34 90.02 127.68 89 127C89 126.34 89 125.68 89 125C88.01 125 87.02 125 86 125C86 124.01 86 123.02 86 122C85.34 121.67 84.68 121.34 84 121C86.7333 119.077 87.4966 118.801 90.6875 120.062Z" fill="#515251"/>
<path d="M245 49C247.375 49 247.375 49 250 50C251.688 53.5 251.688 53.5 253 57C253.66 57.33 254.32 57.66 255 58C255 58.66 255 59.32 255 60C250.733 59.5259 248.754 57.1169 246 54C244.688 51.6875 244.688 51.6875 244 50C244.33 49.67 244.66 49.34 245 49Z" fill="#494949"/>
<path d="M204 155C205.98 155.66 207.96 156.32 210 157C207.422 159.648 205.084 161.944 202 164C201.67 163.01 201.34 162.02 201 161C200.34 160.67 199.68 160.34 199 160C200.375 158.5 200.375 158.5 202 157C202.66 157 203.32 157 204 157C204 156.34 204 155.68 204 155Z" fill="#4C4E4D"/>
<path d="M257 109C257.99 109.66 258.98 110.32 260 111C257 114 254 117 251 120C250.34 119.01 249.68 118.02 249 117C248.34 116.67 247.68 116.34 247 116C247.99 115.67 248.98 115.34 250 115C250.33 114.01 250.66 113.02 251 112C252.32 112.33 253.64 112.66 255 113C255.66 111.68 256.32 110.36 257 109Z" fill="#525555"/>
<path d="M68 100C68.99 100 69.98 100 71 100C71 100.99 71 101.98 71 103C72.32 103.33 73.64 103.66 75 104C75 104.66 75 105.32 75 106C75.66 106 76.32 106 77 106C76.67 107.32 76.34 108.64 76 110C72.9054 109.668 71.972 108.971 69.75 106.688C68 104 68 104 68 100Z" fill="#3A3C3C"/>
<path d="M231 35C233.438 35.8125 233.438 35.8125 236 37C236.33 37.99 236.66 38.98 237 40C237.66 40 238.32 40 239 40C238.67 40.99 238.34 41.98 238 43C237.67 42.67 237.34 42.34 237 42C236.01 42.33 235.02 42.66 234 43C234 42.34 234 41.68 234 41C232.68 40.34 231.36 39.68 230 39C230.33 37.68 230.66 36.36 231 35Z" fill="#444444"/>
<path d="M4 9C4.33 9 4.66 9 5 9C5 16.59 5 24.18 5 32C4.34 31.67 3.68 31.34 3 31C3.02063 29.9069 3.04125 28.8138 3.0625 27.6875C3.18544 24.0562 3.18544 24.0562 2 21C2.24132 18.928 2.5624 16.8645 2.9375 14.8125C3.13215 13.7258 3.3268 12.6391 3.52734 11.5195C3.68332 10.6881 3.8393 9.85664 4 9Z" fill="#323232"/>
<path d="M241 123C241.99 123.33 242.98 123.66 244 124C243.619 126.763 243.164 127.841 241.125 129.812C240.424 130.204 239.723 130.596 239 131C238.01 130.67 237.02 130.34 236 130C237.293 127.116 238.659 125.128 241 123Z" fill="#404140"/>
<path d="M144 55C144.66 55 145.32 55 146 55C146 55.66 146 56.32 146 57C146.99 57.33 147.98 57.66 149 58C150.688 60.5625 150.688 60.5625 152 63C150.68 62.34 149.36 61.68 148 61C148 62.32 148 63.64 148 65C146.293 63.7194 144.626 62.3823 143 61C143 60.34 143 59.68 143 59C142.34 58.67 141.68 58.34 141 58C141.99 58 142.98 58 144 58C144 57.01 144 56.02 144 55Z" fill="#626262"/>
<path d="M219 25C221.782 25.376 223.588 25.6732 225.812 27.4375C227 29 227 29 227 31C224.125 31.125 224.125 31.125 221 31C220.34 30.34 219.68 29.68 219 29C219 27.68 219 26.36 219 25Z" fill="#424242"/>
<path d="M120 139C120.66 139.33 121.32 139.66 122 140C121.01 141.485 121.01 141.485 120 143C120 144.32 120 145.64 120 147C118.5 148.75 118.5 148.75 117 150C116.01 149.67 115.02 149.34 114 149C114.66 149 115.32 149 116 149C116 147.68 116 146.36 116 145C115.34 144.67 114.68 144.34 114 144C114.619 143.732 115.238 143.464 115.875 143.188C118.3 142.044 118.3 142.044 120 139Z" fill="#4E4E4E"/>
<path d="M164 95C164.66 95.33 165.32 95.66 166 96C166 96.66 166 97.32 166 98C166.66 98.33 167.32 98.66 168 99C167.67 99.66 167.34 100.32 167 101C166.34 101 165.68 101 165 101C164.67 101.99 164.34 102.98 164 104C163.34 103.67 162.68 103.34 162 103C162 102.01 162 101.02 162 100C161.67 100.33 161.34 100.66 161 101C160.34 100.67 159.68 100.34 159 100C159.33 99.34 159.66 98.68 160 98C160.66 98 161.32 98 162 98C162 97.34 162 96.68 162 96C162.66 95.67 163.32 95.34 164 95Z" fill="#606463"/>
<path d="M133.041 1.88672C133.916 1.89196 134.79 1.89719 135.691 1.90259C136.636 1.90581 137.58 1.90903 138.553 1.91235C139.546 1.92073 140.539 1.92911 141.562 1.93774C142.56 1.94226 143.557 1.94677 144.584 1.95142C147.056 1.96324 149.528 1.97973 152 2.00024C152 2.33024 152 2.66024 152 3.00024C149.375 3.19455 146.751 3.38098 144.125 3.56274C143.005 3.64686 143.005 3.64686 141.863 3.73267C136.227 4.11353 136.227 4.11353 134 3.00024C134 3.66024 134 4.32024 134 5.00024C132.68 4.34024 131.36 3.68024 130 3.00024C131 2.00024 131 2.00024 133.041 1.88672Z" fill="#484C4B"/>
<path d="M124.062 78.8124C126 79.9999 126 79.9999 128 81.9999C128.125 84.6249 128.125 84.6249 128 86.9999C125.562 85.7499 125.562 85.7499 123 83.9999C122.375 81.8749 122.375 81.8749 122 79.9999C121.01 79.6699 120.02 79.3399 119 78.9999C122 77.9999 122 77.9999 124.062 78.8124Z" fill="#3B3C34"/>
<path d="M114 33C116.475 33.99 116.475 33.99 119 35C119 35.66 119 36.32 119 37C119.99 37.33 120.98 37.66 122 38C119.108 38.8264 117.113 39 114 39C113.618 37.3439 113.286 35.6754 113 34C113.33 33.67 113.66 33.34 114 33Z" fill="#E3E7E6"/>
<path d="M114 28C116.625 28.375 116.625 28.375 119 29C119.33 30.65 119.66 32.3 120 34C119.01 34 118.02 34 117 34C117 33.01 117 32.02 117 31C115.02 31.66 113.04 32.32 111 33C112 30 112 30 114 28Z" fill="#303131"/>
<path d="M150 111C150.66 111.33 151.32 111.66 152 112C152 112.99 152 113.98 152 115C151.01 115 150.02 115 149 115C149 115.99 149 116.98 149 118C148.34 118 147.68 118 147 118C147 118.66 147 119.32 147 120C146.01 120 145.02 120 144 120C144 118.68 144 117.36 144 116C144.99 116 145.98 116 147 116C147 115.34 147 114.68 147 114C147.99 114 148.98 114 150 114C150 113.01 150 112.02 150 111Z" fill="#323434"/>
<path d="M162 80C167.75 84.625 167.75 84.625 170 88C169.67 88.99 169.34 89.98 169 91C169 90.34 169 89.68 169 89C168.216 88.8144 167.433 88.6287 166.625 88.4375C164 87 164 87 162.688 83.375C162.461 82.2613 162.234 81.1475 162 80Z" fill="#DDDDDD"/>
<path d="M260 67C260.454 67.66 260.907 68.32 261.375 69C261.911 69.66 262.447 70.32 263 71C263.66 71 264.32 71 265 71C265.33 72.65 265.66 74.3 266 76C264.68 76 263.36 76 262 76C260.593 73.3737 259.508 70.9489 259 68C259.33 67.67 259.66 67.34 260 67Z" fill="#424242"/>
<path d="M67 163C70.63 163 74.26 163 78 163C78.33 163.66 78.66 164.32 79 165C77.3759 165.195 75.7506 165.381 74.125 165.562C73.2201 165.667 72.3152 165.771 71.3828 165.879C69 166 69 166 67 165C67 164.34 67 163.68 67 163Z" fill="#313534"/>
<path d="M80 116C81.3756 117.29 82.7077 118.627 84 120C84 120.66 84 121.32 84 122C84.66 122 85.32 122 86 122C86 123.98 86 125.96 86 128C85.34 127.67 84.68 127.34 84 127C83.34 127 82.68 127 82 127C81.8556 125.928 81.7113 124.855 81.5625 123.75C81.1625 121.083 80.7241 118.586 80 116Z" fill="#E6E9E8"/>
<path d="M64 96C65.875 96.3125 65.875 96.3125 68 97C68.66 97.99 69.32 98.98 70 100C69.01 101.32 68.02 102.64 67 104C64.9375 101.688 64.9375 101.688 63 99C63.33 98.01 63.66 97.02 64 96Z" fill="#3E4241"/>
<path d="M96 47C96 47.66 96 48.32 96 49C96.66 49.33 97.32 49.66 98 50C97.01 50.66 96.02 51.32 95 52C94.01 51.67 93.02 51.34 92 51C91.01 52.485 91.01 52.485 90 54C89.34 53.34 88.68 52.68 88 52C92.625 47 92.625 47 96 47Z" fill="#4D4D4D"/>
<path d="M263 89C263.66 89 264.32 89 265 89C265.33 91.97 265.66 94.94 266 98C264.68 98 263.36 98 262 98C262.33 95.03 262.66 92.06 263 89Z" fill="#343535"/>
<path d="M92 50C92.99 50.33 93.98 50.66 95 51C93.707 53.8844 92.3406 55.8722 90 58C89.01 57.67 88.02 57.34 87 57C87.33 55.68 87.66 54.36 88 53C88.66 53 89.32 53 90 53C90.66 52.01 91.32 51.02 92 50Z" fill="#303030"/>
<path d="M131 128C131.99 128.99 132.98 129.98 134 131C132.25 134.875 132.25 134.875 130 136C129.67 135.01 129.34 134.02 129 133C128.01 133 127.02 133 126 133C127.65 131.35 129.3 129.7 131 128Z" fill="#525453"/>
<path d="M123 96C123.33 97.32 123.66 98.64 124 100C123.34 100 122.68 100 122 100C122 100.66 122 101.32 122 102C119.69 102.33 117.38 102.66 115 103C115 102.01 115 101.02 115 100C116.32 99.67 117.64 99.34 119 99C119 99.66 119 100.32 119 101C119.66 101 120.32 101 121 101C121 99.68 121 98.36 121 97C121.66 96.67 122.32 96.34 123 96Z" fill="#393A39"/>
<path d="M198 161C198.99 161 199.98 161 201 161C201.33 161.99 201.66 162.98 202 164C199.475 165.262 197.688 165.099 194.875 165.062C193.965 165.053 193.055 165.044 192.117 165.035C191.419 165.024 190.72 165.012 190 165C193.088 163.235 194.233 163 198 163C198 162.34 198 161.68 198 161Z" fill="#2F3332"/>
<path d="M62 92C63.32 93.32 64.64 94.64 66 96C65.34 96 64.68 96 64 96C64.33 96.99 64.66 97.98 65 99C63.02 98.34 61.04 97.68 59 97C59 95 59 95 60.5 93.375C60.995 92.9212 61.49 92.4675 62 92Z" fill="#4B4E4D"/>
<path d="M100.999 82C101.989 82 102.979 82 103.999 82C103.339 85.96 102.679 89.92 101.999 94C99.7635 90.6467 99.8262 90.0926 100.374 86.3125C100.485 85.5043 100.596 84.696 100.71 83.8633C100.805 83.2484 100.901 82.6335 100.999 82Z" fill="#EAEAEA"/>
<path d="M83 64C83 64.99 83 65.98 83 67C82.01 67.495 82.01 67.495 81 68C81.66 66.68 82.32 65.36 83 64ZM78 68C78.99 68.33 79.98 68.66 81 69C80.67 69.99 80.34 70.98 80 72C76.9375 73.1875 76.9375 73.1875 74 74C75.32 72.02 76.64 70.04 78 68Z" fill="#DEDEDE"/>
<path d="M146 59C146.66 59 147.32 59 148 59C149.714 60.9593 151.384 62.9588 153 65C151.02 65.99 151.02 65.99 149 67C148.01 64.36 147.02 61.72 146 59Z" fill="#313131"/>
<path d="M74 162C77.3 162.33 80.6 162.66 84 163C83.01 163.33 82.02 163.66 81 164C81 164.66 81 165.32 81 166C78.69 166 76.38 166 74 166C75.32 165.34 76.64 164.68 78 164C76.68 164 75.36 164 74 164C74 163.34 74 162.68 74 162Z" fill="#585C5B"/>
<path d="M229 128C231.625 127.812 231.625 127.812 234 128C234 128.66 234 129.32 234 130C232.039 131.389 230.038 132.726 228 134C227.67 133.01 227.34 132.02 227 131C227.66 130.01 228.32 129.02 229 128Z" fill="#E6E9E8"/>
<path d="M159 74C161.475 74.495 161.475 74.495 164 75C164 75.99 164 76.98 164 78C163.34 78.66 162.68 79.32 162 80C160.5 78.6875 160.5 78.6875 159 77C159 76.01 159 75.02 159 74Z" fill="#3C3C3C"/>
<path d="M256 64C256.99 64.33 257.98 64.66 259 65C259.33 65.99 259.66 66.98 260 68C259.01 68 258.02 68 257 68C256.67 66.68 256.34 65.36 256 64ZM261 65C262.562 66.8125 262.562 66.8125 264 69C263.67 69.99 263.34 70.98 263 72C261 69 261 69 260 66C260.33 65.67 260.66 65.34 261 65Z" fill="#5D5D5D"/>
<path d="M201 7C202.938 7.8125 202.938 7.8125 205 9C205.33 9.99 205.66 10.98 206 12C203.625 12.1875 203.625 12.1875 201 12C200.34 11.01 199.68 10.02 199 9C199.66 9 200.32 9 201 9C201 8.34 201 7.68 201 7Z" fill="#3C3D3D"/>
<path d="M135 126C135.66 127.32 136.32 128.64 137 130C136.01 130.66 135.02 131.32 134 132C133.01 131.34 132.02 130.68 131 130C131.33 129.01 131.66 128.02 132 127C132.99 126.67 133.98 126.34 135 126Z" fill="#414241"/>
<path d="M103 133C103.66 133 104.32 133 105 133C105.99 134.98 106.98 136.96 108 139C106.02 139.99 106.02 139.99 104 141C103.34 140.01 102.68 139.02 102 138C102.66 138 103.32 138 104 138C103.67 136.35 103.34 134.7 103 133Z" fill="#565656"/>
<path d="M167 92C167.66 92 168.32 92 169 92C170 95 170 95 169 98C168.01 98 167.02 98 166 98C165.375 96.125 165.375 96.125 165 94C165.66 93.34 166.32 92.68 167 92Z" fill="#2B2C2C"/>
<path d="M169 83C170.32 83.66 171.64 84.32 173 85C172.34 86.32 171.68 87.64 171 89C170.01 88.34 169.02 87.68 168 87C168.33 85.68 168.66 84.36 169 83Z" fill="#2C2C2C"/>
<path d="M64 77C65.32 77 66.64 77 68 77C68 77.66 68 78.32 68 79C67.01 79.495 67.01 79.495 66 80C65.2784 81.6436 64.6065 83.3105 64 85C63.34 85 62.68 85 62 85C62.66 82.36 63.32 79.72 64 77Z" fill="#2C2E2D"/>
<path d="M63 77C63.6875 78.8125 63.6875 78.8125 64 81C62.4657 83.1803 61.3567 83.8879 58.8125 84.6875C58.2144 84.7906 57.6162 84.8937 57 85C58.375 82.5 58.375 82.5 60 80C60.66 80 61.32 80 62 80C62.33 79.01 62.66 78.02 63 77Z" fill="#555756"/>
<path d="M97 44C98.98 44.495 98.98 44.495 101 45C100.34 46.32 99.68 47.64 99 49C98.01 49 97.02 49 96 49C96.33 47.35 96.66 45.7 97 44Z" fill="#393939"/>
<path d="M120 31C120.99 31.33 121.98 31.66 123 32C123 32.99 123 33.98 123 35C123.66 35.33 124.32 35.66 125 36C124.01 36.33 123.02 36.66 122 37C122 36.34 122 35.68 122 35C121.34 35 120.68 35 120 35C119.67 35.66 119.34 36.32 119 37C119 36.34 119 35.68 119 35C118.34 34.67 117.68 34.34 117 34C117.99 34 118.98 34 120 34C120 33.01 120 32.02 120 31Z" fill="#4E504F"/>
<path d="M5 3C6.67543 3.28605 8.34385 3.61781 10 4C10 4.66 10 5.32 10 6C7.69 6.66 5.38 7.32 3 8C3.875 4.125 3.875 4.125 5 3Z" fill="#353535"/>
<path d="M123 163C125.97 163 128.94 163 132 163C130.515 164.485 130.515 164.485 129 166C126.375 165.812 126.375 165.812 124 165C123.67 164.34 123.34 163.68 123 163Z" fill="#2F3332"/>
<path d="M213 148C214.65 148.33 216.3 148.66 218 149C217.67 149.99 217.34 150.98 217 152C215.35 151.67 213.7 151.34 212 151C212.33 150.01 212.66 149.02 213 148Z" fill="#3F4241"/>
<path d="M77 107C77.99 107.99 78.98 108.98 80 110C79.01 111.32 78.02 112.64 77 114C76.01 112.68 75.02 111.36 74 110C74.99 109.01 75.98 108.02 77 107Z" fill="#525252"/>
<path d="M163 97C164 100 164 100 162.688 102.688C162.131 103.451 161.574 104.214 161 105C160.34 105 159.68 105 159 105C159 103.68 159 102.36 159 101C159.66 101 160.32 101 161 101C161 100.34 161 99.68 161 99C161.66 99 162.32 99 163 99C163 98.34 163 97.68 163 97Z" fill="#252928"/>
<path d="M68 100C68.99 100 69.98 100 71 100C71 100.99 71 101.98 71 103C71.66 103.33 72.32 103.66 73 104C73 104.66 73 105.32 73 106C71.68 106 70.36 106 69 106C68.67 104.02 68.34 102.04 68 100Z" fill="#2D3130"/>
<path d="M103 85C103.33 85 103.66 85 104 85C104.977 91.0547 104.977 91.0547 105 93C104.34 93.66 103.68 94.32 103 95C102.67 94.67 102.34 94.34 102 94C102.089 92.4748 102.245 90.9532 102.438 89.4375C102.539 88.6112 102.641 87.7849 102.746 86.9336C102.83 86.2955 102.914 85.6574 103 85Z" fill="#3F3F3F"/>
<path d="M127 39C128.32 39.66 129.64 40.32 131 41C130.34 42.32 129.68 43.64 129 45C128.01 44.34 127.02 43.68 126 43C126.33 41.68 126.66 40.36 127 39Z" fill="#343434"/>
<path d="M105 139C107.475 139.495 107.475 139.495 110 140C110 141.32 110 142.64 110 144C108.68 143.67 107.36 143.34 106 143C105.67 141.68 105.34 140.36 105 139Z" fill="#353535"/>
<path d="M226 136C226.99 136.99 227.98 137.98 229 139C228.01 139 227.02 139 226 139C226 139.66 226 140.32 226 141C224.68 141.33 223.36 141.66 222 142C223.152 139.532 224.048 137.952 226 136Z" fill="#303433"/>
<path d="M138 53C139.65 53 141.3 53 143 53C143.33 54.65 143.66 56.3 144 58C142.68 57.67 141.36 57.34 140 57C140 56.34 140 55.68 140 55C139.34 54.34 138.68 53.68 138 53Z" fill="#2F2F2F"/>
<path d="M250 52C250.268 52.6187 250.536 53.2375 250.812 53.875C251.956 56.2995 251.956 56.2995 255 58C255 58.66 255 59.32 255 60C253.125 59.8125 253.125 59.8125 251 59C249.688 56.5625 249.688 56.5625 249 54C249.33 53.34 249.66 52.68 250 52Z" fill="#3C3C3C"/>
<path d="M236 41C240.75 41.75 240.75 41.75 243 44C241.02 44.66 239.04 45.32 237 46C236.34 45.01 235.68 44.02 235 43C235.33 42.34 235.66 41.68 236 41Z" fill="#585858"/>
<path d="M130 132C130 133.65 130 135.3 130 137C128.68 137.33 127.36 137.66 126 138C126 136.68 126 135.36 126 134C129 132 129 132 130 132Z" fill="#2A2D2C"/>
<path d="M144 121C144.66 122.32 145.32 123.64 146 125C143.353 126.461 142.106 127 139 127C140.65 125.02 142.3 123.04 144 121Z" fill="#CED0CF"/>
</svg>
