<svg width="323" height="212" viewBox="0 0 323 212" fill="none" xmlns="http://www.w3.org/2000/svg">
<path d="M47.7915 211.206L61.3762 1H64.8981L79.9922 211.003L47.7915 211.206Z" fill="black"/>
<path d="M90.0549 210.94L103.639 1H107.161L122.759 210.734L90.0549 210.94Z" fill="black"/>
<path d="M133.828 210.664L146.406 1H149.928L166.028 210.462L133.828 210.664Z" fill="black"/>
<path d="M302.378 208.976L315.962 1H322V209.481L302.378 208.976Z" fill="black"/>
<path d="M22.1317 1H19.1129L4.01881 211.467L37.2257 211.272L22.1317 1Z" fill="black"/>
<path d="M19.1129 1H1V211.5L37.2257 211.272L4.01881 211.467L19.1129 1Z" fill="black"/>
<path d="M19.1129 1H1V211.5L37.2257 211.272L4.01881 211.467L19.1129 1Z" fill="#F2E660"/>
<path d="M61.3762 1H22.1317L37.2257 211.272L47.7915 211.206L61.3762 1Z" fill="black"/>
<path d="M61.3762 1H22.1317L37.2257 211.272L47.7915 211.206L61.3762 1Z" fill="#F2E660"/>
<path d="M103.639 1H64.8981L79.9922 211.003L90.0549 210.94L103.639 1Z" fill="black"/>
<path d="M103.639 1H64.8981L79.9922 211.003L90.0549 210.94L103.639 1Z" fill="#F2E660"/>
<path d="M146.406 1H107.161L122.759 210.734L133.828 210.664L146.406 1Z" fill="black"/>
<path d="M146.406 1H107.161L122.759 210.734L133.828 210.664L146.406 1Z" fill="#F2E660"/>
<path d="M189.172 1H149.928L166.028 210.462L174.581 210.408L189.172 1Z" fill="black"/>
<path d="M189.172 1H149.928L166.028 210.462L174.581 210.408L189.172 1Z" fill="#F2E660"/>
<path d="M231.939 1H192.694L201.618 131.742H223.446L231.939 1Z" fill="black"/>
<path d="M231.939 1H192.694L201.618 131.742H223.446L231.939 1Z" fill="#F2E660"/>
<path d="M206.973 210.204L218.354 210.133L219.249 196.356H206.027L206.973 210.204Z" fill="black"/>
<path d="M206.973 210.204L218.354 210.133L219.249 196.356H206.027L206.973 210.204Z" fill="#F2E660"/>
<path d="M273.699 1H234.958L244.088 131.742H264.881L273.699 1Z" fill="black"/>
<path d="M273.699 1H234.958L244.088 131.742H264.881L273.699 1Z" fill="#F2E660"/>
<path d="M315.962 1H277.221L288.109 151.518L291.812 156.982V169.602L289.66 172.967L292.315 209.668L322 209.481L302.378 208.976L315.962 1Z" fill="black"/>
<path d="M315.962 1H277.221L288.109 151.518L291.812 156.982V169.602L289.66 172.967L292.315 209.668L322 209.481L302.378 208.976L315.962 1Z" fill="#F2E660"/>
<path d="M249.549 209.937L259.611 209.873L260.523 196.356H248.6L249.549 209.937Z" fill="black"/>
<path d="M249.549 209.937L259.611 209.873L260.523 196.356H248.6L249.549 209.937Z" fill="#F2E660"/>
<path d="M192.694 1H189.172L174.581 210.408L206.973 210.204L206.027 196.356H196.216V131.742H201.618L192.694 1Z" fill="black"/>
<path d="M234.958 1H231.939L223.446 131.742H244.088L234.958 1Z" fill="black"/>
<path d="M218.354 210.133L249.549 209.937L248.6 196.356H219.249L218.354 210.133Z" fill="black"/>
<path d="M259.611 209.873L292.315 209.668L289.66 172.967L274.705 196.356H260.523L259.611 209.873Z" fill="black"/>
<path d="M277.221 1H273.699L264.881 131.742H274.705L288.109 151.518L277.221 1Z" fill="black"/>
<path d="M1 1H322M1 1V211.5M1 1H19.1129M322 1V209.481M322 1H315.962M322 209.481L1 211.5M322 209.481L302.378 208.976L315.962 1M322 209.481L292.315 209.668M1 211.5L37.2257 211.272M19.1129 1L4.01881 211.467L37.2257 211.272M19.1129 1H22.1317M37.2257 211.272L22.1317 1M37.2257 211.272L47.7915 211.206M61.3762 1L47.7915 211.206M61.3762 1H64.8981M61.3762 1H22.1317M47.7915 211.206L79.9922 211.003M79.9922 211.003L64.8981 1M79.9922 211.003L90.0549 210.94M103.639 1L90.0549 210.94M103.639 1H107.161M103.639 1H64.8981M90.0549 210.94L122.759 210.734M122.759 210.734L107.161 1M122.759 210.734L133.828 210.664M146.406 1L133.828 210.664M146.406 1H149.928M146.406 1H107.161M133.828 210.664L166.028 210.462M166.028 210.462L149.928 1M166.028 210.462L174.581 210.408M189.172 1L174.581 210.408M189.172 1H192.694M189.172 1H149.928M174.581 210.408L206.973 210.204M206.973 210.204L206.027 196.356M206.973 210.204L218.354 210.133M231.939 1H234.958M231.939 1L223.446 131.742M231.939 1H192.694M218.354 210.133L249.549 209.937M218.354 210.133L219.249 196.356M249.549 209.937L248.6 196.356M249.549 209.937L259.611 209.873M273.699 1H277.221M273.699 1L264.881 131.742M273.699 1H234.958M259.611 209.873L292.315 209.668M259.611 209.873L260.523 196.356M292.315 209.668L289.66 172.967M315.962 1H277.221M277.221 1L288.109 151.518M192.694 1L201.618 131.742M234.958 1L244.088 131.742M248.6 196.356H219.249M248.6 196.356H260.523M219.249 196.356H206.027M206.027 196.356H196.216V131.742H201.618M201.618 131.742H223.446M223.446 131.742H244.088M244.088 131.742H264.881M264.881 131.742H274.705L288.109 151.518M288.109 151.518L291.812 156.982V169.602L289.66 172.967M260.523 196.356H274.705L289.66 172.967" stroke="black"/>
</svg>
