<svg width="99" height="68" viewBox="0 0 99 68" fill="none" xmlns="http://www.w3.org/2000/svg">
<path fill-rule="evenodd" clip-rule="evenodd" d="M1 1V67H10.9553L6.48057 1H1ZM24.3712 67H54.1535L49.5749 1H28.63L24.3712 67ZM80.6421 67H66.2514L70.6734 1H80.6421L94.2425 21.2003L95.8168 43.1091L80.6421 67Z" fill="black"/>
<path d="M10.9553 67H24.3712L28.63 1H6.48057L10.9553 67Z" fill="#F2E660"/>
<path d="M49.5749 1L54.1535 67H66.2514L70.6734 1H49.5749Z" fill="#F2E660"/>
<path d="M98 39.6719V26.7812L94.2425 21.2003L95.8168 43.1091L98 39.6719Z" fill="black"/>
<path d="M98 39.6719V26.7812L94.2425 21.2003L95.8168 43.1091L98 39.6719Z" fill="#F2E660"/>
<path d="M54.1535 67H24.3712M54.1535 67L49.5749 1M54.1535 67H66.2514M24.3712 67H10.9553M24.3712 67L28.63 1M10.9553 67H1V1H6.48057M10.9553 67L6.48057 1M6.48057 1H28.63M28.63 1H49.5749M49.5749 1H70.6734M70.6734 1H80.6421L94.2425 21.2003M70.6734 1L66.2514 67M94.2425 21.2003L98 26.7812V39.6719L95.8168 43.1091M94.2425 21.2003L95.8168 43.1091M66.2514 67H80.6421L95.8168 43.1091" stroke="black"/>
</svg>
