<svg width="99" height="68" viewBox="0 0 99 68" fill="none" xmlns="http://www.w3.org/2000/svg">
<path d="M71.5 1H70.6734H57.5V67H66.2514H71.5V1Z" fill="black"/>
<path d="M34 67H48V1H34V67Z" fill="black"/>
<path d="M9.5 67H10.9553H23.5V1H9.5V67Z" fill="black"/>
<path d="M83.5004 62.5L95.6185 43.4213V22.5L83.8182 5.5L83.5004 62.5Z" fill="black"/>
<path d="M1 1V67H9.5V1H6.48057H1Z" fill="black"/>
<path d="M1 1V67H9.5V1H6.48057H1Z" fill="#F2E660"/>
<path d="M24.3712 67H34V1H28.63H23.5V67H24.3712Z" fill="black"/>
<path d="M24.3712 67H34V1H28.63H23.5V67H24.3712Z" fill="#F2E660"/>
<path d="M48 67H54.1535H57.5V1H49.5749H48V67Z" fill="black"/>
<path d="M48 67H54.1535H57.5V1H49.5749H48V67Z" fill="#F2E660"/>
<path d="M80.6421 1H71.5V67H80.6421L83.5004 62.5L83.8182 5.5L80.6421 1Z" fill="black"/>
<path d="M80.6421 1H71.5V67H80.6421L83.5004 62.5L83.8182 5.5L80.6421 1Z" fill="#F2E660"/>
<path d="M98 39.6719V26.7812L95.8168 22.5L83.8182 5.5L95.6185 22.5V43.4213L95.8168 43.1091L98 39.6719Z" fill="black"/>
<path d="M98 39.6719V26.7812L95.8168 22.5L83.8182 5.5L95.6185 22.5V43.4213L95.8168 43.1091L98 39.6719Z" fill="#F2E660"/>
<path d="M1 67V1H6.48057M1 67H10.9553M1 67H9.5M80.6421 67H66.2514M80.6421 67L95.8168 43.1091M80.6421 67H71.5M80.6421 67L83.5004 62.5M80.6421 1H70.6734M80.6421 1L95.8168 22.5M80.6421 1H71.5M80.6421 1L83.8182 5.5M54.1535 67H24.3712M54.1535 67H66.2514M54.1535 67H48M54.1535 67H57.5M24.3712 67H10.9553M24.3712 67H34M24.3712 67H23.5M10.9553 67H9.5M10.9553 67H23.5M6.48057 1H28.63M6.48057 1H9.5M28.63 1H49.5749M28.63 1H34M28.63 1H23.5M49.5749 1H70.6734M49.5749 1H57.5M49.5749 1H48M70.6734 1H71.5M70.6734 1H57.5M95.8168 22.5L98 26.7812V39.6719L95.8168 43.1091M95.8168 22.5L83.8182 5.5M66.2514 67H57.5M66.2514 67H71.5M95.8168 43.1091L95.6185 43.4213M9.5 1H23.5M9.5 1V67M23.5 1V67M23.5 67H9.5M34 1H48M34 1V67M48 1V67M48 67H34M57.5 1H71.5M57.5 1V67M71.5 1V67M71.5 67H57.5M83.5004 62.5L95.6185 43.4213M83.5004 62.5L83.8182 5.5M95.6185 43.4213V22.5L83.8182 5.5" stroke="black"/>
</svg>
