<svg width="99" height="68" viewBox="0 0 99 68" fill="none" xmlns="http://www.w3.org/2000/svg">
<path d="M1 4.5V23L90.5 15.6417L86.9938 10.434L1 4.5Z" fill="#D9D9D9"/>
<path d="M1 4.5V23L90.5 15.6417L86.9938 10.434L1 4.5Z" fill="black"/>
<path d="M1 47V65L86.9938 57L90.5 51.4798L1 47Z" fill="#D9D9D9"/>
<path d="M1 47V65L86.9938 57L90.5 51.4798L1 47Z" fill="black"/>
<path d="M1 47V65L86.9938 57L90.5 51.4798L1 47Z" fill="black"/>
<path d="M1 1V4.5L86.9938 10.434L80.6421 1H70.6734H49.5749H28.63H6.48057H1Z" fill="#D9D9D9"/>
<path d="M1 1V4.5L86.9938 10.434L80.6421 1H70.6734H49.5749H28.63H6.48057H1Z" fill="black"/>
<path d="M1 1V4.5L86.9938 10.434L80.6421 1H70.6734H49.5749H28.63H6.48057H1Z" fill="#F2E660"/>
<path d="M1 23V47L90.5 51.4798L95.8168 43.1091L98 39.6719V26.7812L94.2425 21.2003L90.5 15.6417L1 23Z" fill="#D9D9D9"/>
<path d="M1 23V47L90.5 51.4798L95.8168 43.1091L98 39.6719V26.7812L94.2425 21.2003L90.5 15.6417L1 23Z" fill="black"/>
<path d="M1 23V47L90.5 51.4798L95.8168 43.1091L98 39.6719V26.7812L94.2425 21.2003L90.5 15.6417L1 23Z" fill="#F2E660"/>
<path d="M1 65V67H10.9553H24.3712H54.1535H66.2514H80.6421L86.9938 57L1 65Z" fill="#D9D9D9"/>
<path d="M1 65V67H10.9553H24.3712H54.1535H66.2514H80.6421L86.9938 57L1 65Z" fill="black"/>
<path d="M1 65V67H10.9553H24.3712H54.1535H66.2514H80.6421L86.9938 57L1 65Z" fill="#F2E660"/>
<path d="M1 1V67M1 1H6.48057H28.63H49.5749H70.6734H80.6421M1 1V4.5M1 67H10.9553H24.3712H54.1535H66.2514H80.6421M1 67V65M80.6421 67L95.8168 43.1091M80.6421 67L86.9938 57M80.6421 1L94.2425 21.2003M80.6421 1L86.9938 10.434M94.2425 21.2003L98 26.7812V39.6719L95.8168 43.1091M94.2425 21.2003L90.5 15.6417M95.8168 43.1091L90.5 51.4798M1 23L90.5 15.6417M1 23V4.5M1 23V47M90.5 15.6417L86.9938 10.434M86.9938 10.434L1 4.5M1 65L86.9938 57M1 65V47M86.9938 57L90.5 51.4798M90.5 51.4798L1 47" stroke="black"/>
</svg>
