<svg width="99" height="68" viewBox="0 0 99 68" fill="none" xmlns="http://www.w3.org/2000/svg">
<path d="M6.48057 1H1V13.5H89.058L80.6421 1H70.6734H49.5749H28.63H6.48057Z" fill="black"/>
<path d="M98 39.6719V26.7812L1 27.5V41.3905H96.9084L98 39.6719Z" fill="black"/>
<path d="M24.3712 67H54.1535H66.2514H80.6421L88.2294 55.0546L1 54.1953V67H10.9553H24.3712Z" fill="black"/>
<path d="M98 26.7812L94.2425 21.2003L89.058 13.5H1V27.5L98 26.7812Z" fill="#F2E660"/>
<path d="M95.8168 43.1091L96.9084 41.3905H1V54.1953L88.2294 55.0546L95.8168 43.1091Z" fill="#F2E660"/>
<path d="M98 26.7812V39.6719L96.9084 41.3905M98 26.7812L94.2425 21.2003L89.058 13.5M98 26.7812L1 27.5M1 13.5V1H6.48057H28.63H49.5749H70.6734H80.6421L89.058 13.5M1 13.5H89.058M1 13.5V27.5M1 27.5V41.3905M96.9084 41.3905L95.8168 43.1091L88.2294 55.0546M96.9084 41.3905H1M1 41.3905V54.1953M1 54.1953V67H10.9553H24.3712H54.1535H66.2514H80.6421L88.2294 55.0546M1 54.1953L88.2294 55.0546" stroke="black"/>
</svg>
