<svg width="99" height="68" viewBox="0 0 99 68" fill="none" xmlns="http://www.w3.org/2000/svg">
<path d="M1 1V67H8L12 1H6.48057H1Z" fill="#D9D9D9"/>
<path d="M1 1V67H8L12 1H6.48057H1Z" fill="black"/>
<path d="M10.9553 67H24.3712H26L20.315 1H12L8 67H10.9553Z" fill="#D9D9D9"/>
<path d="M10.9553 67H24.3712H26L20.315 1H12L8 67H10.9553Z" fill="#F2E660"/>
<path d="M49.5749 1H28.63H20.315L26 67H50.5L54.1535 1H49.5749Z" fill="#D9D9D9"/>
<path d="M49.5749 1H28.63H20.315L26 67H50.5L54.1535 1H49.5749Z" fill="black"/>
<path d="M54.1535 67H66.2514H68.5L62.4134 1H54.1535L50.5 67H54.1535Z" fill="#D9D9D9"/>
<path d="M54.1535 67H66.2514H68.5L62.4134 1H54.1535L50.5 67H54.1535Z" fill="#F2E660"/>
<path d="M80.6421 1H70.6734H62.4134L68.5 67H80.6421L94.6158 45L94.2425 21.2003L80.6421 1Z" fill="#D9D9D9"/>
<path d="M80.6421 1H70.6734H62.4134L68.5 67H80.6421L94.6158 45L94.2425 21.2003L80.6421 1Z" fill="black"/>
<path d="M98 39.6719V26.7812L94.2425 21.2003L94.6158 45L95.8168 43.1091L98 39.6719Z" fill="#D9D9D9"/>
<path d="M98 39.6719V26.7812L94.2425 21.2003L94.6158 45L95.8168 43.1091L98 39.6719Z" fill="#F2E660"/>
<path d="M94.2425 21.2003L98 26.7812V39.6719L95.8168 43.1091L94.6158 45M94.2425 21.2003L80.6421 1H70.6734H62.4134M94.2425 21.2003L94.6158 45M12 1H6.48057H1V67H8M12 1L8 67M12 1H20.315M8 67H10.9553H24.3712H26M20.315 1H28.63H49.5749H54.1535M20.315 1L26 67M26 67H50.5M54.1535 1L50.5 67M54.1535 1H62.4134M50.5 67H54.1535H66.2514H68.5M62.4134 1L68.5 67M68.5 67H80.6421L94.6158 45" stroke="black"/>
</svg>
