<svg width="99" height="68" viewBox="0 0 99 68" fill="none" xmlns="http://www.w3.org/2000/svg">
<path d="M9 1L14.5 67H19.4356L24.3712 1H9Z" fill="#D9D9D9"/>
<path d="M9 1L14.5 67H19.4356L24.3712 1H9Z" fill="black"/>
<path d="M1 1V67H10.9553H14.5L9 1H6.48057H1Z" fill="#D9D9D9"/>
<path d="M1 1V67H10.9553H14.5L9 1H6.48057H1Z" fill="black"/>
<path d="M1 1V67H10.9553H14.5L9 1H6.48057H1Z" fill="#F2E660"/>
<path d="M19.4356 67H24.3712H38.5L32.5 1H28.63H24.3712L19.4356 67Z" fill="#D9D9D9"/>
<path d="M19.4356 67H24.3712H38.5L32.5 1H28.63H24.3712L19.4356 67Z" fill="black"/>
<path d="M19.4356 67H24.3712H38.5L32.5 1H28.63H24.3712L19.4356 67Z" fill="#F2E660"/>
<path d="M49.5749 1H32.5L38.5 67H43.5L49.5749 1Z" fill="#D9D9D9"/>
<path d="M49.5749 1H32.5L38.5 67H43.5L49.5749 1Z" fill="black"/>
<path d="M49.5749 1H32.5L38.5 67H43.5L49.5749 1Z" fill="black"/>
<path d="M43.5 67H54.1535H61.5L56.5 1H49.5749L43.5 67Z" fill="#D9D9D9"/>
<path d="M43.5 67H54.1535H61.5L56.5 1H49.5749L43.5 67Z" fill="black"/>
<path d="M43.5 67H54.1535H61.5L56.5 1H49.5749L43.5 67Z" fill="#F2E660"/>
<path d="M70.6734 1H56.5L61.5 67H66.2514H67.5L73 1H70.6734Z" fill="#D9D9D9"/>
<path d="M70.6734 1H56.5L61.5 67H66.2514H67.5L73 1H70.6734Z" fill="black"/>
<path d="M70.6734 1H56.5L61.5 67H66.2514H67.5L73 1H70.6734Z" fill="black"/>
<path d="M67.5 67H80.6421L85 60.139L81.3154 2L80.6421 1H73L67.5 67Z" fill="#D9D9D9"/>
<path d="M67.5 67H80.6421L85 60.139L81.3154 2L80.6421 1H73L67.5 67Z" fill="black"/>
<path d="M67.5 67H80.6421L85 60.139L81.3154 2L80.6421 1H73L67.5 67Z" fill="#F2E360"/>
<path d="M94.2425 21.2003L81.3154 2L85 60.139L93 47.5438L94.2425 21.2003Z" fill="#D9D9D9"/>
<path d="M94.2425 21.2003L81.3154 2L85 60.139L93 47.5438L94.2425 21.2003Z" fill="black"/>
<path d="M98 39.6719V26.7812L94.2425 21.2003L93 47.5438L95.8168 43.1091L98 39.6719Z" fill="#D9D9D9"/>
<path d="M98 39.6719V26.7812L94.2425 21.2003L93 47.5438L95.8168 43.1091L98 39.6719Z" fill="black"/>
<path d="M98 39.6719V26.7812L94.2425 21.2003L93 47.5438L95.8168 43.1091L98 39.6719Z" fill="#F2E360"/>
<path d="M49.5749 1H32.5M49.5749 1L43.5 67M49.5749 1H56.5M94.2425 21.2003L98 26.7812V39.6719L95.8168 43.1091L93 47.5438M94.2425 21.2003L81.3154 2M94.2425 21.2003L93 47.5438M9 1H6.48057H1V67H10.9553H14.5M9 1L14.5 67M9 1H24.3712M14.5 67H19.4356M19.4356 67H24.3712H38.5M19.4356 67L24.3712 1M24.3712 1H28.63H32.5M32.5 1L38.5 67M38.5 67H43.5M43.5 67H54.1535H61.5M56.5 1H70.6734H73M56.5 1L61.5 67M61.5 67H66.2514H67.5M67.5 67H80.6421L85 60.139M67.5 67L73 1M73 1H80.6421L81.3154 2M81.3154 2L85 60.139M85 60.139L93 47.5438" stroke="black"/>
</svg>
