<svg width="323" height="212" viewBox="0 0 323 212" fill="none" xmlns="http://www.w3.org/2000/svg">
<path d="M94 0.5H90V32.9134V37.0512V51.9134V56.4134V162.776V165.913V211H93L93.2141 165.929L93.229 162.786L93.7343 56.431L93.7557 51.9311L93.8262 37.0753L93.8459 32.9316L94 0.5Z" fill="black"/>
<path d="M75.5 0.5H71.5V32.826V36.9346V51.826V56.326V162.717V165.826V211H74.5L74.7145 165.841L74.7293 162.728L75.2347 56.3436L75.2561 51.8437L75.3268 36.9588L75.3464 32.8442L75.5 0.5Z" fill="black"/>
<path d="M1.00001 51.826V56.326H71.5V51.826H1.00001Z" fill="black"/>
<path d="M1.00001 32.826V36.9346H71.5V32.826H1.00001Z" fill="black"/>
<path d="M75.2561 51.8437L75.2347 56.3436L90 56.4134V51.9134L75.2561 51.8437Z" fill="black"/>
<path d="M93.7557 51.9311L93.7343 56.431L236.5 57.1055V52.6055L93.7557 51.9311Z" fill="black"/>
<path d="M236.5 33.6055L93.8459 32.9316L93.8262 37.0753L236.5 37.974V33.6055Z" fill="black"/>
<path d="M90 37.0512V32.9134L75.3464 32.8442L75.3268 36.9588L90 37.0512Z" fill="black"/>
<path d="M240.644 38.0001L240.685 33.6253L236.5 33.6055V37.974L240.644 38.0001Z" fill="black"/>
<path d="M241 0.5H236.5V33.6055L240.685 33.6253L241 0.5Z" fill="black"/>
<path d="M236.5 52.6055L240.505 52.6244L240.644 38.0001L236.5 37.974V52.6055Z" fill="black"/>
<path d="M236.5 133H239.741L240.462 57.1242L236.5 57.1055V133Z" fill="black"/>
<path d="M322 57.1242V52.6244H240.505L240.462 57.1242H322Z" fill="black"/>
<path d="M322 38.0001V33.6253H240.685L240.644 38.0001H322Z" fill="black"/>
<path d="M236.5 211H239L239.123 198.073L236.5 198.04V211Z" fill="black"/>
<path d="M322 167.204V163.407H290.5V167.204H322Z" fill="black"/>
<path d="M193 166.4V163.1L93.229 162.786L93.2141 165.929L193 166.4Z" fill="black"/>
<path d="M1.00001 162.717L1 165.826H71.5V162.717H1.00001Z" fill="black"/>
<path d="M90 165.913V162.776L74.7293 162.728L74.7145 165.841L90 165.913Z" fill="black"/>
<path d="M193 163.1V133H236.5V57.1055L93.7343 56.431L93.229 162.786L193 163.1Z" fill="black"/>
<path d="M193 163.1V133H236.5V57.1055L93.7343 56.431L93.229 162.786L193 163.1Z" fill="#FBE85B"/>
<path d="M1.00001 56.326V162.717H71.5V56.326H1.00001Z" fill="black"/>
<path d="M1.00001 56.326V162.717H71.5V56.326H1.00001Z" fill="#FBE85B"/>
<path d="M1.00001 211H71.5V165.826H1L1.00001 211Z" fill="black"/>
<path d="M1.00001 211H71.5V165.826H1L1.00001 211Z" fill="#FBE85B"/>
<path d="M74.5 211H90V165.913L74.7145 165.841L74.5 211Z" fill="black"/>
<path d="M74.5 211H90V165.913L74.7145 165.841L74.5 211Z" fill="#FBE85B"/>
<path d="M90 56.4134L75.2347 56.3436L74.7293 162.728L90 162.776V56.4134Z" fill="black"/>
<path d="M90 56.4134L75.2347 56.3436L74.7293 162.728L90 162.776V56.4134Z" fill="#FBE85B"/>
<path d="M75.2561 51.8437L90 51.9134V37.0512L75.3268 36.9588L75.2561 51.8437Z" fill="black"/>
<path d="M75.2561 51.8437L90 51.9134V37.0512L75.3268 36.9588L75.2561 51.8437Z" fill="#FBE85B"/>
<path d="M71.5 0.5H1.00001V32.826H71.5V0.5Z" fill="black"/>
<path d="M71.5 0.5H1.00001V32.826H71.5V0.5Z" fill="#FBE85B"/>
<path d="M236.5 0.5H94L93.8459 32.9316L236.5 33.6055V0.5Z" fill="black"/>
<path d="M236.5 0.5H94L93.8459 32.9316L236.5 33.6055V0.5Z" fill="#FBE85B"/>
<path d="M322 0.5H241L240.685 33.6253H322V0.5Z" fill="black"/>
<path d="M322 0.5H241L240.685 33.6253H322V0.5Z" fill="#FBE85B"/>
<path d="M322 52.6244V38.0001H240.644L240.505 52.6244H322Z" fill="black"/>
<path d="M322 52.6244V38.0001H240.644L240.505 52.6244H322Z" fill="#FBE85B"/>
<path d="M273.5 133L290.5 161V163.407H322V57.1242H240.462L239.741 133H273.5Z" fill="black"/>
<path d="M273.5 133L290.5 161V163.407H322V57.1242H240.462L239.741 133H273.5Z" fill="#FBE85B"/>
<path d="M290.5 171L273.5 198.5L239.123 198.073L239 211H322V167.204H290.5V171Z" fill="black"/>
<path d="M290.5 171L273.5 198.5L239.123 198.073L239 211H322V167.204H290.5V171Z" fill="#FBE85B"/>
<path d="M93 211H236.5V198.04L193 197.5V166.4L93.2141 165.929L93 211Z" fill="black"/>
<path d="M93 211H236.5V198.04L193 197.5V166.4L93.2141 165.929L93 211Z" fill="#FBE85B"/>
<path d="M1.00001 36.9346V51.826H71.5V36.9346H1.00001Z" fill="black"/>
<path d="M1.00001 36.9346V51.826H71.5V36.9346H1.00001Z" fill="#FBE85B"/>
<path d="M93.7557 51.9311L236.5 52.6055V37.974L93.8262 37.0753L93.7557 51.9311Z" fill="black"/>
<path d="M93.7557 51.9311L236.5 52.6055V37.974L93.8262 37.0753L93.7557 51.9311Z" fill="#FBE85B"/>
<path d="M90 0.5H75.5L75.3464 32.8442L90 32.9134V0.5Z" fill="black"/>
<path d="M90 0.5H75.5L75.3464 32.8442L90 32.9134V0.5Z" fill="#FBE85B"/>
<path d="M1.00001 0.5H322M1.00001 0.5V211M1.00001 0.5H71.5M1.00001 0.5V32.826M322 0.5V211M322 0.5H241M322 0.5V33.6253M322 211H1.00001M322 211H239M322 211V167.204M1.00001 211H71.5M1.00001 211L1 165.826M71.5 0.5H75.5M71.5 0.5V32.826M75.5 0.5L75.3464 32.8442M75.5 0.5H90M74.5 211H71.5M74.5 211L74.7145 165.841M74.5 211H90M71.5 211V165.826M90 0.5H94M90 0.5V32.9134M94 0.5L93.8459 32.9316M94 0.5H236.5M93 211H90M93 211L93.2141 165.929M93 211H236.5M90 211V165.913M236.5 0.5H241M236.5 0.5V33.6055M241 0.5L240.685 33.6253M239 211H236.5M239 211L239.123 198.073M236.5 211V198.04M1.00001 162.717L1 165.826M1.00001 162.717H71.5M1.00001 162.717V56.326M1 165.826H71.5M322 167.204V163.407M322 167.204H290.5M322 163.407H290.5M322 163.407V57.1242M193 163.1V133H236.5M193 163.1V166.4M193 163.1L93.229 162.786M193 166.4V197.5L236.5 198.04M193 166.4L93.2141 165.929M290.5 163.407V161L273.5 133H239.741M290.5 163.407V167.204M290.5 167.204V171L273.5 198.5L239.123 198.073M236.5 198.04L239.123 198.073M236.5 133H239.741M236.5 133V57.1055M239.741 133L240.462 57.1242M1.00001 32.826V36.9346M1.00001 32.826H71.5M1.00001 36.9346H71.5M1.00001 36.9346V51.826M322 38.0001V33.6253M322 38.0001H240.644M322 38.0001V52.6244M322 33.6253H240.685M1.00001 51.826V56.326M1.00001 51.826H71.5M1.00001 56.326H71.5M322 57.1242V52.6244M322 57.1242H240.462M322 52.6244H240.505M71.5 165.826V162.717M71.5 165.826L74.7145 165.841M71.5 162.717V56.326M71.5 162.717L74.7293 162.728M71.5 56.326V51.826M71.5 56.326L75.2347 56.3436M71.5 51.826V36.9346M71.5 51.826L75.2561 51.8437M71.5 36.9346V32.826M71.5 36.9346L75.3268 36.9588M71.5 32.826L75.3464 32.8442M75.2561 51.8437L75.2347 56.3436M75.2561 51.8437L90 51.9134M75.2561 51.8437L75.3268 36.9588M75.2347 56.3436L90 56.4134M75.2347 56.3436L74.7293 162.728M90 56.4134V51.9134M90 56.4134L93.7343 56.431M90 56.4134V162.776M90 51.9134L93.7557 51.9311M90 51.9134V37.0512M93.7557 51.9311L93.7343 56.431M93.7557 51.9311L236.5 52.6055M93.7557 51.9311L93.8262 37.0753M93.7343 56.431L236.5 57.1055M93.7343 56.431L93.229 162.786M236.5 57.1055V52.6055M236.5 57.1055L240.462 57.1242M236.5 52.6055V37.974M236.5 52.6055L240.505 52.6244M236.5 33.6055L93.8459 32.9316M236.5 33.6055V37.974M236.5 33.6055L240.685 33.6253M93.8459 32.9316L93.8262 37.0753M93.8459 32.9316L90 32.9134M93.8262 37.0753L236.5 37.974M93.8262 37.0753L90 37.0512M236.5 37.974L240.644 38.0001M90 37.0512V32.9134M90 37.0512L75.3268 36.9588M90 32.9134L75.3464 32.8442M75.3464 32.8442L75.3268 36.9588M240.644 38.0001L240.685 33.6253M240.644 38.0001L240.505 52.6244M240.505 52.6244L240.462 57.1242M93.229 162.786L93.2141 165.929M93.229 162.786L90 162.776M93.2141 165.929L90 165.913M90 165.913V162.776M90 165.913L74.7145 165.841M90 162.776L74.7293 162.728M74.7293 162.728L74.7145 165.841" stroke="black"/>
</svg>
