<svg width="99" height="67" viewBox="0 0 99 67" fill="none" xmlns="http://www.w3.org/2000/svg">
<path fill-rule="evenodd" clip-rule="evenodd" d="M98 30.9071V34.7036L46.9217 34.1193L46.6228 65.573L44 65.5404V34.1055L0.5 33.9V30.6L44 30.737V0.5H47.2411L46.9537 30.7463L98 30.9071Z" fill="black"/>
<path fill-rule="evenodd" clip-rule="evenodd" d="M98 30.9071V34.7036L46.9217 34.1193L46.6228 65.573L44 65.5404V34.1055L0.5 33.9V30.6L44 30.737V0.5H47.2411L46.9537 30.7463L98 30.9071Z" fill="black"/>
<path d="M98 28.5L81 0.5H47.2411L46.9537 30.7463L98 30.9071V28.5Z" fill="black"/>
<path d="M98 28.5L81 0.5H47.2411L46.9537 30.7463L98 30.9071V28.5Z" fill="black"/>
<path d="M98 28.5L81 0.5H47.2411L46.9537 30.7463L98 30.9071V28.5Z" fill="#FBE85B"/>
<path d="M81 66L98 38.5V34.7036L46.9217 34.1193L46.6228 65.573L81 66Z" fill="black"/>
<path d="M81 66L98 38.5V34.7036L46.9217 34.1193L46.6228 65.573L81 66Z" fill="black"/>
<path d="M81 66L98 38.5V34.7036L46.9217 34.1193L46.6228 65.573L81 66Z" fill="#FBE85B"/>
<path d="M0.5 0.5V30.6L44 30.737V0.5H0.5Z" fill="black"/>
<path d="M0.5 0.5V30.6L44 30.737V0.5H0.5Z" fill="black"/>
<path d="M0.5 0.5V30.6L44 30.737V0.5H0.5Z" fill="#FBE85B"/>
<path d="M0.5 33.9V65L44 65.5404V34.1055L0.5 33.9Z" fill="black"/>
<path d="M0.5 33.9V65L44 65.5404V34.1055L0.5 33.9Z" fill="black"/>
<path d="M0.5 33.9V65L44 65.5404V34.1055L0.5 33.9Z" fill="#FBE85B"/>
<path d="M0.5 30.6V0.5H44M0.5 30.6V33.9M0.5 30.6L44 30.737M0.5 33.9V65L44 65.5404M0.5 33.9L44 34.1055M98 30.9071V28.5L81 0.5H47.2411M98 30.9071V34.7036M98 30.9071L46.9537 30.7463M98 34.7036V38.5L81 66L46.6228 65.573M98 34.7036L46.9217 34.1193M44 65.5404L46.6228 65.573M44 65.5404V34.1055M46.6228 65.573L46.9217 34.1193M44 34.1055V30.737M44 34.1055L46.9217 34.1193M44 34.1055V0.5M44 30.737L46.9537 30.7463M44 30.737V0.5M46.9537 30.7463L46.9217 34.1193M46.9537 30.7463L47.2411 0.5M44 0.5H47.2411" stroke="black"/>
</svg>
