<svg width="99" height="67" viewBox="0 0 99 67" fill="none" xmlns="http://www.w3.org/2000/svg">
<path d="M81.5 1H47.5V66.0776L81.5 66.5L98.5 39V29L81.5 1Z" fill="#D9D9D9"/>
<path d="M81.5 1H47.5V66.0776L81.5 66.5L98.5 39V29L81.5 1Z" fill="#FBE85B"/>
<path d="M44.5 1H1V33.25V65.5L44.5 66.0404V1Z" fill="#D9D9D9"/>
<path d="M44.5 1H1V33.25V65.5L44.5 66.0404V1Z" fill="#FBE85B"/>
<path d="M47.5 1H44.5V66.0404L47.5 66.0776V1Z" fill="#D9D9D9"/>
<path d="M47.5 1H44.5V66.0404L47.5 66.0776V1Z" fill="black"/>
<path d="M1 1H81.5M1 1V33.25V65.5M1 1H44.5M81.5 1L98.5 29V39L81.5 66.5M81.5 1H47.5M81.5 66.5L1 65.5M81.5 66.5L47.5 66.0776M1 65.5L44.5 66.0404M44.5 1H47.5M44.5 1V66.0404M47.5 1V66.0776M47.5 66.0776L44.5 66.0404" stroke="black"/>
</svg>
