<svg width="99" height="67" viewBox="0 0 99 67" fill="none" xmlns="http://www.w3.org/2000/svg">
<path fill-rule="evenodd" clip-rule="evenodd" d="M98 30.9071V38.5H51.5V65.5404H42.7041L42.5 38.5H0.5V30.6L42.5 30.737V0.5H51.5V30.6L98 30.9071Z" fill="black"/>
<path fill-rule="evenodd" clip-rule="evenodd" d="M98 30.9071V38.5H51.5V65.5404H42.7041L42.5 38.5H0.5V30.6L42.5 30.737V0.5H51.5V30.6L98 30.9071Z" fill="black" fill-opacity="0.2"/>
<path d="M98 28.5L81 0.5H51.5V30.6L98 30.9071V28.5Z" fill="black"/>
<path d="M98 28.5L81 0.5H51.5V30.6L98 30.9071V28.5Z" fill="black" fill-opacity="0.2"/>
<path d="M98 28.5L81 0.5H51.5V30.6L98 30.9071V28.5Z" fill="#FBE85B"/>
<path d="M81 66L98 38.5H51.5V65.5404L81 66Z" fill="black"/>
<path d="M81 66L98 38.5H51.5V65.5404L81 66Z" fill="black" fill-opacity="0.2"/>
<path d="M81 66L98 38.5H51.5V65.5404L81 66Z" fill="#FBE85B"/>
<path d="M0.5 0.5V30.6L42.5 30.737V0.5H0.5Z" fill="black"/>
<path d="M0.5 0.5V30.6L42.5 30.737V0.5H0.5Z" fill="black" fill-opacity="0.2"/>
<path d="M0.5 0.5V30.6L42.5 30.737V0.5H0.5Z" fill="#FBE85B"/>
<path d="M0.5 38.5V65L42.7041 65.5404L42.5 38.5H0.5Z" fill="black"/>
<path d="M0.5 38.5V65L42.7041 65.5404L42.5 38.5H0.5Z" fill="black" fill-opacity="0.2"/>
<path d="M0.5 38.5V65L42.7041 65.5404L42.5 38.5H0.5Z" fill="#FBE85B"/>
<path d="M98 38.5L81 66L51.5 65.5404M98 38.5V30.9071M98 38.5H51.5M0.5 30.6V0.5H42.5M0.5 30.6V38.5M0.5 30.6L42.5 30.737M0.5 38.5V65L42.7041 65.5404M0.5 38.5H42.5M98 30.9071V28.5L81 0.5H51.5M98 30.9071L51.5 30.6M42.7041 65.5404H51.5M42.7041 65.5404L42.5 38.5M51.5 65.5404V38.5M42.5 38.5V30.737M42.5 38.5H51.5M42.5 38.5V0.5M42.5 30.737L51.5 30.6M42.5 30.737V0.5M51.5 30.6V38.5M51.5 30.6V0.5M42.5 0.5H51.5" stroke="black"/>
</svg>
