<svg width="99" height="67" viewBox="0 0 99 67" fill="none" xmlns="http://www.w3.org/2000/svg">
<path d="M27.5 1H24.5V20.7528L27.5 20.7851V1Z" fill="black"/>
<path d="M1 20.5V24H24.5V20.7528L1 20.5Z" fill="black"/>
<path d="M27.5 20.7851L24.5 20.7528V24H27.5V20.7851Z" fill="black"/>
<path d="M24.5 39.2426L27.5 39.2735V24H24.5V39.2426Z" fill="black"/>
<path d="M24.5 65.8009L27.5 65.8393V42.2789L24.5 42.2473V65.8009Z" fill="black"/>
<path d="M53 24V21.0595L27.5 20.7851V24H53Z" fill="black"/>
<path d="M95.4643 24L93.9464 21.5L56 21.0917V24H95.4643Z" fill="black"/>
<path d="M95.4643 24L93.9464 21.5L56 21.0917V24H95.4643Z" fill="black"/>
<path d="M1 1V20.5L24.5 20.7528V1H1Z" fill="black"/>
<path d="M1 1V20.5L24.5 20.7528V1H1Z" fill="#FBE85B"/>
<path d="M43 1H27.5V20.7851L53 21.0595V1H52H43Z" fill="black"/>
<path d="M43 1H27.5V20.7851L53 21.0595V1H52H43Z" fill="#FBE85B"/>
<path d="M93.9464 21.5L81.5 1H56V21.0917L93.9464 21.5Z" fill="black"/>
<path d="M93.9464 21.5L81.5 1H56V21.0917L93.9464 21.5Z" fill="#FBE85B"/>
<path d="M1 24V31.1V39L24.5 39.2426V24H1Z" fill="black"/>
<path d="M1 24V31.1V39L24.5 39.2426V24H1Z" fill="#FBE85B"/>
<path d="M1 42V65.5L24.5 65.8009V42.2473L1 42Z" fill="black"/>
<path d="M1 42V65.5L24.5 65.8009V42.2473L1 42Z" fill="#FBE85B"/>
<path d="M27.5 24V39.2735L53 39.5367V24H27.5Z" fill="black"/>
<path d="M27.5 24V39.2735L53 39.5367V24H27.5Z" fill="#FBE85B"/>
<path d="M27.5 65.8393L43.2041 66.0404H52L53 66.056V42.5472L27.5 42.2789V65.8393Z" fill="black"/>
<path d="M27.5 65.8393L43.2041 66.0404H52L53 66.056V42.5472L27.5 42.2789V65.8393Z" fill="#FBE85B"/>
<path d="M98.5 29L95.4643 24H56V39.5677L97.8818 40L98.5 39V31.4071V29Z" fill="black"/>
<path d="M98.5 29L95.4643 24H56V39.5677L97.8818 40L98.5 39V31.4071V29Z" fill="#FBE85B"/>
<path d="M81.5 66.5L96.0273 43L56 42.5788V66.056H53L81.5 66.5Z" fill="black"/>
<path d="M81.5 66.5L96.0273 43L56 42.5788V66.056H53L81.5 66.5Z" fill="#FBE85B"/>
<path fill-rule="evenodd" clip-rule="evenodd" d="M53 1H56V21.0917V24V39.5677L53 39.5367V24V21.0595V1ZM53 42.5472V39.5367L27.5 39.2735L24.5 39.2426L1 39V42L24.5 42.2473L27.5 42.2789L53 42.5472ZM56 42.5788V39.5677L97.8818 40L96.0273 43L56 42.5788ZM56 42.5788L53 42.5472V66.056H56V42.5788Z" fill="black"/>
<path d="M53 39.5367V42.5472L56 42.5788V39.5677L53 39.5367Z" fill="black"/>
<path d="M1 1V31.1M1 1H43M1 1V20.5M1 1H24.5M81.5 1L98.5 29M81.5 1H52M81.5 1L93.9464 21.5M81.5 1H56M98.5 29V31.4071V39M98.5 29L95.4643 24M98.5 39L81.5 66.5M98.5 39L97.8818 40M81.5 66.5L52 66.0404M81.5 66.5L96.0273 43M81.5 66.5L53 66.056M1 65.5V39M1 65.5L43.2041 66.0404M1 65.5V42M1 65.5L24.5 65.8009M1 31.1V39M1 31.1V24M1 39V42M1 39L24.5 39.2426M43.2041 66.0404H52M43.2041 66.0404L27.5 65.8393M52 66.0404L53 66.056M43 1H52M43 1H27.5M52 1H53M24.5 1H27.5M24.5 1V20.7528M27.5 1V20.7851M27.5 65.8393L24.5 65.8009M27.5 65.8393V42.2789M24.5 65.8009V42.2473M53 1H56M53 1V21.0595M56 1V21.0917M53 66.056H56V42.5788M53 66.056V42.5472M1 20.5V24M1 20.5L24.5 20.7528M1 24H24.5M95.4643 24L93.9464 21.5M95.4643 24H56M93.9464 21.5L56 21.0917M1 42L24.5 42.2473M96.0273 43L97.8818 40M96.0273 43L56 42.5788M97.8818 40L56 39.5677M24.5 20.7528L27.5 20.7851M24.5 20.7528V24M27.5 20.7851V24M27.5 20.7851L53 21.0595M24.5 24H27.5M24.5 24V39.2426M27.5 24V39.2735M27.5 24H53M24.5 39.2426L27.5 39.2735M24.5 39.2426V42.2473M27.5 39.2735V42.2789M27.5 39.2735L53 39.5367M27.5 42.2789L24.5 42.2473M27.5 42.2789L53 42.5472M53 24V21.0595M53 24H56M53 24V39.5367M53 21.0595L56 21.0917M56 21.0917V24M56 24V39.5677M53 39.5367V42.5472M53 39.5367L56 39.5677M53 42.5472L56 42.5788M56 39.5677V42.5788" stroke="black"/>
</svg>
