<svg width="99" height="67" viewBox="0 0 99 67" fill="none" xmlns="http://www.w3.org/2000/svg">
<path d="M93.9464 21.5L81.5 1H56V21.0917V24V30.5H98.5V29L95.4643 24L93.9464 21.5Z" fill="#F8E354"/>
<path d="M43 1H27.5V20.7851V24V30.5H53V24V21.0595V1H52H43Z" fill="#D9D9D9"/>
<path d="M43 1H27.5V20.7851V24V30.5H53V24V21.0595V1H52H43Z" fill="#FBE85B"/>
<path d="M1 24V30.5H24.5V24V20.7528V1H1V20.5V24Z" fill="#D9D9D9"/>
<path d="M1 24V30.5H24.5V24V20.7528V1H1V20.5V24Z" fill="#FBE85B"/>
<path d="M1 42V65.5L24.5 65.8009V42.2473V39.2426V33.5H1V39V42Z" fill="#D9D9D9"/>
<path d="M1 42V65.5L24.5 65.8009V42.2473V39.2426V33.5H1V39V42Z" fill="#FBE85B"/>
<path d="M27.5 65.8393L43.2041 66.0404H52L53 66.056V42.5472V39.5367V33.5H27.5V39.2735V42.2789V65.8393Z" fill="#D9D9D9"/>
<path d="M27.5 65.8393L43.2041 66.0404H52L53 66.056V42.5472V39.5367V33.5H27.5V39.2735V42.2789V65.8393Z" fill="#FBE85B"/>
<path d="M97.8818 40L98.5 39V33.5H56V39.5677V42.5788V66.056H53L81.5 66.5L96.0273 43L97.8818 40Z" fill="#D9D9D9"/>
<path d="M97.8818 40L98.5 39V33.5H56V39.5677V42.5788V66.056H53L81.5 66.5L96.0273 43L97.8818 40Z" fill="#FBE85B"/>
<path d="M1 30.5V31.1V33.5H24.5V39.2426V42.2473V65.8009L27.5 65.8393V42.2789V39.2735V33.5H53V39.5367V42.5472V66.056H56V42.5788V39.5677V33.5H98.5V31.4071V30.5H56V24V21.0917V1H53V21.0595V24V30.5H27.5V24V20.7851V1H24.5V20.7528V24V30.5H1Z" fill="#D9D9D9"/>
<path d="M1 30.5V31.1V33.5H24.5V39.2426V42.2473V65.8009L27.5 65.8393V42.2789V39.2735V33.5H53V39.5367V42.5472V66.056H56V42.5788V39.5677V33.5H98.5V31.4071V30.5H56V24V21.0917V1H53V21.0595V24V30.5H27.5V24V20.7851V1H24.5V20.7528V24V30.5H1Z" fill="black"/>
<path d="M1 1V31.1M1 1H43M1 1V20.5V24M1 1H24.5M81.5 1L98.5 29M81.5 1H52M81.5 1L93.9464 21.5L95.4643 24L98.5 29M81.5 1H56M98.5 29V31.4071M98.5 29V30.5M98.5 39L81.5 66.5M98.5 39V31.4071M98.5 39L97.8818 40L96.0273 43L81.5 66.5M98.5 39V33.5M81.5 66.5L52 66.0404M81.5 66.5L53 66.056M1 65.5V39M1 65.5L43.2041 66.0404M1 65.5V42V39M1 65.5L24.5 65.8009M1 31.1V39M1 31.1V24M1 31.1V30.5M1 31.1V33.5M1 39V33.5M98.5 31.4071V30.5M98.5 31.4071V33.5M43.2041 66.0404H52M43.2041 66.0404L27.5 65.8393M52 66.0404L53 66.056M43 1H52M43 1H27.5M52 1H53M24.5 1H27.5M24.5 1V20.7528V24V30.5H1M27.5 1V20.7851V24V30.5H53V24V21.0595V1M27.5 65.8393L24.5 65.8009M27.5 65.8393V42.2789V39.2735V33.5H53V39.5367V42.5472V66.056M24.5 65.8009V42.2473V39.2426V33.5H1M53 1H56M56 1V21.0917V24V30.5H98.5M53 66.056H56V42.5788V39.5677V33.5H98.5M1 24V30.5M1 30.5V33.5M98.5 33.5V30.5" stroke="black"/>
<path d="M1 1V31.1M1 1H43M1 1V20.5V24M1 1H24.5M81.5 1L98.5 29M81.5 1H52M81.5 1L93.9464 21.5L95.4643 24L98.5 29M81.5 1H56M98.5 29V31.4071M98.5 29V30.5M98.5 39L81.5 66.5M98.5 39V31.4071M98.5 39L97.8818 40L96.0273 43L81.5 66.5M98.5 39V33.5M81.5 66.5L52 66.0404M81.5 66.5L53 66.056M1 65.5V39M1 65.5L43.2041 66.0404M1 65.5V42V39M1 65.5L24.5 65.8009M1 31.1V39M1 31.1V24M1 31.1V30.5M1 31.1V33.5M1 39V33.5M98.5 31.4071V30.5M98.5 31.4071V33.5M43.2041 66.0404H52M43.2041 66.0404L27.5 65.8393M52 66.0404L53 66.056M43 1H52M43 1H27.5M52 1H53M24.5 1H27.5M24.5 1V20.7528V24V30.5H1M27.5 1V20.7851V24V30.5H53V24V21.0595V1M27.5 65.8393L24.5 65.8009M27.5 65.8393V42.2789V39.2735V33.5H53V39.5367V42.5472V66.056M24.5 65.8009V42.2473V39.2426V33.5H1M53 1H56M56 1V21.0917V24V30.5H98.5M53 66.056H56V42.5788V39.5677V33.5H98.5M1 24V30.5M1 30.5V33.5M98.5 33.5V30.5" stroke="#FBE85B"/>
</svg>
