<svg width="322" height="212" viewBox="0 0 322 212" fill="none" xmlns="http://www.w3.org/2000/svg">
<path d="M43.6858 5.96755L46.0163 1L48.4695 5.96755L46.0163 11.8044H53.0079L59.8768 24.5959H53.8665L47.4882 13.2947H44.7897L38.9021 24.5959H32.1558L39.27 11.8044H46.0163L43.6858 5.96755Z" fill="#1F2D48"/>
<path d="M72.3881 5.96755L74.7186 1L77.1718 5.96755L74.7186 11.8044H81.7102L88.5792 24.5959H82.5689L76.1906 13.2947H73.4921L67.6044 24.5959H60.8581L67.9724 11.8044H74.7186L72.3881 5.96755Z" fill="#1F2D48"/>
<path d="M101.458 5.96755L103.789 1L106.242 5.96755L103.789 11.8044H110.781L117.649 24.5959H111.639L105.261 13.2947H102.562L96.6747 24.5959H89.9284L97.0427 11.8044H103.789L101.458 5.96755Z" fill="#1F2D48"/>
<path d="M130.283 5.96755L132.614 1L135.067 5.96755L132.614 11.8044H139.606L146.474 24.5959H140.464L134.086 13.2947H131.387L125.5 24.5959H118.753L125.868 11.8044H132.614L130.283 5.96755Z" fill="#1F2D48"/>
<path d="M159.354 5.96755L161.684 1L164.137 5.96755L161.684 11.8044H168.676L175.545 24.5959H169.534L163.156 13.2947H160.458L154.57 24.5959H147.824L154.938 11.8044H161.684L159.354 5.96755Z" fill="#1F2D48"/>
<path d="M188.056 5.96755L190.387 1L192.84 5.96755L190.387 11.8044H197.378L204.247 24.5959H198.237L191.859 13.2947H189.16L183.272 24.5959H176.526L183.64 11.8044H190.387L188.056 5.96755Z" fill="#1F2D48"/>
<path d="M216.39 5.96755L218.721 1L221.174 5.96755L218.721 11.8044H225.713L232.581 24.5959H226.571L220.193 13.2947H217.494L211.607 24.5959H204.86L211.975 11.8044H218.721L216.39 5.96755Z" fill="#1F2D48"/>
<path d="M245.215 5.96755L247.546 1L249.999 5.96755L247.546 11.8044H254.538L261.406 24.5959H255.396L249.018 13.2947H246.319L240.432 24.5959H233.685L240.8 11.8044H247.546L245.215 5.96755Z" fill="#1F2D48"/>
<path d="M273.918 5.96755L276.248 1L278.701 5.96755L276.248 11.8044H283.24L290.109 24.5959H284.098L277.72 13.2947H275.022L269.134 24.5959H262.388L269.502 11.8044H276.248L273.918 5.96755Z" fill="#1F2D48"/>
<path d="M302.743 5.96755L305.073 1L307.526 5.96755L305.073 11.8044H312.065L318.934 24.5959H312.923L306.545 13.2947H303.847L297.959 24.5959H291.213L298.327 11.8044H305.073L302.743 5.96755Z" fill="#1F2D48"/>
<path d="M28.5987 43.5968L30.9292 38.6292L33.3824 43.5968L30.9292 49.4336H37.9208L44.7897 62.2251H38.7794L32.4011 50.9239H29.7026L23.8149 62.2251H17.0687L24.1829 49.4336H30.9292L28.5987 43.5968Z" fill="#1F2D48"/>
<path d="M58.0608 43.5968L60.3913 38.6292L62.8445 43.5968L60.3913 49.4336H67.3829L74.2518 62.2251H68.2415L61.8632 50.9239H59.1647L53.277 62.2251H46.5308L53.645 49.4336H60.3913L58.0608 43.5968Z" fill="#1F2D48"/>
<path d="M87.5979 43.5968L89.9284 38.6292L92.3816 43.5968L89.9284 49.4336H96.92L103.789 62.2251H97.7786L91.4003 50.9239H88.7018L82.8142 62.2251H76.0679L83.1822 49.4336H89.9284L87.5979 43.5968Z" fill="#1F2D48"/>
<path d="M115.319 43.5968L117.649 38.6292L120.103 43.5968L117.649 49.4336H124.641L131.51 62.2251H125.5L119.121 50.9239H116.423L110.535 62.2251H103.789L110.903 49.4336H117.649L115.319 43.5968Z" fill="#1F2D48"/>
<path d="M144.267 43.5968L146.597 38.6292L149.05 43.5968L146.597 49.4336H153.589L160.458 62.2251H154.447L148.069 50.9239H145.371L139.483 62.2251H132.737L139.851 49.4336H146.597L144.267 43.5968Z" fill="#1F2D48"/>
<path d="M173.214 43.5968L175.545 38.6292L177.998 43.5968L175.545 49.4336H182.536L189.405 62.2251H183.395L177.017 50.9239H174.318L168.431 62.2251H161.684L168.799 49.4336H175.545L173.214 43.5968Z" fill="#1F2D48"/>
<path d="M201.917 43.5968L204.247 38.6292L206.7 43.5968L204.247 49.4336H211.239L218.108 62.2251H212.097L205.719 50.9239H203.021L197.133 62.2251H190.387L197.501 49.4336H204.247L201.917 43.5968Z" fill="#1F2D48"/>
<path d="M231.723 43.5968L234.053 38.6292L236.507 43.5968L234.053 49.4336H241.045L247.914 62.2251H241.904L235.525 50.9239H232.827L226.939 62.2251H220.193L227.307 49.4336H234.053L231.723 43.5968Z" fill="#1F2D48"/>
<path d="M260.548 43.5968L262.878 38.6292L265.332 43.5968L262.878 49.4336H269.87L276.739 62.2251H270.729L264.35 50.9239H261.652L255.764 62.2251H249.018L256.132 49.4336H262.878L260.548 43.5968Z" fill="#1F2D48"/>
<path d="M289.25 43.5968L291.581 38.6292L294.034 43.5968L291.581 49.4336H298.572L305.441 62.2251H299.431L293.053 50.9239H290.354L284.466 62.2251H277.72L284.834 49.4336H291.581L289.25 43.5968Z" fill="#1F2D48"/>
<path d="M14.7381 80.3566L17.0251 75.4819L17.0687 75.3891L19.5219 80.3566L17.0687 86.1935H24.0603L30.9292 98.985H24.9189L18.5406 87.6838H15.8421L9.95442 98.985H3.20814L10.3224 86.1935H17.0687L14.7381 80.3566Z" fill="#1F2D48"/>
<path d="M44.2002 80.3566L46.5308 75.3891L48.984 80.3566L46.5308 86.1935H53.5224L60.3913 98.985H54.381L48.0027 87.6838H45.3042L39.4165 98.985H32.6702L39.7845 86.1935H46.5308L44.2002 80.3566Z" fill="#1F2D48"/>
<path d="M73.7374 80.3566L76.0679 75.3891L78.5211 80.3566L76.0679 86.1935H83.0595L89.9284 98.985H83.9181L77.5398 87.6838H74.8413L68.9537 98.985H62.2074L69.3216 86.1935H76.0679L73.7374 80.3566Z" fill="#1F2D48"/>
<path d="M102.93 80.3566L105.261 75.3891L107.714 80.3566L105.261 86.1935H112.252L119.121 98.985H113.111L106.733 87.6838H104.034L98.1466 98.985H91.4003L98.5146 86.1935H105.261L102.93 80.3566Z" fill="#1F2D48"/>
<path d="M131.878 80.3566L134.209 75.3891L136.662 80.3566L134.209 86.1935H141.2L148.069 98.985H142.059L135.68 87.6838H132.982L127.094 98.985H120.348L127.462 86.1935H134.209L131.878 80.3566Z" fill="#1F2D48"/>
<path d="M159.599 80.3566L161.93 75.3891L164.383 80.3566L161.93 86.1935H168.921L175.79 98.985H169.78L163.401 87.6838H160.703L154.815 98.985H148.069L155.183 86.1935H161.93L159.599 80.3566Z" fill="#1F2D48"/>
<path d="M188.547 80.3566L190.877 75.3891L193.33 80.3566L190.877 86.1935H197.869L204.738 98.985H198.727L192.349 87.6838H189.651L183.763 98.985H176.035L184.131 86.1935H190.877L188.547 80.3566Z" fill="#1F2D48"/>
<path d="M217.249 80.3566L219.58 75.3891L222.033 80.3566L219.58 86.1935H226.571L233.44 98.985H227.43L221.051 87.6838H218.353L212.465 98.985H205.719L212.833 86.1935H219.58L217.249 80.3566Z" fill="#1F2D48"/>
<path d="M246.319 80.3566L248.65 75.3891L251.103 80.3566L248.65 86.1935H255.641L262.51 98.985H256.5L250.122 87.6838H247.423L241.536 98.985H234.789L241.904 86.1935H248.65L246.319 80.3566Z" fill="#1F2D48"/>
<path d="M275.88 80.3566L278.211 75.3891L280.664 80.3566L278.211 86.1935H285.202L292.071 98.985H286.061L279.683 87.6838H276.984L271.097 98.985H264.35L271.465 86.1935H278.211L275.88 80.3566Z" fill="#1F2D48"/>
<path d="M303.601 80.3566L305.932 75.3891L308.385 80.3566L305.932 86.1935H312.923L319.792 98.985H313.782L307.404 87.6838H304.705L298.818 98.985H292.071L299.186 86.1935H305.932L303.601 80.3566Z" fill="#1F2D48"/>
<path d="M29.212 117.117L31.5425 112.149L33.9957 117.117L31.5425 122.953H38.5341L45.403 135.745H39.3927L33.0144 124.444H30.3159L24.4282 135.745H17.682L24.7962 122.953H31.5425L29.212 117.117Z" fill="#1F2D48"/>
<path d="M58.6502 117.117L60.9808 112.149L63.434 117.117L60.9808 122.953H67.9724L74.8413 135.745H68.831L62.4527 124.444H59.7542L53.8665 135.745H47.1202L54.2345 122.953H60.9808L58.6502 117.117Z" fill="#1F2D48"/>
<path d="M87.8432 116.992L90.1737 112.025L92.6269 116.992L90.1737 122.829H97.1653L104.034 135.621H98.024L91.6457 124.319H88.9472L83.0595 135.621H76.3132L83.4275 122.829H90.1737L87.8432 116.992Z" fill="#1F2D48"/>
<path d="M116.791 117.117L119.121 112.149L121.575 117.117L119.121 122.953H126.113L132.982 135.745H126.972L120.593 124.444H117.895L112.007 135.745H105.261L112.375 122.953H119.121L116.791 117.117Z" fill="#1F2D48"/>
<path d="M145.739 116.992L148.069 112.025L150.522 116.992L148.069 122.829H155.061L161.93 135.621H155.919L149.541 124.319H146.842L140.955 135.621H134.209L141.323 122.829H148.069L145.739 116.992Z" fill="#1F2D48"/>
<path d="M173.95 116.992L176.281 112.025L178.734 116.992L176.281 122.829H183.272L190.141 135.621H184.131L177.753 124.319H175.054L169.166 135.621H162.42L169.534 122.829H176.281L173.95 116.992Z" fill="#1F2D48"/>
<path d="M290.231 116.992L292.562 112.025L295.015 116.992L292.562 122.829H299.554L306.422 135.621H300.412L294.034 124.319H291.335L285.448 135.621H278.701L285.816 122.829H292.562L290.231 116.992Z" fill="#1F2D48"/>
<path d="M304.337 153.628L306.668 148.66L309.121 153.628L306.668 159.465H313.659L320.528 172.256H314.518L308.14 160.955H305.441L299.554 172.256H292.807L299.922 159.465H306.668L304.337 153.628Z" fill="#1F2D48"/>
<path d="M289.373 190.264L291.703 185.296L294.157 190.264L291.703 196.101H298.695L305.564 208.892H299.554L293.175 197.591H290.477L284.589 208.892H277.843L284.957 196.101H291.703L289.373 190.264Z" fill="#1F2D48"/>
<path d="M173.46 190.264L175.79 185.296L178.243 190.264L175.79 196.101H182.782L189.651 208.892H183.64L177.262 197.591H174.564L168.676 208.892H161.93L169.044 196.101H175.79L173.46 190.264Z" fill="#1F2D48"/>
<path d="M159.354 153.628L161.684 148.66L164.137 153.628L161.684 159.465H168.676L175.545 172.256H169.534L163.156 160.955H160.458L154.57 172.256H147.824L154.938 159.465H161.684L159.354 153.628Z" fill="#1F2D48"/>
<path d="M131.633 153.628L133.963 148.66L136.416 153.628L133.963 159.465H140.955L147.824 172.256H141.813L135.435 160.955H132.737L126.849 172.256H120.103L127.217 159.465H133.963L131.633 153.628Z" fill="#1F2D48"/>
<path d="M102.44 153.752L104.77 148.785L107.223 153.752L104.77 159.589H111.762L118.631 172.381H112.62L106.242 161.079H103.544L97.656 172.381H90.9097L98.024 159.589H104.77L102.44 153.752Z" fill="#1F2D48"/>
<path d="M73.2467 153.628L75.5773 148.66L78.0304 153.628L75.5773 159.465H82.5689L89.4378 172.256H83.4275L77.0492 160.955H74.3507L68.463 172.256H61.7167L68.831 159.465H75.5773L73.2467 153.628Z" fill="#1F2D48"/>
<path d="M43.8084 153.752L46.139 148.785L48.5922 153.752L46.139 159.589H53.1306L59.9995 172.381H53.9892L47.6109 161.079H44.9124L39.0247 172.381H32.2784L39.3927 159.589H46.139L43.8084 153.752Z" fill="#1F2D48"/>
<path d="M14.9835 153.752L17.314 148.785L19.7672 153.752L17.314 159.589H24.3056L31.1745 172.381H25.1642L18.7859 161.079H16.0874L10.1997 172.381H3.45346L10.5677 159.589H17.314L14.9835 153.752Z" fill="#1F2D48"/>
<path d="M29.9479 190.388L32.2784 185.42L34.7316 190.388L32.2784 196.225H39.27L46.1389 209.016H40.1286L33.7503 197.715H31.0518L25.1642 209.016H18.4179L25.5321 196.225H32.2784L29.9479 190.388Z" fill="#1F2D48"/>
<path d="M58.1596 190.388L60.4901 185.42L62.9433 190.388L60.4901 196.225H67.4817L74.3507 209.016H68.3403L61.9621 197.715H59.2635L53.3759 209.016H46.6296L53.7439 196.225H60.4901L58.1596 190.388Z" fill="#1F2D48"/>
<path d="M87.3526 190.388L89.6831 185.42L92.1363 190.388L89.6831 196.225H96.6747L103.544 209.016H97.5333L91.155 197.715H88.4565L82.5689 209.016H75.8226L82.9368 196.225H89.6831L87.3526 190.388Z" fill="#1F2D48"/>
<path d="M117.159 190.388L119.489 185.42L121.942 190.388L119.489 196.225H126.481L133.35 209.016H127.339L120.961 197.715H118.263L112.375 209.016H105.629L112.743 196.225H119.489L117.159 190.388Z" fill="#1F2D48"/>
<path d="M144.88 190.388L147.21 185.42L149.664 190.388L147.21 196.225H154.202L161.071 209.016H155.061L148.682 197.715H145.984L140.096 209.016H133.35L140.464 196.225H147.21L144.88 190.388Z" fill="#1F2D48"/>
<path d="M190.509 159.465H183.763L176.649 172.256H183.395L189.283 160.955H191.981L192.962 162.694V159.465H190.509Z" fill="#1F2D48"/>
<path d="M190.509 148.66L188.179 153.628L190.509 159.465L192.962 153.628L190.509 148.66Z" fill="#1F2D48"/>
<path d="M187.443 142.078L190.509 148.66L192.962 142.078L190.264 135.621L187.443 142.078Z" fill="#1F2D48"/>
<path d="M204.492 122.829H197.746L190.632 135.621H193.576V133.385V132.888H198.802L203.266 124.319H205.964L210.801 132.888H216.886L211.484 122.829H204.492Z" fill="#1F2D48"/>
<path d="M204.492 112.025L202.162 116.992L204.492 122.829L206.946 116.992L204.492 112.025Z" fill="#1F2D48"/>
<path d="M202.653 105.443L204.492 112.025L208.172 105.443L205.474 98.985L202.653 105.443Z" fill="#1F2D48"/>
<path d="M173.214 105.443L176.281 112.025L178.734 105.443L176.035 98.985L173.214 105.443Z" fill="#1F2D48"/>
<path d="M234.176 122.829H227.43L221.835 132.888H228.485L232.949 124.319H235.648L240.484 132.888H246.569L241.168 122.829H234.176Z" fill="#1F2D48"/>
<path d="M234.176 112.025L231.846 116.992L234.176 122.829L236.629 116.992L234.176 112.025Z" fill="#1F2D48"/>
<path d="M231.11 105.443L234.176 112.025L236.629 105.443L233.931 98.985L231.11 105.443Z" fill="#1F2D48"/>
<path d="M262.724 111.28L260.393 116.247L262.724 122.084L265.177 116.247L262.724 111.28Z" fill="#1F2D48"/>
<path d="M260.057 105.443L262.724 111.28L265.577 105.443L262.878 98.985L260.057 105.443Z" fill="#1F2D48"/>
<path d="M262.724 122.084H255.977L249.968 132.888H256.644L261.497 123.574H264.195L269.452 132.888H273.304L275.022 134.876H276.584L269.715 122.084H262.724Z" fill="#1F2D48"/>
<path d="M320.283 122.829H313.537L306.422 135.621H313.169L319.056 124.319H321.019V122.829H320.283Z" fill="#1F2D48"/>
<path d="M320.283 112.025L317.952 116.992L320.283 122.829L321.019 121.078V113.515L320.283 112.025Z" fill="#1F2D48"/>
<path d="M317.217 105.443L320.283 112.025L321.019 110.05V101.333L320.038 98.985L317.217 105.443Z" fill="#1F2D48"/>
<path d="M289.495 105.443L292.562 112.025L295.015 105.443L292.317 98.985L289.495 105.443Z" fill="#1F2D48"/>
<path d="M303.601 142.078L306.668 148.66L309.121 142.078L306.422 135.621L303.601 142.078Z" fill="#1F2D48"/>
<path d="M320.528 196.101H313.782L306.668 208.892H313.414L319.302 197.591H321.019V196.101H320.528Z" fill="#1F2D48"/>
<path d="M320.528 185.296L318.198 190.264L320.528 196.101L321.019 194.933V186.29L320.528 185.296Z" fill="#1F2D48"/>
<path d="M317.462 178.714L320.528 185.296L321.019 183.98V174.018L320.283 172.256L317.462 178.714Z" fill="#1F2D48"/>
<path d="M288.637 178.714L291.703 185.296L294.157 178.714L291.458 172.256L288.637 178.714Z" fill="#1F2D48"/>
<path d="M270.974 208.892H276.984L271.316 198.336H265.016L270.974 208.892Z" fill="#1F2D48"/>
<path d="M249.263 208.892H256.009L261.509 198.336H255.134L249.263 208.892Z" fill="#1F2D48"/>
<path d="M241.045 208.892H247.055L241.387 198.336H235.087L241.045 208.892Z" fill="#1F2D48"/>
<path d="M219.334 208.892H226.081L231.58 198.336H225.205L219.334 208.892Z" fill="#1F2D48"/>
<path d="M190.755 208.892H197.501L203 198.336H196.626L190.755 208.892Z" fill="#1F2D48"/>
<path d="M212.465 208.892H218.476L212.807 198.336H206.508L212.465 208.892Z" fill="#1F2D48"/>
<path d="M172.724 178.714L175.79 185.296L178.243 178.714L175.545 172.256L172.724 178.714Z" fill="#1F2D48"/>
<path d="M144.144 178.838L147.21 185.42L149.664 178.838L146.965 172.381L144.144 178.838Z" fill="#1F2D48"/>
<path d="M116.423 178.838L119.489 185.42L121.942 178.838L119.244 172.381L116.423 178.838Z" fill="#1F2D48"/>
<path d="M86.6166 178.838L89.6831 185.42L92.1363 178.838L89.4378 172.381L86.6166 178.838Z" fill="#1F2D48"/>
<path d="M57.4236 178.838L60.4901 185.42L62.9433 178.838L60.2448 172.381L57.4236 178.838Z" fill="#1F2D48"/>
<path d="M29.2119 178.838L32.2784 185.42L34.7316 178.838L32.0331 172.381L29.2119 178.838Z" fill="#1F2D48"/>
<path d="M4.68003 178.838L1.98152 172.381L1.00027 174.627V182.788L2.22684 185.42L4.68003 178.838Z" fill="#1F2D48"/>
<path d="M2.22684 196.225L4.68003 190.388L2.22684 185.42L1.00027 188.035L1.06157 193.306L2.22684 196.225Z" fill="#1F2D48"/>
<path d="M1.00024 197.715H3.69875L10.077 209.016H16.0874L9.21843 196.225H2.22684H1.00027L1.00024 197.715Z" fill="#1F2D48"/>
<path d="M14.2475 142.203L17.314 148.785L19.7672 142.203L17.0687 135.745L14.2475 142.203Z" fill="#1F2D48"/>
<path d="M43.0725 142.203L46.139 148.785L48.5922 142.203L45.8937 135.745L43.0725 142.203Z" fill="#1F2D48"/>
<path d="M72.5108 142.078L75.5773 148.66L78.0304 142.078L75.3319 135.621L72.5108 142.078Z" fill="#1F2D48"/>
<path d="M101.704 142.203L104.77 148.785L107.223 142.203L104.525 135.745L101.704 142.203Z" fill="#1F2D48"/>
<path d="M130.897 142.078L133.963 148.66L136.416 142.078L133.718 135.621L130.897 142.078Z" fill="#1F2D48"/>
<path d="M1.49087 124.444H4.18938L10.5677 135.745H16.578L9.70906 122.953H2.71747H1.00027V125.385L1.49087 124.444Z" fill="#1F2D48"/>
<path d="M2.71747 122.953L5.17066 117.117L2.71747 112.149L1.00027 115.809V118.653L2.71747 122.953Z" fill="#1F2D48"/>
<path d="M5.17066 105.567L2.47215 99.1091L1.06157 102.338L1.00027 108.463L2.71747 112.149L5.17066 105.567Z" fill="#1F2D48"/>
<path d="M28.476 105.567L31.5425 112.149L33.9957 105.567L31.2972 99.1091L28.476 105.567Z" fill="#1F2D48"/>
<path d="M57.9143 105.567L60.9808 112.149L63.434 105.567L60.7355 99.1091L57.9143 105.567Z" fill="#1F2D48"/>
<path d="M87.1073 105.443L90.1737 112.025L92.6269 105.443L89.9284 98.985L87.1073 105.443Z" fill="#1F2D48"/>
<path d="M116.055 105.567L119.121 112.149L121.575 105.567L118.876 99.1091L116.055 105.567Z" fill="#1F2D48"/>
<path d="M145.003 105.443L148.069 112.025L150.522 105.443L147.824 98.985L145.003 105.443Z" fill="#1F2D48"/>
<path d="M277.229 62.2251L275.88 67.8136L278.211 75.3891L280.664 67.8136L277.229 62.2251Z" fill="#1F2D48"/>
<path d="M248.404 62.2251L246.319 67.9378L248.65 75.3891L251.103 67.9378L248.404 62.2251Z" fill="#1F2D48"/>
<path d="M219.089 62.2251L217.249 67.0684L219.58 75.3891L222.033 67.0684L219.089 62.2251Z" fill="#1F2D48"/>
<path d="M187.197 69.1796L190.877 75.3891L192.349 69.1796L189.651 62.846L187.197 69.1796Z" fill="#1F2D48"/>
<path d="M157.759 69.1796L161.93 75.3891L163.769 69.1796L161.071 62.2251L157.759 69.1796Z" fill="#1F2D48"/>
<path d="M129.67 68.1861L134.209 75.3891L135.558 68.1861L132.369 62.4734L129.67 68.1861Z" fill="#1F2D48"/>
<path d="M100.6 68.3103L105.261 75.3891L107.469 68.3103L103.789 62.2251L100.6 68.3103Z" fill="#1F2D48"/>
<path d="M72.756 69.8006L76.0679 75.3891L77.6624 69.8006L74.9639 62.2251L72.756 69.8006Z" fill="#1F2D48"/>
<path d="M46.3842 62.2251L44.2002 67.6894L46.5308 75.3891L48.984 67.6894L46.3842 62.2251Z" fill="#1F2D48"/>
<path d="M14.2474 69.1796L17.0651 75.3811L19.5218 69.1796L16.8233 62.3493L14.2474 69.1796Z" fill="#1F2D48"/>
<path d="M16.578 11.8044H9.83176L2.34952 24.5959H9.46378L15.3514 13.2947H18.0499L24.4282 24.5959H30.4386L23.5696 11.8044H16.578Z" fill="#1F2D48"/>
<path d="M16.578 1L14.2475 5.96755L16.578 11.8044L19.0312 5.96755L16.578 1Z" fill="#1F2D48"/>
<path d="M1.00027 50.9239H4.18942L10.5677 62.2251H16.578L9.7091 49.4336H2.7175L5.17069 43.5968L2.7175 38.6292L5.17069 32.0472L1.00027 24.5959V50.9239Z" fill="#1F2D48"/>
<path d="M291.213 26.2103L288.023 31.0537L291.581 38.6292L294.034 31.1779L291.213 26.2103Z" fill="#1F2D48"/>
<path d="M262.388 26.2103L258.953 31.1779L262.878 38.6292L265.332 31.1779L262.388 26.2103Z" fill="#1F2D48"/>
<path d="M233.44 26.2103L231.11 31.1779L234.053 38.6292L236.507 31.1779L233.44 26.2103Z" fill="#1F2D48"/>
<path d="M204.492 26.2103L201.917 29.8118L204.247 38.6292L208.172 29.8118L204.492 26.2103Z" fill="#1F2D48"/>
<path d="M175.545 26.2103L173.214 31.1779L175.545 38.6292L178.734 31.1779L175.545 26.2103Z" fill="#1F2D48"/>
<path d="M146.474 26.2103L144.267 29.8118L146.597 38.6292L149.05 29.8118L146.474 26.2103Z" fill="#1F2D48"/>
<path d="M118.753 25.8378L116.055 30.8053L117.649 38.6292L121.575 30.8053L118.753 25.8378Z" fill="#1F2D48"/>
<path d="M89.9284 25.8378L87.1073 30.8053L89.9284 38.6292L92.6269 30.8053L89.9284 25.8378Z" fill="#1F2D48"/>
<path d="M60.3913 25.8378L57.9143 30.8053L60.3913 38.6292L63.434 30.8053L60.3913 25.8378Z" fill="#1F2D48"/>
<path d="M30.9292 25.8378L28.476 32.0472L30.9292 38.6292L33.9957 32.0472L30.9292 25.8378Z" fill="#1F2D48"/>
<path fill-rule="evenodd" clip-rule="evenodd" d="M16.578 1H1.00027V24.5959L5.17069 32.0472L2.7175 38.6292L5.17069 43.5968L2.7175 49.4336H9.7091L16.578 62.2251H10.5677L4.18942 50.9239H1.00027V108.463L1.06157 102.338L2.47215 99.1091L5.17066 105.567L2.71747 112.149L5.17066 117.117L2.71747 122.953H9.70906L16.578 135.745H10.5677L4.18938 124.444H1.49087L1.00027 125.385V174.627L1.98152 172.381L4.68003 178.838L2.22684 185.42L4.68003 190.388L2.22684 196.225H9.21843L16.0874 209.016H10.077L3.69875 197.715H1.00024L1.00027 211.5H321.019V197.591H319.302L313.414 208.892H306.668L313.782 196.101H320.528L318.198 190.264L320.528 185.296L317.462 178.714L320.283 172.256H314.518L308.14 160.955H305.441L299.554 172.256H292.807L299.922 159.465H306.668L304.337 153.628L306.668 148.66L303.601 142.078L306.422 135.621H300.412L294.034 124.319H291.335L285.448 135.621H278.701L285.816 122.829H292.562L290.231 116.992L292.562 112.025L289.495 105.443L292.317 98.985H292.071H286.061L279.683 87.6838H276.984L271.097 98.985H264.35L271.465 86.1935H278.211L275.88 80.3566L278.211 75.3891L275.88 67.8136L277.229 62.2251L280.664 67.8136L278.211 75.3891L280.664 80.3566L278.211 86.1935H285.202L292.071 98.985L299.186 86.1935H305.932L303.601 80.3566L305.932 75.3891L302.743 67.9378L305.932 62.2251L308.753 67.9378L305.932 75.3891L308.385 80.3566L305.932 86.1935H312.923L319.792 98.985H313.782L307.404 87.6838H304.705L298.818 98.985H292.317L295.015 105.443L292.562 112.025L295.015 116.992L292.562 122.829H299.554L306.422 135.621L313.537 122.829H320.283L317.952 116.992L320.283 112.025L317.217 105.443L320.038 98.985L321.019 101.333V49.9304H319.056L313.169 61.2316H306.422L313.537 48.4401H320.283L317.952 42.6032L320.283 37.6357L317.217 31.0537L320.038 24.5959L321.019 26.9442V1H305.073L307.526 5.96755L305.073 11.8044H312.065L318.934 24.5959H312.923L306.545 13.2947H303.847L297.959 24.5959H291.213L298.327 11.8044H305.073L302.743 5.96755L305.073 1H276.248L278.701 5.96755L276.248 11.8044H283.24L290.109 24.5959H284.098L277.72 13.2947H275.022L269.134 24.5959H262.388L269.502 11.8044H276.248L273.918 5.96755L276.248 1H247.546L249.999 5.96755L247.546 11.8044H254.538L261.406 24.5959H255.396L249.018 13.2947H246.319L240.432 24.5959H233.685L240.8 11.8044H247.546L245.215 5.96755L247.546 1H218.721L221.174 5.96755L218.721 11.8044H225.713L232.581 24.5959H226.571L220.193 13.2947H217.494L211.607 24.5959H204.86L211.975 11.8044H218.721L216.39 5.96755L218.721 1H190.387L192.84 5.96755L190.387 11.8044H197.378L204.247 24.5959H198.237L191.859 13.2947H189.16L183.272 24.5959H176.526L183.64 11.8044H190.387L188.056 5.96755L190.387 1H161.684L164.137 5.96755L161.684 11.8044H168.676L175.545 24.5959H169.534L163.156 13.2947H160.458L154.57 24.5959H147.824L154.938 11.8044H161.684L159.354 5.96755L161.684 1H132.614L135.067 5.96755L132.614 11.8044H139.606L146.474 24.5959H140.464L134.086 13.2947H131.387L125.5 24.5959H118.753L125.868 11.8044H132.614L130.283 5.96755L132.614 1H103.789L106.242 5.96755L103.789 11.8044H110.781L117.649 24.5959H111.639L105.261 13.2947H102.562L96.6747 24.5959H89.9284L97.0427 11.8044H103.789L101.458 5.96755L103.789 1H74.7186L77.1718 5.96755L74.7186 11.8044H81.7102L88.5792 24.5959H82.5689L76.1906 13.2947H73.4921L67.6044 24.5959H60.8581L67.9724 11.8044H74.7186L72.3881 5.96755L74.7186 1H46.0163L48.4695 5.96755L46.0163 11.8044H53.0079L59.8768 24.5959H53.8665L47.4882 13.2947H44.7897L38.9021 24.5959H32.1558L39.27 11.8044H46.0163L43.6858 5.96755L46.0163 1H16.578L19.0312 5.96755L16.578 11.8044H23.5696L30.4386 24.5959H24.4282L18.0499 13.2947H15.3514L9.46378 24.5959H2.34952L9.83176 11.8044H16.578L14.2475 5.96755L16.578 1ZM28.5987 43.5968L30.9292 38.6292L28.476 32.0472L30.9292 25.8378L33.9957 32.0472L30.9292 38.6292L33.3824 43.5968L30.9292 49.4336H37.9208L44.7897 62.2251H38.7794L32.4011 50.9239H29.7026L23.8149 62.2251H17.0687L24.1829 49.4336H30.9292L28.5987 43.5968ZM58.0608 43.5968L60.3913 38.6292L57.9143 30.8053L60.3913 25.8378L63.434 30.8053L60.3913 38.6292L62.8445 43.5968L60.3913 49.4336H67.3829L74.2518 62.2251H68.2415L61.8632 50.9239H59.1647L53.277 62.2251H46.5308H46.3842L48.984 67.6894L46.5308 75.3891L48.984 80.3566L46.5308 86.1935H53.5224L60.3913 98.985H54.381L48.0027 87.6838H45.3042L39.4165 98.985H32.6702L39.7845 86.1935H46.5308L44.2002 80.3566L46.5308 75.3891L44.2002 67.6894L46.3842 62.2251H46.5308L53.645 49.4336H60.3913L58.0608 43.5968ZM87.5979 43.5968L89.9284 38.6292L87.1073 30.8053L89.9284 25.8378L92.6269 30.8053L89.9284 38.6292L92.3816 43.5968L89.9284 49.4336H96.92L103.789 62.2251L110.903 49.4336H117.649L115.319 43.5968L117.649 38.6292L116.055 30.8053L118.753 25.8378L121.575 30.8053L117.649 38.6292L120.103 43.5968L117.649 49.4336H124.641L131.51 62.2251H125.5L119.121 50.9239H116.423L110.535 62.2251H103.789L107.469 68.3103L105.261 75.3891L107.714 80.3566L105.261 86.1935H112.252L119.121 98.985H113.111L106.733 87.6838H104.034L98.1466 98.985H91.4003L98.5146 86.1935H105.261L102.93 80.3566L105.261 75.3891L100.6 68.3103L103.789 62.2251H97.7786L91.4003 50.9239H88.7018L82.8142 62.2251H76.0679L83.1822 49.4336H89.9284L87.5979 43.5968ZM144.267 43.5968L146.597 38.6292L144.267 29.8118L146.474 26.2103L149.05 29.8118L146.597 38.6292L149.05 43.5968L146.597 49.4336H153.589L160.458 62.2251H154.447L148.069 50.9239H145.371L139.483 62.2251H132.737L139.851 49.4336H146.597L144.267 43.5968ZM173.214 43.5968L175.545 38.6292L173.214 31.1779L175.545 26.2103L178.734 31.1779L175.545 38.6292L177.998 43.5968L175.545 49.4336H182.536L189.405 62.2251H183.395L177.017 50.9239H174.318L168.431 62.2251H161.684L168.799 49.4336H175.545L173.214 43.5968ZM201.917 43.5968L204.247 38.6292L201.917 29.8118L204.492 26.2103L208.172 29.8118L204.247 38.6292L206.7 43.5968L204.247 49.4336H211.239L218.108 62.2251H212.097L205.719 50.9239H203.021L197.133 62.2251H190.387L197.501 49.4336H204.247L201.917 43.5968ZM231.723 43.5968L234.053 38.6292L231.11 31.1779L233.44 26.2103L236.507 31.1779L234.053 38.6292L236.507 43.5968L234.053 49.4336H241.045L247.914 62.2251H241.904L235.525 50.9239H232.827L226.939 62.2251H220.193L227.307 49.4336H234.053L231.723 43.5968ZM260.548 43.5968L262.878 38.6292L258.953 31.1779L262.388 26.2103L265.332 31.1779L262.878 38.6292L265.332 43.5968L262.878 49.4336H269.87L276.739 62.2251H270.729L264.35 50.9239H261.652L255.764 62.2251H249.018L256.132 49.4336H262.878L260.548 43.5968ZM289.25 43.5968L291.581 38.6292L288.023 31.0537L291.213 26.2103L294.034 31.1779L291.581 38.6292L294.034 43.5968L291.581 49.4336H298.572L305.441 62.2251H299.431L293.053 50.9239H290.354L284.466 62.2251H277.72L284.834 49.4336H291.581L289.25 43.5968ZM17.0687 86.1935L14.7381 80.3566L17.0251 75.4819L17.0651 75.3811L14.2474 69.1796L16.8233 62.3493L19.5218 69.1796L17.0651 75.3811L17.0687 75.3891L19.5219 80.3566L17.0687 86.1935H24.0603L30.9292 98.985H24.9189L18.5406 87.6838H15.8421L9.95442 98.985H3.20814L10.3224 86.1935H17.0687ZM73.7374 80.3566L76.0679 75.3891L72.756 69.8006L74.9639 62.2251L77.6624 69.8006L76.0679 75.3891L78.5211 80.3566L76.0679 86.1935H83.0595L89.9284 98.985L92.6269 105.443L90.1737 112.025L92.6269 116.992L90.1737 122.829H97.1653L104.034 135.621H98.024L91.6457 124.319H88.9472L83.0595 135.621H76.3132L83.4275 122.829H90.1737L87.8432 116.992L90.1737 112.025L87.1073 105.443L89.9284 98.985H83.9181L77.5398 87.6838H74.8413L68.9537 98.985H62.2074L69.3216 86.1935H76.0679L73.7374 80.3566ZM131.878 80.3566L134.209 75.3891L129.67 68.1861L132.369 62.4734L135.558 68.1861L134.209 75.3891L136.662 80.3566L134.209 86.1935H141.2L148.069 98.985L155.183 86.1935H161.93L159.599 80.3566L161.93 75.3891L157.759 69.1796L161.071 62.2251L163.769 69.1796L161.93 75.3891L164.383 80.3566L161.93 86.1935H168.921L175.79 98.985H169.78L163.401 87.6838H160.703L154.815 98.985H148.069H147.824L150.522 105.443L148.069 112.025L150.522 116.992L148.069 122.829H155.061L161.93 135.621H161.439L164.137 142.078L161.684 148.66L164.137 153.628L161.684 159.465H168.676L175.545 172.256L178.243 178.714L175.79 185.296L178.243 190.264L175.79 196.101H182.782L189.651 208.892H183.64L177.262 197.591H174.564L168.676 208.892H161.93L169.044 196.101H175.79L173.46 190.264L175.79 185.296L172.724 178.714L175.545 172.256H169.534L163.156 160.955H160.458L154.57 172.256H147.824H141.813L135.435 160.955H132.737L126.849 172.256H120.103L127.217 159.465H133.963L131.633 153.628L133.963 148.66L130.897 142.078L133.718 135.621L136.416 142.078L133.963 148.66L136.416 153.628L133.963 159.465H140.955L147.824 172.256L154.938 159.465H161.684L159.354 153.628L161.684 148.66L158.618 142.078L161.439 135.621H155.919L149.541 124.319H146.842L140.955 135.621H134.209L141.323 122.829H148.069L145.739 116.992L148.069 112.025L145.003 105.443L147.824 98.985H142.059L135.68 87.6838H132.982L127.094 98.985H120.348L127.462 86.1935H134.209L131.878 80.3566ZM188.547 80.3566L190.877 75.3891L187.197 69.1796L189.651 62.846L192.349 69.1796L190.877 75.3891L193.33 80.3566L190.877 86.1935H197.869L204.738 98.985H198.727L192.349 87.6838H189.651L183.763 98.985H176.035L178.734 105.443L176.281 112.025L178.734 116.992L176.281 122.829H183.272L190.141 135.621H184.131L177.753 124.319H175.054L169.166 135.621H162.42L169.534 122.829H176.281L173.95 116.992L176.281 112.025L173.214 105.443L176.035 98.985L184.131 86.1935H190.877L188.547 80.3566ZM217.249 80.3566L219.58 75.3891L217.249 67.0684L219.089 62.2251L222.033 67.0684L219.58 75.3891L222.033 80.3566L219.58 86.1935H226.571L233.44 98.985H227.43L221.051 87.6838H218.353L212.465 98.985H205.719L212.833 86.1935H219.58L217.249 80.3566ZM246.319 80.3566L248.65 75.3891L246.319 67.9378L248.404 62.2251L251.103 67.9378L248.65 75.3891L251.103 80.3566L248.65 86.1935H255.641L262.51 98.985H256.5L250.122 87.6838H247.423L241.536 98.985H234.789L241.904 86.1935H248.65L246.319 80.3566ZM29.212 117.117L31.5425 112.149L28.476 105.567L31.2972 99.1091L33.9957 105.567L31.5425 112.149L33.9957 117.117L31.5425 122.953H38.5341L45.403 135.745H39.3927L33.0144 124.444H30.3159L24.4282 135.745H17.682L24.7962 122.953H31.5425L29.212 117.117ZM58.6502 117.117L60.9808 112.149L57.9143 105.567L60.7355 99.1091L63.434 105.567L60.9808 112.149L63.434 117.117L60.9808 122.953H67.9724L74.8413 135.745H68.831L62.4527 124.444H59.7542L53.8665 135.745H47.1202L54.2345 122.953H60.9808L58.6502 117.117ZM116.791 117.117L119.121 112.149L116.055 105.567L118.876 99.1091L121.575 105.567L119.121 112.149L121.575 117.117L119.121 122.953H126.113L132.982 135.745H126.972L120.593 124.444H117.895L112.007 135.745H105.261L112.375 122.953H119.121L116.791 117.117ZM202.162 116.992L204.492 112.025L202.653 105.443L205.474 98.985L208.172 105.443L204.492 112.025L206.946 116.992L204.492 122.829H211.484L216.886 132.888H221.835L227.43 122.829H234.176L231.846 116.992L234.176 112.025L231.11 105.443L233.931 98.985L236.629 105.443L234.176 112.025L236.629 116.992L234.176 122.829H241.168L246.569 132.888H249.968L255.977 122.084H262.724L260.393 116.247L262.724 111.28L260.057 105.443L262.878 98.985L265.577 105.443L262.724 111.28L265.177 116.247L262.724 122.084H269.715L276.584 134.876H275.022L276.359 136.49L276.739 135.621L279.437 142.078L284.834 151.268L290.109 161.576V169.152L289.644 170.021L290.845 172.256H288.637L279.56 188.773L273.427 198.336H271.316L276.984 208.892H270.974L265.016 198.336H261.509L256.009 208.892H249.263L255.134 198.336H241.387L247.055 208.892H241.045L235.087 198.336H231.58L226.081 208.892H219.334L225.205 198.336H212.807L218.476 208.892H212.465L206.508 198.336H203L197.501 208.892H190.755L196.626 198.336H192.962V162.694L191.981 160.955H189.283L183.395 172.256H176.649L183.763 159.465H190.509L188.179 153.628L190.509 148.66L187.443 142.078L190.264 135.621L192.962 142.078L190.509 148.66L192.962 153.628L190.509 159.465H192.962L193.576 135.621H190.632L197.746 122.829H204.492L202.162 116.992ZM289.373 190.264L291.703 185.296L288.637 178.714L291.458 172.256L294.157 178.714L291.703 185.296L294.157 190.264L291.703 196.101H298.695L305.564 208.892H299.554L293.175 197.591H290.477L284.589 208.892H277.843L284.957 196.101H291.703L289.373 190.264ZM102.44 153.752L104.77 148.785L101.704 142.203L104.525 135.745L107.223 142.203L104.77 148.785L107.223 153.752L104.77 159.589H111.762L118.631 172.381H112.62L106.242 161.079H103.544L97.656 172.381H90.9097L98.024 159.589H104.77L102.44 153.752ZM73.2467 153.628L75.5773 148.66L72.5108 142.078L75.3319 135.621L78.0304 142.078L75.5773 148.66L78.0304 153.628L75.5773 159.465H82.5689L89.4378 172.256H83.4275L77.0492 160.955H74.3507L68.463 172.256H61.7167L68.831 159.465H75.5773L73.2467 153.628ZM43.8084 153.752L46.139 148.785L43.0725 142.203L45.8937 135.745L48.5922 142.203L46.139 148.785L48.5922 153.752L46.139 159.589H53.1306L59.9995 172.381H53.9892L47.6109 161.079H44.9124L39.0247 172.381H32.2784L39.3927 159.589H46.139L43.8084 153.752ZM14.9835 153.752L17.314 148.785L14.2475 142.203L17.0687 135.745L19.7672 142.203L17.314 148.785L19.7672 153.752L17.314 159.589H24.3056L31.1745 172.381H25.1642L18.7859 161.079H16.0874L10.1997 172.381H3.45346L10.5677 159.589H17.314L14.9835 153.752ZM29.9479 190.388L32.2784 185.42L29.2119 178.838L32.0331 172.381L34.7316 178.838L32.2784 185.42L34.7316 190.388L32.2784 196.225H39.27L46.1389 209.016H40.1286L33.7503 197.715H31.0518L25.1642 209.016H18.4179L25.5321 196.225H32.2784L29.9479 190.388ZM58.1596 190.388L60.4901 185.42L57.4236 178.838L60.2448 172.381L62.9433 178.838L60.4901 185.42L62.9433 190.388L60.4901 196.225H67.4817L74.3507 209.016H68.3403L61.9621 197.715H59.2635L53.3759 209.016H46.6296L53.7439 196.225H60.4901L58.1596 190.388ZM87.3526 190.388L89.6831 185.42L86.6166 178.838L89.4378 172.381L92.1363 178.838L89.6831 185.42L92.1363 190.388L89.6831 196.225H96.6747L103.544 209.016H97.5333L91.155 197.715H88.4565L82.5689 209.016H75.8226L82.9368 196.225H89.6831L87.3526 190.388ZM117.159 190.388L119.489 185.42L116.423 178.838L119.244 172.381L121.942 178.838L119.489 185.42L121.942 190.388L119.489 196.225H126.481L133.35 209.016L140.464 196.225H147.21L144.88 190.388L147.21 185.42L144.144 178.838L146.965 172.381L149.664 178.838L147.21 185.42L149.664 190.388L147.21 196.225H154.202L161.071 209.016H155.061L148.682 197.715H145.984L140.096 209.016H133.35H127.339L120.961 197.715H118.263L112.375 209.016H105.629L112.743 196.225H119.489L117.159 190.388Z" fill="#1F2D48"/>
<path fill-rule="evenodd" clip-rule="evenodd" d="M16.578 1H1.00027V24.5959L5.17069 32.0472L2.7175 38.6292L5.17069 43.5968L2.7175 49.4336H9.7091L16.578 62.2251H10.5677L4.18942 50.9239H1.00027V108.463L1.06157 102.338L2.47215 99.1091L5.17066 105.567L2.71747 112.149L5.17066 117.117L2.71747 122.953H9.70906L16.578 135.745H10.5677L4.18938 124.444H1.49087L1.00027 125.385V174.627L1.98152 172.381L4.68003 178.838L2.22684 185.42L4.68003 190.388L2.22684 196.225H9.21843L16.0874 209.016H10.077L3.69875 197.715H1.00024L1.00027 211.5H321.019V197.591H319.302L313.414 208.892H306.668L313.782 196.101H320.528L318.198 190.264L320.528 185.296L317.462 178.714L320.283 172.256H314.518L308.14 160.955H305.441L299.554 172.256H292.807L299.922 159.465H306.668L304.337 153.628L306.668 148.66L303.601 142.078L306.422 135.621H300.412L294.034 124.319H291.335L285.448 135.621H278.701L285.816 122.829H292.562L290.231 116.992L292.562 112.025L289.495 105.443L292.317 98.985H292.071H286.061L279.683 87.6838H276.984L271.097 98.985H264.35L271.465 86.1935H278.211L275.88 80.3566L278.211 75.3891L275.88 67.8136L277.229 62.2251L280.664 67.8136L278.211 75.3891L280.664 80.3566L278.211 86.1935H285.202L292.071 98.985L299.186 86.1935H305.932L303.601 80.3566L305.932 75.3891L302.743 67.9378L305.932 62.2251L308.753 67.9378L305.932 75.3891L308.385 80.3566L305.932 86.1935H312.923L319.792 98.985H313.782L307.404 87.6838H304.705L298.818 98.985H292.317L295.015 105.443L292.562 112.025L295.015 116.992L292.562 122.829H299.554L306.422 135.621L313.537 122.829H320.283L317.952 116.992L320.283 112.025L317.217 105.443L320.038 98.985L321.019 101.333V49.9304H319.056L313.169 61.2316H306.422L313.537 48.4401H320.283L317.952 42.6032L320.283 37.6357L317.217 31.0537L320.038 24.5959L321.019 26.9442V1H305.073L307.526 5.96755L305.073 11.8044H312.065L318.934 24.5959H312.923L306.545 13.2947H303.847L297.959 24.5959H291.213L298.327 11.8044H305.073L302.743 5.96755L305.073 1H276.248L278.701 5.96755L276.248 11.8044H283.24L290.109 24.5959H284.098L277.72 13.2947H275.022L269.134 24.5959H262.388L269.502 11.8044H276.248L273.918 5.96755L276.248 1H247.546L249.999 5.96755L247.546 11.8044H254.538L261.406 24.5959H255.396L249.018 13.2947H246.319L240.432 24.5959H233.685L240.8 11.8044H247.546L245.215 5.96755L247.546 1H218.721L221.174 5.96755L218.721 11.8044H225.713L232.581 24.5959H226.571L220.193 13.2947H217.494L211.607 24.5959H204.86L211.975 11.8044H218.721L216.39 5.96755L218.721 1H190.387L192.84 5.96755L190.387 11.8044H197.378L204.247 24.5959H198.237L191.859 13.2947H189.16L183.272 24.5959H176.526L183.64 11.8044H190.387L188.056 5.96755L190.387 1H161.684L164.137 5.96755L161.684 11.8044H168.676L175.545 24.5959H169.534L163.156 13.2947H160.458L154.57 24.5959H147.824L154.938 11.8044H161.684L159.354 5.96755L161.684 1H132.614L135.067 5.96755L132.614 11.8044H139.606L146.474 24.5959H140.464L134.086 13.2947H131.387L125.5 24.5959H118.753L125.868 11.8044H132.614L130.283 5.96755L132.614 1H103.789L106.242 5.96755L103.789 11.8044H110.781L117.649 24.5959H111.639L105.261 13.2947H102.562L96.6747 24.5959H89.9284L97.0427 11.8044H103.789L101.458 5.96755L103.789 1H74.7186L77.1718 5.96755L74.7186 11.8044H81.7102L88.5792 24.5959H82.5689L76.1906 13.2947H73.4921L67.6044 24.5959H60.8581L67.9724 11.8044H74.7186L72.3881 5.96755L74.7186 1H46.0163L48.4695 5.96755L46.0163 11.8044H53.0079L59.8768 24.5959H53.8665L47.4882 13.2947H44.7897L38.9021 24.5959H32.1558L39.27 11.8044H46.0163L43.6858 5.96755L46.0163 1H16.578L19.0312 5.96755L16.578 11.8044H23.5696L30.4386 24.5959H24.4282L18.0499 13.2947H15.3514L9.46378 24.5959H2.34952L9.83176 11.8044H16.578L14.2475 5.96755L16.578 1ZM28.5987 43.5968L30.9292 38.6292L28.476 32.0472L30.9292 25.8378L33.9957 32.0472L30.9292 38.6292L33.3824 43.5968L30.9292 49.4336H37.9208L44.7897 62.2251H38.7794L32.4011 50.9239H29.7026L23.8149 62.2251H17.0687L24.1829 49.4336H30.9292L28.5987 43.5968ZM58.0608 43.5968L60.3913 38.6292L57.9143 30.8053L60.3913 25.8378L63.434 30.8053L60.3913 38.6292L62.8445 43.5968L60.3913 49.4336H67.3829L74.2518 62.2251H68.2415L61.8632 50.9239H59.1647L53.277 62.2251H46.5308H46.3842L48.984 67.6894L46.5308 75.3891L48.984 80.3566L46.5308 86.1935H53.5224L60.3913 98.985H54.381L48.0027 87.6838H45.3042L39.4165 98.985H32.6702L39.7845 86.1935H46.5308L44.2002 80.3566L46.5308 75.3891L44.2002 67.6894L46.3842 62.2251H46.5308L53.645 49.4336H60.3913L58.0608 43.5968ZM87.5979 43.5968L89.9284 38.6292L87.1073 30.8053L89.9284 25.8378L92.6269 30.8053L89.9284 38.6292L92.3816 43.5968L89.9284 49.4336H96.92L103.789 62.2251L110.903 49.4336H117.649L115.319 43.5968L117.649 38.6292L116.055 30.8053L118.753 25.8378L121.575 30.8053L117.649 38.6292L120.103 43.5968L117.649 49.4336H124.641L131.51 62.2251H125.5L119.121 50.9239H116.423L110.535 62.2251H103.789L107.469 68.3103L105.261 75.3891L107.714 80.3566L105.261 86.1935H112.252L119.121 98.985H113.111L106.733 87.6838H104.034L98.1466 98.985H91.4003L98.5146 86.1935H105.261L102.93 80.3566L105.261 75.3891L100.6 68.3103L103.789 62.2251H97.7786L91.4003 50.9239H88.7018L82.8142 62.2251H76.0679L83.1822 49.4336H89.9284L87.5979 43.5968ZM144.267 43.5968L146.597 38.6292L144.267 29.8118L146.474 26.2103L149.05 29.8118L146.597 38.6292L149.05 43.5968L146.597 49.4336H153.589L160.458 62.2251H154.447L148.069 50.9239H145.371L139.483 62.2251H132.737L139.851 49.4336H146.597L144.267 43.5968ZM173.214 43.5968L175.545 38.6292L173.214 31.1779L175.545 26.2103L178.734 31.1779L175.545 38.6292L177.998 43.5968L175.545 49.4336H182.536L189.405 62.2251H183.395L177.017 50.9239H174.318L168.431 62.2251H161.684L168.799 49.4336H175.545L173.214 43.5968ZM201.917 43.5968L204.247 38.6292L201.917 29.8118L204.492 26.2103L208.172 29.8118L204.247 38.6292L206.7 43.5968L204.247 49.4336H211.239L218.108 62.2251H212.097L205.719 50.9239H203.021L197.133 62.2251H190.387L197.501 49.4336H204.247L201.917 43.5968ZM231.723 43.5968L234.053 38.6292L231.11 31.1779L233.44 26.2103L236.507 31.1779L234.053 38.6292L236.507 43.5968L234.053 49.4336H241.045L247.914 62.2251H241.904L235.525 50.9239H232.827L226.939 62.2251H220.193L227.307 49.4336H234.053L231.723 43.5968ZM260.548 43.5968L262.878 38.6292L258.953 31.1779L262.388 26.2103L265.332 31.1779L262.878 38.6292L265.332 43.5968L262.878 49.4336H269.87L276.739 62.2251H270.729L264.35 50.9239H261.652L255.764 62.2251H249.018L256.132 49.4336H262.878L260.548 43.5968ZM289.25 43.5968L291.581 38.6292L288.023 31.0537L291.213 26.2103L294.034 31.1779L291.581 38.6292L294.034 43.5968L291.581 49.4336H298.572L305.441 62.2251H299.431L293.053 50.9239H290.354L284.466 62.2251H277.72L284.834 49.4336H291.581L289.25 43.5968ZM17.0687 86.1935L14.7381 80.3566L17.0251 75.4819L17.0651 75.3811L14.2474 69.1796L16.8233 62.3493L19.5218 69.1796L17.0651 75.3811L17.0687 75.3891L19.5219 80.3566L17.0687 86.1935H24.0603L30.9292 98.985H24.9189L18.5406 87.6838H15.8421L9.95442 98.985H3.20814L10.3224 86.1935H17.0687ZM73.7374 80.3566L76.0679 75.3891L72.756 69.8006L74.9639 62.2251L77.6624 69.8006L76.0679 75.3891L78.5211 80.3566L76.0679 86.1935H83.0595L89.9284 98.985L92.6269 105.443L90.1737 112.025L92.6269 116.992L90.1737 122.829H97.1653L104.034 135.621H98.024L91.6457 124.319H88.9472L83.0595 135.621H76.3132L83.4275 122.829H90.1737L87.8432 116.992L90.1737 112.025L87.1073 105.443L89.9284 98.985H83.9181L77.5398 87.6838H74.8413L68.9537 98.985H62.2074L69.3216 86.1935H76.0679L73.7374 80.3566ZM131.878 80.3566L134.209 75.3891L129.67 68.1861L132.369 62.4734L135.558 68.1861L134.209 75.3891L136.662 80.3566L134.209 86.1935H141.2L148.069 98.985L155.183 86.1935H161.93L159.599 80.3566L161.93 75.3891L157.759 69.1796L161.071 62.2251L163.769 69.1796L161.93 75.3891L164.383 80.3566L161.93 86.1935H168.921L175.79 98.985H169.78L163.401 87.6838H160.703L154.815 98.985H148.069H147.824L150.522 105.443L148.069 112.025L150.522 116.992L148.069 122.829H155.061L161.93 135.621H161.439L164.137 142.078L161.684 148.66L164.137 153.628L161.684 159.465H168.676L175.545 172.256L178.243 178.714L175.79 185.296L178.243 190.264L175.79 196.101H182.782L189.651 208.892H183.64L177.262 197.591H174.564L168.676 208.892H161.93L169.044 196.101H175.79L173.46 190.264L175.79 185.296L172.724 178.714L175.545 172.256H169.534L163.156 160.955H160.458L154.57 172.256H147.824H141.813L135.435 160.955H132.737L126.849 172.256H120.103L127.217 159.465H133.963L131.633 153.628L133.963 148.66L130.897 142.078L133.718 135.621L136.416 142.078L133.963 148.66L136.416 153.628L133.963 159.465H140.955L147.824 172.256L154.938 159.465H161.684L159.354 153.628L161.684 148.66L158.618 142.078L161.439 135.621H155.919L149.541 124.319H146.842L140.955 135.621H134.209L141.323 122.829H148.069L145.739 116.992L148.069 112.025L145.003 105.443L147.824 98.985H142.059L135.68 87.6838H132.982L127.094 98.985H120.348L127.462 86.1935H134.209L131.878 80.3566ZM188.547 80.3566L190.877 75.3891L187.197 69.1796L189.651 62.846L192.349 69.1796L190.877 75.3891L193.33 80.3566L190.877 86.1935H197.869L204.738 98.985H198.727L192.349 87.6838H189.651L183.763 98.985H176.035L178.734 105.443L176.281 112.025L178.734 116.992L176.281 122.829H183.272L190.141 135.621H184.131L177.753 124.319H175.054L169.166 135.621H162.42L169.534 122.829H176.281L173.95 116.992L176.281 112.025L173.214 105.443L176.035 98.985L184.131 86.1935H190.877L188.547 80.3566ZM217.249 80.3566L219.58 75.3891L217.249 67.0684L219.089 62.2251L222.033 67.0684L219.58 75.3891L222.033 80.3566L219.58 86.1935H226.571L233.44 98.985H227.43L221.051 87.6838H218.353L212.465 98.985H205.719L212.833 86.1935H219.58L217.249 80.3566ZM246.319 80.3566L248.65 75.3891L246.319 67.9378L248.404 62.2251L251.103 67.9378L248.65 75.3891L251.103 80.3566L248.65 86.1935H255.641L262.51 98.985H256.5L250.122 87.6838H247.423L241.536 98.985H234.789L241.904 86.1935H248.65L246.319 80.3566ZM29.212 117.117L31.5425 112.149L28.476 105.567L31.2972 99.1091L33.9957 105.567L31.5425 112.149L33.9957 117.117L31.5425 122.953H38.5341L45.403 135.745H39.3927L33.0144 124.444H30.3159L24.4282 135.745H17.682L24.7962 122.953H31.5425L29.212 117.117ZM58.6502 117.117L60.9808 112.149L57.9143 105.567L60.7355 99.1091L63.434 105.567L60.9808 112.149L63.434 117.117L60.9808 122.953H67.9724L74.8413 135.745H68.831L62.4527 124.444H59.7542L53.8665 135.745H47.1202L54.2345 122.953H60.9808L58.6502 117.117ZM116.791 117.117L119.121 112.149L116.055 105.567L118.876 99.1091L121.575 105.567L119.121 112.149L121.575 117.117L119.121 122.953H126.113L132.982 135.745H126.972L120.593 124.444H117.895L112.007 135.745H105.261L112.375 122.953H119.121L116.791 117.117ZM202.162 116.992L204.492 112.025L202.653 105.443L205.474 98.985L208.172 105.443L204.492 112.025L206.946 116.992L204.492 122.829H211.484L216.886 132.888H221.835L227.43 122.829H234.176L231.846 116.992L234.176 112.025L231.11 105.443L233.931 98.985L236.629 105.443L234.176 112.025L236.629 116.992L234.176 122.829H241.168L246.569 132.888H249.968L255.977 122.084H262.724L260.393 116.247L262.724 111.28L260.057 105.443L262.878 98.985L265.577 105.443L262.724 111.28L265.177 116.247L262.724 122.084H269.715L276.584 134.876H275.022L276.359 136.49L276.739 135.621L279.437 142.078L284.834 151.268L290.109 161.576V169.152L289.644 170.021L290.845 172.256H288.637L279.56 188.773L273.427 198.336H271.316L276.984 208.892H270.974L265.016 198.336H261.509L256.009 208.892H249.263L255.134 198.336H241.387L247.055 208.892H241.045L235.087 198.336H231.58L226.081 208.892H219.334L225.205 198.336H212.807L218.476 208.892H212.465L206.508 198.336H203L197.501 208.892H190.755L196.626 198.336H192.962V162.694L191.981 160.955H189.283L183.395 172.256H176.649L183.763 159.465H190.509L188.179 153.628L190.509 148.66L187.443 142.078L190.264 135.621L192.962 142.078L190.509 148.66L192.962 153.628L190.509 159.465H192.962L193.576 135.621H190.632L197.746 122.829H204.492L202.162 116.992ZM289.373 190.264L291.703 185.296L288.637 178.714L291.458 172.256L294.157 178.714L291.703 185.296L294.157 190.264L291.703 196.101H298.695L305.564 208.892H299.554L293.175 197.591H290.477L284.589 208.892H277.843L284.957 196.101H291.703L289.373 190.264ZM102.44 153.752L104.77 148.785L101.704 142.203L104.525 135.745L107.223 142.203L104.77 148.785L107.223 153.752L104.77 159.589H111.762L118.631 172.381H112.62L106.242 161.079H103.544L97.656 172.381H90.9097L98.024 159.589H104.77L102.44 153.752ZM73.2467 153.628L75.5773 148.66L72.5108 142.078L75.3319 135.621L78.0304 142.078L75.5773 148.66L78.0304 153.628L75.5773 159.465H82.5689L89.4378 172.256H83.4275L77.0492 160.955H74.3507L68.463 172.256H61.7167L68.831 159.465H75.5773L73.2467 153.628ZM43.8084 153.752L46.139 148.785L43.0725 142.203L45.8937 135.745L48.5922 142.203L46.139 148.785L48.5922 153.752L46.139 159.589H53.1306L59.9995 172.381H53.9892L47.6109 161.079H44.9124L39.0247 172.381H32.2784L39.3927 159.589H46.139L43.8084 153.752ZM14.9835 153.752L17.314 148.785L14.2475 142.203L17.0687 135.745L19.7672 142.203L17.314 148.785L19.7672 153.752L17.314 159.589H24.3056L31.1745 172.381H25.1642L18.7859 161.079H16.0874L10.1997 172.381H3.45346L10.5677 159.589H17.314L14.9835 153.752ZM29.9479 190.388L32.2784 185.42L29.2119 178.838L32.0331 172.381L34.7316 178.838L32.2784 185.42L34.7316 190.388L32.2784 196.225H39.27L46.1389 209.016H40.1286L33.7503 197.715H31.0518L25.1642 209.016H18.4179L25.5321 196.225H32.2784L29.9479 190.388ZM58.1596 190.388L60.4901 185.42L57.4236 178.838L60.2448 172.381L62.9433 178.838L60.4901 185.42L62.9433 190.388L60.4901 196.225H67.4817L74.3507 209.016H68.3403L61.9621 197.715H59.2635L53.3759 209.016H46.6296L53.7439 196.225H60.4901L58.1596 190.388ZM87.3526 190.388L89.6831 185.42L86.6166 178.838L89.4378 172.381L92.1363 178.838L89.6831 185.42L92.1363 190.388L89.6831 196.225H96.6747L103.544 209.016H97.5333L91.155 197.715H88.4565L82.5689 209.016H75.8226L82.9368 196.225H89.6831L87.3526 190.388ZM117.159 190.388L119.489 185.42L116.423 178.838L119.244 172.381L121.942 178.838L119.489 185.42L121.942 190.388L119.489 196.225H126.481L133.35 209.016L140.464 196.225H147.21L144.88 190.388L147.21 185.42L144.144 178.838L146.965 172.381L149.664 178.838L147.21 185.42L149.664 190.388L147.21 196.225H154.202L161.071 209.016H155.061L148.682 197.715H145.984L140.096 209.016H133.35H127.339L120.961 197.715H118.263L112.375 209.016H105.629L112.743 196.225H119.489L117.159 190.388Z" fill="#FEFEFE"/>
<path d="M158.618 142.078L161.684 148.66L164.137 142.078L161.439 135.621L158.618 142.078Z" fill="#1F2D48"/>
<path d="M313.169 135.621H306.422L309.121 142.078L306.668 148.66L309.121 153.628L306.668 159.465H313.659L320.528 172.256H320.283L321.019 174.018V124.319H319.056L313.169 135.621Z" fill="#1F2D48"/>
<path d="M313.169 135.621H306.422L309.121 142.078L306.668 148.66L309.121 153.628L306.668 159.465H313.659L320.528 172.256H320.283L321.019 174.018V124.319H319.056L313.169 135.621Z" fill="#FEFEFE"/>
<path d="M235.648 124.319H232.949L228.485 132.888H240.484L235.648 124.319Z" fill="#1F2D48"/>
<path d="M235.648 124.319H232.949L228.485 132.888H240.484L235.648 124.319Z" fill="#FEFEFE"/>
<path d="M205.964 124.319H203.266L198.802 132.888H210.801L205.964 124.319Z" fill="#1F2D48"/>
<path d="M205.964 124.319H203.266L198.802 132.888H210.801L205.964 124.319Z" fill="#FEFEFE"/>
<path d="M264.195 123.574H261.497L256.644 132.888H269.452L264.195 123.574Z" fill="#1F2D48"/>
<path d="M264.195 123.574H261.497L256.644 132.888H269.452L264.195 123.574Z" fill="#FEFEFE"/>
<path d="M302.743 67.9378L305.932 75.3891L308.753 67.9378L305.932 62.2251L302.743 67.9378Z" fill="#1F2D48"/>
<path d="M320.283 48.4401H313.537L306.422 61.2316H313.169L319.056 49.9304H321.019V48.4401H320.283Z" fill="#1F2D48"/>
<path d="M320.283 37.6357L317.952 42.6032L320.283 48.4401L321.019 46.6891V39.126L320.283 37.6357Z" fill="#1F2D48"/>
<path d="M317.217 31.0537L320.283 37.6357L321.019 35.6611V26.9442L320.038 24.5959L317.217 31.0537Z" fill="#1F2D48"/>
<path d="M1.00027 1H321.019M1.00027 1V108.463M1.00027 1H16.578M1.00027 1V24.5959M321.019 1V26.9442M321.019 1H305.073M1.00027 211.5H321.019V197.591M1.00027 211.5V196.225M1.00027 211.5L1.00024 197.715M16.578 1L14.2475 5.96755L16.578 11.8044M16.578 1L19.0312 5.96755L16.578 11.8044M16.578 1H46.0163M16.578 11.8044H9.83176L2.34952 24.5959H9.46378L15.3514 13.2947H18.0499L24.4282 24.5959H30.4386L23.5696 11.8044H16.578ZM46.0163 1L43.6858 5.96755L46.0163 11.8044M46.0163 1L48.4695 5.96755L46.0163 11.8044M46.0163 1H74.7186M46.0163 11.8044H39.27L32.1558 24.5959H38.9021L44.7897 13.2947H47.4882L53.8665 24.5959H59.8768L53.0079 11.8044H46.0163ZM74.7186 1L72.3881 5.96755L74.7186 11.8044M74.7186 1L77.1718 5.96755L74.7186 11.8044M74.7186 1H103.789M74.7186 11.8044H67.9724L60.8581 24.5959H67.6044L73.4921 13.2947H76.1906L82.5689 24.5959H88.5792L81.7102 11.8044H74.7186ZM103.789 1L101.458 5.96755L103.789 11.8044M103.789 1L106.242 5.96755L103.789 11.8044M103.789 1H132.614M103.789 11.8044H97.0427L89.9284 24.5959H96.6747L102.562 13.2947H105.261L111.639 24.5959H117.649L110.781 11.8044H103.789ZM132.614 1L130.283 5.96755L132.614 11.8044M132.614 1L135.067 5.96755L132.614 11.8044M132.614 1H161.684M132.614 11.8044H125.868L118.753 24.5959H125.5L131.387 13.2947H134.086L140.464 24.5959H146.474L139.606 11.8044H132.614ZM161.684 1L159.354 5.96755L161.684 11.8044M161.684 1L164.137 5.96755L161.684 11.8044M161.684 1H190.387M161.684 11.8044H154.938L147.824 24.5959H154.57L160.458 13.2947H163.156L169.534 24.5959H175.545L168.676 11.8044H161.684ZM190.387 1L188.056 5.96755L190.387 11.8044M190.387 1L192.84 5.96755L190.387 11.8044M190.387 1H218.721M190.387 11.8044H183.64L176.526 24.5959H183.272L189.16 13.2947H191.859L198.237 24.5959H204.247L197.378 11.8044H190.387ZM218.721 1L216.39 5.96755L218.721 11.8044M218.721 1L221.174 5.96755L218.721 11.8044M218.721 1H247.546M218.721 11.8044H211.975L204.86 24.5959H211.607L217.494 13.2947H220.193L226.571 24.5959H232.581L225.713 11.8044H218.721ZM247.546 1L245.215 5.96755L247.546 11.8044M247.546 1L249.999 5.96755L247.546 11.8044M247.546 1H276.248M247.546 11.8044H240.8L233.685 24.5959H240.432L246.319 13.2947H249.018L255.396 24.5959H261.406L254.538 11.8044H247.546ZM276.248 1L273.918 5.96755L276.248 11.8044M276.248 1L278.701 5.96755L276.248 11.8044M276.248 1H305.073M276.248 11.8044H269.502L262.388 24.5959H269.134L275.022 13.2947H277.72L284.098 24.5959H290.109L283.24 11.8044H276.248ZM305.073 1L302.743 5.96755L305.073 11.8044M305.073 1L307.526 5.96755L305.073 11.8044M305.073 11.8044H298.327L291.213 24.5959H297.959L303.847 13.2947H306.545L312.923 24.5959H318.934L312.065 11.8044H305.073ZM30.9292 38.6292L28.5987 43.5968L30.9292 49.4336M30.9292 38.6292L33.3824 43.5968L30.9292 49.4336M30.9292 38.6292L28.476 32.0472L30.9292 25.8378L33.9957 32.0472L30.9292 38.6292ZM30.9292 49.4336H24.1829L17.0687 62.2251H23.8149L29.7026 50.9239H32.4011L38.7794 62.2251H44.7897L37.9208 49.4336H30.9292ZM60.3913 38.6292L58.0608 43.5968L60.3913 49.4336M60.3913 38.6292L62.8445 43.5968L60.3913 49.4336M60.3913 38.6292L57.9143 30.8053L60.3913 25.8378L63.434 30.8053L60.3913 38.6292ZM60.3913 49.4336H53.645L46.5308 62.2251M60.3913 49.4336H67.3829L74.2518 62.2251H68.2415L61.8632 50.9239H59.1647L53.277 62.2251H46.5308M46.5308 62.2251H46.3842M89.9284 38.6292L87.5979 43.5968L89.9284 49.4336M89.9284 38.6292L92.3816 43.5968L89.9284 49.4336M89.9284 38.6292L87.1073 30.8053L89.9284 25.8378L92.6269 30.8053L89.9284 38.6292ZM89.9284 49.4336H83.1822L76.0679 62.2251H82.8142L88.7018 50.9239H91.4003L97.7786 62.2251H103.789M89.9284 49.4336H96.92L103.789 62.2251M103.789 62.2251L110.903 49.4336H117.649M103.789 62.2251H110.535L116.423 50.9239H119.121L125.5 62.2251H131.51L124.641 49.4336H117.649M103.789 62.2251L100.6 68.3103L105.261 75.3891M103.789 62.2251L107.469 68.3103L105.261 75.3891M117.649 38.6292L115.319 43.5968L117.649 49.4336M117.649 38.6292L120.103 43.5968L117.649 49.4336M117.649 38.6292L116.055 30.8053L118.753 25.8378L121.575 30.8053L117.649 38.6292ZM146.597 38.6292L144.267 43.5968L146.597 49.4336M146.597 38.6292L149.05 43.5968L146.597 49.4336M146.597 38.6292L144.267 29.8118L146.474 26.2103L149.05 29.8118L146.597 38.6292ZM146.597 49.4336H139.851L132.737 62.2251H139.483L145.371 50.9239H148.069L154.447 62.2251H160.458L153.589 49.4336H146.597ZM175.545 38.6292L173.214 43.5968L175.545 49.4336M175.545 38.6292L177.998 43.5968L175.545 49.4336M175.545 38.6292L173.214 31.1779L175.545 26.2103L178.734 31.1779L175.545 38.6292ZM175.545 49.4336H168.799L161.684 62.2251H168.431L174.318 50.9239H177.017L183.395 62.2251H189.405L182.536 49.4336H175.545ZM204.247 38.6292L201.917 43.5968L204.247 49.4336M204.247 38.6292L206.7 43.5968L204.247 49.4336M204.247 38.6292L201.917 29.8118L204.492 26.2103L208.172 29.8118L204.247 38.6292ZM204.247 49.4336H197.501L190.387 62.2251H197.133L203.021 50.9239H205.719L212.097 62.2251H218.108L211.239 49.4336H204.247ZM234.053 38.6292L231.723 43.5968L234.053 49.4336M234.053 38.6292L236.507 43.5968L234.053 49.4336M234.053 38.6292L231.11 31.1779L233.44 26.2103L236.507 31.1779L234.053 38.6292ZM234.053 49.4336H227.307L220.193 62.2251H226.939L232.827 50.9239H235.525L241.904 62.2251H247.914L241.045 49.4336H234.053ZM262.878 38.6292L260.548 43.5968L262.878 49.4336M262.878 38.6292L265.332 43.5968L262.878 49.4336M262.878 38.6292L258.953 31.1779L262.388 26.2103L265.332 31.1779L262.878 38.6292ZM262.878 49.4336H256.132L249.018 62.2251H255.764L261.652 50.9239H264.35L270.729 62.2251H276.739L269.87 49.4336H262.878ZM291.581 38.6292L289.25 43.5968L291.581 49.4336M291.581 38.6292L294.034 43.5968L291.581 49.4336M291.581 38.6292L288.023 31.0537L291.213 26.2103L294.034 31.1779L291.581 38.6292ZM291.581 49.4336H284.834L277.72 62.2251H284.466L290.354 50.9239H293.053L299.431 62.2251H305.441L298.572 49.4336H291.581ZM17.0687 75.3891L19.5219 80.3566L17.0687 86.1935M17.0687 75.3891L17.0251 75.4819M17.0687 75.3891L17.0651 75.3811M17.0687 86.1935L14.7381 80.3566L17.0251 75.4819M17.0687 86.1935H10.3224L3.20814 98.985H9.95442L15.8421 87.6838H18.5406L24.9189 98.985H30.9292L24.0603 86.1935H17.0687ZM46.5308 75.3891L44.2002 80.3566L46.5308 86.1935M46.5308 75.3891L48.984 80.3566L46.5308 86.1935M46.5308 75.3891L44.2002 67.6894L46.3842 62.2251M46.5308 75.3891L48.984 67.6894L46.3842 62.2251M46.5308 86.1935H39.7845L32.6702 98.985H39.4165L45.3042 87.6838H48.0027L54.381 98.985H60.3913L53.5224 86.1935H46.5308ZM76.0679 75.3891L73.7374 80.3566L76.0679 86.1935M76.0679 75.3891L78.5211 80.3566L76.0679 86.1935M76.0679 75.3891L72.756 69.8006L74.9639 62.2251L77.6624 69.8006L76.0679 75.3891ZM76.0679 86.1935H69.3216L62.2074 98.985H68.9537L74.8413 87.6838H77.5398L83.9181 98.985H89.9284M76.0679 86.1935H83.0595L89.9284 98.985M89.9284 98.985L87.1073 105.443L90.1737 112.025M89.9284 98.985L92.6269 105.443L90.1737 112.025M105.261 75.3891L102.93 80.3566L105.261 86.1935M105.261 75.3891L107.714 80.3566L105.261 86.1935M105.261 86.1935H98.5146L91.4003 98.985H98.1466L104.034 87.6838H106.733L113.111 98.985H119.121L112.252 86.1935H105.261ZM134.209 75.3891L131.878 80.3566L134.209 86.1935M134.209 75.3891L136.662 80.3566L134.209 86.1935M134.209 75.3891L129.67 68.1861L132.369 62.4734L135.558 68.1861L134.209 75.3891ZM134.209 86.1935H127.462L120.348 98.985H127.094L132.982 87.6838H135.68L142.059 98.985M134.209 86.1935H141.2L148.069 98.985M142.059 98.985H148.069M142.059 98.985H147.824M148.069 98.985L155.183 86.1935H161.93M148.069 98.985H154.815L160.703 87.6838H163.401L169.78 98.985H175.79L168.921 86.1935H161.93M148.069 98.985H147.824M161.93 75.3891L159.599 80.3566L161.93 86.1935M161.93 75.3891L164.383 80.3566L161.93 86.1935M161.93 75.3891L157.759 69.1796L161.071 62.2251L163.769 69.1796L161.93 75.3891ZM190.877 75.3891L188.547 80.3566L190.877 86.1935M190.877 75.3891L193.33 80.3566L190.877 86.1935M190.877 75.3891L187.197 69.1796L189.651 62.846L192.349 69.1796L190.877 75.3891ZM190.877 86.1935H184.131L176.035 98.985M190.877 86.1935H197.869L204.738 98.985H198.727L192.349 87.6838H189.651L183.763 98.985H176.035M176.035 98.985L173.214 105.443L176.281 112.025M176.035 98.985L178.734 105.443L176.281 112.025M219.58 75.3891L217.249 80.3566L219.58 86.1935M219.58 75.3891L222.033 80.3566L219.58 86.1935M219.58 75.3891L217.249 67.0684L219.089 62.2251L222.033 67.0684L219.58 75.3891ZM219.58 86.1935H212.833L205.719 98.985H212.465L218.353 87.6838H221.051L227.43 98.985H233.44L226.571 86.1935H219.58ZM248.65 75.3891L246.319 80.3566L248.65 86.1935M248.65 75.3891L251.103 80.3566L248.65 86.1935M248.65 75.3891L246.319 67.9378L248.404 62.2251L251.103 67.9378L248.65 75.3891ZM248.65 86.1935H241.904L234.789 98.985H241.536L247.423 87.6838H250.122L256.5 98.985H262.51L255.641 86.1935H248.65ZM278.211 75.3891L275.88 80.3566L278.211 86.1935M278.211 75.3891L280.664 80.3566L278.211 86.1935M278.211 75.3891L275.88 67.8136L277.229 62.2251L280.664 67.8136L278.211 75.3891ZM278.211 86.1935H271.465L264.35 98.985H271.097L276.984 87.6838H279.683L286.061 98.985H292.071M278.211 86.1935H285.202L292.071 98.985M292.071 98.985L299.186 86.1935H305.932M292.071 98.985H298.818M292.071 98.985H292.317M305.932 75.3891L303.601 80.3566L305.932 86.1935M305.932 75.3891L308.385 80.3566L305.932 86.1935M305.932 75.3891L302.743 67.9378L305.932 62.2251L308.753 67.9378L305.932 75.3891ZM305.932 86.1935H312.923L319.792 98.985H313.782L307.404 87.6838H304.705L298.818 98.985M298.818 98.985H292.317M31.5425 112.149L29.212 117.117L31.5425 122.953M31.5425 112.149L33.9957 117.117L31.5425 122.953M31.5425 112.149L28.476 105.567L31.2972 99.1091L33.9957 105.567L31.5425 112.149ZM31.5425 122.953H24.7962L17.682 135.745H24.4282L30.3159 124.444H33.0144L39.3927 135.745H45.403L38.5341 122.953H31.5425ZM60.9808 112.149L58.6502 117.117L60.9808 122.953M60.9808 112.149L63.434 117.117L60.9808 122.953M60.9808 112.149L57.9143 105.567L60.7355 99.1091L63.434 105.567L60.9808 112.149ZM60.9808 122.953H54.2345L47.1202 135.745H53.8665L59.7542 124.444H62.4527L68.831 135.745H74.8413L67.9724 122.953H60.9808ZM90.1737 112.025L87.8432 116.992L90.1737 122.829M90.1737 112.025L92.6269 116.992L90.1737 122.829M90.1737 122.829H83.4275L76.3132 135.621H83.0595L88.9472 124.319H91.6457L98.024 135.621H104.034L97.1653 122.829H90.1737ZM119.121 112.149L116.791 117.117L119.121 122.953M119.121 112.149L121.575 117.117L119.121 122.953M119.121 112.149L116.055 105.567L118.876 99.1091L121.575 105.567L119.121 112.149ZM119.121 122.953H112.375L105.261 135.745H112.007L117.895 124.444H120.593L126.972 135.745H132.982L126.113 122.953H119.121ZM148.069 112.025L145.739 116.992L148.069 122.829M148.069 112.025L150.522 116.992L148.069 122.829M148.069 112.025L145.003 105.443L147.824 98.985M148.069 112.025L150.522 105.443L147.824 98.985M148.069 122.829H141.323L134.209 135.621H140.955L146.842 124.319H149.541L155.919 135.621M148.069 122.829H155.061L161.93 135.621M155.919 135.621H161.93M155.919 135.621H161.439M161.93 135.621H161.439M176.281 112.025L173.95 116.992L176.281 122.829M176.281 112.025L178.734 116.992L176.281 122.829M176.281 122.829H169.534L162.42 135.621H169.166L175.054 124.319H177.753L184.131 135.621H190.141L183.272 122.829H176.281ZM204.492 112.025L202.162 116.992L204.492 122.829M204.492 112.025L206.946 116.992L204.492 122.829M204.492 112.025L202.653 105.443L205.474 98.985L208.172 105.443L204.492 112.025ZM204.492 122.829H197.746L190.632 135.621H193.576M204.492 122.829H211.484L216.886 132.888M234.176 112.025L231.846 116.992L234.176 122.829M234.176 112.025L236.629 116.992L234.176 122.829M234.176 112.025L231.11 105.443L233.931 98.985L236.629 105.443L234.176 112.025ZM234.176 122.829H227.43L221.835 132.888M234.176 122.829H241.168L246.569 132.888M262.724 111.28L260.393 116.247L262.724 122.084M262.724 111.28L265.177 116.247L262.724 122.084M262.724 111.28L260.057 105.443L262.878 98.985L265.577 105.443L262.724 111.28ZM262.724 122.084H255.977L249.968 132.888M262.724 122.084H269.715L276.584 134.876H275.022M292.562 112.025L290.231 116.992L292.562 122.829M292.562 112.025L295.015 116.992L292.562 122.829M292.562 112.025L289.495 105.443L292.317 98.985M292.562 112.025L295.015 105.443L292.317 98.985M292.562 122.829H285.816L278.701 135.621H285.448L291.335 124.319H294.034L300.412 135.621H306.422M292.562 122.829H299.554L306.422 135.621M306.422 135.621L313.537 122.829H320.283M306.422 135.621H313.169L319.056 124.319H321.019M306.422 135.621L303.601 142.078L306.668 148.66M306.422 135.621L309.121 142.078L306.668 148.66M320.283 112.025L317.952 116.992L320.283 122.829M320.283 112.025L317.217 105.443L320.038 98.985L321.019 101.333M320.283 112.025L321.019 113.515M320.283 112.025L321.019 110.05M320.283 122.829H321.019M320.283 122.829L321.019 121.078M306.668 148.66L304.337 153.628L306.668 159.465M306.668 148.66L309.121 153.628L306.668 159.465M306.668 159.465H299.922L292.807 172.256H299.554L305.441 160.955H308.14L314.518 172.256M306.668 159.465H313.659L320.528 172.256M314.518 172.256H320.528M314.518 172.256H320.283M320.528 172.256H320.283M320.528 185.296L318.198 190.264L320.528 196.101M320.528 185.296L317.462 178.714L320.283 172.256M320.528 185.296L321.019 186.29M320.528 185.296L321.019 183.98M320.528 196.101H313.782L306.668 208.892H313.414L319.302 197.591H321.019M320.528 196.101H321.019M320.528 196.101L321.019 194.933M322 197.591H321.019M320.283 172.256L321.019 174.018M291.703 185.296L289.373 190.264L291.703 196.101M291.703 185.296L294.157 190.264L291.703 196.101M291.703 185.296L288.637 178.714L291.458 172.256L294.157 178.714L291.703 185.296ZM291.703 196.101H284.957L277.843 208.892H284.589L290.477 197.591H293.175L299.554 208.892H305.564L298.695 196.101H291.703ZM226.448 196.101L225.205 198.336M240.186 196.101L241.387 198.336M175.79 185.296L173.46 190.264L175.79 196.101M175.79 185.296L178.243 190.264L175.79 196.101M175.79 185.296L172.724 178.714L175.545 172.256M175.79 185.296L178.243 178.714L175.545 172.256M175.79 196.101H169.044L161.93 208.892H168.676L174.564 197.591H177.262L183.64 208.892H189.651L182.782 196.101H175.79ZM175.545 172.256H169.534L163.156 160.955H160.458L154.57 172.256H147.824M175.545 172.256L168.676 159.465H161.684M190.509 148.66L188.179 153.628L190.509 159.465M190.509 148.66L192.962 153.628L190.509 159.465M190.509 148.66L187.443 142.078L190.264 135.621L192.962 142.078L190.509 148.66ZM190.509 159.465H183.763L176.649 172.256H183.395L189.283 160.955H191.981L192.962 162.694M190.509 159.465H192.962M161.684 148.66L159.354 153.628L161.684 159.465M161.684 148.66L164.137 153.628L161.684 159.465M161.684 148.66L158.618 142.078L161.439 135.621M161.684 148.66L164.137 142.078L161.439 135.621M161.684 159.465H154.938L147.824 172.256M147.824 172.256H141.813L135.435 160.955H132.737L126.849 172.256H120.103L127.217 159.465H133.963M147.824 172.256L140.955 159.465H133.963M133.963 148.66L131.633 153.628L133.963 159.465M133.963 148.66L136.416 153.628L133.963 159.465M133.963 148.66L130.897 142.078L133.718 135.621L136.416 142.078L133.963 148.66ZM104.77 148.785L102.44 153.752L104.77 159.589M104.77 148.785L107.223 153.752L104.77 159.589M104.77 148.785L101.704 142.203L104.525 135.745L107.223 142.203L104.77 148.785ZM104.77 159.589H98.024L90.9097 172.381H97.656L103.544 161.079H106.242L112.62 172.381H118.631L111.762 159.589H104.77ZM75.5773 148.66L73.2467 153.628L75.5773 159.465M75.5773 148.66L78.0304 153.628L75.5773 159.465M75.5773 148.66L72.5108 142.078L75.3319 135.621L78.0304 142.078L75.5773 148.66ZM75.5773 159.465H68.831L61.7167 172.256H68.463L74.3507 160.955H77.0492L83.4275 172.256H89.4378L82.5689 159.465H75.5773ZM46.139 148.785L43.8084 153.752L46.139 159.589M46.139 148.785L48.5922 153.752L46.139 159.589M46.139 148.785L43.0725 142.203L45.8937 135.745L48.5922 142.203L46.139 148.785ZM46.139 159.589H39.3927L32.2784 172.381H39.0247L44.9124 161.079H47.6109L53.9892 172.381H59.9995L53.1306 159.589H46.139ZM17.314 148.785L14.9835 153.752L17.314 159.589M17.314 148.785L19.7672 153.752L17.314 159.589M17.314 148.785L14.2475 142.203L17.0687 135.745L19.7672 142.203L17.314 148.785ZM17.314 159.589H10.5677L3.45346 172.381H10.1997L16.0874 161.079H18.7859L25.1642 172.381H31.1745L24.3056 159.589H17.314ZM2.71747 112.149L5.17066 117.117L2.71747 122.953M2.71747 112.149L5.17066 105.567L2.47215 99.1091L1.06157 102.338L1.00027 108.463M2.71747 112.149L1.00027 115.809M2.71747 112.149L1.00027 108.463M2.71747 122.953H9.70906L16.578 135.745H10.5677L4.18938 124.444H1.49087L1.00027 125.385M2.71747 122.953H1.00027M2.71747 122.953L1.00027 118.653M2.22684 185.42L4.68003 190.388L2.22684 196.225M2.22684 185.42L4.68003 178.838L1.98152 172.381L1.00027 174.627M2.22684 185.42L1.00027 188.035M2.22684 185.42L1.00027 182.788M2.22684 196.225H9.21843L16.0874 209.016H10.077L3.69875 197.715H1.00024M2.22684 196.225H1.00027M2.22684 196.225L1.06157 193.306L1.00027 188.035M1.00024 197.715L1.00027 196.225M32.2784 185.42L29.9479 190.388L32.2784 196.225M32.2784 185.42L34.7316 190.388L32.2784 196.225M32.2784 185.42L29.2119 178.838L32.0331 172.381L34.7316 178.838L32.2784 185.42ZM32.2784 196.225H25.5321L18.4179 209.016H25.1642L31.0518 197.715H33.7503L40.1286 209.016H46.1389L39.27 196.225H32.2784ZM60.4901 185.42L58.1596 190.388L60.4901 196.225M60.4901 185.42L62.9433 190.388L60.4901 196.225M60.4901 185.42L57.4236 178.838L60.2448 172.381L62.9433 178.838L60.4901 185.42ZM60.4901 196.225H53.7439L46.6296 209.016H53.3759L59.2635 197.715H61.9621L68.3403 209.016H74.3507L67.4817 196.225H60.4901ZM89.6831 185.42L87.3526 190.388L89.6831 196.225M89.6831 185.42L92.1363 190.388L89.6831 196.225M89.6831 185.42L86.6166 178.838L89.4378 172.381L92.1363 178.838L89.6831 185.42ZM89.6831 196.225H82.9368L75.8226 209.016H82.5689L88.4565 197.715H91.155L97.5333 209.016H103.544L96.6747 196.225H89.6831ZM119.489 185.42L117.159 190.388L119.489 196.225M119.489 185.42L121.942 190.388L119.489 196.225M119.489 185.42L116.423 178.838L119.244 172.381L121.942 178.838L119.489 185.42ZM119.489 196.225H112.743L105.629 209.016H112.375L118.263 197.715H120.961L127.339 209.016H133.35M119.489 196.225H126.481L133.35 209.016M133.35 209.016L140.464 196.225H147.21M133.35 209.016H140.096L145.984 197.715H148.682L155.061 209.016H161.071L154.202 196.225H147.21M147.21 185.42L144.88 190.388L147.21 196.225M147.21 185.42L149.664 190.388L147.21 196.225M147.21 185.42L144.144 178.838L146.965 172.381L149.664 178.838L147.21 185.42ZM279.437 142.078L276.739 135.621L276.359 136.49M279.437 142.078L284.834 151.268L290.109 161.576V169.152L289.644 170.021M279.437 142.078L276.359 136.49M321.019 124.319V122.829M321.019 124.319V174.018M321.019 122.829V121.078M321.019 121.078V113.515M321.019 113.515V110.05M321.019 110.05V101.333M321.019 101.333V49.9304M1.00027 50.9239H4.18942L10.5677 62.2251H16.578L9.7091 49.4336H2.7175L5.17069 43.5968L2.7175 38.6292L5.17069 32.0472L1.00027 24.5959M1.00027 50.9239V24.5959M1.00027 50.9239V108.463M320.283 37.6357L317.952 42.6032L320.283 48.4401M320.283 37.6357L317.217 31.0537L320.038 24.5959L321.019 26.9442M320.283 37.6357L321.019 39.126M320.283 37.6357L321.019 35.6611M320.283 48.4401H313.537L306.422 61.2316H313.169L319.056 49.9304H321.019M320.283 48.4401H321.019M320.283 48.4401L321.019 46.6891M17.0251 75.4819L17.0651 75.3811M321.019 197.591V196.101M321.019 196.101V194.933M321.019 194.933V186.29M321.019 186.29V183.98M321.019 183.98V174.018M321.019 174.018V49.9304M321.019 49.9304V48.4401M321.019 48.4401V46.6891M321.019 46.6891V39.126M321.019 39.126V35.6611M321.019 35.6611V26.9442M1.00027 196.225V188.035M1.00027 188.035V182.788M1.00027 182.788V174.627M1.00027 174.627V125.385M1.00027 125.385V122.953M1.00027 122.953V118.653M1.00027 118.653V115.809M1.00027 115.809V108.463M193.576 135.621V133.385V132.888H198.802M193.576 135.621L192.962 159.465M192.962 159.465V162.694M192.962 162.694V198.336H196.626M196.626 198.336L190.755 208.892H197.501L203 198.336M196.626 198.336H203M203 198.336H206.508M206.508 198.336L212.465 208.892H218.476L212.807 198.336M206.508 198.336H212.807M212.807 198.336H225.205M225.205 198.336L219.334 208.892H226.081L231.58 198.336M225.205 198.336H231.58M231.58 198.336L231.968 197.591H234.667L235.087 198.336M231.58 198.336H235.087M235.087 198.336L241.045 208.892H247.055L241.387 198.336M235.087 198.336H241.387M241.387 198.336H255.134M255.134 198.336L249.263 208.892H256.009L261.509 198.336M255.134 198.336H261.509M261.509 198.336L261.897 197.591H264.596L265.016 198.336M261.509 198.336H265.016M265.016 198.336L270.974 208.892H276.984L271.316 198.336M265.016 198.336H271.316M271.316 198.336H273.427L279.56 188.773L288.637 172.256M288.637 172.256H290.845L289.644 170.021M288.637 172.256L289.644 170.021M276.359 136.49L275.022 134.876M275.022 134.876L273.304 132.888H269.452M269.452 132.888L264.195 123.574H261.497L256.644 132.888M269.452 132.888H256.644M256.644 132.888H249.968M249.968 132.888H246.569M246.569 132.888H240.484M240.484 132.888L235.648 124.319H232.949L228.485 132.888M240.484 132.888H228.485M228.485 132.888H221.835M221.835 132.888H216.886M216.886 132.888H210.801M210.801 132.888L205.964 124.319H203.266L198.802 132.888M210.801 132.888H198.802M17.0651 75.3811L14.2474 69.1796L16.8233 62.3493L19.5218 69.1796L17.0651 75.3811Z" stroke="black"/>
</svg>
