<svg width="102" height="69" viewBox="0 0 102 69" fill="none" xmlns="http://www.w3.org/2000/svg">
<path fill-rule="evenodd" clip-rule="evenodd" d="M1 3.79696V1.5V1H7.01066L5.54546 3.79696H1ZM19.3622 1H25.6261L27.1364 3.79696H20.9495L19.3622 1ZM30.7208 1H37.5662L36.101 3.79696H29.1566L30.7208 1ZM49.9178 1H56.1817L57.6919 3.79696H51.5051L49.9178 1ZM59.6803 1H66.5527L65.4871 3.03416H58.5427L59.6803 1ZM79.7368 1H83.702L85.4697 3.03416H80.8912L79.7368 1ZM84.3334 10.408L86.8465 4.68691L90.0152 10.408L87.49 17.1461L84.3334 10.408ZM87.49 28.2068L85.091 22.2315L87.49 17.1461L90.0152 22.2315L87.49 28.2068ZM73.2223 41.3017L80.5455 28.2068H87.49H94.6869L100.522 39.0133L99.4849 41.3017H95.5708L89.0051 29.7324H86.2273L80.1667 41.3017H73.2223ZM73.2223 54.6509L70.0657 47.9127L73.2223 41.3017L75.7475 47.9127L73.2223 54.6509ZM73.2223 65.7116L70.8233 59.7362L73.2223 54.6509L75.7475 59.7362L73.2223 65.7116ZM73.2223 65.7116H80.4192L81.6549 68H75.1703H71.56H64.998L66.2778 65.7116H73.2223ZM58.702 28.2068H65.899L73.2223 41.3017H66.7829L60.2172 29.7324H57.4394L51.3788 41.3017H44.4344L51.7576 28.2068H58.702ZM58.702 17.1461L61.2273 22.2315L58.702 28.2068L56.3031 22.2315L58.702 17.1461ZM58.702 17.1461L61.2273 10.408L58.4495 3.79696L55.5455 10.408L58.702 17.1461ZM50.8468 68H44.3622H40.7519H34.1899L35.4697 65.7116H42.4142H49.6112L50.8468 68ZM42.4142 54.6509L44.9394 59.7362L42.4142 65.7116L40.0152 59.7362L42.4142 54.6509ZM42.1616 41.3017L44.9394 47.9127L42.4142 54.6509L39.2576 47.9127L42.1616 41.3017ZM27.894 28.2068H35.0909L42.1616 41.3017H35.9748L29.4091 29.7324H26.6313L20.5707 41.3017H13.6263L20.9495 28.2068H27.894ZM27.894 17.1461L30.4192 22.2315L27.894 28.2068L25.495 22.2315L27.894 17.1461ZM27.894 17.1461L30.4192 10.408L27.6414 3.79696L24.7374 10.408L27.894 17.1461ZM21.4276 68H14.943H11.3327H4.77073L6.05051 65.7116H12.995H20.1919L21.4276 68ZM12.995 54.6509L10.596 59.7362L12.995 65.7116L15.5202 59.7362L12.995 54.6509ZM12.7424 41.3017L9.83839 47.9127L12.995 54.6509L15.5202 47.9127L12.7424 41.3017ZM1 31.5123L6.55556 41.3017H12.7424L5.67172 28.2068H1V31.5123Z" fill="#1F2D48"/>
<path d="M27.1364 3.79696H20.9495L19.3622 1H7.01066L5.54546 3.79696H1V28.2068H5.67172L12.7424 41.3017L15.5202 47.9127L12.995 54.6509L15.5202 59.7362L12.995 65.7116H20.1919L21.4276 68H34.1899L35.4697 65.7116H42.4142L40.0152 59.7362L42.4142 54.6509L39.2576 47.9127L42.1616 41.3017H35.9748L29.4091 29.7324H26.6313L20.5707 41.3017H13.6263L20.9495 28.2068H27.894L25.495 22.2315L27.894 17.1461L24.7374 10.408L27.6414 3.79696L30.4192 10.408L27.894 17.1461L30.4192 22.2315L27.894 28.2068H35.0909L42.1616 41.3017L44.9394 47.9127L42.4142 54.6509L44.9394 59.7362L42.4142 65.7116H49.6112L50.8468 68H64.998L66.2778 65.7116H73.2223L70.8233 59.7362L73.2223 54.6509L70.0657 47.9127L73.2223 41.3017H66.7829L60.2172 29.7324H57.4394L51.3788 41.3017H44.4344L51.7576 28.2068H58.702L56.3031 22.2315L58.702 17.1461L55.5455 10.408L58.4495 3.79696L61.2273 10.408L58.702 17.1461L61.2273 22.2315L58.702 28.2068H65.899L73.2223 41.3017L80.5455 28.2068H87.49L85.091 22.2315L87.49 17.1461L84.3334 10.408L86.8465 4.68691L85.4697 3.03416H80.8912L79.7368 1H66.5527L65.4871 3.03416H58.5427L59.6803 1H56.1817L57.6919 3.79696H51.5051L49.9178 1H37.5662L36.101 3.79696H29.1566L30.7208 1H25.6261L27.1364 3.79696Z" fill="#1F2D48"/>
<path d="M27.1364 3.79696H20.9495L19.3622 1H7.01066L5.54546 3.79696H1V28.2068H5.67172L12.7424 41.3017L15.5202 47.9127L12.995 54.6509L15.5202 59.7362L12.995 65.7116H20.1919L21.4276 68H34.1899L35.4697 65.7116H42.4142L40.0152 59.7362L42.4142 54.6509L39.2576 47.9127L42.1616 41.3017H35.9748L29.4091 29.7324H26.6313L20.5707 41.3017H13.6263L20.9495 28.2068H27.894L25.495 22.2315L27.894 17.1461L24.7374 10.408L27.6414 3.79696L30.4192 10.408L27.894 17.1461L30.4192 22.2315L27.894 28.2068H35.0909L42.1616 41.3017L44.9394 47.9127L42.4142 54.6509L44.9394 59.7362L42.4142 65.7116H49.6112L50.8468 68H64.998L66.2778 65.7116H73.2223L70.8233 59.7362L73.2223 54.6509L70.0657 47.9127L73.2223 41.3017H66.7829L60.2172 29.7324H57.4394L51.3788 41.3017H44.4344L51.7576 28.2068H58.702L56.3031 22.2315L58.702 17.1461L55.5455 10.408L58.4495 3.79696L61.2273 10.408L58.702 17.1461L61.2273 22.2315L58.702 28.2068H65.899L73.2223 41.3017L80.5455 28.2068H87.49L85.091 22.2315L87.49 17.1461L84.3334 10.408L86.8465 4.68691L85.4697 3.03416H80.8912L79.7368 1H66.5527L65.4871 3.03416H58.5427L59.6803 1H56.1817L57.6919 3.79696H51.5051L49.9178 1H37.5662L36.101 3.79696H29.1566L30.7208 1H25.6261L27.1364 3.79696Z" fill="#FEFEFE"/>
<path d="M87.49 28.2068H94.6869L100.522 39.0133L101 38.1233V30.3681L95.5708 19.8159L90.0152 10.408L87.49 17.1461L90.0152 22.2315L87.49 28.2068Z" fill="#1F2D48"/>
<path d="M87.49 28.2068H94.6869L100.522 39.0133L101 38.1233V30.3681L95.5708 19.8159L90.0152 10.408L87.49 17.1461L90.0152 22.2315L87.49 28.2068Z" fill="#FEFEFE"/>
<path d="M73.2223 65.7116H80.4192L81.6549 68H83.8283L90.1414 58.2106L99.4849 41.3017H95.5708L89.0051 29.7324H86.2273L80.1667 41.3017H73.2223L75.7475 47.9127L73.2223 54.6509L75.7475 59.7362L73.2223 65.7116Z" fill="#1F2D48"/>
<path d="M73.2223 65.7116H80.4192L81.6549 68H83.8283L90.1414 58.2106L99.4849 41.3017H95.5708L89.0051 29.7324H86.2273L80.1667 41.3017H73.2223L75.7475 47.9127L73.2223 54.6509L75.7475 59.7362L73.2223 65.7116Z" fill="#FEFEFE"/>
<path d="M10.596 59.7362L12.995 54.6509L9.83839 47.9127L12.7424 41.3017H6.55556L1 31.5123V68H4.77073L6.05051 65.7116H12.995L10.596 59.7362Z" fill="#1F2D48"/>
<path d="M10.596 59.7362L12.995 54.6509L9.83839 47.9127L12.7424 41.3017H6.55556L1 31.5123V68H4.77073L6.05051 65.7116H12.995L10.596 59.7362Z" fill="#FEFEFE"/>
<path d="M73.2223 54.6509L70.8233 59.7362L73.2223 65.7116M73.2223 54.6509L75.7475 59.7362L73.2223 65.7116M73.2223 54.6509L70.0657 47.9127L73.2223 41.3017M73.2223 54.6509L75.7475 47.9127L73.2223 41.3017M73.2223 65.7116H66.2778L64.998 68M73.2223 65.7116H80.4192L81.6549 68M73.2223 41.3017H66.7829L60.2172 29.7324H57.4394L51.3788 41.3017H44.4344L51.7576 28.2068H58.702M73.2223 41.3017L65.899 28.2068H58.702M73.2223 41.3017L80.5455 28.2068H87.49M73.2223 41.3017H80.1667L86.2273 29.7324H89.0051L95.5708 41.3017H99.4849M42.4142 54.6509L40.0152 59.7362L42.4142 65.7116M42.4142 54.6509L44.9394 59.7362L42.4142 65.7116M42.4142 54.6509L39.2576 47.9127L42.1616 41.3017M42.4142 54.6509L44.9394 47.9127L42.1616 41.3017M42.4142 65.7116H35.4697L34.1899 68M42.4142 65.7116H49.6112L50.8468 68M42.1616 41.3017H35.9748L29.4091 29.7324H26.6313L20.5707 41.3017H13.6263L20.9495 28.2068H27.894M42.1616 41.3017L35.0909 28.2068H27.894M12.995 54.6509L10.596 59.7362L12.995 65.7116M12.995 54.6509L15.5202 59.7362L12.995 65.7116M12.995 54.6509L9.83839 47.9127L12.7424 41.3017M12.995 54.6509L15.5202 47.9127L12.7424 41.3017M12.995 65.7116H6.05051L4.77073 68M12.995 65.7116H20.1919L21.4276 68M12.7424 41.3017H6.55556L1 31.5123M12.7424 41.3017L5.67172 28.2068H1M27.894 17.1461L25.495 22.2315L27.894 28.2068M27.894 17.1461L30.4192 22.2315L27.894 28.2068M27.894 17.1461L24.7374 10.408L27.6414 3.79696L30.4192 10.408L27.894 17.1461ZM58.702 17.1461L56.3031 22.2315L58.702 28.2068M58.702 17.1461L61.2273 22.2315L58.702 28.2068M58.702 17.1461L55.5455 10.408L58.4495 3.79696L61.2273 10.408L58.702 17.1461ZM87.49 17.1461L85.091 22.2315L87.49 28.2068M87.49 17.1461L90.0152 22.2315L87.49 28.2068M87.49 17.1461L84.3334 10.408L86.8465 4.68691M87.49 17.1461L90.0152 10.408M87.49 28.2068H94.6869L100.522 39.0133M90.0152 10.408L95.5708 19.8159L101 30.3681V38.1233L100.522 39.0133M90.0152 10.408L86.8465 4.68691M1 3.79696H5.54546L7.01066 1M1 3.79696V1.5V1H7.01066M1 3.79696V28.2068M1 28.2068V31.5123M1 31.5123V68H4.77073M4.77073 68H11.3327M11.3327 68L11.7323 67.2372H14.5101L14.943 68M11.3327 68H14.943M14.943 68H21.4276M21.4276 68H34.1899M34.1899 68H40.7519M40.7519 68L41.1515 67.2372H43.9293L44.3622 68M40.7519 68H44.3622M44.3622 68H50.8468M50.8468 68H64.998M64.998 68H71.56M71.56 68L71.9596 67.2372H74.7374L75.1703 68M71.56 68H75.1703M75.1703 68H81.6549M81.6549 68H83.8283L90.1414 58.2106L99.4849 41.3017M99.4849 41.3017L100.522 39.0133M86.8465 4.68691L85.4697 3.03416M85.4697 3.03416H80.8912L79.7368 1M85.4697 3.03416L83.702 1H79.7368M79.7368 1H66.5527M66.5527 1L65.4871 3.03416H58.5427L59.6803 1M66.5527 1H59.6803M59.6803 1H56.1817M56.1817 1L57.6919 3.79696H51.5051L49.9178 1M56.1817 1H49.9178M49.9178 1H37.5662M37.5662 1L36.101 3.79696H29.1566L30.7208 1M37.5662 1H30.7208M30.7208 1H25.6261M25.6261 1L27.1364 3.79696H20.9495L19.3622 1M25.6261 1H19.3622M19.3622 1H7.01066" stroke="black"/>
<path d="M73.2223 54.6509L70.8233 59.7362L73.2223 65.7116M73.2223 54.6509L75.7475 59.7362L73.2223 65.7116M73.2223 54.6509L70.0657 47.9127L73.2223 41.3017M73.2223 54.6509L75.7475 47.9127L73.2223 41.3017M73.2223 65.7116H66.2778L64.998 68M73.2223 65.7116H80.4192L81.6549 68M73.2223 41.3017H66.7829L60.2172 29.7324H57.4394L51.3788 41.3017H44.4344L51.7576 28.2068H58.702M73.2223 41.3017L65.899 28.2068H58.702M73.2223 41.3017L80.5455 28.2068H87.49M73.2223 41.3017H80.1667L86.2273 29.7324H89.0051L95.5708 41.3017H99.4849M42.4142 54.6509L40.0152 59.7362L42.4142 65.7116M42.4142 54.6509L44.9394 59.7362L42.4142 65.7116M42.4142 54.6509L39.2576 47.9127L42.1616 41.3017M42.4142 54.6509L44.9394 47.9127L42.1616 41.3017M42.4142 65.7116H35.4697L34.1899 68M42.4142 65.7116H49.6112L50.8468 68M42.1616 41.3017H35.9748L29.4091 29.7324H26.6313L20.5707 41.3017H13.6263L20.9495 28.2068H27.894M42.1616 41.3017L35.0909 28.2068H27.894M12.995 54.6509L10.596 59.7362L12.995 65.7116M12.995 54.6509L15.5202 59.7362L12.995 65.7116M12.995 54.6509L9.83839 47.9127L12.7424 41.3017M12.995 54.6509L15.5202 47.9127L12.7424 41.3017M12.995 65.7116H6.05051L4.77073 68M12.995 65.7116H20.1919L21.4276 68M12.7424 41.3017H6.55556L1 31.5123M12.7424 41.3017L5.67172 28.2068H1M27.894 17.1461L25.495 22.2315L27.894 28.2068M27.894 17.1461L30.4192 22.2315L27.894 28.2068M27.894 17.1461L24.7374 10.408L27.6414 3.79696L30.4192 10.408L27.894 17.1461ZM58.702 17.1461L56.3031 22.2315L58.702 28.2068M58.702 17.1461L61.2273 22.2315L58.702 28.2068M58.702 17.1461L55.5455 10.408L58.4495 3.79696L61.2273 10.408L58.702 17.1461ZM87.49 17.1461L85.091 22.2315L87.49 28.2068M87.49 17.1461L90.0152 22.2315L87.49 28.2068M87.49 17.1461L84.3334 10.408L86.8465 4.68691M87.49 17.1461L90.0152 10.408M87.49 28.2068H94.6869L100.522 39.0133M90.0152 10.408L95.5708 19.8159L101 30.3681V38.1233L100.522 39.0133M90.0152 10.408L86.8465 4.68691M1 3.79696H5.54546L7.01066 1M1 3.79696V1.5V1H7.01066M1 3.79696V28.2068M1 28.2068V31.5123M1 31.5123V68H4.77073M4.77073 68H11.3327M11.3327 68L11.7323 67.2372H14.5101L14.943 68M11.3327 68H14.943M14.943 68H21.4276M21.4276 68H34.1899M34.1899 68H40.7519M40.7519 68L41.1515 67.2372H43.9293L44.3622 68M40.7519 68H44.3622M44.3622 68H50.8468M50.8468 68H64.998M64.998 68H71.56M71.56 68L71.9596 67.2372H74.7374L75.1703 68M71.56 68H75.1703M75.1703 68H81.6549M81.6549 68H83.8283L90.1414 58.2106L99.4849 41.3017M99.4849 41.3017L100.522 39.0133M86.8465 4.68691L85.4697 3.03416M85.4697 3.03416H80.8912L79.7368 1M85.4697 3.03416L83.702 1H79.7368M79.7368 1H66.5527M66.5527 1L65.4871 3.03416H58.5427L59.6803 1M66.5527 1H59.6803M59.6803 1H56.1817M56.1817 1L57.6919 3.79696H51.5051L49.9178 1M56.1817 1H49.9178M49.9178 1H37.5662M37.5662 1L36.101 3.79696H29.1566L30.7208 1M37.5662 1H30.7208M30.7208 1H25.6261M25.6261 1L27.1364 3.79696H20.9495L19.3622 1M25.6261 1H19.3622M19.3622 1H7.01066" stroke="#1F2D48"/>
</svg>
