<svg width="102" height="69" viewBox="0 0 102 69" fill="none" xmlns="http://www.w3.org/2000/svg">
<path d="M1 1.89163V4.05703L1.24691 28.1312L1.2469 32.2072V68L3.5827 67.7452H10.2257H13.8806H20.4452H29.5185H33.3651H40.0081H43.663H50.2276H64.5535H71.1966H74.8514H81.4161H83.6163L90.0073 57.9931L99.4662 41.1485L100.516 38.8687L101 37.9822V30.2565L95.5037 19.7444L89.8796 10.3722L86.6717 4.67289L85.2779 3.02642L83.4885 1H79.4743H66.1274H59.1702H55.6284H49.2871H36.7831H29.8531H24.6956H18.3543H5.85028H1V1.89163Z" fill="#D9D9D9"/>
<path d="M1 1.89163V4.05703L1.24691 28.1312L1.2469 32.2072V68L3.5827 67.7452H10.2257H13.8806H20.4452H29.5185H33.3651H40.0081H43.663H50.2276H64.5535H71.1966H74.8514H81.4161H83.6163L90.0073 57.9931L99.4662 41.1485L100.516 38.8687L101 37.9822V30.2565L95.5037 19.7444L89.8796 10.3722L86.6717 4.67289L85.2779 3.02642L83.4885 1H79.4743H66.1274H59.1702H55.6284H49.2871H36.7831H29.8531H24.6956H18.3543H5.85028H1V1.89163Z" fill="#FEFEFE"/>
<path d="M1 1.89163V4.05703L1.24691 28.1312L1.2469 32.2072V68L3.5827 67.7452H10.2257H13.8806H20.4452H29.5185H33.3651H40.0081H43.663H50.2276H64.5535H71.1966H74.8514H81.4161H83.6163L90.0073 57.9931L99.4662 41.1485L100.516 38.8687L101 37.9822V30.2565L95.5037 19.7444L89.8796 10.3722L86.6717 4.67289L85.2779 3.02642L83.4885 1H79.4743H66.1274H59.1702H55.6284H49.2871H36.7831H29.8531H24.6956H18.3543H5.85028H1V1.89163Z" stroke="black"/>
<path d="M1 1.89163V4.05703L1.24691 28.1312L1.2469 32.2072V68L3.5827 67.7452H10.2257H13.8806H20.4452H29.5185H33.3651H40.0081H43.663H50.2276H64.5535H71.1966H74.8514H81.4161H83.6163L90.0073 57.9931L99.4662 41.1485L100.516 38.8687L101 37.9822V30.2565L95.5037 19.7444L89.8796 10.3722L86.6717 4.67289L85.2779 3.02642L83.4885 1H79.4743H66.1274H59.1702H55.6284H49.2871H36.7831H29.8531H24.6956H18.3543H5.85028H1V1.89163Z" stroke="#1F2D48"/>
</svg>
