<svg width="110" height="77" viewBox="0 0 110 77" fill="none" xmlns="http://www.w3.org/2000/svg">
<g filter="url(#filter0_d_34_4)">
<path fill-rule="evenodd" clip-rule="evenodd" d="M5 1V4.84321V8.04589V11.3767V15.348V19.7036V24.6998V27.2619V30.9771V34.8203V39.0478V42.3786V47.3748V51.0899V54.1644V58.9044V62.7476V65.9503V68H6.15533H15.3979H22.3299H30.2888H38.5045H46.2067H53.3954H62.1245H69.3132H76.887H84.0757H86.8999L88.6971 65.9503L90.8793 62.7476L93.0616 58.9044L96.1425 54.1644L98.068 51.0899L100.635 47.3748L103.46 42.3786L105 39.0478V34.8203V30.9771L103.973 27.2619L102.561 24.6998L100.635 21.369L99.3517 19.7036L96.656 15.348L93.9602 11.3767L93.0616 10.4799L91.5212 8.04589L89.3389 4.84321L86.6431 1H84.0757H76.887H69.3132H62.1245H53.3954H46.2067H38.5045H30.2888H22.3299H15.3979H6.15533H5ZM69.3132 19.7036H62.1245V15.348H69.3132V19.7036Z" fill="#F47331"/>
<path fill-rule="evenodd" clip-rule="evenodd" d="M5 1V4.84321V8.04589V11.3767V15.348V19.7036V24.6998V27.2619V30.9771V34.8203V39.0478V42.3786V47.3748V51.0899V54.1644V58.9044V62.7476V65.9503V68H6.15533H15.3979H22.3299H30.2888H38.5045H46.2067H53.3954H62.1245H69.3132H76.887H84.0757H86.8999L88.6971 65.9503L90.8793 62.7476L93.0616 58.9044L96.1425 54.1644L98.068 51.0899L100.635 47.3748L103.46 42.3786L105 39.0478V34.8203V30.9771L103.973 27.2619L102.561 24.6998L100.635 21.369L99.3517 19.7036L96.656 15.348L93.9602 11.3767L93.0616 10.4799L91.5212 8.04589L89.3389 4.84321L86.6431 1H84.0757H76.887H69.3132H62.1245H53.3954H46.2067H38.5045H30.2888H22.3299H15.3979H6.15533H5ZM69.3132 19.7036H62.1245V15.348H69.3132V19.7036Z" fill="#F47331"/>
<path d="M62.1245 19.7036H69.3132V15.348H62.1245V19.7036Z" fill="#F47331"/>
<path d="M62.1245 19.7036H69.3132V15.348H62.1245V19.7036Z" fill="#F47331"/>
<path d="M5 4.84321V1H6.15533M5 4.84321H6.15533M5 4.84321V8.04589M5 8.04589V11.3767M5 8.04589H6.15533M5 11.3767H6.15533M5 11.3767V15.348M5 15.348V19.7036M5 15.348H6.15533M5 19.7036H6.15533M5 19.7036V24.6998M5 24.6998V27.2619M5 24.6998H6.15533M5 27.2619H6.15533M5 27.2619V30.9771M5 30.9771V34.8203M5 30.9771H6.15533M5 34.8203H6.15533M5 34.8203V39.0478M5 39.0478V42.3786M5 39.0478H6.15533M5 42.3786H6.15533M5 42.3786V47.3748M5 47.3748V51.0899M5 47.3748H6.15533M5 51.0899H6.15533M5 51.0899V54.1644M5 54.1644V58.9044M5 54.1644H6.15533M5 58.9044H6.15533M5 58.9044V62.7476M5 62.7476V65.9503M5 62.7476H6.15533M5 65.9503H6.15533M5 65.9503V68H6.15533M6.15533 68V65.9503M6.15533 68H15.3979M15.3979 68H22.3299M15.3979 68V65.9503M22.3299 68V65.9503M22.3299 68H30.2888M30.2888 68H38.5045M30.2888 68V65.9503M38.5045 68V65.9503M38.5045 68H46.2067M46.2067 68H53.3954M46.2067 68V65.9503M53.3954 68V65.9503M53.3954 68H62.1245M62.1245 68H69.3132M62.1245 68V65.9503M69.3132 68V65.9503M69.3132 68H76.887M76.887 68H84.0757M76.887 68V65.9503M84.0757 68V65.9503M84.0757 68H86.8999L88.6971 65.9503M6.15533 65.9503H15.3979M6.15533 65.9503V62.7476M15.3979 65.9503H22.3299M15.3979 65.9503V62.7476M22.3299 65.9503H30.2888M22.3299 65.9503V62.7476M30.2888 65.9503H38.5045M30.2888 65.9503V62.7476M38.5045 65.9503H46.2067M38.5045 65.9503V62.7476M46.2067 65.9503H53.3954M46.2067 65.9503V62.7476M53.3954 65.9503H62.1245M53.3954 65.9503V62.7476M62.1245 65.9503H69.3132M62.1245 65.9503V62.7476M69.3132 65.9503H76.887M69.3132 65.9503V62.7476M76.887 65.9503H84.0757M76.887 65.9503V62.7476M84.0757 65.9503H88.6971M84.0757 65.9503V62.7476M88.6971 65.9503L90.8793 62.7476M6.15533 62.7476H15.3979M6.15533 62.7476V58.9044M15.3979 62.7476H22.3299M15.3979 62.7476V58.9044M22.3299 62.7476H30.2888M22.3299 62.7476V58.9044M30.2888 62.7476H38.5045M30.2888 62.7476V58.9044M38.5045 62.7476H46.2067M38.5045 62.7476V58.9044M46.2067 62.7476H53.3954M46.2067 62.7476V58.9044M53.3954 62.7476H62.1245M53.3954 62.7476V58.9044M62.1245 62.7476H69.3132M62.1245 62.7476V58.9044M69.3132 62.7476H76.887M69.3132 62.7476V58.9044M76.887 62.7476H84.0757M76.887 62.7476V58.9044M84.0757 62.7476H90.8793M84.0757 62.7476V58.9044M90.8793 62.7476L93.0616 58.9044M6.15533 58.9044H15.3979M6.15533 58.9044V54.1644M15.3979 58.9044H22.3299M15.3979 58.9044V54.1644M22.3299 58.9044H30.2888M22.3299 58.9044V54.1644M30.2888 58.9044H38.5045M30.2888 58.9044V54.1644M38.5045 58.9044H46.2067M38.5045 58.9044V54.1644M46.2067 58.9044H53.3954M46.2067 58.9044V54.1644M53.3954 58.9044H62.1245M53.3954 58.9044V54.1644M62.1245 58.9044H69.3132M62.1245 58.9044V54.1644M69.3132 58.9044H76.887M69.3132 58.9044V54.1644M76.887 58.9044H84.0757M76.887 58.9044V54.1644M84.0757 58.9044H93.0616M84.0757 58.9044V54.1644M93.0616 58.9044L96.1425 54.1644M93.0616 58.9044V54.1644M6.15533 54.1644H15.3979M6.15533 54.1644V51.0899M15.3979 54.1644H22.3299M15.3979 54.1644V51.0899M22.3299 54.1644H30.2888M22.3299 54.1644V51.0899M30.2888 54.1644H38.5045M30.2888 54.1644V51.0899M38.5045 54.1644H46.2067M38.5045 54.1644V51.0899M46.2067 54.1644H53.3954M46.2067 54.1644V51.0899M53.3954 54.1644H62.1245M53.3954 54.1644V51.0899M62.1245 54.1644H69.3132M62.1245 54.1644V51.0899M69.3132 54.1644H76.887M69.3132 54.1644V51.0899M76.887 54.1644H84.0757M76.887 54.1644V51.0899M84.0757 54.1644H93.0616M84.0757 54.1644V51.0899M93.0616 54.1644H96.1425M93.0616 54.1644V51.0899M96.1425 54.1644L98.068 51.0899M6.15533 51.0899H15.3979M6.15533 51.0899V47.3748M15.3979 51.0899H22.3299M15.3979 51.0899V47.3748M22.3299 51.0899H30.2888M22.3299 51.0899V47.3748M30.2888 51.0899H38.5045M30.2888 51.0899V47.3748M38.5045 51.0899H46.2067M38.5045 51.0899V47.3748M46.2067 51.0899H53.3954M46.2067 51.0899V47.3748M53.3954 51.0899H62.1245M53.3954 51.0899V47.3748M62.1245 51.0899H69.3132M62.1245 51.0899V47.3748M69.3132 51.0899H76.887M69.3132 51.0899V47.3748M76.887 51.0899H84.0757M76.887 51.0899V47.3748M84.0757 51.0899H93.0616M84.0757 51.0899V47.3748M93.0616 51.0899H98.068M93.0616 51.0899V47.3748M98.068 51.0899L100.635 47.3748M6.15533 47.3748H15.3979M6.15533 47.3748V42.3786M15.3979 47.3748H22.3299M15.3979 47.3748V42.3786M22.3299 47.3748H30.2888M22.3299 47.3748V42.3786M30.2888 47.3748H38.5045M30.2888 47.3748V42.3786M38.5045 47.3748H46.2067M38.5045 47.3748V42.3786M46.2067 47.3748H53.3954M46.2067 47.3748V42.3786M53.3954 47.3748H62.1245M53.3954 47.3748V42.3786M62.1245 47.3748H69.3132M62.1245 47.3748V42.3786M69.3132 47.3748H76.887M69.3132 47.3748V42.3786M76.887 47.3748H84.0757M76.887 47.3748V42.3786M84.0757 47.3748H93.0616M84.0757 47.3748V42.3786M93.0616 47.3748H100.635M93.0616 47.3748V42.3786M100.635 47.3748L103.46 42.3786M100.635 47.3748V42.3786M6.15533 42.3786H15.3979M6.15533 42.3786V39.0478M15.3979 42.3786H22.3299M15.3979 42.3786V39.0478M22.3299 42.3786H30.2888M22.3299 42.3786V39.0478M30.2888 42.3786H38.5045M30.2888 42.3786V39.0478M38.5045 42.3786H46.2067M38.5045 42.3786V39.0478M46.2067 42.3786H53.3954M46.2067 42.3786V39.0478M53.3954 42.3786H62.1245M53.3954 42.3786V39.0478M62.1245 42.3786H69.3132M62.1245 42.3786V39.0478M69.3132 42.3786H76.887M69.3132 42.3786V39.0478M76.887 42.3786H84.0757M76.887 42.3786V39.0478M84.0757 42.3786H93.0616M84.0757 42.3786V39.0478M93.0616 42.3786H100.635M93.0616 42.3786V39.0478M100.635 42.3786H103.46M100.635 42.3786V39.0478M103.46 42.3786L105 39.0478M6.15533 39.0478H15.3979M6.15533 39.0478V34.8203M15.3979 39.0478H22.3299M15.3979 39.0478V34.8203M22.3299 39.0478H30.2888M22.3299 39.0478V34.8203M30.2888 39.0478H38.5045M30.2888 39.0478V34.8203M38.5045 39.0478H46.2067M38.5045 39.0478V34.8203M46.2067 39.0478H53.3954M46.2067 39.0478V34.8203M53.3954 39.0478H62.1245M53.3954 39.0478V34.8203M62.1245 39.0478H69.3132M62.1245 39.0478V34.8203M69.3132 39.0478H76.887M69.3132 39.0478V34.8203M76.887 39.0478H84.0757M76.887 39.0478V34.8203M84.0757 39.0478H93.0616M84.0757 39.0478V34.8203M93.0616 39.0478H100.635M93.0616 39.0478V34.8203M100.635 39.0478H105M100.635 39.0478V34.8203M105 39.0478V34.8203M6.15533 34.8203H15.3979M6.15533 34.8203V30.9771M15.3979 34.8203H22.3299M15.3979 34.8203V30.9771M22.3299 34.8203H30.2888M22.3299 34.8203V30.9771M30.2888 34.8203H38.5045M30.2888 34.8203V30.9771M38.5045 34.8203H46.2067M38.5045 34.8203V30.9771M46.2067 34.8203H53.3954M46.2067 34.8203V30.9771M53.3954 34.8203H62.1245M53.3954 34.8203V30.9771M62.1245 34.8203H69.3132M62.1245 34.8203V30.9771M69.3132 34.8203H76.887M69.3132 34.8203V30.9771M76.887 34.8203H84.0757M76.887 34.8203V30.9771M84.0757 34.8203H93.0616M84.0757 34.8203V30.9771M93.0616 34.8203H100.635M93.0616 34.8203V30.9771M100.635 34.8203H105M100.635 34.8203V30.9771M105 34.8203V30.9771M6.15533 30.9771H15.3979M6.15533 30.9771V27.2619M15.3979 30.9771H22.3299M15.3979 30.9771V27.2619M22.3299 30.9771H30.2888M22.3299 30.9771V27.2619M30.2888 30.9771H38.5045M30.2888 30.9771V27.2619M38.5045 30.9771H46.2067M38.5045 30.9771V27.2619M46.2067 30.9771H53.3954M46.2067 30.9771V27.2619M53.3954 30.9771H62.1245M53.3954 30.9771V27.2619M62.1245 30.9771H69.3132M62.1245 30.9771V27.2619M69.3132 30.9771H76.887M69.3132 30.9771V27.2619M76.887 30.9771H84.0757M76.887 30.9771V27.2619M84.0757 30.9771H93.0616M84.0757 30.9771V27.2619M93.0616 30.9771H100.635M93.0616 30.9771V27.2619M100.635 30.9771H105M100.635 30.9771V27.2619M105 30.9771L103.973 27.2619M6.15533 27.2619H15.3979M6.15533 27.2619V24.6998M15.3979 27.2619H22.3299M15.3979 27.2619V24.6998M22.3299 27.2619H30.2888M22.3299 27.2619V24.6998M30.2888 27.2619H38.5045M30.2888 27.2619V24.6998M38.5045 27.2619H46.2067M38.5045 27.2619V24.6998M46.2067 27.2619H53.3954M46.2067 27.2619V24.6998M53.3954 27.2619H62.1245M53.3954 27.2619V24.6998M62.1245 27.2619H69.3132M62.1245 27.2619V24.6998M69.3132 27.2619H76.887M69.3132 27.2619V24.6998M76.887 27.2619H84.0757M76.887 27.2619V24.6998M84.0757 27.2619H93.0616M84.0757 27.2619V24.6998M93.0616 27.2619H100.635M93.0616 27.2619V24.6998M100.635 27.2619H103.973M100.635 27.2619V24.6998M103.973 27.2619L102.561 24.6998M6.15533 24.6998H15.3979M6.15533 24.6998V19.7036M15.3979 24.6998H22.3299M15.3979 24.6998V19.7036M22.3299 24.6998H30.2888M22.3299 24.6998V19.7036M30.2888 24.6998H38.5045M30.2888 24.6998V19.7036M38.5045 24.6998H46.2067M38.5045 24.6998V19.7036M46.2067 24.6998H53.3954M46.2067 24.6998V19.7036M53.3954 24.6998H62.1245M53.3954 24.6998V19.7036M62.1245 24.6998H69.3132M62.1245 24.6998V19.7036M69.3132 24.6998H76.887M69.3132 24.6998V19.7036M76.887 24.6998H84.0757M76.887 24.6998V19.7036M84.0757 24.6998H93.0616M84.0757 24.6998V19.7036M93.0616 24.6998H100.635M93.0616 24.6998V19.7036M100.635 24.6998H102.561M100.635 24.6998V21.369M102.561 24.6998L100.635 21.369M100.635 21.369L99.3517 19.7036M6.15533 19.7036H15.3979M6.15533 19.7036V15.348M15.3979 19.7036H22.3299M15.3979 19.7036V15.348M22.3299 19.7036H30.2888M22.3299 19.7036V15.348M30.2888 19.7036H38.5045M30.2888 19.7036V15.348M38.5045 19.7036H46.2067M38.5045 19.7036V15.348M46.2067 19.7036H53.3954M46.2067 19.7036V15.348M53.3954 19.7036H62.1245M53.3954 19.7036V15.348M62.1245 19.7036H69.3132M62.1245 19.7036V15.348M69.3132 19.7036H76.887M69.3132 19.7036V15.348M76.887 19.7036H84.0757M76.887 19.7036V15.348M84.0757 19.7036H93.0616M84.0757 19.7036V15.348M93.0616 19.7036H99.3517M93.0616 19.7036V15.348M99.3517 19.7036L96.656 15.348M6.15533 15.348H15.3979M6.15533 15.348V11.3767M15.3979 15.348H22.3299M15.3979 15.348V11.3767M22.3299 15.348H30.2888M22.3299 15.348V11.3767M30.2888 15.348H38.5045M30.2888 15.348V11.3767M38.5045 15.348H46.2067M38.5045 15.348V11.3767M46.2067 15.348H53.3954M46.2067 15.348V11.3767M53.3954 15.348H62.1245M53.3954 15.348V11.3767M62.1245 15.348H69.3132M62.1245 15.348V11.3767M69.3132 15.348H76.887M69.3132 15.348V11.3767M76.887 15.348H84.0757M76.887 15.348V11.3767M84.0757 15.348H93.0616M84.0757 15.348V11.3767M93.0616 15.348H96.656M93.0616 15.348V11.3767M96.656 15.348L93.9602 11.3767M6.15533 11.3767H15.3979M6.15533 11.3767V8.04589M15.3979 11.3767H22.3299M15.3979 11.3767V8.04589M22.3299 11.3767H30.2888M22.3299 11.3767V8.04589M30.2888 11.3767H38.5045M30.2888 11.3767V8.04589M38.5045 11.3767H46.2067M38.5045 11.3767V8.04589M46.2067 11.3767H53.3954M46.2067 11.3767V8.04589M53.3954 11.3767H62.1245M53.3954 11.3767V8.04589M62.1245 11.3767H69.3132M62.1245 11.3767V8.04589M69.3132 11.3767H76.887M69.3132 11.3767V8.04589M76.887 11.3767H84.0757M76.887 11.3767V8.04589M84.0757 11.3767H93.0616M84.0757 11.3767V8.04589M93.0616 11.3767H93.9602M93.0616 11.3767V10.4799M93.9602 11.3767L93.0616 10.4799M93.0616 10.4799L91.5212 8.04589M6.15533 8.04589H15.3979M6.15533 8.04589V4.84321M15.3979 8.04589H22.3299M15.3979 8.04589V4.84321M22.3299 8.04589H30.2888M22.3299 8.04589V4.84321M30.2888 8.04589H38.5045M30.2888 8.04589V4.84321M38.5045 8.04589H46.2067M38.5045 8.04589V4.84321M46.2067 8.04589H53.3954M46.2067 8.04589V4.84321M53.3954 8.04589H62.1245M53.3954 8.04589V4.84321M62.1245 8.04589H69.3132M62.1245 8.04589V4.84321M69.3132 8.04589H76.887M69.3132 8.04589V4.84321M76.887 8.04589H84.0757M76.887 8.04589V4.84321M84.0757 8.04589H91.5212M84.0757 8.04589V4.84321M91.5212 8.04589L89.3389 4.84321M6.15533 4.84321H15.3979M6.15533 4.84321V1M15.3979 4.84321H22.3299M15.3979 4.84321V1M22.3299 4.84321H30.2888M22.3299 4.84321V1M30.2888 4.84321H38.5045M30.2888 4.84321V1M38.5045 4.84321H46.2067M38.5045 4.84321V1M46.2067 4.84321H53.3954M46.2067 4.84321V1M53.3954 4.84321H62.1245M53.3954 4.84321V1M62.1245 4.84321H69.3132M62.1245 4.84321V1M69.3132 4.84321H76.887M69.3132 4.84321V1M76.887 4.84321H84.0757M76.887 4.84321V1M84.0757 4.84321H89.3389M84.0757 4.84321V1M89.3389 4.84321L86.6431 1H84.0757M84.0757 1H76.887M76.887 1H69.3132M69.3132 1H62.1245M62.1245 1H53.3954M53.3954 1H46.2067M46.2067 1H38.5045M38.5045 1H30.2888M30.2888 1H22.3299M22.3299 1H15.3979M15.3979 1H6.15533" stroke="black"/>
</g>
<defs>
<filter id="filter0_d_34_4" x="0.5" y="0.5" width="109" height="76" filterUnits="userSpaceOnUse" color-interpolation-filters="sRGB">
<feFlood flood-opacity="0" result="BackgroundImageFix"/>
<feColorMatrix in="SourceAlpha" type="matrix" values="0 0 0 0 0 0 0 0 0 0 0 0 0 0 0 0 0 0 127 0" result="hardAlpha"/>
<feOffset dy="4"/>
<feGaussianBlur stdDeviation="2"/>
<feComposite in2="hardAlpha" operator="out"/>
<feColorMatrix type="matrix" values="0 0 0 0 0 0 0 0 0 0 0 0 0 0 0 0 0 0 0.25 0"/>
<feBlend mode="normal" in2="BackgroundImageFix" result="effect1_dropShadow_34_4"/>
<feBlend mode="normal" in="SourceGraphic" in2="effect1_dropShadow_34_4" result="shape"/>
</filter>
</defs>
</svg>
