<svg width="110" height="77" viewBox="0 0 110 77" fill="none" xmlns="http://www.w3.org/2000/svg">
<g filter="url(#filter0_d_34_16)">
<path d="M5 1V4.84321V8.04589V11.3767V15.348V19.7036V24.6998V27.2619V30.9771V34.8203V39.0478V42.3786V47.3748V51.0899V54.1644V58.9044V62.7476V65.9503V68H6.15533H15.3979H22.3299H30.2888H38.5045H46.2067H53.3954H62.1245H69.3132H76.887H84.0757H86.8999L88.6971 65.9503L90.8793 62.7476L93.0616 58.9044L96.1425 54.1644L98.068 51.0899L100.635 47.3748L103.46 42.3786L105 39.0478V34.8203V30.9771L103.973 27.2619L102.561 24.6998L100.635 21.369L99.3517 19.7036L96.656 15.348L93.9602 11.3767L93.0616 10.4799L91.5212 8.04589L89.3389 4.84321L86.6431 1H84.0757H76.887H69.3132H62.1245H53.3954H46.2067H38.5045H30.2888H22.3299H15.3979H6.15533H5Z" fill="#D9D9D9"/>
<path d="M5 1V4.84321V8.04589V11.3767V15.348V19.7036V24.6998V27.2619V30.9771V34.8203V39.0478V42.3786V47.3748V51.0899V54.1644V58.9044V62.7476V65.9503V68H6.15533H15.3979H22.3299H30.2888H38.5045H46.2067H53.3954H62.1245H69.3132H76.887H84.0757H86.8999L88.6971 65.9503L90.8793 62.7476L93.0616 58.9044L96.1425 54.1644L98.068 51.0899L100.635 47.3748L103.46 42.3786L105 39.0478V34.8203V30.9771L103.973 27.2619L102.561 24.6998L100.635 21.369L99.3517 19.7036L96.656 15.348L93.9602 11.3767L93.0616 10.4799L91.5212 8.04589L89.3389 4.84321L86.6431 1H84.0757H76.887H69.3132H62.1245H53.3954H46.2067H38.5045H30.2888H22.3299H15.3979H6.15533H5Z" fill="#E96E2F"/>
<path d="M5 1V4.84321V8.04589V11.3767V15.348V19.7036V24.6998V27.2619V30.9771V34.8203V39.0478V42.3786V47.3748V51.0899V54.1644V58.9044V62.7476V65.9503V68H6.15533H15.3979H22.3299H30.2888H38.5045H46.2067H53.3954H62.1245H69.3132H76.887H84.0757H86.8999L88.6971 65.9503L90.8793 62.7476L93.0616 58.9044L96.1425 54.1644L98.068 51.0899L100.635 47.3748L103.46 42.3786L105 39.0478V34.8203V30.9771L103.973 27.2619L102.561 24.6998L100.635 21.369L99.3517 19.7036L96.656 15.348L93.9602 11.3767L93.0616 10.4799L91.5212 8.04589L89.3389 4.84321L86.6431 1H84.0757H76.887H69.3132H62.1245H53.3954H46.2067H38.5045H30.2888H22.3299H15.3979H6.15533H5Z" stroke="black"/>
</g>
<defs>
<filter id="filter0_d_34_16" x="0.5" y="0.5" width="109" height="76" filterUnits="userSpaceOnUse" color-interpolation-filters="sRGB">
<feFlood flood-opacity="0" result="BackgroundImageFix"/>
<feColorMatrix in="SourceAlpha" type="matrix" values="0 0 0 0 0 0 0 0 0 0 0 0 0 0 0 0 0 0 127 0" result="hardAlpha"/>
<feOffset dy="4"/>
<feGaussianBlur stdDeviation="2"/>
<feComposite in2="hardAlpha" operator="out"/>
<feColorMatrix type="matrix" values="0 0 0 0 0 0 0 0 0 0 0 0 0 0 0 0 0 0 0.25 0"/>
<feBlend mode="normal" in2="BackgroundImageFix" result="effect1_dropShadow_34_16"/>
<feBlend mode="normal" in="SourceGraphic" in2="effect1_dropShadow_34_16" result="shape"/>
</filter>
</defs>
</svg>
