<svg width="323" height="212" viewBox="0 0 323 212" fill="none" xmlns="http://www.w3.org/2000/svg">
<path d="M68.9232 2.35257L1 3.97877V37.7382L61.6013 26.836L68.9232 2.35257Z" fill="#D9D9D9"/>
<path d="M68.9232 2.35257L1 3.97877V37.7382L61.6013 26.836L68.9232 2.35257Z" fill="#A1C8E7"/>
<path d="M68.9232 2.35257L1 3.97877V37.7382L61.6013 26.836L68.9232 2.35257Z" fill="black" fill-opacity="0.2"/>
<path d="M57.7788 73.4405L54.3323 52.1356L59.7282 34.0922L1 44.6887V64.0507L57.7788 73.4405Z" fill="#D9D9D9"/>
<path d="M57.7788 73.4405L54.3323 52.1356L59.7282 34.0922L1 44.6887V64.0507L57.7788 73.4405Z" fill="#A1C8E7"/>
<path d="M57.7788 73.4405L54.3323 52.1356L59.7282 34.0922L1 44.6887V64.0507L57.7788 73.4405Z" fill="black" fill-opacity="0.2"/>
<path d="M58.769 79.5618L1 70.0083V140.754L66.8192 129.325L58.769 79.5618Z" fill="#D9D9D9"/>
<path d="M58.769 79.5618L1 70.0083V140.754L66.8192 129.325L58.769 79.5618Z" fill="#A1C8E7"/>
<path d="M58.769 79.5618L1 70.0083V140.754L66.8192 129.325L58.769 79.5618Z" fill="black" fill-opacity="0.2"/>
<path d="M65.1611 177.286L71.4389 157.882L67.6886 134.7L1 146.463V166.322L65.1611 177.286Z" fill="#D9D9D9"/>
<path d="M65.1611 177.286L71.4389 157.882L67.6886 134.7L1 146.463V166.322L65.1611 177.286Z" fill="#A1C8E7"/>
<path d="M65.1611 177.286L71.4389 157.882L67.6886 134.7L1 146.463V166.322L65.1611 177.286Z" fill="black" fill-opacity="0.2"/>
<path d="M1 211.5L54.3323 210.758L63.2764 183.112L1 171.783V211.5Z" fill="#D9D9D9"/>
<path d="M1 211.5L54.3323 210.758L63.2764 183.112L1 171.783V211.5Z" fill="#A1C8E7"/>
<path d="M1 211.5L54.3323 210.758L63.2764 183.112L1 171.783V211.5Z" fill="black" fill-opacity="0.2"/>
<path d="M59.8668 210.681L125.274 209.77L116.699 185.206L91.0611 188.166L68.9691 184.147L59.8668 210.681Z" fill="#D9D9D9"/>
<path d="M59.8668 210.681L125.274 209.77L116.699 185.206L91.0611 188.166L68.9691 184.147L59.8668 210.681Z" fill="#A1C8E7"/>
<path d="M59.8668 210.681L125.274 209.77L116.699 185.206L91.0611 188.166L68.9691 184.147L59.8668 210.681Z" fill="black" fill-opacity="0.2"/>
<path d="M73.8234 133.617L77.9796 157.882L70.9817 178.281L91.0611 181.712L114.589 179.16L107.161 157.882L110.783 132.509L91.0611 130.577L73.8234 133.617Z" fill="#D9D9D9"/>
<path d="M73.8234 133.617L77.9796 157.882L70.9817 178.281L91.0611 181.712L114.589 179.16L107.161 157.882L110.783 132.509L91.0611 130.577L73.8234 133.617Z" fill="#A1C8E7"/>
<path d="M73.8234 133.617L77.9796 157.882L70.9817 178.281L91.0611 181.712L114.589 179.16L107.161 157.882L110.783 132.509L91.0611 130.577L73.8234 133.617Z" fill="black" fill-opacity="0.2"/>
<path d="M122.255 52.1356L114.815 31.3799L89.0486 28.8019L65.9883 32.9627L59.8668 52.1356L63.6832 74.417L91.0611 78.9446L118.944 75.3347L122.255 52.1356Z" fill="#D9D9D9"/>
<path d="M122.255 52.1356L114.815 31.3799L89.0486 28.8019L65.9883 32.9627L59.8668 52.1356L63.6832 74.417L91.0611 78.9446L118.944 75.3347L122.255 52.1356Z" fill="#A1C8E7"/>
<path d="M122.255 52.1356L114.815 31.3799L89.0486 28.8019L65.9883 32.9627L59.8668 52.1356L63.6832 74.417L91.0611 78.9446L118.944 75.3347L122.255 52.1356Z" fill="black" fill-opacity="0.2"/>
<path fill-rule="evenodd" clip-rule="evenodd" d="M91.0611 84.9021L118.05 81.5968L111.541 127.198L91.0611 125.116L72.9071 128.268L64.7334 80.5482L91.0611 84.9021Z" fill="#D9D9D9"/>
<path fill-rule="evenodd" clip-rule="evenodd" d="M91.0611 84.9021L118.05 81.5968L111.541 127.198L91.0611 125.116L72.9071 128.268L64.7334 80.5482L91.0611 84.9021Z" fill="#A1C8E7"/>
<path fill-rule="evenodd" clip-rule="evenodd" d="M91.0611 84.9021L118.05 81.5968L111.541 127.198L91.0611 125.116L72.9071 128.268L64.7334 80.5482L91.0611 84.9021Z" fill="black" fill-opacity="0.2"/>
<path d="M123.962 80.8729L117.706 127.825L194.707 135.654V130.577H210.382L198.622 71.7294L123.962 80.8729Z" fill="#D9D9D9"/>
<path d="M123.962 80.8729L117.706 127.825L194.707 135.654V130.577H210.382L198.622 71.7294L123.962 80.8729Z" fill="#A1C8E7"/>
<path d="M123.962 80.8729L117.706 127.825L194.707 135.654V130.577H210.382L198.622 71.7294L123.962 80.8729Z" fill="black" fill-opacity="0.2"/>
<path d="M113.702 157.882L120.321 178.538L194.707 170.47V140.731L117.001 133.118L113.702 157.882Z" fill="#D9D9D9"/>
<path d="M113.702 157.882L120.321 178.538L194.707 170.47V140.731L117.001 133.118L113.702 157.882Z" fill="#A1C8E7"/>
<path d="M113.702 157.882L120.321 178.538L194.707 170.47V140.731L117.001 133.118L113.702 157.882Z" fill="black" fill-opacity="0.2"/>
<path d="M130.306 209.7L197.223 208.769L202.217 195.117H194.707V176.198L122.252 184.565L130.306 209.7Z" fill="#D9D9D9"/>
<path d="M130.306 209.7L197.223 208.769L202.217 195.117H194.707V176.198L122.252 184.565L130.306 209.7Z" fill="#A1C8E7"/>
<path d="M130.306 209.7L197.223 208.769L202.217 195.117H194.707V176.198L122.252 184.565L130.306 209.7Z" fill="black" fill-opacity="0.2"/>
<path d="M201.751 208.706L267.158 207.795L262.941 195.117H206.594L201.751 208.706Z" fill="#D9D9D9"/>
<path d="M201.751 208.706L267.158 207.795L262.941 195.117H206.594L201.751 208.706Z" fill="#A1C8E7"/>
<path d="M201.751 208.706L267.158 207.795L262.941 195.117H206.594L201.751 208.706Z" fill="black" fill-opacity="0.2"/>
<path d="M272.19 207.725L322 207.032L321.833 184.195L284.403 178.968L274.705 195.117H268.499L272.19 207.725Z" fill="#D9D9D9"/>
<path d="M272.19 207.725L322 207.032L321.833 184.195L284.403 178.968L274.705 195.117H268.499L272.19 207.725Z" fill="#A1C8E7"/>
<path d="M272.19 207.725L322 207.032L321.833 184.195L284.403 178.968L274.705 195.117H268.499L272.19 207.725Z" fill="black" fill-opacity="0.2"/>
<path d="M290.806 156.393V168.308L287.437 173.916L321.792 178.705L321.414 127.101L277.872 135.654L290.806 156.393Z" fill="#D9D9D9"/>
<path d="M290.806 156.393V168.308L287.437 173.916L321.792 178.705L321.414 127.101L277.872 135.654L290.806 156.393Z" fill="#A1C8E7"/>
<path d="M290.806 156.393V168.308L287.437 173.916L321.792 178.705L321.414 127.101L277.872 135.654L290.806 156.393Z" fill="black" fill-opacity="0.2"/>
<path d="M266.298 36.1495L272.19 52.1356L270.101 67.2757L321.043 76.4623L320.664 24.6582L266.298 36.1495Z" fill="#D9D9D9"/>
<path d="M266.298 36.1495L272.19 52.1356L270.101 67.2757L321.043 76.4623L320.664 24.6582L266.298 36.1495Z" fill="#A1C8E7"/>
<path d="M266.298 36.1495L272.19 52.1356L270.101 67.2757L321.043 76.4623L320.664 24.6582L266.298 36.1495Z" fill="black" fill-opacity="0.2"/>
<path d="M204.974 70.9515L215.187 130.577H254.193L261.961 72.2657L232.945 67.5259L204.974 70.9515Z" fill="#D9D9D9"/>
<path d="M204.974 70.9515L215.187 130.577H254.193L261.961 72.2657L232.945 67.5259L204.974 70.9515Z" fill="#A1C8E7"/>
<path d="M204.974 70.9515L215.187 130.577H254.193L261.961 72.2657L232.945 67.5259L204.974 70.9515Z" fill="black" fill-opacity="0.2"/>
<path d="M321.367 120.647L321.083 81.9233L269.248 73.456L261.366 130.577H274.705L321.367 120.647Z" fill="#D9D9D9"/>
<path d="M321.367 120.647L321.083 81.9233L269.248 73.456L261.366 130.577H274.705L321.367 120.647Z" fill="#A1C8E7"/>
<path d="M321.367 120.647L321.083 81.9233L269.248 73.456L261.366 130.577H274.705L321.367 120.647Z" fill="black" fill-opacity="0.2"/>
<path d="M205.045 40.4077L201.751 52.1356L203.842 64.3434L232.945 60.5755L262.801 65.9594L264.643 52.1356L259.832 37.5162L232.945 43.1993L205.045 40.4077Z" fill="#D9D9D9"/>
<path d="M205.045 40.4077L201.751 52.1356L203.842 64.3434L232.945 60.5755L262.801 65.9594L264.643 52.1356L259.832 37.5162L232.945 43.1993L205.045 40.4077Z" fill="#A1C8E7"/>
<path d="M205.045 40.4077L201.751 52.1356L203.842 64.3434L232.945 60.5755L262.801 65.9594L264.643 52.1356L259.832 37.5162L232.945 43.1993L205.045 40.4077Z" fill="black" fill-opacity="0.2"/>
<path d="M320.491 1L253.574 1.6239L264.123 30.2467L320.625 19.3691L320.491 1Z" fill="#D9D9D9"/>
<path d="M320.491 1L253.574 1.6239L264.123 30.2467L320.625 19.3691L320.491 1Z" fill="#A1C8E7"/>
<path d="M320.491 1L253.574 1.6239L264.123 30.2467L320.625 19.3691L320.491 1Z" fill="black" fill-opacity="0.2"/>
<path d="M248.039 1.6755L215.839 1.97572L206.87 33.9098L232.945 36.2488L257.838 31.4565L248.039 1.6755Z" fill="#D9D9D9"/>
<path d="M248.039 1.6755L215.839 1.97572L206.87 33.9098L232.945 36.2488L257.838 31.4565L248.039 1.6755Z" fill="#A1C8E7"/>
<path d="M248.039 1.6755L215.839 1.97572L206.87 33.9098L232.945 36.2488L257.838 31.4565L248.039 1.6755Z" fill="black" fill-opacity="0.2"/>
<path d="M110.683 2.95614L118.699 26.0006L200.922 33.3762L211.31 2.01794L110.683 2.95614Z" fill="#D9D9D9"/>
<path d="M110.683 2.95614L118.699 26.0006L200.922 33.3762L211.31 2.01794L110.683 2.95614Z" fill="#A1C8E7"/>
<path d="M110.683 2.95614L118.699 26.0006L200.922 33.3762L211.31 2.01794L110.683 2.95614Z" fill="black" fill-opacity="0.2"/>
<path d="M104.646 3.01243L75.4639 2.29158L67.9594 25.7963L89.0486 23.3408L112.693 25.4618L104.646 3.01243Z" fill="#D9D9D9"/>
<path d="M104.646 3.01243L75.4639 2.29158L67.9594 25.7963L89.0486 23.3408L112.693 25.4618L104.646 3.01243Z" fill="#A1C8E7"/>
<path d="M104.646 3.01243L75.4639 2.29158L67.9594 25.7963L89.0486 23.3408L112.693 25.4618L104.646 3.01243Z" fill="black" fill-opacity="0.2"/>
<path d="M197.315 65.1883L194.707 52.1356L198.799 39.7829L120.778 31.9765L127.79 52.1356L124.8 74.5765L197.315 65.1883Z" fill="#D9D9D9"/>
<path d="M197.315 65.1883L194.707 52.1356L198.799 39.7829L120.778 31.9765L127.79 52.1356L124.8 74.5765L197.315 65.1883Z" fill="#A1C8E7"/>
<path d="M197.315 65.1883L194.707 52.1356L198.799 39.7829L120.778 31.9765L127.79 52.1356L124.8 74.5765L197.315 65.1883Z" fill="black" fill-opacity="0.2"/>
<path fill-rule="evenodd" clip-rule="evenodd" d="M54.3323 210.758L59.8668 210.681L68.9691 184.147L91.0611 188.166L116.699 185.206L125.274 209.77L130.306 209.7L122.252 184.565L194.707 176.198V170.47L120.321 178.538L113.702 157.882L117.001 133.118L194.707 140.731V135.654L117.706 127.825L123.962 80.8729L198.622 71.7294L210.382 130.577H215.187L204.974 70.9515L232.945 67.5259L261.961 72.2657L254.193 130.577H261.366L269.248 73.456L321.083 81.9233L321.043 76.4623L270.101 67.2757L272.19 52.1356L266.298 36.1495L320.664 24.6582L320.625 19.3691L264.123 30.2467L253.574 1.6239L248.039 1.6755L257.838 31.4565L232.945 36.2488L206.87 33.9098L215.839 1.97572L211.31 2.01794L200.922 33.3762L118.699 26.0006L110.683 2.95614L104.646 3.01243L112.693 25.4618L89.0486 23.3408L67.9594 25.7963L75.4639 2.29158L68.9232 2.35257L61.6013 26.836L1 37.7382V44.6887L59.7282 34.0922L54.3323 52.1356L57.7788 73.4405L1 64.0507V70.0083L58.769 79.5618L66.8192 129.325L1 140.754V146.463L67.6886 134.7L71.4389 157.882L65.1611 177.286L1 166.322V171.783L63.2764 183.112L54.3323 210.758ZM65.9883 32.9627L89.0486 28.8019L114.815 31.3799L122.255 52.1356L118.944 75.3347L91.0611 78.9446L63.6832 74.417L59.8668 52.1356L65.9883 32.9627ZM77.9796 157.882L73.8234 133.617L91.0611 130.577L110.783 132.509L107.161 157.882L114.589 179.16L91.0611 181.712L70.9817 178.281L77.9796 157.882ZM91.0611 84.9021L118.05 81.5968L111.541 127.198L91.0611 125.116L72.9071 128.268L64.7334 80.5482L91.0611 84.9021ZM201.751 52.1356L205.045 40.4077L232.945 43.1993L259.832 37.5162L264.643 52.1356L262.801 65.9594L232.945 60.5755L203.842 64.3434L201.751 52.1356ZM194.707 52.1356L197.315 65.1883L124.8 74.5765L127.79 52.1356L120.778 31.9765L198.799 39.7829L194.707 52.1356Z" fill="#D9D9D9"/>
<path fill-rule="evenodd" clip-rule="evenodd" d="M54.3323 210.758L59.8668 210.681L68.9691 184.147L91.0611 188.166L116.699 185.206L125.274 209.77L130.306 209.7L122.252 184.565L194.707 176.198V170.47L120.321 178.538L113.702 157.882L117.001 133.118L194.707 140.731V135.654L117.706 127.825L123.962 80.8729L198.622 71.7294L210.382 130.577H215.187L204.974 70.9515L232.945 67.5259L261.961 72.2657L254.193 130.577H261.366L269.248 73.456L321.083 81.9233L321.043 76.4623L270.101 67.2757L272.19 52.1356L266.298 36.1495L320.664 24.6582L320.625 19.3691L264.123 30.2467L253.574 1.6239L248.039 1.6755L257.838 31.4565L232.945 36.2488L206.87 33.9098L215.839 1.97572L211.31 2.01794L200.922 33.3762L118.699 26.0006L110.683 2.95614L104.646 3.01243L112.693 25.4618L89.0486 23.3408L67.9594 25.7963L75.4639 2.29158L68.9232 2.35257L61.6013 26.836L1 37.7382V44.6887L59.7282 34.0922L54.3323 52.1356L57.7788 73.4405L1 64.0507V70.0083L58.769 79.5618L66.8192 129.325L1 140.754V146.463L67.6886 134.7L71.4389 157.882L65.1611 177.286L1 166.322V171.783L63.2764 183.112L54.3323 210.758ZM65.9883 32.9627L89.0486 28.8019L114.815 31.3799L122.255 52.1356L118.944 75.3347L91.0611 78.9446L63.6832 74.417L59.8668 52.1356L65.9883 32.9627ZM77.9796 157.882L73.8234 133.617L91.0611 130.577L110.783 132.509L107.161 157.882L114.589 179.16L91.0611 181.712L70.9817 178.281L77.9796 157.882ZM91.0611 84.9021L118.05 81.5968L111.541 127.198L91.0611 125.116L72.9071 128.268L64.7334 80.5482L91.0611 84.9021ZM201.751 52.1356L205.045 40.4077L232.945 43.1993L259.832 37.5162L264.643 52.1356L262.801 65.9594L232.945 60.5755L203.842 64.3434L201.751 52.1356ZM194.707 52.1356L197.315 65.1883L124.8 74.5765L127.79 52.1356L120.778 31.9765L198.799 39.7829L194.707 52.1356Z" fill="#A1C8E7"/>
<path fill-rule="evenodd" clip-rule="evenodd" d="M54.3323 210.758L59.8668 210.681L68.9691 184.147L91.0611 188.166L116.699 185.206L125.274 209.77L130.306 209.7L122.252 184.565L194.707 176.198V170.47L120.321 178.538L113.702 157.882L117.001 133.118L194.707 140.731V135.654L117.706 127.825L123.962 80.8729L198.622 71.7294L210.382 130.577H215.187L204.974 70.9515L232.945 67.5259L261.961 72.2657L254.193 130.577H261.366L269.248 73.456L321.083 81.9233L321.043 76.4623L270.101 67.2757L272.19 52.1356L266.298 36.1495L320.664 24.6582L320.625 19.3691L264.123 30.2467L253.574 1.6239L248.039 1.6755L257.838 31.4565L232.945 36.2488L206.87 33.9098L215.839 1.97572L211.31 2.01794L200.922 33.3762L118.699 26.0006L110.683 2.95614L104.646 3.01243L112.693 25.4618L89.0486 23.3408L67.9594 25.7963L75.4639 2.29158L68.9232 2.35257L61.6013 26.836L1 37.7382V44.6887L59.7282 34.0922L54.3323 52.1356L57.7788 73.4405L1 64.0507V70.0083L58.769 79.5618L66.8192 129.325L1 140.754V146.463L67.6886 134.7L71.4389 157.882L65.1611 177.286L1 166.322V171.783L63.2764 183.112L54.3323 210.758ZM65.9883 32.9627L89.0486 28.8019L114.815 31.3799L122.255 52.1356L118.944 75.3347L91.0611 78.9446L63.6832 74.417L59.8668 52.1356L65.9883 32.9627ZM77.9796 157.882L73.8234 133.617L91.0611 130.577L110.783 132.509L107.161 157.882L114.589 179.16L91.0611 181.712L70.9817 178.281L77.9796 157.882ZM91.0611 84.9021L118.05 81.5968L111.541 127.198L91.0611 125.116L72.9071 128.268L64.7334 80.5482L91.0611 84.9021ZM201.751 52.1356L205.045 40.4077L232.945 43.1993L259.832 37.5162L264.643 52.1356L262.801 65.9594L232.945 60.5755L203.842 64.3434L201.751 52.1356ZM194.707 52.1356L197.315 65.1883L124.8 74.5765L127.79 52.1356L120.778 31.9765L198.799 39.7829L194.707 52.1356Z" fill="black" fill-opacity="0.2"/>
<path fill-rule="evenodd" clip-rule="evenodd" d="M54.3323 210.758L59.8668 210.681L68.9691 184.147L91.0611 188.166L116.699 185.206L125.274 209.77L130.306 209.7L122.252 184.565L194.707 176.198V170.47L120.321 178.538L113.702 157.882L117.001 133.118L194.707 140.731V135.654L117.706 127.825L123.962 80.8729L198.622 71.7294L210.382 130.577H215.187L204.974 70.9515L232.945 67.5259L261.961 72.2657L254.193 130.577H261.366L269.248 73.456L321.083 81.9233L321.043 76.4623L270.101 67.2757L272.19 52.1356L266.298 36.1495L320.664 24.6582L320.625 19.3691L264.123 30.2467L253.574 1.6239L248.039 1.6755L257.838 31.4565L232.945 36.2488L206.87 33.9098L215.839 1.97572L211.31 2.01794L200.922 33.3762L118.699 26.0006L110.683 2.95614L104.646 3.01243L112.693 25.4618L89.0486 23.3408L67.9594 25.7963L75.4639 2.29158L68.9232 2.35257L61.6013 26.836L1 37.7382V44.6887L59.7282 34.0922L54.3323 52.1356L57.7788 73.4405L1 64.0507V70.0083L58.769 79.5618L66.8192 129.325L1 140.754V146.463L67.6886 134.7L71.4389 157.882L65.1611 177.286L1 166.322V171.783L63.2764 183.112L54.3323 210.758ZM65.9883 32.9627L89.0486 28.8019L114.815 31.3799L122.255 52.1356L118.944 75.3347L91.0611 78.9446L63.6832 74.417L59.8668 52.1356L65.9883 32.9627ZM77.9796 157.882L73.8234 133.617L91.0611 130.577L110.783 132.509L107.161 157.882L114.589 179.16L91.0611 181.712L70.9817 178.281L77.9796 157.882ZM91.0611 84.9021L118.05 81.5968L111.541 127.198L91.0611 125.116L72.9071 128.268L64.7334 80.5482L91.0611 84.9021ZM201.751 52.1356L205.045 40.4077L232.945 43.1993L259.832 37.5162L264.643 52.1356L262.801 65.9594L232.945 60.5755L203.842 64.3434L201.751 52.1356ZM194.707 52.1356L197.315 65.1883L124.8 74.5765L127.79 52.1356L120.778 31.9765L198.799 39.7829L194.707 52.1356Z" fill="#102D55"/>
<path d="M321.414 127.101L321.367 120.647L274.705 130.577L277.872 135.654L321.414 127.101Z" fill="#D9D9D9"/>
<path d="M321.414 127.101L321.367 120.647L274.705 130.577L277.872 135.654L321.414 127.101Z" fill="#A1C8E7"/>
<path d="M321.414 127.101L321.367 120.647L274.705 130.577L277.872 135.654L321.414 127.101Z" fill="black" fill-opacity="0.2"/>
<path d="M321.414 127.101L321.367 120.647L274.705 130.577L277.872 135.654L321.414 127.101Z" fill="#102D55"/>
<path d="M287.437 173.916L284.403 178.968L321.833 184.195L321.792 178.705L287.437 173.916Z" fill="#D9D9D9"/>
<path d="M287.437 173.916L284.403 178.968L321.833 184.195L321.792 178.705L287.437 173.916Z" fill="#A1C8E7"/>
<path d="M287.437 173.916L284.403 178.968L321.833 184.195L321.792 178.705L287.437 173.916Z" fill="black" fill-opacity="0.2"/>
<path d="M287.437 173.916L284.403 178.968L321.833 184.195L321.792 178.705L287.437 173.916Z" fill="#102D55"/>
<path d="M267.158 207.795L272.19 207.725L268.499 195.117H262.941L267.158 207.795Z" fill="#D9D9D9"/>
<path d="M267.158 207.795L272.19 207.725L268.499 195.117H262.941L267.158 207.795Z" fill="#A1C8E7"/>
<path d="M267.158 207.795L272.19 207.725L268.499 195.117H262.941L267.158 207.795Z" fill="black" fill-opacity="0.2"/>
<path d="M267.158 207.795L272.19 207.725L268.499 195.117H262.941L267.158 207.795Z" fill="#102D55"/>
<path d="M197.223 208.769L201.751 208.706L206.594 195.117H202.217L197.223 208.769Z" fill="#D9D9D9"/>
<path d="M197.223 208.769L201.751 208.706L206.594 195.117H202.217L197.223 208.769Z" fill="#A1C8E7"/>
<path d="M197.223 208.769L201.751 208.706L206.594 195.117H202.217L197.223 208.769Z" fill="black" fill-opacity="0.2"/>
<path d="M197.223 208.769L201.751 208.706L206.594 195.117H202.217L197.223 208.769Z" fill="#102D55"/>
<path d="M274.705 130.577H261.366M274.705 130.577L277.872 135.654M274.705 130.577L321.367 120.647M68.9232 2.35257L1 3.97877V37.7382M68.9232 2.35257L75.4639 2.29158M68.9232 2.35257L61.6013 26.836L1 37.7382M54.3323 210.758L1 211.5V171.783M54.3323 210.758L59.8668 210.681M54.3323 210.758L63.2764 183.112L1 171.783M59.8668 210.681L125.274 209.77M59.8668 210.681L68.9691 184.147L91.0611 188.166L116.699 185.206L125.274 209.77M75.4639 2.29158L104.646 3.01243M75.4639 2.29158L67.9594 25.7963L89.0486 23.3408L112.693 25.4618L104.646 3.01243M104.646 3.01243L110.683 2.95614M125.274 209.77L130.306 209.7M130.306 209.7L197.223 208.769M130.306 209.7L122.252 184.565L194.707 176.198M110.683 2.95614L211.31 2.01794M110.683 2.95614L118.699 26.0006L200.922 33.3762L211.31 2.01794M211.31 2.01794L215.839 1.97572M197.223 208.769L201.751 208.706M197.223 208.769L202.217 195.117M201.751 208.706L267.158 207.795M201.751 208.706L206.594 195.117M215.839 1.97572L248.039 1.6755M215.839 1.97572L206.87 33.9098L232.945 36.2488L257.838 31.4565L248.039 1.6755M248.039 1.6755L253.574 1.6239M267.158 207.795L272.19 207.725M267.158 207.795L262.941 195.117M272.19 207.725L322 207.032L321.833 184.195M272.19 207.725L268.499 195.117M253.574 1.6239L320.491 1L320.625 19.3691M253.574 1.6239L264.123 30.2467L320.625 19.3691M1 37.7382V44.6887M320.625 19.3691L320.664 24.6582M320.664 24.6582L321.043 76.4623M320.664 24.6582L266.298 36.1495L272.19 52.1356L270.101 67.2757L321.043 76.4623M1 44.6887V64.0507M1 44.6887L59.7282 34.0922L54.3323 52.1356L57.7788 73.4405L1 64.0507M1 64.0507V70.0083M321.043 76.4623L321.083 81.9233M321.083 81.9233L321.367 120.647M321.083 81.9233L269.248 73.456L261.366 130.577M1 70.0083V140.754M1 70.0083L58.769 79.5618L66.8192 129.325L1 140.754M1 140.754V146.463M321.367 120.647L321.414 127.101M321.414 127.101L277.872 135.654M321.414 127.101L321.792 178.705M1 146.463V166.322M1 146.463L67.6886 134.7L71.4389 157.882L65.1611 177.286L1 166.322M1 166.322V171.783M321.833 184.195L322 178.733L321.792 178.705M321.833 184.195L284.403 178.968M321.833 184.195L321.792 178.705M210.382 130.577H194.707V135.654M210.382 130.577H215.187M210.382 130.577L198.622 71.7294L123.962 80.8729L117.706 127.825L194.707 135.654M215.187 130.577H254.193M215.187 130.577L204.974 70.9515L232.945 67.5259L261.961 72.2657L254.193 130.577M254.193 130.577H261.366M277.872 135.654L290.806 156.393V168.308L287.437 173.916M287.437 173.916L284.403 178.968M287.437 173.916L321.792 178.705M284.403 178.968L274.705 195.117H268.499M268.499 195.117H262.941M262.941 195.117H206.594M206.594 195.117H202.217M202.217 195.117H194.707V176.198M194.707 176.198V170.47M194.707 170.47V140.731M194.707 170.47L120.321 178.538L113.702 157.882L117.001 133.118L194.707 140.731M194.707 140.731V135.654M77.9796 157.882L73.8234 133.617L91.0611 130.577L110.783 132.509L107.161 157.882L114.589 179.16L91.0611 181.712L70.9817 178.281L77.9796 157.882ZM59.8668 52.1356L65.9883 32.9627L89.0486 28.8019L114.815 31.3799L122.255 52.1356L118.944 75.3347L91.0611 78.9446L63.6832 74.417L59.8668 52.1356ZM127.79 52.1356L120.778 31.9765L198.799 39.7829L194.707 52.1356L197.315 65.1883L124.8 74.5765L127.79 52.1356ZM201.751 52.1356L205.045 40.4077L232.945 43.1993L259.832 37.5162L264.643 52.1356L262.801 65.9594L232.945 60.5755L203.842 64.3434L201.751 52.1356ZM91.0611 84.9021L118.05 81.5968L111.541 127.198L91.0611 125.116L72.9071 128.268L64.7334 80.5482L91.0611 84.9021Z" stroke="black"/>
<path d="M274.705 130.577H261.366M274.705 130.577L277.872 135.654M274.705 130.577L321.367 120.647M68.9232 2.35257L1 3.97877V37.7382M68.9232 2.35257L75.4639 2.29158M68.9232 2.35257L61.6013 26.836L1 37.7382M54.3323 210.758L1 211.5V171.783M54.3323 210.758L59.8668 210.681M54.3323 210.758L63.2764 183.112L1 171.783M59.8668 210.681L125.274 209.77M59.8668 210.681L68.9691 184.147L91.0611 188.166L116.699 185.206L125.274 209.77M75.4639 2.29158L104.646 3.01243M75.4639 2.29158L67.9594 25.7963L89.0486 23.3408L112.693 25.4618L104.646 3.01243M104.646 3.01243L110.683 2.95614M125.274 209.77L130.306 209.7M130.306 209.7L197.223 208.769M130.306 209.7L122.252 184.565L194.707 176.198M110.683 2.95614L211.31 2.01794M110.683 2.95614L118.699 26.0006L200.922 33.3762L211.31 2.01794M211.31 2.01794L215.839 1.97572M197.223 208.769L201.751 208.706M197.223 208.769L202.217 195.117M201.751 208.706L267.158 207.795M201.751 208.706L206.594 195.117M215.839 1.97572L248.039 1.6755M215.839 1.97572L206.87 33.9098L232.945 36.2488L257.838 31.4565L248.039 1.6755M248.039 1.6755L253.574 1.6239M267.158 207.795L272.19 207.725M267.158 207.795L262.941 195.117M272.19 207.725L322 207.032L321.833 184.195M272.19 207.725L268.499 195.117M253.574 1.6239L320.491 1L320.625 19.3691M253.574 1.6239L264.123 30.2467L320.625 19.3691M1 37.7382V44.6887M320.625 19.3691L320.664 24.6582M320.664 24.6582L321.043 76.4623M320.664 24.6582L266.298 36.1495L272.19 52.1356L270.101 67.2757L321.043 76.4623M1 44.6887V64.0507M1 44.6887L59.7282 34.0922L54.3323 52.1356L57.7788 73.4405L1 64.0507M1 64.0507V70.0083M321.043 76.4623L321.083 81.9233M321.083 81.9233L321.367 120.647M321.083 81.9233L269.248 73.456L261.366 130.577M1 70.0083V140.754M1 70.0083L58.769 79.5618L66.8192 129.325L1 140.754M1 140.754V146.463M321.367 120.647L321.414 127.101M321.414 127.101L277.872 135.654M321.414 127.101L321.792 178.705M1 146.463V166.322M1 146.463L67.6886 134.7L71.4389 157.882L65.1611 177.286L1 166.322M1 166.322V171.783M321.833 184.195L322 178.733L321.792 178.705M321.833 184.195L284.403 178.968M321.833 184.195L321.792 178.705M210.382 130.577H194.707V135.654M210.382 130.577H215.187M210.382 130.577L198.622 71.7294L123.962 80.8729L117.706 127.825L194.707 135.654M215.187 130.577H254.193M215.187 130.577L204.974 70.9515L232.945 67.5259L261.961 72.2657L254.193 130.577M254.193 130.577H261.366M277.872 135.654L290.806 156.393V168.308L287.437 173.916M287.437 173.916L284.403 178.968M287.437 173.916L321.792 178.705M284.403 178.968L274.705 195.117H268.499M268.499 195.117H262.941M262.941 195.117H206.594M206.594 195.117H202.217M202.217 195.117H194.707V176.198M194.707 176.198V170.47M194.707 170.47V140.731M194.707 170.47L120.321 178.538L113.702 157.882L117.001 133.118L194.707 140.731M194.707 140.731V135.654M77.9796 157.882L73.8234 133.617L91.0611 130.577L110.783 132.509L107.161 157.882L114.589 179.16L91.0611 181.712L70.9817 178.281L77.9796 157.882ZM59.8668 52.1356L65.9883 32.9627L89.0486 28.8019L114.815 31.3799L122.255 52.1356L118.944 75.3347L91.0611 78.9446L63.6832 74.417L59.8668 52.1356ZM127.79 52.1356L120.778 31.9765L198.799 39.7829L194.707 52.1356L197.315 65.1883L124.8 74.5765L127.79 52.1356ZM201.751 52.1356L205.045 40.4077L232.945 43.1993L259.832 37.5162L264.643 52.1356L262.801 65.9594L232.945 60.5755L203.842 64.3434L201.751 52.1356ZM91.0611 84.9021L118.05 81.5968L111.541 127.198L91.0611 125.116L72.9071 128.268L64.7334 80.5482L91.0611 84.9021Z" stroke="#102D55"/>
</svg>
