<svg width="99" height="68" viewBox="0 0 99 68" fill="none" xmlns="http://www.w3.org/2000/svg">
<path d="M12.9983 67H69.8739L63.1324 46.4679L39.5969 43.1385L20.6108 45.3595L12.9983 67Z" fill="#D9D9D9"/>
<path d="M12.9983 67H69.8739L63.1324 46.4679L39.5969 43.1385L20.6108 45.3595L12.9983 67Z" fill="#A1C8E7"/>
<path d="M12.9983 67H69.8739L63.1324 46.4679L39.5969 43.1385L20.6108 45.3595L12.9983 67Z" fill="black" fill-opacity="0.2"/>
<path d="M1 47.6537V67H8.58042L16.2088 45.8745L1 47.6537Z" fill="#D9D9D9"/>
<path d="M1 47.6537V67H8.58042L16.2088 45.8745L1 47.6537Z" fill="#A1C8E7"/>
<path d="M1 47.6537V67H8.58042L16.2088 45.8745L1 47.6537Z" fill="black" fill-opacity="0.2"/>
<path d="M1 11.3843V41.7954L18.371 39.8864L22.3298 28.9231L19.2272 13.1935L1 11.3843Z" fill="#D9D9D9"/>
<path d="M1 11.3843V41.7954L18.371 39.8864L22.3298 28.9231L19.2272 13.1935L1 11.3843Z" fill="#A1C8E7"/>
<path d="M1 11.3843V41.7954L18.371 39.8864L22.3298 28.9231L19.2272 13.1935L1 11.3843Z" fill="black" fill-opacity="0.2"/>
<path d="M61.0435 1H21.6718L22.8499 7.9685L39.5969 9.63077L60.4868 5.23411L61.0435 1Z" fill="#D9D9D9"/>
<path d="M61.0435 1H21.6718L22.8499 7.9685L39.5969 9.63077L60.4868 5.23411L61.0435 1Z" fill="#A1C8E7"/>
<path d="M61.0435 1H21.6718L22.8499 7.9685L39.5969 9.63077L60.4868 5.23411L61.0435 1Z" fill="black" fill-opacity="0.2"/>
<path d="M1 1V5.79968L18.1037 7.49737L16.8221 1H1Z" fill="#D9D9D9"/>
<path d="M1 1V5.79968L18.1037 7.49737L16.8221 1H1Z" fill="#A1C8E7"/>
<path d="M1 1V5.79968L18.1037 7.49737L16.8221 1H1Z" fill="black" fill-opacity="0.2"/>
<path d="M94.6001 45.3202L98 39.5846V27.4L84.9447 6.19182L67.0937 9.7439L64.4817 28.9231L68.1401 41.5841L94.6001 45.3202Z" fill="#D9D9D9"/>
<path d="M94.6001 45.3202L98 39.5846V27.4L84.9447 6.19182L67.0937 9.7439L64.4817 28.9231L68.1401 41.5841L94.6001 45.3202Z" fill="#A1C8E7"/>
<path d="M94.6001 45.3202L98 39.5846V27.4L84.9447 6.19182L67.0937 9.7439L64.4817 28.9231L68.1401 41.5841L94.6001 45.3202Z" fill="black" fill-opacity="0.2"/>
<path d="M75.4838 67H81.7487L91.5378 50.4862L69.8247 47.4146L75.4838 67Z" fill="#D9D9D9"/>
<path d="M75.4838 67H81.7487L91.5378 50.4862L69.8247 47.4146L75.4838 67Z" fill="#A1C8E7"/>
<path d="M75.4838 67H81.7487L91.5378 50.4862L69.8247 47.4146L75.4838 67Z" fill="black" fill-opacity="0.2"/>
<path d="M80.6042 1H68.2846L67.9211 3.66941L80.6042 1Z" fill="#D9D9D9"/>
<path d="M80.6042 1H68.2846L67.9211 3.66941L80.6042 1Z" fill="#A1C8E7"/>
<path d="M80.6042 1H68.2846L67.9211 3.66941L80.6042 1Z" fill="black" fill-opacity="0.2"/>
<path d="M22.7035 39.4103L26.3927 28.9231L23.8102 13.6484L39.5969 15.2154L59.7003 11.2151L57.3717 28.9231L61.2074 40.6052L39.5969 37.5538L22.7035 39.4103Z" fill="#D9D9D9"/>
<path d="M22.7035 39.4103L26.3927 28.9231L23.8102 13.6484L39.5969 15.2154L59.7003 11.2151L57.3717 28.9231L61.2074 40.6052L39.5969 37.5538L22.7035 39.4103Z" fill="#A1C8E7"/>
<path d="M22.7035 39.4103L26.3927 28.9231L23.8102 13.6484L39.5969 15.2154L59.7003 11.2151L57.3717 28.9231L61.2074 40.6052L39.5969 37.5538L22.7035 39.4103Z" fill="black" fill-opacity="0.2"/>
<path fill-rule="evenodd" clip-rule="evenodd" d="M1 5.79968V11.3843L19.2272 13.1935L22.3298 28.9231L18.371 39.8864L1 41.7954V47.6537L16.2088 45.8745L8.58042 67H12.9983L20.6108 45.3595L39.5969 43.1385L63.1324 46.4679L69.8739 67H75.4838L69.8247 47.4146L91.5378 50.4862L94.6001 45.3202L68.1401 41.5841L64.4817 28.9231L67.0937 9.7439L84.9447 6.19182L81.7487 1H80.6042L67.9211 3.66941L68.2846 1H61.0435L60.4868 5.23411L39.5969 9.63077L22.8499 7.9685L21.6718 1H16.8221L18.1037 7.49737L1 5.79968ZM26.3927 28.9231L22.7035 39.4103L39.5969 37.5538L61.2074 40.6052L57.3717 28.9231L59.7003 11.2151L39.5969 15.2154L23.8102 13.6484L26.3927 28.9231Z" fill="#D9D9D9"/>
<path fill-rule="evenodd" clip-rule="evenodd" d="M1 5.79968V11.3843L19.2272 13.1935L22.3298 28.9231L18.371 39.8864L1 41.7954V47.6537L16.2088 45.8745L8.58042 67H12.9983L20.6108 45.3595L39.5969 43.1385L63.1324 46.4679L69.8739 67H75.4838L69.8247 47.4146L91.5378 50.4862L94.6001 45.3202L68.1401 41.5841L64.4817 28.9231L67.0937 9.7439L84.9447 6.19182L81.7487 1H80.6042L67.9211 3.66941L68.2846 1H61.0435L60.4868 5.23411L39.5969 9.63077L22.8499 7.9685L21.6718 1H16.8221L18.1037 7.49737L1 5.79968ZM26.3927 28.9231L22.7035 39.4103L39.5969 37.5538L61.2074 40.6052L57.3717 28.9231L59.7003 11.2151L39.5969 15.2154L23.8102 13.6484L26.3927 28.9231Z" fill="#A1C8E7"/>
<path fill-rule="evenodd" clip-rule="evenodd" d="M1 5.79968V11.3843L19.2272 13.1935L22.3298 28.9231L18.371 39.8864L1 41.7954V47.6537L16.2088 45.8745L8.58042 67H12.9983L20.6108 45.3595L39.5969 43.1385L63.1324 46.4679L69.8739 67H75.4838L69.8247 47.4146L91.5378 50.4862L94.6001 45.3202L68.1401 41.5841L64.4817 28.9231L67.0937 9.7439L84.9447 6.19182L81.7487 1H80.6042L67.9211 3.66941L68.2846 1H61.0435L60.4868 5.23411L39.5969 9.63077L22.8499 7.9685L21.6718 1H16.8221L18.1037 7.49737L1 5.79968ZM26.3927 28.9231L22.7035 39.4103L39.5969 37.5538L61.2074 40.6052L57.3717 28.9231L59.7003 11.2151L39.5969 15.2154L23.8102 13.6484L26.3927 28.9231Z" fill="black" fill-opacity="0.2"/>
<path fill-rule="evenodd" clip-rule="evenodd" d="M1 5.79968V11.3843L19.2272 13.1935L22.3298 28.9231L18.371 39.8864L1 41.7954V47.6537L16.2088 45.8745L8.58042 67H12.9983L20.6108 45.3595L39.5969 43.1385L63.1324 46.4679L69.8739 67H75.4838L69.8247 47.4146L91.5378 50.4862L94.6001 45.3202L68.1401 41.5841L64.4817 28.9231L67.0937 9.7439L84.9447 6.19182L81.7487 1H80.6042L67.9211 3.66941L68.2846 1H61.0435L60.4868 5.23411L39.5969 9.63077L22.8499 7.9685L21.6718 1H16.8221L18.1037 7.49737L1 5.79968ZM26.3927 28.9231L22.7035 39.4103L39.5969 37.5538L61.2074 40.6052L57.3717 28.9231L59.7003 11.2151L39.5969 15.2154L23.8102 13.6484L26.3927 28.9231Z" fill="#102D55"/>
<path d="M1 5.79968V1H16.8221M1 5.79968V11.3843M1 5.79968L18.1037 7.49737L16.8221 1M1 11.3843V41.7954M1 11.3843L19.2272 13.1935L22.3298 28.9231L18.371 39.8864L1 41.7954M1 41.7954V47.6537M1 47.6537V67H8.58042M1 47.6537L16.2088 45.8745L8.58042 67M8.58042 67H12.9983M12.9983 67H69.8739M12.9983 67L20.6108 45.3595L39.5969 43.1385L63.1324 46.4679L69.8739 67M69.8739 67H75.4838M75.4838 67H81.7487L91.5378 50.4862M75.4838 67L69.8247 47.4146L91.5378 50.4862M91.5378 50.4862L94.6001 45.3202M94.6001 45.3202L98 39.5846V27.4L84.9447 6.19182M94.6001 45.3202L68.1401 41.5841L64.4817 28.9231L67.0937 9.7439L84.9447 6.19182M84.9447 6.19182L81.7487 1H80.6042M80.6042 1H68.2846M80.6042 1L67.9211 3.66941L68.2846 1M68.2846 1H61.0435M61.0435 1H21.6718M61.0435 1L60.4868 5.23411L39.5969 9.63077L22.8499 7.9685L21.6718 1M21.6718 1H16.8221M22.7035 39.4103L26.3927 28.9231L23.8102 13.6484L39.5969 15.2154L59.7003 11.2151L57.3717 28.9231L61.2074 40.6052L39.5969 37.5538L22.7035 39.4103Z" stroke="black"/>
<path d="M1 5.79968V1H16.8221M1 5.79968V11.3843M1 5.79968L18.1037 7.49737L16.8221 1M1 11.3843V41.7954M1 11.3843L19.2272 13.1935L22.3298 28.9231L18.371 39.8864L1 41.7954M1 41.7954V47.6537M1 47.6537V67H8.58042M1 47.6537L16.2088 45.8745L8.58042 67M8.58042 67H12.9983M12.9983 67H69.8739M12.9983 67L20.6108 45.3595L39.5969 43.1385L63.1324 46.4679L69.8739 67M69.8739 67H75.4838M75.4838 67H81.7487L91.5378 50.4862M75.4838 67L69.8247 47.4146L91.5378 50.4862M91.5378 50.4862L94.6001 45.3202M94.6001 45.3202L98 39.5846V27.4L84.9447 6.19182M94.6001 45.3202L68.1401 41.5841L64.4817 28.9231L67.0937 9.7439L84.9447 6.19182M84.9447 6.19182L81.7487 1H80.6042M80.6042 1H68.2846M80.6042 1L67.9211 3.66941L68.2846 1M68.2846 1H61.0435M61.0435 1H21.6718M61.0435 1L60.4868 5.23411L39.5969 9.63077L22.8499 7.9685L21.6718 1M21.6718 1H16.8221M22.7035 39.4103L26.3927 28.9231L23.8102 13.6484L39.5969 15.2154L59.7003 11.2151L57.3717 28.9231L61.2074 40.6052L39.5969 37.5538L22.7035 39.4103Z" stroke="#102D55"/>
</svg>
