<svg width="99" height="68" viewBox="0 0 99 68" fill="none" xmlns="http://www.w3.org/2000/svg">
<path d="M1 47.6537V67H8.58042H12.9983H69.8739H75.4838H81.7487L91.5378 50.4862L69.8247 47.4146L63.1324 46.4679L39.5969 43.1385L20.6108 45.3595L16.2088 45.8745L1 47.6537Z" fill="#D9D9D9"/>
<path d="M1 47.6537V67H8.58042H12.9983H69.8739H75.4838H81.7487L91.5378 50.4862L69.8247 47.4146L63.1324 46.4679L39.5969 43.1385L20.6108 45.3595L16.2088 45.8745L1 47.6537Z" fill="#A1C8E7"/>
<path d="M1 47.6537V67H8.58042H12.9983H69.8739H75.4838H81.7487L91.5378 50.4862L69.8247 47.4146L63.1324 46.4679L39.5969 43.1385L20.6108 45.3595L16.2088 45.8745L1 47.6537Z" fill="black" fill-opacity="0.2"/>
<path d="M1 11.3843V41.7954L18.371 39.8864L22.7035 39.4103L39.5969 37.5538L61.2074 40.6052L68.1401 41.5841L94.6001 45.3202L98 39.5846V27.4L84.9447 6.19182L67.0937 9.7439L59.7003 11.2151L39.5969 15.2154L31.7035 14.4319L19.2272 13.1935L1 11.3843Z" fill="#D9D9D9"/>
<path d="M1 11.3843V41.7954L18.371 39.8864L22.7035 39.4103L39.5969 37.5538L61.2074 40.6052L68.1401 41.5841L94.6001 45.3202L98 39.5846V27.4L84.9447 6.19182L67.0937 9.7439L59.7003 11.2151L39.5969 15.2154L31.7035 14.4319L19.2272 13.1935L1 11.3843Z" fill="#A1C8E7"/>
<path d="M1 11.3843V41.7954L18.371 39.8864L22.7035 39.4103L39.5969 37.5538L61.2074 40.6052L68.1401 41.5841L94.6001 45.3202L98 39.5846V27.4L84.9447 6.19182L67.0937 9.7439L59.7003 11.2151L39.5969 15.2154L31.7035 14.4319L19.2272 13.1935L1 11.3843Z" fill="black" fill-opacity="0.2"/>
<path d="M1 1V5.79968L39.5969 9.63077L60.4868 5.23411L67.9211 3.66941L80.6042 1H68.2846H61.0435H21.6718H16.8221H1Z" fill="#D9D9D9"/>
<path d="M1 1V5.79968L39.5969 9.63077L60.4868 5.23411L67.9211 3.66941L80.6042 1H68.2846H61.0435H21.6718H16.8221H1Z" fill="#A1C8E7"/>
<path d="M1 1V5.79968L39.5969 9.63077L60.4868 5.23411L67.9211 3.66941L80.6042 1H68.2846H61.0435H21.6718H16.8221H1Z" fill="black" fill-opacity="0.2"/>
<path d="M1 5.79968V11.3843L19.2272 13.1935L31.7035 14.4319L39.5969 15.2154L59.7003 11.2151L67.0937 9.7439L84.9447 6.19182L81.7487 1H80.6042L67.9211 3.66941L60.4868 5.23411L39.5969 9.63077L1 5.79968Z" fill="#D9D9D9"/>
<path d="M1 5.79968V11.3843L19.2272 13.1935L31.7035 14.4319L39.5969 15.2154L59.7003 11.2151L67.0937 9.7439L84.9447 6.19182L81.7487 1H80.6042L67.9211 3.66941L60.4868 5.23411L39.5969 9.63077L1 5.79968Z" fill="#A1C8E7"/>
<path d="M1 5.79968V11.3843L19.2272 13.1935L31.7035 14.4319L39.5969 15.2154L59.7003 11.2151L67.0937 9.7439L84.9447 6.19182L81.7487 1H80.6042L67.9211 3.66941L60.4868 5.23411L39.5969 9.63077L1 5.79968Z" fill="black" fill-opacity="0.2"/>
<path d="M1 5.79968V11.3843L19.2272 13.1935L31.7035 14.4319L39.5969 15.2154L59.7003 11.2151L67.0937 9.7439L84.9447 6.19182L81.7487 1H80.6042L67.9211 3.66941L60.4868 5.23411L39.5969 9.63077L1 5.79968Z" fill="#102D55"/>
<path d="M1 41.7954V47.6537L16.2088 45.8745L20.6108 45.3595L39.5969 43.1385L63.1324 46.4679L69.8247 47.4146L91.5378 50.4862L94.6001 45.3202L68.1401 41.5841L61.2074 40.6052L39.5969 37.5538L22.7035 39.4103L18.371 39.8864L1 41.7954Z" fill="#D9D9D9"/>
<path d="M1 41.7954V47.6537L16.2088 45.8745L20.6108 45.3595L39.5969 43.1385L63.1324 46.4679L69.8247 47.4146L91.5378 50.4862L94.6001 45.3202L68.1401 41.5841L61.2074 40.6052L39.5969 37.5538L22.7035 39.4103L18.371 39.8864L1 41.7954Z" fill="#A1C8E7"/>
<path d="M1 41.7954V47.6537L16.2088 45.8745L20.6108 45.3595L39.5969 43.1385L63.1324 46.4679L69.8247 47.4146L91.5378 50.4862L94.6001 45.3202L68.1401 41.5841L61.2074 40.6052L39.5969 37.5538L22.7035 39.4103L18.371 39.8864L1 41.7954Z" fill="black" fill-opacity="0.2"/>
<path d="M1 41.7954V47.6537L16.2088 45.8745L20.6108 45.3595L39.5969 43.1385L63.1324 46.4679L69.8247 47.4146L91.5378 50.4862L94.6001 45.3202L68.1401 41.5841L61.2074 40.6052L39.5969 37.5538L22.7035 39.4103L18.371 39.8864L1 41.7954Z" fill="#102D55"/>
<path d="M1 5.79968V1H16.8221H21.6718H61.0435H68.2846H80.6042M1 5.79968V11.3843M1 5.79968L39.5969 9.63077L60.4868 5.23411L67.9211 3.66941L80.6042 1M1 11.3843V41.7954M1 11.3843L19.2272 13.1935L31.7035 14.4319L39.5969 15.2154L59.7003 11.2151L67.0937 9.7439L84.9447 6.19182M1 41.7954V47.6537M1 41.7954L18.371 39.8864L22.7035 39.4103L39.5969 37.5538L61.2074 40.6052L68.1401 41.5841L94.6001 45.3202M1 47.6537V67H8.58042H12.9983H69.8739H75.4838H81.7487L91.5378 50.4862M1 47.6537L16.2088 45.8745L20.6108 45.3595L39.5969 43.1385L63.1324 46.4679L69.8247 47.4146L91.5378 50.4862M91.5378 50.4862L94.6001 45.3202M94.6001 45.3202L98 39.5846V27.4L84.9447 6.19182M84.9447 6.19182L81.7487 1H80.6042" stroke="black"/>
<path d="M1 5.79968V1H16.8221H21.6718H61.0435H68.2846H80.6042M1 5.79968V11.3843M1 5.79968L39.5969 9.63077L60.4868 5.23411L67.9211 3.66941L80.6042 1M1 11.3843V41.7954M1 11.3843L19.2272 13.1935L31.7035 14.4319L39.5969 15.2154L59.7003 11.2151L67.0937 9.7439L84.9447 6.19182M1 41.7954V47.6537M1 41.7954L18.371 39.8864L22.7035 39.4103L39.5969 37.5538L61.2074 40.6052L68.1401 41.5841L94.6001 45.3202M1 47.6537V67H8.58042H12.9983H69.8739H75.4838H81.7487L91.5378 50.4862M1 47.6537L16.2088 45.8745L20.6108 45.3595L39.5969 43.1385L63.1324 46.4679L69.8247 47.4146L91.5378 50.4862M91.5378 50.4862L94.6001 45.3202M94.6001 45.3202L98 39.5846V27.4L84.9447 6.19182M84.9447 6.19182L81.7487 1H80.6042" stroke="#102D55"/>
</svg>
