<svg width="99" height="68" viewBox="0 0 99 68" fill="none" xmlns="http://www.w3.org/2000/svg">
<path d="M39.5969 43.1385L21.9032 45.2083L25.8848 67H55.3403L58.9915 45.8821L39.5969 43.1385Z" fill="#D9D9D9"/>
<path d="M39.5969 43.1385L21.9032 45.2083L25.8848 67H55.3403L58.9915 45.8821L39.5969 43.1385Z" fill="#A1C8E7"/>
<path d="M39.5969 43.1385L21.9032 45.2083L25.8848 67H55.3403L58.9915 45.8821L39.5969 43.1385Z" fill="black" fill-opacity="0.2"/>
<path d="M69.8739 67H75.4838H81.7487L91.5378 50.4862L69.8247 47.4146L63.1324 46.4679L62.8543 46.4285L59.7003 67H69.8739Z" fill="#D9D9D9"/>
<path d="M69.8739 67H75.4838H81.7487L91.5378 50.4862L69.8247 47.4146L63.1324 46.4679L62.8543 46.4285L59.7003 67H69.8739Z" fill="#A1C8E7"/>
<path d="M69.8739 67H75.4838H81.7487L91.5378 50.4862L69.8247 47.4146L63.1324 46.4679L62.8543 46.4285L59.7003 67H69.8739Z" fill="black" fill-opacity="0.2"/>
<path d="M94.6001 45.3202L98 39.5846V27.4L84.9447 6.19182L67.0937 9.7439L60.871 10.9821L66.0052 25.8769L63.6933 40.9562L68.1401 41.5841L94.6001 45.3202Z" fill="#D9D9D9"/>
<path d="M94.6001 45.3202L98 39.5846V27.4L84.9447 6.19182L67.0937 9.7439L60.871 10.9821L66.0052 25.8769L63.6933 40.9562L68.1401 41.5841L94.6001 45.3202Z" fill="#A1C8E7"/>
<path d="M94.6001 45.3202L98 39.5846V27.4L84.9447 6.19182L67.0937 9.7439L60.871 10.9821L66.0052 25.8769L63.6933 40.9562L68.1401 41.5841L94.6001 45.3202Z" fill="black" fill-opacity="0.2"/>
<path d="M57.5129 11.6503L39.5969 15.2154L31.7035 14.4319L22.1153 13.4802L18.371 25.8769L20.8804 39.6107L22.7035 39.4103L39.5969 37.5538L59.9349 40.4255L62.4503 25.8769L57.5129 11.6503Z" fill="#D9D9D9"/>
<path d="M57.5129 11.6503L39.5969 15.2154L31.7035 14.4319L22.1153 13.4802L18.371 25.8769L20.8804 39.6107L22.7035 39.4103L39.5969 37.5538L59.9349 40.4255L62.4503 25.8769L57.5129 11.6503Z" fill="#A1C8E7"/>
<path d="M57.5129 11.6503L39.5969 15.2154L31.7035 14.4319L22.1153 13.4802L18.371 25.8769L20.8804 39.6107L22.7035 39.4103L39.5969 37.5538L59.9349 40.4255L62.4503 25.8769L57.5129 11.6503Z" fill="black" fill-opacity="0.2"/>
<path d="M39.5969 9.63077L55.6402 6.25417L53.8168 1H25.8848L23.753 8.05811L39.5969 9.63077Z" fill="#D9D9D9"/>
<path d="M39.5969 9.63077L55.6402 6.25417L53.8168 1H25.8848L23.753 8.05811L39.5969 9.63077Z" fill="#A1C8E7"/>
<path d="M39.5969 9.63077L55.6402 6.25417L53.8168 1H25.8848L23.753 8.05811L39.5969 9.63077Z" fill="black" fill-opacity="0.2"/>
<path d="M80.6042 1H68.2846H61.0435H57.4301L58.9977 5.54751L60.4868 5.23411L67.9211 3.66941L80.6042 1Z" fill="#D9D9D9"/>
<path d="M80.6042 1H68.2846H61.0435H57.4301L58.9977 5.54751L60.4868 5.23411L67.9211 3.66941L80.6042 1Z" fill="#A1C8E7"/>
<path d="M80.6042 1H68.2846H61.0435H57.4301L58.9977 5.54751L60.4868 5.23411L67.9211 3.66941L80.6042 1Z" fill="black" fill-opacity="0.2"/>
<path d="M1 1V5.79968L20.6723 7.75233L22.7035 1H21.6718H16.8221H1Z" fill="#D9D9D9"/>
<path d="M1 1V5.79968L20.6723 7.75233L22.7035 1H21.6718H16.8221H1Z" fill="#A1C8E7"/>
<path d="M1 1V5.79968L20.6723 7.75233L22.7035 1H21.6718H16.8221H1Z" fill="black" fill-opacity="0.2"/>
<path d="M1 11.3843V41.7954L17.434 39.9894L15.2199 25.8769L19.041 13.175L1 11.3843Z" fill="#D9D9D9"/>
<path d="M1 11.3843V41.7954L17.434 39.9894L15.2199 25.8769L19.041 13.175L1 11.3843Z" fill="#A1C8E7"/>
<path d="M1 11.3843V41.7954L17.434 39.9894L15.2199 25.8769L19.041 13.175L1 11.3843Z" fill="black" fill-opacity="0.2"/>
<path d="M1 47.6537V67H8.58042H12.9983H21.6718L18.3186 45.6277L16.2088 45.8745L1 47.6537Z" fill="#D9D9D9"/>
<path d="M1 47.6537V67H8.58042H12.9983H21.6718L18.3186 45.6277L16.2088 45.8745L1 47.6537Z" fill="#A1C8E7"/>
<path d="M1 47.6537V67H8.58042H12.9983H21.6718L18.3186 45.6277L16.2088 45.8745L1 47.6537Z" fill="black" fill-opacity="0.2"/>
<path fill-rule="evenodd" clip-rule="evenodd" d="M1 5.79968V11.3843L19.041 13.175L15.2199 25.8769L17.434 39.9894L1 41.7954V47.6537L16.2088 45.8745L18.3186 45.6277L21.6718 67H25.8848L21.9032 45.2083L39.5969 43.1385L58.9915 45.8821L55.3403 67H59.7003L62.8543 46.4285L63.1324 46.4679L69.8247 47.4146L91.5378 50.4862L94.6001 45.3202L68.1401 41.5841L63.6933 40.9562L66.0052 25.8769L60.871 10.9821L67.0937 9.7439L84.9447 6.19182L81.7487 1H80.6042L67.9211 3.66941L60.4868 5.23411L58.9977 5.54751L57.4301 1H53.8168L55.6402 6.25417L39.5969 9.63077L23.753 8.05811L25.8848 1H22.7035L20.6723 7.75233L1 5.79968ZM39.5969 37.5538L22.7035 39.4103L20.8804 39.6107L18.371 25.8769L22.1153 13.4802L31.7035 14.4319L39.5969 15.2154L57.5129 11.6503L62.4503 25.8769L59.9349 40.4255L39.5969 37.5538Z" fill="#D9D9D9"/>
<path fill-rule="evenodd" clip-rule="evenodd" d="M1 5.79968V11.3843L19.041 13.175L15.2199 25.8769L17.434 39.9894L1 41.7954V47.6537L16.2088 45.8745L18.3186 45.6277L21.6718 67H25.8848L21.9032 45.2083L39.5969 43.1385L58.9915 45.8821L55.3403 67H59.7003L62.8543 46.4285L63.1324 46.4679L69.8247 47.4146L91.5378 50.4862L94.6001 45.3202L68.1401 41.5841L63.6933 40.9562L66.0052 25.8769L60.871 10.9821L67.0937 9.7439L84.9447 6.19182L81.7487 1H80.6042L67.9211 3.66941L60.4868 5.23411L58.9977 5.54751L57.4301 1H53.8168L55.6402 6.25417L39.5969 9.63077L23.753 8.05811L25.8848 1H22.7035L20.6723 7.75233L1 5.79968ZM39.5969 37.5538L22.7035 39.4103L20.8804 39.6107L18.371 25.8769L22.1153 13.4802L31.7035 14.4319L39.5969 15.2154L57.5129 11.6503L62.4503 25.8769L59.9349 40.4255L39.5969 37.5538Z" fill="#A1C8E7"/>
<path fill-rule="evenodd" clip-rule="evenodd" d="M1 5.79968V11.3843L19.041 13.175L15.2199 25.8769L17.434 39.9894L1 41.7954V47.6537L16.2088 45.8745L18.3186 45.6277L21.6718 67H25.8848L21.9032 45.2083L39.5969 43.1385L58.9915 45.8821L55.3403 67H59.7003L62.8543 46.4285L63.1324 46.4679L69.8247 47.4146L91.5378 50.4862L94.6001 45.3202L68.1401 41.5841L63.6933 40.9562L66.0052 25.8769L60.871 10.9821L67.0937 9.7439L84.9447 6.19182L81.7487 1H80.6042L67.9211 3.66941L60.4868 5.23411L58.9977 5.54751L57.4301 1H53.8168L55.6402 6.25417L39.5969 9.63077L23.753 8.05811L25.8848 1H22.7035L20.6723 7.75233L1 5.79968ZM39.5969 37.5538L22.7035 39.4103L20.8804 39.6107L18.371 25.8769L22.1153 13.4802L31.7035 14.4319L39.5969 15.2154L57.5129 11.6503L62.4503 25.8769L59.9349 40.4255L39.5969 37.5538Z" fill="black" fill-opacity="0.2"/>
<path fill-rule="evenodd" clip-rule="evenodd" d="M1 5.79968V11.3843L19.041 13.175L15.2199 25.8769L17.434 39.9894L1 41.7954V47.6537L16.2088 45.8745L18.3186 45.6277L21.6718 67H25.8848L21.9032 45.2083L39.5969 43.1385L58.9915 45.8821L55.3403 67H59.7003L62.8543 46.4285L63.1324 46.4679L69.8247 47.4146L91.5378 50.4862L94.6001 45.3202L68.1401 41.5841L63.6933 40.9562L66.0052 25.8769L60.871 10.9821L67.0937 9.7439L84.9447 6.19182L81.7487 1H80.6042L67.9211 3.66941L60.4868 5.23411L58.9977 5.54751L57.4301 1H53.8168L55.6402 6.25417L39.5969 9.63077L23.753 8.05811L25.8848 1H22.7035L20.6723 7.75233L1 5.79968ZM39.5969 37.5538L22.7035 39.4103L20.8804 39.6107L18.371 25.8769L22.1153 13.4802L31.7035 14.4319L39.5969 15.2154L57.5129 11.6503L62.4503 25.8769L59.9349 40.4255L39.5969 37.5538Z" fill="#102D55"/>
<path d="M1 5.79968V1H16.8221H21.6718H22.7035M1 5.79968V11.3843M1 5.79968L20.6723 7.75233L22.7035 1M1 11.3843V41.7954M1 11.3843L19.041 13.175M1 41.7954V47.6537M1 41.7954L17.434 39.9894L15.2199 25.8769L19.041 13.175M1 47.6537V67H8.58042H12.9983H21.6718M1 47.6537L16.2088 45.8745L18.3186 45.6277L21.6718 67M91.5378 50.4862L81.7487 67H75.4838H69.8739H59.7003M91.5378 50.4862L94.6001 45.3202M91.5378 50.4862L69.8247 47.4146L63.1324 46.4679L62.8543 46.4285L59.7003 67M94.6001 45.3202L98 39.5846V27.4L84.9447 6.19182M94.6001 45.3202L68.1401 41.5841L63.6933 40.9562L66.0052 25.8769L60.871 10.9821L67.0937 9.7439L84.9447 6.19182M84.9447 6.19182L81.7487 1H80.6042M80.6042 1H68.2846H61.0435H57.4301M80.6042 1L67.9211 3.66941L60.4868 5.23411L58.9977 5.54751L57.4301 1M19.2272 13.1935L19.041 13.175M22.7035 1H25.8848M21.6718 67H25.8848M25.8848 67H55.3403M25.8848 67L21.9032 45.2083L39.5969 43.1385L58.9915 45.8821L55.3403 67M25.8848 1H53.8168M25.8848 1L23.753 8.05811L39.5969 9.63077L55.6402 6.25417L53.8168 1M53.8168 1H57.4301M55.3403 67H59.7003M22.7035 39.4103L39.5969 37.5538L59.9349 40.4255L62.4503 25.8769L57.5129 11.6503L39.5969 15.2154L31.7035 14.4319L22.1153 13.4802L18.371 25.8769L20.8804 39.6107L22.7035 39.4103Z" stroke="black"/>
<path d="M1 5.79968V1H16.8221H21.6718H22.7035M1 5.79968V11.3843M1 5.79968L20.6723 7.75233L22.7035 1M1 11.3843V41.7954M1 11.3843L19.041 13.175M1 41.7954V47.6537M1 41.7954L17.434 39.9894L15.2199 25.8769L19.041 13.175M1 47.6537V67H8.58042H12.9983H21.6718M1 47.6537L16.2088 45.8745L18.3186 45.6277L21.6718 67M91.5378 50.4862L81.7487 67H75.4838H69.8739H59.7003M91.5378 50.4862L94.6001 45.3202M91.5378 50.4862L69.8247 47.4146L63.1324 46.4679L62.8543 46.4285L59.7003 67M94.6001 45.3202L98 39.5846V27.4L84.9447 6.19182M94.6001 45.3202L68.1401 41.5841L63.6933 40.9562L66.0052 25.8769L60.871 10.9821L67.0937 9.7439L84.9447 6.19182M84.9447 6.19182L81.7487 1H80.6042M80.6042 1H68.2846H61.0435H57.4301M80.6042 1L67.9211 3.66941L60.4868 5.23411L58.9977 5.54751L57.4301 1M19.2272 13.1935L19.041 13.175M22.7035 1H25.8848M21.6718 67H25.8848M25.8848 67H55.3403M25.8848 67L21.9032 45.2083L39.5969 43.1385L58.9915 45.8821L55.3403 67M25.8848 1H53.8168M25.8848 1L23.753 8.05811L39.5969 9.63077L55.6402 6.25417L53.8168 1M53.8168 1H57.4301M55.3403 67H59.7003M22.7035 39.4103L39.5969 37.5538L59.9349 40.4255L62.4503 25.8769L57.5129 11.6503L39.5969 15.2154L31.7035 14.4319L22.1153 13.4802L18.371 25.8769L20.8804 39.6107L22.7035 39.4103Z" stroke="#102D55"/>
</svg>
