<svg width="99" height="68" viewBox="0 0 99 68" fill="none" xmlns="http://www.w3.org/2000/svg">
<path d="M1 41.7954V47.6537V67H8.58042H9.63351L19.7328 36.7118L15.2199 34.5077L1 41.7954Z" fill="#D9D9D9"/>
<path d="M1 41.7954V47.6537V67H8.58042H9.63351L19.7328 36.7118L15.2199 34.5077L1 41.7954Z" fill="#A1C8E7"/>
<path d="M1 41.7954V47.6537V67H8.58042H9.63351L19.7328 36.7118L15.2199 34.5077L1 41.7954Z" fill="black" fill-opacity="0.2"/>
<path d="M42.1361 6.19182L25.0863 15.1236L26.9005 25.8769L24.2963 34.5549L42.1361 42.6308L60.1563 33.7935L57.4301 25.8769L59.0058 15.0292L42.1361 6.19182Z" fill="#D9D9D9"/>
<path d="M42.1361 6.19182L25.0863 15.1236L26.9005 25.8769L24.2963 34.5549L42.1361 42.6308L60.1563 33.7935L57.4301 25.8769L59.0058 15.0292L42.1361 6.19182Z" fill="#A1C8E7"/>
<path d="M42.1361 6.19182L25.0863 15.1236L26.9005 25.8769L24.2963 34.5549L42.1361 42.6308L60.1563 33.7935L57.4301 25.8769L59.0058 15.0292L42.1361 6.19182Z" fill="black" fill-opacity="0.2"/>
<path d="M14.712 67H21.6718H25.8848H55.3403H59.7003H69.8739H71.5916L61.6477 38.1242L42.1361 47.6537L23.1484 38.38L14.712 67Z" fill="#D9D9D9"/>
<path d="M14.712 67H21.6718H25.8848H55.3403H59.7003H69.8739H71.5916L61.6477 38.1242L42.1361 47.6537L23.1484 38.38L14.712 67Z" fill="#A1C8E7"/>
<path d="M14.712 67H21.6718H25.8848H55.3403H59.7003H69.8739H71.5916L61.6477 38.1242L42.1361 47.6537L23.1484 38.38L14.712 67Z" fill="black" fill-opacity="0.2"/>
<path d="M75.4838 67H81.7487L91.5378 50.4862L93.0689 47.9032L69.0524 34.5077L64.803 36.5831L75.4838 67Z" fill="#D9D9D9"/>
<path d="M75.4838 67H81.7487L91.5378 50.4862L93.0689 47.9032L69.0524 34.5077L64.803 36.5831L75.4838 67Z" fill="#A1C8E7"/>
<path d="M75.4838 67H81.7487L91.5378 50.4862L93.0689 47.9032L69.0524 34.5077L64.803 36.5831L75.4838 67Z" fill="black" fill-opacity="0.2"/>
<path d="M98 39.5846V27.4L86.7491 9.12308L69.0524 20.2923L62.4758 16.8471L61.0435 25.8769L63.2847 32.2593L69.0524 29.4308L95.5924 43.6462L98 39.5846Z" fill="#D9D9D9"/>
<path d="M98 39.5846V27.4L86.7491 9.12308L69.0524 20.2923L62.4758 16.8471L61.0435 25.8769L63.2847 32.2593L69.0524 29.4308L95.5924 43.6462L98 39.5846Z" fill="#A1C8E7"/>
<path d="M98 39.5846V27.4L86.7491 9.12308L69.0524 20.2923L62.4758 16.8471L61.0435 25.8769L63.2847 32.2593L69.0524 29.4308L95.5924 43.6462L98 39.5846Z" fill="black" fill-opacity="0.2"/>
<path d="M84.9447 6.19182L81.7487 1H80.6042H68.2846H64.9895L63.3401 11.3986L69.0524 14.2L84.9447 6.19182Z" fill="#D9D9D9"/>
<path d="M84.9447 6.19182L81.7487 1H80.6042H68.2846H64.9895L63.3401 11.3986L69.0524 14.2L84.9447 6.19182Z" fill="#A1C8E7"/>
<path d="M84.9447 6.19182L81.7487 1H80.6042H68.2846H64.9895L63.3401 11.3986L69.0524 14.2L84.9447 6.19182Z" fill="black" fill-opacity="0.2"/>
<path d="M61.0435 1H57.4301H53.8168H42.1361L59.7862 9.65581L61.0435 1Z" fill="#D9D9D9"/>
<path d="M61.0435 1H57.4301H53.8168H42.1361L59.7862 9.65581L61.0435 1Z" fill="#A1C8E7"/>
<path d="M61.0435 1H57.4301H53.8168H42.1361L59.7862 9.65581L61.0435 1Z" fill="black" fill-opacity="0.2"/>
<path d="M25.8848 1H22.7035L24.3453 10.7315L42.1361 1H25.8848Z" fill="#D9D9D9"/>
<path d="M25.8848 1H22.7035L24.3453 10.7315L42.1361 1H25.8848Z" fill="#A1C8E7"/>
<path d="M25.8848 1H22.7035L24.3453 10.7315L42.1361 1H25.8848Z" fill="black" fill-opacity="0.2"/>
<path d="M1 1V5.79968V7.6L15.2199 15.7231L21.1392 12.4852L19.247 1H16.8221H1Z" fill="#D9D9D9"/>
<path d="M1 1V5.79968V7.6L15.2199 15.7231L21.1392 12.4852L19.247 1H16.8221H1Z" fill="#A1C8E7"/>
<path d="M1 1V5.79968V7.6L15.2199 15.7231L21.1392 12.4852L19.247 1H16.8221H1Z" fill="black" fill-opacity="0.2"/>
<path d="M15.2199 20.2923L1 13.1846V37.0462L15.2199 30.4462L20.9561 33.0429L23.3455 25.8769L21.853 16.8175L15.2199 20.2923Z" fill="#D9D9D9"/>
<path d="M15.2199 20.2923L1 13.1846V37.0462L15.2199 30.4462L20.9561 33.0429L23.3455 25.8769L21.853 16.8175L15.2199 20.2923Z" fill="#A1C8E7"/>
<path d="M15.2199 20.2923L1 13.1846V37.0462L15.2199 30.4462L20.9561 33.0429L23.3455 25.8769L21.853 16.8175L15.2199 20.2923Z" fill="black" fill-opacity="0.2"/>
<path fill-rule="evenodd" clip-rule="evenodd" d="M22.7035 1H21.6718H19.247L21.1392 12.4852L15.2199 15.7231L1 7.6V11.3843V13.1846L15.2199 20.2923L21.853 16.8175L23.3455 25.8769L20.9561 33.0429L15.2199 30.4462L1 37.0462V41.7954L15.2199 34.5077L19.7328 36.7118L9.63351 67H12.9983H14.712L23.1484 38.38L42.1361 47.6537L61.6477 38.1242L71.5916 67H75.4838L64.803 36.5831L69.0524 34.5077L93.0689 47.9032L94.6001 45.3202L95.5924 43.6462L69.0524 29.4308L63.2847 32.2593L61.0435 25.8769L62.4758 16.8471L69.0524 20.2923L86.7491 9.12308L84.9447 6.19182L69.0524 14.2L63.3401 11.3986L64.9895 1H61.0435L59.7862 9.65581L42.1361 1L24.3453 10.7315L22.7035 1ZM25.0863 15.1236L42.1361 6.19182L59.0058 15.0292L57.4301 25.8769L60.1563 33.7935L42.1361 42.6308L24.2963 34.5549L26.9005 25.8769L25.0863 15.1236Z" fill="#D9D9D9"/>
<path fill-rule="evenodd" clip-rule="evenodd" d="M22.7035 1H21.6718H19.247L21.1392 12.4852L15.2199 15.7231L1 7.6V11.3843V13.1846L15.2199 20.2923L21.853 16.8175L23.3455 25.8769L20.9561 33.0429L15.2199 30.4462L1 37.0462V41.7954L15.2199 34.5077L19.7328 36.7118L9.63351 67H12.9983H14.712L23.1484 38.38L42.1361 47.6537L61.6477 38.1242L71.5916 67H75.4838L64.803 36.5831L69.0524 34.5077L93.0689 47.9032L94.6001 45.3202L95.5924 43.6462L69.0524 29.4308L63.2847 32.2593L61.0435 25.8769L62.4758 16.8471L69.0524 20.2923L86.7491 9.12308L84.9447 6.19182L69.0524 14.2L63.3401 11.3986L64.9895 1H61.0435L59.7862 9.65581L42.1361 1L24.3453 10.7315L22.7035 1ZM25.0863 15.1236L42.1361 6.19182L59.0058 15.0292L57.4301 25.8769L60.1563 33.7935L42.1361 42.6308L24.2963 34.5549L26.9005 25.8769L25.0863 15.1236Z" fill="#A1C8E7"/>
<path fill-rule="evenodd" clip-rule="evenodd" d="M22.7035 1H21.6718H19.247L21.1392 12.4852L15.2199 15.7231L1 7.6V11.3843V13.1846L15.2199 20.2923L21.853 16.8175L23.3455 25.8769L20.9561 33.0429L15.2199 30.4462L1 37.0462V41.7954L15.2199 34.5077L19.7328 36.7118L9.63351 67H12.9983H14.712L23.1484 38.38L42.1361 47.6537L61.6477 38.1242L71.5916 67H75.4838L64.803 36.5831L69.0524 34.5077L93.0689 47.9032L94.6001 45.3202L95.5924 43.6462L69.0524 29.4308L63.2847 32.2593L61.0435 25.8769L62.4758 16.8471L69.0524 20.2923L86.7491 9.12308L84.9447 6.19182L69.0524 14.2L63.3401 11.3986L64.9895 1H61.0435L59.7862 9.65581L42.1361 1L24.3453 10.7315L22.7035 1ZM25.0863 15.1236L42.1361 6.19182L59.0058 15.0292L57.4301 25.8769L60.1563 33.7935L42.1361 42.6308L24.2963 34.5549L26.9005 25.8769L25.0863 15.1236Z" fill="black" fill-opacity="0.2"/>
<path fill-rule="evenodd" clip-rule="evenodd" d="M22.7035 1H21.6718H19.247L21.1392 12.4852L15.2199 15.7231L1 7.6V11.3843V13.1846L15.2199 20.2923L21.853 16.8175L23.3455 25.8769L20.9561 33.0429L15.2199 30.4462L1 37.0462V41.7954L15.2199 34.5077L19.7328 36.7118L9.63351 67H12.9983H14.712L23.1484 38.38L42.1361 47.6537L61.6477 38.1242L71.5916 67H75.4838L64.803 36.5831L69.0524 34.5077L93.0689 47.9032L94.6001 45.3202L95.5924 43.6462L69.0524 29.4308L63.2847 32.2593L61.0435 25.8769L62.4758 16.8471L69.0524 20.2923L86.7491 9.12308L84.9447 6.19182L69.0524 14.2L63.3401 11.3986L64.9895 1H61.0435L59.7862 9.65581L42.1361 1L24.3453 10.7315L22.7035 1ZM25.0863 15.1236L42.1361 6.19182L59.0058 15.0292L57.4301 25.8769L60.1563 33.7935L42.1361 42.6308L24.2963 34.5549L26.9005 25.8769L25.0863 15.1236Z" fill="#102D55"/>
<path d="M1 41.7954V47.6537V67H8.58042H9.63351M1 41.7954V37.0462M1 41.7954L15.2199 34.5077L19.7328 36.7118L9.63351 67M12.9983 67H21.6718M12.9983 67H9.63351M12.9983 67H14.712M75.4838 67H81.7487L91.5378 50.4862L93.0689 47.9032M75.4838 67H71.5916M75.4838 67L64.803 36.5831L69.0524 34.5077L93.0689 47.9032M84.9447 6.19182L81.7487 1H80.6042H68.2846H64.9895M84.9447 6.19182L86.7491 9.12308M84.9447 6.19182L69.0524 14.2L63.3401 11.3986L64.9895 1M61.0435 1H57.4301H53.8168H42.1361M61.0435 1H64.9895M61.0435 1L59.7862 9.65581L42.1361 1M22.7035 1H21.6718H19.247M22.7035 1H25.8848H42.1361M22.7035 1L24.3453 10.7315L42.1361 1M21.6718 67H25.8848H55.3403H59.7003H69.8739H71.5916M21.6718 67H14.712M1 13.1846V11.3843V7.6M1 13.1846L15.2199 20.2923L21.853 16.8175L23.3455 25.8769L20.9561 33.0429L15.2199 30.4462L1 37.0462M1 13.1846V37.0462M86.7491 9.12308L98 27.4V39.5846L95.5924 43.6462M86.7491 9.12308L69.0524 20.2923L62.4758 16.8471L61.0435 25.8769L63.2847 32.2593L69.0524 29.4308L95.5924 43.6462M1 7.6V5.79968V1H16.8221H19.247M1 7.6L15.2199 15.7231L21.1392 12.4852L19.247 1M95.5924 43.6462L94.6001 45.3202L93.0689 47.9032M14.712 67L23.1484 38.38L42.1361 47.6537L61.6477 38.1242L71.5916 67M42.1361 6.19182L25.0863 15.1236L26.9005 25.8769L24.2963 34.5549L42.1361 42.6308L60.1563 33.7935L57.4301 25.8769L59.0058 15.0292L42.1361 6.19182Z" stroke="black"/>
<path d="M1 41.7954V47.6537V67H8.58042H9.63351M1 41.7954V37.0462M1 41.7954L15.2199 34.5077L19.7328 36.7118L9.63351 67M12.9983 67H21.6718M12.9983 67H9.63351M12.9983 67H14.712M75.4838 67H81.7487L91.5378 50.4862L93.0689 47.9032M75.4838 67H71.5916M75.4838 67L64.803 36.5831L69.0524 34.5077L93.0689 47.9032M84.9447 6.19182L81.7487 1H80.6042H68.2846H64.9895M84.9447 6.19182L86.7491 9.12308M84.9447 6.19182L69.0524 14.2L63.3401 11.3986L64.9895 1M61.0435 1H57.4301H53.8168H42.1361M61.0435 1H64.9895M61.0435 1L59.7862 9.65581L42.1361 1M22.7035 1H21.6718H19.247M22.7035 1H25.8848H42.1361M22.7035 1L24.3453 10.7315L42.1361 1M21.6718 67H25.8848H55.3403H59.7003H69.8739H71.5916M21.6718 67H14.712M1 13.1846V11.3843V7.6M1 13.1846L15.2199 20.2923L21.853 16.8175L23.3455 25.8769L20.9561 33.0429L15.2199 30.4462L1 37.0462M1 13.1846V37.0462M86.7491 9.12308L98 27.4V39.5846L95.5924 43.6462M86.7491 9.12308L69.0524 20.2923L62.4758 16.8471L61.0435 25.8769L63.2847 32.2593L69.0524 29.4308L95.5924 43.6462M1 7.6V5.79968V1H16.8221H19.247M1 7.6L15.2199 15.7231L21.1392 12.4852L19.247 1M95.5924 43.6462L94.6001 45.3202L93.0689 47.9032M14.712 67L23.1484 38.38L42.1361 47.6537L61.6477 38.1242L71.5916 67M42.1361 6.19182L25.0863 15.1236L26.9005 25.8769L24.2963 34.5549L42.1361 42.6308L60.1563 33.7935L57.4301 25.8769L59.0058 15.0292L42.1361 6.19182Z" stroke="#102D55"/>
</svg>
