<svg width="99" height="68" viewBox="0 0 99 68" fill="none" xmlns="http://www.w3.org/2000/svg">
<path d="M1 41.7954V47.6537V67H8.58042H9.63351L17.4524 43.5509L1 41.7954Z" fill="#D9D9D9"/>
<path d="M1 41.7954V47.6537V67H8.58042H9.63351L17.4524 43.5509L1 41.7954Z" fill="#A1C8E7"/>
<path d="M1 41.7954V47.6537V67H8.58042H9.63351L17.4524 43.5509L1 41.7954Z" fill="black" fill-opacity="0.2"/>
<path d="M14.712 67H21.6718H25.8848H55.3403H59.7003H69.8739H71.5916L62.9878 42.0156L42.1361 46.1846L21.5681 43.99L21.497 43.9824L14.712 67Z" fill="#D9D9D9"/>
<path d="M14.712 67H21.6718H25.8848H55.3403H59.7003H69.8739H71.5916L62.9878 42.0156L42.1361 46.1846L21.5681 43.99L21.497 43.9824L14.712 67Z" fill="#A1C8E7"/>
<path d="M14.712 67H21.6718H25.8848H55.3403H59.7003H69.8739H71.5916L62.9878 42.0156L42.1361 46.1846L21.5681 43.99L21.497 43.9824L14.712 67Z" fill="black" fill-opacity="0.2"/>
<path d="M25.0863 15.1236L26.9005 25.8769L24.2963 34.5549L23.1484 38.38L22.7997 39.563L42.1361 41.7954L61.5535 37.8506L60.1563 33.7935L57.4301 25.8769L59.0058 15.0292L59.6878 10.3336L42.1361 7.6L24.2272 10.0313L24.3453 10.7315L25.0863 15.1236Z" fill="#D9D9D9"/>
<path d="M25.0863 15.1236L26.9005 25.8769L24.2963 34.5549L23.1484 38.38L22.7997 39.563L42.1361 41.7954L61.5535 37.8506L60.1563 33.7935L57.4301 25.8769L59.0058 15.0292L59.6878 10.3336L42.1361 7.6L24.2272 10.0313L24.3453 10.7315L25.0863 15.1236Z" fill="#A1C8E7"/>
<path d="M25.0863 15.1236L26.9005 25.8769L24.2963 34.5549L23.1484 38.38L22.7997 39.563L42.1361 41.7954L61.5535 37.8506L60.1563 33.7935L57.4301 25.8769L59.0058 15.0292L59.6878 10.3336L42.1361 7.6L24.2272 10.0313L24.3453 10.7315L25.0863 15.1236Z" fill="black" fill-opacity="0.2"/>
<path d="M1 13.1846V37.0462L18.931 39.1163L19.7328 36.7118L20.9561 33.0429L23.3455 25.8769L21.853 16.8175L21.1392 12.4852L20.8113 10.4951L1 13.1846Z" fill="#D9D9D9"/>
<path d="M1 13.1846V37.0462L18.931 39.1163L19.7328 36.7118L20.9561 33.0429L23.3455 25.8769L21.853 16.8175L21.1392 12.4852L20.8113 10.4951L1 13.1846Z" fill="#A1C8E7"/>
<path d="M1 13.1846V37.0462L18.931 39.1163L19.7328 36.7118L20.9561 33.0429L23.3455 25.8769L21.853 16.8175L21.1392 12.4852L20.8113 10.4951L1 13.1846Z" fill="black" fill-opacity="0.2"/>
<path d="M1 1V5.79968V7.6L19.949 5.26134L19.247 1H16.8221H1Z" fill="#D9D9D9"/>
<path d="M1 1V5.79968V7.6L19.949 5.26134L19.247 1H16.8221H1Z" fill="#A1C8E7"/>
<path d="M1 1V5.79968V7.6L19.949 5.26134L19.247 1H16.8221H1Z" fill="black" fill-opacity="0.2"/>
<path d="M25.8848 1H22.7035L23.3516 4.84141L42.1361 2.52308L60.4292 5.22933L61.0435 1H57.4301H53.8168H42.1361H25.8848Z" fill="#D9D9D9"/>
<path d="M25.8848 1H22.7035L23.3516 4.84141L42.1361 2.52308L60.4292 5.22933L61.0435 1H57.4301H53.8168H42.1361H25.8848Z" fill="#A1C8E7"/>
<path d="M25.8848 1H22.7035L23.3516 4.84141L42.1361 2.52308L60.4292 5.22933L61.0435 1H57.4301H53.8168H42.1361H25.8848Z" fill="black" fill-opacity="0.2"/>
<path d="M84.9447 6.19182L81.7487 1H80.6042H68.2846H64.9895L64.2295 5.79153L86.7491 9.12308L84.9447 6.19182Z" fill="#D9D9D9"/>
<path d="M84.9447 6.19182L81.7487 1H80.6042H68.2846H64.9895L64.2295 5.79153L86.7491 9.12308L84.9447 6.19182Z" fill="#A1C8E7"/>
<path d="M84.9447 6.19182L81.7487 1H80.6042H68.2846H64.9895L64.2295 5.79153L86.7491 9.12308L84.9447 6.19182Z" fill="black" fill-opacity="0.2"/>
<path d="M64.803 36.5831L65.002 37.15L98 30.4462V27.4L90.4429 15.1236L63.4169 10.9144L63.3401 11.3986L62.4758 16.8471L61.0435 25.8769L63.2847 32.2593L64.803 36.5831Z" fill="#D9D9D9"/>
<path d="M64.803 36.5831L65.002 37.15L98 30.4462V27.4L90.4429 15.1236L63.4169 10.9144L63.3401 11.3986L62.4758 16.8471L61.0435 25.8769L63.2847 32.2593L64.803 36.5831Z" fill="#A1C8E7"/>
<path d="M64.803 36.5831L65.002 37.15L98 30.4462V27.4L90.4429 15.1236L63.4169 10.9144L63.3401 11.3986L62.4758 16.8471L61.0435 25.8769L63.2847 32.2593L64.803 36.5831Z" fill="black" fill-opacity="0.2"/>
<path d="M75.4838 67H81.7487L91.5378 50.4862L93.0689 47.9032L94.6001 45.3202L95.5924 43.6462L98 39.5846V35.0154L66.4663 41.3201L75.4838 67Z" fill="#D9D9D9"/>
<path d="M75.4838 67H81.7487L91.5378 50.4862L93.0689 47.9032L94.6001 45.3202L95.5924 43.6462L98 39.5846V35.0154L66.4663 41.3201L75.4838 67Z" fill="#A1C8E7"/>
<path d="M75.4838 67H81.7487L91.5378 50.4862L93.0689 47.9032L94.6001 45.3202L95.5924 43.6462L98 39.5846V35.0154L66.4663 41.3201L75.4838 67Z" fill="black" fill-opacity="0.2"/>
<path d="M98 35.0154V30.4462L65.002 37.15L66.4663 41.3201L98 35.0154Z" fill="#D9D9D9"/>
<path d="M98 35.0154V30.4462L65.002 37.15L66.4663 41.3201L98 35.0154Z" fill="#A1C8E7"/>
<path d="M98 35.0154V30.4462L65.002 37.15L66.4663 41.3201L98 35.0154Z" fill="black" fill-opacity="0.2"/>
<path d="M98 35.0154V30.4462L65.002 37.15L66.4663 41.3201L98 35.0154Z" fill="#102D55"/>
<path d="M90.4429 15.1236L86.7491 9.12308L64.2295 5.79153L63.4169 10.9144L90.4429 15.1236Z" fill="#D9D9D9"/>
<path d="M90.4429 15.1236L86.7491 9.12308L64.2295 5.79153L63.4169 10.9144L90.4429 15.1236Z" fill="#A1C8E7"/>
<path d="M90.4429 15.1236L86.7491 9.12308L64.2295 5.79153L63.4169 10.9144L90.4429 15.1236Z" fill="black" fill-opacity="0.2"/>
<path d="M90.4429 15.1236L86.7491 9.12308L64.2295 5.79153L63.4169 10.9144L90.4429 15.1236Z" fill="#102D55"/>
<path d="M71.5916 67H75.4838L66.4663 41.3201L62.9878 42.0156L71.5916 67Z" fill="#D9D9D9"/>
<path d="M71.5916 67H75.4838L66.4663 41.3201L62.9878 42.0156L71.5916 67Z" fill="#A1C8E7"/>
<path d="M71.5916 67H75.4838L66.4663 41.3201L62.9878 42.0156L71.5916 67Z" fill="black" fill-opacity="0.2"/>
<path d="M71.5916 67H75.4838L66.4663 41.3201L62.9878 42.0156L71.5916 67Z" fill="#102D55"/>
<path d="M61.6477 38.1242L62.9878 42.0156L66.4663 41.3201L65.002 37.15L61.5535 37.8506L61.6477 38.1242Z" fill="#D9D9D9"/>
<path d="M61.6477 38.1242L62.9878 42.0156L66.4663 41.3201L65.002 37.15L61.5535 37.8506L61.6477 38.1242Z" fill="#A1C8E7"/>
<path d="M61.6477 38.1242L62.9878 42.0156L66.4663 41.3201L65.002 37.15L61.5535 37.8506L61.6477 38.1242Z" fill="black" fill-opacity="0.2"/>
<path d="M61.6477 38.1242L62.9878 42.0156L66.4663 41.3201L65.002 37.15L61.5535 37.8506L61.6477 38.1242Z" fill="#102D55"/>
<path d="M21.5681 43.99L42.1361 46.1846L62.9878 42.0156L61.6477 38.1242L61.5535 37.8506L42.1361 41.7954L22.7997 39.563L21.497 43.9824L21.5681 43.99Z" fill="#D9D9D9"/>
<path d="M21.5681 43.99L42.1361 46.1846L62.9878 42.0156L61.6477 38.1242L61.5535 37.8506L42.1361 41.7954L22.7997 39.563L21.497 43.9824L21.5681 43.99Z" fill="#A1C8E7"/>
<path d="M21.5681 43.99L42.1361 46.1846L62.9878 42.0156L61.6477 38.1242L61.5535 37.8506L42.1361 41.7954L22.7997 39.563L21.497 43.9824L21.5681 43.99Z" fill="black" fill-opacity="0.2"/>
<path d="M21.5681 43.99L42.1361 46.1846L62.9878 42.0156L61.6477 38.1242L61.5535 37.8506L42.1361 41.7954L22.7997 39.563L21.497 43.9824L21.5681 43.99Z" fill="#102D55"/>
<path d="M17.4524 43.5509L21.497 43.9824L22.7997 39.563L18.931 39.1163L17.4524 43.5509Z" fill="#D9D9D9"/>
<path d="M17.4524 43.5509L21.497 43.9824L22.7997 39.563L18.931 39.1163L17.4524 43.5509Z" fill="#A1C8E7"/>
<path d="M17.4524 43.5509L21.497 43.9824L22.7997 39.563L18.931 39.1163L17.4524 43.5509Z" fill="black" fill-opacity="0.2"/>
<path d="M17.4524 43.5509L21.497 43.9824L22.7997 39.563L18.931 39.1163L17.4524 43.5509Z" fill="#102D55"/>
<path d="M1 37.0462V41.7954L17.4524 43.5509L18.931 39.1163L1 37.0462Z" fill="#D9D9D9"/>
<path d="M1 37.0462V41.7954L17.4524 43.5509L18.931 39.1163L1 37.0462Z" fill="#A1C8E7"/>
<path d="M1 37.0462V41.7954L17.4524 43.5509L18.931 39.1163L1 37.0462Z" fill="black" fill-opacity="0.2"/>
<path d="M1 37.0462V41.7954L17.4524 43.5509L18.931 39.1163L1 37.0462Z" fill="#102D55"/>
<path d="M12.9983 67H14.712L21.497 43.9824L17.4524 43.5509L9.63351 67H12.9983Z" fill="#D9D9D9"/>
<path d="M12.9983 67H14.712L21.497 43.9824L17.4524 43.5509L9.63351 67H12.9983Z" fill="#A1C8E7"/>
<path d="M12.9983 67H14.712L21.497 43.9824L17.4524 43.5509L9.63351 67H12.9983Z" fill="black" fill-opacity="0.2"/>
<path d="M12.9983 67H14.712L21.497 43.9824L17.4524 43.5509L9.63351 67H12.9983Z" fill="#102D55"/>
<path d="M26.9005 25.8769L25.0863 15.1236L24.3453 10.7315L24.2272 10.0313L20.8113 10.4951L21.1392 12.4852L21.853 16.8175L23.3455 25.8769L20.9561 33.0429L19.7328 36.7118L18.931 39.1163L22.7997 39.563L23.1484 38.38L24.2963 34.5549L26.9005 25.8769Z" fill="#D9D9D9"/>
<path d="M26.9005 25.8769L25.0863 15.1236L24.3453 10.7315L24.2272 10.0313L20.8113 10.4951L21.1392 12.4852L21.853 16.8175L23.3455 25.8769L20.9561 33.0429L19.7328 36.7118L18.931 39.1163L22.7997 39.563L23.1484 38.38L24.2963 34.5549L26.9005 25.8769Z" fill="#A1C8E7"/>
<path d="M26.9005 25.8769L25.0863 15.1236L24.3453 10.7315L24.2272 10.0313L20.8113 10.4951L21.1392 12.4852L21.853 16.8175L23.3455 25.8769L20.9561 33.0429L19.7328 36.7118L18.931 39.1163L22.7997 39.563L23.1484 38.38L24.2963 34.5549L26.9005 25.8769Z" fill="black" fill-opacity="0.2"/>
<path d="M26.9005 25.8769L25.0863 15.1236L24.3453 10.7315L24.2272 10.0313L20.8113 10.4951L21.1392 12.4852L21.853 16.8175L23.3455 25.8769L20.9561 33.0429L19.7328 36.7118L18.931 39.1163L22.7997 39.563L23.1484 38.38L24.2963 34.5549L26.9005 25.8769Z" fill="#102D55"/>
<path d="M1 11.3843V13.1846L20.8113 10.4951L19.949 5.26134L1 7.6V11.3843Z" fill="#D9D9D9"/>
<path d="M1 11.3843V13.1846L20.8113 10.4951L19.949 5.26134L1 7.6V11.3843Z" fill="#A1C8E7"/>
<path d="M1 11.3843V13.1846L20.8113 10.4951L19.949 5.26134L1 7.6V11.3843Z" fill="black" fill-opacity="0.2"/>
<path d="M1 11.3843V13.1846L20.8113 10.4951L19.949 5.26134L1 7.6V11.3843Z" fill="#102D55"/>
<path d="M20.8113 10.4951L24.2272 10.0313L23.3516 4.84141L19.949 5.26134L20.8113 10.4951Z" fill="#D9D9D9"/>
<path d="M20.8113 10.4951L24.2272 10.0313L23.3516 4.84141L19.949 5.26134L20.8113 10.4951Z" fill="#A1C8E7"/>
<path d="M20.8113 10.4951L24.2272 10.0313L23.3516 4.84141L19.949 5.26134L20.8113 10.4951Z" fill="black" fill-opacity="0.2"/>
<path d="M20.8113 10.4951L24.2272 10.0313L23.3516 4.84141L19.949 5.26134L20.8113 10.4951Z" fill="#102D55"/>
<path d="M22.7035 1H21.6718H19.247L19.949 5.26134L23.3516 4.84141L22.7035 1Z" fill="#D9D9D9"/>
<path d="M22.7035 1H21.6718H19.247L19.949 5.26134L23.3516 4.84141L22.7035 1Z" fill="#A1C8E7"/>
<path d="M22.7035 1H21.6718H19.247L19.949 5.26134L23.3516 4.84141L22.7035 1Z" fill="black" fill-opacity="0.2"/>
<path d="M22.7035 1H21.6718H19.247L19.949 5.26134L23.3516 4.84141L22.7035 1Z" fill="#102D55"/>
<path d="M57.4301 25.8769L60.1563 33.7935L61.5535 37.8506L65.002 37.15L64.803 36.5831L63.2847 32.2593L61.0435 25.8769L62.4758 16.8471L63.3401 11.3986L63.4169 10.9144L59.6878 10.3336L59.0058 15.0292L57.4301 25.8769Z" fill="#D9D9D9"/>
<path d="M57.4301 25.8769L60.1563 33.7935L61.5535 37.8506L65.002 37.15L64.803 36.5831L63.2847 32.2593L61.0435 25.8769L62.4758 16.8471L63.3401 11.3986L63.4169 10.9144L59.6878 10.3336L59.0058 15.0292L57.4301 25.8769Z" fill="#A1C8E7"/>
<path d="M57.4301 25.8769L60.1563 33.7935L61.5535 37.8506L65.002 37.15L64.803 36.5831L63.2847 32.2593L61.0435 25.8769L62.4758 16.8471L63.3401 11.3986L63.4169 10.9144L59.6878 10.3336L59.0058 15.0292L57.4301 25.8769Z" fill="black" fill-opacity="0.2"/>
<path d="M57.4301 25.8769L60.1563 33.7935L61.5535 37.8506L65.002 37.15L64.803 36.5831L63.2847 32.2593L61.0435 25.8769L62.4758 16.8471L63.3401 11.3986L63.4169 10.9144L59.6878 10.3336L59.0058 15.0292L57.4301 25.8769Z" fill="#102D55"/>
<path d="M42.1361 7.6L59.6878 10.3336L59.7862 9.65581L60.4292 5.22933L42.1361 2.52308L23.3516 4.84141L24.2272 10.0313L42.1361 7.6Z" fill="#D9D9D9"/>
<path d="M42.1361 7.6L59.6878 10.3336L59.7862 9.65581L60.4292 5.22933L42.1361 2.52308L23.3516 4.84141L24.2272 10.0313L42.1361 7.6Z" fill="#A1C8E7"/>
<path d="M42.1361 7.6L59.6878 10.3336L59.7862 9.65581L60.4292 5.22933L42.1361 2.52308L23.3516 4.84141L24.2272 10.0313L42.1361 7.6Z" fill="black" fill-opacity="0.2"/>
<path d="M42.1361 7.6L59.6878 10.3336L59.7862 9.65581L60.4292 5.22933L42.1361 2.52308L23.3516 4.84141L24.2272 10.0313L42.1361 7.6Z" fill="#102D55"/>
<path d="M64.9895 1H61.0435L60.4292 5.22933L64.2295 5.79153L64.9895 1Z" fill="#D9D9D9"/>
<path d="M64.9895 1H61.0435L60.4292 5.22933L64.2295 5.79153L64.9895 1Z" fill="#A1C8E7"/>
<path d="M64.9895 1H61.0435L60.4292 5.22933L64.2295 5.79153L64.9895 1Z" fill="black" fill-opacity="0.2"/>
<path d="M64.9895 1H61.0435L60.4292 5.22933L64.2295 5.79153L64.9895 1Z" fill="#102D55"/>
<path d="M59.7862 9.65581L59.6878 10.3336L63.4169 10.9144L64.2295 5.79153L60.4292 5.22933L59.7862 9.65581Z" fill="#D9D9D9"/>
<path d="M59.7862 9.65581L59.6878 10.3336L63.4169 10.9144L64.2295 5.79153L60.4292 5.22933L59.7862 9.65581Z" fill="#A1C8E7"/>
<path d="M59.7862 9.65581L59.6878 10.3336L63.4169 10.9144L64.2295 5.79153L60.4292 5.22933L59.7862 9.65581Z" fill="black" fill-opacity="0.2"/>
<path d="M59.7862 9.65581L59.6878 10.3336L63.4169 10.9144L64.2295 5.79153L60.4292 5.22933L59.7862 9.65581Z" fill="#102D55"/>
<path d="M1 41.7954V47.6537V67H8.58042H9.63351M1 41.7954V37.0462M1 41.7954L17.4524 43.5509M12.9983 67H21.6718M12.9983 67H9.63351M12.9983 67H14.712M75.4838 67H81.7487L91.5378 50.4862L93.0689 47.9032L94.6001 45.3202L95.5924 43.6462L98 39.5846V35.0154M75.4838 67H71.5916M75.4838 67L66.4663 41.3201M61.0435 1H57.4301H53.8168H42.1361H25.8848H22.7035M61.0435 1H64.9895M61.0435 1L60.4292 5.22933M22.7035 1H21.6718H19.247M22.7035 1L23.3516 4.84141M21.6718 67H25.8848H55.3403H59.7003H69.8739H71.5916M21.6718 67H14.712M1 13.1846V11.3843V7.6M1 13.1846V37.0462M1 13.1846L20.8113 10.4951M86.7491 9.12308L84.9447 6.19182L81.7487 1H80.6042H68.2846H64.9895M86.7491 9.12308L90.4429 15.1236M86.7491 9.12308L64.2295 5.79153M1 7.6V5.79968V1H16.8221H19.247M1 7.6L19.949 5.26134M1 37.0462L18.931 39.1163M19.247 1L19.949 5.26134M9.63351 67L17.4524 43.5509M14.712 67L21.497 43.9824M71.5916 67L62.9878 42.0156M64.9895 1L64.2295 5.79153M90.4429 15.1236L98 27.4V30.4462M90.4429 15.1236L63.4169 10.9144M98 30.4462V35.0154M98 30.4462L65.002 37.15M98 35.0154L66.4663 41.3201M17.4524 43.5509L21.497 43.9824M17.4524 43.5509L18.931 39.1163M62.9878 42.0156L42.1361 46.1846L21.5681 43.99L21.497 43.9824M62.9878 42.0156L61.6477 38.1242L61.5535 37.8506M62.9878 42.0156L66.4663 41.3201M21.497 43.9824L22.7997 39.563M22.7997 39.563L23.1484 38.38L24.2963 34.5549L26.9005 25.8769L25.0863 15.1236L24.3453 10.7315L24.2272 10.0313M22.7997 39.563L42.1361 41.7954L61.5535 37.8506M22.7997 39.563L18.931 39.1163M61.5535 37.8506L60.1563 33.7935L57.4301 25.8769L59.0058 15.0292L59.6878 10.3336M61.5535 37.8506L65.002 37.15M59.6878 10.3336L42.1361 7.6L24.2272 10.0313M59.6878 10.3336L59.7862 9.65581L60.4292 5.22933M59.6878 10.3336L63.4169 10.9144M24.2272 10.0313L20.8113 10.4951M24.2272 10.0313L23.3516 4.84141M18.931 39.1163L19.7328 36.7118L20.9561 33.0429L23.3455 25.8769L21.853 16.8175L21.1392 12.4852L20.8113 10.4951M20.8113 10.4951L19.949 5.26134M19.949 5.26134L23.3516 4.84141M23.3516 4.84141L42.1361 2.52308L60.4292 5.22933M60.4292 5.22933L64.2295 5.79153M64.2295 5.79153L63.4169 10.9144M65.002 37.15L64.803 36.5831L63.2847 32.2593L61.0435 25.8769L62.4758 16.8471L63.3401 11.3986L63.4169 10.9144M65.002 37.15L66.4663 41.3201" stroke="black"/>
<path d="M1 41.7954V47.6537V67H8.58042H9.63351M1 41.7954V37.0462M1 41.7954L17.4524 43.5509M12.9983 67H21.6718M12.9983 67H9.63351M12.9983 67H14.712M75.4838 67H81.7487L91.5378 50.4862L93.0689 47.9032L94.6001 45.3202L95.5924 43.6462L98 39.5846V35.0154M75.4838 67H71.5916M75.4838 67L66.4663 41.3201M61.0435 1H57.4301H53.8168H42.1361H25.8848H22.7035M61.0435 1H64.9895M61.0435 1L60.4292 5.22933M22.7035 1H21.6718H19.247M22.7035 1L23.3516 4.84141M21.6718 67H25.8848H55.3403H59.7003H69.8739H71.5916M21.6718 67H14.712M1 13.1846V11.3843V7.6M1 13.1846V37.0462M1 13.1846L20.8113 10.4951M86.7491 9.12308L84.9447 6.19182L81.7487 1H80.6042H68.2846H64.9895M86.7491 9.12308L90.4429 15.1236M86.7491 9.12308L64.2295 5.79153M1 7.6V5.79968V1H16.8221H19.247M1 7.6L19.949 5.26134M1 37.0462L18.931 39.1163M19.247 1L19.949 5.26134M9.63351 67L17.4524 43.5509M14.712 67L21.497 43.9824M71.5916 67L62.9878 42.0156M64.9895 1L64.2295 5.79153M90.4429 15.1236L98 27.4V30.4462M90.4429 15.1236L63.4169 10.9144M98 30.4462V35.0154M98 30.4462L65.002 37.15M98 35.0154L66.4663 41.3201M17.4524 43.5509L21.497 43.9824M17.4524 43.5509L18.931 39.1163M62.9878 42.0156L42.1361 46.1846L21.5681 43.99L21.497 43.9824M62.9878 42.0156L61.6477 38.1242L61.5535 37.8506M62.9878 42.0156L66.4663 41.3201M21.497 43.9824L22.7997 39.563M22.7997 39.563L23.1484 38.38L24.2963 34.5549L26.9005 25.8769L25.0863 15.1236L24.3453 10.7315L24.2272 10.0313M22.7997 39.563L42.1361 41.7954L61.5535 37.8506M22.7997 39.563L18.931 39.1163M61.5535 37.8506L60.1563 33.7935L57.4301 25.8769L59.0058 15.0292L59.6878 10.3336M61.5535 37.8506L65.002 37.15M59.6878 10.3336L42.1361 7.6L24.2272 10.0313M59.6878 10.3336L59.7862 9.65581L60.4292 5.22933M59.6878 10.3336L63.4169 10.9144M24.2272 10.0313L20.8113 10.4951M24.2272 10.0313L23.3516 4.84141M18.931 39.1163L19.7328 36.7118L20.9561 33.0429L23.3455 25.8769L21.853 16.8175L21.1392 12.4852L20.8113 10.4951M20.8113 10.4951L19.949 5.26134M19.949 5.26134L23.3516 4.84141M23.3516 4.84141L42.1361 2.52308L60.4292 5.22933M60.4292 5.22933L64.2295 5.79153M64.2295 5.79153L63.4169 10.9144M65.002 37.15L64.803 36.5831L63.2847 32.2593L61.0435 25.8769L62.4758 16.8471L63.3401 11.3986L63.4169 10.9144M65.002 37.15L66.4663 41.3201" stroke="#102D55"/>
</svg>
