<svg width="99" height="68" viewBox="0 0 99 68" fill="none" xmlns="http://www.w3.org/2000/svg">
<path d="M1 41.7954V47.6537V67H8.58042H9.63351H12.9983H14.712H21.6718H25.8848L22.1429 44.0513L21.5681 43.99L20.8667 43.9152L16.8221 43.4836L1 41.7954Z" fill="#D9D9D9"/>
<path d="M1 41.7954V47.6537V67H8.58042H9.63351H12.9983H14.712H21.6718H25.8848L22.1429 44.0513L21.5681 43.99L20.8667 43.9152L16.8221 43.4836L1 41.7954Z" fill="#A1C8E7"/>
<path d="M1 41.7954V47.6537V67H8.58042H9.63351H12.9983H14.712H21.6718H25.8848L22.1429 44.0513L21.5681 43.99L20.8667 43.9152L16.8221 43.4836L1 41.7954Z" fill="black" fill-opacity="0.2"/>
<path d="M60.9176 42.4295L42.1361 46.1846L26.2258 44.487L29.4398 67H55.3403H57.5203L60.9176 42.4295Z" fill="#D9D9D9"/>
<path d="M60.9176 42.4295L42.1361 46.1846L26.2258 44.487L29.4398 67H55.3403H57.5203L60.9176 42.4295Z" fill="#A1C8E7"/>
<path d="M60.9176 42.4295L42.1361 46.1846L26.2258 44.487L29.4398 67H55.3403H57.5203L60.9176 42.4295Z" fill="black" fill-opacity="0.2"/>
<path d="M75.4838 67H81.7487L91.5378 50.4862L93.0689 47.9032L94.6001 45.3202L95.5924 43.6462L98 39.5846V35.0154L66.4663 41.3201L65.5787 41.4976L61.5535 67H69.8739H71.5916H75.4838Z" fill="#D9D9D9"/>
<path d="M75.4838 67H81.7487L91.5378 50.4862L93.0689 47.9032L94.6001 45.3202L95.5924 43.6462L98 39.5846V35.0154L66.4663 41.3201L65.5787 41.4976L61.5535 67H69.8739H71.5916H75.4838Z" fill="#A1C8E7"/>
<path d="M75.4838 67H81.7487L91.5378 50.4862L93.0689 47.9032L94.6001 45.3202L95.5924 43.6462L98 39.5846V35.0154L66.4663 41.3201L65.5787 41.4976L61.5535 67H69.8739H71.5916H75.4838Z" fill="black" fill-opacity="0.2"/>
<path d="M98 27.4L90.4429 15.1236L63.4169 10.9144L63.0561 10.8582L68.2846 24.3538L66.3068 36.885L98 30.4462V27.4Z" fill="#D9D9D9"/>
<path d="M98 27.4L90.4429 15.1236L63.4169 10.9144L63.0561 10.8582L68.2846 24.3538L66.3068 36.885L98 30.4462V27.4Z" fill="#A1C8E7"/>
<path d="M98 27.4L90.4429 15.1236L63.4169 10.9144L63.0561 10.8582L68.2846 24.3538L66.3068 36.885L98 30.4462V27.4Z" fill="black" fill-opacity="0.2"/>
<path d="M25.5685 39.8827L42.1361 41.7954L61.5506 37.8512L63.4169 24.3538L58.6861 10.1776L42.1361 7.6L27.1903 9.62903L23.3516 24.3538L25.5685 39.8827Z" fill="#D9D9D9"/>
<path d="M25.5685 39.8827L42.1361 41.7954L61.5506 37.8512L63.4169 24.3538L58.6861 10.1776L42.1361 7.6L27.1903 9.62903L23.3516 24.3538L25.5685 39.8827Z" fill="#A1C8E7"/>
<path d="M25.5685 39.8827L42.1361 41.7954L61.5506 37.8512L63.4169 24.3538L58.6861 10.1776L42.1361 7.6L27.1903 9.62903L23.3516 24.3538L25.5685 39.8827Z" fill="black" fill-opacity="0.2"/>
<path d="M84.9447 6.19182L81.7487 1H80.6042H68.2846H64.9895H61.0435H59.2368L60.9025 5.29936L64.2295 5.79153L86.7491 9.12308L84.9447 6.19182Z" fill="#D9D9D9"/>
<path d="M84.9447 6.19182L81.7487 1H80.6042H68.2846H64.9895H61.0435H59.2368L60.9025 5.29936L64.2295 5.79153L86.7491 9.12308L84.9447 6.19182Z" fill="#A1C8E7"/>
<path d="M84.9447 6.19182L81.7487 1H80.6042H68.2846H64.9895H61.0435H59.2368L60.9025 5.29936L64.2295 5.79153L86.7491 9.12308L84.9447 6.19182Z" fill="black" fill-opacity="0.2"/>
<path d="M53.8168 1H42.1361H29.4398L28.6075 4.19275L42.1361 2.52308L56.8585 4.7011L55.6234 1H53.8168Z" fill="#D9D9D9"/>
<path d="M53.8168 1H42.1361H29.4398L28.6075 4.19275L42.1361 2.52308L56.8585 4.7011L55.6234 1H53.8168Z" fill="#A1C8E7"/>
<path d="M53.8168 1H42.1361H29.4398L28.6075 4.19275L42.1361 2.52308L56.8585 4.7011L55.6234 1H53.8168Z" fill="black" fill-opacity="0.2"/>
<path d="M1 1V5.79968V7.6L19.949 5.26134L23.3516 4.84141L24.794 4.66339L25.8848 1H22.7035H21.6718H19.247H16.8221H1Z" fill="#D9D9D9"/>
<path d="M1 1V5.79968V7.6L19.949 5.26134L23.3516 4.84141L24.794 4.66339L25.8848 1H22.7035H21.6718H19.247H16.8221H1Z" fill="#A1C8E7"/>
<path d="M1 1V5.79968V7.6L19.949 5.26134L23.3516 4.84141L24.794 4.66339L25.8848 1H22.7035H21.6718H19.247H16.8221H1Z" fill="black" fill-opacity="0.2"/>
<path d="M1 13.1846V37.0462L18.931 39.1163L21.3843 39.3996L18.931 24.3538L23.1522 10.1773L20.8113 10.4951L1 13.1846Z" fill="#D9D9D9"/>
<path d="M1 13.1846V37.0462L18.931 39.1163L21.3843 39.3996L18.931 24.3538L23.1522 10.1773L20.8113 10.4951L1 13.1846Z" fill="#A1C8E7"/>
<path d="M1 13.1846V37.0462L18.931 39.1163L21.3843 39.3996L18.931 24.3538L23.1522 10.1773L20.8113 10.4951L1 13.1846Z" fill="black" fill-opacity="0.2"/>
<path fill-rule="evenodd" clip-rule="evenodd" d="M1 11.3843V13.1846L20.8113 10.4951L23.1522 10.1773L18.931 24.3538L21.3843 39.3996L18.931 39.1163L1 37.0462V41.7954L16.8221 43.4836L20.8667 43.9152L21.5681 43.99L22.1429 44.0513L25.8848 67H29.4398L26.2258 44.487L42.1361 46.1846L60.9176 42.4295L57.5203 67H59.7003H61.5535L65.5787 41.4976L66.4663 41.3201L98 35.0154V30.4462L66.3068 36.885L68.2846 24.3538L63.0561 10.8582L63.4169 10.9144L90.4429 15.1236L86.7491 9.12308L64.2295 5.79153L60.9025 5.29936L59.2368 1H57.4301H55.6234L56.8585 4.7011L42.1361 2.52308L28.6075 4.19275L29.4398 1H25.8848L24.794 4.66339L23.3516 4.84141L19.949 5.26134L1 7.6V11.3843ZM42.1361 41.7954L25.5685 39.8827L23.3516 24.3538L27.1903 9.62903L42.1361 7.6L58.6861 10.1776L63.4169 24.3538L61.5506 37.8512L42.1361 41.7954Z" fill="#D9D9D9"/>
<path fill-rule="evenodd" clip-rule="evenodd" d="M1 11.3843V13.1846L20.8113 10.4951L23.1522 10.1773L18.931 24.3538L21.3843 39.3996L18.931 39.1163L1 37.0462V41.7954L16.8221 43.4836L20.8667 43.9152L21.5681 43.99L22.1429 44.0513L25.8848 67H29.4398L26.2258 44.487L42.1361 46.1846L60.9176 42.4295L57.5203 67H59.7003H61.5535L65.5787 41.4976L66.4663 41.3201L98 35.0154V30.4462L66.3068 36.885L68.2846 24.3538L63.0561 10.8582L63.4169 10.9144L90.4429 15.1236L86.7491 9.12308L64.2295 5.79153L60.9025 5.29936L59.2368 1H57.4301H55.6234L56.8585 4.7011L42.1361 2.52308L28.6075 4.19275L29.4398 1H25.8848L24.794 4.66339L23.3516 4.84141L19.949 5.26134L1 7.6V11.3843ZM42.1361 41.7954L25.5685 39.8827L23.3516 24.3538L27.1903 9.62903L42.1361 7.6L58.6861 10.1776L63.4169 24.3538L61.5506 37.8512L42.1361 41.7954Z" fill="#A1C8E7"/>
<path fill-rule="evenodd" clip-rule="evenodd" d="M1 11.3843V13.1846L20.8113 10.4951L23.1522 10.1773L18.931 24.3538L21.3843 39.3996L18.931 39.1163L1 37.0462V41.7954L16.8221 43.4836L20.8667 43.9152L21.5681 43.99L22.1429 44.0513L25.8848 67H29.4398L26.2258 44.487L42.1361 46.1846L60.9176 42.4295L57.5203 67H59.7003H61.5535L65.5787 41.4976L66.4663 41.3201L98 35.0154V30.4462L66.3068 36.885L68.2846 24.3538L63.0561 10.8582L63.4169 10.9144L90.4429 15.1236L86.7491 9.12308L64.2295 5.79153L60.9025 5.29936L59.2368 1H57.4301H55.6234L56.8585 4.7011L42.1361 2.52308L28.6075 4.19275L29.4398 1H25.8848L24.794 4.66339L23.3516 4.84141L19.949 5.26134L1 7.6V11.3843ZM42.1361 41.7954L25.5685 39.8827L23.3516 24.3538L27.1903 9.62903L42.1361 7.6L58.6861 10.1776L63.4169 24.3538L61.5506 37.8512L42.1361 41.7954Z" fill="black" fill-opacity="0.2"/>
<path fill-rule="evenodd" clip-rule="evenodd" d="M1 11.3843V13.1846L20.8113 10.4951L23.1522 10.1773L18.931 24.3538L21.3843 39.3996L18.931 39.1163L1 37.0462V41.7954L16.8221 43.4836L20.8667 43.9152L21.5681 43.99L22.1429 44.0513L25.8848 67H29.4398L26.2258 44.487L42.1361 46.1846L60.9176 42.4295L57.5203 67H59.7003H61.5535L65.5787 41.4976L66.4663 41.3201L98 35.0154V30.4462L66.3068 36.885L68.2846 24.3538L63.0561 10.8582L63.4169 10.9144L90.4429 15.1236L86.7491 9.12308L64.2295 5.79153L60.9025 5.29936L59.2368 1H57.4301H55.6234L56.8585 4.7011L42.1361 2.52308L28.6075 4.19275L29.4398 1H25.8848L24.794 4.66339L23.3516 4.84141L19.949 5.26134L1 7.6V11.3843ZM42.1361 41.7954L25.5685 39.8827L23.3516 24.3538L27.1903 9.62903L42.1361 7.6L58.6861 10.1776L63.4169 24.3538L61.5506 37.8512L42.1361 41.7954Z" fill="#102D55"/>
<path d="M1 41.7954V47.6537V67H8.58042H9.63351H12.9983M1 41.7954V37.0462M1 41.7954L16.8221 43.4836L20.8667 43.9152L21.5681 43.99L22.1429 44.0513L25.8848 67M12.9983 67H21.6718M12.9983 67H14.712H21.6718M21.6718 67H25.8848M25.8848 67H29.4398M25.8848 1H22.7035H21.6718H19.247H16.8221H1V5.79968V7.6M25.8848 1H29.4398M25.8848 1L24.794 4.66339L23.3516 4.84141L19.949 5.26134L1 7.6M1 13.1846V11.3843V7.6M1 13.1846V37.0462M1 13.1846L20.8113 10.4951L23.1522 10.1773L18.931 24.3538L21.3843 39.3996L18.931 39.1163L1 37.0462M86.7491 9.12308L84.9447 6.19182L81.7487 1H80.6042H68.2846H64.9895H61.0435H59.2368M86.7491 9.12308L90.4429 15.1236M86.7491 9.12308L64.2295 5.79153L60.9025 5.29936L59.2368 1M61.6477 38.1242L61.5535 37.8506L61.5506 37.8512M63.3401 11.3986L63.4169 10.9144M90.4429 15.1236L98 27.4V30.4462M90.4429 15.1236L63.4169 10.9144M98 30.4462V35.0154M98 30.4462L66.3068 36.885L68.2846 24.3538L63.0561 10.8582L63.4169 10.9144M98 35.0154V39.5846L95.5924 43.6462L94.6001 45.3202L93.0689 47.9032L91.5378 50.4862L81.7487 67H75.4838H71.5916H69.8739H61.5535M98 35.0154L66.4663 41.3201L65.5787 41.4976L61.5535 67M29.4398 67H55.3403H57.5203M29.4398 67L26.2258 44.487L42.1361 46.1846L60.9176 42.4295L57.5203 67M29.4398 1H42.1361H53.8168H55.6234M29.4398 1L28.6075 4.19275L42.1361 2.52308L56.8585 4.7011L55.6234 1M55.6234 1H57.4301H59.2368M57.5203 67H59.7003H61.5535M61.5506 37.8512L42.1361 41.7954L25.5685 39.8827L23.3516 24.3538L27.1903 9.62903L42.1361 7.6L58.6861 10.1776L63.4169 24.3538L61.5506 37.8512Z" stroke="black"/>
<path d="M1 41.7954V47.6537V67H8.58042H9.63351H12.9983M1 41.7954V37.0462M1 41.7954L16.8221 43.4836L20.8667 43.9152L21.5681 43.99L22.1429 44.0513L25.8848 67M12.9983 67H21.6718M12.9983 67H14.712H21.6718M21.6718 67H25.8848M25.8848 67H29.4398M25.8848 1H22.7035H21.6718H19.247H16.8221H1V5.79968V7.6M25.8848 1H29.4398M25.8848 1L24.794 4.66339L23.3516 4.84141L19.949 5.26134L1 7.6M1 13.1846V11.3843V7.6M1 13.1846V37.0462M1 13.1846L20.8113 10.4951L23.1522 10.1773L18.931 24.3538L21.3843 39.3996L18.931 39.1163L1 37.0462M86.7491 9.12308L84.9447 6.19182L81.7487 1H80.6042H68.2846H64.9895H61.0435H59.2368M86.7491 9.12308L90.4429 15.1236M86.7491 9.12308L64.2295 5.79153L60.9025 5.29936L59.2368 1M61.6477 38.1242L61.5535 37.8506L61.5506 37.8512M63.3401 11.3986L63.4169 10.9144M90.4429 15.1236L98 27.4V30.4462M90.4429 15.1236L63.4169 10.9144M98 30.4462V35.0154M98 30.4462L66.3068 36.885L68.2846 24.3538L63.0561 10.8582L63.4169 10.9144M98 35.0154V39.5846L95.5924 43.6462L94.6001 45.3202L93.0689 47.9032L91.5378 50.4862L81.7487 67H75.4838H71.5916H69.8739H61.5535M98 35.0154L66.4663 41.3201L65.5787 41.4976L61.5535 67M29.4398 67H55.3403H57.5203M29.4398 67L26.2258 44.487L42.1361 46.1846L60.9176 42.4295L57.5203 67M29.4398 1H42.1361H53.8168H55.6234M29.4398 1L28.6075 4.19275L42.1361 2.52308L56.8585 4.7011L55.6234 1M55.6234 1H57.4301H59.2368M57.5203 67H59.7003H61.5535M61.5506 37.8512L42.1361 41.7954L25.5685 39.8827L23.3516 24.3538L27.1903 9.62903L42.1361 7.6L58.6861 10.1776L63.4169 24.3538L61.5506 37.8512Z" stroke="#102D55"/>
</svg>
