<svg width="120" height="75" viewBox="0 0 120 75" fill="none" xmlns="http://www.w3.org/2000/svg">
<path d="M1 48.5349V55.3256C19.537 46.8372 12.7963 41.7442 39.7593 55.3256V74H51.5556V55.3256C70.0926 46.8372 65.037 41.7442 92 55.3256V48.5349C65.037 34.9535 70.0926 40.0465 51.5556 48.5349V34.9535C70.0926 26.4651 65.037 21.3721 92 34.9535V28.1628C65.037 14.5814 70.0926 19.6744 51.5556 28.1628V1H39.7593V27.3176C14.6868 14.8006 19.1409 19.8558 1 28.1628V34.9535C19.1409 26.6465 14.6868 21.5913 39.7593 34.1082V48.5349C12.7963 34.9535 19.537 40.0465 1 48.5349Z" fill="#D9D9D9"/>
<path d="M1 48.5349V55.3256C19.537 46.8372 12.7963 41.7442 39.7593 55.3256V74H51.5556V55.3256C70.0926 46.8372 65.037 41.7442 92 55.3256V48.5349C65.037 34.9535 70.0926 40.0465 51.5556 48.5349V34.9535C70.0926 26.4651 65.037 21.3721 92 34.9535V28.1628C65.037 14.5814 70.0926 19.6744 51.5556 28.1628V1H39.7593V27.3176C14.6868 14.8006 19.1409 19.8558 1 28.1628V34.9535C19.1409 26.6465 14.6868 21.5913 39.7593 34.1082V48.5349C12.7963 34.9535 19.537 40.0465 1 48.5349Z" fill="#59543E"/>
<path d="M1 1V28.1628C19.1409 19.8558 14.6868 14.8006 39.7593 27.3176V1H1Z" fill="#D9D9D9"/>
<path d="M1 1V28.1628C19.1409 19.8558 14.6868 14.8006 39.7593 27.3176V1H1Z" fill="#59543E"/>
<path d="M1 1V28.1628C19.1409 19.8558 14.6868 14.8006 39.7593 27.3176V1H1Z" fill="#FDFF04"/>
<path d="M92 1H51.5556V28.1628C70.0926 19.6744 65.037 14.5814 92 28.1628V1Z" fill="#D9D9D9"/>
<path d="M92 1H51.5556V28.1628C70.0926 19.6744 65.037 14.5814 92 28.1628V1Z" fill="#59543E"/>
<path d="M92 1H51.5556V28.1628C70.0926 19.6744 65.037 14.5814 92 28.1628V1Z" fill="#FBFA00"/>
<path d="M92 48.5349V34.9535C65.037 21.3721 70.0926 26.4651 51.5556 34.9535V48.5349C70.0926 40.0465 65.037 34.9535 92 48.5349Z" fill="#D9D9D9"/>
<path d="M92 48.5349V34.9535C65.037 21.3721 70.0926 26.4651 51.5556 34.9535V48.5349C70.0926 40.0465 65.037 34.9535 92 48.5349Z" fill="#59543E"/>
<path d="M92 48.5349V34.9535C65.037 21.3721 70.0926 26.4651 51.5556 34.9535V48.5349C70.0926 40.0465 65.037 34.9535 92 48.5349Z" fill="#FBFA00"/>
<path d="M1 34.9535V48.5349C19.537 40.0465 12.7963 34.9535 39.7593 48.5349V34.1082C14.6868 21.5913 19.1409 26.6465 1 34.9535Z" fill="#D9D9D9"/>
<path d="M1 34.9535V48.5349C19.537 40.0465 12.7963 34.9535 39.7593 48.5349V34.1082C14.6868 21.5913 19.1409 26.6465 1 34.9535Z" fill="#59543E"/>
<path d="M1 34.9535V48.5349C19.537 40.0465 12.7963 34.9535 39.7593 48.5349V34.1082C14.6868 21.5913 19.1409 26.6465 1 34.9535Z" fill="#FBFA00"/>
<path d="M1 55.3256V74H39.7593V55.3256C12.7963 41.7442 19.537 46.8372 1 55.3256Z" fill="#D9D9D9"/>
<path d="M1 55.3256V74H39.7593V55.3256C12.7963 41.7442 19.537 46.8372 1 55.3256Z" fill="#59543E"/>
<path d="M1 55.3256V74H39.7593V55.3256C12.7963 41.7442 19.537 46.8372 1 55.3256Z" fill="#FBFA00"/>
<path d="M51.5556 74H92V55.3256C65.037 41.7442 70.0926 46.8372 51.5556 55.3256V74Z" fill="#D9D9D9"/>
<path d="M51.5556 74H92V55.3256C65.037 41.7442 70.0926 46.8372 51.5556 55.3256V74Z" fill="#59543E"/>
<path d="M51.5556 74H92V55.3256C65.037 41.7442 70.0926 46.8372 51.5556 55.3256V74Z" fill="#FBFA00"/>
<path d="M1 1V74M1 1H39.7593M1 1V28.1628M92 1H51.5556M92 1V28.1628M92 1L117 31L119 34.1082V37V40.5L117 43L92 74M92 74H51.5556M92 74V28.1628M92 74V55.3256M1 74H39.7593M1 74V55.3256M39.7593 1H51.5556M39.7593 1V27.3176C14.6868 14.8006 19.1409 19.8558 1 28.1628M39.7593 74H51.5556M39.7593 74V55.3256C12.7963 41.7442 19.537 46.8372 1 55.3256M51.5556 74V55.3256C70.0926 46.8372 65.037 41.7442 92 55.3256M51.5556 1V28.1628C70.0926 19.6744 65.037 14.5814 92 28.1628M92 28.1628V34.9535M92 34.9535C65.037 21.3721 70.0926 26.4651 51.5556 34.9535V48.5349C70.0926 40.0465 65.037 34.9535 92 48.5349M92 34.9535V48.5349M92 48.5349V55.3256M1 28.1628V34.9535M1 34.9535V48.5349M1 34.9535C19.1409 26.6465 14.6868 21.5913 39.7593 34.1082V48.5349C12.7963 34.9535 19.537 40.0465 1 48.5349M1 48.5349V55.3256" stroke="black"/>
</svg>
