<svg width="3826" height="2524" viewBox="0 0 3826 2524" fill="none" xmlns="http://www.w3.org/2000/svg">
<g filter="url(#filter0_d_7_6)">
<path d="M2749.5 1221L2720.5 1372L2561.5 1414L2720.5 1463.5L2749.5 1568L2791 1463.5L2942 1414L2809.5 1372L2749.5 1221Z" fill="#D9D9D9"/>
<path d="M2749.5 1221L2720.5 1372L2561.5 1414L2720.5 1463.5L2749.5 1568L2791 1463.5L2942 1414L2809.5 1372L2749.5 1221Z" fill="#24296B"/>
<path d="M2319.5 1233L2290.5 1384L2131.5 1426L2290.5 1475.5L2319.5 1568L2361 1475.5L2512 1426L2379.5 1384L2319.5 1233Z" fill="#D9D9D9"/>
<path d="M2319.5 1233L2290.5 1384L2131.5 1426L2290.5 1475.5L2319.5 1568L2361 1475.5L2512 1426L2379.5 1384L2319.5 1233Z" fill="#24296B"/>
<path d="M1491.5 828L1462.5 979L1303.5 1021L1462.5 1070.5L1491.5 1213.5L1533 1070.5L1684 1021L1551.5 979L1491.5 828Z" fill="#D9D9D9"/>
<path d="M1491.5 828L1462.5 979L1303.5 1021L1462.5 1070.5L1491.5 1213.5L1533 1070.5L1684 1021L1551.5 979L1491.5 828Z" fill="#24296B"/>
<path d="M1912.5 877.5L1883.5 1028.5L1724.5 1070.5L1883.5 1120L1912.5 1263L1954 1120L2105 1070.5L1972.5 1028.5L1912.5 877.5Z" fill="#D9D9D9"/>
<path d="M1912.5 877.5L1883.5 1028.5L1724.5 1070.5L1883.5 1120L1912.5 1263L1954 1120L2105 1070.5L1972.5 1028.5L1912.5 877.5Z" fill="#24296B"/>
<path d="M1084.5 400.5L1055.5 551.5L896.5 593.5L1055.5 643L1084.5 786L1126 643L1277 593.5L1144.5 551.5L1084.5 400.5Z" fill="#D9D9D9"/>
<path d="M1084.5 400.5L1055.5 551.5L896.5 593.5L1055.5 643L1084.5 786L1126 643L1277 593.5L1144.5 551.5L1084.5 400.5Z" fill="#24296B"/>
<path d="M664.5 400.5L635.5 551.5L476.5 593.5L635.5 643L664.5 786L706 643L857 593.5L724.5 551.5L664.5 400.5Z" fill="#D9D9D9"/>
<path d="M664.5 400.5L635.5 551.5L476.5 593.5L635.5 643L664.5 786L706 643L857 593.5L724.5 551.5L664.5 400.5Z" fill="#24296B"/>
<path d="M238 400.5L209 551.5L50 593.5L209 643L238 786L279.5 643L430.5 593.5L298 551.5L238 400.5Z" fill="#D9D9D9"/>
<path d="M238 400.5L209 551.5L50 593.5L209 643L238 786L279.5 643L430.5 593.5L298 551.5L238 400.5Z" fill="#24296B"/>
<path d="M2319.5 847.5L2290.5 998.5L2131.5 1040.5L2290.5 1090L2319.5 1233L2361 1090L2512 1040.5L2379.5 998.5L2319.5 847.5Z" fill="#D9D9D9"/>
<path d="M2319.5 847.5L2290.5 998.5L2131.5 1040.5L2290.5 1090L2319.5 1233L2361 1090L2512 1040.5L2379.5 998.5L2319.5 847.5Z" fill="#24296B"/>
<path d="M2319.5 442.5L2290.5 593.5L2131.5 635.5L2290.5 685L2319.5 828L2361 685L2512 635.5L2379.5 593.5L2319.5 442.5Z" fill="#D9D9D9"/>
<path d="M2319.5 442.5L2290.5 593.5L2131.5 635.5L2290.5 685L2319.5 828L2361 685L2512 635.5L2379.5 593.5L2319.5 442.5Z" fill="#24296B"/>
<path d="M2338 15L2309 166L2150 208L2309 257.5L2338 400.5L2379.5 257.5L2530.5 208L2398 166L2338 15Z" fill="#D9D9D9"/>
<path d="M2338 15L2309 166L2150 208L2309 257.5L2338 400.5L2379.5 257.5L2530.5 208L2398 166L2338 15Z" fill="#24296B"/>
<path d="M1912.5 57L1883.5 208L1724.5 250L1883.5 299.5L1912.5 442.5L1954 299.5L2105 250L1972.5 208L1912.5 57Z" fill="#D9D9D9"/>
<path d="M1912.5 57L1883.5 208L1724.5 250L1883.5 299.5L1912.5 442.5L1954 299.5L2105 250L1972.5 208L1912.5 57Z" fill="#24296B"/>
<path d="M2749.5 15L2720.5 166L2561.5 208L2720.5 257.5L2749.5 400.5L2791 257.5L2942 208L2809.5 166L2749.5 15Z" fill="#D9D9D9"/>
<path d="M2749.5 15L2720.5 166L2561.5 208L2720.5 257.5L2749.5 400.5L2791 257.5L2942 208L2809.5 166L2749.5 15Z" fill="#24296B"/>
<path d="M3170.5 15L3141.5 166L2982.5 208L3141.5 257.5L3170.5 400.5L3212 257.5L3363 208L3230.5 166L3170.5 15Z" fill="#D9D9D9"/>
<path d="M3170.5 15L3141.5 166L2982.5 208L3141.5 257.5L3170.5 400.5L3212 257.5L3363 208L3230.5 166L3170.5 15Z" fill="#24296B"/>
<path d="M3587 15L3558 166L3399 208L3558 257.5L3587 400.5L3628.5 257.5L3779.5 208L3647 166L3587 15Z" fill="#D9D9D9"/>
<path d="M3587 15L3558 166L3399 208L3558 257.5L3587 400.5L3628.5 257.5L3779.5 208L3647 166L3587 15Z" fill="#24296B"/>
<path d="M3587 450L3558 601L3399 643L3558 692.5L3587 835.5L3628.5 692.5L3779.5 643L3647 601L3587 450Z" fill="#D9D9D9"/>
<path d="M3587 450L3558 601L3399 643L3558 692.5L3587 835.5L3628.5 692.5L3779.5 643L3647 601L3587 450Z" fill="#24296B"/>
<path d="M3587 877.5L3558 1028.5L3399 1070.5L3558 1120L3587 1263L3628.5 1120L3779.5 1070.5L3647 1028.5L3587 877.5Z" fill="#D9D9D9"/>
<path d="M3587 877.5L3558 1028.5L3399 1070.5L3558 1120L3587 1263L3628.5 1120L3779.5 1070.5L3647 1028.5L3587 877.5Z" fill="#24296B"/>
<path d="M3587 1305L3558 1456L3399 1498L3558 1547.5L3587 1656L3628.5 1547.5L3779.5 1498L3647 1456L3587 1305Z" fill="#D9D9D9"/>
<path d="M3587 1305L3558 1456L3399 1498L3558 1547.5L3587 1656L3628.5 1547.5L3779.5 1498L3647 1456L3587 1305Z" fill="#24296B"/>
<path d="M3629 1680.5L3600 1831.5L3441 1873.5L3600 1923L3629 2031.5L3670.5 1923L3821.5 1873.5L3689 1831.5L3629 1680.5Z" fill="#D9D9D9"/>
<path d="M3629 1680.5L3600 1831.5L3441 1873.5L3600 1923L3629 2031.5L3670.5 1923L3821.5 1873.5L3689 1831.5L3629 1680.5Z" fill="#24296B"/>
<path d="M3587 2122L3558 2273L3399 2315L3558 2364.5L3587 2473L3628.5 2364.5L3779.5 2315L3647 2273L3587 2122Z" fill="#D9D9D9"/>
<path d="M3587 2122L3558 2273L3399 2315L3558 2364.5L3587 2473L3628.5 2364.5L3779.5 2315L3647 2273L3587 2122Z" fill="#24296B"/>
<path d="M1491.5 2129.5L1462.5 2280.5L1303.5 2322.5L1462.5 2372L1491.5 2515L1533 2372L1684 2322.5L1551.5 2280.5L1491.5 2129.5Z" fill="#D9D9D9"/>
<path d="M1491.5 2129.5L1462.5 2280.5L1303.5 2322.5L1462.5 2372L1491.5 2515L1533 2372L1684 2322.5L1551.5 2280.5L1491.5 2129.5Z" fill="#24296B"/>
<path d="M1066 2129.5L1037 2280.5L878 2322.5L1037 2372L1066 2515L1107.5 2372L1258.5 2322.5L1126 2280.5L1066 2129.5Z" fill="#D9D9D9"/>
<path d="M1066 2129.5L1037 2280.5L878 2322.5L1037 2372L1066 2515L1107.5 2372L1258.5 2322.5L1126 2280.5L1066 2129.5Z" fill="#24296B"/>
<path d="M1912.5 2087.5L1883.5 2238.5L1724.5 2280.5L1883.5 2330L1912.5 2473L1954 2330L2105 2280.5L1972.5 2238.5L1912.5 2087.5Z" fill="#D9D9D9"/>
<path d="M1912.5 2087.5L1883.5 2238.5L1724.5 2280.5L1883.5 2330L1912.5 2473L1954 2330L2105 2280.5L1972.5 2238.5L1912.5 2087.5Z" fill="#24296B"/>
<path d="M1912.5 1680.5L1883.5 1831.5L1724.5 1873.5L1883.5 1923L1912.5 2066L1954 1923L2105 1873.5L1972.5 1831.5L1912.5 1680.5Z" fill="#D9D9D9"/>
<path d="M1912.5 1680.5L1883.5 1831.5L1724.5 1873.5L1883.5 1923L1912.5 2066L1954 1923L2105 1873.5L1972.5 1831.5L1912.5 1680.5Z" fill="#24296B"/>
<path d="M1491.5 1680.5L1462.5 1831.5L1303.5 1873.5L1462.5 1923L1491.5 2066L1533 1923L1684 1873.5L1551.5 1831.5L1491.5 1680.5Z" fill="#D9D9D9"/>
<path d="M1491.5 1680.5L1462.5 1831.5L1303.5 1873.5L1462.5 1923L1491.5 2066L1533 1923L1684 1873.5L1551.5 1831.5L1491.5 1680.5Z" fill="#24296B"/>
<path d="M1066 1680.5L1037 1831.5L878 1873.5L1037 1923L1066 2066L1107.5 1923L1258.5 1873.5L1126 1831.5L1066 1680.5Z" fill="#D9D9D9"/>
<path d="M1066 1680.5L1037 1831.5L878 1873.5L1037 1923L1066 2066L1107.5 1923L1258.5 1873.5L1126 1831.5L1066 1680.5Z" fill="#24296B"/>
<path d="M646 1680.5L617 1831.5L458 1873.5L617 1923L646 2066L687.5 1923L838.5 1873.5L706 1831.5L646 1680.5Z" fill="#D9D9D9"/>
<path d="M646 1680.5L617 1831.5L458 1873.5L617 1923L646 2066L687.5 1923L838.5 1873.5L706 1831.5L646 1680.5Z" fill="#24296B"/>
<path d="M646 2106L617 2257L458 2299L617 2348.5L646 2491.5L687.5 2348.5L838.5 2299L706 2257L646 2106Z" fill="#D9D9D9"/>
<path d="M646 2106L617 2257L458 2299L617 2348.5L646 2491.5L687.5 2348.5L838.5 2299L706 2257L646 2106Z" fill="#24296B"/>
<path d="M238 2106L209 2257L50 2299L209 2348.5L238 2491.5L279.5 2348.5L430.5 2299L298 2257L238 2106Z" fill="#D9D9D9"/>
<path d="M238 2106L209 2257L50 2299L209 2348.5L238 2491.5L279.5 2348.5L430.5 2299L298 2257L238 2106Z" fill="#24296B"/>
<path d="M238 1680.5L209 1831.5L50 1873.5L209 1923L238 2066L279.5 1923L430.5 1873.5L298 1831.5L238 1680.5Z" fill="#D9D9D9"/>
<path d="M238 1680.5L209 1831.5L50 1873.5L209 1923L238 2066L279.5 1923L430.5 1873.5L298 1831.5L238 1680.5Z" fill="#24296B"/>
<path d="M238 1263L209 1414L50 1456L209 1505.5L238 1648.5L279.5 1505.5L430.5 1456L298 1414L238 1263Z" fill="#D9D9D9"/>
<path d="M238 1263L209 1414L50 1456L209 1505.5L238 1648.5L279.5 1505.5L430.5 1456L298 1414L238 1263Z" fill="#24296B"/>
<path d="M646 1263L617 1414L458 1456L617 1505.5L646 1648.5L687.5 1505.5L838.5 1456L706 1414L646 1263Z" fill="#D9D9D9"/>
<path d="M646 1263L617 1414L458 1456L617 1505.5L646 1648.5L687.5 1505.5L838.5 1456L706 1414L646 1263Z" fill="#24296B"/>
<path d="M1084.5 1263L1055.5 1414L896.5 1456L1055.5 1505.5L1084.5 1648.5L1126 1505.5L1277 1456L1144.5 1414L1084.5 1263Z" fill="#D9D9D9"/>
<path d="M1084.5 1263L1055.5 1414L896.5 1456L1055.5 1505.5L1084.5 1648.5L1126 1505.5L1277 1456L1144.5 1414L1084.5 1263Z" fill="#24296B"/>
<path d="M1491.5 1263L1462.5 1414L1303.5 1456L1462.5 1505.5L1491.5 1648.5L1533 1505.5L1684 1456L1551.5 1414L1491.5 1263Z" fill="#D9D9D9"/>
<path d="M1491.5 1263L1462.5 1414L1303.5 1456L1462.5 1505.5L1491.5 1648.5L1533 1505.5L1684 1456L1551.5 1414L1491.5 1263Z" fill="#24296B"/>
<path d="M1066 847.5L1037 998.5L878 1040.5L1037 1090L1066 1233L1107.5 1090L1258.5 1040.5L1126 998.5L1066 847.5Z" fill="#D9D9D9"/>
<path d="M1066 847.5L1037 998.5L878 1040.5L1037 1090L1066 1233L1107.5 1090L1258.5 1040.5L1126 998.5L1066 847.5Z" fill="#24296B"/>
<path d="M664.5 847.5L635.5 998.5L476.5 1040.5L635.5 1090L664.5 1233L706 1090L857 1040.5L724.5 998.5L664.5 847.5Z" fill="#D9D9D9"/>
<path d="M664.5 847.5L635.5 998.5L476.5 1040.5L635.5 1090L664.5 1233L706 1090L857 1040.5L724.5 998.5L664.5 847.5Z" fill="#24296B"/>
<path d="M238 847.5L209 998.5L50 1040.5L209 1090L238 1233L279.5 1090L476.5 1040.5L298 998.5L238 847.5Z" fill="#D9D9D9"/>
<path d="M238 847.5L209 998.5L50 1040.5L209 1090L238 1233L279.5 1090L476.5 1040.5L298 998.5L238 847.5Z" fill="#24296B"/>
<path d="M238 15L209 166L50 208L209 257.5L238 400.5L279.5 257.5L476.5 208L298 166L238 15Z" fill="#D9D9D9"/>
<path d="M238 15L209 166L50 208L209 257.5L238 400.5L279.5 257.5L476.5 208L298 166L238 15Z" fill="#24296B"/>
<path d="M664.5 15L635.5 166L476.5 208L635.5 257.5L664.5 400.5L706 257.5L857 208L724.5 166L664.5 15Z" fill="#D9D9D9"/>
<path d="M664.5 15L635.5 166L476.5 208L635.5 257.5L664.5 400.5L706 257.5L857 208L724.5 166L664.5 15Z" fill="#24296B"/>
<path d="M1066 15L1037 166L878 208L1037 257.5L1066 400.5L1107.5 257.5L1258.5 208L1126 166L1066 15Z" fill="#D9D9D9"/>
<path d="M1066 15L1037 166L878 208L1037 257.5L1066 400.5L1107.5 257.5L1258.5 208L1126 166L1066 15Z" fill="#24296B"/>
<path d="M1491.5 15L1462.5 166L1303.5 208L1462.5 257.5L1491.5 400.5L1533 257.5L1684 208L1551.5 166L1491.5 15Z" fill="#D9D9D9"/>
<path d="M1491.5 15L1462.5 166L1303.5 208L1462.5 257.5L1491.5 400.5L1533 257.5L1684 208L1551.5 166L1491.5 15Z" fill="#24296B"/>
<path d="M1491.5 442.5L1462.5 593.5L1303.5 635.5L1462.5 685L1491.5 828L1533 685L1684 635.5L1551.5 593.5L1491.5 442.5Z" fill="#D9D9D9"/>
<path d="M1491.5 442.5L1462.5 593.5L1303.5 635.5L1462.5 685L1491.5 828L1533 685L1684 635.5L1551.5 593.5L1491.5 442.5Z" fill="#24296B"/>
<path d="M1912.5 442.5L1883.5 593.5L1724.5 635.5L1883.5 685L1912.5 828L1954 685L2105 635.5L1972.5 593.5L1912.5 442.5Z" fill="#D9D9D9"/>
<path d="M1912.5 442.5L1883.5 593.5L1724.5 635.5L1883.5 685L1912.5 828L1954 685L2105 635.5L1972.5 593.5L1912.5 442.5Z" fill="#24296B"/>
<path d="M1912.5 1263L1883.5 1414L1724.5 1456L1883.5 1505.5L1912.5 1648.5L1954 1505.5L2105 1456L1972.5 1414L1912.5 1263Z" fill="#D9D9D9"/>
<path d="M1912.5 1263L1883.5 1414L1724.5 1456L1883.5 1505.5L1912.5 1648.5L1954 1505.5L2105 1456L1972.5 1414L1912.5 1263Z" fill="#24296B"/>
<path d="M2749.5 870L2720.5 1021L2561.5 1063L2720.5 1112.5L2749.5 1221L2791 1112.5L2942 1063L2809.5 1021L2749.5 870Z" fill="#D9D9D9"/>
<path d="M2749.5 870L2720.5 1021L2561.5 1063L2720.5 1112.5L2749.5 1221L2791 1112.5L2942 1063L2809.5 1021L2749.5 870Z" fill="#24296B"/>
<path d="M2749.5 442.5L2720.5 593.5L2561.5 635.5L2720.5 685L2749.5 828L2791 685L2942 635.5L2809.5 593.5L2749.5 442.5Z" fill="#D9D9D9"/>
<path d="M2749.5 442.5L2720.5 593.5L2561.5 635.5L2720.5 685L2749.5 828L2791 685L2942 635.5L2809.5 593.5L2749.5 442.5Z" fill="#24296B"/>
<path d="M3170.5 450L3141.5 601L2982.5 643L3141.5 692.5L3170.5 835.5L3212 692.5L3363 643L3230.5 601L3170.5 450Z" fill="#D9D9D9"/>
<path d="M3170.5 450L3141.5 601L2982.5 643L3141.5 692.5L3170.5 835.5L3212 692.5L3363 643L3230.5 601L3170.5 450Z" fill="#24296B"/>
<path d="M3170.5 877.5L3141.5 1028.5L2982.5 1070.5L3141.5 1120L3170.5 1263L3212 1120L3363 1070.5L3230.5 1028.5L3170.5 877.5Z" fill="#D9D9D9"/>
<path d="M3170.5 877.5L3141.5 1028.5L2982.5 1070.5L3141.5 1120L3170.5 1263L3212 1120L3363 1070.5L3230.5 1028.5L3170.5 877.5Z" fill="#24296B"/>
<path d="M3170.5 1292.5L3141.5 1443.5L2982.5 1485.5L3141.5 1505.5L3170.5 1589L3212 1505.5L3363 1485.5L3230.5 1443.5L3170.5 1292.5Z" fill="#D9D9D9"/>
<path d="M3170.5 1292.5L3141.5 1443.5L2982.5 1485.5L3141.5 1505.5L3170.5 1589L3212 1505.5L3363 1485.5L3230.5 1443.5L3170.5 1292.5Z" fill="#24296B"/>
<path fill-rule="evenodd" clip-rule="evenodd" d="M5 1V2515H1066L1037 2372L878 2322.5L1037 2280.5L1066 2129.5L1126 2280.5L1258.5 2322.5L1107.5 2372L1066 2515H1491.5L1462.5 2372L1303.5 2322.5L1462.5 2280.5L1491.5 2129.5L1551.5 2280.5L1684 2322.5L1533 2372L1491.5 2515H3821.5V1873.5L3670.5 1923L3629 2031.5L3600 1923L3441 1873.5L3600 1831.5L3629 1680.5L3689 1831.5L3821.5 1873.5V1H5ZM209 166L238 15L298 166L476.5 208L635.5 166L664.5 15L724.5 166L857 208L706 257.5L664.5 400.5L724.5 551.5L857 593.5L706 643L664.5 786L635.5 643L476.5 593.5L635.5 551.5L664.5 400.5L635.5 257.5L476.5 208L279.5 257.5L238 400.5L298 551.5L430.5 593.5L279.5 643L238 786L209 643L50 593.5L209 551.5L238 400.5L209 257.5L50 208L209 166ZM1037 166L1066 15L1126 166L1258.5 208L1107.5 257.5L1066 400.5L1037 257.5L878 208L1037 166ZM1462.5 166L1491.5 15L1551.5 166L1684 208L1533 257.5L1491.5 400.5L1462.5 257.5L1303.5 208L1462.5 166ZM1883.5 208L1912.5 57L1972.5 208L2105 250L1954 299.5L1912.5 442.5L1972.5 593.5L2105 635.5L1954 685L1912.5 828L1883.5 685L1724.5 635.5L1883.5 593.5L1912.5 442.5L1883.5 299.5L1724.5 250L1883.5 208ZM209 998.5L238 847.5L298 998.5L476.5 1040.5L635.5 998.5L664.5 847.5L724.5 998.5L857 1040.5L706 1090L664.5 1233L635.5 1090L476.5 1040.5L279.5 1090L238 1233L209 1090L50 1040.5L209 998.5ZM1055.5 551.5L1084.5 400.5L1144.5 551.5L1277 593.5L1126 643L1084.5 786L1055.5 643L896.5 593.5L1055.5 551.5ZM1037 998.5L1066 847.5L1126 998.5L1258.5 1040.5L1107.5 1090L1066 1233L1037 1090L878 1040.5L1037 998.5ZM1462.5 593.5L1491.5 442.5L1551.5 593.5L1684 635.5L1533 685L1491.5 828L1551.5 979L1684 1021L1533 1070.5L1491.5 1213.5L1462.5 1070.5L1303.5 1021L1462.5 979L1491.5 828L1462.5 685L1303.5 635.5L1462.5 593.5ZM1883.5 1028.5L1912.5 877.5L1972.5 1028.5L2105 1070.5L1954 1120L1912.5 1263L1972.5 1414L2105 1456L1954 1505.5L1912.5 1648.5L1883.5 1505.5L1724.5 1456L1883.5 1414L1912.5 1263L1883.5 1120L1724.5 1070.5L1883.5 1028.5ZM209 1414L238 1263L298 1414L430.5 1456L279.5 1505.5L238 1648.5L209 1505.5L50 1456L209 1414ZM617 1414L646 1263L706 1414L838.5 1456L687.5 1505.5L646 1648.5L617 1505.5L458 1456L617 1414ZM1055.5 1414L1084.5 1263L1144.5 1414L1277 1456L1126 1505.5L1084.5 1648.5L1055.5 1505.5L896.5 1456L1055.5 1414ZM1462.5 1414L1491.5 1263L1551.5 1414L1684 1456L1533 1505.5L1491.5 1648.5L1462.5 1505.5L1303.5 1456L1462.5 1414ZM2309 166L2338 15L2398 166L2530.5 208L2379.5 257.5L2338 400.5L2309 257.5L2150 208L2309 166ZM2720.5 166L2749.5 15L2809.5 166L2942 208L2791 257.5L2749.5 400.5L2720.5 257.5L2561.5 208L2720.5 166ZM2290.5 593.5L2319.5 442.5L2379.5 593.5L2512 635.5L2361 685L2319.5 828L2290.5 685L2131.5 635.5L2290.5 593.5ZM2720.5 593.5L2749.5 442.5L2809.5 593.5L2942 635.5L2791 685L2749.5 828L2720.5 685L2561.5 635.5L2720.5 593.5ZM209 1831.5L238 1680.5L298 1831.5L430.5 1873.5L279.5 1923L238 2066L209 1923L50 1873.5L209 1831.5ZM617 1831.5L646 1680.5L706 1831.5L838.5 1873.5L687.5 1923L646 2066L617 1923L458 1873.5L617 1831.5ZM1037 1831.5L1066 1680.5L1126 1831.5L1258.5 1873.5L1107.5 1923L1066 2066L1037 1923L878 1873.5L1037 1831.5ZM1462.5 1831.5L1491.5 1680.5L1551.5 1831.5L1684 1873.5L1533 1923L1491.5 2066L1462.5 1923L1303.5 1873.5L1462.5 1831.5ZM1883.5 1831.5L1912.5 1680.5L1972.5 1831.5L2105 1873.5L1954 1923L1912.5 2066L1883.5 1923L1724.5 1873.5L1883.5 1831.5ZM209 2257L238 2106L298 2257L430.5 2299L279.5 2348.5L238 2491.5L209 2348.5L50 2299L209 2257ZM617 2257L646 2106L706 2257L838.5 2299L687.5 2348.5L646 2491.5L617 2348.5L458 2299L617 2257ZM1883.5 2238.5L1912.5 2087.5L1972.5 2238.5L2105 2280.5L1954 2330L1912.5 2473L1883.5 2330L1724.5 2280.5L1883.5 2238.5ZM3141.5 166L3170.5 15L3230.5 166L3363 208L3212 257.5L3170.5 400.5L3141.5 257.5L2982.5 208L3141.5 166ZM3558 166L3587 15L3647 166L3779.5 208L3628.5 257.5L3587 400.5L3558 257.5L3399 208L3558 166ZM3141.5 601L3170.5 450L3230.5 601L3363 643L3212 692.5L3170.5 835.5L3141.5 692.5L2982.5 643L3141.5 601ZM3558 601L3587 450L3647 601L3779.5 643L3628.5 692.5L3587 835.5L3558 692.5L3399 643L3558 601ZM2290.5 998.5L2319.5 847.5L2379.5 998.5L2512 1040.5L2361 1090L2319.5 1233L2379.5 1384L2512 1426L2361 1475.5L2319.5 1568L2290.5 1475.5L2131.5 1426L2290.5 1384L2319.5 1233L2290.5 1090L2131.5 1040.5L2290.5 998.5ZM2720.5 1021L2749.5 870L2809.5 1021L2942 1063L2791 1112.5L2749.5 1221L2809.5 1372L2942 1414L2791 1463.5L2749.5 1568L2720.5 1463.5L2561.5 1414L2720.5 1372L2749.5 1221L2720.5 1112.5L2561.5 1063L2720.5 1021ZM3141.5 1028.5L3170.5 877.5L3230.5 1028.5L3363 1070.5L3212 1120L3170.5 1263L3141.5 1120L2982.5 1070.5L3141.5 1028.5ZM3558 1028.5L3587 877.5L3647 1028.5L3779.5 1070.5L3628.5 1120L3587 1263L3558 1120L3399 1070.5L3558 1028.5ZM3141.5 1443.5L3170.5 1292.5L3230.5 1443.5L3363 1485.5L3212 1505.5L3170.5 1589H3255L3415.5 1852L3441 1898.5V2044.5L3255 2358.5H2290.5V1589H3170.5L3141.5 1505.5L2982.5 1485.5L3141.5 1443.5ZM3558 1456L3587 1305L3647 1456L3779.5 1498L3628.5 1547.5L3587 1656L3558 1547.5L3399 1498L3558 1456ZM3558 2273L3587 2122L3647 2273L3779.5 2315L3628.5 2364.5L3587 2473L3558 2364.5L3399 2315L3558 2273Z" fill="#D9D9D9"/>
<path fill-rule="evenodd" clip-rule="evenodd" d="M5 1V2515H1066L1037 2372L878 2322.5L1037 2280.5L1066 2129.5L1126 2280.5L1258.5 2322.5L1107.5 2372L1066 2515H1491.5L1462.5 2372L1303.5 2322.5L1462.5 2280.5L1491.5 2129.5L1551.5 2280.5L1684 2322.5L1533 2372L1491.5 2515H3821.5V1873.5L3670.5 1923L3629 2031.5L3600 1923L3441 1873.5L3600 1831.5L3629 1680.5L3689 1831.5L3821.5 1873.5V1H5ZM209 166L238 15L298 166L476.5 208L635.5 166L664.5 15L724.5 166L857 208L706 257.5L664.5 400.5L724.5 551.5L857 593.5L706 643L664.5 786L635.5 643L476.5 593.5L635.5 551.5L664.5 400.5L635.5 257.5L476.5 208L279.5 257.5L238 400.5L298 551.5L430.5 593.5L279.5 643L238 786L209 643L50 593.5L209 551.5L238 400.5L209 257.5L50 208L209 166ZM1037 166L1066 15L1126 166L1258.5 208L1107.5 257.5L1066 400.5L1037 257.5L878 208L1037 166ZM1462.5 166L1491.5 15L1551.5 166L1684 208L1533 257.5L1491.5 400.5L1462.5 257.5L1303.5 208L1462.5 166ZM1883.5 208L1912.5 57L1972.5 208L2105 250L1954 299.5L1912.5 442.5L1972.5 593.5L2105 635.5L1954 685L1912.5 828L1883.5 685L1724.5 635.5L1883.5 593.5L1912.5 442.5L1883.5 299.5L1724.5 250L1883.5 208ZM209 998.5L238 847.5L298 998.5L476.5 1040.5L635.5 998.5L664.5 847.5L724.5 998.5L857 1040.5L706 1090L664.5 1233L635.5 1090L476.5 1040.5L279.5 1090L238 1233L209 1090L50 1040.5L209 998.5ZM1055.5 551.5L1084.5 400.5L1144.5 551.5L1277 593.5L1126 643L1084.5 786L1055.5 643L896.5 593.5L1055.5 551.5ZM1037 998.5L1066 847.5L1126 998.5L1258.5 1040.5L1107.5 1090L1066 1233L1037 1090L878 1040.5L1037 998.5ZM1462.5 593.5L1491.5 442.5L1551.5 593.5L1684 635.5L1533 685L1491.5 828L1551.5 979L1684 1021L1533 1070.5L1491.5 1213.5L1462.5 1070.5L1303.5 1021L1462.5 979L1491.5 828L1462.5 685L1303.5 635.5L1462.5 593.5ZM1883.5 1028.5L1912.5 877.5L1972.5 1028.5L2105 1070.5L1954 1120L1912.5 1263L1972.5 1414L2105 1456L1954 1505.5L1912.5 1648.5L1883.5 1505.5L1724.5 1456L1883.5 1414L1912.5 1263L1883.5 1120L1724.5 1070.5L1883.5 1028.5ZM209 1414L238 1263L298 1414L430.5 1456L279.5 1505.5L238 1648.5L209 1505.5L50 1456L209 1414ZM617 1414L646 1263L706 1414L838.5 1456L687.5 1505.5L646 1648.5L617 1505.5L458 1456L617 1414ZM1055.5 1414L1084.5 1263L1144.5 1414L1277 1456L1126 1505.5L1084.5 1648.5L1055.5 1505.5L896.5 1456L1055.5 1414ZM1462.5 1414L1491.5 1263L1551.5 1414L1684 1456L1533 1505.5L1491.5 1648.5L1462.5 1505.5L1303.5 1456L1462.5 1414ZM2309 166L2338 15L2398 166L2530.5 208L2379.5 257.5L2338 400.5L2309 257.5L2150 208L2309 166ZM2720.5 166L2749.5 15L2809.5 166L2942 208L2791 257.5L2749.5 400.5L2720.5 257.5L2561.5 208L2720.5 166ZM2290.5 593.5L2319.5 442.5L2379.5 593.5L2512 635.5L2361 685L2319.5 828L2290.5 685L2131.5 635.5L2290.5 593.5ZM2720.5 593.5L2749.5 442.5L2809.5 593.5L2942 635.5L2791 685L2749.5 828L2720.5 685L2561.5 635.5L2720.5 593.5ZM209 1831.5L238 1680.5L298 1831.5L430.5 1873.5L279.5 1923L238 2066L209 1923L50 1873.5L209 1831.5ZM617 1831.5L646 1680.5L706 1831.5L838.5 1873.5L687.5 1923L646 2066L617 1923L458 1873.5L617 1831.5ZM1037 1831.5L1066 1680.5L1126 1831.5L1258.5 1873.5L1107.5 1923L1066 2066L1037 1923L878 1873.5L1037 1831.5ZM1462.5 1831.5L1491.5 1680.5L1551.5 1831.5L1684 1873.5L1533 1923L1491.5 2066L1462.5 1923L1303.5 1873.5L1462.5 1831.5ZM1883.5 1831.5L1912.5 1680.5L1972.5 1831.5L2105 1873.5L1954 1923L1912.5 2066L1883.5 1923L1724.5 1873.5L1883.5 1831.5ZM209 2257L238 2106L298 2257L430.5 2299L279.5 2348.5L238 2491.5L209 2348.5L50 2299L209 2257ZM617 2257L646 2106L706 2257L838.5 2299L687.5 2348.5L646 2491.5L617 2348.5L458 2299L617 2257ZM1883.5 2238.5L1912.5 2087.5L1972.5 2238.5L2105 2280.5L1954 2330L1912.5 2473L1883.5 2330L1724.5 2280.5L1883.5 2238.5ZM3141.5 166L3170.5 15L3230.5 166L3363 208L3212 257.5L3170.5 400.5L3141.5 257.5L2982.5 208L3141.5 166ZM3558 166L3587 15L3647 166L3779.5 208L3628.5 257.5L3587 400.5L3558 257.5L3399 208L3558 166ZM3141.5 601L3170.5 450L3230.5 601L3363 643L3212 692.5L3170.5 835.5L3141.5 692.5L2982.5 643L3141.5 601ZM3558 601L3587 450L3647 601L3779.5 643L3628.5 692.5L3587 835.5L3558 692.5L3399 643L3558 601ZM2290.5 998.5L2319.5 847.5L2379.5 998.5L2512 1040.5L2361 1090L2319.5 1233L2379.5 1384L2512 1426L2361 1475.5L2319.5 1568L2290.5 1475.5L2131.5 1426L2290.5 1384L2319.5 1233L2290.5 1090L2131.5 1040.5L2290.5 998.5ZM2720.5 1021L2749.5 870L2809.5 1021L2942 1063L2791 1112.5L2749.5 1221L2809.5 1372L2942 1414L2791 1463.5L2749.5 1568L2720.5 1463.5L2561.5 1414L2720.5 1372L2749.5 1221L2720.5 1112.5L2561.5 1063L2720.5 1021ZM3141.5 1028.5L3170.5 877.5L3230.5 1028.5L3363 1070.5L3212 1120L3170.5 1263L3141.5 1120L2982.5 1070.5L3141.5 1028.5ZM3558 1028.5L3587 877.5L3647 1028.5L3779.5 1070.5L3628.5 1120L3587 1263L3558 1120L3399 1070.5L3558 1028.5ZM3141.5 1443.5L3170.5 1292.5L3230.5 1443.5L3363 1485.5L3212 1505.5L3170.5 1589H3255L3415.5 1852L3441 1898.5V2044.5L3255 2358.5H2290.5V1589H3170.5L3141.5 1505.5L2982.5 1485.5L3141.5 1443.5ZM3558 1456L3587 1305L3647 1456L3779.5 1498L3628.5 1547.5L3587 1656L3558 1547.5L3399 1498L3558 1456ZM3558 2273L3587 2122L3647 2273L3779.5 2315L3628.5 2364.5L3587 2473L3558 2364.5L3399 2315L3558 2273Z" fill="#FCFCFE"/>
<path d="M5 2515V1H3821.5M5 2515H3821.5M5 2515H1066M3821.5 2515V1M3821.5 2515H1491.5M3821.5 2515V1873.5M3821.5 1V1873.5M238 400.5L209 257.5L50 208L209 166L238 15L298 166L476.5 208M238 400.5L279.5 257.5L476.5 208M238 400.5L209 551.5L50 593.5L209 643L238 786L279.5 643L430.5 593.5L298 551.5L238 400.5ZM476.5 208L635.5 166L664.5 15L724.5 166L857 208L706 257.5L664.5 400.5M476.5 208L635.5 257.5L664.5 400.5M664.5 400.5L635.5 551.5L476.5 593.5L635.5 643L664.5 786L706 643L857 593.5L724.5 551.5L664.5 400.5ZM1912.5 442.5L1883.5 299.5L1724.5 250L1883.5 208L1912.5 57L1972.5 208L2105 250L1954 299.5L1912.5 442.5ZM1912.5 442.5L1883.5 593.5L1724.5 635.5L1883.5 685L1912.5 828L1954 685L2105 635.5L1972.5 593.5L1912.5 442.5ZM476.5 1040.5L279.5 1090L238 1233L209 1090L50 1040.5L209 998.5L238 847.5L298 998.5L476.5 1040.5ZM476.5 1040.5L635.5 998.5L664.5 847.5L724.5 998.5L857 1040.5L706 1090L664.5 1233L635.5 1090L476.5 1040.5ZM1491.5 828L1462.5 685L1303.5 635.5L1462.5 593.5L1491.5 442.5L1551.5 593.5L1684 635.5L1533 685L1491.5 828ZM1491.5 828L1462.5 979L1303.5 1021L1462.5 1070.5L1491.5 1213.5L1533 1070.5L1684 1021L1551.5 979L1491.5 828ZM1912.5 1263L1883.5 1120L1724.5 1070.5L1883.5 1028.5L1912.5 877.5L1972.5 1028.5L2105 1070.5L1954 1120L1912.5 1263ZM1912.5 1263L1883.5 1414L1724.5 1456L1883.5 1505.5L1912.5 1648.5L1954 1505.5L2105 1456L1972.5 1414L1912.5 1263ZM1066 2515L1037 2372L878 2322.5L1037 2280.5L1066 2129.5L1126 2280.5L1258.5 2322.5L1107.5 2372L1066 2515ZM1066 2515H1491.5M1491.5 2515L1462.5 2372L1303.5 2322.5L1462.5 2280.5L1491.5 2129.5L1551.5 2280.5L1684 2322.5L1533 2372L1491.5 2515ZM2319.5 1233L2290.5 1090L2131.5 1040.5L2290.5 998.5L2319.5 847.5L2379.5 998.5L2512 1040.5L2361 1090L2319.5 1233ZM2319.5 1233L2290.5 1384L2131.5 1426L2290.5 1475.5L2319.5 1568L2361 1475.5L2512 1426L2379.5 1384L2319.5 1233ZM2749.5 1221L2720.5 1112.5L2561.5 1063L2720.5 1021L2749.5 870L2809.5 1021L2942 1063L2791 1112.5L2749.5 1221ZM2749.5 1221L2720.5 1372L2561.5 1414L2720.5 1463.5L2749.5 1568L2791 1463.5L2942 1414L2809.5 1372L2749.5 1221ZM3170.5 1589L3141.5 1505.5L2982.5 1485.5L3141.5 1443.5L3170.5 1292.5L3230.5 1443.5L3363 1485.5L3212 1505.5L3170.5 1589ZM3170.5 1589H2290.5M3170.5 1589H3255M3821.5 1873.5L3670.5 1923L3629 2031.5L3600 1923L3441 1873.5L3600 1831.5L3629 1680.5L3689 1831.5L3821.5 1873.5ZM2290.5 1589H3255M2290.5 1589V2358.5H3255L3441 2044.5V1898.5L3415.5 1852L3255 1589M1066 15L1037 166L878 208L1037 257.5L1066 400.5L1107.5 257.5L1258.5 208L1126 166L1066 15ZM1491.5 15L1462.5 166L1303.5 208L1462.5 257.5L1491.5 400.5L1533 257.5L1684 208L1551.5 166L1491.5 15ZM1084.5 400.5L1055.5 551.5L896.5 593.5L1055.5 643L1084.5 786L1126 643L1277 593.5L1144.5 551.5L1084.5 400.5ZM1066 847.5L1037 998.5L878 1040.5L1037 1090L1066 1233L1107.5 1090L1258.5 1040.5L1126 998.5L1066 847.5ZM238 1263L209 1414L50 1456L209 1505.5L238 1648.5L279.5 1505.5L430.5 1456L298 1414L238 1263ZM646 1263L617 1414L458 1456L617 1505.5L646 1648.5L687.5 1505.5L838.5 1456L706 1414L646 1263ZM1084.5 1263L1055.5 1414L896.5 1456L1055.5 1505.5L1084.5 1648.5L1126 1505.5L1277 1456L1144.5 1414L1084.5 1263ZM1491.5 1263L1462.5 1414L1303.5 1456L1462.5 1505.5L1491.5 1648.5L1533 1505.5L1684 1456L1551.5 1414L1491.5 1263ZM2338 15L2309 166L2150 208L2309 257.5L2338 400.5L2379.5 257.5L2530.5 208L2398 166L2338 15ZM2749.5 15L2720.5 166L2561.5 208L2720.5 257.5L2749.5 400.5L2791 257.5L2942 208L2809.5 166L2749.5 15ZM2319.5 442.5L2290.5 593.5L2131.5 635.5L2290.5 685L2319.5 828L2361 685L2512 635.5L2379.5 593.5L2319.5 442.5ZM2749.5 442.5L2720.5 593.5L2561.5 635.5L2720.5 685L2749.5 828L2791 685L2942 635.5L2809.5 593.5L2749.5 442.5ZM238 1680.5L209 1831.5L50 1873.5L209 1923L238 2066L279.5 1923L430.5 1873.5L298 1831.5L238 1680.5ZM646 1680.5L617 1831.5L458 1873.5L617 1923L646 2066L687.5 1923L838.5 1873.5L706 1831.5L646 1680.5ZM1066 1680.5L1037 1831.5L878 1873.5L1037 1923L1066 2066L1107.5 1923L1258.5 1873.5L1126 1831.5L1066 1680.5ZM1491.5 1680.5L1462.5 1831.5L1303.5 1873.5L1462.5 1923L1491.5 2066L1533 1923L1684 1873.5L1551.5 1831.5L1491.5 1680.5ZM1912.5 1680.5L1883.5 1831.5L1724.5 1873.5L1883.5 1923L1912.5 2066L1954 1923L2105 1873.5L1972.5 1831.5L1912.5 1680.5ZM238 2106L209 2257L50 2299L209 2348.5L238 2491.5L279.5 2348.5L430.5 2299L298 2257L238 2106ZM646 2106L617 2257L458 2299L617 2348.5L646 2491.5L687.5 2348.5L838.5 2299L706 2257L646 2106ZM1912.5 2087.5L1883.5 2238.5L1724.5 2280.5L1883.5 2330L1912.5 2473L1954 2330L2105 2280.5L1972.5 2238.5L1912.5 2087.5ZM3170.5 15L3141.5 166L2982.5 208L3141.5 257.5L3170.5 400.5L3212 257.5L3363 208L3230.5 166L3170.5 15ZM3587 15L3558 166L3399 208L3558 257.5L3587 400.5L3628.5 257.5L3779.5 208L3647 166L3587 15ZM3170.5 450L3141.5 601L2982.5 643L3141.5 692.5L3170.5 835.5L3212 692.5L3363 643L3230.5 601L3170.5 450ZM3587 450L3558 601L3399 643L3558 692.5L3587 835.5L3628.5 692.5L3779.5 643L3647 601L3587 450ZM3170.5 877.5L3141.5 1028.5L2982.5 1070.5L3141.5 1120L3170.5 1263L3212 1120L3363 1070.5L3230.5 1028.5L3170.5 877.5ZM3587 877.5L3558 1028.5L3399 1070.5L3558 1120L3587 1263L3628.5 1120L3779.5 1070.5L3647 1028.5L3587 877.5ZM3587 1305L3558 1456L3399 1498L3558 1547.5L3587 1656L3628.5 1547.5L3779.5 1498L3647 1456L3587 1305ZM3587 2122L3558 2273L3399 2315L3558 2364.5L3587 2473L3628.5 2364.5L3779.5 2315L3647 2273L3587 2122Z" stroke="black"/>
</g>
<defs>
<filter id="filter0_d_7_6" x="0.5" y="0.5" width="3825.5" height="2523" filterUnits="userSpaceOnUse" color-interpolation-filters="sRGB">
<feFlood flood-opacity="0" result="BackgroundImageFix"/>
<feColorMatrix in="SourceAlpha" type="matrix" values="0 0 0 0 0 0 0 0 0 0 0 0 0 0 0 0 0 0 127 0" result="hardAlpha"/>
<feOffset dy="4"/>
<feGaussianBlur stdDeviation="2"/>
<feComposite in2="hardAlpha" operator="out"/>
<feColorMatrix type="matrix" values="0 0 0 0 0 0 0 0 0 0 0 0 0 0 0 0 0 0 0.25 0"/>
<feBlend mode="normal" in2="BackgroundImageFix" result="effect1_dropShadow_7_6"/>
<feBlend mode="normal" in="SourceGraphic" in2="effect1_dropShadow_7_6" result="shape"/>
</filter>
</defs>
</svg>
