<svg width="322" height="213" viewBox="0 0 322 213" fill="none" xmlns="http://www.w3.org/2000/svg">
<path d="M15 10.9999H8.50004L0.500038 23.4999H7.50004L14.5 11.9999L15 10.9999Z" fill="#D9D9D9"/>
<path d="M15 10.9999H8.50004L0.500038 23.4999H7.50004L14.5 11.9999L15 10.9999Z" fill="#171C3A"/>
<path d="M15 0L12 5.49992L15 10.9999L18.5 5.49992L15 0Z" fill="#D9D9D9"/>
<path d="M15 0L12 5.49992L15 10.9999L18.5 5.49992L15 0Z" fill="#171C3A"/>
<path d="M15 10.9999L22.5 23.4999H29L22 10.9999H15Z" fill="#D9D9D9"/>
<path d="M15 10.9999L22.5 23.4999H29L22 10.9999H15Z" fill="#171C3A"/>
<path d="M44 10.9993H37.5L29.5 23.5L36.5 23.4993L43.5 11.9993L44 10.9993Z" fill="#D9D9D9"/>
<path d="M44 10.9993H37.5L29.5 23.5L36.5 23.4993L43.5 11.9993L44 10.9993Z" fill="#171C3A"/>
<path d="M44 0L41 5.49932L44 10.9993L47.5 5.49932L44 0Z" fill="#D9D9D9"/>
<path d="M44 0L41 5.49932L44 10.9993L47.5 5.49932L44 0Z" fill="#171C3A"/>
<path d="M44 10.9993L51.5 23.4993L58 23.4995L51 10.9993H44Z" fill="#D9D9D9"/>
<path d="M44 10.9993L51.5 23.4993L58 23.4995L51 10.9993H44Z" fill="#171C3A"/>
<path d="M73.5 10.998H67L59 23.498H66L73 11.998L73.5 10.998Z" fill="#D9D9D9"/>
<path d="M73.5 10.998H67L59 23.498H66L73 11.998L73.5 10.998Z" fill="#171C3A"/>
<path d="M73.5 0L70.5 5.498L73.5 10.998L77 5.498L73.5 0Z" fill="#D9D9D9"/>
<path d="M73.5 0L70.5 5.498L73.5 10.998L77 5.498L73.5 0Z" fill="#171C3A"/>
<path d="M73.5 10.998L81 23.498H87.5L80.5 10.998H73.5Z" fill="#D9D9D9"/>
<path d="M73.5 10.998L81 23.498H87.5L80.5 10.998H73.5Z" fill="#171C3A"/>
<path d="M104.5 10.998H98L90 23.498H97L104 11.998L104.5 10.998Z" fill="#D9D9D9"/>
<path d="M104.5 10.998H98L90 23.498H97L104 11.998L104.5 10.998Z" fill="#171C3A"/>
<path d="M104.5 0L101.5 5.498L104.5 10.998L108 5.498L104.5 0Z" fill="#D9D9D9"/>
<path d="M104.5 0L101.5 5.498L104.5 10.998L108 5.498L104.5 0Z" fill="#171C3A"/>
<path d="M104.5 10.998L112 23.498H118.5L111.5 10.998H104.5Z" fill="#D9D9D9"/>
<path d="M104.5 10.998L112 23.498H118.5L111.5 10.998H104.5Z" fill="#171C3A"/>
<path d="M133 10.998H126.5L118.5 23.498H125.5L132.5 11.998L133 10.998Z" fill="#D9D9D9"/>
<path d="M133 10.998H126.5L118.5 23.498H125.5L132.5 11.998L133 10.998Z" fill="#171C3A"/>
<path d="M133 0L130 5.498L133 10.998L136.5 5.498L133 0Z" fill="#D9D9D9"/>
<path d="M133 0L130 5.498L133 10.998L136.5 5.498L133 0Z" fill="#171C3A"/>
<path d="M133 10.998L140.5 23.498H147L140 10.998H133Z" fill="#D9D9D9"/>
<path d="M133 10.998L140.5 23.498H147L140 10.998H133Z" fill="#171C3A"/>
<path d="M147.522 23.5399L147.773 24.0004H154.227L161.227 12.5004L161.727 11.5004H155.227L147.522 23.5399Z" fill="#D9D9D9"/>
<path d="M147.522 23.5399L147.773 24.0004H154.227L161.227 12.5004L161.727 11.5004H155.227L147.522 23.5399Z" fill="#171C3A"/>
<path d="M161.727 0L158.727 6.00043L161.727 11.5004L165.227 6.00043L161.727 0Z" fill="#D9D9D9"/>
<path d="M161.727 0L158.727 6.00043L161.727 11.5004L165.227 6.00043L161.727 0Z" fill="#171C3A"/>
<path d="M161.727 11.5004L169.227 24.0004H175.727L168.727 11.5004H161.727Z" fill="#D9D9D9"/>
<path d="M161.727 11.5004L169.227 24.0004H175.727L168.727 11.5004H161.727Z" fill="#171C3A"/>
<path d="M191.5 0L188.5 5.49999L191.5 11L195 5.49999L191.5 0Z" fill="#D9D9D9"/>
<path d="M191.5 0L188.5 5.49999L191.5 11L195 5.49999L191.5 0Z" fill="#171C3A"/>
<path d="M191.5 11H185L177 23.5L184 23.5L191 12L191.5 11Z" fill="#D9D9D9"/>
<path d="M191.5 11H185L177 23.5L184 23.5L191 12L191.5 11Z" fill="#171C3A"/>
<path d="M191.5 11L199 23.5H205.5L198.5 11H191.5Z" fill="#D9D9D9"/>
<path d="M191.5 11L199 23.5H205.5L198.5 11H191.5Z" fill="#171C3A"/>
<path d="M220.5 11H214L206 23.5H213L220 12L220.5 11Z" fill="#D9D9D9"/>
<path d="M220.5 11H214L206 23.5H213L220 12L220.5 11Z" fill="#171C3A"/>
<path d="M220.5 0L217.5 5.5L220.5 11L224 5.5L220.5 0Z" fill="#D9D9D9"/>
<path d="M220.5 0L217.5 5.5L220.5 11L224 5.5L220.5 0Z" fill="#171C3A"/>
<path d="M220.5 11L228 23.5H234.5L227.5 11H220.5Z" fill="#D9D9D9"/>
<path d="M220.5 11L228 23.5H234.5L227.5 11H220.5Z" fill="#171C3A"/>
<path d="M249.5 11L257 23.5H263.5L256.5 11H249.5Z" fill="#D9D9D9"/>
<path d="M249.5 11L257 23.5H263.5L256.5 11H249.5Z" fill="#171C3A"/>
<path d="M249.5 0L246.5 5.5L249.5 11L253 5.5L249.5 0Z" fill="#D9D9D9"/>
<path d="M249.5 0L246.5 5.5L249.5 11L253 5.5L249.5 0Z" fill="#171C3A"/>
<path d="M249.5 11H243L235 23.5H235.5H242L249 12L249.5 11Z" fill="#D9D9D9"/>
<path d="M249.5 11H243L235 23.5H235.5H242L249 12L249.5 11Z" fill="#171C3A"/>
<path d="M278.5 11L286 23.5H292.5L285.5 11H278.5Z" fill="#D9D9D9"/>
<path d="M278.5 11L286 23.5H292.5L285.5 11H278.5Z" fill="#171C3A"/>
<path d="M278.5 0L275.5 5.5L278.5 11L282 5.5L278.5 0Z" fill="#D9D9D9"/>
<path d="M278.5 0L275.5 5.5L278.5 11L282 5.5L278.5 0Z" fill="#171C3A"/>
<path d="M278.5 11H272L264 23.5H271L278 12L278.5 11Z" fill="#D9D9D9"/>
<path d="M278.5 11H272L264 23.5H271L278 12L278.5 11Z" fill="#171C3A"/>
<path d="M307 11H300.5L292.5 23.5H299.5L306.5 12L307 11Z" fill="#D9D9D9"/>
<path d="M307 11H300.5L292.5 23.5H299.5L306.5 12L307 11Z" fill="#171C3A"/>
<path d="M307 0L304 5.5L307 11L310.5 5.5L307 0Z" fill="#D9D9D9"/>
<path d="M307 0L304 5.5L307 11L310.5 5.5L307 0Z" fill="#171C3A"/>
<path d="M307 11L314.5 23.5H321L314 11H307Z" fill="#D9D9D9"/>
<path d="M307 11L314.5 23.5H321L314 11H307Z" fill="#171C3A"/>
<path d="M321 35.5V23.5L318 29L321 35.5Z" fill="#D9D9D9"/>
<path d="M321 35.5V23.5L318 29L321 35.5Z" fill="#171C3A"/>
<path d="M321 47.5V35.5L318 42L321 47.5Z" fill="#D9D9D9"/>
<path d="M321 47.5V35.5L318 42L321 47.5Z" fill="#171C3A"/>
<path d="M321 47.5H314.5L306.5 60H313.5L320.5 48.5L321 47.5Z" fill="#D9D9D9"/>
<path d="M321 47.5H314.5L306.5 60H313.5L320.5 48.5L321 47.5Z" fill="#171C3A"/>
<path d="M292.5 47.5L300 60H306.5L299.5 47.5H292.5Z" fill="#D9D9D9"/>
<path d="M292.5 47.5L300 60H306.5L299.5 47.5H292.5Z" fill="#171C3A"/>
<path d="M292.5 35.5L289.5 42L292.5 47.5L296 42L292.5 35.5Z" fill="#D9D9D9"/>
<path d="M292.5 35.5L289.5 42L292.5 47.5L296 42L292.5 35.5Z" fill="#171C3A"/>
<path d="M292.5 23.5L289.5 29L292.5 35.5L295.5 29L292.5 23.5Z" fill="#D9D9D9"/>
<path d="M292.5 23.5L289.5 29L292.5 35.5L295.5 29L292.5 23.5Z" fill="#171C3A"/>
<path d="M292.5 47.5H286L278 60H285L292 48.5L292.5 47.5Z" fill="#D9D9D9"/>
<path d="M292.5 47.5H286L278 60H285L292 48.5L292.5 47.5Z" fill="#171C3A"/>
<path d="M263.5 47.5L271 60H277.5L270.5 47.5H263.5Z" fill="#D9D9D9"/>
<path d="M263.5 47.5L271 60H277.5L270.5 47.5H263.5Z" fill="#171C3A"/>
<path d="M249.267 59.5833L249.5 60H256L263 48.5L263.5 47.5H257L249.267 59.5833Z" fill="#D9D9D9"/>
<path d="M249.267 59.5833L249.5 60H256L263 48.5L263.5 47.5H257L249.267 59.5833Z" fill="#171C3A"/>
<path d="M263.5 35.5L260.5 42L263.5 47.5L267 42L263.5 35.5Z" fill="#D9D9D9"/>
<path d="M263.5 35.5L260.5 42L263.5 47.5L267 42L263.5 35.5Z" fill="#171C3A"/>
<path d="M263.5 23.5L260.5 29L263.5 35.5L266.5 29L263.5 23.5Z" fill="#D9D9D9"/>
<path d="M263.5 23.5L260.5 29L263.5 35.5L266.5 29L263.5 23.5Z" fill="#171C3A"/>
<path d="M235.5 23.5L232.5 29L235.5 35.5L238.5 29L235.5 23.5Z" fill="#D9D9D9"/>
<path d="M235.5 23.5L232.5 29L235.5 35.5L238.5 29L235.5 23.5Z" fill="#171C3A"/>
<path d="M235.5 35.5L232.5 42L235.5 47.5L239 42L235.5 35.5Z" fill="#D9D9D9"/>
<path d="M235.5 35.5L232.5 42L235.5 47.5L239 42L235.5 35.5Z" fill="#171C3A"/>
<path d="M206 23.5L203 29L206 35.5L209 29L206 23.5Z" fill="#D9D9D9"/>
<path d="M206 23.5L203 29L206 35.5L209 29L206 23.5Z" fill="#171C3A"/>
<path d="M206 35.5L203 42L206 47.5L209.5 42L206 35.5Z" fill="#D9D9D9"/>
<path d="M206 35.5L203 42L206 47.5L209.5 42L206 35.5Z" fill="#171C3A"/>
<path d="M206 47.5L213.5 60H220L213 47.5H206Z" fill="#D9D9D9"/>
<path d="M206 47.5L213.5 60H220L213 47.5H206Z" fill="#171C3A"/>
<path d="M206 47.5H199.5L191.5 60H198.5L205.5 48.5L206 47.5Z" fill="#D9D9D9"/>
<path d="M206 47.5H199.5L191.5 60H198.5L205.5 48.5L206 47.5Z" fill="#171C3A"/>
<path d="M177 47.5L184.5 60H191L184 47.5H177Z" fill="#D9D9D9"/>
<path d="M177 47.5L184.5 60H191L184 47.5H177Z" fill="#171C3A"/>
<path d="M177 35.5L174 42L177 47.5L180.5 42L177 35.5Z" fill="#D9D9D9"/>
<path d="M177 35.5L174 42L177 47.5L180.5 42L177 35.5Z" fill="#171C3A"/>
<path d="M177 23.5L174 29L177 35.5L180 29L177 23.5Z" fill="#D9D9D9"/>
<path d="M177 23.5L174 29L177 35.5L180 29L177 23.5Z" fill="#171C3A"/>
<path d="M177 47.5H170.5L162.5 60H169.5L176.5 48.5L177 47.5Z" fill="#D9D9D9"/>
<path d="M177 47.5H170.5L162.5 60H169.5L176.5 48.5L177 47.5Z" fill="#171C3A"/>
<path d="M147.227 24.0004L144.5 29L147.5 35.5L150.5 29L147.773 24.0004H147.227Z" fill="#D9D9D9"/>
<path d="M147.227 24.0004L144.5 29L147.5 35.5L150.5 29L147.773 24.0004H147.227Z" fill="#171C3A"/>
<path d="M147.5 35.5L144.5 42L147.5 47.5L151 42L147.5 35.5Z" fill="#D9D9D9"/>
<path d="M147.5 35.5L144.5 42L147.5 47.5L151 42L147.5 35.5Z" fill="#171C3A"/>
<path d="M147.5 47.5L155 60H161.5L154.5 47.5H147.5Z" fill="#D9D9D9"/>
<path d="M147.5 47.5L155 60H161.5L154.5 47.5H147.5Z" fill="#171C3A"/>
<path d="M133.267 59.5833L133.5 60H140L147 48.5L147.5 47.5H141L133.267 59.5833Z" fill="#D9D9D9"/>
<path d="M133.267 59.5833L133.5 60H140L147 48.5L147.5 47.5H141L133.267 59.5833Z" fill="#171C3A"/>
<path d="M119.5 47.5L127 60H132.5H133L133.267 59.5833L126.5 47.5H119.5Z" fill="#D9D9D9"/>
<path d="M119.5 47.5L127 60H132.5H133L133.267 59.5833L126.5 47.5H119.5Z" fill="#171C3A"/>
<path d="M119.5 35.5L116.5 42L119.5 47.5L123 42L119.5 35.5Z" fill="#D9D9D9"/>
<path d="M119.5 35.5L116.5 42L119.5 47.5L123 42L119.5 35.5Z" fill="#171C3A"/>
<path d="M119.5 23.5L116.5 29L119.5 35.5L122.5 29L119.5 23.5Z" fill="#D9D9D9"/>
<path d="M119.5 23.5L116.5 29L119.5 35.5L122.5 29L119.5 23.5Z" fill="#171C3A"/>
<path d="M119.5 47.5H113L105 60H112L119 48.5L119.5 47.5Z" fill="#D9D9D9"/>
<path d="M119.5 47.5H113L105 60H112L119 48.5L119.5 47.5Z" fill="#171C3A"/>
<path d="M89 23.5L86 29L89 35.5L92 29L89 23.5Z" fill="#D9D9D9"/>
<path d="M89 23.5L86 29L89 35.5L92 29L89 23.5Z" fill="#171C3A"/>
<path d="M89 35.5L86 42L89 47.5L92.5 42L89 35.5Z" fill="#D9D9D9"/>
<path d="M89 35.5L86 42L89 47.5L92.5 42L89 35.5Z" fill="#171C3A"/>
<path d="M89 47.5L96.5 60H103L96 47.5H89Z" fill="#D9D9D9"/>
<path d="M89 47.5L96.5 60H103L96 47.5H89Z" fill="#171C3A"/>
<path d="M89 47.5H82.5L74.5 60H81.5L88.5 48.5L89 47.5Z" fill="#D9D9D9"/>
<path d="M89 47.5H82.5L74.5 60H81.5L88.5 48.5L89 47.5Z" fill="#171C3A"/>
<path d="M59 47.5L66.5 60H73L66 47.5H59Z" fill="#D9D9D9"/>
<path d="M59 47.5L66.5 60H73L66 47.5H59Z" fill="#171C3A"/>
<path d="M59 35.5L56 42L59 47.5L62.5 42L59 35.5Z" fill="#D9D9D9"/>
<path d="M59 35.5L56 42L59 47.5L62.5 42L59 35.5Z" fill="#171C3A"/>
<path d="M58 23.4995L56 29L59 35.5L62 29L58 23.4995Z" fill="#D9D9D9"/>
<path d="M58 23.4995L56 29L59 35.5L62 29L58 23.4995Z" fill="#171C3A"/>
<path d="M29.5 23.5L26.5 29L29.5 35.5L32.5 29L29.5 23.5Z" fill="#D9D9D9"/>
<path d="M29.5 23.5L26.5 29L29.5 35.5L32.5 29L29.5 23.5Z" fill="#171C3A"/>
<path d="M29.5 35.5L26.5 42L29.5 47.5L33 42L29.5 35.5Z" fill="#D9D9D9"/>
<path d="M29.5 35.5L26.5 42L29.5 47.5L33 42L29.5 35.5Z" fill="#171C3A"/>
<path d="M29.5 47.5L37 60H43.5L36.5 47.5H29.5Z" fill="#D9D9D9"/>
<path d="M29.5 47.5L37 60H43.5L36.5 47.5H29.5Z" fill="#171C3A"/>
<path d="M29.5 47.5H23L15 60H22L29 48.5L29.5 47.5Z" fill="#D9D9D9"/>
<path d="M29.5 47.5H23L15 60H22L29 48.5L29.5 47.5Z" fill="#171C3A"/>
<path d="M2.86102e-05 25.5L0 35.5L4 31L2.86102e-05 25.5Z" fill="#D9D9D9"/>
<path d="M2.86102e-05 25.5L0 35.5L4 31L2.86102e-05 25.5Z" fill="#171C3A"/>
<path d="M0 35.5L2.86102e-05 48L4 42L0 35.5Z" fill="#D9D9D9"/>
<path d="M0 35.5L2.86102e-05 48L4 42L0 35.5Z" fill="#171C3A"/>
<path d="M2.86102e-05 48L8 60H14.5L7.5 47.5L2.86102e-05 48Z" fill="#D9D9D9"/>
<path d="M2.86102e-05 48L8 60H14.5L7.5 47.5L2.86102e-05 48Z" fill="#171C3A"/>
<path d="M14.5 60L11.5 65.5L14.5 72L17.5 65.5L14.5 60Z" fill="#D9D9D9"/>
<path d="M14.5 60L11.5 65.5L14.5 72L17.5 65.5L14.5 60Z" fill="#171C3A"/>
<path d="M14.5 72L11.5 78.5L14.5 84L18 78.5L14.5 72Z" fill="#D9D9D9"/>
<path d="M14.5 72L11.5 78.5L14.5 84L18 78.5L14.5 72Z" fill="#171C3A"/>
<path d="M14.5 84H8.00004L2.86102e-05 96.5H7.00004L14 85L14.5 84Z" fill="#D9D9D9"/>
<path d="M14.5 84H8.00004L2.86102e-05 96.5H7.00004L14 85L14.5 84Z" fill="#171C3A"/>
<path d="M14.5 84L22 96.5H28.5L21.5 84H14.5Z" fill="#D9D9D9"/>
<path d="M14.5 84L22 96.5H28.5L21.5 84H14.5Z" fill="#171C3A"/>
<path d="M44 84H37.5L29.5 96.5H36.5L43.5 85L44 84Z" fill="#D9D9D9"/>
<path d="M44 84H37.5L29.5 96.5H36.5L43.5 85L44 84Z" fill="#171C3A"/>
<path d="M44 72L41 78.5L44 84L47.5 78.5L44 72Z" fill="#D9D9D9"/>
<path d="M44 72L41 78.5L44 84L47.5 78.5L44 72Z" fill="#171C3A"/>
<path d="M44 60L41 65.5L44 72L47 65.5L44 60Z" fill="#D9D9D9"/>
<path d="M44 60L41 65.5L44 72L47 65.5L44 60Z" fill="#171C3A"/>
<path d="M44 84L51.5 96.5H58L51 84H44Z" fill="#D9D9D9"/>
<path d="M44 84L51.5 96.5H58L51 84H44Z" fill="#171C3A"/>
<path d="M74 84H67.5L59.5 96.5H66.5L73.5 85L74 84Z" fill="#D9D9D9"/>
<path d="M74 84H67.5L59.5 96.5H66.5L73.5 85L74 84Z" fill="#171C3A"/>
<path d="M74 72L71 78.5L74 84L77.5 78.5L74 72Z" fill="#D9D9D9"/>
<path d="M74 72L71 78.5L74 84L77.5 78.5L74 72Z" fill="#171C3A"/>
<path d="M74 60L71 65.5L74 72L77 65.5L74 60Z" fill="#D9D9D9"/>
<path d="M74 60L71 65.5L74 72L77 65.5L74 60Z" fill="#171C3A"/>
<path d="M59 47.5H52.5L44.5 60H51.5L58.5 48.5L59 47.5Z" fill="#D9D9D9"/>
<path d="M59 47.5H52.5L44.5 60H51.5L58.5 48.5L59 47.5Z" fill="#171C3A"/>
<path d="M74 84L81.5 96.5H88L81 84H74Z" fill="#D9D9D9"/>
<path d="M74 84L81.5 96.5H88L81 84H74Z" fill="#171C3A"/>
<path d="M104.5 84H98L90 96.5H97L104 85L104.5 84Z" fill="#D9D9D9"/>
<path d="M104.5 84H98L90 96.5H97L104 85L104.5 84Z" fill="#171C3A"/>
<path d="M104.5 84L112 96.5H118L118.267 96.0833L111.5 84H104.5Z" fill="#D9D9D9"/>
<path d="M104.5 84L112 96.5H118L118.267 96.0833L111.5 84H104.5Z" fill="#171C3A"/>
<path d="M104.5 72L101.5 78.5L104.5 84L108 78.5L104.5 72Z" fill="#D9D9D9"/>
<path d="M104.5 72L101.5 78.5L104.5 84L108 78.5L104.5 72Z" fill="#171C3A"/>
<path d="M104.5 60L101.5 65.5L104.5 72L107.5 65.5L104.5 60Z" fill="#D9D9D9"/>
<path d="M104.5 60L101.5 65.5L104.5 72L107.5 65.5L104.5 60Z" fill="#171C3A"/>
<path d="M132.5 60L129.5 65.5L132.5 72L135.5 65.5L132.5 60Z" fill="#D9D9D9"/>
<path d="M132.5 60L129.5 65.5L132.5 72L135.5 65.5L132.5 60Z" fill="#171C3A"/>
<path d="M132.5 72L129.5 78.5L132.5 84L136 78.5L132.5 72Z" fill="#D9D9D9"/>
<path d="M132.5 72L129.5 78.5L132.5 84L136 78.5L132.5 72Z" fill="#171C3A"/>
<path d="M132.5 84H126L118.267 96.0833L118.5 96.5H119H125L132 85L132.5 84Z" fill="#D9D9D9"/>
<path d="M132.5 84H126L118.267 96.0833L118.5 96.5H119H125L132 85L132.5 84Z" fill="#171C3A"/>
<path d="M132.5 84L140 96.5H146.5L139.5 84H132.5Z" fill="#D9D9D9"/>
<path d="M132.5 84L140 96.5H146.5L139.5 84H132.5Z" fill="#171C3A"/>
<path d="M162 60L159 65.5L162 72L165 65.5L162 60Z" fill="#D9D9D9"/>
<path d="M162 60L159 65.5L162 72L165 65.5L162 60Z" fill="#171C3A"/>
<path d="M162 72L159 78.5L162 84L165.5 78.5L162 72Z" fill="#D9D9D9"/>
<path d="M162 72L159 78.5L162 84L165.5 78.5L162 72Z" fill="#171C3A"/>
<path d="M162 84H155.5L147.5 96.5H154.5L161.5 85L162 84Z" fill="#D9D9D9"/>
<path d="M162 84H155.5L147.5 96.5H154.5L161.5 85L162 84Z" fill="#171C3A"/>
<path d="M162 84L169.5 96.5H176L169 84H162Z" fill="#D9D9D9"/>
<path d="M162 84L169.5 96.5H176L169 84H162Z" fill="#171C3A"/>
<path d="M191 84H184.5L176.5 96.5H183.5L190.5 85L191 84Z" fill="#D9D9D9"/>
<path d="M191 84H184.5L176.5 96.5H183.5L190.5 85L191 84Z" fill="#171C3A"/>
<path d="M191 72L188 78.5L191 84L194.5 78.5L191 72Z" fill="#D9D9D9"/>
<path d="M191 72L188 78.5L191 84L194.5 78.5L191 72Z" fill="#171C3A"/>
<path d="M191 60L188 65.5L191 72L194 65.5L191 60Z" fill="#D9D9D9"/>
<path d="M191 60L188 65.5L191 72L194 65.5L191 60Z" fill="#171C3A"/>
<path d="M191 84L198.5 96.5H205L198 84H191Z" fill="#D9D9D9"/>
<path d="M191 84L198.5 96.5H205L198 84H191Z" fill="#171C3A"/>
<path d="M220.5 84H214L206 96.5H213L220 85L220.5 84Z" fill="#D9D9D9"/>
<path d="M220.5 84H214L206 96.5H213L220 85L220.5 84Z" fill="#171C3A"/>
<path d="M220.5 84L228 96.5H234L234.267 96.0833L227.5 84H220.5Z" fill="#D9D9D9"/>
<path d="M220.5 84L228 96.5H234L234.267 96.0833L227.5 84H220.5Z" fill="#171C3A"/>
<path d="M220.5 72L217.5 78.5L220.5 84L224 78.5L220.5 72Z" fill="#D9D9D9"/>
<path d="M220.5 72L217.5 78.5L220.5 84L224 78.5L220.5 72Z" fill="#171C3A"/>
<path d="M220.5 60L217.5 65.5L220.5 72L223.5 65.5L220.5 60Z" fill="#D9D9D9"/>
<path d="M220.5 60L217.5 65.5L220.5 72L223.5 65.5L220.5 60Z" fill="#171C3A"/>
<path d="M235.5 47.5L243 60H248.5H249L249.267 59.5833L242.5 47.5H235.5Z" fill="#D9D9D9"/>
<path d="M235.5 47.5L243 60H248.5H249L249.267 59.5833L242.5 47.5H235.5Z" fill="#171C3A"/>
<path d="M235.5 47.5H229L221 60H228L235 48.5L235.5 47.5Z" fill="#D9D9D9"/>
<path d="M235.5 47.5H229L221 60H228L235 48.5L235.5 47.5Z" fill="#171C3A"/>
<path d="M248.5 60L245.5 65.5L248.5 72L251.5 65.5L248.5 60Z" fill="#D9D9D9"/>
<path d="M248.5 60L245.5 65.5L248.5 72L251.5 65.5L248.5 60Z" fill="#171C3A"/>
<path d="M248.5 72L245.5 78.5L248.5 84L252 78.5L248.5 72Z" fill="#D9D9D9"/>
<path d="M248.5 72L245.5 78.5L248.5 84L252 78.5L248.5 72Z" fill="#171C3A"/>
<path d="M248.5 84H242L234.267 96.0833L234.5 96.5H235H241L248 85L248.5 84Z" fill="#D9D9D9"/>
<path d="M248.5 84H242L234.267 96.0833L234.5 96.5H235H241L248 85L248.5 84Z" fill="#171C3A"/>
<path d="M248.5 84L256 96.5H262.5L255.5 84H248.5Z" fill="#D9D9D9"/>
<path d="M248.5 84L256 96.5H262.5L255.5 84H248.5Z" fill="#171C3A"/>
<path d="M277.5 84H271L263 96.5H270L277 85L277.5 84Z" fill="#D9D9D9"/>
<path d="M277.5 84H271L263 96.5H270L277 85L277.5 84Z" fill="#171C3A"/>
<path d="M277.5 72L274.5 78.5L277.5 84L281 78.5L277.5 72Z" fill="#D9D9D9"/>
<path d="M277.5 72L274.5 78.5L277.5 84L281 78.5L277.5 72Z" fill="#171C3A"/>
<path d="M277.5 60L274.5 65.5L277.5 72L280.5 65.5L277.5 60Z" fill="#D9D9D9"/>
<path d="M277.5 60L274.5 65.5L277.5 72L280.5 65.5L277.5 60Z" fill="#171C3A"/>
<path d="M277.5 84L285 96.5H291.5L284.5 84H277.5Z" fill="#D9D9D9"/>
<path d="M277.5 84L285 96.5H291.5L284.5 84H277.5Z" fill="#171C3A"/>
<path d="M306.5 60L303.5 65.5L306.5 72L309.5 65.5L306.5 60Z" fill="#D9D9D9"/>
<path d="M306.5 60L303.5 65.5L306.5 72L309.5 65.5L306.5 60Z" fill="#171C3A"/>
<path d="M306.5 72L303.5 78.5L306.5 84L310 78.5L306.5 72Z" fill="#D9D9D9"/>
<path d="M306.5 72L303.5 78.5L306.5 84L310 78.5L306.5 72Z" fill="#171C3A"/>
<path d="M306.5 84H300L292 96.5H299L306 85L306.5 84Z" fill="#D9D9D9"/>
<path d="M306.5 84H300L292 96.5H299L306 85L306.5 84Z" fill="#171C3A"/>
<path d="M306.5 84L314 96.5H320.5L313.5 84H306.5Z" fill="#D9D9D9"/>
<path d="M306.5 84L314 96.5H320.5L313.5 84H306.5Z" fill="#171C3A"/>
<path d="M318.5 103L321 108.417V98.4166L318.5 103Z" fill="#D9D9D9"/>
<path d="M318.5 103L321 108.417V98.4166L318.5 103Z" fill="#171C3A"/>
<path d="M318.5 116L321 120.583V110.583L318.5 116Z" fill="#D9D9D9"/>
<path d="M318.5 116L321 120.583V110.583L318.5 116Z" fill="#171C3A"/>
<path d="M315 121.5L307 134H314L321 122.5V121.5H315Z" fill="#D9D9D9"/>
<path d="M315 121.5L307 134H314L321 122.5V121.5H315Z" fill="#171C3A"/>
<path d="M307 134L304 139.5L307 146L310 139.5L307 134Z" fill="#D9D9D9"/>
<path d="M307 134L304 139.5L307 146L310 139.5L307 134Z" fill="#171C3A"/>
<path d="M307 146L304 152.5L307 158L310.5 152.5L307 146Z" fill="#D9D9D9"/>
<path d="M307 146L304 152.5L307 158L310.5 152.5L307 146Z" fill="#171C3A"/>
<path d="M307 158H300.5L292.5 170.5H299.5L306.5 159L307 158Z" fill="#D9D9D9"/>
<path d="M307 158H300.5L292.5 170.5H299.5L306.5 159L307 158Z" fill="#171C3A"/>
<path d="M280.5 139.5L277.5 134L276.06 136.641L279.358 141.975L280.5 139.5Z" fill="#D9D9D9"/>
<path d="M280.5 139.5L277.5 134L276.06 136.641L279.358 141.975L280.5 139.5Z" fill="#171C3A"/>
<path d="M307 158L314.5 170.5H321L314 158H307Z" fill="#D9D9D9"/>
<path d="M307 158L314.5 170.5H321L314 158H307Z" fill="#171C3A"/>
<path d="M321 170.5L318 176L321 182.5V170.5Z" fill="#D9D9D9"/>
<path d="M321 170.5L318 176L321 182.5V170.5Z" fill="#171C3A"/>
<path d="M321 182.5L318 189L321 194.5V182.5Z" fill="#D9D9D9"/>
<path d="M321 182.5L318 189L321 194.5V182.5Z" fill="#171C3A"/>
<path d="M321 194.5H314.5L306.5 207H313.5L320.5 195.5L321 194.5Z" fill="#D9D9D9"/>
<path d="M321 194.5H314.5L306.5 207H313.5L320.5 195.5L321 194.5Z" fill="#171C3A"/>
<path d="M292.5 194.5L300 207H306.5L299.5 194.5H292.5Z" fill="#D9D9D9"/>
<path d="M292.5 194.5L300 207H306.5L299.5 194.5H292.5Z" fill="#171C3A"/>
<path d="M292.5 182.5L289.5 189L292.5 194.5L296 189L292.5 182.5Z" fill="#D9D9D9"/>
<path d="M292.5 182.5L289.5 189L292.5 194.5L296 189L292.5 182.5Z" fill="#171C3A"/>
<path d="M292.5 170.5L289.5 176L292.5 182.5L295.5 176L292.5 170.5Z" fill="#D9D9D9"/>
<path d="M292.5 170.5L289.5 176L292.5 182.5L295.5 176L292.5 170.5Z" fill="#171C3A"/>
<path d="M292.5 194.5H286L278 207H285L292 195.5L292.5 194.5Z" fill="#D9D9D9"/>
<path d="M292.5 194.5H286L278 207H285L292 195.5L292.5 194.5Z" fill="#171C3A"/>
<path d="M271 207H277.5L271.9 197H265L271 207Z" fill="#D9D9D9"/>
<path d="M271 207H277.5L271.9 197H265L271 207Z" fill="#171C3A"/>
<path d="M249.5 207H256L262.087 197H255.4L249.267 206.583L249.5 207Z" fill="#D9D9D9"/>
<path d="M249.5 207H256L262.087 197H255.4L249.267 206.583L249.5 207Z" fill="#171C3A"/>
<path d="M243 207H249L249.267 206.583L243.9 197H237L243 207Z" fill="#D9D9D9"/>
<path d="M243 207H249L249.267 206.583L243.9 197H237L243 207Z" fill="#171C3A"/>
<path d="M221 207H228L234.087 197H227.4L221 207Z" fill="#D9D9D9"/>
<path d="M221 207H228L234.087 197H227.4L221 207Z" fill="#171C3A"/>
<path d="M213.5 207H220L214.4 197H207.5L213.5 207Z" fill="#D9D9D9"/>
<path d="M213.5 207H220L214.4 197H207.5L213.5 207Z" fill="#171C3A"/>
<path d="M177 194.5L184.5 207H191L184 194.5H177Z" fill="#D9D9D9"/>
<path d="M177 194.5L184.5 207H191L184 194.5H177Z" fill="#171C3A"/>
<path d="M177 182.5L174 189L177 194.5L180.5 189L177 182.5Z" fill="#D9D9D9"/>
<path d="M177 182.5L174 189L177 194.5L180.5 189L177 182.5Z" fill="#171C3A"/>
<path d="M177 170.5L174 176L177 182.5L180 176L177 170.5Z" fill="#D9D9D9"/>
<path d="M177 170.5L174 176L177 182.5L180 176L177 170.5Z" fill="#171C3A"/>
<path d="M177 194.5H170.5L162.5 207H169.5L176.5 195.5L177 194.5Z" fill="#D9D9D9"/>
<path d="M177 194.5H170.5L162.5 207H169.5L176.5 195.5L177 194.5Z" fill="#171C3A"/>
<path d="M147.5 194.5H141L133.267 206.583L133.5 207H140L147 195.5L147.5 194.5Z" fill="#D9D9D9"/>
<path d="M147.5 194.5H141L133.267 206.583L133.5 207H140L147 195.5L147.5 194.5Z" fill="#171C3A"/>
<path d="M147.5 182.5L144.5 189L147.5 194.5L151 189L147.5 182.5Z" fill="#D9D9D9"/>
<path d="M147.5 182.5L144.5 189L147.5 194.5L151 189L147.5 182.5Z" fill="#171C3A"/>
<path d="M147.5 194.5L155 207H161.5L154.5 194.5H147.5Z" fill="#D9D9D9"/>
<path d="M147.5 194.5L155 207H161.5L154.5 194.5H147.5Z" fill="#171C3A"/>
<path d="M147.5 170.5L144.5 176L147.5 182.5L150.5 176L147.5 170.5Z" fill="#D9D9D9"/>
<path d="M147.5 170.5L144.5 176L147.5 182.5L150.5 176L147.5 170.5Z" fill="#171C3A"/>
<path d="M119.5 194.5L127 207H133L133.267 206.583L126.5 194.5H119.5Z" fill="#D9D9D9"/>
<path d="M119.5 194.5L127 207H133L133.267 206.583L126.5 194.5H119.5Z" fill="#171C3A"/>
<path d="M119.5 182.5L116.5 189L119.5 194.5L123 189L119.5 182.5Z" fill="#D9D9D9"/>
<path d="M119.5 182.5L116.5 189L119.5 194.5L123 189L119.5 182.5Z" fill="#171C3A"/>
<path d="M119.5 170.5L116.5 176L119.5 182.5L122.5 176L119.5 170.5Z" fill="#D9D9D9"/>
<path d="M119.5 170.5L116.5 176L119.5 182.5L122.5 176L119.5 170.5Z" fill="#171C3A"/>
<path d="M89 170.5L86 176L89 182.5L92 176L89 170.5Z" fill="#D9D9D9"/>
<path d="M89 170.5L86 176L89 182.5L92 176L89 170.5Z" fill="#171C3A"/>
<path d="M89 182.5L86 189L89 194.5L92.5 189L89 182.5Z" fill="#D9D9D9"/>
<path d="M89 182.5L86 189L89 194.5L92.5 189L89 182.5Z" fill="#171C3A"/>
<path d="M89 194.5L96.5 207H103L96 194.5H89Z" fill="#D9D9D9"/>
<path d="M89 194.5L96.5 207H103L96 194.5H89Z" fill="#171C3A"/>
<path d="M119.5 194.5H113L105 207H112L119 195.5L119.5 194.5Z" fill="#D9D9D9"/>
<path d="M119.5 194.5H113L105 207H112L119 195.5L119.5 194.5Z" fill="#171C3A"/>
<path d="M59 170.5L56 176L59 182.5L62 176L59 170.5Z" fill="#D9D9D9"/>
<path d="M59 170.5L56 176L59 182.5L62 176L59 170.5Z" fill="#171C3A"/>
<path d="M59 182.5L56 189L59 194.5L62.5 189L59 182.5Z" fill="#D9D9D9"/>
<path d="M59 182.5L56 189L59 194.5L62.5 189L59 182.5Z" fill="#171C3A"/>
<path d="M59 194.5L66.5 207H73L66 194.5H59Z" fill="#D9D9D9"/>
<path d="M59 194.5L66.5 207H73L66 194.5H59Z" fill="#171C3A"/>
<path d="M59 194.5H52.5L44.5 207H51.5L58.5 195.5L59 194.5Z" fill="#D9D9D9"/>
<path d="M59 194.5H52.5L44.5 207H51.5L58.5 195.5L59 194.5Z" fill="#171C3A"/>
<path d="M29.5 194.5L37 207H43.5L36.5 194.5H29.5Z" fill="#D9D9D9"/>
<path d="M29.5 194.5L37 207H43.5L36.5 194.5H29.5Z" fill="#171C3A"/>
<path d="M29.5 182.5L26.5 189L29.5 194.5L33 189L29.5 182.5Z" fill="#D9D9D9"/>
<path d="M29.5 182.5L26.5 189L29.5 194.5L33 189L29.5 182.5Z" fill="#171C3A"/>
<path d="M29.5 170.5L26.5 176L29.5 182.5L32.5 176L29.5 170.5Z" fill="#D9D9D9"/>
<path d="M29.5 170.5L26.5 176L29.5 182.5L32.5 176L29.5 170.5Z" fill="#171C3A"/>
<path d="M29.5 194.5H23L15 207H22L29 195.5L29.5 194.5Z" fill="#D9D9D9"/>
<path d="M29.5 194.5H23L15 207H22L29 195.5L29.5 194.5Z" fill="#171C3A"/>
<path d="M0.500029 194.5L8.00004 207H14.5L7.50004 194.5H0.500029Z" fill="#D9D9D9"/>
<path d="M0.500029 194.5L8.00004 207H14.5L7.50004 194.5H0.500029Z" fill="#171C3A"/>
<path d="M2.86102e-05 170.5V195.5L0.500029 194.5L4.00004 189L0.500029 182.5L3.50004 176L0.500029 170.5H2.86102e-05Z" fill="#D9D9D9"/>
<path d="M2.86102e-05 170.5V195.5L0.500029 194.5L4.00004 189L0.500029 182.5L3.50004 176L0.500029 170.5H2.86102e-05Z" fill="#171C3A"/>
<path d="M14.5 158H8.00004L2.86102e-05 170.5H0.500029H7.00004L14 159L14.5 158Z" fill="#D9D9D9"/>
<path d="M14.5 158H8.00004L2.86102e-05 170.5H0.500029H7.00004L14 159L14.5 158Z" fill="#171C3A"/>
<path d="M14.5 146L11.5 152.5L14.5 158L18 152.5L14.5 146Z" fill="#D9D9D9"/>
<path d="M14.5 146L11.5 152.5L14.5 158L18 152.5L14.5 146Z" fill="#171C3A"/>
<path d="M14.5 134L11.5 139.5L14.5 146L17.5 139.5L14.5 134Z" fill="#D9D9D9"/>
<path d="M14.5 134L11.5 139.5L14.5 146L17.5 139.5L14.5 134Z" fill="#171C3A"/>
<path d="M14.5 158L22 170.5H28.5L21.5 158H14.5Z" fill="#D9D9D9"/>
<path d="M14.5 158L22 170.5H28.5L21.5 158H14.5Z" fill="#171C3A"/>
<path d="M44 158H37.5L29.5 170.5H36.5L43.5 159L44 158Z" fill="#D9D9D9"/>
<path d="M44 158H37.5L29.5 170.5H36.5L43.5 159L44 158Z" fill="#171C3A"/>
<path d="M44 146L41 152.5L44 158L47.5 152.5L44 146Z" fill="#D9D9D9"/>
<path d="M44 146L41 152.5L44 158L47.5 152.5L44 146Z" fill="#171C3A"/>
<path d="M44 134L41 139.5L44 146L47 139.5L44 134Z" fill="#D9D9D9"/>
<path d="M44 134L41 139.5L44 146L47 139.5L44 134Z" fill="#171C3A"/>
<path d="M44 158L51.5 170.5H58L51 158H44Z" fill="#D9D9D9"/>
<path d="M44 158L51.5 170.5H58L51 158H44Z" fill="#171C3A"/>
<path d="M74 158H67.5L59.5 170.5H66.5L73.5 159L74 158Z" fill="#D9D9D9"/>
<path d="M74 158H67.5L59.5 170.5H66.5L73.5 159L74 158Z" fill="#171C3A"/>
<path d="M74 158L81.5 170.5H88L81 158H74Z" fill="#D9D9D9"/>
<path d="M74 158L81.5 170.5H88L81 158H74Z" fill="#171C3A"/>
<path d="M74 146L71 152.5L74 158L77.5 152.5L74 146Z" fill="#D9D9D9"/>
<path d="M74 146L71 152.5L74 158L77.5 152.5L74 146Z" fill="#171C3A"/>
<path d="M74 134L71 139.5L74 146L77 139.5L74 134Z" fill="#D9D9D9"/>
<path d="M74 134L71 139.5L74 146L77 139.5L74 134Z" fill="#171C3A"/>
<path d="M2.86102e-05 121L7.50008 133.5H14.0001L7.00008 121H2.86102e-05Z" fill="#D9D9D9"/>
<path d="M2.86102e-05 121L7.50008 133.5H14.0001L7.00008 121H2.86102e-05Z" fill="#171C3A"/>
<path d="M29 108.5L26 115L29 120.5L32.5 115L29 108.5Z" fill="#D9D9D9"/>
<path d="M29 108.5L26 115L29 120.5L32.5 115L29 108.5Z" fill="#171C3A"/>
<path d="M29 96.5L26 102L29 108.5L32 102L29 96.5Z" fill="#D9D9D9"/>
<path d="M29 96.5L26 102L29 108.5L32 102L29 96.5Z" fill="#171C3A"/>
<path d="M29 120.5L36.5 133H43L36 120.5H29Z" fill="#D9D9D9"/>
<path d="M29 120.5L36.5 133H43L36 120.5H29Z" fill="#171C3A"/>
<path d="M29 120.5H22.5L14.5 133H21.5L28.5 121.5L29 120.5Z" fill="#D9D9D9"/>
<path d="M29 120.5H22.5L14.5 133H21.5L28.5 121.5L29 120.5Z" fill="#171C3A"/>
<path d="M58.5 120.5H52L44 133H51L58 121.5L58.5 120.5Z" fill="#D9D9D9"/>
<path d="M58.5 120.5H52L44 133H51L58 121.5L58.5 120.5Z" fill="#171C3A"/>
<path d="M58.5 120.5L66 133H72.5L65.5 120.5H58.5Z" fill="#D9D9D9"/>
<path d="M58.5 120.5L66 133H72.5L65.5 120.5H58.5Z" fill="#171C3A"/>
<path d="M58.5 108.5L55.5 115L58.5 120.5L62 115L58.5 108.5Z" fill="#D9D9D9"/>
<path d="M58.5 108.5L55.5 115L58.5 120.5L62 115L58.5 108.5Z" fill="#171C3A"/>
<path d="M58.5 96.5L55.5 102L58.5 108.5L61.5 102L58.5 96.5Z" fill="#D9D9D9"/>
<path d="M58.5 96.5L55.5 102L58.5 108.5L61.5 102L58.5 96.5Z" fill="#171C3A"/>
<path d="M88.5 96.5L85.5 102L88.5 108.5L91.5 102L88.5 96.5Z" fill="#D9D9D9"/>
<path d="M88.5 96.5L85.5 102L88.5 108.5L91.5 102L88.5 96.5Z" fill="#171C3A"/>
<path d="M88.5 108.5L85.5 115L88.5 120.5L92 115L88.5 108.5Z" fill="#D9D9D9"/>
<path d="M88.5 108.5L85.5 115L88.5 120.5L92 115L88.5 108.5Z" fill="#171C3A"/>
<path d="M88.5 120.5H82L74 133H81L88 121.5L88.5 120.5Z" fill="#D9D9D9"/>
<path d="M88.5 120.5H82L74 133H81L88 121.5L88.5 120.5Z" fill="#171C3A"/>
<path d="M88.5 120.5L96 133H102.5L95.5 120.5H88.5Z" fill="#D9D9D9"/>
<path d="M88.5 120.5L96 133H102.5L95.5 120.5H88.5Z" fill="#171C3A"/>
<path d="M119 120.5H112.5L104.5 133H111.5L118.5 121.5L119 120.5Z" fill="#D9D9D9"/>
<path d="M119 120.5H112.5L104.5 133H111.5L118.5 121.5L119 120.5Z" fill="#171C3A"/>
<path d="M104.5 134L101.5 139.5L104.5 146L107.5 139.5L104.5 134Z" fill="#D9D9D9"/>
<path d="M104.5 134L101.5 139.5L104.5 146L107.5 139.5L104.5 134Z" fill="#171C3A"/>
<path d="M89 194.5H82.5L74.5 207H81.5L88.5 195.5L89 194.5Z" fill="#D9D9D9"/>
<path d="M89 194.5H82.5L74.5 207H81.5L88.5 195.5L89 194.5Z" fill="#171C3A"/>
<path d="M104.5 158H98L90 170.5H97L104 159L104.5 158Z" fill="#D9D9D9"/>
<path d="M104.5 158H98L90 170.5H97L104 159L104.5 158Z" fill="#171C3A"/>
<path d="M104.5 146L101.5 152.5L104.5 158L108 152.5L104.5 146Z" fill="#D9D9D9"/>
<path d="M104.5 146L101.5 152.5L104.5 158L108 152.5L104.5 146Z" fill="#171C3A"/>
<path d="M104.5 158L112 170.5H118L118.267 170.083L111.5 158H104.5Z" fill="#D9D9D9"/>
<path d="M104.5 158L112 170.5H118L118.267 170.083L111.5 158H104.5Z" fill="#171C3A"/>
<path d="M132.5 158H126L118.267 170.083L118.5 170.5H119.5H125L132 159L132.5 158Z" fill="#D9D9D9"/>
<path d="M132.5 158H126L118.267 170.083L118.5 170.5H119.5H125L132 159L132.5 158Z" fill="#171C3A"/>
<path d="M132.5 158L140 170.5H146.5L139.5 158H132.5Z" fill="#D9D9D9"/>
<path d="M132.5 158L140 170.5H146.5L139.5 158H132.5Z" fill="#171C3A"/>
<path d="M132.5 146L129.5 152.5L132.5 158L136 152.5L132.5 146Z" fill="#D9D9D9"/>
<path d="M132.5 146L129.5 152.5L132.5 158L136 152.5L132.5 146Z" fill="#171C3A"/>
<path d="M132.5 134L129.5 139.5L132.5 146L135.5 139.5L132.5 134Z" fill="#D9D9D9"/>
<path d="M132.5 134L129.5 139.5L132.5 146L135.5 139.5L132.5 134Z" fill="#171C3A"/>
<path d="M119 120.5L126.5 133H132.5L132.767 132.583L126 120.5H119Z" fill="#D9D9D9"/>
<path d="M119 120.5L126.5 133H132.5L132.767 132.583L126 120.5H119Z" fill="#171C3A"/>
<path d="M119 108.5L116 115L119 120.5L122.5 115L119 108.5Z" fill="#D9D9D9"/>
<path d="M119 108.5L116 115L119 120.5L122.5 115L119 108.5Z" fill="#171C3A"/>
<path d="M119 96.5L116 102L119 108.5L122 102L119 96.5Z" fill="#D9D9D9"/>
<path d="M119 96.5L116 102L119 108.5L122 102L119 96.5Z" fill="#171C3A"/>
<path d="M147 96.5L144 102L147 108.5L150 102L147 96.5Z" fill="#D9D9D9"/>
<path d="M147 96.5L144 102L147 108.5L150 102L147 96.5Z" fill="#171C3A"/>
<path d="M147 108.5L144 115L147 120.5L150.5 115L147 108.5Z" fill="#D9D9D9"/>
<path d="M147 108.5L144 115L147 120.5L150.5 115L147 108.5Z" fill="#171C3A"/>
<path d="M147 120.5H140.5L132.767 132.583L133 133H139.5L146.5 121.5L147 120.5Z" fill="#D9D9D9"/>
<path d="M147 120.5H140.5L132.767 132.583L133 133H139.5L146.5 121.5L147 120.5Z" fill="#171C3A"/>
<path d="M147 120.5L154.5 133H161L154 120.5H147Z" fill="#D9D9D9"/>
<path d="M147 120.5L154.5 133H161L154 120.5H147Z" fill="#171C3A"/>
<path d="M162 134L159 139.5L162 146L165 139.5L162 134Z" fill="#D9D9D9"/>
<path d="M162 134L159 139.5L162 146L165 139.5L162 134Z" fill="#171C3A"/>
<path d="M162 146L159 152.5L162 158L165.5 152.5L162 146Z" fill="#D9D9D9"/>
<path d="M162 146L159 152.5L162 158L165.5 152.5L162 146Z" fill="#171C3A"/>
<path d="M162 158H155.5L147.5 170.5H154.5L161.5 159L162 158Z" fill="#D9D9D9"/>
<path d="M162 158H155.5L147.5 170.5H154.5L161.5 159L162 158Z" fill="#171C3A"/>
<path d="M162 158L169.5 170.5H175L175.533 169.667L169 158H162Z" fill="#D9D9D9"/>
<path d="M162 158L169.5 170.5H175L175.533 169.667L169 158H162Z" fill="#171C3A"/>
<path d="M189.5 158H183L175.533 169.667L176 170.5H177H182L189 159L189.5 158Z" fill="#D9D9D9"/>
<path d="M189.5 158H183L175.533 169.667L176 170.5H177H182L189 159L189.5 158Z" fill="#171C3A"/>
<path d="M193.5 158H189.5L193.5 164.667V158Z" fill="#D9D9D9"/>
<path d="M193.5 158H189.5L193.5 164.667V158Z" fill="#171C3A"/>
<path d="M189.5 146L186.5 152.5L189.5 158L193 152.5L189.5 146Z" fill="#D9D9D9"/>
<path d="M189.5 146L186.5 152.5L189.5 158L193 152.5L189.5 146Z" fill="#171C3A"/>
<path d="M189.5 134L186.5 139.5L189.5 146L192.5 139.5L189.5 134Z" fill="#D9D9D9"/>
<path d="M189.5 134L186.5 139.5L189.5 146L192.5 139.5L189.5 134Z" fill="#171C3A"/>
<path d="M176.5 96.5L173.5 102L176.5 108.5L179.5 102L176.5 96.5Z" fill="#D9D9D9"/>
<path d="M176.5 96.5L173.5 102L176.5 108.5L179.5 102L176.5 96.5Z" fill="#171C3A"/>
<path d="M176.5 108.5L173.5 115L176.5 120.5L180 115L176.5 108.5Z" fill="#D9D9D9"/>
<path d="M176.5 108.5L173.5 115L176.5 120.5L180 115L176.5 108.5Z" fill="#171C3A"/>
<path d="M176.5 120.5L184 133H190.5L183.5 120.5H176.5Z" fill="#D9D9D9"/>
<path d="M176.5 120.5L184 133H190.5L183.5 120.5H176.5Z" fill="#171C3A"/>
<path d="M176.5 120.5H170L162 133H169L176 121.5L176.5 120.5Z" fill="#D9D9D9"/>
<path d="M176.5 120.5H170L162 133H169L176 121.5L176.5 120.5Z" fill="#171C3A"/>
<path d="M205.5 120.5H199L191 132H198L205 121.5L205.5 120.5Z" fill="#D9D9D9"/>
<path d="M205.5 120.5H199L191 132H198L205 121.5L205.5 120.5Z" fill="#171C3A"/>
<path d="M205.5 108.5L202.5 115L205.5 120.5L209 115L205.5 108.5Z" fill="#D9D9D9"/>
<path d="M205.5 108.5L202.5 115L205.5 120.5L209 115L205.5 108.5Z" fill="#171C3A"/>
<path d="M205.5 96.5L202.5 102L205.5 108.5L208.5 102L205.5 96.5Z" fill="#D9D9D9"/>
<path d="M205.5 96.5L202.5 102L205.5 108.5L208.5 102L205.5 96.5Z" fill="#171C3A"/>
<path d="M205.5 120.5L213 132H219.5L212.5 120.5H205.5Z" fill="#D9D9D9"/>
<path d="M205.5 120.5L213 132H219.5L212.5 120.5H205.5Z" fill="#171C3A"/>
<path d="M235 96.5L232 102L235 108.5L238 102L235 96.5Z" fill="#D9D9D9"/>
<path d="M235 96.5L232 102L235 108.5L238 102L235 96.5Z" fill="#171C3A"/>
<path d="M235 108.5L232 115L235 120.5L238.5 115L235 108.5Z" fill="#D9D9D9"/>
<path d="M235 108.5L232 115L235 120.5L238.5 115L235 108.5Z" fill="#171C3A"/>
<path d="M235 120.5H228.5L220.5 132H227.5L234.5 121.5L235 120.5Z" fill="#D9D9D9"/>
<path d="M235 120.5H228.5L220.5 132H227.5L234.5 121.5L235 120.5Z" fill="#171C3A"/>
<path d="M263 96.5L260 102L263 108.5L266 102L263 96.5Z" fill="#D9D9D9"/>
<path d="M263 96.5L260 102L263 108.5L266 102L263 96.5Z" fill="#171C3A"/>
<path d="M235 120.5L242.5 132H248.5L248.767 131.617L242 120.5H235Z" fill="#D9D9D9"/>
<path d="M235 120.5L242.5 132H248.5L248.767 131.617L242 120.5H235Z" fill="#171C3A"/>
<path d="M263 120.5H256.5L248.767 131.617L249 132H255.5L262.5 121.5L263 120.5Z" fill="#D9D9D9"/>
<path d="M263 120.5H256.5L248.767 131.617L249 132H255.5L262.5 121.5L263 120.5Z" fill="#171C3A"/>
<path d="M263 108.5L260 115L263 120.5L266.5 115L263 108.5Z" fill="#D9D9D9"/>
<path d="M263 108.5L260 115L263 120.5L266.5 115L263 108.5Z" fill="#171C3A"/>
<path d="M263 120.5L270.137 132.351H276.637L270 120.5H263Z" fill="#D9D9D9"/>
<path d="M263 120.5L270.137 132.351H276.637L270 120.5H263Z" fill="#171C3A"/>
<path d="M292 120.5H285.5L277.5 132.351H284.5L291.5 121.5L292 120.5Z" fill="#D9D9D9"/>
<path d="M292 120.5H285.5L277.5 132.351H284.5L291.5 121.5L292 120.5Z" fill="#171C3A"/>
<path d="M292 108.5L289 115L292 120.5L295.5 115L292 108.5Z" fill="#D9D9D9"/>
<path d="M292 108.5L289 115L292 120.5L295.5 115L292 108.5Z" fill="#171C3A"/>
<path d="M292 96.5L289 102L292 108.5L295 102L292 96.5Z" fill="#D9D9D9"/>
<path d="M292 96.5L289 102L292 108.5L295 102L292 96.5Z" fill="#171C3A"/>
<path d="M292 120.5L299 133H305.5L299 120.5H292Z" fill="#D9D9D9"/>
<path d="M292 120.5L299 133H305.5L299 120.5H292Z" fill="#171C3A"/>
<path d="M249 60H248.5L251.5 65.5L248.5 72L252 78.5L248.5 84H255.5L262.5 96.5H256L248.5 84L248 85L241 96.5H235L238 102L235 108.5L238.5 115L235 120.5H242L248.767 131.617L256.5 120.5H263L260 115L263 108.5L260 102L263 96.5L271 84H277.5L274.5 78.5L277.5 72L274.5 65.5L277.5 60H271L263.5 47.5L263 48.5L256 60H249.5H249Z" fill="#D9D9D9"/>
<path d="M249 60H248.5L251.5 65.5L248.5 72L252 78.5L248.5 84H255.5L262.5 96.5H256L248.5 84L248 85L241 96.5H235L238 102L235 108.5L238.5 115L235 120.5H242L248.767 131.617L256.5 120.5H263L260 115L263 108.5L260 102L263 96.5L271 84H277.5L274.5 78.5L277.5 72L274.5 65.5L277.5 60H271L263.5 47.5L263 48.5L256 60H249.5H249Z" fill="white"/>
<path d="M235.5 47.5H242.5L249.267 59.5833L257 47.5H263.5L260.5 42L263.5 35.5L260.5 29L263.5 23.5H257L249.5 11L249 12L242 23.5H235.5L238.5 29L235.5 35.5L239 42L235.5 47.5Z" fill="#D9D9D9"/>
<path d="M235.5 47.5H242.5L249.267 59.5833L257 47.5H263.5L260.5 42L263.5 35.5L260.5 29L263.5 23.5H257L249.5 11L249 12L242 23.5H235.5L238.5 29L235.5 35.5L239 42L235.5 47.5Z" fill="white"/>
<path d="M299.5 47.5L306.5 60L314.5 47.5H321L318 42L321 35.5L318 29L321 23.5H314.5L307 11L306.5 12L299.5 23.5H292.5L295.5 29L292.5 35.5L296 42L292.5 47.5H299.5Z" fill="#D9D9D9"/>
<path d="M299.5 47.5L306.5 60L314.5 47.5H321L318 42L321 35.5L318 29L321 23.5H314.5L307 11L306.5 12L299.5 23.5H292.5L295.5 29L292.5 35.5L296 42L292.5 47.5H299.5Z" fill="white"/>
<path d="M307 0H278.5L282 5.5L278.5 11H285.5L292.5 23.5L300.5 11H307L304 5.5L307 0Z" fill="#D9D9D9"/>
<path d="M307 0H278.5L282 5.5L278.5 11H285.5L292.5 23.5L300.5 11H307L304 5.5L307 0Z" fill="white"/>
<path d="M321 0H307L310.5 5.5L307 11H314L321 23.5V0Z" fill="#D9D9D9"/>
<path d="M321 0H307L310.5 5.5L307 11H314L321 23.5V0Z" fill="white"/>
<path d="M299.5 194.5L306.5 207L314.5 194.5H321L318 189L321 182.5L318 176L321 170.5H314.5L307 158L306.5 159L299.5 170.5H292.5L295.5 176L292.5 182.5L296 189L292.5 194.5H299.5Z" fill="#D9D9D9"/>
<path d="M299.5 194.5L306.5 207L314.5 194.5H321L318 189L321 182.5L318 176L321 170.5H314.5L307 158L306.5 159L299.5 170.5H292.5L295.5 176L292.5 182.5L296 189L292.5 194.5H299.5Z" fill="white"/>
<path d="M314 158L321 170.5V122.5L314 134H307L310 139.5L307 146L310.5 152.5L307 158H314Z" fill="#D9D9D9"/>
<path d="M314 158L321 170.5V122.5L314 134H307L310 139.5L307 146L310.5 152.5L307 158H314Z" fill="white"/>
<path d="M7.24792e-05 109L3.00008 102.5L7.24792e-05 97V109Z" fill="#D9D9D9"/>
<path d="M7.24792e-05 109L3.00008 102.5L7.24792e-05 97V109Z" fill="#171C3A"/>
<path d="M2.86102e-05 121L3.50008 115.5L7.24792e-05 109L2.86102e-05 121Z" fill="#D9D9D9"/>
<path d="M2.86102e-05 121L3.50008 115.5L7.24792e-05 109L2.86102e-05 121Z" fill="#171C3A"/>
<path d="M11.5 65.5L14.5 60H8L2.86102e-05 48V96.5L8.00004 84H14.5L11.5 78.5L14.5 72L11.5 65.5Z" fill="#D9D9D9"/>
<path d="M11.5 65.5L14.5 60H8L2.86102e-05 48V96.5L8.00004 84H14.5L11.5 78.5L14.5 72L11.5 65.5Z" fill="white"/>
<path d="M133 0H104.5L108 5.498L104.5 10.998H111.5L118.5 23.498L126.5 10.998H133L130 5.498L133 0Z" fill="#D9D9D9"/>
<path d="M133 0H104.5L108 5.498L104.5 10.998H111.5L118.5 23.498L126.5 10.998H133L130 5.498L133 0Z" fill="white"/>
<path fill-rule="evenodd" clip-rule="evenodd" d="M2.86102e-05 0H15L12 5.49992L15 10.9999H8.50004L0.500038 23.4999H7.50004L14.5 11.9999L15 10.9999L22.5 23.4999H29L22 10.9999H15L18.5 5.49992L15 0H44L41 5.49932L44 10.9993H37.5L29.5 23.5L26.5 29L29.5 35.5L26.5 42L29.5 47.5H23L15 60H22L29 48.5L29.5 47.5L37 60H43.5L36.5 47.5H29.5L33 42L29.5 35.5L32.5 29L29.5 23.5L36.5 23.4993L43.5 11.9993L44 10.9993L51.5 23.4993L58 23.4995L56 29L59 35.5L56 42L59 47.5H52.5L44.5 60H51.5L58.5 48.5L59 47.5L66.5 60H73L66 47.5H59L62.5 42L59 35.5L62 29L58 23.4995L51 10.9993H44L47.5 5.49932L44 0H73.5L70.5 5.498L73.5 10.998H67L59 23.498H66L73 11.998L73.5 10.998L81 23.498H87.5L80.5 10.998H73.5L77 5.498L73.5 0H104.5L101.5 5.498L104.5 10.998H98L90 23.498H97L104 11.998L104.5 10.998L112 23.498H118.5H125.5L132.5 11.998L133 10.998L140.5 23.498H147L140 10.998H133L136.5 5.498L133 0H161.727L158.727 6.00043L161.727 11.5004H155.227L147.522 23.5399L147.5 23.5L147.227 24.0004L144.5 29L147.5 35.5L144.5 42L147.5 47.5H141L133.267 59.5833L126.5 47.5H119.5L123 42L119.5 35.5L122.5 29L119.5 23.5L116.5 29L119.5 35.5L116.5 42L119.5 47.5H113L105 60H112L119 48.5L119.5 47.5L127 60H132.5L129.5 65.5L132.5 72L129.5 78.5L132.5 84H126L118.267 96.0833L111.5 84H104.5L108 78.5L104.5 72L107.5 65.5L104.5 60L101.5 65.5L104.5 72L101.5 78.5L104.5 84H98L90 96.5H97L104 85L104.5 84L112 96.5H118H118.5H119L116 102L119 108.5L116 115L119 120.5H112.5L104.5 133H111.5L118.5 121.5L119 120.5L126.5 133H132.5H133H139.5L146.5 121.5L147 120.5L154.5 133H161L154 120.5H147L150.5 115L147 108.5L150 102L147 96.5L144 102L147 108.5L144 115L147 120.5H140.5L132.767 132.583L126 120.5H119L122.5 115L119 108.5L122 102L119 96.5H125L132 85L132.5 84L140 96.5H146.5L139.5 84H132.5L136 78.5L132.5 72L135.5 65.5L132.5 60H133H133.5H140L147 48.5L147.5 47.5L155 60H161.5L154.5 47.5H147.5L151 42L147.5 35.5L150.5 29L147.773 24.0004H154.227L161.227 12.5004L161.727 11.5004L169.227 24.0004H175.727L168.727 11.5004H161.727L165.227 6.00043L161.727 0H191.5L188.5 5.49999L191.5 11H185L177 23.5L174 29L177 35.5L174 42L177 47.5H170.5L162.5 60H169.5L176.5 48.5L177 47.5L184.5 60H191L188 65.5L191 72L188 78.5L191 84H184.5L176.5 96.5L173.5 102L176.5 108.5L173.5 115L176.5 120.5H170L162 133H169L176 121.5L176.5 120.5L184 133H190.5L183.5 120.5H176.5L180 115L176.5 108.5L179.5 102L176.5 96.5H183.5L190.5 85L191 84L198.5 96.5H205L198 84H191L194.5 78.5L191 72L194 65.5L191 60L184 47.5H177L180.5 42L177 35.5L180 29L177 23.5L184 23.5L191 12L191.5 11L199 23.5H205.5L198.5 11H191.5L195 5.49999L191.5 0H220.5L217.5 5.5L220.5 11H214L206 23.5L203 29L206 35.5L203 42L206 47.5H199.5L191.5 60H198.5L205.5 48.5L206 47.5L213.5 60H220L213 47.5H206L209.5 42L206 35.5L209 29L206 23.5H213L220 12L220.5 11L228 23.5H234.5L227.5 11H220.5L224 5.5L220.5 0H249.5L246.5 5.5L249.5 11H243L235 23.5H235.5L232.5 29L235.5 35.5L232.5 42L235.5 47.5H229L221 60H228L235 48.5L235.5 47.5L243 60H248.5L245.5 65.5L248.5 72L245.5 78.5L248.5 84H242L234.267 96.0833L227.5 84H220.5L224 78.5L220.5 72L223.5 65.5L220.5 60L217.5 65.5L220.5 72L217.5 78.5L220.5 84H214L206 96.5H213L220 85L220.5 84L228 96.5H234H234.5H235L232 102L235 108.5L232 115L235 120.5H228.5L220.5 132H227.5L234.5 121.5L235 120.5L242.5 132H248.5H249H255.5L262.5 121.5L263 120.5L270.137 132.351H276.637L270 120.5H263L266.5 115L263 108.5L266 102L263 96.5H270L277 85L277.5 84L285 96.5H291.5L284.5 84H277.5L281 78.5L277.5 72L280.5 65.5L277.5 60L270.5 47.5H263.5L267 42L263.5 35.5L266.5 29L263.5 23.5L256.5 11H249.5L253 5.5L249.5 0H278.5L275.5 5.5L278.5 11H272L264 23.5H271L278 12L278.5 11L286 23.5H292.5L289.5 29L292.5 35.5L289.5 42L292.5 47.5H286L278 60H285L292 48.5L292.5 47.5L300 60H306.5L303.5 65.5L306.5 72L303.5 78.5L306.5 84H300L292 96.5L289 102L292 108.5L289 115L292 120.5H285.5L277.5 132.351H284.5L291.5 121.5L292 120.5L299 133H305.5L299 120.5H292L295.5 115L292 108.5L295 102L292 96.5H299L306 85L306.5 84L314 96.5H320.5L313.5 84H306.5L310 78.5L306.5 72L309.5 65.5L306.5 60H313.5L320.5 48.5L321 47.5V98.4166L318.5 103L321 108.417V110.583L318.5 116L321 120.583V121.5H315L307 134L304 139.5L307 146L304 152.5L307 158H300.5L292.5 170.5L289.5 176L292.5 182.5L289.5 189L292.5 194.5H286L278 207H285L292 195.5L292.5 194.5L300 207H306.5H313.5L320.5 195.5L321 194.5V209.5L2.86102e-05 212.5V195.5L0.500029 194.5L8.00004 207H14.5L7.50004 194.5H0.500029L4.00004 189L0.500029 182.5L3.50004 176L0.500029 170.5H7.00004L14 159L14.5 158L22 170.5H28.5L21.5 158H14.5L18 152.5L14.5 146L17.5 139.5L14.5 134L11.5 139.5L14.5 146L11.5 152.5L14.5 158H8.00004L2.86102e-05 170.5V121L7.50008 133.5H14.0001L7.00008 121H2.86102e-05L3.50008 115.5L7.24792e-05 109L3.00008 102.5L7.24792e-05 97L2.86102e-05 96.5H7.00004L14 85L14.5 84L22 96.5H28.5L21.5 84H14.5L18 78.5L14.5 72L17.5 65.5L14.5 60L7.5 47.5L2.86102e-05 48L4 42L0 35.5L4 31L2.86102e-05 25.5V0ZM273.5 197L290.5 170V160L279.358 141.975L280.5 139.5L277.5 134L276.06 136.641L273.5 132.5H193.5V134V158H189.5L193 152.5L189.5 146L192.5 139.5L189.5 134L186.5 139.5L189.5 146L186.5 152.5L189.5 158H183L175.533 169.667L169 158H162L165.5 152.5L162 146L165 139.5L162 134L159 139.5L162 146L159 152.5L162 158H155.5L147.5 170.5L144.5 176L147.5 182.5L144.5 189L147.5 194.5H141L133.267 206.583L126.5 194.5H119.5L123 189L119.5 182.5L122.5 176L119.5 170.5H125L132 159L132.5 158L140 170.5H146.5L139.5 158H132.5L136 152.5L132.5 146L135.5 139.5L132.5 134L129.5 139.5L132.5 146L129.5 152.5L132.5 158H126L118.267 170.083L111.5 158H104.5L108 152.5L104.5 146L107.5 139.5L104.5 134L101.5 139.5L104.5 146L101.5 152.5L104.5 158H98L90 170.5H97L104 159L104.5 158L112 170.5H118H118.5H119.5L116.5 176L119.5 182.5L116.5 189L119.5 194.5H113L105 207H112L119 195.5L119.5 194.5L127 207H133H133.5H140L147 195.5L147.5 194.5L155 207H161.5L154.5 194.5H147.5L151 189L147.5 182.5L150.5 176L147.5 170.5H154.5L161.5 159L162 158L169.5 170.5H175H176H177L174 176L177 182.5L174 189L177 194.5H170.5L162.5 207H169.5L176.5 195.5L177 194.5L184.5 207H191L184 194.5H177L180.5 189L177 182.5L180 176L177 170.5H182L189 159L189.5 158L193.5 164.667V197H197.9L191.5 207H198.5L204.5 197L197.9 197H207.5L213.5 207H220L214.4 197H227.4L221 207H228L234.087 197H237L243 207H249H249.5H256L262.087 197H265L271 207H277.5L271.9 197H273.5ZM89 23.5L86 29L89 35.5L86 42L89 47.5H82.5L74.5 60H81.5L88.5 48.5L89 47.5L96.5 60H103L96 47.5H89L92.5 42L89 35.5L92 29L89 23.5ZM44 60L41 65.5L44 72L41 78.5L44 84H37.5L29.5 96.5H36.5L43.5 85L44 84L51.5 96.5H58L51 84H44L47.5 78.5L44 72L47 65.5L44 60ZM74 60L71 65.5L74 72L71 78.5L74 84H67.5L59.5 96.5H66.5L73.5 85L74 84L81.5 96.5H88L81 84H74L77.5 78.5L74 72L77 65.5L74 60ZM162 60L159 65.5L162 72L159 78.5L162 84H155.5L147.5 96.5H154.5L161.5 85L162 84L169.5 96.5H176L169 84H162L165.5 78.5L162 72L165 65.5L162 60ZM29 96.5L26 102L29 108.5L26 115L29 120.5H22.5L14.5 133H21.5L28.5 121.5L29 120.5L36.5 133H43L36 120.5H29L32.5 115L29 108.5L32 102L29 96.5ZM58.5 96.5L55.5 102L58.5 108.5L55.5 115L58.5 120.5H52L44 133H51L58 121.5L58.5 120.5L66 133H72.5L65.5 120.5H58.5L62 115L58.5 108.5L61.5 102L58.5 96.5ZM88.5 96.5L85.5 102L88.5 108.5L85.5 115L88.5 120.5H82L74 133H81L88 121.5L88.5 120.5L96 133H102.5L95.5 120.5H88.5L92 115L88.5 108.5L91.5 102L88.5 96.5ZM205.5 96.5L202.5 102L205.5 108.5L202.5 115L205.5 120.5H199L191 132H198L205 121.5L205.5 120.5L213 132H219.5L212.5 120.5H205.5L209 115L205.5 108.5L208.5 102L205.5 96.5ZM44 134L41 139.5L44 146L41 152.5L44 158H37.5L29.5 170.5L26.5 176L29.5 182.5L26.5 189L29.5 194.5H23L15 207H22L29 195.5L29.5 194.5L37 207H43.5L36.5 194.5H29.5L33 189L29.5 182.5L32.5 176L29.5 170.5H36.5L43.5 159L44 158L51.5 170.5H58L51 158H44L47.5 152.5L44 146L47 139.5L44 134ZM74 134L71 139.5L74 146L71 152.5L74 158H67.5L59.5 170.5H66.5L73.5 159L74 158L81.5 170.5H88L81 158H74L77.5 152.5L74 146L77 139.5L74 134ZM59 170.5L56 176L59 182.5L56 189L59 194.5H52.5L44.5 207H51.5L58.5 195.5L59 194.5L66.5 207H73L66 194.5H59L62.5 189L59 182.5L62 176L59 170.5ZM89 170.5L86 176L89 182.5L86 189L89 194.5H82.5L74.5 207H81.5L88.5 195.5L89 194.5L96.5 207H103L96 194.5H89L92.5 189L89 182.5L92 176L89 170.5Z" fill="#D9D9D9"/>
<path fill-rule="evenodd" clip-rule="evenodd" d="M2.86102e-05 0H15L12 5.49992L15 10.9999H8.50004L0.500038 23.4999H7.50004L14.5 11.9999L15 10.9999L22.5 23.4999H29L22 10.9999H15L18.5 5.49992L15 0H44L41 5.49932L44 10.9993H37.5L29.5 23.5L26.5 29L29.5 35.5L26.5 42L29.5 47.5H23L15 60H22L29 48.5L29.5 47.5L37 60H43.5L36.5 47.5H29.5L33 42L29.5 35.5L32.5 29L29.5 23.5L36.5 23.4993L43.5 11.9993L44 10.9993L51.5 23.4993L58 23.4995L56 29L59 35.5L56 42L59 47.5H52.5L44.5 60H51.5L58.5 48.5L59 47.5L66.5 60H73L66 47.5H59L62.5 42L59 35.5L62 29L58 23.4995L51 10.9993H44L47.5 5.49932L44 0H73.5L70.5 5.498L73.5 10.998H67L59 23.498H66L73 11.998L73.5 10.998L81 23.498H87.5L80.5 10.998H73.5L77 5.498L73.5 0H104.5L101.5 5.498L104.5 10.998H98L90 23.498H97L104 11.998L104.5 10.998L112 23.498H118.5H125.5L132.5 11.998L133 10.998L140.5 23.498H147L140 10.998H133L136.5 5.498L133 0H161.727L158.727 6.00043L161.727 11.5004H155.227L147.522 23.5399L147.5 23.5L147.227 24.0004L144.5 29L147.5 35.5L144.5 42L147.5 47.5H141L133.267 59.5833L126.5 47.5H119.5L123 42L119.5 35.5L122.5 29L119.5 23.5L116.5 29L119.5 35.5L116.5 42L119.5 47.5H113L105 60H112L119 48.5L119.5 47.5L127 60H132.5L129.5 65.5L132.5 72L129.5 78.5L132.5 84H126L118.267 96.0833L111.5 84H104.5L108 78.5L104.5 72L107.5 65.5L104.5 60L101.5 65.5L104.5 72L101.5 78.5L104.5 84H98L90 96.5H97L104 85L104.5 84L112 96.5H118H118.5H119L116 102L119 108.5L116 115L119 120.5H112.5L104.5 133H111.5L118.5 121.5L119 120.5L126.5 133H132.5H133H139.5L146.5 121.5L147 120.5L154.5 133H161L154 120.5H147L150.5 115L147 108.5L150 102L147 96.5L144 102L147 108.5L144 115L147 120.5H140.5L132.767 132.583L126 120.5H119L122.5 115L119 108.5L122 102L119 96.5H125L132 85L132.5 84L140 96.5H146.5L139.5 84H132.5L136 78.5L132.5 72L135.5 65.5L132.5 60H133H133.5H140L147 48.5L147.5 47.5L155 60H161.5L154.5 47.5H147.5L151 42L147.5 35.5L150.5 29L147.773 24.0004H154.227L161.227 12.5004L161.727 11.5004L169.227 24.0004H175.727L168.727 11.5004H161.727L165.227 6.00043L161.727 0H191.5L188.5 5.49999L191.5 11H185L177 23.5L174 29L177 35.5L174 42L177 47.5H170.5L162.5 60H169.5L176.5 48.5L177 47.5L184.5 60H191L188 65.5L191 72L188 78.5L191 84H184.5L176.5 96.5L173.5 102L176.5 108.5L173.5 115L176.5 120.5H170L162 133H169L176 121.5L176.5 120.5L184 133H190.5L183.5 120.5H176.5L180 115L176.5 108.5L179.5 102L176.5 96.5H183.5L190.5 85L191 84L198.5 96.5H205L198 84H191L194.5 78.5L191 72L194 65.5L191 60L184 47.5H177L180.5 42L177 35.5L180 29L177 23.5L184 23.5L191 12L191.5 11L199 23.5H205.5L198.5 11H191.5L195 5.49999L191.5 0H220.5L217.5 5.5L220.5 11H214L206 23.5L203 29L206 35.5L203 42L206 47.5H199.5L191.5 60H198.5L205.5 48.5L206 47.5L213.5 60H220L213 47.5H206L209.5 42L206 35.5L209 29L206 23.5H213L220 12L220.5 11L228 23.5H234.5L227.5 11H220.5L224 5.5L220.5 0H249.5L246.5 5.5L249.5 11H243L235 23.5H235.5L232.5 29L235.5 35.5L232.5 42L235.5 47.5H229L221 60H228L235 48.5L235.5 47.5L243 60H248.5L245.5 65.5L248.5 72L245.5 78.5L248.5 84H242L234.267 96.0833L227.5 84H220.5L224 78.5L220.5 72L223.5 65.5L220.5 60L217.5 65.5L220.5 72L217.5 78.5L220.5 84H214L206 96.5H213L220 85L220.5 84L228 96.5H234H234.5H235L232 102L235 108.5L232 115L235 120.5H228.5L220.5 132H227.5L234.5 121.5L235 120.5L242.5 132H248.5H249H255.5L262.5 121.5L263 120.5L270.137 132.351H276.637L270 120.5H263L266.5 115L263 108.5L266 102L263 96.5H270L277 85L277.5 84L285 96.5H291.5L284.5 84H277.5L281 78.5L277.5 72L280.5 65.5L277.5 60L270.5 47.5H263.5L267 42L263.5 35.5L266.5 29L263.5 23.5L256.5 11H249.5L253 5.5L249.5 0H278.5L275.5 5.5L278.5 11H272L264 23.5H271L278 12L278.5 11L286 23.5H292.5L289.5 29L292.5 35.5L289.5 42L292.5 47.5H286L278 60H285L292 48.5L292.5 47.5L300 60H306.5L303.5 65.5L306.5 72L303.5 78.5L306.5 84H300L292 96.5L289 102L292 108.5L289 115L292 120.5H285.5L277.5 132.351H284.5L291.5 121.5L292 120.5L299 133H305.5L299 120.5H292L295.5 115L292 108.5L295 102L292 96.5H299L306 85L306.5 84L314 96.5H320.5L313.5 84H306.5L310 78.5L306.5 72L309.5 65.5L306.5 60H313.5L320.5 48.5L321 47.5V98.4166L318.5 103L321 108.417V110.583L318.5 116L321 120.583V121.5H315L307 134L304 139.5L307 146L304 152.5L307 158H300.5L292.5 170.5L289.5 176L292.5 182.5L289.5 189L292.5 194.5H286L278 207H285L292 195.5L292.5 194.5L300 207H306.5H313.5L320.5 195.5L321 194.5V209.5L2.86102e-05 212.5V195.5L0.500029 194.5L8.00004 207H14.5L7.50004 194.5H0.500029L4.00004 189L0.500029 182.5L3.50004 176L0.500029 170.5H7.00004L14 159L14.5 158L22 170.5H28.5L21.5 158H14.5L18 152.5L14.5 146L17.5 139.5L14.5 134L11.5 139.5L14.5 146L11.5 152.5L14.5 158H8.00004L2.86102e-05 170.5V121L7.50008 133.5H14.0001L7.00008 121H2.86102e-05L3.50008 115.5L7.24792e-05 109L3.00008 102.5L7.24792e-05 97L2.86102e-05 96.5H7.00004L14 85L14.5 84L22 96.5H28.5L21.5 84H14.5L18 78.5L14.5 72L17.5 65.5L14.5 60L7.5 47.5L2.86102e-05 48L4 42L0 35.5L4 31L2.86102e-05 25.5V0ZM273.5 197L290.5 170V160L279.358 141.975L280.5 139.5L277.5 134L276.06 136.641L273.5 132.5H193.5V134V158H189.5L193 152.5L189.5 146L192.5 139.5L189.5 134L186.5 139.5L189.5 146L186.5 152.5L189.5 158H183L175.533 169.667L169 158H162L165.5 152.5L162 146L165 139.5L162 134L159 139.5L162 146L159 152.5L162 158H155.5L147.5 170.5L144.5 176L147.5 182.5L144.5 189L147.5 194.5H141L133.267 206.583L126.5 194.5H119.5L123 189L119.5 182.5L122.5 176L119.5 170.5H125L132 159L132.5 158L140 170.5H146.5L139.5 158H132.5L136 152.5L132.5 146L135.5 139.5L132.5 134L129.5 139.5L132.5 146L129.5 152.5L132.5 158H126L118.267 170.083L111.5 158H104.5L108 152.5L104.5 146L107.5 139.5L104.5 134L101.5 139.5L104.5 146L101.5 152.5L104.5 158H98L90 170.5H97L104 159L104.5 158L112 170.5H118H118.5H119.5L116.5 176L119.5 182.5L116.5 189L119.5 194.5H113L105 207H112L119 195.5L119.5 194.5L127 207H133H133.5H140L147 195.5L147.5 194.5L155 207H161.5L154.5 194.5H147.5L151 189L147.5 182.5L150.5 176L147.5 170.5H154.5L161.5 159L162 158L169.5 170.5H175H176H177L174 176L177 182.5L174 189L177 194.5H170.5L162.5 207H169.5L176.5 195.5L177 194.5L184.5 207H191L184 194.5H177L180.5 189L177 182.5L180 176L177 170.5H182L189 159L189.5 158L193.5 164.667V197H197.9L191.5 207H198.5L204.5 197L197.9 197H207.5L213.5 207H220L214.4 197H227.4L221 207H228L234.087 197H237L243 207H249H249.5H256L262.087 197H265L271 207H277.5L271.9 197H273.5ZM89 23.5L86 29L89 35.5L86 42L89 47.5H82.5L74.5 60H81.5L88.5 48.5L89 47.5L96.5 60H103L96 47.5H89L92.5 42L89 35.5L92 29L89 23.5ZM44 60L41 65.5L44 72L41 78.5L44 84H37.5L29.5 96.5H36.5L43.5 85L44 84L51.5 96.5H58L51 84H44L47.5 78.5L44 72L47 65.5L44 60ZM74 60L71 65.5L74 72L71 78.5L74 84H67.5L59.5 96.5H66.5L73.5 85L74 84L81.5 96.5H88L81 84H74L77.5 78.5L74 72L77 65.5L74 60ZM162 60L159 65.5L162 72L159 78.5L162 84H155.5L147.5 96.5H154.5L161.5 85L162 84L169.5 96.5H176L169 84H162L165.5 78.5L162 72L165 65.5L162 60ZM29 96.5L26 102L29 108.5L26 115L29 120.5H22.5L14.5 133H21.5L28.5 121.5L29 120.5L36.5 133H43L36 120.5H29L32.5 115L29 108.5L32 102L29 96.5ZM58.5 96.5L55.5 102L58.5 108.5L55.5 115L58.5 120.5H52L44 133H51L58 121.5L58.5 120.5L66 133H72.5L65.5 120.5H58.5L62 115L58.5 108.5L61.5 102L58.5 96.5ZM88.5 96.5L85.5 102L88.5 108.5L85.5 115L88.5 120.5H82L74 133H81L88 121.5L88.5 120.5L96 133H102.5L95.5 120.5H88.5L92 115L88.5 108.5L91.5 102L88.5 96.5ZM205.5 96.5L202.5 102L205.5 108.5L202.5 115L205.5 120.5H199L191 132H198L205 121.5L205.5 120.5L213 132H219.5L212.5 120.5H205.5L209 115L205.5 108.5L208.5 102L205.5 96.5ZM44 134L41 139.5L44 146L41 152.5L44 158H37.5L29.5 170.5L26.5 176L29.5 182.5L26.5 189L29.5 194.5H23L15 207H22L29 195.5L29.5 194.5L37 207H43.5L36.5 194.5H29.5L33 189L29.5 182.5L32.5 176L29.5 170.5H36.5L43.5 159L44 158L51.5 170.5H58L51 158H44L47.5 152.5L44 146L47 139.5L44 134ZM74 134L71 139.5L74 146L71 152.5L74 158H67.5L59.5 170.5H66.5L73.5 159L74 158L81.5 170.5H88L81 158H74L77.5 152.5L74 146L77 139.5L74 134ZM59 170.5L56 176L59 182.5L56 189L59 194.5H52.5L44.5 207H51.5L58.5 195.5L59 194.5L66.5 207H73L66 194.5H59L62.5 189L59 182.5L62 176L59 170.5ZM89 170.5L86 176L89 182.5L86 189L89 194.5H82.5L74.5 207H81.5L88.5 195.5L89 194.5L96.5 207H103L96 194.5H89L92.5 189L89 182.5L92 176L89 170.5Z" fill="white"/>
<path d="M197.9 197L191.5 207H198.5L204.5 197L197.9 197Z" fill="#D9D9D9"/>
<path d="M197.9 197L191.5 207H198.5L204.5 197L197.9 197Z" fill="#171C3A"/>
<path d="M255.4 197H243.9L249.267 206.583L255.4 197Z" fill="#D9D9D9"/>
<path d="M255.4 197H243.9L249.267 206.583L255.4 197Z" fill="white"/>
</svg>
