<svg width="1185" height="795" viewBox="0 0 1185 795" fill="none" xmlns="http://www.w3.org/2000/svg">
<path d="M505.87 195.257L478.107 344.17L313.588 395.697L478.107 452.892L505.87 604.896L560.367 452.892L714.09 395.697L560.367 344.17L505.87 195.257Z" fill="#D9D9D9"/>
<path d="M505.87 195.257L478.107 344.17L313.588 395.697L478.107 452.892L505.87 604.896L560.367 452.892L714.09 395.697L560.367 344.17L505.87 195.257Z" fill="#24296B"/>
<path d="M505.87 195.257L478.107 344.17L313.588 395.697L478.107 452.892L505.87 604.896L560.367 452.892L714.09 395.697L560.367 344.17L505.87 195.257Z" fill="#D9D9D9"/>
<path d="M505.87 195.257L478.107 344.17L313.588 395.697L478.107 452.892L505.87 604.896L560.367 452.892L714.09 395.697L560.367 344.17L505.87 195.257Z" fill="#24296B"/>
<path d="M505.87 195.257L478.107 344.17L313.588 395.697L478.107 452.892L505.87 604.896L560.367 452.892L714.09 395.697L560.367 344.17L505.87 195.257Z" fill="#D9D9D9"/>
<path d="M505.87 195.257L478.107 344.17L313.588 395.697L478.107 452.892L505.87 604.896L560.367 452.892L714.09 395.697L560.367 344.17L505.87 195.257Z" fill="#24296B"/>
<path d="M505.87 195.257L478.107 344.17L313.588 395.697L478.107 452.892L505.87 604.896L560.367 452.892L714.09 395.697L560.367 344.17L505.87 195.257Z" fill="#D9D9D9"/>
<path d="M505.87 195.257L478.107 344.17L313.588 395.697L478.107 452.892L505.87 604.896L560.367 452.892L714.09 395.697L560.367 344.17L505.87 195.257Z" fill="#24296B"/>
<path d="M505.87 195.257L478.107 344.17L313.588 395.697L478.107 452.892L505.87 604.896L560.367 452.892L714.09 395.697L560.367 344.17L505.87 195.257Z" fill="#D9D9D9"/>
<path d="M505.87 195.257L478.107 344.17L313.588 395.697L478.107 452.892L505.87 604.896L560.367 452.892L714.09 395.697L560.367 344.17L505.87 195.257Z" fill="#24296B"/>
<path d="M505.87 195.257L478.107 344.17L313.588 395.697L478.107 452.892L505.87 604.896L560.367 452.892L714.09 395.697L560.367 344.17L505.87 195.257Z" fill="#D9D9D9"/>
<path d="M505.87 195.257L478.107 344.17L313.588 395.697L478.107 452.892L505.87 604.896L560.367 452.892L714.09 395.697L560.367 344.17L505.87 195.257Z" fill="#24296B"/>
<path fill-rule="evenodd" clip-rule="evenodd" d="M1 1H905.859H992.746L1157.78 272.032L1184 319.952V470.411L992.746 794H1V1ZM478.107 344.17L505.87 195.257L560.367 344.17L714.09 395.697L560.367 452.892L505.87 604.896L478.107 452.892L313.588 395.697L478.107 344.17Z" fill="#D9D9D9"/>
<path fill-rule="evenodd" clip-rule="evenodd" d="M1 1H905.859H992.746L1157.78 272.032L1184 319.952V470.411L992.746 794H1V1ZM478.107 344.17L505.87 195.257L560.367 344.17L714.09 395.697L560.367 452.892L505.87 604.896L478.107 452.892L313.588 395.697L478.107 344.17Z" fill="#24296B"/>
<path fill-rule="evenodd" clip-rule="evenodd" d="M1 1H905.859H992.746L1157.78 272.032L1184 319.952V470.411L992.746 794H1V1ZM478.107 344.17L505.87 195.257L560.367 344.17L714.09 395.697L560.367 452.892L505.87 604.896L478.107 452.892L313.588 395.697L478.107 344.17Z" fill="#FCFCFE"/>
<path d="M505.87 195.257L478.107 344.17L313.588 395.697L478.107 452.892L505.87 604.896L560.367 452.892L714.09 395.697L560.367 344.17L505.87 195.257Z" stroke="black"/>
<path d="M505.87 195.257L478.107 344.17L313.588 395.697L478.107 452.892L505.87 604.896L560.367 452.892L714.09 395.697L560.367 344.17L505.87 195.257Z" stroke="#FCFCFE"/>
<path d="M505.87 195.257L478.107 344.17L313.588 395.697L478.107 452.892L505.87 604.896L560.367 452.892L714.09 395.697L560.367 344.17L505.87 195.257Z" stroke="black"/>
<path d="M505.87 195.257L478.107 344.17L313.588 395.697L478.107 452.892L505.87 604.896L560.367 452.892L714.09 395.697L560.367 344.17L505.87 195.257Z" stroke="#FCFCFE"/>
<path d="M505.87 195.257L478.107 344.17L313.588 395.697L478.107 452.892L505.87 604.896L560.367 452.892L714.09 395.697L560.367 344.17L505.87 195.257Z" stroke="black"/>
<path d="M505.87 195.257L478.107 344.17L313.588 395.697L478.107 452.892L505.87 604.896L560.367 452.892L714.09 395.697L560.367 344.17L505.87 195.257Z" stroke="#FCFCFE"/>
<path d="M505.87 195.257L478.107 344.17L313.588 395.697L478.107 452.892L505.87 604.896L560.367 452.892L714.09 395.697L560.367 344.17L505.87 195.257Z" stroke="black"/>
<path d="M505.87 195.257L478.107 344.17L313.588 395.697L478.107 452.892L505.87 604.896L560.367 452.892L714.09 395.697L560.367 344.17L505.87 195.257Z" stroke="#FCFCFE"/>
<path d="M505.87 195.257L478.107 344.17L313.588 395.697L478.107 452.892L505.87 604.896L560.367 452.892L714.09 395.697L560.367 344.17L505.87 195.257Z" stroke="black"/>
<path d="M505.87 195.257L478.107 344.17L313.588 395.697L478.107 452.892L505.87 604.896L560.367 452.892L714.09 395.697L560.367 344.17L505.87 195.257Z" stroke="#FCFCFE"/>
<path d="M505.87 195.257L478.107 344.17L313.588 395.697L478.107 452.892L505.87 604.896L560.367 452.892L714.09 395.697L560.367 344.17L505.87 195.257Z" stroke="black"/>
<path d="M505.87 195.257L478.107 344.17L313.588 395.697L478.107 452.892L505.87 604.896L560.367 452.892L714.09 395.697L560.367 344.17L505.87 195.257Z" stroke="#FCFCFE"/>
<path fill-rule="evenodd" clip-rule="evenodd" d="M1 1H905.859H992.746L1157.78 272.032L1184 319.952V470.411L992.746 794H1V1ZM478.107 344.17L505.87 195.257L560.367 344.17L714.09 395.697L560.367 452.892L505.87 604.896L478.107 452.892L313.588 395.697L478.107 344.17Z" stroke="black"/>
<path fill-rule="evenodd" clip-rule="evenodd" d="M1 1H905.859H992.746L1157.78 272.032L1184 319.952V470.411L992.746 794H1V1ZM478.107 344.17L505.87 195.257L560.367 344.17L714.09 395.697L560.367 452.892L505.87 604.896L478.107 452.892L313.588 395.697L478.107 344.17Z" stroke="#FCFCFE"/>
</svg>
