<svg width="98" height="65" viewBox="0 0 98 65" fill="none" xmlns="http://www.w3.org/2000/svg">
<path d="M80.8247 0H0V1.51162V25.6975H3.0309L10.1031 38.2943H3.53605L0 32.4158V64.9995H4.44535L6.06186 62.4801H12.6289L9.59794 56.9375L12.6289 50.3872L9.59794 43.8369L12.6289 38.2943L20.7113 25.6975H27.2784L24.2474 20.1549L27.2784 13.6045L24.2474 7.05421L27.2784 1.51162L30.3093 7.05421L27.2784 13.6045L30.8144 20.1549L27.2784 25.6975H34.3505L41.1869 37.8744L49 25.6975H55.567L52.5361 20.1549L55.567 13.6045L52.5361 7.05421L55.567 1.51162L58.598 7.05421L55.567 13.6045L59.1031 20.1549L55.567 25.6975H62.6392L69.7113 38.2943H63.1443L55.567 25.6975L55.0619 26.7052L47.9897 38.2943H42.433L45.4639 43.8369L42.433 50.3872L45.9691 56.9375L42.433 62.4801H49.5052L50.9196 64.9995H62.5382L64.1546 62.4801H70.7217L67.6907 56.9375L70.7217 50.3872L67.6907 43.8369L70.7217 38.2943H70.2165L78.299 25.6975H84.866L81.8351 20.1549L84.866 13.6045L81.8351 7.05421L83.4108 4.17269L80.8247 0Z" fill="white"/>
<path d="M80.8247 64.9995L97.6819 38.2943H91.9382L84.866 25.6975L84.3608 26.7052L77.2887 38.2943H70.7217L73.7526 43.8369L70.7217 50.3872L74.2577 56.9375L70.7217 62.4801H77.7938L79.2082 64.9995H80.8247Z" fill="white"/>
<path d="M19.701 38.2943H12.6289L15.6598 43.8369L12.6289 50.3872L16.1649 56.9375L12.6289 62.4801H19.701L21.1155 64.9995H27.6825H34.2495L35.866 62.4801H42.433L39.4021 56.9375L42.433 50.3872L39.4021 43.8369L42.433 38.2943H41.4227H40.9175H34.8557L27.2784 25.6975L26.7732 26.7052L19.701 38.2943Z" fill="white"/>
<path d="M3.53605 38.2943H10.1031L3.0309 25.6975H0V32.4158L3.53605 38.2943Z" fill="white"/>
<path d="M3.53605 38.2943H10.1031L3.0309 25.6975H0V32.4158L3.53605 38.2943Z" fill="#171C3A"/>
<path d="M27.2784 25.6975H20.7113L12.6289 38.2943H19.701L26.7732 26.7052L27.2784 25.6975Z" fill="white"/>
<path d="M27.2784 25.6975H20.7113L12.6289 38.2943H19.701L26.7732 26.7052L27.2784 25.6975Z" fill="#171C3A"/>
<path d="M27.2784 1.51162L24.2474 7.05421L27.2784 13.6045L30.3093 7.05421L27.2784 1.51162Z" fill="white"/>
<path d="M27.2784 1.51162L24.2474 7.05421L27.2784 13.6045L30.3093 7.05421L27.2784 1.51162Z" fill="#171C3A"/>
<path d="M27.2784 13.6045L24.2474 20.1549L27.2784 25.6975L30.8144 20.1549L27.2784 13.6045Z" fill="white"/>
<path d="M27.2784 13.6045L24.2474 20.1549L27.2784 25.6975L30.8144 20.1549L27.2784 13.6045Z" fill="#171C3A"/>
<path d="M27.2784 25.6975L34.8557 38.2943H40.9175L41.1869 37.8744L34.3505 25.6975H27.2784Z" fill="#171C3A"/>
<path d="M55.567 1.51162L52.5361 7.05421L55.567 13.6045L58.598 7.05421L55.567 1.51162Z" fill="#171C3A"/>
<path d="M55.567 13.6045L52.5361 20.1549L55.567 25.6975L59.1031 20.1549L55.567 13.6045Z" fill="#171C3A"/>
<path d="M81.8351 7.05421L84.866 13.6045L86.7426 9.54876L83.4108 4.17269L81.8351 7.05421Z" fill="#171C3A"/>
<path d="M84.866 13.6045L81.8351 20.1549L84.866 25.6975L88.4021 20.1549L84.866 13.6045Z" fill="#171C3A"/>
<path d="M84.866 25.6975L91.9382 38.2943H97.6819L91.9382 25.6975H84.866Z" fill="#171C3A"/>
<path d="M84.866 25.6975H78.299L70.2165 38.2943H70.7217H77.2887L84.3608 26.7052L84.866 25.6975Z" fill="#171C3A"/>
<path d="M55.567 25.6975L63.1443 38.2943H69.7113L62.6392 25.6975H55.567Z" fill="#171C3A"/>
<path d="M55.567 25.6975H49L41.1869 37.8744L41.4227 38.2943H42.433H47.9897L55.0619 26.7052L55.567 25.6975Z" fill="#171C3A"/>
<path d="M70.7217 38.2943L67.6907 43.8369L70.7217 50.3872L73.7526 43.8369L70.7217 38.2943Z" fill="#171C3A"/>
<path d="M70.7217 50.3872L67.6907 56.9375L70.7217 62.4801L74.2577 56.9375L70.7217 50.3872Z" fill="#171C3A"/>
<path d="M77.7938 62.4801H70.7217L72.2371 64.9995H79.2082L77.7938 62.4801Z" fill="#171C3A"/>
<path d="M12.6289 38.2943L9.59794 43.8369L12.6289 50.3872L15.6598 43.8369L12.6289 38.2943Z" fill="#171C3A"/>
<path d="M42.433 38.2943L39.4021 43.8369L42.433 50.3872L45.4639 43.8369L42.433 38.2943Z" fill="#171C3A"/>
<path d="M42.433 50.3872L39.4021 56.9375L42.433 62.4801L45.9691 56.9375L42.433 50.3872Z" fill="#171C3A"/>
<path d="M12.6289 50.3872L9.59794 56.9375L12.6289 62.4801L16.1649 56.9375L12.6289 50.3872Z" fill="#171C3A"/>
<path d="M12.6289 62.4801H6.06186L4.44535 64.9995L11.1134 65L12.6289 62.4801Z" fill="#171C3A"/>
<path d="M19.701 62.4801H12.6289L14.1443 64.9995H21.1155L19.701 62.4801Z" fill="#171C3A"/>
<path d="M42.433 62.4801H35.866L34.2495 64.9995H41.0054L41.9278 63.4879L42.433 62.4801Z" fill="white"/>
<path d="M42.433 62.4801H35.866L34.2495 64.9995H41.0054L41.9278 63.4879L42.433 62.4801Z" fill="#171C3A"/>
<path d="M49.5052 62.4801H42.433L43.9485 64.9995H50.9196L49.5052 62.4801Z" fill="#171C3A"/>
<path d="M70.7217 62.4801H64.1546L62.5382 64.9995H69.294L70.2165 63.4879L70.7217 62.4801Z" fill="#171C3A"/>
<path d="M97.6819 38.2943L98 37.7904V27.713L86.7426 9.54876L84.866 13.6045L88.4021 20.1549L84.866 25.6975H91.9382L97.6819 38.2943Z" fill="white"/>
<path d="M70.7217 62.4801L70.2165 63.4879L69.294 64.9995H72.2371L70.7217 62.4801Z" fill="white"/>
<path d="M42.433 62.4801L41.9278 63.4879L41.0054 64.9995H43.9485L42.433 62.4801Z" fill="white"/>
<path d="M12.6289 62.4801L11.1134 65L14.1443 64.9995L12.6289 62.4801Z" fill="white"/>
</svg>
