<svg width="1152" height="771" viewBox="0 0 1152 771" fill="none" xmlns="http://www.w3.org/2000/svg">
<path d="M436 117.5L407 268.5L248 310.5L407 360L436 503L477.5 360L628.5 310.5L496 268.5L436 117.5Z" fill="#D9D9D9"/>
<path d="M436 117.5L407 268.5L248 310.5L407 360L436 503L477.5 360L628.5 310.5L496 268.5L436 117.5Z" fill="#24296B"/>
<path d="M865 113L836 264L677 306L836 355.5L865 498.5L906.5 355.5L1057.5 306L925 264L865 113Z" fill="#D9D9D9"/>
<path d="M865 113L836 264L677 306L836 355.5L865 498.5L906.5 355.5L1057.5 306L925 264L865 113Z" fill="#24296B"/>
<path d="M46 86L0.5 223.5V355.5L46 480.5L87.5 310.5L210.5 283L55.5 223.5L46 86Z" fill="#D9D9D9"/>
<path d="M46 86L0.5 223.5V355.5L46 480.5L87.5 310.5L210.5 283L55.5 223.5L46 86Z" fill="#24296B"/>
<path d="M74.5 649.5L46 524L0.5 630.5V770.5H87.5L110.5 733L224 708L74.5 649.5Z" fill="#D9D9D9"/>
<path d="M74.5 649.5L46 524L0.5 630.5V770.5H87.5L110.5 733L224 708L74.5 649.5Z" fill="#24296B"/>
<path d="M452 524L407 659L264 689.5L374 733L391 770.5H514.5L526 733L639.5 719.5L496 659L452 524Z" fill="#D9D9D9"/>
<path d="M452 524L407 659L264 689.5L374 733L391 770.5H514.5L526 733L639.5 719.5L496 659L452 524Z" fill="#24296B"/>
<path d="M865 524L836 659L691 708L801 744.5L814.5 770.5H925L985 689.5L906.5 659L865 524Z" fill="#D9D9D9"/>
<path d="M865 524L836 659L691 708L801 744.5L814.5 770.5H925L985 689.5L906.5 659L865 524Z" fill="#24296B"/>
<path d="M658.5 456.5H628.5V498.5V524L677 546.5L691 524V480.5L658.5 456.5Z" fill="#D9D9D9"/>
<path d="M658.5 456.5H628.5V498.5V524L677 546.5L691 524V480.5L658.5 456.5Z" fill="#24296B"/>
<path d="M264 456.5L237 446.5L224 456.5L210.5 498.5V524L224 546.5H248L274 535L279 524V456.5H264Z" fill="#D9D9D9"/>
<path d="M264 456.5L237 446.5L224 456.5L210.5 498.5V524L224 546.5H248L274 535L279 524V456.5H264Z" fill="#24296B"/>
<path d="M264 41L230 29.5L210.5 41V67V113L248 117.5L279 86V67L264 41Z" fill="#D9D9D9"/>
<path d="M264 41L230 29.5L210.5 41V67V113L248 117.5L279 86V67L264 41Z" fill="#24296B"/>
<path d="M677 41C660.833 36.3333 628.5 29.8 628.5 41V86L639.5 113H658.5H691V67L677 41Z" fill="#D9D9D9"/>
<path d="M677 41C660.833 36.3333 628.5 29.8 628.5 41V86L639.5 113H658.5H691V67L677 41Z" fill="#24296B"/>
<path fill-rule="evenodd" clip-rule="evenodd" d="M880.5 1H0.5V223.5L46 86L55.5 223.5L210.5 283L87.5 310.5L46 480.5L0.5 355.5V630.5L46 524L74.5 649.5L224 708L110.5 733L87.5 770.5H391L374 733L264 689.5L407 659L452 524L496 659L639.5 719.5L526 733L514.5 770.5H814.5L801 744.5L691 708L836 659L865 524L906.5 659L985 689.5L925 770.5H965L1151 456.5V310.5L1125.5 264L965 1H880.5ZM407 268.5L436 117.5L496 268.5L628.5 310.5L477.5 360L436 503L407 360L248 310.5L407 268.5ZM836 264L865 113L925 264L1057.5 306L906.5 355.5L865 498.5L836 355.5L677 306L836 264ZM628.5 456.5H658.5L691 480.5V524L677 546.5L628.5 524V498.5V456.5ZM628.5 41C628.5 29.8 660.833 36.3333 677 41L691 67V113H658.5H639.5L628.5 86V41ZM230 29.5L264 41L279 67V86L248 117.5L210.5 113V67V41L230 29.5ZM237 446.5L264 456.5H279V524L274 535L248 546.5H224L210.5 524V498.5L224 456.5L237 446.5Z" fill="#D9D9D9"/>
<path fill-rule="evenodd" clip-rule="evenodd" d="M880.5 1H0.5V223.5L46 86L55.5 223.5L210.5 283L87.5 310.5L46 480.5L0.5 355.5V630.5L46 524L74.5 649.5L224 708L110.5 733L87.5 770.5H391L374 733L264 689.5L407 659L452 524L496 659L639.5 719.5L526 733L514.5 770.5H814.5L801 744.5L691 708L836 659L865 524L906.5 659L985 689.5L925 770.5H965L1151 456.5V310.5L1125.5 264L965 1H880.5ZM407 268.5L436 117.5L496 268.5L628.5 310.5L477.5 360L436 503L407 360L248 310.5L407 268.5ZM836 264L865 113L925 264L1057.5 306L906.5 355.5L865 498.5L836 355.5L677 306L836 264ZM628.5 456.5H658.5L691 480.5V524L677 546.5L628.5 524V498.5V456.5ZM628.5 41C628.5 29.8 660.833 36.3333 677 41L691 67V113H658.5H639.5L628.5 86V41ZM230 29.5L264 41L279 67V86L248 117.5L210.5 113V67V41L230 29.5ZM237 446.5L264 456.5H279V524L274 535L248 546.5H224L210.5 524V498.5L224 456.5L237 446.5Z" fill="#24296B"/>
<path fill-rule="evenodd" clip-rule="evenodd" d="M880.5 1H0.5V223.5L46 86L55.5 223.5L210.5 283L87.5 310.5L46 480.5L0.5 355.5V630.5L46 524L74.5 649.5L224 708L110.5 733L87.5 770.5H391L374 733L264 689.5L407 659L452 524L496 659L639.5 719.5L526 733L514.5 770.5H814.5L801 744.5L691 708L836 659L865 524L906.5 659L985 689.5L925 770.5H965L1151 456.5V310.5L1125.5 264L965 1H880.5ZM407 268.5L436 117.5L496 268.5L628.5 310.5L477.5 360L436 503L407 360L248 310.5L407 268.5ZM836 264L865 113L925 264L1057.5 306L906.5 355.5L865 498.5L836 355.5L677 306L836 264ZM628.5 456.5H658.5L691 480.5V524L677 546.5L628.5 524V498.5V456.5ZM628.5 41C628.5 29.8 660.833 36.3333 677 41L691 67V113H658.5H639.5L628.5 86V41ZM230 29.5L264 41L279 67V86L248 117.5L210.5 113V67V41L230 29.5ZM237 446.5L264 456.5H279V524L274 535L248 546.5H224L210.5 524V498.5L224 456.5L237 446.5Z" fill="#FFFFFB"/>
<path d="M391 770.5L374 733L264 689.5L407 659L452 524L496 659L639.5 719.5L526 733L514.5 770.5M391 770.5H514.5M391 770.5H87.5M514.5 770.5H814.5M814.5 770.5L801 744.5L691 708L836 659L865 524L906.5 659L985 689.5L925 770.5M814.5 770.5H925M925 770.5H965L1151 456.5V310.5L1125.5 264L965 1H880.5H0.5V223.5M87.5 770.5H0.5V630.5M87.5 770.5L110.5 733L224 708L74.5 649.5L46 524L0.5 630.5M0.5 630.5V355.5M0.5 223.5L46 86L55.5 223.5L210.5 283L87.5 310.5L46 480.5L0.5 355.5M0.5 223.5V355.5M628.5 41C628.5 29.8 660.833 36.3333 677 41L691 67V113M628.5 41C628.5 52.2 628.5 75.6667 628.5 86M628.5 41V86M628.5 86L639.5 113M639.5 113C639.667 113 643.7 113 658.5 113M639.5 113H658.5M658.5 113C673.3 113 686.333 113 691 113M658.5 113H691M210.5 41L230 29.5L264 41L279 67V86L248 117.5L210.5 113M210.5 41C210.5 43.3333 210.5 51.8 210.5 67M210.5 41V67M210.5 67C210.5 82.2 210.5 104 210.5 113M210.5 67V113M436 117.5L407 268.5L248 310.5L407 360L436 503L477.5 360L628.5 310.5L496 268.5L436 117.5ZM865 113L836 264L677 306L836 355.5L865 498.5L906.5 355.5L1057.5 306L925 264L865 113ZM658.5 456.5H628.5V498.5V524L677 546.5L691 524V480.5L658.5 456.5ZM264 456.5L237 446.5L224 456.5L210.5 498.5V524L224 546.5H248L274 535L279 524V456.5H264Z" stroke="black"/>
<path d="M391 770.5L374 733L264 689.5L407 659L452 524L496 659L639.5 719.5L526 733L514.5 770.5M391 770.5H514.5M391 770.5H87.5M514.5 770.5H814.5M814.5 770.5L801 744.5L691 708L836 659L865 524L906.5 659L985 689.5L925 770.5M814.5 770.5H925M925 770.5H965L1151 456.5V310.5L1125.5 264L965 1H880.5H0.5V223.5M87.5 770.5H0.5V630.5M87.5 770.5L110.5 733L224 708L74.5 649.5L46 524L0.5 630.5M0.5 630.5V355.5M0.5 223.5L46 86L55.5 223.5L210.5 283L87.5 310.5L46 480.5L0.5 355.5M0.5 223.5V355.5M628.5 41C628.5 29.8 660.833 36.3333 677 41L691 67V113M628.5 41C628.5 52.2 628.5 75.6667 628.5 86M628.5 41V86M628.5 86L639.5 113M639.5 113C639.667 113 643.7 113 658.5 113M639.5 113H658.5M658.5 113C673.3 113 686.333 113 691 113M658.5 113H691M210.5 41L230 29.5L264 41L279 67V86L248 117.5L210.5 113M210.5 41C210.5 43.3333 210.5 51.8 210.5 67M210.5 41V67M210.5 67C210.5 82.2 210.5 104 210.5 113M210.5 67V113M436 117.5L407 268.5L248 310.5L407 360L436 503L477.5 360L628.5 310.5L496 268.5L436 117.5ZM865 113L836 264L677 306L836 355.5L865 498.5L906.5 355.5L1057.5 306L925 264L865 113ZM658.5 456.5H628.5V498.5V524L677 546.5L691 524V480.5L658.5 456.5ZM264 456.5L237 446.5L224 456.5L210.5 498.5V524L224 546.5H248L274 535L279 524V456.5H264Z" stroke="#FCFCFE"/>
</svg>
