<svg width="1173" height="790" viewBox="0 0 1173 790" fill="none" xmlns="http://www.w3.org/2000/svg">
<g filter="url(#filter0_dd_7_32)">
<path d="M785.5 482.5H824V605.5H939V639.5H824V763H785.5V639.5H655.5V605.5H785.5V482.5Z" fill="#D9D9D9"/>
<path d="M785.5 482.5H824V605.5H939V639.5H824V763H785.5V639.5H655.5V605.5H785.5V482.5Z" fill="#24296B"/>
<path d="M328.5 475.5H367V598.5H482V632.5H367V756H328.5V632.5H198.5V598.5H328.5V475.5Z" fill="#24296B"/>
<path d="M5 367.5V401.5H135V525H173.5V401.5H288.5V367.5H173.5V244.5H135V367.5H5Z" fill="#24296B"/>
<path d="M328.5 25.5H367V148.5H482V182.5H367V306H328.5V182.5H198.5V148.5H328.5V25.5Z" fill="#24296B"/>
<path d="M558.5 244.5H597V367.5H712V401.5H597V525H558.5V401.5H428.5V367.5H558.5V244.5Z" fill="#24296B"/>
<path d="M785.5 25.5H824V148.5H939V182.5H824V306H785.5V182.5H655.5V148.5H785.5V25.5Z" fill="#24296B"/>
<path d="M1053.5 244.5H1015V367.5H885V401.5H1015V525H1053.5V401.5H1155.5V367.5H1053.5V244.5Z" fill="#24296B"/>
<path fill-rule="evenodd" clip-rule="evenodd" d="M885 1H5V234.5V366.5V367.5H135V244.5H173.5V367.5H288.5V401.5H173.5V525H135V401.5H5V641.5V781.5H92H395.5H519H819H929.5H969.5L1155.5 467.5V401.5H1053.5V525H1015V401.5H885V367.5H1015V244.5H1053.5V367.5H1155.5V321.5L1130 275L969.5 12L885 1ZM367 25.5H328.5V148.5H198.5V182.5H328.5V306H367V182.5H482V148.5H367V25.5ZM824 25.5H785.5V148.5H655.5V182.5H785.5V306H824V182.5H939V148.5H824V25.5ZM597 244.5H558.5V367.5H428.5V401.5H558.5V525H597V401.5H712V367.5H597V244.5ZM367 475.5H328.5V598.5H198.5V632.5H328.5V756H367V632.5H482V598.5H367V475.5ZM824 482.5H785.5V605.5H655.5V639.5H785.5V763H824V639.5H939V605.5H824V482.5Z" fill="#D9D9D9"/>
<path fill-rule="evenodd" clip-rule="evenodd" d="M885 1H5V234.5V366.5V367.5H135V244.5H173.5V367.5H288.5V401.5H173.5V525H135V401.5H5V641.5V781.5H92H395.5H519H819H929.5H969.5L1155.5 467.5V401.5H1053.5V525H1015V401.5H885V367.5H1015V244.5H1053.5V367.5H1155.5V321.5L1130 275L969.5 12L885 1ZM367 25.5H328.5V148.5H198.5V182.5H328.5V306H367V182.5H482V148.5H367V25.5ZM824 25.5H785.5V148.5H655.5V182.5H785.5V306H824V182.5H939V148.5H824V25.5ZM597 244.5H558.5V367.5H428.5V401.5H558.5V525H597V401.5H712V367.5H597V244.5ZM367 475.5H328.5V598.5H198.5V632.5H328.5V756H367V632.5H482V598.5H367V475.5ZM824 482.5H785.5V605.5H655.5V639.5H785.5V763H824V639.5H939V605.5H824V482.5Z" fill="#FCFBFF"/>
<path d="M5 641.5V781.5H92H395.5H519H819H929.5H969.5L1155.5 467.5V401.5M5 641.5V366.5M5 641.5V401.5M5 366.5V234.5V1H885L969.5 12L1130 275L1155.5 321.5V367.5M5 366.5V367.5M5 401.5H135V525H173.5V401.5H288.5V367.5H173.5V244.5H135V367.5H5M5 401.5V367.5M1155.5 401.5V367.5M1155.5 401.5H1053.5V525H1015V401.5H885V367.5H1015V244.5H1053.5V367.5H1155.5M1155.5 401.5H1168.5V367.5H1155.5M328.5 25.5H367V148.5H482V182.5H367V306H328.5V182.5H198.5V148.5H328.5V25.5ZM785.5 25.5H824V148.5H939V182.5H824V306H785.5V182.5H655.5V148.5H785.5V25.5ZM558.5 244.5H597V367.5H712V401.5H597V525H558.5V401.5H428.5V367.5H558.5V244.5ZM328.5 475.5H367V598.5H482V632.5H367V756H328.5V632.5H198.5V598.5H328.5V475.5ZM785.5 482.5H824V605.5H939V639.5H824V763H785.5V639.5H655.5V605.5H785.5V482.5Z" stroke="black"/>
<path d="M5 641.5V781.5H92H395.5H519H819H929.5H969.5L1155.5 467.5V401.5M5 641.5V366.5M5 641.5V401.5M5 366.5V234.5V1H885L969.5 12L1130 275L1155.5 321.5V367.5M5 366.5V367.5M5 401.5H135V525H173.5V401.5H288.5V367.5H173.5V244.5H135V367.5H5M5 401.5V367.5M1155.5 401.5V367.5M1155.5 401.5H1053.5V525H1015V401.5H885V367.5H1015V244.5H1053.5V367.5H1155.5M1155.5 401.5H1168.5V367.5H1155.5M328.5 25.5H367V148.5H482V182.5H367V306H328.5V182.5H198.5V148.5H328.5V25.5ZM785.5 25.5H824V148.5H939V182.5H824V306H785.5V182.5H655.5V148.5H785.5V25.5ZM558.5 244.5H597V367.5H712V401.5H597V525H558.5V401.5H428.5V367.5H558.5V244.5ZM328.5 475.5H367V598.5H482V632.5H367V756H328.5V632.5H198.5V598.5H328.5V475.5ZM785.5 482.5H824V605.5H939V639.5H824V763H785.5V639.5H655.5V605.5H785.5V482.5Z" stroke="#FCFCFE"/>
<path d="M5 641.5V781.5H92H395.5H519H819H929.5H969.5L1155.5 467.5V401.5M5 641.5V366.5M5 641.5V401.5M5 366.5V234.5V1H885L969.5 12L1130 275L1155.5 321.5V367.5M5 366.5V367.5M5 401.5H135V525H173.5V401.5H288.5V367.5H173.5V244.5H135V367.5H5M5 401.5V367.5M1155.5 401.5V367.5M1155.5 401.5H1053.5V525H1015V401.5H885V367.5H1015V244.5H1053.5V367.5H1155.5M1155.5 401.5H1168.5V367.5H1155.5M328.5 25.5H367V148.5H482V182.5H367V306H328.5V182.5H198.5V148.5H328.5V25.5ZM785.5 25.5H824V148.5H939V182.5H824V306H785.5V182.5H655.5V148.5H785.5V25.5ZM558.5 244.5H597V367.5H712V401.5H597V525H558.5V401.5H428.5V367.5H558.5V244.5ZM328.5 475.5H367V598.5H482V632.5H367V756H328.5V632.5H198.5V598.5H328.5V475.5ZM785.5 482.5H824V605.5H939V639.5H824V763H785.5V639.5H655.5V605.5H785.5V482.5Z" stroke="black" stroke-opacity="0.2"/>
</g>
<defs>
<filter id="filter0_dd_7_32" x="0.5" y="0.5" width="1172.5" height="789.5" filterUnits="userSpaceOnUse" color-interpolation-filters="sRGB">
<feFlood flood-opacity="0" result="BackgroundImageFix"/>
<feColorMatrix in="SourceAlpha" type="matrix" values="0 0 0 0 0 0 0 0 0 0 0 0 0 0 0 0 0 0 127 0" result="hardAlpha"/>
<feOffset dy="4"/>
<feGaussianBlur stdDeviation="2"/>
<feComposite in2="hardAlpha" operator="out"/>
<feColorMatrix type="matrix" values="0 0 0 0 0 0 0 0 0 0 0 0 0 0 0 0 0 0 0.25 0"/>
<feBlend mode="normal" in2="BackgroundImageFix" result="effect1_dropShadow_7_32"/>
<feColorMatrix in="SourceAlpha" type="matrix" values="0 0 0 0 0 0 0 0 0 0 0 0 0 0 0 0 0 0 127 0" result="hardAlpha"/>
<feOffset dy="4"/>
<feGaussianBlur stdDeviation="2"/>
<feComposite in2="hardAlpha" operator="out"/>
<feColorMatrix type="matrix" values="0 0 0 0 0 0 0 0 0 0 0 0 0 0 0 0 0 0 0.25 0"/>
<feBlend mode="normal" in2="effect1_dropShadow_7_32" result="effect2_dropShadow_7_32"/>
<feBlend mode="normal" in="SourceGraphic" in2="effect2_dropShadow_7_32" result="shape"/>
</filter>
</defs>
</svg>
