<svg width="1160" height="779" viewBox="0 0 1160 779" fill="none" xmlns="http://www.w3.org/2000/svg">
<g filter="url(#filter0_dd_7_28)">
<path d="M511.149 90L464.5 310.5L233 391L464.5 456.5L518.5 704.5L581.5 456.5L818.5 391L581.5 310.5L511.149 90Z" fill="#D9D9D9"/>
<path d="M511.149 90L464.5 310.5L233 391L464.5 456.5L518.5 704.5L581.5 456.5L818.5 391L581.5 310.5L511.149 90Z" fill="#1E275E"/>
<path fill-rule="evenodd" clip-rule="evenodd" d="M4.5 1H884.5H969L1129.5 264L1155 310.5V456.5L969 770.5H929H818.5H518.5H395H91.5H4.5V630.5V355.5V223.5V1ZM464.5 310.5L511.149 90L581.5 310.5L818.5 391L581.5 456.5L518.5 704.5L464.5 456.5L233 391L464.5 310.5Z" fill="#D9D9D9"/>
<path fill-rule="evenodd" clip-rule="evenodd" d="M4.5 1H884.5H969L1129.5 264L1155 310.5V456.5L969 770.5H929H818.5H518.5H395H91.5H4.5V630.5V355.5V223.5V1ZM464.5 310.5L511.149 90L581.5 310.5L818.5 391L581.5 456.5L518.5 704.5L464.5 456.5L233 391L464.5 310.5Z" fill="#1E275E"/>
<path fill-rule="evenodd" clip-rule="evenodd" d="M4.5 1H884.5H969L1129.5 264L1155 310.5V456.5L969 770.5H929H818.5H518.5H395H91.5H4.5V630.5V355.5V223.5V1ZM464.5 310.5L511.149 90L581.5 310.5L818.5 391L581.5 456.5L518.5 704.5L464.5 456.5L233 391L464.5 310.5Z" fill="#FCFBFF"/>
<path d="M511.149 90L464.5 310.5L233 391L464.5 456.5L518.5 704.5L581.5 456.5L818.5 391L581.5 310.5L511.149 90Z" stroke="black"/>
<path d="M511.149 90L464.5 310.5L233 391L464.5 456.5L518.5 704.5L581.5 456.5L818.5 391L581.5 310.5L511.149 90Z" stroke="#FCFCFE"/>
<path d="M511.149 90L464.5 310.5L233 391L464.5 456.5L518.5 704.5L581.5 456.5L818.5 391L581.5 310.5L511.149 90Z" stroke="black" stroke-opacity="0.2"/>
<path fill-rule="evenodd" clip-rule="evenodd" d="M4.5 1H884.5H969L1129.5 264L1155 310.5V456.5L969 770.5H929H818.5H518.5H395H91.5H4.5V630.5V355.5V223.5V1ZM464.5 310.5L511.149 90L581.5 310.5L818.5 391L581.5 456.5L518.5 704.5L464.5 456.5L233 391L464.5 310.5Z" stroke="black"/>
<path fill-rule="evenodd" clip-rule="evenodd" d="M4.5 1H884.5H969L1129.5 264L1155 310.5V456.5L969 770.5H929H818.5H518.5H395H91.5H4.5V630.5V355.5V223.5V1ZM464.5 310.5L511.149 90L581.5 310.5L818.5 391L581.5 456.5L518.5 704.5L464.5 456.5L233 391L464.5 310.5Z" stroke="#FCFCFE"/>
<path fill-rule="evenodd" clip-rule="evenodd" d="M4.5 1H884.5H969L1129.5 264L1155 310.5V456.5L969 770.5H929H818.5H518.5H395H91.5H4.5V630.5V355.5V223.5V1ZM464.5 310.5L511.149 90L581.5 310.5L818.5 391L581.5 456.5L518.5 704.5L464.5 456.5L233 391L464.5 310.5Z" stroke="black" stroke-opacity="0.2"/>
</g>
<defs>
<filter id="filter0_dd_7_28" x="0" y="0.5" width="1159.5" height="778.5" filterUnits="userSpaceOnUse" color-interpolation-filters="sRGB">
<feFlood flood-opacity="0" result="BackgroundImageFix"/>
<feColorMatrix in="SourceAlpha" type="matrix" values="0 0 0 0 0 0 0 0 0 0 0 0 0 0 0 0 0 0 127 0" result="hardAlpha"/>
<feOffset dy="4"/>
<feGaussianBlur stdDeviation="2"/>
<feComposite in2="hardAlpha" operator="out"/>
<feColorMatrix type="matrix" values="0 0 0 0 0 0 0 0 0 0 0 0 0 0 0 0 0 0 0.25 0"/>
<feBlend mode="normal" in2="BackgroundImageFix" result="effect1_dropShadow_7_28"/>
<feColorMatrix in="SourceAlpha" type="matrix" values="0 0 0 0 0 0 0 0 0 0 0 0 0 0 0 0 0 0 127 0" result="hardAlpha"/>
<feOffset dy="4"/>
<feGaussianBlur stdDeviation="2"/>
<feComposite in2="hardAlpha" operator="out"/>
<feColorMatrix type="matrix" values="0 0 0 0 0 0 0 0 0 0 0 0 0 0 0 0 0 0 0.25 0"/>
<feBlend mode="normal" in2="effect1_dropShadow_7_28" result="effect2_dropShadow_7_28"/>
<feBlend mode="normal" in="SourceGraphic" in2="effect2_dropShadow_7_28" result="shape"/>
</filter>
</defs>
</svg>
