<svg width="1152" height="771" viewBox="0 0 1152 771" fill="none" xmlns="http://www.w3.org/2000/svg">
<path d="M436 117.5L407 268.5L248 310.5L407 360L436 503L477.5 360L628.5 310.5L496 268.5L436 117.5Z" fill="#D9D9D9"/>
<path d="M436 117.5L407 268.5L248 310.5L407 360L436 503L477.5 360L628.5 310.5L496 268.5L436 117.5Z" fill="#24296B"/>
<path d="M865 113L836 264L677 306L836 355.5L865 498.5L906.5 355.5L1057.5 306L925 264L865 113Z" fill="#D9D9D9"/>
<path d="M865 113L836 264L677 306L836 355.5L865 498.5L906.5 355.5L1057.5 306L925 264L865 113Z" fill="#24296B"/>
<path d="M46 86L0.5 223.5V355.5L46 480.5L87.5 310.5L210.5 283L55.5 223.5L46 86Z" fill="#D9D9D9"/>
<path d="M46 86L0.5 223.5V355.5L46 480.5L87.5 310.5L210.5 283L55.5 223.5L46 86Z" fill="#24296B"/>
<path d="M74.5 649.5L46 524L0.5 630.5V770.5H87.5L110.5 733L224 708L74.5 649.5Z" fill="#D9D9D9"/>
<path d="M74.5 649.5L46 524L0.5 630.5V770.5H87.5L110.5 733L224 708L74.5 649.5Z" fill="#24296B"/>
<path d="M452 524L407 659L264 689.5L374 733L391 770.5H514.5L526 733L639.5 719.5L496 659L452 524Z" fill="#D9D9D9"/>
<path d="M452 524L407 659L264 689.5L374 733L391 770.5H514.5L526 733L639.5 719.5L496 659L452 524Z" fill="#24296B"/>
<path d="M865 524L836 659L691 708L801 744.5L814.5 770.5H925L985 689.5L906.5 659L865 524Z" fill="#D9D9D9"/>
<path d="M865 524L836 659L691 708L801 744.5L814.5 770.5H925L985 689.5L906.5 659L865 524Z" fill="#24296B"/>
<path fill-rule="evenodd" clip-rule="evenodd" d="M880.5 1H0.5V223.5L46 86L55.5 223.5L210.5 283L87.5 310.5L46 480.5L0.5 355.5V630.5L46 524L74.5 649.5L224 708L110.5 733L87.5 770.5H391L374 733L264 689.5L407 659L452 524L496 659L639.5 719.5L526 733L514.5 770.5H814.5L801 744.5L691 708L836 659L865 524L906.5 659L985 689.5L925 770.5H965L1151 456.5V310.5L1125.5 264L965 1H880.5ZM407 268.5L436 117.5L496 268.5L628.5 310.5L477.5 360L436 503L407 360L248 310.5L407 268.5ZM836 264L865 113L925 264L1057.5 306L906.5 355.5L865 498.5L836 355.5L677 306L836 264Z" fill="#D9D9D9"/>
<path fill-rule="evenodd" clip-rule="evenodd" d="M880.5 1H0.5V223.5L46 86L55.5 223.5L210.5 283L87.5 310.5L46 480.5L0.5 355.5V630.5L46 524L74.5 649.5L224 708L110.5 733L87.5 770.5H391L374 733L264 689.5L407 659L452 524L496 659L639.5 719.5L526 733L514.5 770.5H814.5L801 744.5L691 708L836 659L865 524L906.5 659L985 689.5L925 770.5H965L1151 456.5V310.5L1125.5 264L965 1H880.5ZM407 268.5L436 117.5L496 268.5L628.5 310.5L477.5 360L436 503L407 360L248 310.5L407 268.5ZM836 264L865 113L925 264L1057.5 306L906.5 355.5L865 498.5L836 355.5L677 306L836 264Z" fill="#24296B"/>
<path fill-rule="evenodd" clip-rule="evenodd" d="M880.5 1H0.5V223.5L46 86L55.5 223.5L210.5 283L87.5 310.5L46 480.5L0.5 355.5V630.5L46 524L74.5 649.5L224 708L110.5 733L87.5 770.5H391L374 733L264 689.5L407 659L452 524L496 659L639.5 719.5L526 733L514.5 770.5H814.5L801 744.5L691 708L836 659L865 524L906.5 659L985 689.5L925 770.5H965L1151 456.5V310.5L1125.5 264L965 1H880.5ZM407 268.5L436 117.5L496 268.5L628.5 310.5L477.5 360L436 503L407 360L248 310.5L407 268.5ZM836 264L865 113L925 264L1057.5 306L906.5 355.5L865 498.5L836 355.5L677 306L836 264Z" fill="#FCFBFF"/>
<path d="M391 770.5L374 733L264 689.5L407 659L452 524L496 659L639.5 719.5L526 733L514.5 770.5M391 770.5H514.5M391 770.5H87.5M514.5 770.5H814.5M814.5 770.5L801 744.5L691 708L836 659L865 524L906.5 659L985 689.5L925 770.5M814.5 770.5H925M925 770.5H965L1151 456.5V310.5L1125.5 264L965 1H880.5H0.5V223.5M87.5 770.5H0.5V630.5M87.5 770.5L110.5 733L224 708L74.5 649.5L46 524L0.5 630.5M0.5 630.5V355.5M0.5 223.5L46 86L55.5 223.5L210.5 283L87.5 310.5L46 480.5L0.5 355.5M0.5 223.5V355.5M436 117.5L407 268.5L248 310.5L407 360L436 503L477.5 360L628.5 310.5L496 268.5L436 117.5ZM865 113L836 264L677 306L836 355.5L865 498.5L906.5 355.5L1057.5 306L925 264L865 113Z" stroke="black"/>
<path d="M391 770.5L374 733L264 689.5L407 659L452 524L496 659L639.5 719.5L526 733L514.5 770.5M391 770.5H514.5M391 770.5H87.5M514.5 770.5H814.5M814.5 770.5L801 744.5L691 708L836 659L865 524L906.5 659L985 689.5L925 770.5M814.5 770.5H925M925 770.5H965L1151 456.5V310.5L1125.5 264L965 1H880.5H0.5V223.5M87.5 770.5H0.5V630.5M87.5 770.5L110.5 733L224 708L74.5 649.5L46 524L0.5 630.5M0.5 630.5V355.5M0.5 223.5L46 86L55.5 223.5L210.5 283L87.5 310.5L46 480.5L0.5 355.5M0.5 223.5V355.5M436 117.5L407 268.5L248 310.5L407 360L436 503L477.5 360L628.5 310.5L496 268.5L436 117.5ZM865 113L836 264L677 306L836 355.5L865 498.5L906.5 355.5L1057.5 306L925 264L865 113Z" stroke="#FCFCFE"/>
</svg>
