<svg width="1152" height="771" viewBox="0 0 1152 771" fill="none" xmlns="http://www.w3.org/2000/svg">
<path d="M266.649 174.5L237.649 325.5L78.649 367.5L237.649 417L266.649 560L308.149 417L459.149 367.5L326.649 325.5L266.649 174.5Z" fill="#D9D9D9"/>
<path d="M266.649 174.5L237.649 325.5L78.649 367.5L237.649 417L266.649 560L308.149 417L459.149 367.5L326.649 325.5L266.649 174.5Z" fill="#1E275E"/>
<path d="M695.649 170L666.649 321L507.649 363L666.649 412.5L695.649 555.5L737.149 412.5L888.149 363L755.649 321L695.649 170Z" fill="#D9D9D9"/>
<path d="M695.649 170L666.649 321L507.649 363L666.649 412.5L695.649 555.5L737.149 412.5L888.149 363L755.649 321L695.649 170Z" fill="#1E275E"/>
<path fill-rule="evenodd" clip-rule="evenodd" d="M1 1H881H965.5L1126 264L1151.5 310.5V456.5L965.5 770.5H925.5H815H515H391.5H88H1V630.5V355.5V223.5V1ZM237.649 325.5L266.649 174.5L326.649 325.5L459.149 367.5L308.149 417L266.649 560L237.649 417L78.649 367.5L237.649 325.5ZM666.649 321L695.649 170L755.649 321L888.149 363L737.149 412.5L695.649 555.5L666.649 412.5L507.649 363L666.649 321Z" fill="#D9D9D9"/>
<path fill-rule="evenodd" clip-rule="evenodd" d="M1 1H881H965.5L1126 264L1151.5 310.5V456.5L965.5 770.5H925.5H815H515H391.5H88H1V630.5V355.5V223.5V1ZM237.649 325.5L266.649 174.5L326.649 325.5L459.149 367.5L308.149 417L266.649 560L237.649 417L78.649 367.5L237.649 325.5ZM666.649 321L695.649 170L755.649 321L888.149 363L737.149 412.5L695.649 555.5L666.649 412.5L507.649 363L666.649 321Z" fill="#1E275E"/>
<path fill-rule="evenodd" clip-rule="evenodd" d="M1 1H881H965.5L1126 264L1151.5 310.5V456.5L965.5 770.5H925.5H815H515H391.5H88H1V630.5V355.5V223.5V1ZM237.649 325.5L266.649 174.5L326.649 325.5L459.149 367.5L308.149 417L266.649 560L237.649 417L78.649 367.5L237.649 325.5ZM666.649 321L695.649 170L755.649 321L888.149 363L737.149 412.5L695.649 555.5L666.649 412.5L507.649 363L666.649 321Z" fill="#FBFCFE"/>
<path d="M266.649 174.5L237.649 325.5L78.649 367.5L237.649 417L266.649 560L308.149 417L459.149 367.5L326.649 325.5L266.649 174.5Z" stroke="black"/>
<path d="M266.649 174.5L237.649 325.5L78.649 367.5L237.649 417L266.649 560L308.149 417L459.149 367.5L326.649 325.5L266.649 174.5Z" stroke="#FCFCFE"/>
<path d="M266.649 174.5L237.649 325.5L78.649 367.5L237.649 417L266.649 560L308.149 417L459.149 367.5L326.649 325.5L266.649 174.5Z" stroke="black" stroke-opacity="0.2"/>
<path d="M695.649 170L666.649 321L507.649 363L666.649 412.5L695.649 555.5L737.149 412.5L888.149 363L755.649 321L695.649 170Z" stroke="black"/>
<path d="M695.649 170L666.649 321L507.649 363L666.649 412.5L695.649 555.5L737.149 412.5L888.149 363L755.649 321L695.649 170Z" stroke="#FCFCFE"/>
<path d="M695.649 170L666.649 321L507.649 363L666.649 412.5L695.649 555.5L737.149 412.5L888.149 363L755.649 321L695.649 170Z" stroke="black" stroke-opacity="0.2"/>
<path fill-rule="evenodd" clip-rule="evenodd" d="M1 1H881H965.5L1126 264L1151.5 310.5V456.5L965.5 770.5H925.5H815H515H391.5H88H1V630.5V355.5V223.5V1ZM237.649 325.5L266.649 174.5L326.649 325.5L459.149 367.5L308.149 417L266.649 560L237.649 417L78.649 367.5L237.649 325.5ZM666.649 321L695.649 170L755.649 321L888.149 363L737.149 412.5L695.649 555.5L666.649 412.5L507.649 363L666.649 321Z" stroke="black"/>
<path fill-rule="evenodd" clip-rule="evenodd" d="M1 1H881H965.5L1126 264L1151.5 310.5V456.5L965.5 770.5H925.5H815H515H391.5H88H1V630.5V355.5V223.5V1ZM237.649 325.5L266.649 174.5L326.649 325.5L459.149 367.5L308.149 417L266.649 560L237.649 417L78.649 367.5L237.649 325.5ZM666.649 321L695.649 170L755.649 321L888.149 363L737.149 412.5L695.649 555.5L666.649 412.5L507.649 363L666.649 321Z" stroke="#FCFCFE"/>
<path fill-rule="evenodd" clip-rule="evenodd" d="M1 1H881H965.5L1126 264L1151.5 310.5V456.5L965.5 770.5H925.5H815H515H391.5H88H1V630.5V355.5V223.5V1ZM237.649 325.5L266.649 174.5L326.649 325.5L459.149 367.5L308.149 417L266.649 560L237.649 417L78.649 367.5L237.649 325.5ZM666.649 321L695.649 170L755.649 321L888.149 363L737.149 412.5L695.649 555.5L666.649 412.5L507.649 363L666.649 321Z" stroke="black" stroke-opacity="0.2"/>
</svg>
