<svg width="1238" height="759" viewBox="0 0 1238 759" fill="none" xmlns="http://www.w3.org/2000/svg">
<path fill-rule="evenodd" clip-rule="evenodd" d="M221.036 8.72414L203.883 48.6715L216.135 88.6189L231.329 56.9365L221.036 8.72414ZM380.81 8.72414L365.617 48.6715L380.81 88.6189L396.003 56.9365L380.81 8.72414ZM544.994 8.72414L525.39 41.3249L537.643 86.7822L562.148 48.6715L544.994 8.72414ZM700.357 8.72414L683.694 48.6715L700.357 88.6189L718.981 56.9365L700.357 8.72414ZM863.561 8.72414L843.467 48.6715L863.561 88.6189L881.695 56.9365L863.561 8.72414ZM1024.81 8.72414L1003.24 48.6715L1024.81 88.6189L1041.47 56.9365L1024.81 8.72414ZM1187.52 8.72414L1167.92 41.3249L1181.64 79.8947L1204.67 48.6715L1187.52 8.72414ZM91.6492 125.352L138.699 109.74L184.279 125.352L138.699 146.933L91.6492 125.352ZM298.473 109.74L260.245 125.352L298.473 146.933L342.582 125.352L298.473 109.74ZM458.246 109.74L419.038 125.352L458.246 146.933L507.257 125.352L458.246 109.74ZM621.45 109.74L581.752 125.352L621.45 146.933L662.619 125.352L621.45 109.74ZM781.224 109.74L741.526 125.352L781.224 146.933L823.863 125.352L781.224 109.74ZM943.938 109.74L899.829 125.352L943.938 146.933L983.637 125.352L943.938 109.74ZM1102.24 109.74L1065.97 125.352L1102.24 146.933L1149.78 125.352L1102.24 109.74ZM57.8321 158.412L35.2874 201.114L57.8321 246.572L73.0253 201.114L57.8321 158.412ZM216.135 158.412L203.883 201.114L216.135 246.572L231.329 201.114L216.135 158.412ZM380.81 158.412L365.617 201.114L380.81 246.572L396.003 201.114L380.81 158.412ZM544.994 158.412L525.39 193.768L537.643 246.572L562.148 201.114L544.994 158.412ZM700.357 158.412L683.694 193.768L700.357 246.572L718.981 201.114L700.357 158.412ZM863.561 158.412L843.467 201.114L863.561 246.572L881.695 201.114L863.561 158.412ZM1024.81 158.412L1003.24 201.114L1024.81 246.572L1041.47 201.114L1024.81 158.412ZM1187.52 158.412L1167.92 193.768L1187.52 246.572L1204.67 201.114L1187.52 158.412ZM91.6492 273.662L138.699 256.673L184.279 273.662L138.699 293.866L91.6492 273.662ZM298.473 256.673L260.245 273.662L298.473 293.866L342.582 281.009L298.473 256.673ZM458.246 256.673L419.038 281.009L458.246 293.866L507.257 281.009L458.246 256.673ZM621.45 264.02L581.752 281.009L621.45 293.866L662.619 281.009L621.45 264.02ZM781.224 264.02L741.526 273.662L781.224 293.866L823.863 281.009L781.224 264.02ZM943.938 256.673L899.829 273.662L943.938 293.866L983.637 273.662L943.938 256.673ZM1102.24 256.673L1065.97 273.662L1102.24 293.866L1149.78 273.662L1102.24 256.673ZM35.2874 350.802L57.8321 313.61L73.0253 350.802L57.8321 392.127L35.2874 350.802ZM221.036 313.61L193.591 350.802L216.135 392.127L231.329 350.802L221.036 313.61ZM380.81 313.61L365.617 350.802L380.81 392.127L396.003 350.802L380.81 313.61ZM537.643 313.61L525.39 350.802L537.643 392.127L562.148 350.802L537.643 313.61ZM700.357 313.61L683.694 350.802L700.357 392.127L718.981 350.802L700.357 313.61ZM863.561 313.61L843.467 350.802L863.561 392.127L881.695 350.802L863.561 313.61ZM1024.81 302.59L1003.24 350.802L1032.16 396.719L1041.47 350.802L1024.81 302.59ZM1187.52 302.59L1167.92 342.537L1181.64 392.127L1212.02 348.047L1187.52 302.59ZM91.6492 427.942L138.699 410.953L184.279 427.942L138.699 447.686L91.6492 427.942ZM298.473 410.953L260.245 427.942L298.473 447.686L342.582 427.942L298.473 410.953ZM458.246 410.953L419.038 427.942L458.246 447.686L507.257 427.942L458.246 410.953ZM621.45 410.953L581.752 427.942L621.45 447.686L662.619 427.942L621.45 410.953ZM781.224 410.953L749.367 427.942L781.224 447.686L823.863 427.942L781.224 410.953ZM943.938 410.953L899.829 427.942L943.938 447.686L983.637 427.942L943.938 410.953ZM1102.24 410.953L1065.97 427.942L1102.24 447.686L1149.78 427.942L1102.24 410.953ZM57.8321 463.757L35.2874 501.868L57.8321 547.784L73.0253 501.868L57.8321 463.757ZM221.036 463.757L193.591 501.868L221.036 547.784L245.051 501.868L221.036 463.757ZM380.81 463.757L356.305 501.868L380.81 547.784L396.003 501.868L380.81 463.757ZM544.994 463.757L514.608 503.704L537.643 547.784L562.148 503.704L544.994 463.757ZM700.357 463.757L683.694 503.704L700.357 547.784L718.981 503.704L700.357 463.757ZM91.6492 583.599L138.699 564.773L172.026 583.599L138.699 600.588L91.6492 583.599ZM57.8321 623.546L35.2874 656.147L57.8321 698.849L77.9264 663.034L57.8321 623.546ZM91.6492 731.909L138.699 717.675L184.279 731.909L143.11 753.031L91.6492 731.909ZM221.036 698.849L203.883 656.147L216.135 623.546L245.051 663.034L221.036 698.849ZM260.245 583.599L298.473 564.773L356.305 583.599L304.844 606.098L260.245 583.599ZM380.81 623.546L356.305 656.147L380.81 698.849L396.003 656.147L380.81 623.546ZM298.473 717.675L260.245 731.909L298.473 753.031L342.582 731.909L298.473 717.675ZM466.088 600.588L419.038 583.599L466.088 564.773L507.257 583.599L466.088 600.588ZM466.088 717.675L426.39 728.695L463.147 746.143L507.257 731.909L466.088 717.675ZM544.994 613.445L525.39 656.147L544.994 698.849L562.148 663.034L544.994 613.445ZM581.752 583.599L633.703 564.773L662.619 583.599L621.45 600.588L581.752 583.599ZM621.45 710.328L581.752 731.909L621.45 746.143L662.619 731.909L621.45 710.328ZM700.357 613.445L683.694 656.147L700.357 698.849L718.981 656.147L700.357 613.445ZM781.224 717.675L741.526 731.909L781.224 746.143L823.863 731.909L781.224 717.675ZM943.938 717.675L899.829 731.909L943.938 753.031L983.637 728.695L943.938 717.675ZM1102.24 717.675L1065.97 731.909L1102.24 753.031L1149.78 731.909L1102.24 717.675ZM1181.64 613.445L1167.92 663.034L1184.58 691.962L1204.67 656.147L1181.64 613.445ZM1187.52 463.757L1167.92 501.868L1187.52 540.437L1204.67 503.704L1187.52 463.757Z" fill="#104C2B"/>
<path fill-rule="evenodd" clip-rule="evenodd" d="M221.036 8.72414L203.883 48.6715L216.135 88.6189L231.329 56.9365L221.036 8.72414ZM380.81 8.72414L365.617 48.6715L380.81 88.6189L396.003 56.9365L380.81 8.72414ZM544.994 8.72414L525.39 41.3249L537.643 86.7822L562.148 48.6715L544.994 8.72414ZM700.357 8.72414L683.694 48.6715L700.357 88.6189L718.981 56.9365L700.357 8.72414ZM863.561 8.72414L843.467 48.6715L863.561 88.6189L881.695 56.9365L863.561 8.72414ZM1024.81 8.72414L1003.24 48.6715L1024.81 88.6189L1041.47 56.9365L1024.81 8.72414ZM1187.52 8.72414L1167.92 41.3249L1181.64 79.8947L1204.67 48.6715L1187.52 8.72414ZM91.6492 125.352L138.699 109.74L184.279 125.352L138.699 146.933L91.6492 125.352ZM298.473 109.74L260.245 125.352L298.473 146.933L342.582 125.352L298.473 109.74ZM458.246 109.74L419.038 125.352L458.246 146.933L507.257 125.352L458.246 109.74ZM621.45 109.74L581.752 125.352L621.45 146.933L662.619 125.352L621.45 109.74ZM781.224 109.74L741.526 125.352L781.224 146.933L823.863 125.352L781.224 109.74ZM943.938 109.74L899.829 125.352L943.938 146.933L983.637 125.352L943.938 109.74ZM1102.24 109.74L1065.97 125.352L1102.24 146.933L1149.78 125.352L1102.24 109.74ZM57.8321 158.412L35.2874 201.114L57.8321 246.572L73.0253 201.114L57.8321 158.412ZM216.135 158.412L203.883 201.114L216.135 246.572L231.329 201.114L216.135 158.412ZM380.81 158.412L365.617 201.114L380.81 246.572L396.003 201.114L380.81 158.412ZM544.994 158.412L525.39 193.768L537.643 246.572L562.148 201.114L544.994 158.412ZM700.357 158.412L683.694 193.768L700.357 246.572L718.981 201.114L700.357 158.412ZM863.561 158.412L843.467 201.114L863.561 246.572L881.695 201.114L863.561 158.412ZM1024.81 158.412L1003.24 201.114L1024.81 246.572L1041.47 201.114L1024.81 158.412ZM1187.52 158.412L1167.92 193.768L1187.52 246.572L1204.67 201.114L1187.52 158.412ZM91.6492 273.662L138.699 256.673L184.279 273.662L138.699 293.866L91.6492 273.662ZM298.473 256.673L260.245 273.662L298.473 293.866L342.582 281.009L298.473 256.673ZM458.246 256.673L419.038 281.009L458.246 293.866L507.257 281.009L458.246 256.673ZM621.45 264.02L581.752 281.009L621.45 293.866L662.619 281.009L621.45 264.02ZM781.224 264.02L741.526 273.662L781.224 293.866L823.863 281.009L781.224 264.02ZM943.938 256.673L899.829 273.662L943.938 293.866L983.637 273.662L943.938 256.673ZM1102.24 256.673L1065.97 273.662L1102.24 293.866L1149.78 273.662L1102.24 256.673ZM35.2874 350.802L57.8321 313.61L73.0253 350.802L57.8321 392.127L35.2874 350.802ZM221.036 313.61L193.591 350.802L216.135 392.127L231.329 350.802L221.036 313.61ZM380.81 313.61L365.617 350.802L380.81 392.127L396.003 350.802L380.81 313.61ZM537.643 313.61L525.39 350.802L537.643 392.127L562.148 350.802L537.643 313.61ZM700.357 313.61L683.694 350.802L700.357 392.127L718.981 350.802L700.357 313.61ZM863.561 313.61L843.467 350.802L863.561 392.127L881.695 350.802L863.561 313.61ZM1024.81 302.59L1003.24 350.802L1032.16 396.719L1041.47 350.802L1024.81 302.59ZM1187.52 302.59L1167.92 342.537L1181.64 392.127L1212.02 348.047L1187.52 302.59ZM91.6492 427.942L138.699 410.953L184.279 427.942L138.699 447.686L91.6492 427.942ZM298.473 410.953L260.245 427.942L298.473 447.686L342.582 427.942L298.473 410.953ZM458.246 410.953L419.038 427.942L458.246 447.686L507.257 427.942L458.246 410.953ZM621.45 410.953L581.752 427.942L621.45 447.686L662.619 427.942L621.45 410.953ZM781.224 410.953L749.367 427.942L781.224 447.686L823.863 427.942L781.224 410.953ZM943.938 410.953L899.829 427.942L943.938 447.686L983.637 427.942L943.938 410.953ZM1102.24 410.953L1065.97 427.942L1102.24 447.686L1149.78 427.942L1102.24 410.953ZM57.8321 463.757L35.2874 501.868L57.8321 547.784L73.0253 501.868L57.8321 463.757ZM221.036 463.757L193.591 501.868L221.036 547.784L245.051 501.868L221.036 463.757ZM380.81 463.757L356.305 501.868L380.81 547.784L396.003 501.868L380.81 463.757ZM544.994 463.757L514.608 503.704L537.643 547.784L562.148 503.704L544.994 463.757ZM700.357 463.757L683.694 503.704L700.357 547.784L718.981 503.704L700.357 463.757ZM91.6492 583.599L138.699 564.773L172.026 583.599L138.699 600.588L91.6492 583.599ZM57.8321 623.546L35.2874 656.147L57.8321 698.849L77.9264 663.034L57.8321 623.546ZM91.6492 731.909L138.699 717.675L184.279 731.909L143.11 753.031L91.6492 731.909ZM221.036 698.849L203.883 656.147L216.135 623.546L245.051 663.034L221.036 698.849ZM260.245 583.599L298.473 564.773L356.305 583.599L304.844 606.098L260.245 583.599ZM380.81 623.546L356.305 656.147L380.81 698.849L396.003 656.147L380.81 623.546ZM298.473 717.675L260.245 731.909L298.473 753.031L342.582 731.909L298.473 717.675ZM466.088 600.588L419.038 583.599L466.088 564.773L507.257 583.599L466.088 600.588ZM466.088 717.675L426.39 728.695L463.147 746.143L507.257 731.909L466.088 717.675ZM544.994 613.445L525.39 656.147L544.994 698.849L562.148 663.034L544.994 613.445ZM581.752 583.599L633.703 564.773L662.619 583.599L621.45 600.588L581.752 583.599ZM621.45 710.328L581.752 731.909L621.45 746.143L662.619 731.909L621.45 710.328ZM700.357 613.445L683.694 656.147L700.357 698.849L718.981 656.147L700.357 613.445ZM781.224 717.675L741.526 731.909L781.224 746.143L823.863 731.909L781.224 717.675ZM943.938 717.675L899.829 731.909L943.938 753.031L983.637 728.695L943.938 717.675ZM1102.24 717.675L1065.97 731.909L1102.24 753.031L1149.78 731.909L1102.24 717.675ZM1181.64 613.445L1167.92 663.034L1184.58 691.962L1204.67 656.147L1181.64 613.445ZM1187.52 463.757L1167.92 501.868L1187.52 540.437L1204.67 503.704L1187.52 463.757Z" fill="black" fill-opacity="0.95"/>
<path d="M57.8321 8.72414L35.2874 56.9365L57.8321 95.5064L73.0253 56.9365L57.8321 8.72414Z" fill="#104C2B"/>
<path d="M57.8321 8.72414L35.2874 56.9365L57.8321 95.5064L73.0253 56.9365L57.8321 8.72414Z" fill="black" fill-opacity="0.95"/>
<path fill-rule="evenodd" clip-rule="evenodd" d="M0 0V759H1238V0H0ZM35.2874 56.9365L57.8321 8.72414L73.0253 56.9365L57.8321 95.5064L35.2874 56.9365ZM203.883 48.6715L221.036 8.72414L231.329 56.9365L216.135 88.6189L203.883 48.6715ZM365.617 48.6715L380.81 8.72414L396.003 56.9365L380.81 88.6189L365.617 48.6715ZM525.39 41.3249L544.994 8.72414L562.148 48.6715L537.643 86.7822L525.39 41.3249ZM683.694 48.6715L700.357 8.72414L718.981 56.9365L700.357 88.6189L683.694 48.6715ZM843.467 48.6715L863.561 8.72414L881.695 56.9365L863.561 88.6189L843.467 48.6715ZM1003.24 48.6715L1024.81 8.72414L1041.47 56.9365L1024.81 88.6189L1003.24 48.6715ZM1167.92 41.3249L1187.52 8.72414L1204.67 48.6715L1181.64 79.8947L1167.92 41.3249ZM138.699 109.74L91.6492 125.352L138.699 146.933L184.279 125.352L138.699 109.74ZM260.245 125.352L298.473 109.74L342.582 125.352L298.473 146.933L260.245 125.352ZM419.038 125.352L458.246 109.74L507.257 125.352L458.246 146.933L419.038 125.352ZM581.752 125.352L621.45 109.74L662.619 125.352L621.45 146.933L581.752 125.352ZM741.526 125.352L781.224 109.74L823.863 125.352L781.224 146.933L741.526 125.352ZM899.829 125.352L943.938 109.74L983.637 125.352L943.938 146.933L899.829 125.352ZM1065.97 125.352L1102.24 109.74L1149.78 125.352L1102.24 146.933L1065.97 125.352ZM35.2874 201.114L57.8321 158.412L73.0253 201.114L57.8321 246.572L35.2874 201.114ZM203.883 201.114L216.135 158.412L231.329 201.114L216.135 246.572L203.883 201.114ZM365.617 201.114L380.81 158.412L396.003 201.114L380.81 246.572L365.617 201.114ZM525.39 193.768L544.994 158.412L562.148 201.114L537.643 246.572L525.39 193.768ZM683.694 193.768L700.357 158.412L718.981 201.114L700.357 246.572L683.694 193.768ZM843.467 201.114L863.561 158.412L881.695 201.114L863.561 246.572L843.467 201.114ZM1003.24 201.114L1024.81 158.412L1041.47 201.114L1024.81 246.572L1003.24 201.114ZM1167.92 193.768L1187.52 158.412L1204.67 201.114L1187.52 246.572L1167.92 193.768ZM138.699 256.673L91.6492 273.662L138.699 293.866L184.279 273.662L138.699 256.673ZM260.245 273.662L298.473 256.673L342.582 281.009L298.473 293.866L260.245 273.662ZM419.038 281.009L458.246 256.673L507.257 281.009L458.246 293.866L419.038 281.009ZM581.752 281.009L621.45 264.02L662.619 281.009L621.45 293.866L581.752 281.009ZM741.526 273.662L781.224 264.02L823.863 281.009L781.224 293.866L741.526 273.662ZM899.829 273.662L943.938 256.673L983.637 273.662L943.938 293.866L899.829 273.662ZM1065.97 273.662L1102.24 256.673L1149.78 273.662L1102.24 293.866L1065.97 273.662ZM57.8321 313.61L35.2874 350.802L57.8321 392.127L73.0253 350.802L57.8321 313.61ZM193.591 350.802L221.036 313.61L231.329 350.802L216.135 392.127L193.591 350.802ZM365.617 350.802L380.81 313.61L396.003 350.802L380.81 392.127L365.617 350.802ZM525.39 350.802L537.643 313.61L562.148 350.802L537.643 392.127L525.39 350.802ZM683.694 350.802L700.357 313.61L718.981 350.802L700.357 392.127L683.694 350.802ZM843.467 350.802L863.561 313.61L881.695 350.802L863.561 392.127L843.467 350.802ZM1003.24 350.802L1024.81 302.59L1041.47 350.802L1032.16 396.719L1003.24 350.802ZM1167.92 342.537L1187.52 302.59L1212.02 348.047L1181.64 392.127L1167.92 342.537ZM138.699 410.953L91.6492 427.942L138.699 447.686L184.279 427.942L138.699 410.953ZM260.245 427.942L298.473 410.953L342.582 427.942L298.473 447.686L260.245 427.942ZM419.038 427.942L458.246 410.953L507.257 427.942L458.246 447.686L419.038 427.942ZM581.752 427.942L621.45 410.953L662.619 427.942L621.45 447.686L581.752 427.942ZM749.367 427.942L781.224 410.953L823.863 427.942L781.224 447.686L749.367 427.942ZM899.829 427.942L943.938 410.953L983.637 427.942L943.938 447.686L899.829 427.942ZM1065.97 427.942L1102.24 410.953L1149.78 427.942L1102.24 447.686L1065.97 427.942ZM35.2874 501.868L57.8321 463.757L73.0253 501.868L57.8321 547.784L35.2874 501.868ZM193.591 501.868L221.036 463.757L245.051 501.868L221.036 547.784L193.591 501.868ZM356.305 501.868L380.81 463.757L396.003 501.868L380.81 547.784L356.305 501.868ZM514.608 503.704L544.994 463.757L562.148 503.704L537.643 547.784L514.608 503.704ZM683.694 503.704L700.357 463.757L718.981 503.704L700.357 547.784L683.694 503.704ZM138.699 564.773L91.6492 583.599L138.699 600.588L172.026 583.599L138.699 564.773ZM35.2874 656.147L57.8321 623.546L77.9264 663.034L57.8321 698.849L35.2874 656.147ZM138.699 717.675L91.6492 731.909L143.11 753.031L184.279 731.909L138.699 717.675ZM203.883 656.147L221.036 698.849L245.051 663.034L216.135 623.546L203.883 656.147ZM298.473 564.773L260.245 583.599L304.844 606.098L356.305 583.599L298.473 564.773ZM356.305 656.147L380.81 623.546L396.003 656.147L380.81 698.849L356.305 656.147ZM260.245 731.909L298.473 717.675L342.582 731.909L298.473 753.031L260.245 731.909ZM419.038 583.599L466.088 600.588L507.257 583.599L466.088 564.773L419.038 583.599ZM426.39 728.695L466.088 717.675L507.257 731.909L463.147 746.143L426.39 728.695ZM525.39 656.147L544.994 613.445L562.148 663.034L544.994 698.849L525.39 656.147ZM633.703 564.773L581.752 583.599L621.45 600.588L662.619 583.599L633.703 564.773ZM581.752 731.909L621.45 710.328L662.619 731.909L621.45 746.143L581.752 731.909ZM683.694 656.147L700.357 613.445L718.981 656.147L700.357 698.849L683.694 656.147ZM741.526 731.909L781.224 717.675L823.863 731.909L781.224 746.143L741.526 731.909ZM899.829 731.909L943.938 717.675L983.637 728.695L943.938 753.031L899.829 731.909ZM1065.97 731.909L1102.24 717.675L1149.78 731.909L1102.24 753.031L1065.97 731.909ZM1167.92 663.034L1181.64 613.445L1204.67 656.147L1184.58 691.962L1167.92 663.034ZM1167.92 501.868L1187.52 463.757L1204.67 503.704L1187.52 540.437L1167.92 501.868ZM1103.71 554.672L1053.72 474.777H741.526V710.328H1041.47L1088.52 656.147L1111.55 613.445L1119.4 583.599L1103.71 554.672Z" fill="#104C2B"/>
<path fill-rule="evenodd" clip-rule="evenodd" d="M0 0V759H1238V0H0ZM35.2874 56.9365L57.8321 8.72414L73.0253 56.9365L57.8321 95.5064L35.2874 56.9365ZM203.883 48.6715L221.036 8.72414L231.329 56.9365L216.135 88.6189L203.883 48.6715ZM365.617 48.6715L380.81 8.72414L396.003 56.9365L380.81 88.6189L365.617 48.6715ZM525.39 41.3249L544.994 8.72414L562.148 48.6715L537.643 86.7822L525.39 41.3249ZM683.694 48.6715L700.357 8.72414L718.981 56.9365L700.357 88.6189L683.694 48.6715ZM843.467 48.6715L863.561 8.72414L881.695 56.9365L863.561 88.6189L843.467 48.6715ZM1003.24 48.6715L1024.81 8.72414L1041.47 56.9365L1024.81 88.6189L1003.24 48.6715ZM1167.92 41.3249L1187.52 8.72414L1204.67 48.6715L1181.64 79.8947L1167.92 41.3249ZM138.699 109.74L91.6492 125.352L138.699 146.933L184.279 125.352L138.699 109.74ZM260.245 125.352L298.473 109.74L342.582 125.352L298.473 146.933L260.245 125.352ZM419.038 125.352L458.246 109.74L507.257 125.352L458.246 146.933L419.038 125.352ZM581.752 125.352L621.45 109.74L662.619 125.352L621.45 146.933L581.752 125.352ZM741.526 125.352L781.224 109.74L823.863 125.352L781.224 146.933L741.526 125.352ZM899.829 125.352L943.938 109.74L983.637 125.352L943.938 146.933L899.829 125.352ZM1065.97 125.352L1102.24 109.74L1149.78 125.352L1102.24 146.933L1065.97 125.352ZM35.2874 201.114L57.8321 158.412L73.0253 201.114L57.8321 246.572L35.2874 201.114ZM203.883 201.114L216.135 158.412L231.329 201.114L216.135 246.572L203.883 201.114ZM365.617 201.114L380.81 158.412L396.003 201.114L380.81 246.572L365.617 201.114ZM525.39 193.768L544.994 158.412L562.148 201.114L537.643 246.572L525.39 193.768ZM683.694 193.768L700.357 158.412L718.981 201.114L700.357 246.572L683.694 193.768ZM843.467 201.114L863.561 158.412L881.695 201.114L863.561 246.572L843.467 201.114ZM1003.24 201.114L1024.81 158.412L1041.47 201.114L1024.81 246.572L1003.24 201.114ZM1167.92 193.768L1187.52 158.412L1204.67 201.114L1187.52 246.572L1167.92 193.768ZM138.699 256.673L91.6492 273.662L138.699 293.866L184.279 273.662L138.699 256.673ZM260.245 273.662L298.473 256.673L342.582 281.009L298.473 293.866L260.245 273.662ZM419.038 281.009L458.246 256.673L507.257 281.009L458.246 293.866L419.038 281.009ZM581.752 281.009L621.45 264.02L662.619 281.009L621.45 293.866L581.752 281.009ZM741.526 273.662L781.224 264.02L823.863 281.009L781.224 293.866L741.526 273.662ZM899.829 273.662L943.938 256.673L983.637 273.662L943.938 293.866L899.829 273.662ZM1065.97 273.662L1102.24 256.673L1149.78 273.662L1102.24 293.866L1065.97 273.662ZM57.8321 313.61L35.2874 350.802L57.8321 392.127L73.0253 350.802L57.8321 313.61ZM193.591 350.802L221.036 313.61L231.329 350.802L216.135 392.127L193.591 350.802ZM365.617 350.802L380.81 313.61L396.003 350.802L380.81 392.127L365.617 350.802ZM525.39 350.802L537.643 313.61L562.148 350.802L537.643 392.127L525.39 350.802ZM683.694 350.802L700.357 313.61L718.981 350.802L700.357 392.127L683.694 350.802ZM843.467 350.802L863.561 313.61L881.695 350.802L863.561 392.127L843.467 350.802ZM1003.24 350.802L1024.81 302.59L1041.47 350.802L1032.16 396.719L1003.24 350.802ZM1167.92 342.537L1187.52 302.59L1212.02 348.047L1181.64 392.127L1167.92 342.537ZM138.699 410.953L91.6492 427.942L138.699 447.686L184.279 427.942L138.699 410.953ZM260.245 427.942L298.473 410.953L342.582 427.942L298.473 447.686L260.245 427.942ZM419.038 427.942L458.246 410.953L507.257 427.942L458.246 447.686L419.038 427.942ZM581.752 427.942L621.45 410.953L662.619 427.942L621.45 447.686L581.752 427.942ZM749.367 427.942L781.224 410.953L823.863 427.942L781.224 447.686L749.367 427.942ZM899.829 427.942L943.938 410.953L983.637 427.942L943.938 447.686L899.829 427.942ZM1065.97 427.942L1102.24 410.953L1149.78 427.942L1102.24 447.686L1065.97 427.942ZM35.2874 501.868L57.8321 463.757L73.0253 501.868L57.8321 547.784L35.2874 501.868ZM193.591 501.868L221.036 463.757L245.051 501.868L221.036 547.784L193.591 501.868ZM356.305 501.868L380.81 463.757L396.003 501.868L380.81 547.784L356.305 501.868ZM514.608 503.704L544.994 463.757L562.148 503.704L537.643 547.784L514.608 503.704ZM683.694 503.704L700.357 463.757L718.981 503.704L700.357 547.784L683.694 503.704ZM138.699 564.773L91.6492 583.599L138.699 600.588L172.026 583.599L138.699 564.773ZM35.2874 656.147L57.8321 623.546L77.9264 663.034L57.8321 698.849L35.2874 656.147ZM138.699 717.675L91.6492 731.909L143.11 753.031L184.279 731.909L138.699 717.675ZM203.883 656.147L221.036 698.849L245.051 663.034L216.135 623.546L203.883 656.147ZM298.473 564.773L260.245 583.599L304.844 606.098L356.305 583.599L298.473 564.773ZM356.305 656.147L380.81 623.546L396.003 656.147L380.81 698.849L356.305 656.147ZM260.245 731.909L298.473 717.675L342.582 731.909L298.473 753.031L260.245 731.909ZM419.038 583.599L466.088 600.588L507.257 583.599L466.088 564.773L419.038 583.599ZM426.39 728.695L466.088 717.675L507.257 731.909L463.147 746.143L426.39 728.695ZM525.39 656.147L544.994 613.445L562.148 663.034L544.994 698.849L525.39 656.147ZM633.703 564.773L581.752 583.599L621.45 600.588L662.619 583.599L633.703 564.773ZM581.752 731.909L621.45 710.328L662.619 731.909L621.45 746.143L581.752 731.909ZM683.694 656.147L700.357 613.445L718.981 656.147L700.357 698.849L683.694 656.147ZM741.526 731.909L781.224 717.675L823.863 731.909L781.224 746.143L741.526 731.909ZM899.829 731.909L943.938 717.675L983.637 728.695L943.938 753.031L899.829 731.909ZM1065.97 731.909L1102.24 717.675L1149.78 731.909L1102.24 753.031L1065.97 731.909ZM1167.92 663.034L1181.64 613.445L1204.67 656.147L1184.58 691.962L1167.92 663.034ZM1167.92 501.868L1187.52 463.757L1204.67 503.704L1187.52 540.437L1167.92 501.868ZM1103.71 554.672L1053.72 474.777H741.526V710.328H1041.47L1088.52 656.147L1111.55 613.445L1119.4 583.599L1103.71 554.672Z" fill="#154B2A"/>
</svg>
