<svg width="381" height="241" viewBox="0 0 381 241" fill="none" xmlns="http://www.w3.org/2000/svg">
<path d="M83.3639 159.404V150.216H2.6675L2.79947 159.404H83.3639Z" fill="#0C361E"/>
<path d="M83.3639 159.404V150.216H2.6675L2.79947 159.404H83.3639Z" fill="black"/>
<path d="M135.813 150.216L224.537 147V159.404H138.264L135.813 150.216Z" fill="#0C361E"/>
<path d="M135.813 150.216L224.537 147V159.404H138.264L135.813 150.216Z" fill="black"/>
<path d="M205.419 205.803L208.851 217.747H295.123V205.803H205.419Z" fill="#0C361E"/>
<path d="M205.419 205.803L208.851 217.747H295.123V205.803H205.419Z" fill="black"/>
<path d="M68.6584 209.019V217.747H156.401V209.019H68.6584Z" fill="#0C361E"/>
<path d="M68.6584 209.019V217.747H156.401V209.019H68.6584Z" fill="black"/>
<path d="M16.699 209.019H3.51213L3.63748 217.747H16.699V209.019Z" fill="#0C361E"/>
<path d="M16.699 209.019H3.51213L3.63748 217.747H16.699V209.019Z" fill="black"/>
<path d="M16.699 92.3323H1.83607L1.98784 102.898H16.699V92.3323Z" fill="#0C361E"/>
<path d="M16.699 92.3323H1.83607L1.98784 102.898H16.699V92.3323Z" fill="black"/>
<path d="M68.6584 92.3323H156.401V102.898H68.6584V92.3323Z" fill="#0C361E"/>
<path d="M68.6584 92.3323H156.401V102.898H68.6584V92.3323Z" fill="black"/>
<path d="M295.123 90.4947V102.898H208.851V90.4947H295.123Z" fill="#0C361E"/>
<path d="M295.123 90.4947V102.898H208.851V90.4947H295.123Z" fill="black"/>
<path d="M346.592 90.4947V102.898H380.415L376.983 92.3323L346.592 90.4947Z" fill="#0C361E"/>
<path d="M346.592 90.4947V102.898H380.415L376.983 92.3323L346.592 90.4947Z" fill="black"/>
<path d="M277.476 35.8265V44.0957H336.788L333.357 34.9077L277.476 35.8265Z" fill="#0C361E"/>
<path d="M277.476 35.8265V44.0957H336.788L333.357 34.9077L277.476 35.8265Z" fill="black"/>
<path d="M138.264 32.6108V44.0957H224.537V32.6108H138.264Z" fill="#0C361E"/>
<path d="M138.264 32.6108V44.0957H224.537V32.6108H138.264Z" fill="black"/>
<path d="M83.3639 32.6108L1.02444 35.8265L1.14322 44.0957H83.3639V32.6108Z" fill="#0C361E"/>
<path d="M83.3639 32.6108L1.02444 35.8265L1.14322 44.0957H83.3639V32.6108Z" fill="black"/>
<path d="M277.476 150.216V159.404H361.788L365.219 149.757L277.476 150.216Z" fill="#0C361E"/>
<path d="M277.476 150.216V159.404H361.788L365.219 149.757L277.476 150.216Z" fill="black"/>
<path fill-rule="evenodd" clip-rule="evenodd" d="M314.24 0.912415H0.522949L1.02444 35.8265L83.3639 32.6108V44.0957H1.14322L1.83607 92.3323H16.699V102.898H1.98784L2.6675 150.216H83.3639V159.404H2.79947L3.51213 209.019H16.699V217.747H3.63748L3.95423 239.798L314.24 233.826L373.552 147L380.415 121.734V102.898H346.592V90.4947L376.983 92.3323L373.552 81.7662L314.24 0.912415ZM138.264 44.0957V32.6108H224.537V44.0957H138.264ZM277.476 44.0957V35.8265L333.357 34.9077L336.788 44.0957H277.476ZM295.123 102.898V90.4947H208.851V102.898H295.123ZM156.401 92.3323H68.6584V102.898H156.401V92.3323ZM224.537 147L135.813 150.216L138.264 159.404H224.537V147ZM277.476 159.404V150.216L365.219 149.757L361.788 159.404H277.476ZM208.851 217.747L205.419 205.803H295.123V217.747H208.851ZM68.6584 217.747V209.019H156.401V217.747H68.6584Z" fill="black"/>
<path fill-rule="evenodd" clip-rule="evenodd" d="M314.24 0.912415H0.522949L1.02444 35.8265L83.3639 32.6108V44.0957H1.14322L1.83607 92.3323H16.699V102.898H1.98784L2.6675 150.216H83.3639V159.404H2.79947L3.51213 209.019H16.699V217.747H3.63748L3.95423 239.798L314.24 233.826L373.552 147L380.415 121.734V102.898H346.592V90.4947L376.983 92.3323L373.552 81.7662L314.24 0.912415ZM138.264 44.0957V32.6108H224.537V44.0957H138.264ZM277.476 44.0957V35.8265L333.357 34.9077L336.788 44.0957H277.476ZM295.123 102.898V90.4947H208.851V102.898H295.123ZM156.401 92.3323H68.6584V102.898H156.401V92.3323ZM224.537 147L135.813 150.216L138.264 159.404H224.537V147ZM277.476 159.404V150.216L365.219 149.757L361.788 159.404H277.476ZM208.851 217.747L205.419 205.803H295.123V217.747H208.851ZM68.6584 217.747V209.019H156.401V217.747H68.6584Z" fill="#0A381E"/>
<path d="M380.415 102.898V121.734L373.552 147L314.24 233.826L3.95423 239.798L3.63748 217.747M380.415 102.898H346.592V90.4947L376.983 92.3323M380.415 102.898L376.983 92.3323M1.02444 35.8265L0.522949 0.912415H314.24L373.552 81.7662L376.983 92.3323M1.02444 35.8265L83.3639 32.6108V44.0957H1.14322M1.02444 35.8265L1.14322 44.0957M1.14322 44.0957L1.83607 92.3323M277.476 150.216C277.476 153.891 277.476 157.873 277.476 159.404M277.476 150.216L365.219 149.757L361.788 159.404H277.476M277.476 150.216V159.404M2.79947 159.404H83.3639V150.216H2.6675M2.79947 159.404L2.6675 150.216M2.79947 159.404L3.51213 209.019M2.6675 150.216L1.98784 102.898M3.51213 209.019H16.699V217.747H3.63748M3.51213 209.019L3.63748 217.747M1.83607 92.3323H16.699V102.898H1.98784M1.83607 92.3323L1.98784 102.898M138.264 32.6108V44.0957H224.537V32.6108H138.264ZM277.476 35.8265V44.0957H336.788L333.357 34.9077L277.476 35.8265ZM295.123 90.4947V102.898H208.851V90.4947H295.123ZM68.6584 92.3323H156.401V102.898H68.6584V92.3323ZM135.813 150.216L224.537 147V159.404H138.264L135.813 150.216ZM205.419 205.803L208.851 217.747H295.123V205.803H205.419ZM68.6584 209.019V217.747H156.401V209.019H68.6584Z" stroke="black"/>
<path d="M380.415 102.898V121.734L373.552 147L314.24 233.826L3.95423 239.798L3.63748 217.747M380.415 102.898H346.592V90.4947L376.983 92.3323M380.415 102.898L376.983 92.3323M1.02444 35.8265L0.522949 0.912415H314.24L373.552 81.7662L376.983 92.3323M1.02444 35.8265L83.3639 32.6108V44.0957H1.14322M1.02444 35.8265L1.14322 44.0957M1.14322 44.0957L1.83607 92.3323M277.476 150.216C277.476 153.891 277.476 157.873 277.476 159.404M277.476 150.216L365.219 149.757L361.788 159.404H277.476M277.476 150.216V159.404M2.79947 159.404H83.3639V150.216H2.6675M2.79947 159.404L2.6675 150.216M2.79947 159.404L3.51213 209.019M2.6675 150.216L1.98784 102.898M3.51213 209.019H16.699V217.747H3.63748M3.51213 209.019L3.63748 217.747M1.83607 92.3323H16.699V102.898H1.98784M1.83607 92.3323L1.98784 102.898M138.264 32.6108V44.0957H224.537V32.6108H138.264ZM277.476 35.8265V44.0957H336.788L333.357 34.9077L277.476 35.8265ZM295.123 90.4947V102.898H208.851V90.4947H295.123ZM68.6584 92.3323H156.401V102.898H68.6584V92.3323ZM135.813 150.216L224.537 147V159.404H138.264L135.813 150.216ZM205.419 205.803L208.851 217.747H295.123V205.803H205.419ZM68.6584 209.019V217.747H156.401V209.019H68.6584Z" stroke="#0C361E"/>
</svg>
