<svg width="385" height="239" viewBox="0 0 385 239" fill="none" xmlns="http://www.w3.org/2000/svg">
<path d="M1.27979 159.105V237.662H89.5127L1.27979 159.105Z" fill="#D9D9D9"/>
<path d="M1.27979 159.105V237.662H89.5127L1.27979 159.105Z" fill="#154B2A"/>
<path d="M221.862 237.662L1.27979 47.0121V142.337L111.571 237.662H221.862Z" fill="#D9D9D9"/>
<path d="M221.862 237.662L1.27979 47.0121V142.337L111.571 237.662H221.862Z" fill="#154B2A"/>
<path d="M334.475 208.26L371.858 150.376L207.892 0.613098H100.297L334.475 208.26Z" fill="#D9D9D9"/>
<path d="M334.475 208.26L371.858 150.376L207.892 0.613098H100.297L334.475 208.26Z" fill="#154B2A"/>
<path d="M381.172 132L383.622 116.381L381.172 99.8427L371.858 85.6014L315.487 0.613098H221.862L378.145 137.973L381.172 132Z" fill="#D9D9D9"/>
<path d="M381.172 132L383.622 116.381L381.172 99.8427L371.858 85.6014L315.487 0.613098H221.862L378.145 137.973L381.172 132Z" fill="#154B2A"/>
<path d="M111.571 237.662L1.27979 142.337V159.105L89.5127 237.662H111.571Z" fill="#D9D9D9"/>
<path d="M111.571 237.662L1.27979 142.337V159.105L89.5127 237.662H111.571Z" fill="#154B2A"/>
<path d="M111.571 237.662L1.27979 142.337V159.105L89.5127 237.662H111.571Z" fill="#070B0A"/>
<path d="M242.94 237.662L1.27979 28.6363V47.0121L221.862 237.662H242.94Z" fill="#D9D9D9"/>
<path d="M242.94 237.662L1.27979 28.6363V47.0121L221.862 237.662H242.94Z" fill="#154B2A"/>
<path d="M242.94 237.662L1.27979 28.6363V47.0121L221.862 237.662H242.94Z" fill="black"/>
<path d="M207.892 0.613098L371.858 150.376L378.145 137.973L221.862 0.613098H207.892Z" fill="#D9D9D9"/>
<path d="M207.892 0.613098L371.858 150.376L378.145 137.973L221.862 0.613098H207.892Z" fill="#154B2A"/>
<path d="M207.892 0.613098L371.858 150.376L378.145 137.973L221.862 0.613098H207.892Z" fill="#070B0A"/>
<path d="M81.6698 0.613098H1.27979V28.6363L242.94 237.662H315.487L327.355 219.286L81.6698 0.613098Z" fill="#D9D9D9"/>
<path d="M81.6698 0.613098H1.27979V28.6363L242.94 237.662H315.487L327.355 219.286L81.6698 0.613098Z" fill="#154B2A"/>
<path d="M81.6698 0.613098L327.355 219.286L334.475 208.26L100.297 0.613098H81.6698Z" fill="#D9D9D9"/>
<path d="M81.6698 0.613098L327.355 219.286L334.475 208.26L100.297 0.613098H81.6698Z" fill="#154B2A"/>
<path d="M81.6698 0.613098L327.355 219.286L334.475 208.26L100.297 0.613098H81.6698Z" fill="black"/>
<path d="M371.858 150.376L334.475 208.26M371.858 150.376L207.892 0.613098M371.858 150.376L378.145 137.973M81.6698 0.613098H1.27979V28.6363M81.6698 0.613098L327.355 219.286M81.6698 0.613098H100.297M327.355 219.286L315.487 237.662H242.94M327.355 219.286L334.475 208.26M334.475 208.26L100.297 0.613098M100.297 0.613098H207.892M207.892 0.613098H221.862M378.145 137.973L381.172 132L383.622 116.381L381.172 99.8427L371.858 85.6014L315.487 0.613098H221.862M378.145 137.973L221.862 0.613098M1.27979 28.6363L242.94 237.662M1.27979 28.6363V47.0121M242.94 237.662H221.862M1.27979 47.0121L221.862 237.662M1.27979 47.0121V142.337M221.862 237.662H111.571M111.571 237.662L1.27979 142.337M111.571 237.662H89.5127M1.27979 142.337V159.105M1.27979 159.105V237.662H89.5127M1.27979 159.105L89.5127 237.662" stroke="black"/>
</svg>
