<svg width="376" height="238" viewBox="0 0 376 238" fill="none" xmlns="http://www.w3.org/2000/svg">
<path d="M1 215.408V237H20.6073L153.883 133.816L130.928 115.993L1 215.408Z" fill="#0C361E"/>
<path d="M1 215.408V237H20.6073L153.883 133.816L130.928 115.993L1 215.408Z" fill="black"/>
<path d="M177.098 115.843L154.122 98.246L130.928 115.993L153.883 133.816L177.098 115.843Z" fill="#0C361E"/>
<path d="M177.098 115.843L154.122 98.246L130.928 115.993L153.883 133.816L177.098 115.843Z" fill="black"/>
<path d="M1 0.870331V15.1116L130.928 115.993L154.122 98.246L26.9797 0.870331H1Z" fill="#0C361E"/>
<path d="M1 0.870331V15.1116L130.928 115.993L154.122 98.246L26.9797 0.870331H1Z" fill="black"/>
<path d="M311.286 0.870331H281.385L154.122 98.246L177.098 115.843L316.106 8.22067L311.286 0.870331Z" fill="#0C361E"/>
<path d="M311.286 0.870331H281.385L154.122 98.246L177.098 115.843L316.106 8.22067L311.286 0.870331Z" fill="black"/>
<path d="M364.226 152.93L375.5 129.501V109.288L369.127 89.0744L316.106 8.22067L177.098 115.843L319.097 224.596L364.226 152.93Z" fill="#0C361E"/>
<path d="M364.226 152.93L375.5 129.501V109.288L369.127 89.0744L316.106 8.22067L177.098 115.843L319.097 224.596L364.226 152.93Z" fill="black"/>
<path d="M364.226 152.93L375.5 129.501V109.288L369.127 89.0744L316.106 8.22067L177.098 115.843L319.097 224.596L364.226 152.93Z" fill="#0D371E"/>
<path d="M281.385 0.870331H26.9797L154.122 98.246L281.385 0.870331Z" fill="#0C361E"/>
<path d="M281.385 0.870331H26.9797L154.122 98.246L281.385 0.870331Z" fill="black"/>
<path d="M281.385 0.870331H26.9797L154.122 98.246L281.385 0.870331Z" fill="#0C361E"/>
<path d="M1 15.1116V215.408L130.928 115.993L1 15.1116Z" fill="#0C361E"/>
<path d="M1 15.1116V215.408L130.928 115.993L1 15.1116Z" fill="black"/>
<path d="M1 15.1116V215.408L130.928 115.993L1 15.1116Z" fill="#0D371E"/>
<path d="M20.6073 237H286.777L153.883 133.816L20.6073 237Z" fill="#0C361E"/>
<path d="M20.6073 237H286.777L153.883 133.816L20.6073 237Z" fill="black"/>
<path d="M20.6073 237H286.777L153.883 133.816L20.6073 237Z" fill="#0D371E"/>
<path d="M286.777 237H311.286L319.097 224.596L177.098 115.843L153.883 133.816L286.777 237Z" fill="#0C361E"/>
<path d="M286.777 237H311.286L319.097 224.596L177.098 115.843L153.883 133.816L286.777 237Z" fill="black"/>
<path d="M281.385 0.870331H311.286L316.106 8.22067M281.385 0.870331H26.9797M281.385 0.870331L154.122 98.246M1 215.408V237H20.6073M1 215.408V15.1116M1 215.408L130.928 115.993M20.6073 237H286.777M20.6073 237L153.883 133.816M316.106 8.22067L369.127 89.0744L375.5 109.288V129.501L364.226 152.93L319.097 224.596M316.106 8.22067L177.098 115.843M1 15.1116V0.870331H26.9797M1 15.1116L130.928 115.993M286.777 237H311.286L319.097 224.596M286.777 237L153.883 133.816M319.097 224.596L177.098 115.843M26.9797 0.870331L154.122 98.246M153.883 133.816L130.928 115.993M153.883 133.816L177.098 115.843M130.928 115.993L154.122 98.246M177.098 115.843L154.122 98.246" stroke="black"/>
<path d="M281.385 0.870331H311.286L316.106 8.22067M281.385 0.870331H26.9797M281.385 0.870331L154.122 98.246M1 215.408V237H20.6073M1 215.408V15.1116M1 215.408L130.928 115.993M20.6073 237H286.777M20.6073 237L153.883 133.816M316.106 8.22067L369.127 89.0744L375.5 109.288V129.501L364.226 152.93L319.097 224.596M316.106 8.22067L177.098 115.843M1 15.1116V0.870331H26.9797M1 15.1116L130.928 115.993M286.777 237H311.286L319.097 224.596M286.777 237L153.883 133.816M319.097 224.596L177.098 115.843M26.9797 0.870331L154.122 98.246M153.883 133.816L130.928 115.993M153.883 133.816L177.098 115.843M130.928 115.993L154.122 98.246M177.098 115.843L154.122 98.246" stroke="#0C361E"/>
</svg>
