<svg width="386" height="244" viewBox="0 0 386 244" fill="none" xmlns="http://www.w3.org/2000/svg">
<path d="M86.7872 109.211L46.4468 92.4878L9.68085 109.211L46.4468 130.362L86.7872 109.211Z" fill="#D9D9D9"/>
<path d="M86.7872 109.211L46.4468 92.4878L9.68085 109.211L46.4468 130.362L86.7872 109.211Z" fill="#0C381E"/>
<path d="M86.7872 109.211L46.4468 92.4878L9.68085 109.211L46.4468 130.362L86.7872 109.211Z" fill="#060B0A"/>
<path d="M86.7872 109.211L46.4468 92.4878L9.68085 109.211L46.4468 130.362L86.7872 109.211Z" fill="black"/>
<path d="M121 1L107.723 28.5447L126.617 72.3211L143.979 34.939L121 1Z" fill="#D9D9D9"/>
<path d="M121 1L107.723 28.5447L126.617 72.3211L143.979 34.939L121 1Z" fill="#0C381E"/>
<path d="M121 1L107.723 28.5447L126.617 72.3211L143.979 34.939L121 1Z" fill="#060B0A"/>
<path d="M121 1L107.723 28.5447L126.617 72.3211L143.979 34.939L121 1Z" fill="black"/>
<path d="M126.617 149.545L107.723 185.451L126.617 234.146L143.979 188.894L126.617 149.545Z" fill="#D9D9D9"/>
<path d="M126.617 149.545L107.723 185.451L126.617 234.146L143.979 188.894L126.617 149.545Z" fill="#0C381E"/>
<path d="M126.617 149.545L107.723 185.451L126.617 234.146L143.979 188.894L126.617 149.545Z" fill="#060B0A"/>
<path d="M126.617 149.545L107.723 185.451L126.617 234.146L143.979 188.894L126.617 149.545Z" fill="black"/>
<path d="M159.808 109.211L207.808 92.4878L253.255 109.211L207.808 130.362L159.808 109.211Z" fill="#D9D9D9"/>
<path d="M159.808 109.211L207.808 92.4878L253.255 109.211L207.808 130.362L159.808 109.211Z" fill="#0C381E"/>
<path d="M159.808 109.211L207.808 92.4878L253.255 109.211L207.808 130.362L159.808 109.211Z" fill="#060B0A"/>
<path d="M159.808 109.211L207.808 92.4878L253.255 109.211L207.808 130.362L159.808 109.211Z" fill="black"/>
<path d="M288.489 142.167L273.681 185.451L288.489 234.146L311.468 188.894L288.489 142.167Z" fill="#D9D9D9"/>
<path d="M288.489 142.167L273.681 185.451L288.489 234.146L311.468 188.894L288.489 142.167Z" fill="#0C381E"/>
<path d="M288.489 142.167L273.681 185.451L288.489 234.146L311.468 188.894L288.489 142.167Z" fill="#060B0A"/>
<path d="M288.489 142.167L273.681 185.451L288.489 234.146L311.468 188.894L288.489 142.167Z" fill="black"/>
<path d="M282.872 1L268.574 34.939L291.553 72.3211L307.894 28.5447L282.872 1Z" fill="#D9D9D9"/>
<path d="M282.872 1L268.574 34.939L291.553 72.3211L307.894 28.5447L282.872 1Z" fill="#0C381E"/>
<path d="M282.872 1L268.574 34.939L291.553 72.3211L307.894 28.5447L282.872 1Z" fill="#060B0A"/>
<path d="M282.872 1L268.574 34.939L291.553 72.3211L307.894 28.5447L282.872 1Z" fill="black"/>
<path fill-rule="evenodd" clip-rule="evenodd" d="M1 1V243H320.149L366.617 166.76L385 137.74V118.065V100.85L374.277 82.6504L320.149 1H282.872L307.894 28.5447L291.553 72.3211L268.574 34.939L282.872 1H121L143.979 34.939L126.617 72.3211L107.723 28.5447L121 1H1ZM273.681 185.451L288.489 142.167L311.468 188.894L288.489 234.146L273.681 185.451ZM207.808 92.4878L159.808 109.211L207.808 130.362L253.255 109.211L207.808 92.4878ZM107.723 185.451L126.617 149.545L143.979 188.894L126.617 234.146L107.723 185.451ZM46.4468 92.4878L86.7872 109.211L46.4468 130.362L9.68085 109.211L46.4468 92.4878Z" fill="#D9D9D9"/>
<path fill-rule="evenodd" clip-rule="evenodd" d="M1 1V243H320.149L366.617 166.76L385 137.74V118.065V100.85L374.277 82.6504L320.149 1H282.872L307.894 28.5447L291.553 72.3211L268.574 34.939L282.872 1H121L143.979 34.939L126.617 72.3211L107.723 28.5447L121 1H1ZM273.681 185.451L288.489 142.167L311.468 188.894L288.489 234.146L273.681 185.451ZM207.808 92.4878L159.808 109.211L207.808 130.362L253.255 109.211L207.808 92.4878ZM107.723 185.451L126.617 149.545L143.979 188.894L126.617 234.146L107.723 185.451ZM46.4468 92.4878L86.7872 109.211L46.4468 130.362L9.68085 109.211L46.4468 92.4878Z" fill="#0C381E"/>
<path fill-rule="evenodd" clip-rule="evenodd" d="M1 1V243H320.149L366.617 166.76L385 137.74V118.065V100.85L374.277 82.6504L320.149 1H282.872L307.894 28.5447L291.553 72.3211L268.574 34.939L282.872 1H121L143.979 34.939L126.617 72.3211L107.723 28.5447L121 1H1ZM273.681 185.451L288.489 142.167L311.468 188.894L288.489 234.146L273.681 185.451ZM207.808 92.4878L159.808 109.211L207.808 130.362L253.255 109.211L207.808 92.4878ZM107.723 185.451L126.617 149.545L143.979 188.894L126.617 234.146L107.723 185.451ZM46.4468 92.4878L86.7872 109.211L46.4468 130.362L9.68085 109.211L46.4468 92.4878Z" fill="#060B0A"/>
<path fill-rule="evenodd" clip-rule="evenodd" d="M1 1V243H320.149L366.617 166.76L385 137.74V118.065V100.85L374.277 82.6504L320.149 1H282.872L307.894 28.5447L291.553 72.3211L268.574 34.939L282.872 1H121L143.979 34.939L126.617 72.3211L107.723 28.5447L121 1H1ZM273.681 185.451L288.489 142.167L311.468 188.894L288.489 234.146L273.681 185.451ZM207.808 92.4878L159.808 109.211L207.808 130.362L253.255 109.211L207.808 92.4878ZM107.723 185.451L126.617 149.545L143.979 188.894L126.617 234.146L107.723 185.451ZM46.4468 92.4878L86.7872 109.211L46.4468 130.362L9.68085 109.211L46.4468 92.4878Z" fill="black"/>
<path fill-rule="evenodd" clip-rule="evenodd" d="M1 1V243H320.149L366.617 166.76L385 137.74V118.065V100.85L374.277 82.6504L320.149 1H282.872L307.894 28.5447L291.553 72.3211L268.574 34.939L282.872 1H121L143.979 34.939L126.617 72.3211L107.723 28.5447L121 1H1ZM273.681 185.451L288.489 142.167L311.468 188.894L288.489 234.146L273.681 185.451ZM207.808 92.4878L159.808 109.211L207.808 130.362L253.255 109.211L207.808 92.4878ZM107.723 185.451L126.617 149.545L143.979 188.894L126.617 234.146L107.723 185.451ZM46.4468 92.4878L86.7872 109.211L46.4468 130.362L9.68085 109.211L46.4468 92.4878Z" fill="#154B2A"/>
<path d="M121 1H1V243H320.149L366.617 166.76L385 137.74V118.065V100.85L374.277 82.6504L320.149 1H282.872M121 1L107.723 28.5447L126.617 72.3211L143.979 34.939L121 1ZM121 1H282.872M282.872 1L268.574 34.939L291.553 72.3211L307.894 28.5447L282.872 1ZM288.489 142.167L273.681 185.451L288.489 234.146L311.468 188.894L288.489 142.167ZM159.808 109.211L207.808 92.4878L253.255 109.211L207.808 130.362L159.808 109.211ZM126.617 149.545L107.723 185.451L126.617 234.146L143.979 188.894L126.617 149.545ZM86.7872 109.211L46.4468 92.4878L9.68085 109.211L46.4468 130.362L86.7872 109.211Z" stroke="black"/>
</svg>
