<svg width="97" height="60" viewBox="0 0 97 60" fill="none" xmlns="http://www.w3.org/2000/svg">
<path d="M32 1H23V59H28.5H47H50.75V1H49.5H32Z" fill="#D9D9D9"/>
<path d="M32 1H23V59H28.5H47H50.75V1H49.5H32Z" fill="#1C82C1"/>
<path d="M1 1V59H20.5H23V1H1Z" fill="#D9D9D9"/>
<path d="M1 1V59H20.5H23V1H1Z" fill="#1C82C1"/>
<path d="M1 1V59H20.5H23V1H1Z" fill="#BEF3FF"/>
<path d="M73 59V1H58.5H50.75V59H55H73Z" fill="#D9D9D9"/>
<path d="M73 59V1H58.5H50.75V59H55H73Z" fill="#BEF3FF"/>
<path d="M73 59V1M73 59L90.5 38C97.2609 30.1279 97.2924 25.9931 90.5 19L73 1M73 59H50.75M73 59H55M73 1H50.75M73 1H58.5H50.75M23 1H1V59H20.5H23M23 1H32M23 1V59M32 1H50.75M32 1H49.5H50.75M28.5 59H23M28.5 59H50.75M28.5 59H47M47 59H55M47 59H50.75M55 59H50.75M50.75 59V1" stroke="black"/>
</svg>
