<svg width="323" height="212" viewBox="0 0 323 212" fill="none" xmlns="http://www.w3.org/2000/svg">
<path d="M1 80.3771V133.128L85.3722 141.447L77.2277 71.9067L1 80.3771Z" fill="#E84B18"/>
<path d="M1 80.3771V133.128L85.3722 141.447L77.2277 71.9067L1 80.3771Z" fill="#C2B644"/>
<path d="M1 80.3771V133.128L85.3722 141.447L77.2277 71.9067L1 80.3771Z" fill="black" fill-opacity="0.2"/>
<path d="M193.701 152.128V133.128H224.644L216.034 56.4826L107.587 68.5331L100.298 142.918L193.701 152.128Z" fill="#E84B18"/>
<path d="M193.701 152.128V133.128H224.644L216.034 56.4826L107.587 68.5331L100.298 142.918L193.701 152.128Z" fill="#C2B644"/>
<path d="M193.701 152.128V133.128H224.644L216.034 56.4826L107.587 68.5331L100.298 142.918L193.701 152.128Z" fill="black" fill-opacity="0.2"/>
<path d="M273.196 133.128L290.806 159.252V162L322 164.778V44.7076L250.15 52.6916L241.691 133.128H273.196Z" fill="#E84B18"/>
<path d="M273.196 133.128L290.806 159.252V162L322 164.778V44.7076L250.15 52.6916L241.691 133.128H273.196Z" fill="#C2B644"/>
<path d="M273.196 133.128L290.806 159.252V162L322 164.778V44.7076L250.15 52.6916L241.691 133.128H273.196Z" fill="black" fill-opacity="0.2"/>
<path d="M322 1H255.586L251.73 37.6691L322 44.7076V1Z" fill="#E84B18"/>
<path d="M322 1H255.586L251.73 37.6691L322 44.7076V1Z" fill="#C2B644"/>
<path d="M322 1H255.586L251.73 37.6691L322 44.7076V1Z" fill="black" fill-opacity="0.2"/>
<path d="M209.801 1H114.205L111.984 23.6715L213.49 33.8388L209.801 1Z" fill="#E84B18"/>
<path d="M209.801 1H114.205L111.984 23.6715L213.49 33.8388L209.801 1Z" fill="#C2B644"/>
<path d="M209.801 1H114.205L111.984 23.6715L213.49 33.8388L209.801 1Z" fill="black" fill-opacity="0.2"/>
<path d="M68.9232 1H1V12.5549L71.0988 19.5763L68.9232 1Z" fill="#E84B18"/>
<path d="M68.9232 1H1V12.5549L71.0988 19.5763L68.9232 1Z" fill="#C2B644"/>
<path d="M68.9232 1H1V12.5549L71.0988 19.5763L68.9232 1Z" fill="black" fill-opacity="0.2"/>
<path d="M1 12.5549V24.1098L72.1646 28.6763L71.0988 19.5763L1 12.5549Z" fill="#E84B18"/>
<path d="M1 12.5549V24.1098L72.1646 28.6763L71.0988 19.5763L1 12.5549Z" fill="#C2B644"/>
<path d="M1 12.5549V24.1098L72.1646 28.6763L71.0988 19.5763L1 12.5549Z" fill="black" fill-opacity="0.2"/>
<path d="M1 24.1098V35.1623L73.1756 37.3085L72.1646 28.6763L1 24.1098Z" fill="#E84B18"/>
<path d="M1 24.1098V35.1623L73.1756 37.3085L72.1646 28.6763L1 24.1098Z" fill="#C2B644"/>
<path d="M1 24.1098V35.1623L73.1756 37.3085L72.1646 28.6763L1 24.1098Z" fill="black" fill-opacity="0.2"/>
<path d="M1 35.1623V44.7076H74.0422L73.1756 37.3085L1 35.1623Z" fill="#E84B18"/>
<path d="M1 35.1623V44.7076H74.0422L73.1756 37.3085L1 35.1623Z" fill="#C2B644"/>
<path d="M1 35.1623V44.7076H74.0422L73.1756 37.3085L1 35.1623Z" fill="black" fill-opacity="0.2"/>
<path d="M1 44.7076V55.7601L75.0381 53.2109L74.0422 44.7076H1Z" fill="#E84B18"/>
<path d="M1 44.7076V55.7601L75.0381 53.2109L74.0422 44.7076H1Z" fill="#C2B644"/>
<path d="M1 44.7076V55.7601L75.0381 53.2109L74.0422 44.7076H1Z" fill="black" fill-opacity="0.2"/>
<path d="M1 55.7601V68.0686L76.1378 62.6004L75.0381 53.2109L1 55.7601Z" fill="#E84B18"/>
<path d="M1 55.7601V68.0686L76.1378 62.6004L75.0381 53.2109L1 55.7601Z" fill="#C2B644"/>
<path d="M1 55.7601V68.0686L76.1378 62.6004L75.0381 53.2109L1 55.7601Z" fill="black" fill-opacity="0.2"/>
<path d="M1 68.0686V80.3771L77.2277 71.9067L76.1378 62.6004L1 68.0686Z" fill="#E84B18"/>
<path d="M1 68.0686V80.3771L77.2277 71.9067L76.1378 62.6004L1 68.0686Z" fill="#C2B644"/>
<path d="M1 68.0686V80.3771L77.2277 71.9067L76.1378 62.6004L1 68.0686Z" fill="black" fill-opacity="0.2"/>
<path d="M216.034 56.4826L215.581 52.4523L108.399 60.2526L107.587 68.5331L216.034 56.4826Z" fill="#E84B18"/>
<path d="M216.034 56.4826L215.581 52.4523L108.399 60.2526L107.587 68.5331L216.034 56.4826Z" fill="#C2B644"/>
<path d="M216.034 56.4826L215.581 52.4523L108.399 60.2526L107.587 68.5331L216.034 56.4826Z" fill="black" fill-opacity="0.2"/>
<path d="M215.581 52.4523L215.124 48.3875L109.204 52.0345L108.399 60.2526L215.581 52.4523Z" fill="#E84B18"/>
<path d="M215.581 52.4523L215.124 48.3875L109.204 52.0345L108.399 60.2526L215.581 52.4523Z" fill="#C2B644"/>
<path d="M215.581 52.4523L215.124 48.3875L109.204 52.0345L108.399 60.2526L215.581 52.4523Z" fill="black" fill-opacity="0.2"/>
<path d="M215.124 48.3875L214.711 44.7076H109.922L109.204 52.0345L215.124 48.3875Z" fill="#E84B18"/>
<path d="M215.124 48.3875L214.711 44.7076H109.922L109.204 52.0345L215.124 48.3875Z" fill="#C2B644"/>
<path d="M215.124 48.3875L214.711 44.7076H109.922L109.204 52.0345L215.124 48.3875Z" fill="black" fill-opacity="0.2"/>
<path d="M214.351 41.5066L213.932 37.7732L111.247 31.1841L110.538 38.4196L214.351 41.5066Z" fill="#E84B18"/>
<path d="M214.351 41.5066L213.932 37.7732L111.247 31.1841L110.538 38.4196L214.351 41.5066Z" fill="#C2B644"/>
<path d="M214.351 41.5066L213.932 37.7732L111.247 31.1841L110.538 38.4196L214.351 41.5066Z" fill="black" fill-opacity="0.2"/>
<path d="M213.932 37.7732L213.49 33.8388L111.984 23.6715L111.247 31.1841L213.932 37.7732Z" fill="#E84B18"/>
<path d="M213.932 37.7732L213.49 33.8388L111.984 23.6715L111.247 31.1841L213.932 37.7732Z" fill="#C2B644"/>
<path d="M213.932 37.7732L213.49 33.8388L111.984 23.6715L111.247 31.1841L213.932 37.7732Z" fill="black" fill-opacity="0.2"/>
<path d="M214.711 44.7076L214.351 41.5066L110.538 38.4196L109.922 44.7076H214.711Z" fill="#E84B18"/>
<path d="M214.711 44.7076L214.351 41.5066L110.538 38.4196L109.922 44.7076H214.711Z" fill="#C2B644"/>
<path d="M214.711 44.7076L214.351 41.5066L110.538 38.4196L109.922 44.7076H214.711Z" fill="black" fill-opacity="0.2"/>
<path d="M255.586 1H247.033L244.712 36.9661L251.73 37.6691L255.586 1Z" fill="#E84B18"/>
<path d="M255.586 1H247.033L244.712 36.9661L251.73 37.6691L255.586 1Z" fill="#C2B644"/>
<path d="M255.586 1H247.033L244.712 36.9661L251.73 37.6691L255.586 1Z" fill="black" fill-opacity="0.2"/>
<path d="M247.033 1H239.486L238.472 36.3411L244.712 36.9661L247.033 1Z" fill="#E84B18"/>
<path d="M247.033 1H239.486L238.472 36.3411L244.712 36.9661L247.033 1Z" fill="#C2B644"/>
<path d="M247.033 1H239.486L238.472 36.3411L244.712 36.9661L247.033 1Z" fill="black" fill-opacity="0.2"/>
<path d="M239.486 1H233.448V35.8379L238.472 36.3411L239.486 1Z" fill="#E84B18"/>
<path d="M239.486 1H233.448V35.8379L238.472 36.3411L239.486 1Z" fill="#C2B644"/>
<path d="M239.486 1H233.448V35.8379L238.472 36.3411L239.486 1Z" fill="black" fill-opacity="0.2"/>
<path d="M233.448 1H225.901L227.128 35.2048L233.448 35.8379V1Z" fill="#E84B18"/>
<path d="M233.448 1H225.901L227.128 35.2048L233.448 35.8379V1Z" fill="#C2B644"/>
<path d="M233.448 1H225.901L227.128 35.2048L233.448 35.8379V1Z" fill="black" fill-opacity="0.2"/>
<path d="M225.901 1H217.851L220.335 34.5244L227.128 35.2048L225.901 1Z" fill="#E84B18"/>
<path d="M225.901 1H217.851L220.335 34.5244L227.128 35.2048L225.901 1Z" fill="#C2B644"/>
<path d="M225.901 1H217.851L220.335 34.5244L227.128 35.2048L225.901 1Z" fill="black" fill-opacity="0.2"/>
<path d="M217.851 1H209.801L213.49 33.8388L220.335 34.5244L217.851 1Z" fill="#E84B18"/>
<path d="M217.851 1H209.801L213.49 33.8388L220.335 34.5244L217.851 1Z" fill="#C2B644"/>
<path d="M217.851 1H209.801L213.49 33.8388L220.335 34.5244L217.851 1Z" fill="black" fill-opacity="0.2"/>
<path d="M238.506 133.128H241.691L250.15 52.6916L243.65 53.4138L238.506 133.128Z" fill="#E84B18"/>
<path d="M238.506 133.128H241.691L250.15 52.6916L243.65 53.4138L238.506 133.128Z" fill="#C2B644"/>
<path d="M238.506 133.128H241.691L250.15 52.6916L243.65 53.4138L238.506 133.128Z" fill="black" fill-opacity="0.2"/>
<path d="M235.696 133.128H238.506L243.65 53.4138L237.964 54.0457L235.696 133.128Z" fill="#E84B18"/>
<path d="M235.696 133.128H238.506L243.65 53.4138L237.964 54.0457L235.696 133.128Z" fill="#C2B644"/>
<path d="M235.696 133.128H238.506L243.65 53.4138L237.964 54.0457L235.696 133.128Z" fill="black" fill-opacity="0.2"/>
<path d="M233.448 133.128H235.696L237.964 54.0457L233.448 54.5475V133.128Z" fill="#E84B18"/>
<path d="M233.448 133.128H235.696L237.964 54.0457L233.448 54.5475V133.128Z" fill="#C2B644"/>
<path d="M233.448 133.128H235.696L237.964 54.0457L233.448 54.5475V133.128Z" fill="black" fill-opacity="0.2"/>
<path d="M230.638 133.128H233.448V54.5475L227.843 55.1703L230.638 133.128Z" fill="#E84B18"/>
<path d="M230.638 133.128H233.448V54.5475L227.843 55.1703L230.638 133.128Z" fill="#C2B644"/>
<path d="M230.638 133.128H233.448V54.5475L227.843 55.1703L230.638 133.128Z" fill="black" fill-opacity="0.2"/>
<path d="M227.641 133.128H230.638L227.843 55.1703L221.914 55.8292L227.641 133.128Z" fill="#E84B18"/>
<path d="M227.641 133.128H230.638L227.843 55.1703L221.914 55.8292L227.641 133.128Z" fill="#C2B644"/>
<path d="M227.641 133.128H230.638L227.843 55.1703L221.914 55.8292L227.641 133.128Z" fill="black" fill-opacity="0.2"/>
<path d="M224.644 133.128H227.641L221.914 55.8292L216.034 56.4826L224.644 133.128Z" fill="#E84B18"/>
<path d="M224.644 133.128H227.641L221.914 55.8292L216.034 56.4826L224.644 133.128Z" fill="#C2B644"/>
<path d="M224.644 133.128H227.641L221.914 55.8292L216.034 56.4826L224.644 133.128Z" fill="black" fill-opacity="0.2"/>
<path d="M193.701 156.445V152.128L100.298 142.918L99.5712 150.331L193.701 156.445Z" fill="#E84B18"/>
<path d="M193.701 156.445V152.128L100.298 142.918L99.5712 150.331L193.701 156.445Z" fill="#C2B644"/>
<path d="M193.701 156.445V152.128L100.298 142.918L99.5712 150.331L193.701 156.445Z" fill="black" fill-opacity="0.2"/>
<path d="M193.701 160.762V156.445L99.5712 150.331L98.84 157.793L193.701 160.762Z" fill="#E84B18"/>
<path d="M193.701 160.762V156.445L99.5712 150.331L98.84 157.793L193.701 160.762Z" fill="#C2B644"/>
<path d="M193.701 160.762V156.445L99.5712 150.331L98.84 157.793L193.701 160.762Z" fill="black" fill-opacity="0.2"/>
<path d="M193.701 164.778V160.762L98.84 157.793L98.1555 164.778H193.701Z" fill="#E84B18"/>
<path d="M193.701 164.778V160.762L98.84 157.793L98.1555 164.778H193.701Z" fill="#C2B644"/>
<path d="M193.701 164.778V160.762L98.84 157.793L98.1555 164.778H193.701Z" fill="black" fill-opacity="0.2"/>
<path d="M193.701 169.597V164.778H98.1555L97.3284 173.217L193.701 169.597Z" fill="#E84B18"/>
<path d="M193.701 169.597V164.778H98.1555L97.3284 173.217L193.701 169.597Z" fill="#C2B644"/>
<path d="M193.701 169.597V164.778H98.1555L97.3284 173.217L193.701 169.597Z" fill="black" fill-opacity="0.2"/>
<path d="M193.701 173.212V169.597L97.3284 173.217L96.7042 179.587L193.701 173.212Z" fill="#E84B18"/>
<path d="M193.701 173.212V169.597L97.3284 173.217L96.7042 179.587L193.701 173.212Z" fill="#C2B644"/>
<path d="M193.701 173.212V169.597L97.3284 173.217L96.7042 179.587L193.701 173.212Z" fill="black" fill-opacity="0.2"/>
<path d="M193.701 177.83V173.212L96.7042 179.587L95.9014 187.779L193.701 177.83Z" fill="#E84B18"/>
<path d="M193.701 177.83V173.212L96.7042 179.587L95.9014 187.779L193.701 177.83Z" fill="#C2B644"/>
<path d="M193.701 177.83V173.212L96.7042 179.587L95.9014 187.779L193.701 177.83Z" fill="black" fill-opacity="0.2"/>
<path d="M1 133.128V143.929L86.3119 149.47L85.3722 141.447L1 133.128Z" fill="#E84B18"/>
<path d="M1 133.128V143.929L86.3119 149.47L85.3722 141.447L1 133.128Z" fill="#C2B644"/>
<path d="M1 133.128V143.929L86.3119 149.47L85.3722 141.447L1 133.128Z" fill="black" fill-opacity="0.2"/>
<path d="M1 143.929V154.73L87.2441 157.43L86.3119 149.47L1 143.929Z" fill="#E84B18"/>
<path d="M1 143.929V154.73L87.2441 157.43L86.3119 149.47L1 143.929Z" fill="#C2B644"/>
<path d="M1 143.929V154.73L87.2441 157.43L86.3119 149.47L1 143.929Z" fill="black" fill-opacity="0.2"/>
<path d="M1 154.73V164.778H88.1048L87.2441 157.43L1 154.73Z" fill="#E84B18"/>
<path d="M1 154.73V164.778H88.1048L87.2441 157.43L1 154.73Z" fill="#C2B644"/>
<path d="M1 154.73V164.778H88.1048L87.2441 157.43L1 154.73Z" fill="black" fill-opacity="0.2"/>
<path d="M1 164.778V176.835L89.1292 173.525L88.1048 164.778H1Z" fill="#E84B18"/>
<path d="M1 164.778V176.835L89.1292 173.525L88.1048 164.778H1Z" fill="#C2B644"/>
<path d="M1 164.778V176.835L89.1292 173.525L88.1048 164.778H1Z" fill="black" fill-opacity="0.2"/>
<path d="M1 176.835V185.878L89.8917 180.035L89.1292 173.525L1 176.835Z" fill="#E84B18"/>
<path d="M1 176.835V185.878L89.8917 180.035L89.1292 173.525L1 176.835Z" fill="#C2B644"/>
<path d="M1 176.835V185.878L89.8917 180.035L89.1292 173.525L1 176.835Z" fill="black" fill-opacity="0.2"/>
<path d="M1 185.878V197.433L90.8587 188.292L89.8917 180.035L1 185.878Z" fill="#E84B18"/>
<path d="M1 185.878V197.433L90.8587 188.292L89.8917 180.035L1 185.878Z" fill="#C2B644"/>
<path d="M1 185.878V197.433L90.8587 188.292L89.8917 180.035L1 185.878Z" fill="black" fill-opacity="0.2"/>
<path d="M1 197.433V211.5H93.5768L90.8587 188.292L1 197.433Z" fill="#E84B18"/>
<path d="M1 197.433V211.5H93.5768L90.8587 188.292L1 197.433Z" fill="#C2B644"/>
<path d="M1 197.433V211.5H93.5768L90.8587 188.292L1 197.433Z" fill="black" fill-opacity="0.2"/>
<path d="M93.5768 211.5H233.448L231.868 197.433H226.404H193.701V177.83L95.9014 187.779L93.5768 211.5Z" fill="#E84B18"/>
<path d="M93.5768 211.5H233.448L231.868 197.433H226.404H193.701V177.83L95.9014 187.779L93.5768 211.5Z" fill="#C2B644"/>
<path d="M93.5768 211.5H233.448L231.868 197.433H226.404H193.701V177.83L95.9014 187.779L93.5768 211.5Z" fill="black" fill-opacity="0.2"/>
<path d="M290.806 169.802L273.196 197.433H236.467H234.958H234.356L233.448 211.5H322V164.778L290.806 167.951V169.802Z" fill="#E84B18"/>
<path d="M290.806 169.802L273.196 197.433H236.467H234.958H234.356L233.448 211.5H322V164.778L290.806 167.951V169.802Z" fill="#C2B644"/>
<path d="M290.806 169.802L273.196 197.433H236.467H234.958H234.356L233.448 211.5H322V164.778L290.806 167.951V169.802Z" fill="black" fill-opacity="0.2"/>
<path d="M94.8984 142.386L97.5266 142.645L101.741 69.1828L96.2865 69.7889L94.8984 142.386Z" fill="#E84B18"/>
<path d="M94.8984 142.386L97.5266 142.645L101.741 69.1828L96.2865 69.7889L94.8984 142.386Z" fill="#C2B644"/>
<path d="M94.8984 142.386L97.5266 142.645L101.741 69.1828L96.2865 69.7889L94.8984 142.386Z" fill="black" fill-opacity="0.2"/>
<path d="M97.5266 142.645L100.298 142.918L107.587 68.5331L101.741 69.1828L97.5266 142.645Z" fill="#E84B18"/>
<path d="M97.5266 142.645L100.298 142.918L107.587 68.5331L101.741 69.1828L97.5266 142.645Z" fill="#C2B644"/>
<path d="M97.5266 142.645L100.298 142.918L107.587 68.5331L101.741 69.1828L97.5266 142.645Z" fill="black" fill-opacity="0.2"/>
<path d="M92.9141 142.19L94.8984 142.386L96.2865 69.7889L92.2262 70.2401L92.9141 142.19Z" fill="#E84B18"/>
<path d="M92.9141 142.19L94.8984 142.386L96.2865 69.7889L92.2262 70.2401L92.9141 142.19Z" fill="#C2B644"/>
<path d="M92.9141 142.19L94.8984 142.386L96.2865 69.7889L92.2262 70.2401L92.9141 142.19Z" fill="black" fill-opacity="0.2"/>
<path d="M91.4186 142.043L92.9141 142.19L92.2262 70.2401L89.198 70.5766L91.4186 142.043Z" fill="#E84B18"/>
<path d="M91.4186 142.043L92.9141 142.19L92.2262 70.2401L89.198 70.5766L91.4186 142.043Z" fill="#C2B644"/>
<path d="M91.4186 142.043L92.9141 142.19L92.2262 70.2401L89.198 70.5766L91.4186 142.043Z" fill="black" fill-opacity="0.2"/>
<path d="M88.4083 141.746L91.4186 142.043L89.198 70.5766L83.1845 71.2448L88.4083 141.746Z" fill="#E84B18"/>
<path d="M88.4083 141.746L91.4186 142.043L89.198 70.5766L83.1845 71.2448L88.4083 141.746Z" fill="#C2B644"/>
<path d="M88.4083 141.746L91.4186 142.043L89.198 70.5766L83.1845 71.2448L88.4083 141.746Z" fill="black" fill-opacity="0.2"/>
<path d="M85.3722 141.447L88.4083 141.746L83.1845 71.2448L77.2277 71.9067L85.3722 141.447Z" fill="#E84B18"/>
<path d="M85.3722 141.447L88.4083 141.746L83.1845 71.2448L77.2277 71.9067L85.3722 141.447Z" fill="#C2B644"/>
<path d="M85.3722 141.447L88.4083 141.746L83.1845 71.2448L77.2277 71.9067L85.3722 141.447Z" fill="black" fill-opacity="0.2"/>
<path d="M77.9796 1H68.9232L71.0988 19.5763L79.4178 20.4096L77.9796 1Z" fill="#E84B18"/>
<path d="M77.9796 1H68.9232L71.0988 19.5763L79.4178 20.4096L77.9796 1Z" fill="#C2B644"/>
<path d="M77.9796 1H68.9232L71.0988 19.5763L79.4178 20.4096L77.9796 1Z" fill="black" fill-opacity="0.2"/>
<path d="M87.036 1H77.9796L79.4178 20.4096L87.6648 21.2356L87.036 1Z" fill="#E84B18"/>
<path d="M87.036 1H77.9796L79.4178 20.4096L87.6648 21.2356L87.036 1Z" fill="#C2B644"/>
<path d="M87.036 1H77.9796L79.4178 20.4096L87.6648 21.2356L87.036 1Z" fill="black" fill-opacity="0.2"/>
<path d="M91.5643 1H87.036L87.6648 21.2356L91.7617 21.646L91.5643 1Z" fill="#E84B18"/>
<path d="M91.5643 1H87.036L87.6648 21.2356L91.7617 21.646L91.5643 1Z" fill="#C2B644"/>
<path d="M91.5643 1H87.036L87.6648 21.2356L91.7617 21.646L91.5643 1Z" fill="black" fill-opacity="0.2"/>
<path d="M97.6019 1H91.5643L91.7617 21.646L97.1967 22.1904L97.6019 1Z" fill="#E84B18"/>
<path d="M97.6019 1H91.5643L91.7617 21.646L97.1967 22.1904L97.6019 1Z" fill="#C2B644"/>
<path d="M97.6019 1H91.5643L91.7617 21.646L97.1967 22.1904L97.6019 1Z" fill="black" fill-opacity="0.2"/>
<path d="M105.652 1H97.6019L97.1967 22.1904L104.395 22.9114L105.652 1Z" fill="#E84B18"/>
<path d="M105.652 1H97.6019L97.1967 22.1904L104.395 22.9114L105.652 1Z" fill="#C2B644"/>
<path d="M105.652 1H97.6019L97.1967 22.1904L104.395 22.9114L105.652 1Z" fill="black" fill-opacity="0.2"/>
<path d="M114.205 1H105.652L104.395 22.9114L111.984 23.6715L114.205 1Z" fill="#E84B18"/>
<path d="M114.205 1H105.652L104.395 22.9114L111.984 23.6715L114.205 1Z" fill="#C2B644"/>
<path d="M114.205 1H105.652L104.395 22.9114L111.984 23.6715L114.205 1Z" fill="black" fill-opacity="0.2"/>
<path d="M79.4178 20.4096L71.0988 19.5763L72.1646 28.6763L73.1756 37.3085L74.0422 44.7076L75.0381 53.2109L76.1378 62.6004L77.2277 71.9067L83.1845 71.2448L89.198 70.5766L92.2262 70.2401L96.2865 69.7889L101.741 69.1828L107.587 68.5331L108.399 60.2526L109.204 52.0345L109.922 44.7076L110.538 38.4196L111.247 31.1841L111.984 23.6715L104.395 22.9114L97.1967 22.1904L91.7617 21.646L87.6648 21.2356L79.4178 20.4096Z" fill="#E84B18"/>
<path d="M79.4178 20.4096L71.0988 19.5763L72.1646 28.6763L73.1756 37.3085L74.0422 44.7076L75.0381 53.2109L76.1378 62.6004L77.2277 71.9067L83.1845 71.2448L89.198 70.5766L92.2262 70.2401L96.2865 69.7889L101.741 69.1828L107.587 68.5331L108.399 60.2526L109.204 52.0345L109.922 44.7076L110.538 38.4196L111.247 31.1841L111.984 23.6715L104.395 22.9114L97.1967 22.1904L91.7617 21.646L87.6648 21.2356L79.4178 20.4096Z" fill="#C2B644"/>
<path d="M79.4178 20.4096L71.0988 19.5763L72.1646 28.6763L73.1756 37.3085L74.0422 44.7076L75.0381 53.2109L76.1378 62.6004L77.2277 71.9067L83.1845 71.2448L89.198 70.5766L92.2262 70.2401L96.2865 69.7889L101.741 69.1828L107.587 68.5331L108.399 60.2526L109.204 52.0345L109.922 44.7076L110.538 38.4196L111.247 31.1841L111.984 23.6715L104.395 22.9114L97.1967 22.1904L91.7617 21.646L87.6648 21.2356L79.4178 20.4096Z" fill="black" fill-opacity="0.2"/>
<path d="M79.4178 20.4096L71.0988 19.5763L72.1646 28.6763L73.1756 37.3085L74.0422 44.7076L75.0381 53.2109L76.1378 62.6004L77.2277 71.9067L83.1845 71.2448L89.198 70.5766L92.2262 70.2401L96.2865 69.7889L101.741 69.1828L107.587 68.5331L108.399 60.2526L109.204 52.0345L109.922 44.7076L110.538 38.4196L111.247 31.1841L111.984 23.6715L104.395 22.9114L97.1967 22.1904L91.7617 21.646L87.6648 21.2356L79.4178 20.4096Z" fill="#E84B18"/>
<path d="M244.712 36.9661L238.472 36.3411L233.448 35.8379L227.128 35.2048L220.335 34.5244L213.49 33.8388L213.932 37.7732L214.351 41.5066L214.711 44.7076L215.124 48.3875L215.581 52.4523L216.034 56.4826L221.914 55.8292L227.843 55.1703L233.448 54.5475L237.964 54.0457L243.65 53.4138L250.15 52.6916L250.442 49.9153L250.731 47.1615L250.99 44.7076L251.211 42.6026L251.466 40.1816L251.73 37.6691L244.712 36.9661Z" fill="#E84B18"/>
<path d="M244.712 36.9661L238.472 36.3411L233.448 35.8379L227.128 35.2048L220.335 34.5244L213.49 33.8388L213.932 37.7732L214.351 41.5066L214.711 44.7076L215.124 48.3875L215.581 52.4523L216.034 56.4826L221.914 55.8292L227.843 55.1703L233.448 54.5475L237.964 54.0457L243.65 53.4138L250.15 52.6916L250.442 49.9153L250.731 47.1615L250.99 44.7076L251.211 42.6026L251.466 40.1816L251.73 37.6691L244.712 36.9661Z" fill="#C2B644"/>
<path d="M244.712 36.9661L238.472 36.3411L233.448 35.8379L227.128 35.2048L220.335 34.5244L213.49 33.8388L213.932 37.7732L214.351 41.5066L214.711 44.7076L215.124 48.3875L215.581 52.4523L216.034 56.4826L221.914 55.8292L227.843 55.1703L233.448 54.5475L237.964 54.0457L243.65 53.4138L250.15 52.6916L250.442 49.9153L250.731 47.1615L250.99 44.7076L251.211 42.6026L251.466 40.1816L251.73 37.6691L244.712 36.9661Z" fill="black" fill-opacity="0.2"/>
<path d="M244.712 36.9661L238.472 36.3411L233.448 35.8379L227.128 35.2048L220.335 34.5244L213.49 33.8388L213.932 37.7732L214.351 41.5066L214.711 44.7076L215.124 48.3875L215.581 52.4523L216.034 56.4826L221.914 55.8292L227.843 55.1703L233.448 54.5475L237.964 54.0457L243.65 53.4138L250.15 52.6916L250.442 49.9153L250.731 47.1615L250.99 44.7076L251.211 42.6026L251.466 40.1816L251.73 37.6691L244.712 36.9661Z" fill="#E84B18"/>
<path d="M85.3722 141.447L86.3119 149.47L87.2441 157.43L88.1048 164.778L89.1292 173.525L89.8917 180.035L90.8587 188.292L93.5768 211.5L95.9014 187.779L96.7042 179.587L97.3284 173.217L98.1555 164.778L98.84 157.793L99.5712 150.331L100.298 142.918L97.5266 142.645L94.8984 142.386L92.9141 142.19L91.4186 142.043L88.4083 141.746L85.3722 141.447Z" fill="#E84B18"/>
<path d="M85.3722 141.447L86.3119 149.47L87.2441 157.43L88.1048 164.778L89.1292 173.525L89.8917 180.035L90.8587 188.292L93.5768 211.5L95.9014 187.779L96.7042 179.587L97.3284 173.217L98.1555 164.778L98.84 157.793L99.5712 150.331L100.298 142.918L97.5266 142.645L94.8984 142.386L92.9141 142.19L91.4186 142.043L88.4083 141.746L85.3722 141.447Z" fill="#C2B644"/>
<path d="M85.3722 141.447L86.3119 149.47L87.2441 157.43L88.1048 164.778L89.1292 173.525L89.8917 180.035L90.8587 188.292L93.5768 211.5L95.9014 187.779L96.7042 179.587L97.3284 173.217L98.1555 164.778L98.84 157.793L99.5712 150.331L100.298 142.918L97.5266 142.645L94.8984 142.386L92.9141 142.19L91.4186 142.043L88.4083 141.746L85.3722 141.447Z" fill="black" fill-opacity="0.2"/>
<path d="M85.3722 141.447L86.3119 149.47L87.2441 157.43L88.1048 164.778L89.1292 173.525L89.8917 180.035L90.8587 188.292L93.5768 211.5L95.9014 187.779L96.7042 179.587L97.3284 173.217L98.1555 164.778L98.84 157.793L99.5712 150.331L100.298 142.918L97.5266 142.645L94.8984 142.386L92.9141 142.19L91.4186 142.043L88.4083 141.746L85.3722 141.447Z" fill="#E84B18"/>
<path d="M322 44.7076L250.442 49.9153L250.15 52.6916L322 44.7076Z" fill="#E84B18"/>
<path d="M322 44.7076L250.442 49.9153L250.15 52.6916L322 44.7076Z" fill="#C2B644"/>
<path d="M322 44.7076L250.442 49.9153L250.15 52.6916L322 44.7076Z" fill="black" fill-opacity="0.2"/>
<path d="M322 44.7076L250.442 49.9153L250.15 52.6916L322 44.7076Z" fill="#F6623A"/>
<path d="M322 44.7076L250.731 47.1615L250.442 49.9153L322 44.7076Z" fill="#E84B18"/>
<path d="M322 44.7076L250.731 47.1615L250.442 49.9153L322 44.7076Z" fill="#C2B644"/>
<path d="M322 44.7076L250.731 47.1615L250.442 49.9153L322 44.7076Z" fill="black" fill-opacity="0.2"/>
<path d="M322 44.7076L250.731 47.1615L250.442 49.9153L322 44.7076Z" fill="#F6623A"/>
<path d="M322 44.7076H250.99L250.731 47.1615L322 44.7076Z" fill="#E84B18"/>
<path d="M322 44.7076H250.99L250.731 47.1615L322 44.7076Z" fill="#C2B644"/>
<path d="M322 44.7076H250.99L250.731 47.1615L322 44.7076Z" fill="black" fill-opacity="0.2"/>
<path d="M322 44.7076H250.99L250.731 47.1615L322 44.7076Z" fill="#F6623A"/>
<path d="M322 44.7076L251.211 42.6026L250.99 44.7076H322Z" fill="#E84B18"/>
<path d="M322 44.7076L251.211 42.6026L250.99 44.7076H322Z" fill="#C2B644"/>
<path d="M322 44.7076L251.211 42.6026L250.99 44.7076H322Z" fill="black" fill-opacity="0.2"/>
<path d="M322 44.7076L251.211 42.6026L250.99 44.7076H322Z" fill="#F6623A"/>
<path d="M322 44.7076L251.466 40.1816L251.211 42.6026L322 44.7076Z" fill="#E84B18"/>
<path d="M322 44.7076L251.466 40.1816L251.211 42.6026L322 44.7076Z" fill="#C2B644"/>
<path d="M322 44.7076L251.466 40.1816L251.211 42.6026L322 44.7076Z" fill="black" fill-opacity="0.2"/>
<path d="M322 44.7076L251.466 40.1816L251.211 42.6026L322 44.7076Z" fill="#F6623A"/>
<path d="M251.73 37.6691L251.466 40.1816L322 44.7076L251.73 37.6691Z" fill="#E84B18"/>
<path d="M251.73 37.6691L251.466 40.1816L322 44.7076L251.73 37.6691Z" fill="#C2B644"/>
<path d="M251.73 37.6691L251.466 40.1816L322 44.7076L251.73 37.6691Z" fill="black" fill-opacity="0.2"/>
<path d="M251.73 37.6691L251.466 40.1816L322 44.7076L251.73 37.6691Z" fill="#F6623A"/>
<path d="M231.868 197.433L233.448 211.5L232.406 197.433H231.868Z" fill="#E84B18"/>
<path d="M231.868 197.433L233.448 211.5L232.406 197.433H231.868Z" fill="#C2B644"/>
<path d="M231.868 197.433L233.448 211.5L232.406 197.433H231.868Z" fill="#E84B18"/>
<path d="M232.406 197.433L233.448 211.5L232.944 197.433H232.406Z" fill="#E84B18"/>
<path d="M232.406 197.433L233.448 211.5L232.944 197.433H232.406Z" fill="#C2B644"/>
<path d="M232.406 197.433L233.448 211.5L232.944 197.433H232.406Z" fill="#E84B18"/>
<path d="M232.944 197.433L233.448 211.5V197.433H232.944Z" fill="#E84B18"/>
<path d="M232.944 197.433L233.448 211.5V197.433H232.944Z" fill="#C2B644"/>
<path d="M232.944 197.433L233.448 211.5V197.433H232.944Z" fill="#E84B18"/>
<path d="M233.448 197.433V211.5L233.852 197.433H233.448Z" fill="#E84B18"/>
<path d="M233.448 197.433V211.5L233.852 197.433H233.448Z" fill="#C2B644"/>
<path d="M233.448 197.433V211.5L233.852 197.433H233.448Z" fill="#E84B18"/>
<path d="M233.852 197.433L233.448 211.5L234.356 197.433H233.852Z" fill="#E84B18"/>
<path d="M233.852 197.433L233.448 211.5L234.356 197.433H233.852Z" fill="#C2B644"/>
<path d="M233.852 197.433L233.448 211.5L234.356 197.433H233.852Z" fill="#E84B18"/>
<path d="M290.806 165.95L322 164.778H290.806V165.95Z" fill="#E84B18"/>
<path d="M290.806 165.95L322 164.778H290.806V165.95Z" fill="#C2B644"/>
<path d="M290.806 165.95L322 164.778H290.806V165.95Z" fill="#E84B18"/>
<path d="M290.806 167.951L322 164.778L290.806 166.829V167.951Z" fill="#E84B18"/>
<path d="M290.806 167.951L322 164.778L290.806 166.829V167.951Z" fill="#C2B644"/>
<path d="M290.806 167.951L322 164.778L290.806 166.829V167.951Z" fill="#E84B18"/>
<path d="M290.806 163.802L322 164.778L290.806 162.752V163.802Z" fill="#E84B18"/>
<path d="M290.806 163.802L322 164.778L290.806 162.752V163.802Z" fill="#C2B644"/>
<path d="M290.806 163.802L322 164.778L290.806 162.752V163.802Z" fill="#E84B18"/>
<path d="M290.806 164.778H322L290.806 163.802V164.778Z" fill="#E84B18"/>
<path d="M290.806 164.778H322L290.806 163.802V164.778Z" fill="#C2B644"/>
<path d="M290.806 164.778H322L290.806 163.802V164.778Z" fill="#E84B18"/>
<path d="M209.801 1H217.851M209.801 1H114.205M209.801 1L213.49 33.8388M233.448 211.5H322V164.778M233.448 211.5H93.5768M233.448 211.5L231.868 197.433M233.448 211.5L232.406 197.433M233.448 211.5L232.944 197.433M233.448 211.5V197.433M233.448 211.5L233.852 197.433M233.448 211.5L234.356 197.433M255.586 1H322V44.7076M255.586 1H247.033M255.586 1L251.73 37.6691M247.033 1H239.486M247.033 1L244.712 36.9661M239.486 1H233.448M239.486 1L238.472 36.3411M233.448 1H225.901M233.448 1V35.8379M225.901 1H217.851M225.901 1L227.128 35.2048M217.851 1L220.335 34.5244M1 133.128V143.929M1 133.128V80.3771M1 133.128L85.3722 141.447M322 164.778V44.7076M322 164.778L290.806 167.951M322 164.778L290.806 166.829M322 164.778L290.806 165.95M322 164.778H290.806M322 164.778L290.806 163.802M322 164.778L290.806 162.752M322 164.778L290.806 162M1 197.433V211.5H93.5768M1 197.433V185.878M1 197.433L90.8587 188.292M1 185.878V176.835M1 185.878L89.8917 180.035M1 176.835V164.778M1 176.835L89.1292 173.525M1 164.778V154.73M1 164.778H88.1048M1 154.73V143.929M1 154.73L87.2441 157.43M1 143.929L86.3119 149.47M114.205 1H105.652M114.205 1L111.984 23.6715M93.5768 211.5L90.8587 188.292M93.5768 211.5L95.9014 187.779M68.9232 1H1V12.5549M68.9232 1H77.9796M68.9232 1L71.0988 19.5763M105.652 1H97.6019M105.652 1L104.395 22.9114M97.6019 1H91.5643M97.6019 1L97.1967 22.1904M91.5643 1H87.036M91.5643 1L91.7617 21.646M87.036 1H77.9796M87.036 1L87.6648 21.2356M77.9796 1L79.4178 20.4096M1 12.5549V24.1098M1 12.5549L71.0988 19.5763M322 44.7076L251.73 37.6691M322 44.7076L251.466 40.1816M322 44.7076L251.211 42.6026M322 44.7076H250.99M322 44.7076L250.731 47.1615M322 44.7076L250.442 49.9153M322 44.7076L250.15 52.6916M1 80.3771V68.0686M1 80.3771L77.2277 71.9067M1 24.1098V35.1623M1 24.1098L72.1646 28.6763M1 35.1623V44.7076M1 35.1623L73.1756 37.3085M1 44.7076V55.7601M1 44.7076H74.0422M1 55.7601V68.0686M1 55.7601L75.0381 53.2109M1 68.0686L76.1378 62.6004M193.701 152.128V133.128H224.644M193.701 152.128V156.445M193.701 152.128L100.298 142.918M193.701 156.445V160.762M193.701 156.445L99.5712 150.331M193.701 160.762V164.778M193.701 160.762L98.84 157.793M193.701 164.778V169.597M193.701 164.778H98.1555M193.701 169.597V173.212M193.701 169.597L97.3284 173.217M193.701 173.212V177.83M193.701 173.212L96.7042 179.587M193.701 177.83V197.433H226.404H231.868M193.701 177.83L95.9014 187.779M290.806 167.951V169.802L273.196 197.433H236.467H234.958H234.356M290.806 167.951V166.829M290.806 166.829V165.95M290.806 165.95V164.778M290.806 164.778V163.802M290.806 163.802V162.752M290.806 162.752V162M290.806 162V159.252L273.196 133.128H241.691M241.691 133.128H238.506M241.691 133.128L250.15 52.6916M238.506 133.128H235.696M238.506 133.128L243.65 53.4138M235.696 133.128H233.448M235.696 133.128L237.964 54.0457M233.448 133.128H230.638M233.448 133.128V54.5475M230.638 133.128H227.641M230.638 133.128L227.843 55.1703M227.641 133.128H224.644M227.641 133.128L221.914 55.8292M224.644 133.128L216.034 56.4826M231.868 197.433H232.406M232.406 197.433H232.944M232.944 197.433H233.448M233.448 197.433H233.852M233.852 197.433H234.356M244.712 36.9661L238.472 36.3411M244.712 36.9661L251.73 37.6691M238.472 36.3411L233.448 35.8379M251.466 40.1816L251.73 37.6691M251.466 40.1816L251.211 42.6026M251.211 42.6026L250.99 44.7076M250.99 44.7076L250.731 47.1615M250.731 47.1615L250.442 49.9153M250.442 49.9153L250.15 52.6916M243.65 53.4138L250.15 52.6916M243.65 53.4138L237.964 54.0457M237.964 54.0457L233.448 54.5475M233.448 35.8379L227.128 35.2048M227.128 35.2048L220.335 34.5244M220.335 34.5244L213.49 33.8388M213.49 33.8388L213.932 37.7732M213.49 33.8388L111.984 23.6715M213.932 37.7732L214.351 41.5066M213.932 37.7732L111.247 31.1841M214.351 41.5066L214.711 44.7076M214.351 41.5066L110.538 38.4196M214.711 44.7076L215.124 48.3875M214.711 44.7076H109.922M215.124 48.3875L215.581 52.4523M215.124 48.3875L109.204 52.0345M215.581 52.4523L216.034 56.4826M215.581 52.4523L108.399 60.2526M216.034 56.4826L221.914 55.8292M216.034 56.4826L107.587 68.5331M221.914 55.8292L227.843 55.1703M227.843 55.1703L233.448 54.5475M85.3722 141.447L86.3119 149.47M85.3722 141.447L88.4083 141.746M85.3722 141.447L77.2277 71.9067M86.3119 149.47L87.2441 157.43M88.4083 141.746L91.4186 142.043M88.4083 141.746L83.1845 71.2448M91.4186 142.043L92.9141 142.19M91.4186 142.043L89.198 70.5766M92.9141 142.19L94.8984 142.386M92.9141 142.19L92.2262 70.2401M94.8984 142.386L97.5266 142.645M94.8984 142.386L96.2865 69.7889M97.5266 142.645L100.298 142.918M97.5266 142.645L101.741 69.1828M99.5712 150.331L100.298 142.918M99.5712 150.331L98.84 157.793M100.298 142.918L107.587 68.5331M98.84 157.793L98.1555 164.778M87.2441 157.43L88.1048 164.778M88.1048 164.778L89.1292 173.525M89.1292 173.525L89.8917 180.035M97.3284 173.217L98.1555 164.778M97.3284 173.217L96.7042 179.587M96.7042 179.587L95.9014 187.779M89.8917 180.035L90.8587 188.292M72.1646 28.6763L71.0988 19.5763M72.1646 28.6763L73.1756 37.3085M79.4178 20.4096L71.0988 19.5763M79.4178 20.4096L87.6648 21.2356M87.6648 21.2356L91.7617 21.646M91.7617 21.646L97.1967 22.1904M97.1967 22.1904L104.395 22.9114M104.395 22.9114L111.984 23.6715M111.247 31.1841L111.984 23.6715M111.247 31.1841L110.538 38.4196M110.538 38.4196L109.922 44.7076M73.1756 37.3085L74.0422 44.7076M74.0422 44.7076L75.0381 53.2109M109.922 44.7076L109.204 52.0345M109.204 52.0345L108.399 60.2526M75.0381 53.2109L76.1378 62.6004M76.1378 62.6004L77.2277 71.9067M108.399 60.2526L107.587 68.5331M101.741 69.1828L107.587 68.5331M101.741 69.1828L96.2865 69.7889M92.2262 70.2401L96.2865 69.7889M92.2262 70.2401L89.198 70.5766M89.198 70.5766L83.1845 71.2448M83.1845 71.2448L77.2277 71.9067" stroke="black"/>
<path d="M209.801 1H217.851M209.801 1H114.205M209.801 1L213.49 33.8388M233.448 211.5H322V164.778M233.448 211.5H93.5768M233.448 211.5L231.868 197.433M233.448 211.5L232.406 197.433M233.448 211.5L232.944 197.433M233.448 211.5V197.433M233.448 211.5L233.852 197.433M233.448 211.5L234.356 197.433M255.586 1H322V44.7076M255.586 1H247.033M255.586 1L251.73 37.6691M247.033 1H239.486M247.033 1L244.712 36.9661M239.486 1H233.448M239.486 1L238.472 36.3411M233.448 1H225.901M233.448 1V35.8379M225.901 1H217.851M225.901 1L227.128 35.2048M217.851 1L220.335 34.5244M1 133.128V143.929M1 133.128V80.3771M1 133.128L85.3722 141.447M322 164.778V44.7076M322 164.778L290.806 167.951M322 164.778L290.806 166.829M322 164.778L290.806 165.95M322 164.778H290.806M322 164.778L290.806 163.802M322 164.778L290.806 162.752M322 164.778L290.806 162M1 197.433V211.5H93.5768M1 197.433V185.878M1 197.433L90.8587 188.292M1 185.878V176.835M1 185.878L89.8917 180.035M1 176.835V164.778M1 176.835L89.1292 173.525M1 164.778V154.73M1 164.778H88.1048M1 154.73V143.929M1 154.73L87.2441 157.43M1 143.929L86.3119 149.47M114.205 1H105.652M114.205 1L111.984 23.6715M93.5768 211.5L90.8587 188.292M93.5768 211.5L95.9014 187.779M68.9232 1H1V12.5549M68.9232 1H77.9796M68.9232 1L71.0988 19.5763M105.652 1H97.6019M105.652 1L104.395 22.9114M97.6019 1H91.5643M97.6019 1L97.1967 22.1904M91.5643 1H87.036M91.5643 1L91.7617 21.646M87.036 1H77.9796M87.036 1L87.6648 21.2356M77.9796 1L79.4178 20.4096M1 12.5549V24.1098M1 12.5549L71.0988 19.5763M322 44.7076L251.73 37.6691M322 44.7076L251.466 40.1816M322 44.7076L251.211 42.6026M322 44.7076H250.99M322 44.7076L250.731 47.1615M322 44.7076L250.442 49.9153M322 44.7076L250.15 52.6916M1 80.3771V68.0686M1 80.3771L77.2277 71.9067M1 24.1098V35.1623M1 24.1098L72.1646 28.6763M1 35.1623V44.7076M1 35.1623L73.1756 37.3085M1 44.7076V55.7601M1 44.7076H74.0422M1 55.7601V68.0686M1 55.7601L75.0381 53.2109M1 68.0686L76.1378 62.6004M193.701 152.128V133.128H224.644M193.701 152.128V156.445M193.701 152.128L100.298 142.918M193.701 156.445V160.762M193.701 156.445L99.5712 150.331M193.701 160.762V164.778M193.701 160.762L98.84 157.793M193.701 164.778V169.597M193.701 164.778H98.1555M193.701 169.597V173.212M193.701 169.597L97.3284 173.217M193.701 173.212V177.83M193.701 173.212L96.7042 179.587M193.701 177.83V197.433H226.404H231.868M193.701 177.83L95.9014 187.779M290.806 167.951V169.802L273.196 197.433H236.467H234.958H234.356M290.806 167.951V166.829M290.806 166.829V165.95M290.806 165.95V164.778M290.806 164.778V163.802M290.806 163.802V162.752M290.806 162.752V162M290.806 162V159.252L273.196 133.128H241.691M241.691 133.128H238.506M241.691 133.128L250.15 52.6916M238.506 133.128H235.696M238.506 133.128L243.65 53.4138M235.696 133.128H233.448M235.696 133.128L237.964 54.0457M233.448 133.128H230.638M233.448 133.128V54.5475M230.638 133.128H227.641M230.638 133.128L227.843 55.1703M227.641 133.128H224.644M227.641 133.128L221.914 55.8292M224.644 133.128L216.034 56.4826M231.868 197.433H232.406M232.406 197.433H232.944M232.944 197.433H233.448M233.448 197.433H233.852M233.852 197.433H234.356M244.712 36.9661L238.472 36.3411M244.712 36.9661L251.73 37.6691M238.472 36.3411L233.448 35.8379M251.466 40.1816L251.73 37.6691M251.466 40.1816L251.211 42.6026M251.211 42.6026L250.99 44.7076M250.99 44.7076L250.731 47.1615M250.731 47.1615L250.442 49.9153M250.442 49.9153L250.15 52.6916M243.65 53.4138L250.15 52.6916M243.65 53.4138L237.964 54.0457M237.964 54.0457L233.448 54.5475M233.448 35.8379L227.128 35.2048M227.128 35.2048L220.335 34.5244M220.335 34.5244L213.49 33.8388M213.49 33.8388L213.932 37.7732M213.49 33.8388L111.984 23.6715M213.932 37.7732L214.351 41.5066M213.932 37.7732L111.247 31.1841M214.351 41.5066L214.711 44.7076M214.351 41.5066L110.538 38.4196M214.711 44.7076L215.124 48.3875M214.711 44.7076H109.922M215.124 48.3875L215.581 52.4523M215.124 48.3875L109.204 52.0345M215.581 52.4523L216.034 56.4826M215.581 52.4523L108.399 60.2526M216.034 56.4826L221.914 55.8292M216.034 56.4826L107.587 68.5331M221.914 55.8292L227.843 55.1703M227.843 55.1703L233.448 54.5475M85.3722 141.447L86.3119 149.47M85.3722 141.447L88.4083 141.746M85.3722 141.447L77.2277 71.9067M86.3119 149.47L87.2441 157.43M88.4083 141.746L91.4186 142.043M88.4083 141.746L83.1845 71.2448M91.4186 142.043L92.9141 142.19M91.4186 142.043L89.198 70.5766M92.9141 142.19L94.8984 142.386M92.9141 142.19L92.2262 70.2401M94.8984 142.386L97.5266 142.645M94.8984 142.386L96.2865 69.7889M97.5266 142.645L100.298 142.918M97.5266 142.645L101.741 69.1828M99.5712 150.331L100.298 142.918M99.5712 150.331L98.84 157.793M100.298 142.918L107.587 68.5331M98.84 157.793L98.1555 164.778M87.2441 157.43L88.1048 164.778M88.1048 164.778L89.1292 173.525M89.1292 173.525L89.8917 180.035M97.3284 173.217L98.1555 164.778M97.3284 173.217L96.7042 179.587M96.7042 179.587L95.9014 187.779M89.8917 180.035L90.8587 188.292M72.1646 28.6763L71.0988 19.5763M72.1646 28.6763L73.1756 37.3085M79.4178 20.4096L71.0988 19.5763M79.4178 20.4096L87.6648 21.2356M87.6648 21.2356L91.7617 21.646M91.7617 21.646L97.1967 22.1904M97.1967 22.1904L104.395 22.9114M104.395 22.9114L111.984 23.6715M111.247 31.1841L111.984 23.6715M111.247 31.1841L110.538 38.4196M110.538 38.4196L109.922 44.7076M73.1756 37.3085L74.0422 44.7076M74.0422 44.7076L75.0381 53.2109M109.922 44.7076L109.204 52.0345M109.204 52.0345L108.399 60.2526M75.0381 53.2109L76.1378 62.6004M76.1378 62.6004L77.2277 71.9067M108.399 60.2526L107.587 68.5331M101.741 69.1828L107.587 68.5331M101.741 69.1828L96.2865 69.7889M92.2262 70.2401L96.2865 69.7889M92.2262 70.2401L89.198 70.5766M89.198 70.5766L83.1845 71.2448M83.1845 71.2448L77.2277 71.9067" stroke="#102D55"/>
</svg>
