<svg width="99" height="68" viewBox="0 0 99 68" fill="none" xmlns="http://www.w3.org/2000/svg">
<path fill-rule="evenodd" clip-rule="evenodd" d="M98 36.7414L43.1519 42.4743L41.6115 67H41.1077H40.7047H40.2009H39.6635H39.1261H33.6684H1V46.8801V42.1401V38.4305V33.4844V29.3626V24.9317V20.5008V1H31.9099H34.9039H37.8978H40.7047H42.9501H45.757H48.938H80.4093L98 27.8125V30.3276V31.4049V32.4822V33.4844V34.687V35.5889V36.7414Z" fill="#E84B18"/>
<path fill-rule="evenodd" clip-rule="evenodd" d="M98 36.7414L43.1519 42.4743L41.6115 67H41.1077H40.7047H40.2009H39.6635H39.1261H33.6684H1V46.8801V42.1401V38.4305V33.4844V29.3626V24.9317V20.5008V1H31.9099H34.9039H37.8978H40.7047H42.9501H45.757H48.938H80.4093L98 27.8125V30.3276V31.4049V32.4822V33.4844V34.687V35.5889V36.7414Z" fill="#C2B644"/>
<path fill-rule="evenodd" clip-rule="evenodd" d="M98 36.7414L43.1519 42.4743L41.6115 67H41.1077H40.7047H40.2009H39.6635H39.1261H33.6684H1V46.8801V42.1401V38.4305V33.4844V29.3626V24.9317V20.5008V1H31.9099H34.9039H37.8978H40.7047H42.9501H45.757H48.938H80.4093L98 27.8125V30.3276V31.4049V32.4822V33.4844V34.687V35.5889V36.7414Z" fill="black" fill-opacity="0.2"/>
<path d="M80.4093 67L98 38.6406V36.7414L43.1519 42.4743L41.6115 67H43.7202H80.4093Z" fill="#E84B18"/>
<path d="M80.4093 67L98 38.6406V36.7414L43.1519 42.4743L41.6115 67H43.7202H80.4093Z" fill="#C2B644"/>
<path d="M80.4093 67L98 38.6406V36.7414L43.1519 42.4743L41.6115 67H43.7202H80.4093Z" fill="black" fill-opacity="0.2"/>
<path d="M1 20.5008V1H31.9099M1 20.5008V24.9317M1 20.5008L34.4122 23.8857M1 24.9317V29.3626M1 24.9317L34.773 27.1855M1 29.3626V33.4844M1 29.3626L35.131 30.4603M1 33.4844V38.4305M1 33.4844H35.4616M1 38.4305V42.1401M1 38.4305L35.8554 37.0853M1 42.1401V46.8801M1 42.1401L36.1485 39.7662M1 46.8801V67H33.6684H39.1261M1 46.8801L36.5203 43.1674M98 36.7414L43.1519 42.4743M98 36.7414V38.6406L80.4093 67H43.7202H41.6115M98 36.7414V35.5889M43.1519 42.4743L41.7884 42.6168M43.1519 42.4743L43.3526 39.2797M43.1519 42.4743L41.6115 67M41.7884 42.6168L40.7047 42.7301M41.7884 42.6168L41.8787 39.3792M41.7884 42.6168L41.1077 67M40.7047 42.7301L39.3589 42.8707M40.7047 42.7301V39.4585M40.7047 42.7301V67M39.3589 42.8707L37.9342 43.0196M39.3589 42.8707L39.2433 39.5572M39.3589 42.8707L40.2009 67M37.9342 43.0196L36.5203 43.1674M37.9342 43.0196L37.692 39.662M37.9342 43.0196L39.6635 67M36.5203 43.1674L36.1485 39.7662M36.5203 43.1674L39.1261 67M98 35.5889L43.3526 39.2797M98 35.5889V34.687M36.1485 39.7662L37.692 39.662M36.1485 39.7662L35.8554 37.0853M37.692 39.662L39.2433 39.5572M37.692 39.662L37.5016 37.0218M39.2433 39.5572L40.7047 39.4585M39.2433 39.5572L39.1526 36.9581M40.7047 39.4585L41.8787 39.3792M40.7047 39.4585V36.8982M41.8787 39.3792L43.3526 39.2797M41.8787 39.3792L41.9494 36.8501M43.3526 39.2797L43.509 36.7899M98 34.687L43.509 36.7899M98 34.687V33.4844M35.8554 37.0853L37.5016 37.0218M35.8554 37.0853L35.4616 33.4844M37.5016 37.0218L39.1526 36.9581M37.5016 37.0218L37.2465 33.4844M39.1526 36.9581L40.7047 36.8982M39.1526 36.9581L39.0314 33.4844M40.7047 36.8982L41.9494 36.8501M40.7047 36.8982V33.4844M41.9494 36.8501L43.509 36.7899M41.9494 36.8501L42.0433 33.4844M43.509 36.7899L43.7166 33.4844M98 33.4844H43.7166M98 33.4844V32.4822M35.4616 33.4844H37.2465M35.4616 33.4844L35.131 30.4603M37.2465 33.4844H39.0314M37.2465 33.4844L37.0328 30.5215M39.0314 33.4844H40.7047M39.0314 33.4844L38.9301 30.5825M40.7047 33.4844H42.0433M40.7047 33.4844V30.6395M42.0433 33.4844H43.7166M42.0433 33.4844L42.1214 30.6851M43.7166 33.4844L43.8889 30.742M98 32.4822L43.8889 30.742M98 32.4822V31.4049M35.131 30.4603L37.0328 30.5215M35.131 30.4603L34.773 27.1855M37.0328 30.5215L38.9301 30.5825M37.0328 30.5215L36.802 27.3209M38.9301 30.5825L40.7047 30.6395M38.9301 30.5825L38.821 27.4556M40.7047 30.6395L42.1214 30.6851M40.7047 30.6395V27.5813M42.1214 30.6851L43.8889 30.742M42.1214 30.6851L42.2053 27.6815M43.8889 30.742L44.0733 27.8061M98 31.4049L44.0733 27.8061M98 31.4049V30.3276M34.773 27.1855L36.802 27.3209M34.773 27.1855L34.4122 23.8857M36.802 27.3209L38.821 27.4556M36.802 27.3209L36.5701 24.1043M38.821 27.4556L40.7047 27.5813M38.821 27.4556L38.7116 24.3213M40.7047 27.5813L42.2053 27.6815M40.7047 27.5813V24.5232M42.2053 27.6815L44.0733 27.8061M42.2053 27.6815L42.289 24.6837M44.0733 27.8061L44.2568 24.883M98 30.3276V27.8125L80.4093 1H48.938M98 30.3276L44.2568 24.883M34.4122 23.8857L36.5701 24.1043M34.4122 23.8857L31.9099 1M36.5701 24.1043L38.7116 24.3213M36.5701 24.1043L34.9039 1M38.7116 24.3213L40.7047 24.5232M38.7116 24.3213L37.8978 1M40.7047 24.5232L42.289 24.6837M40.7047 24.5232V1M42.289 24.6837L44.2568 24.883M42.289 24.6837L42.9501 1M44.2568 24.883L45.757 1M48.938 1H45.757M48.938 1L41.6115 67M45.757 1H42.9501M42.9501 1H40.7047M40.7047 1H37.8978M37.8978 1H34.9039M34.9039 1H31.9099M39.1261 67H39.6635M39.6635 67H40.2009M40.2009 67H40.7047M40.7047 67H41.1077M41.1077 67H41.6115" stroke="black"/>
<path d="M1 20.5008V1H31.9099M1 20.5008V24.9317M1 20.5008L34.4122 23.8857M1 24.9317V29.3626M1 24.9317L34.773 27.1855M1 29.3626V33.4844M1 29.3626L35.131 30.4603M1 33.4844V38.4305M1 33.4844H35.4616M1 38.4305V42.1401M1 38.4305L35.8554 37.0853M1 42.1401V46.8801M1 42.1401L36.1485 39.7662M1 46.8801V67H33.6684H39.1261M1 46.8801L36.5203 43.1674M98 36.7414L43.1519 42.4743M98 36.7414V38.6406L80.4093 67H43.7202H41.6115M98 36.7414V35.5889M43.1519 42.4743L41.7884 42.6168M43.1519 42.4743L43.3526 39.2797M43.1519 42.4743L41.6115 67M41.7884 42.6168L40.7047 42.7301M41.7884 42.6168L41.8787 39.3792M41.7884 42.6168L41.1077 67M40.7047 42.7301L39.3589 42.8707M40.7047 42.7301V39.4585M40.7047 42.7301V67M39.3589 42.8707L37.9342 43.0196M39.3589 42.8707L39.2433 39.5572M39.3589 42.8707L40.2009 67M37.9342 43.0196L36.5203 43.1674M37.9342 43.0196L37.692 39.662M37.9342 43.0196L39.6635 67M36.5203 43.1674L36.1485 39.7662M36.5203 43.1674L39.1261 67M98 35.5889L43.3526 39.2797M98 35.5889V34.687M36.1485 39.7662L37.692 39.662M36.1485 39.7662L35.8554 37.0853M37.692 39.662L39.2433 39.5572M37.692 39.662L37.5016 37.0218M39.2433 39.5572L40.7047 39.4585M39.2433 39.5572L39.1526 36.9581M40.7047 39.4585L41.8787 39.3792M40.7047 39.4585V36.8982M41.8787 39.3792L43.3526 39.2797M41.8787 39.3792L41.9494 36.8501M43.3526 39.2797L43.509 36.7899M98 34.687L43.509 36.7899M98 34.687V33.4844M35.8554 37.0853L37.5016 37.0218M35.8554 37.0853L35.4616 33.4844M37.5016 37.0218L39.1526 36.9581M37.5016 37.0218L37.2465 33.4844M39.1526 36.9581L40.7047 36.8982M39.1526 36.9581L39.0314 33.4844M40.7047 36.8982L41.9494 36.8501M40.7047 36.8982V33.4844M41.9494 36.8501L43.509 36.7899M41.9494 36.8501L42.0433 33.4844M43.509 36.7899L43.7166 33.4844M98 33.4844H43.7166M98 33.4844V32.4822M35.4616 33.4844H37.2465M35.4616 33.4844L35.131 30.4603M37.2465 33.4844H39.0314M37.2465 33.4844L37.0328 30.5215M39.0314 33.4844H40.7047M39.0314 33.4844L38.9301 30.5825M40.7047 33.4844H42.0433M40.7047 33.4844V30.6395M42.0433 33.4844H43.7166M42.0433 33.4844L42.1214 30.6851M43.7166 33.4844L43.8889 30.742M98 32.4822L43.8889 30.742M98 32.4822V31.4049M35.131 30.4603L37.0328 30.5215M35.131 30.4603L34.773 27.1855M37.0328 30.5215L38.9301 30.5825M37.0328 30.5215L36.802 27.3209M38.9301 30.5825L40.7047 30.6395M38.9301 30.5825L38.821 27.4556M40.7047 30.6395L42.1214 30.6851M40.7047 30.6395V27.5813M42.1214 30.6851L43.8889 30.742M42.1214 30.6851L42.2053 27.6815M43.8889 30.742L44.0733 27.8061M98 31.4049L44.0733 27.8061M98 31.4049V30.3276M34.773 27.1855L36.802 27.3209M34.773 27.1855L34.4122 23.8857M36.802 27.3209L38.821 27.4556M36.802 27.3209L36.5701 24.1043M38.821 27.4556L40.7047 27.5813M38.821 27.4556L38.7116 24.3213M40.7047 27.5813L42.2053 27.6815M40.7047 27.5813V24.5232M42.2053 27.6815L44.0733 27.8061M42.2053 27.6815L42.289 24.6837M44.0733 27.8061L44.2568 24.883M98 30.3276V27.8125L80.4093 1H48.938M98 30.3276L44.2568 24.883M34.4122 23.8857L36.5701 24.1043M34.4122 23.8857L31.9099 1M36.5701 24.1043L38.7116 24.3213M36.5701 24.1043L34.9039 1M38.7116 24.3213L40.7047 24.5232M38.7116 24.3213L37.8978 1M40.7047 24.5232L42.289 24.6837M40.7047 24.5232V1M42.289 24.6837L44.2568 24.883M42.289 24.6837L42.9501 1M44.2568 24.883L45.757 1M48.938 1H45.757M48.938 1L41.6115 67M45.757 1H42.9501M42.9501 1H40.7047M40.7047 1H37.8978M37.8978 1H34.9039M34.9039 1H31.9099M39.1261 67H39.6635M39.6635 67H40.2009M40.2009 67H40.7047M40.7047 67H41.1077M41.1077 67H41.6115" stroke="#102D55"/>
</svg>
