<svg width="99" height="68" viewBox="0 0 99 68" fill="none" xmlns="http://www.w3.org/2000/svg">
<path d="M31.9099 1H26.6321V23.0975L31.9099 23.6322V1Z" fill="#E84B18"/>
<path d="M31.9099 1H26.6321V23.0975L31.9099 23.6322V1Z" fill="#C2B644"/>
<path d="M31.9099 1H26.6321V23.0975L31.9099 23.6322V1Z" fill="black" fill-opacity="0.2"/>
<path d="M34.4122 23.8857L36.5701 24.1043L37.5937 24.208L37.8978 1H34.9039H31.9099V23.6322L34.4122 23.8857Z" fill="#E84B18"/>
<path d="M34.4122 23.8857L36.5701 24.1043L37.5937 24.208L37.8978 1H34.9039H31.9099V23.6322L34.4122 23.8857Z" fill="#C2B644"/>
<path d="M34.4122 23.8857L36.5701 24.1043L37.5937 24.208L37.8978 1H34.9039H31.9099V23.6322L34.4122 23.8857Z" fill="black" fill-opacity="0.2"/>
<path d="M38.7116 24.3213L40.7047 24.5232L41.5699 24.6108L41.8274 1H40.7047H37.8978L37.5937 24.208L38.7116 24.3213Z" fill="#E84B18"/>
<path d="M38.7116 24.3213L40.7047 24.5232L41.5699 24.6108L41.8274 1H40.7047H37.8978L37.5937 24.208L38.7116 24.3213Z" fill="#C2B644"/>
<path d="M38.7116 24.3213L40.7047 24.5232L41.5699 24.6108L41.8274 1H40.7047H37.8978L37.5937 24.208L38.7116 24.3213Z" fill="black" fill-opacity="0.2"/>
<path d="M42.289 24.6837L44.2568 24.883L45.757 25.035V1H42.9501H41.8274L41.5699 24.6108L42.289 24.6837Z" fill="#E84B18"/>
<path d="M42.289 24.6837L44.2568 24.883L45.757 25.035V1H42.9501H41.8274L41.5699 24.6108L42.289 24.6837Z" fill="#C2B644"/>
<path d="M42.289 24.6837L44.2568 24.883L45.757 25.035V1H42.9501H41.8274L41.5699 24.6108L42.289 24.6837Z" fill="black" fill-opacity="0.2"/>
<path d="M48.938 1H45.757V25.035L51.2591 25.5924V1H48.938Z" fill="#E84B18"/>
<path d="M48.938 1H45.757V25.035L51.2591 25.5924V1H48.938Z" fill="#C2B644"/>
<path d="M48.938 1H45.757V25.035L51.2591 25.5924V1H48.938Z" fill="black" fill-opacity="0.2"/>
<path d="M55.7824 1H51.2591V25.5924L55.7824 26.0506V1Z" fill="#E84B18"/>
<path d="M55.7824 1H51.2591V25.5924L55.7824 26.0506V1Z" fill="#C2B644"/>
<path d="M55.7824 1H51.2591V25.5924L55.7824 26.0506V1Z" fill="black" fill-opacity="0.2"/>
<path d="M98 27.8125L80.4093 1H55.7824V26.0506L98 30.3276V27.8125Z" fill="#E84B18"/>
<path d="M98 27.8125L80.4093 1H55.7824V26.0506L98 30.3276V27.8125Z" fill="#C2B644"/>
<path d="M98 27.8125L80.4093 1H55.7824V26.0506L98 30.3276V27.8125Z" fill="black" fill-opacity="0.2"/>
<path d="M55.7824 28.5875L98 31.4049V30.3276L55.7824 26.0506V28.5875Z" fill="#E84B18"/>
<path d="M55.7824 28.5875L98 31.4049V30.3276L55.7824 26.0506V28.5875Z" fill="#C2B644"/>
<path d="M55.7824 28.5875L98 31.4049V30.3276L55.7824 26.0506V28.5875Z" fill="black" fill-opacity="0.2"/>
<path d="M55.7824 31.1245L98 32.4822V31.4049L55.7824 28.5875V31.1245Z" fill="#E84B18"/>
<path d="M55.7824 31.1245L98 32.4822V31.4049L55.7824 28.5875V31.1245Z" fill="#C2B644"/>
<path d="M55.7824 31.1245L98 32.4822V31.4049L55.7824 28.5875V31.1245Z" fill="black" fill-opacity="0.2"/>
<path d="M55.7824 33.4844H98V32.4822L55.7824 31.1245V33.4844Z" fill="#E84B18"/>
<path d="M55.7824 33.4844H98V32.4822L55.7824 31.1245V33.4844Z" fill="#C2B644"/>
<path d="M55.7824 33.4844H98V32.4822L55.7824 31.1245V33.4844Z" fill="black" fill-opacity="0.2"/>
<path d="M55.7824 36.3163L98 34.687V33.4844H55.7824V36.3163Z" fill="#E84B18"/>
<path d="M55.7824 36.3163L98 34.687V33.4844H55.7824V36.3163Z" fill="#C2B644"/>
<path d="M55.7824 36.3163L98 34.687V33.4844H55.7824V36.3163Z" fill="black" fill-opacity="0.2"/>
<path d="M55.7824 38.4402L98 35.5889V34.687L55.7824 36.3163V38.4402Z" fill="#E84B18"/>
<path d="M55.7824 38.4402L98 35.5889V34.687L55.7824 36.3163V38.4402Z" fill="#C2B644"/>
<path d="M55.7824 38.4402L98 35.5889V34.687L55.7824 36.3163V38.4402Z" fill="black" fill-opacity="0.2"/>
<path d="M55.7824 41.1541L98 36.7414V35.5889L55.7824 38.4402V41.1541Z" fill="#E84B18"/>
<path d="M55.7824 41.1541L98 36.7414V35.5889L55.7824 38.4402V41.1541Z" fill="#C2B644"/>
<path d="M55.7824 41.1541L98 36.7414V35.5889L55.7824 38.4402V41.1541Z" fill="black" fill-opacity="0.2"/>
<path d="M51.2591 38.7457V41.6269L55.7824 41.1541V38.4402L51.2591 38.7457Z" fill="#E84B18"/>
<path d="M51.2591 38.7457V41.6269L55.7824 41.1541V38.4402L51.2591 38.7457Z" fill="#C2B644"/>
<path d="M51.2591 38.7457V41.6269L55.7824 41.1541V38.4402L51.2591 38.7457Z" fill="black" fill-opacity="0.2"/>
<path d="M55.7824 36.3163L51.2591 36.4908V38.7457L55.7824 38.4402V36.3163Z" fill="#E84B18"/>
<path d="M55.7824 36.3163L51.2591 36.4908V38.7457L55.7824 38.4402V36.3163Z" fill="#C2B644"/>
<path d="M55.7824 36.3163L51.2591 36.4908V38.7457L55.7824 38.4402V36.3163Z" fill="black" fill-opacity="0.2"/>
<path d="M55.7824 31.1245L51.2591 30.979V33.4844H55.7824V31.1245Z" fill="#E84B18"/>
<path d="M55.7824 31.1245L51.2591 30.979V33.4844H55.7824V31.1245Z" fill="#C2B644"/>
<path d="M55.7824 31.1245L51.2591 30.979V33.4844H55.7824V31.1245Z" fill="black" fill-opacity="0.2"/>
<path d="M55.7824 28.5875L51.2591 28.2857V30.979L55.7824 31.1245V28.5875Z" fill="#E84B18"/>
<path d="M55.7824 28.5875L51.2591 28.2857V30.979L55.7824 31.1245V28.5875Z" fill="#C2B644"/>
<path d="M55.7824 28.5875L51.2591 28.2857V30.979L55.7824 31.1245V28.5875Z" fill="black" fill-opacity="0.2"/>
<path d="M55.7824 26.0506L51.2591 25.5924V28.2857L55.7824 28.5875V26.0506Z" fill="#E84B18"/>
<path d="M55.7824 26.0506L51.2591 25.5924V28.2857L55.7824 28.5875V26.0506Z" fill="#C2B644"/>
<path d="M55.7824 26.0506L51.2591 25.5924V28.2857L55.7824 28.5875V26.0506Z" fill="black" fill-opacity="0.2"/>
<path d="M45.757 25.035V27.9185L51.2591 28.2857V25.5924L45.757 25.035Z" fill="#E84B18"/>
<path d="M45.757 25.035V27.9185L51.2591 28.2857V25.5924L45.757 25.035Z" fill="#C2B644"/>
<path d="M45.757 25.035V27.9185L51.2591 28.2857V25.5924L45.757 25.035Z" fill="black" fill-opacity="0.2"/>
<path d="M45.757 30.802L51.2591 30.979V28.2857L45.757 27.9185V30.802Z" fill="#E84B18"/>
<path d="M45.757 30.802L51.2591 30.979V28.2857L45.757 27.9185V30.802Z" fill="#C2B644"/>
<path d="M45.757 30.802L51.2591 30.979V28.2857L45.757 27.9185V30.802Z" fill="black" fill-opacity="0.2"/>
<path d="M51.2591 33.4844V30.979L45.757 30.802V33.4844H51.2591Z" fill="#E84B18"/>
<path d="M51.2591 33.4844V30.979L45.757 30.802V33.4844H51.2591Z" fill="#C2B644"/>
<path d="M51.2591 33.4844V30.979L45.757 30.802V33.4844H51.2591Z" fill="black" fill-opacity="0.2"/>
<path d="M45.757 36.7032L51.2591 36.4908V33.4844H45.757V36.7032Z" fill="#E84B18"/>
<path d="M45.757 36.7032L51.2591 36.4908V33.4844H45.757V36.7032Z" fill="#C2B644"/>
<path d="M45.757 36.7032L51.2591 36.4908V33.4844H45.757V36.7032Z" fill="black" fill-opacity="0.2"/>
<path d="M45.757 39.1173L51.2591 38.7457V36.4908L45.757 36.7032V39.1173Z" fill="#E84B18"/>
<path d="M45.757 39.1173L51.2591 38.7457V36.4908L45.757 36.7032V39.1173Z" fill="#C2B644"/>
<path d="M45.757 39.1173L51.2591 38.7457V36.4908L45.757 36.7032V39.1173Z" fill="black" fill-opacity="0.2"/>
<path d="M51.2591 41.6269V38.7457L45.757 39.1173V42.202L51.2591 41.6269Z" fill="#E84B18"/>
<path d="M51.2591 41.6269V38.7457L45.757 39.1173V42.202L51.2591 41.6269Z" fill="#C2B644"/>
<path d="M51.2591 41.6269V38.7457L45.757 39.1173V42.202L51.2591 41.6269Z" fill="black" fill-opacity="0.2"/>
<path d="M80.4093 67L98 38.6406V36.7414L55.7824 41.1541V67H80.4093Z" fill="#E84B18"/>
<path d="M80.4093 67L98 38.6406V36.7414L55.7824 41.1541V67H80.4093Z" fill="#C2B644"/>
<path d="M80.4093 67L98 38.6406V36.7414L55.7824 41.1541V67H80.4093Z" fill="black" fill-opacity="0.2"/>
<path d="M51.2591 67H55.7824V41.1541L51.2591 41.6269V67Z" fill="#E84B18"/>
<path d="M51.2591 67H55.7824V41.1541L51.2591 41.6269V67Z" fill="#C2B644"/>
<path d="M51.2591 67H55.7824V41.1541L51.2591 41.6269V67Z" fill="black" fill-opacity="0.2"/>
<path d="M45.757 67H51.2591V41.6269L45.757 42.202V67Z" fill="#E84B18"/>
<path d="M45.757 67H51.2591V41.6269L45.757 42.202V67Z" fill="#C2B644"/>
<path d="M45.757 67H51.2591V41.6269L45.757 42.202V67Z" fill="black" fill-opacity="0.2"/>
<path d="M43.1519 42.4743L41.7884 42.6168L41.3731 42.6602L41.1077 67H41.6115H42.2124H45.757V42.202L43.1519 42.4743Z" fill="#E84B18"/>
<path d="M43.1519 42.4743L41.7884 42.6168L41.3731 42.6602L41.1077 67H41.6115H42.2124H45.757V42.202L43.1519 42.4743Z" fill="#C2B644"/>
<path d="M43.1519 42.4743L41.7884 42.6168L41.3731 42.6602L41.1077 67H41.6115H42.2124H45.757V42.202L43.1519 42.4743Z" fill="black" fill-opacity="0.2"/>
<path d="M40.7047 42.7301L39.3589 42.8707L37.9342 43.0197L37.3463 43.0811L37.0328 67H39.1261H39.6635H40.2009H41.1077L41.3731 42.6602L40.7047 42.7301Z" fill="#E84B18"/>
<path d="M40.7047 42.7301L39.3589 42.8707L37.9342 43.0197L37.3463 43.0811L37.0328 67H39.1261H39.6635H40.2009H41.1077L41.3731 42.6602L40.7047 42.7301Z" fill="#C2B644"/>
<path d="M40.7047 42.7301L39.3589 42.8707L37.9342 43.0197L37.3463 43.0811L37.0328 67H39.1261H39.6635H40.2009H41.1077L41.3731 42.6602L40.7047 42.7301Z" fill="black" fill-opacity="0.2"/>
<path d="M36.5203 43.1674L31.9099 43.6493V67H33.6684H37.0328L37.3463 43.0811L36.5203 43.1674Z" fill="#E84B18"/>
<path d="M36.5203 43.1674L31.9099 43.6493V67H33.6684H37.0328L37.3463 43.0811L36.5203 43.1674Z" fill="#C2B644"/>
<path d="M36.5203 43.1674L31.9099 43.6493V67H33.6684H37.0328L37.3463 43.0811L36.5203 43.1674Z" fill="black" fill-opacity="0.2"/>
<path d="M26.6321 67H31.9099V43.6493L26.6321 44.201V67Z" fill="#E84B18"/>
<path d="M26.6321 67H31.9099V43.6493L26.6321 44.201V67Z" fill="#C2B644"/>
<path d="M26.6321 67H31.9099V43.6493L26.6321 44.201V67Z" fill="black" fill-opacity="0.2"/>
<path d="M1 46.8801V67H26.6321V44.201L1 46.8801Z" fill="#E84B18"/>
<path d="M1 46.8801V67H26.6321V44.201L1 46.8801Z" fill="#C2B644"/>
<path d="M1 46.8801V67H26.6321V44.201L1 46.8801Z" fill="black" fill-opacity="0.2"/>
<path d="M1 42.1401V46.8801L26.6321 44.201V40.4089L1 42.1401Z" fill="#E84B18"/>
<path d="M1 42.1401V46.8801L26.6321 44.201V40.4089L1 42.1401Z" fill="#C2B644"/>
<path d="M1 42.1401V46.8801L26.6321 44.201V40.4089L1 42.1401Z" fill="black" fill-opacity="0.2"/>
<path d="M1 38.4305V42.1401L26.6321 40.4089V37.4413L1 38.4305Z" fill="#E84B18"/>
<path d="M1 38.4305V42.1401L26.6321 40.4089V37.4413L1 38.4305Z" fill="#C2B644"/>
<path d="M1 38.4305V42.1401L26.6321 40.4089V37.4413L1 38.4305Z" fill="black" fill-opacity="0.2"/>
<path d="M1 33.4844V38.4305L26.6321 37.4413V33.4844H1Z" fill="#E84B18"/>
<path d="M1 33.4844V38.4305L26.6321 37.4413V33.4844H1Z" fill="#C2B644"/>
<path d="M1 33.4844V38.4305L26.6321 37.4413V33.4844H1Z" fill="black" fill-opacity="0.2"/>
<path d="M1 29.3626V33.4844H26.6321V30.187L1 29.3626Z" fill="#E84B18"/>
<path d="M1 29.3626V33.4844H26.6321V30.187L1 29.3626Z" fill="#C2B644"/>
<path d="M1 29.3626V33.4844H26.6321V30.187L1 29.3626Z" fill="black" fill-opacity="0.2"/>
<path d="M1 24.9317V29.3626L26.6321 30.187V26.6422L1 24.9317Z" fill="#E84B18"/>
<path d="M1 24.9317V29.3626L26.6321 30.187V26.6422L1 24.9317Z" fill="#C2B644"/>
<path d="M1 24.9317V29.3626L26.6321 30.187V26.6422L1 24.9317Z" fill="black" fill-opacity="0.2"/>
<path d="M1 20.5008V24.9317L26.6321 26.6422V23.0975L1 20.5008Z" fill="#E84B18"/>
<path d="M1 20.5008V24.9317L26.6321 26.6422V23.0975L1 20.5008Z" fill="#C2B644"/>
<path d="M1 20.5008V24.9317L26.6321 26.6422V23.0975L1 20.5008Z" fill="black" fill-opacity="0.2"/>
<path d="M1 1V20.5008L26.6321 23.0975V1H1Z" fill="#E84B18"/>
<path d="M1 1V20.5008L26.6321 23.0975V1H1Z" fill="#C2B644"/>
<path d="M1 1V20.5008L26.6321 23.0975V1H1Z" fill="black" fill-opacity="0.2"/>
<path d="M31.9099 23.6322L26.6321 23.0975V26.6422L31.9099 26.9944V23.6322Z" fill="#E84B18"/>
<path d="M31.9099 23.6322L26.6321 23.0975V26.6422L31.9099 26.9944V23.6322Z" fill="#C2B644"/>
<path d="M31.9099 23.6322L26.6321 23.0975V26.6422L31.9099 26.9944V23.6322Z" fill="black" fill-opacity="0.2"/>
<path d="M26.6321 30.187L31.9099 30.3567V26.9944L26.6321 26.6422V30.187Z" fill="#E84B18"/>
<path d="M26.6321 30.187L31.9099 30.3567V26.9944L26.6321 26.6422V30.187Z" fill="#C2B644"/>
<path d="M26.6321 30.187L31.9099 30.3567V26.9944L26.6321 26.6422V30.187Z" fill="black" fill-opacity="0.2"/>
<path d="M26.6321 33.4844H31.9099V30.3567L26.6321 30.187V33.4844Z" fill="#E84B18"/>
<path d="M26.6321 33.4844H31.9099V30.3567L26.6321 30.187V33.4844Z" fill="#C2B644"/>
<path d="M26.6321 33.4844H31.9099V30.3567L26.6321 30.187V33.4844Z" fill="black" fill-opacity="0.2"/>
<path d="M26.6321 37.4413L31.9099 37.2376V33.4844H26.6321V37.4413Z" fill="#E84B18"/>
<path d="M26.6321 37.4413L31.9099 37.2376V33.4844H26.6321V37.4413Z" fill="#C2B644"/>
<path d="M26.6321 37.4413L31.9099 37.2376V33.4844H26.6321V37.4413Z" fill="black" fill-opacity="0.2"/>
<path d="M26.6321 40.4089L31.9099 40.0525V37.2376L26.6321 37.4413V40.4089Z" fill="#E84B18"/>
<path d="M26.6321 40.4089L31.9099 40.0525V37.2376L26.6321 37.4413V40.4089Z" fill="#C2B644"/>
<path d="M26.6321 40.4089L31.9099 40.0525V37.2376L26.6321 37.4413V40.4089Z" fill="black" fill-opacity="0.2"/>
<path d="M26.6321 44.201L31.9099 43.6493V40.0525L26.6321 40.4089V44.201Z" fill="#E84B18"/>
<path d="M26.6321 44.201L31.9099 43.6493V40.0525L26.6321 40.4089V44.201Z" fill="#C2B644"/>
<path d="M26.6321 44.201L31.9099 43.6493V40.0525L26.6321 40.4089V44.201Z" fill="black" fill-opacity="0.2"/>
<path d="M37.3909 39.6823L36.1485 39.7662L31.9099 40.0525V43.6493L36.5203 43.1674L37.3463 43.0811L37.3909 39.6823Z" fill="#E84B18"/>
<path d="M37.3909 39.6823L36.1485 39.7662L31.9099 40.0525V43.6493L36.5203 43.1674L37.3463 43.0811L37.3909 39.6823Z" fill="#C2B644"/>
<path d="M37.3909 39.6823L36.1485 39.7662L31.9099 40.0525V43.6493L36.5203 43.1674L37.3463 43.0811L37.3909 39.6823Z" fill="black" fill-opacity="0.2"/>
<path d="M37.4257 37.0247L35.8554 37.0853L31.9099 37.2376V40.0525L36.1485 39.7662L37.3909 39.6823L37.4257 37.0247Z" fill="#E84B18"/>
<path d="M37.4257 37.0247L35.8554 37.0853L31.9099 37.2376V40.0525L36.1485 39.7662L37.3909 39.6823L37.4257 37.0247Z" fill="#C2B644"/>
<path d="M37.4257 37.0247L35.8554 37.0853L31.9099 37.2376V40.0525L36.1485 39.7662L37.3909 39.6823L37.4257 37.0247Z" fill="black" fill-opacity="0.2"/>
<path d="M37.2465 33.4844H35.4616H31.9099V37.2376L35.8554 37.0853L37.4257 37.0247L37.4721 33.4844H37.2465Z" fill="#E84B18"/>
<path d="M37.2465 33.4844H35.4616H31.9099V37.2376L35.8554 37.0853L37.4257 37.0247L37.4721 33.4844H37.2465Z" fill="#C2B644"/>
<path d="M37.2465 33.4844H35.4616H31.9099V37.2376L35.8554 37.0853L37.4257 37.0247L37.4721 33.4844H37.2465Z" fill="black" fill-opacity="0.2"/>
<path d="M35.4616 33.4844H37.2465H37.4721L37.5107 30.5368L37.0328 30.5215L35.131 30.4603L31.9099 30.3567V33.4844H35.4616Z" fill="#E84B18"/>
<path d="M35.4616 33.4844H37.2465H37.4721L37.5107 30.5368L37.0328 30.5215L35.131 30.4603L31.9099 30.3567V33.4844H35.4616Z" fill="#C2B644"/>
<path d="M35.4616 33.4844H37.2465H37.4721L37.5107 30.5368L37.0328 30.5215L35.131 30.4603L31.9099 30.3567V33.4844H35.4616Z" fill="black" fill-opacity="0.2"/>
<path d="M35.131 30.4603L37.0328 30.5215L37.5107 30.5368L37.5522 27.371L36.802 27.3209L34.773 27.1855L31.9099 26.9944V30.3567L35.131 30.4603Z" fill="#E84B18"/>
<path d="M35.131 30.4603L37.0328 30.5215L37.5107 30.5368L37.5522 27.371L36.802 27.3209L34.773 27.1855L31.9099 26.9944V30.3567L35.131 30.4603Z" fill="#C2B644"/>
<path d="M35.131 30.4603L37.0328 30.5215L37.5107 30.5368L37.5522 27.371L36.802 27.3209L34.773 27.1855L31.9099 26.9944V30.3567L35.131 30.4603Z" fill="black" fill-opacity="0.2"/>
<path d="M34.773 27.1855L36.802 27.3209L37.5522 27.371L37.5937 24.208L36.5701 24.1043L34.4122 23.8857L31.9099 23.6322V26.9944L34.773 27.1855Z" fill="#E84B18"/>
<path d="M34.773 27.1855L36.802 27.3209L37.5522 27.371L37.5937 24.208L36.5701 24.1043L34.4122 23.8857L31.9099 23.6322V26.9944L34.773 27.1855Z" fill="#C2B644"/>
<path d="M34.773 27.1855L36.802 27.3209L37.5522 27.371L37.5937 24.208L36.5701 24.1043L34.4122 23.8857L31.9099 23.6322V26.9944L34.773 27.1855Z" fill="black" fill-opacity="0.2"/>
<path d="M38.821 27.4556L40.7047 27.5813L41.5369 27.6369L41.5699 24.6108L40.7047 24.5232L38.7116 24.3213L37.5937 24.208L37.5522 27.371L38.821 27.4556Z" fill="#E84B18"/>
<path d="M38.821 27.4556L40.7047 27.5813L41.5369 27.6369L41.5699 24.6108L40.7047 24.5232L38.7116 24.3213L37.5937 24.208L37.5522 27.371L38.821 27.4556Z" fill="#C2B644"/>
<path d="M38.821 27.4556L40.7047 27.5813L41.5369 27.6369L41.5699 24.6108L40.7047 24.5232L38.7116 24.3213L37.5937 24.208L37.5522 27.371L38.821 27.4556Z" fill="black" fill-opacity="0.2"/>
<path d="M38.9301 30.5825L40.7047 30.6396L41.5039 30.6652L41.5369 27.6369L40.7047 27.5813L38.821 27.4556L37.5522 27.371L37.5107 30.5368L38.9301 30.5825Z" fill="#E84B18"/>
<path d="M38.9301 30.5825L40.7047 30.6396L41.5039 30.6652L41.5369 27.6369L40.7047 27.5813L38.821 27.4556L37.5522 27.371L37.5107 30.5368L38.9301 30.5825Z" fill="#C2B644"/>
<path d="M38.9301 30.5825L40.7047 30.6396L41.5039 30.6652L41.5369 27.6369L40.7047 27.5813L38.821 27.4556L37.5522 27.371L37.5107 30.5368L38.9301 30.5825Z" fill="black" fill-opacity="0.2"/>
<path d="M39.0314 33.4844H40.7047H41.4732L41.5039 30.6652L40.7047 30.6396L38.9301 30.5825L37.5107 30.5368L37.4721 33.4844H39.0314Z" fill="#E84B18"/>
<path d="M39.0314 33.4844H40.7047H41.4732L41.5039 30.6652L40.7047 30.6396L38.9301 30.5825L37.5107 30.5368L37.4721 33.4844H39.0314Z" fill="#C2B644"/>
<path d="M39.0314 33.4844H40.7047H41.4732L41.5039 30.6652L40.7047 30.6396L38.9301 30.5825L37.5107 30.5368L37.4721 33.4844H39.0314Z" fill="black" fill-opacity="0.2"/>
<path d="M37.5016 37.0218L39.1526 36.958L40.7047 36.8982L41.4362 36.8699L41.4732 33.4844H40.7047H39.0314H37.4721L37.4257 37.0247L37.5016 37.0218Z" fill="#E84B18"/>
<path d="M37.5016 37.0218L39.1526 36.958L40.7047 36.8982L41.4362 36.8699L41.4732 33.4844H40.7047H39.0314H37.4721L37.4257 37.0247L37.5016 37.0218Z" fill="#C2B644"/>
<path d="M37.5016 37.0218L39.1526 36.958L40.7047 36.8982L41.4362 36.8699L41.4732 33.4844H40.7047H39.0314H37.4721L37.4257 37.0247L37.5016 37.0218Z" fill="black" fill-opacity="0.2"/>
<path d="M37.692 39.662L39.2433 39.5572L40.7047 39.4585L41.4085 39.411L41.4362 36.8699L40.7047 36.8982L39.1526 36.958L37.5016 37.0218L37.4257 37.0247L37.3909 39.6823L37.692 39.662Z" fill="#E84B18"/>
<path d="M37.692 39.662L39.2433 39.5572L40.7047 39.4585L41.4085 39.411L41.4362 36.8699L40.7047 36.8982L39.1526 36.958L37.5016 37.0218L37.4257 37.0247L37.3909 39.6823L37.692 39.662Z" fill="#C2B644"/>
<path d="M37.692 39.662L39.2433 39.5572L40.7047 39.4585L41.4085 39.411L41.4362 36.8699L40.7047 36.8982L39.1526 36.958L37.5016 37.0218L37.4257 37.0247L37.3909 39.6823L37.692 39.662Z" fill="black" fill-opacity="0.2"/>
<path d="M39.3589 42.8707L40.7047 42.7301L41.3731 42.6602L41.4085 39.411L40.7047 39.4585L39.2433 39.5572L37.692 39.662L37.3909 39.6823L37.3463 43.0811L37.9342 43.0197L39.3589 42.8707Z" fill="#E84B18"/>
<path d="M39.3589 42.8707L40.7047 42.7301L41.3731 42.6602L41.4085 39.411L40.7047 39.4585L39.2433 39.5572L37.692 39.662L37.3909 39.6823L37.3463 43.0811L37.9342 43.0197L39.3589 42.8707Z" fill="#C2B644"/>
<path d="M39.3589 42.8707L40.7047 42.7301L41.3731 42.6602L41.4085 39.411L40.7047 39.4585L39.2433 39.5572L37.692 39.662L37.3909 39.6823L37.3463 43.0811L37.9342 43.0197L39.3589 42.8707Z" fill="black" fill-opacity="0.2"/>
<path d="M41.7884 42.6168L43.1519 42.4743L45.757 42.202V39.1173L43.3526 39.2797L41.8787 39.3792L41.4085 39.411L41.3731 42.6602L41.7884 42.6168Z" fill="#E84B18"/>
<path d="M41.7884 42.6168L43.1519 42.4743L45.757 42.202V39.1173L43.3526 39.2797L41.8787 39.3792L41.4085 39.411L41.3731 42.6602L41.7884 42.6168Z" fill="#C2B644"/>
<path d="M41.7884 42.6168L43.1519 42.4743L45.757 42.202V39.1173L43.3526 39.2797L41.8787 39.3792L41.4085 39.411L41.3731 42.6602L41.7884 42.6168Z" fill="black" fill-opacity="0.2"/>
<path d="M41.8787 39.3792L43.3526 39.2797L45.757 39.1173V36.7032L43.509 36.7899L41.9494 36.8501L41.4362 36.8699L41.4085 39.411L41.8787 39.3792Z" fill="#E84B18"/>
<path d="M41.8787 39.3792L43.3526 39.2797L45.757 39.1173V36.7032L43.509 36.7899L41.9494 36.8501L41.4362 36.8699L41.4085 39.411L41.8787 39.3792Z" fill="#C2B644"/>
<path d="M41.8787 39.3792L43.3526 39.2797L45.757 39.1173V36.7032L43.509 36.7899L41.9494 36.8501L41.4362 36.8699L41.4085 39.411L41.8787 39.3792Z" fill="black" fill-opacity="0.2"/>
<path d="M41.9494 36.8501L43.509 36.7899L45.757 36.7032V33.4844H43.7166H42.0433H41.4732L41.4362 36.8699L41.9494 36.8501Z" fill="#E84B18"/>
<path d="M41.9494 36.8501L43.509 36.7899L45.757 36.7032V33.4844H43.7166H42.0433H41.4732L41.4362 36.8699L41.9494 36.8501Z" fill="#C2B644"/>
<path d="M41.9494 36.8501L43.509 36.7899L45.757 36.7032V33.4844H43.7166H42.0433H41.4732L41.4362 36.8699L41.9494 36.8501Z" fill="black" fill-opacity="0.2"/>
<path d="M42.0433 33.4844H43.7166H45.757V30.802L43.8889 30.742L42.1214 30.6851L41.5039 30.6652L41.4732 33.4844H42.0433Z" fill="#E84B18"/>
<path d="M42.0433 33.4844H43.7166H45.757V30.802L43.8889 30.742L42.1214 30.6851L41.5039 30.6652L41.4732 33.4844H42.0433Z" fill="#C2B644"/>
<path d="M42.0433 33.4844H43.7166H45.757V30.802L43.8889 30.742L42.1214 30.6851L41.5039 30.6652L41.4732 33.4844H42.0433Z" fill="black" fill-opacity="0.2"/>
<path d="M42.1214 30.6851L43.8889 30.742L45.757 30.802V27.9185L44.0733 27.8061L42.2053 27.6815L41.5369 27.6369L41.5039 30.6652L42.1214 30.6851Z" fill="#E84B18"/>
<path d="M42.1214 30.6851L43.8889 30.742L45.757 30.802V27.9185L44.0733 27.8061L42.2053 27.6815L41.5369 27.6369L41.5039 30.6652L42.1214 30.6851Z" fill="#C2B644"/>
<path d="M42.1214 30.6851L43.8889 30.742L45.757 30.802V27.9185L44.0733 27.8061L42.2053 27.6815L41.5369 27.6369L41.5039 30.6652L42.1214 30.6851Z" fill="black" fill-opacity="0.2"/>
<path d="M42.2053 27.6815L44.0733 27.8061L45.757 27.9185V25.035L44.2568 24.883L42.289 24.6837L41.5699 24.6108L41.5369 27.6369L42.2053 27.6815Z" fill="#E85118"/>
<path d="M42.2053 27.6815L44.0733 27.8061L45.757 27.9185V25.035L44.2568 24.883L42.289 24.6837L41.5699 24.6108L41.5369 27.6369L42.2053 27.6815Z" fill="#C2B644"/>
<path d="M42.2053 27.6815L44.0733 27.8061L45.757 27.9185V25.035L44.2568 24.883L42.289 24.6837L41.5699 24.6108L41.5369 27.6369L42.2053 27.6815Z" fill="black" fill-opacity="0.2"/>
<path d="M55.7824 36.3163V33.4844H51.2591V36.4908L55.7824 36.3163Z" fill="#E84B18"/>
<path d="M55.7824 36.3163V33.4844H51.2591V36.4908L55.7824 36.3163Z" fill="#C2B644"/>
<path d="M55.7824 36.3163V33.4844H51.2591V36.4908L55.7824 36.3163Z" fill="black" fill-opacity="0.2"/>
<path d="M1 20.5008V1H26.6321M1 20.5008V24.9317M1 20.5008L26.6321 23.0975M1 24.9317V29.3626M1 24.9317L26.6321 26.6422M1 29.3626V33.4844M1 29.3626L26.6321 30.187M1 33.4844V38.4305M1 33.4844H26.6321M1 38.4305V42.1401M1 38.4305L26.6321 37.4413M1 42.1401V46.8801M1 42.1401L26.6321 40.4089M1 46.8801V67H26.6321M1 46.8801L26.6321 44.201M98 36.7414V38.6406L80.4093 67H55.7824M98 36.7414V35.5889M98 36.7414L55.7824 41.1541M98 35.5889V34.687M98 35.5889L55.7824 38.4402M98 34.687V33.4844M98 34.687L55.7824 36.3163M98 33.4844V32.4822M98 33.4844H55.7824M98 32.4822V31.4049M98 32.4822L55.7824 31.1245M98 31.4049V30.3276M98 31.4049L55.7824 28.5875M98 30.3276V27.8125L80.4093 1H55.7824M98 30.3276L55.7824 26.0506M45.7569 1H48.938H51.2591M45.7569 1H42.9501H41.8274M45.7569 1V25.035M37.8978 1H40.7047H41.8274M37.8978 1H34.9039H31.9099M37.8978 1L37.5937 24.208M31.9099 1H26.6321M31.9099 1V23.6322M41.1077 67H40.2009H39.6635H39.1261H37.0328M41.1077 67H41.6115H42.2124H45.7569M41.1077 67L41.3731 42.6602M45.7569 67H51.2591M45.7569 67V42.202M26.6321 1V23.0975M26.6321 67H31.9099M26.6321 67V44.201M31.9099 67H33.6684H37.0328M31.9099 67V43.6493M37.0328 67L37.3463 43.0811M41.8274 1L41.5699 24.6108M51.2591 1H55.7824M51.2591 1V25.5924M51.2591 67H55.7824M51.2591 67V41.6269M55.7824 1V26.0506M55.7824 67V41.1541M26.6321 23.0975L31.9099 23.6322M26.6321 23.0975V26.6422M31.9099 23.6322L34.4122 23.8857L36.5701 24.1043L37.5937 24.208M31.9099 23.6322V26.9944M37.5937 24.208L38.7116 24.3213L40.7047 24.5232L41.5699 24.6108M37.5937 24.208L37.5522 27.371M41.5699 24.6108L42.289 24.6837L44.2568 24.883L45.7569 25.035M41.5699 24.6108L41.5369 27.6369M45.7569 25.035L51.2591 25.5924M45.7569 25.035V27.9185M51.2591 25.5924L55.7824 26.0506M51.2591 25.5924V28.2857M55.7824 26.0506V28.5875M55.7824 28.5875V31.1245M55.7824 28.5875L51.2591 28.2857M55.7824 31.1245V33.4844M55.7824 31.1245L51.2591 30.979M55.7824 33.4844V36.3163M55.7824 33.4844H51.2591M55.7824 36.3163V38.4402M55.7824 36.3163L51.2591 36.4908M55.7824 38.4402V41.1541M55.7824 38.4402L51.2591 38.7457M55.7824 41.1541L51.2591 41.6269M51.2591 38.7457V41.6269M51.2591 38.7457V36.4908M51.2591 38.7457L45.7569 39.1173M51.2591 41.6269L45.7569 42.202M51.2591 36.4908V33.4844M51.2591 36.4908L45.7569 36.7032M51.2591 30.979V33.4844M51.2591 30.979V28.2857M51.2591 30.979L45.7569 30.802M51.2591 33.4844H45.7569M51.2591 28.2857L45.7569 27.9185M45.7569 27.9185L44.0733 27.8061L42.2053 27.6815L41.5369 27.6369M45.7569 27.9185V30.802M45.7569 30.802L43.8889 30.742L42.1214 30.6851L41.5039 30.6652M45.7569 30.802V33.4844M45.7569 33.4844H43.7166H42.0433H41.4732M45.7569 33.4844V36.7032M45.7569 36.7032L43.509 36.7899L41.9494 36.8501L41.4362 36.8699M45.7569 36.7032V39.1173M45.7569 39.1173L43.3526 39.2797L41.8787 39.3792L41.4085 39.411M45.7569 39.1173V42.202M45.7569 42.202L43.1519 42.4743L41.7884 42.6168L41.3731 42.6602M41.3731 42.6602L40.7047 42.7301L39.3589 42.8707L37.9342 43.0197L37.3463 43.0811M41.3731 42.6602L41.4085 39.411M37.3463 43.0811L36.5203 43.1674L31.9099 43.6493M37.3463 43.0811L37.3909 39.6823M31.9099 43.6493L26.6321 44.201M31.9099 43.6493V40.0525M26.6321 44.201V40.4089M26.6321 40.4089V37.4413M26.6321 40.4089L31.9099 40.0525M26.6321 37.4413V33.4844M26.6321 37.4413L31.9099 37.2376M26.6321 33.4844V30.187M26.6321 33.4844H31.9099M26.6321 30.187V26.6422M26.6321 30.187L31.9099 30.3567M26.6321 26.6422L31.9099 26.9944M31.9099 26.9944L34.773 27.1855L36.802 27.3209L37.5522 27.371M31.9099 26.9944V30.3567M31.9099 30.3567L35.131 30.4603L37.0328 30.5215L37.5107 30.5368M31.9099 30.3567V33.4844M31.9099 33.4844H35.4616H37.2465H37.4721M31.9099 33.4844V37.2376M31.9099 37.2376L35.8554 37.0853L37.4257 37.0247M31.9099 37.2376V40.0525M31.9099 40.0525L36.1485 39.7662L37.3909 39.6823M37.3909 39.6823L37.692 39.662L39.2433 39.5572L40.7047 39.4585L41.4085 39.411M37.3909 39.6823L37.4257 37.0247M37.4257 37.0247L37.5016 37.0218L39.1526 36.958L40.7047 36.8982L41.4362 36.8699M37.4257 37.0247L37.4721 33.4844M37.4721 33.4844H39.0314H40.7047H41.4732M37.4721 33.4844L37.5107 30.5368M37.5107 30.5368L38.9301 30.5825L40.7047 30.6396L41.5039 30.6652M37.5107 30.5368L37.5522 27.371M37.5522 27.371L38.821 27.4556L40.7047 27.5813L41.5369 27.6369M41.5369 27.6369L41.5039 30.6652M41.5039 30.6652L41.4732 33.4844M41.4732 33.4844L41.4362 36.8699M41.4362 36.8699L41.4085 39.411" stroke="black"/>
<path d="M1 20.5008V1H26.6321M1 20.5008V24.9317M1 20.5008L26.6321 23.0975M1 24.9317V29.3626M1 24.9317L26.6321 26.6422M1 29.3626V33.4844M1 29.3626L26.6321 30.187M1 33.4844V38.4305M1 33.4844H26.6321M1 38.4305V42.1401M1 38.4305L26.6321 37.4413M1 42.1401V46.8801M1 42.1401L26.6321 40.4089M1 46.8801V67H26.6321M1 46.8801L26.6321 44.201M98 36.7414V38.6406L80.4093 67H55.7824M98 36.7414V35.5889M98 36.7414L55.7824 41.1541M98 35.5889V34.687M98 35.5889L55.7824 38.4402M98 34.687V33.4844M98 34.687L55.7824 36.3163M98 33.4844V32.4822M98 33.4844H55.7824M98 32.4822V31.4049M98 32.4822L55.7824 31.1245M98 31.4049V30.3276M98 31.4049L55.7824 28.5875M98 30.3276V27.8125L80.4093 1H55.7824M98 30.3276L55.7824 26.0506M45.7569 1H48.938H51.2591M45.7569 1H42.9501H41.8274M45.7569 1V25.035M37.8978 1H40.7047H41.8274M37.8978 1H34.9039H31.9099M37.8978 1L37.5937 24.208M31.9099 1H26.6321M31.9099 1V23.6322M41.1077 67H40.2009H39.6635H39.1261H37.0328M41.1077 67H41.6115H42.2124H45.7569M41.1077 67L41.3731 42.6602M45.7569 67H51.2591M45.7569 67V42.202M26.6321 1V23.0975M26.6321 67H31.9099M26.6321 67V44.201M31.9099 67H33.6684H37.0328M31.9099 67V43.6493M37.0328 67L37.3463 43.0811M41.8274 1L41.5699 24.6108M51.2591 1H55.7824M51.2591 1V25.5924M51.2591 67H55.7824M51.2591 67V41.6269M55.7824 1V26.0506M55.7824 67V41.1541M26.6321 23.0975L31.9099 23.6322M26.6321 23.0975V26.6422M31.9099 23.6322L34.4122 23.8857L36.5701 24.1043L37.5937 24.208M31.9099 23.6322V26.9944M37.5937 24.208L38.7116 24.3213L40.7047 24.5232L41.5699 24.6108M37.5937 24.208L37.5522 27.371M41.5699 24.6108L42.289 24.6837L44.2568 24.883L45.7569 25.035M41.5699 24.6108L41.5369 27.6369M45.7569 25.035L51.2591 25.5924M45.7569 25.035V27.9185M51.2591 25.5924L55.7824 26.0506M51.2591 25.5924V28.2857M55.7824 26.0506V28.5875M55.7824 28.5875V31.1245M55.7824 28.5875L51.2591 28.2857M55.7824 31.1245V33.4844M55.7824 31.1245L51.2591 30.979M55.7824 33.4844V36.3163M55.7824 33.4844H51.2591M55.7824 36.3163V38.4402M55.7824 36.3163L51.2591 36.4908M55.7824 38.4402V41.1541M55.7824 38.4402L51.2591 38.7457M55.7824 41.1541L51.2591 41.6269M51.2591 38.7457V41.6269M51.2591 38.7457V36.4908M51.2591 38.7457L45.7569 39.1173M51.2591 41.6269L45.7569 42.202M51.2591 36.4908V33.4844M51.2591 36.4908L45.7569 36.7032M51.2591 30.979V33.4844M51.2591 30.979V28.2857M51.2591 30.979L45.7569 30.802M51.2591 33.4844H45.7569M51.2591 28.2857L45.7569 27.9185M45.7569 27.9185L44.0733 27.8061L42.2053 27.6815L41.5369 27.6369M45.7569 27.9185V30.802M45.7569 30.802L43.8889 30.742L42.1214 30.6851L41.5039 30.6652M45.7569 30.802V33.4844M45.7569 33.4844H43.7166H42.0433H41.4732M45.7569 33.4844V36.7032M45.7569 36.7032L43.509 36.7899L41.9494 36.8501L41.4362 36.8699M45.7569 36.7032V39.1173M45.7569 39.1173L43.3526 39.2797L41.8787 39.3792L41.4085 39.411M45.7569 39.1173V42.202M45.7569 42.202L43.1519 42.4743L41.7884 42.6168L41.3731 42.6602M41.3731 42.6602L40.7047 42.7301L39.3589 42.8707L37.9342 43.0197L37.3463 43.0811M41.3731 42.6602L41.4085 39.411M37.3463 43.0811L36.5203 43.1674L31.9099 43.6493M37.3463 43.0811L37.3909 39.6823M31.9099 43.6493L26.6321 44.201M31.9099 43.6493V40.0525M26.6321 44.201V40.4089M26.6321 40.4089V37.4413M26.6321 40.4089L31.9099 40.0525M26.6321 37.4413V33.4844M26.6321 37.4413L31.9099 37.2376M26.6321 33.4844V30.187M26.6321 33.4844H31.9099M26.6321 30.187V26.6422M26.6321 30.187L31.9099 30.3567M26.6321 26.6422L31.9099 26.9944M31.9099 26.9944L34.773 27.1855L36.802 27.3209L37.5522 27.371M31.9099 26.9944V30.3567M31.9099 30.3567L35.131 30.4603L37.0328 30.5215L37.5107 30.5368M31.9099 30.3567V33.4844M31.9099 33.4844H35.4616H37.2465H37.4721M31.9099 33.4844V37.2376M31.9099 37.2376L35.8554 37.0853L37.4257 37.0247M31.9099 37.2376V40.0525M31.9099 40.0525L36.1485 39.7662L37.3909 39.6823M37.3909 39.6823L37.692 39.662L39.2433 39.5572L40.7047 39.4585L41.4085 39.411M37.3909 39.6823L37.4257 37.0247M37.4257 37.0247L37.5016 37.0218L39.1526 36.958L40.7047 36.8982L41.4362 36.8699M37.4257 37.0247L37.4721 33.4844M37.4721 33.4844H39.0314H40.7047H41.4732M37.4721 33.4844L37.5107 30.5368M37.5107 30.5368L38.9301 30.5825L40.7047 30.6396L41.5039 30.6652M37.5107 30.5368L37.5522 27.371M37.5522 27.371L38.821 27.4556L40.7047 27.5813L41.5369 27.6369M41.5369 27.6369L41.5039 30.6652M41.5039 30.6652L41.4732 33.4844M41.4732 33.4844L41.4362 36.8699M41.4362 36.8699L41.4085 39.411" stroke="#102D55"/>
</svg>
