<svg width="107" height="76" viewBox="0 0 107 76" fill="none" xmlns="http://www.w3.org/2000/svg">
<g filter="url(#filter0_d_28_2)">
<path d="M84.4093 67L102 38.6406V36.7414L48.7285 42.3095L46.2124 67H49.7569H55.2591H59.7824H84.4093Z" fill="#D9D9D9"/>
<path d="M84.4093 67L102 38.6406V36.7414L48.7285 42.3095L46.2124 67H49.7569H55.2591H59.7824H84.4093Z" fill="#C7BB49"/>
<path d="M102 31.4049V30.3276L50.4813 25.1084L50.192 27.9475L102 31.4049Z" fill="#D9D9D9"/>
<path d="M102 31.4049V30.3276L50.4813 25.1084L50.192 27.9475L102 31.4049Z" fill="#C7BB49"/>
<path d="M102 32.4822V31.4049L50.192 27.9475L49.9006 30.8066L102 32.4822Z" fill="#D9D9D9"/>
<path d="M102 32.4822V31.4049L50.192 27.9475L49.9006 30.8066L102 32.4822Z" fill="#C7BB49"/>
<path d="M102 33.4844V32.4822L49.9006 30.8066L49.6278 33.4844H102Z" fill="#D9D9D9"/>
<path d="M102 33.4844V32.4822L49.9006 30.8066L49.6278 33.4844H102Z" fill="#C7BB49"/>
<path d="M102 34.687V33.4844H49.6278L49.298 36.7209L102 34.687Z" fill="#D9D9D9"/>
<path d="M102 34.687V33.4844H49.6278L49.298 36.7209L102 34.687Z" fill="#C7BB49"/>
<path d="M102 35.5889V34.687L49.298 36.7209L49.0489 39.1651L102 35.5889Z" fill="#D9D9D9"/>
<path d="M102 35.5889V34.687L49.298 36.7209L49.0489 39.1651L102 35.5889Z" fill="#C7BB49"/>
<path d="M102 36.7414V35.5889L49.0489 39.1651L48.7285 42.3095L102 36.7414Z" fill="#D9D9D9"/>
<path d="M102 36.7414V35.5889L49.0489 39.1651L48.7285 42.3095L102 36.7414Z" fill="#C7BB49"/>
<path d="M102 27.8125L84.4093 1H59.7824H55.2591H52.938L50.4813 25.1084L102 30.3276V27.8125Z" fill="#D9D9D9"/>
<path d="M102 27.8125L84.4093 1H59.7824H55.2591H52.938L50.4813 25.1084L102 30.3276V27.8125Z" fill="#C7BB49"/>
<path d="M52.938 1H49.7569L48.4731 24.9049L50.4813 25.1084L52.938 1Z" fill="#D9D9D9"/>
<path d="M52.938 1H49.7569L48.4731 24.9049L50.4813 25.1084L52.938 1Z" fill="#C7BB49"/>
<path d="M49.7569 1H46.9501L46.4694 24.702L48.4731 24.9049L49.7569 1Z" fill="#D9D9D9"/>
<path d="M49.7569 1H46.9501L46.4694 24.702L48.4731 24.9049L49.7569 1Z" fill="#C7BB49"/>
<path d="M46.9501 1H45.8274H44.7047L44.8484 24.5377L46.4694 24.702L46.9501 1Z" fill="#D9D9D9"/>
<path d="M46.9501 1H45.8274H44.7047L44.8484 24.5377L46.4694 24.702L46.9501 1Z" fill="#C7BB49"/>
<path d="M44.7047 1H41.8978L42.7116 24.3213L44.8484 24.5377L44.7047 1Z" fill="#D9D9D9"/>
<path d="M44.7047 1H41.8978L42.7116 24.3213L44.8484 24.5377L44.7047 1Z" fill="#C7BB49"/>
<path d="M41.8978 1H38.9039L40.5701 24.1043L42.7116 24.3213L41.8978 1Z" fill="#D9D9D9"/>
<path d="M41.8978 1H38.9039L40.5701 24.1043L42.7116 24.3213L41.8978 1Z" fill="#C7BB49"/>
<path d="M38.9039 1H35.9099L38.4122 23.8857L40.5701 24.1043L38.9039 1Z" fill="#D9D9D9"/>
<path d="M38.9039 1H35.9099L38.4122 23.8857L40.5701 24.1043L38.9039 1Z" fill="#C7BB49"/>
<path d="M5 1V20.5008L38.4122 23.8857L35.9099 1H30.6321H5Z" fill="#D9D9D9"/>
<path d="M5 1V20.5008L38.4122 23.8857L35.9099 1H30.6321H5Z" fill="#C7BB49"/>
<path d="M5 38.4305V42.1401L40.1485 39.7662L39.8554 37.0853L5 38.4305Z" fill="#D9D9D9"/>
<path d="M5 38.4305V42.1401L40.1485 39.7662L39.8554 37.0853L5 38.4305Z" fill="#C7BB49"/>
<path d="M5 33.4844V38.4305L39.8554 37.0853L39.4617 33.4844H5Z" fill="#D9D9D9"/>
<path d="M5 33.4844V38.4305L39.8554 37.0853L39.4617 33.4844H5Z" fill="#C7BB49"/>
<path d="M5 29.3626V33.4844H39.4617L39.131 30.4603L5 29.3626Z" fill="#D9D9D9"/>
<path d="M5 29.3626V33.4844H39.4617L39.131 30.4603L5 29.3626Z" fill="#C7BB49"/>
<path d="M5 24.9317V29.3626L39.131 30.4603L38.773 27.1855L5 24.9317Z" fill="#D9D9D9"/>
<path d="M5 24.9317V29.3626L39.131 30.4603L38.773 27.1855L5 24.9317Z" fill="#C7BB49"/>
<path d="M5 20.5008V24.9317L38.773 27.1855L38.4122 23.8857L5 20.5008Z" fill="#D9D9D9"/>
<path d="M5 20.5008V24.9317L38.773 27.1855L38.4122 23.8857L5 20.5008Z" fill="#C7BB49"/>
<path d="M40.802 27.3209L40.5701 24.1043L38.4122 23.8857L38.773 27.1855L40.802 27.3209Z" fill="#D9D9D9"/>
<path d="M40.802 27.3209L40.5701 24.1043L38.4122 23.8857L38.773 27.1855L40.802 27.3209Z" fill="#C7BB49"/>
<path d="M40.802 27.3209L40.5701 24.1043L38.4122 23.8857L38.773 27.1855L40.802 27.3209Z" fill="#E84B18"/>
<path d="M42.821 27.4556L42.7116 24.3213L40.5701 24.1043L40.802 27.3209L42.821 27.4556Z" fill="#D9D9D9"/>
<path d="M42.821 27.4556L42.7116 24.3213L40.5701 24.1043L40.802 27.3209L42.821 27.4556Z" fill="#C7BB49"/>
<path d="M42.821 27.4556L42.7116 24.3213L40.5701 24.1043L40.802 27.3209L42.821 27.4556Z" fill="#E84B18"/>
<path d="M44.867 27.5922L44.8484 24.5377L42.7116 24.3213L42.821 27.4556L44.867 27.5922Z" fill="#D9D9D9"/>
<path d="M44.867 27.5922L44.8484 24.5377L42.7116 24.3213L42.821 27.4556L44.867 27.5922Z" fill="#C7BB49"/>
<path d="M44.867 27.5922L44.8484 24.5377L42.7116 24.3213L42.821 27.4556L44.867 27.5922Z" fill="#E84B18"/>
<path d="M46.4087 27.6951L46.4694 24.702L44.8484 24.5377L44.867 27.5922L46.4087 27.6951Z" fill="#D9D9D9"/>
<path d="M46.4087 27.6951L46.4694 24.702L44.8484 24.5377L44.867 27.5922L46.4087 27.6951Z" fill="#C7BB49"/>
<path d="M46.4087 27.6951L46.4694 24.702L44.8484 24.5377L44.867 27.5922L46.4087 27.6951Z" fill="#E84B18"/>
<path d="M48.3165 27.8224L48.4731 24.9049L46.4694 24.702L46.4087 27.6951L48.3165 27.8224Z" fill="#D9D9D9"/>
<path d="M48.3165 27.8224L48.4731 24.9049L46.4694 24.702L46.4087 27.6951L48.3165 27.8224Z" fill="#C7BB49"/>
<path d="M48.3165 27.8224L48.4731 24.9049L46.4694 24.702L46.4087 27.6951L48.3165 27.8224Z" fill="#E84B18"/>
<path d="M50.192 27.9475L50.4813 25.1084L48.4731 24.9049L48.3165 27.8224L50.192 27.9475Z" fill="#D9D9D9"/>
<path d="M50.192 27.9475L50.4813 25.1084L48.4731 24.9049L48.3165 27.8224L50.192 27.9475Z" fill="#C7BB49"/>
<path d="M50.192 27.9475L50.4813 25.1084L48.4731 24.9049L48.3165 27.8224L50.192 27.9475Z" fill="#E84B18"/>
<path d="M39.131 30.4603L41.0328 30.5214L40.802 27.3209L38.773 27.1855L39.131 30.4603Z" fill="#D9D9D9"/>
<path d="M39.131 30.4603L41.0328 30.5214L40.802 27.3209L38.773 27.1855L39.131 30.4603Z" fill="#C7BB49"/>
<path d="M39.131 30.4603L41.0328 30.5214L40.802 27.3209L38.773 27.1855L39.131 30.4603Z" fill="#E84B18"/>
<path d="M42.821 27.4556L40.802 27.3209L41.0328 30.5214L42.9301 30.5825L42.821 27.4556Z" fill="#D9D9D9"/>
<path d="M42.821 27.4556L40.802 27.3209L41.0328 30.5214L42.9301 30.5825L42.821 27.4556Z" fill="#C7BB49"/>
<path d="M42.821 27.4556L40.802 27.3209L41.0328 30.5214L42.9301 30.5825L42.821 27.4556Z" fill="#E84B18"/>
<path d="M44.867 27.5922L42.821 27.4556L42.9301 30.5825L44.8857 30.6453L44.867 27.5922Z" fill="#D9D9D9"/>
<path d="M44.867 27.5922L42.821 27.4556L42.9301 30.5825L44.8857 30.6453L44.867 27.5922Z" fill="#C7BB49"/>
<path d="M44.867 27.5922L42.821 27.4556L42.9301 30.5825L44.8857 30.6453L44.867 27.5922Z" fill="#E84B18"/>
<path d="M46.4087 27.6951L44.867 27.5922L44.8857 30.6453L46.3479 30.6924L46.4087 27.6951Z" fill="#D9D9D9"/>
<path d="M46.4087 27.6951L44.867 27.5922L44.8857 30.6453L46.3479 30.6924L46.4087 27.6951Z" fill="#C7BB49"/>
<path d="M46.4087 27.6951L44.867 27.5922L44.8857 30.6453L46.3479 30.6924L46.4087 27.6951Z" fill="#E84B18"/>
<path d="M48.3165 27.8224L46.4087 27.6951L46.3479 30.6924L48.1592 30.7506L48.3165 27.8224Z" fill="#D9D9D9"/>
<path d="M48.3165 27.8224L46.4087 27.6951L46.3479 30.6924L48.1592 30.7506L48.3165 27.8224Z" fill="#C7BB49"/>
<path d="M48.3165 27.8224L46.4087 27.6951L46.3479 30.6924L48.1592 30.7506L48.3165 27.8224Z" fill="#E84B18"/>
<path d="M49.9006 30.8066L50.192 27.9475L48.3165 27.8224L48.1592 30.7506L49.9006 30.8066Z" fill="#D9D9D9"/>
<path d="M49.9006 30.8066L50.192 27.9475L48.3165 27.8224L48.1592 30.7506L49.9006 30.8066Z" fill="#C7BB49"/>
<path d="M49.9006 30.8066L50.192 27.9475L48.3165 27.8224L48.1592 30.7506L49.9006 30.8066Z" fill="#E84B18"/>
<path d="M39.4617 33.4844H41.2465L41.0328 30.5214L39.131 30.4603L39.4617 33.4844Z" fill="#D9D9D9"/>
<path d="M39.4617 33.4844H41.2465L41.0328 30.5214L39.131 30.4603L39.4617 33.4844Z" fill="#C7BB49"/>
<path d="M39.4617 33.4844H41.2465L41.0328 30.5214L39.131 30.4603L39.4617 33.4844Z" fill="#E84B18"/>
<path d="M42.9301 30.5825L41.0328 30.5214L41.2465 33.4844H43.0314L42.9301 30.5825Z" fill="#D9D9D9"/>
<path d="M42.9301 30.5825L41.0328 30.5214L41.2465 33.4844H43.0314L42.9301 30.5825Z" fill="#C7BB49"/>
<path d="M42.9301 30.5825L41.0328 30.5214L41.2465 33.4844H43.0314L42.9301 30.5825Z" fill="#E84B18"/>
<path d="M44.8857 30.6453L42.9301 30.5825L43.0314 33.4844H44.903L44.8857 30.6453Z" fill="#D9D9D9"/>
<path d="M44.8857 30.6453L42.9301 30.5825L43.0314 33.4844H44.903L44.8857 30.6453Z" fill="#C7BB49"/>
<path d="M44.8857 30.6453L42.9301 30.5825L43.0314 33.4844H44.903L44.8857 30.6453Z" fill="#E84B18"/>
<path d="M46.3479 30.6924L44.8857 30.6453L44.903 33.4844H46.2913L46.3479 30.6924Z" fill="#D9D9D9"/>
<path d="M46.3479 30.6924L44.8857 30.6453L44.903 33.4844H46.2913L46.3479 30.6924Z" fill="#C7BB49"/>
<path d="M46.3479 30.6924L44.8857 30.6453L44.903 33.4844H46.2913L46.3479 30.6924Z" fill="#E84B18"/>
<path d="M48.1592 30.7506L46.3479 30.6924L46.2913 33.4844H48.0124L48.1592 30.7506Z" fill="#D9D9D9"/>
<path d="M48.1592 30.7506L46.3479 30.6924L46.2913 33.4844H48.0124L48.1592 30.7506Z" fill="#C7BB49"/>
<path d="M48.1592 30.7506L46.3479 30.6924L46.2913 33.4844H48.0124L48.1592 30.7506Z" fill="#E84B18"/>
<path d="M49.6278 33.4844L49.9006 30.8066L48.1592 30.7506L48.0124 33.4844H49.6278Z" fill="#D9D9D9"/>
<path d="M49.6278 33.4844L49.9006 30.8066L48.1592 30.7506L48.0124 33.4844H49.6278Z" fill="#C7BB49"/>
<path d="M49.6278 33.4844L49.9006 30.8066L48.1592 30.7506L48.0124 33.4844H49.6278Z" fill="#E84B18"/>
<path d="M39.8554 37.0853L41.5016 37.0218L41.2465 33.4844H39.4617L39.8554 37.0853Z" fill="#D9D9D9"/>
<path d="M39.8554 37.0853L41.5016 37.0218L41.2465 33.4844H39.4617L39.8554 37.0853Z" fill="#C7BB49"/>
<path d="M39.8554 37.0853L41.5016 37.0218L41.2465 33.4844H39.4617L39.8554 37.0853Z" fill="#E84B18"/>
<path d="M43.0314 33.4844H41.2465L41.5016 37.0218L43.1526 36.9581L43.0314 33.4844Z" fill="#D9D9D9"/>
<path d="M43.0314 33.4844H41.2465L41.5016 37.0218L43.1526 36.9581L43.0314 33.4844Z" fill="#C7BB49"/>
<path d="M43.0314 33.4844H41.2465L41.5016 37.0218L43.1526 36.9581L43.0314 33.4844Z" fill="#E84B18"/>
<path d="M44.903 33.4844H43.0314L43.1526 36.9581L44.9238 36.8897L44.903 33.4844Z" fill="#D9D9D9"/>
<path d="M44.903 33.4844H43.0314L43.1526 36.9581L44.9238 36.8897L44.903 33.4844Z" fill="#C7BB49"/>
<path d="M44.903 33.4844H43.0314L43.1526 36.9581L44.9238 36.8897L44.903 33.4844Z" fill="#E84B18"/>
<path d="M46.2913 33.4844H44.903L44.9238 36.8897L46.2232 36.8396L46.2913 33.4844Z" fill="#D9D9D9"/>
<path d="M46.2913 33.4844H44.903L44.9238 36.8897L46.2232 36.8396L46.2913 33.4844Z" fill="#C7BB49"/>
<path d="M46.2913 33.4844H44.903L44.9238 36.8897L46.2232 36.8396L46.2913 33.4844Z" fill="#E84B18"/>
<path d="M48.0124 33.4844H46.2913L46.2232 36.8396L47.8355 36.7773L48.0124 33.4844Z" fill="#D9D9D9"/>
<path d="M48.0124 33.4844H46.2913L46.2232 36.8396L47.8355 36.7773L48.0124 33.4844Z" fill="#C7BB49"/>
<path d="M48.0124 33.4844H46.2913L46.2232 36.8396L47.8355 36.7773L48.0124 33.4844Z" fill="#E84B18"/>
<path d="M49.298 36.7209L49.6278 33.4844H48.0124L47.8355 36.7773L49.298 36.7209Z" fill="#D9D9D9"/>
<path d="M49.298 36.7209L49.6278 33.4844H48.0124L47.8355 36.7773L49.298 36.7209Z" fill="#C7BB49"/>
<path d="M49.298 36.7209L49.6278 33.4844H48.0124L47.8355 36.7773L49.298 36.7209Z" fill="#E84B18"/>
<path d="M40.1485 39.7662L41.692 39.662L41.5016 37.0218L39.8554 37.0853L40.1485 39.7662Z" fill="#D9D9D9"/>
<path d="M40.1485 39.7662L41.692 39.662L41.5016 37.0218L39.8554 37.0853L40.1485 39.7662Z" fill="#C7BB49"/>
<path d="M40.1485 39.7662L41.692 39.662L41.5016 37.0218L39.8554 37.0853L40.1485 39.7662Z" fill="#E84B18"/>
<path d="M43.1526 36.9581L41.5016 37.0218L41.692 39.662L43.2433 39.5572L43.1526 36.9581Z" fill="#D9D9D9"/>
<path d="M43.1526 36.9581L41.5016 37.0218L41.692 39.662L43.2433 39.5572L43.1526 36.9581Z" fill="#C7BB49"/>
<path d="M43.1526 36.9581L41.5016 37.0218L41.692 39.662L43.2433 39.5572L43.1526 36.9581Z" fill="#E84B18"/>
<path d="M44.9238 36.8897L43.1526 36.9581L43.2433 39.5572L44.9394 39.4427L44.9238 36.8897Z" fill="#D9D9D9"/>
<path d="M44.9238 36.8897L43.1526 36.9581L43.2433 39.5572L44.9394 39.4427L44.9238 36.8897Z" fill="#C7BB49"/>
<path d="M44.9238 36.8897L43.1526 36.9581L43.2433 39.5572L44.9394 39.4427L44.9238 36.8897Z" fill="#E84B18"/>
<path d="M46.2232 36.8396L44.9238 36.8897L44.9394 39.4427L46.1721 39.3594L46.2232 36.8396Z" fill="#D9D9D9"/>
<path d="M46.2232 36.8396L44.9238 36.8897L44.9394 39.4427L46.1721 39.3594L46.2232 36.8396Z" fill="#C7BB49"/>
<path d="M46.2232 36.8396L44.9238 36.8897L44.9394 39.4427L46.1721 39.3594L46.2232 36.8396Z" fill="#E84B18"/>
<path d="M47.8355 36.7773L46.2232 36.8396L46.1721 39.3594L47.7024 39.2561L47.8355 36.7773Z" fill="#D9D9D9"/>
<path d="M47.8355 36.7773L46.2232 36.8396L46.1721 39.3594L47.7024 39.2561L47.8355 36.7773Z" fill="#C7BB49"/>
<path d="M47.8355 36.7773L46.2232 36.8396L46.1721 39.3594L47.7024 39.2561L47.8355 36.7773Z" fill="#E84B18"/>
<path d="M49.0489 39.1651L49.298 36.7209L47.8355 36.7773L47.7024 39.2561L49.0489 39.1651Z" fill="#D9D9D9"/>
<path d="M49.0489 39.1651L49.298 36.7209L47.8355 36.7773L47.7024 39.2561L49.0489 39.1651Z" fill="#C7BB49"/>
<path d="M49.0489 39.1651L49.298 36.7209L47.8355 36.7773L47.7024 39.2561L49.0489 39.1651Z" fill="#E84B18"/>
<path d="M40.5204 43.1674L41.9341 43.0197L41.692 39.662L40.1485 39.7662L40.5204 43.1674Z" fill="#D9D9D9"/>
<path d="M40.5204 43.1674L41.9341 43.0197L41.692 39.662L40.1485 39.7662L40.5204 43.1674Z" fill="#C7BB49"/>
<path d="M40.5204 43.1674L41.9341 43.0197L41.692 39.662L40.1485 39.7662L40.5204 43.1674Z" fill="#E84B18"/>
<path d="M43.2433 39.5572L41.692 39.662L41.9341 43.0197L43.3589 42.8707L43.2433 39.5572Z" fill="#D9D9D9"/>
<path d="M43.2433 39.5572L41.692 39.662L41.9341 43.0197L43.3589 42.8707L43.2433 39.5572Z" fill="#C7BB49"/>
<path d="M43.2433 39.5572L41.692 39.662L41.9341 43.0197L43.3589 42.8707L43.2433 39.5572Z" fill="#E84B18"/>
<path d="M44.9394 39.4427L43.2433 39.5572L43.3589 42.8707L44.9593 42.7035L44.9394 39.4427Z" fill="#D9D9D9"/>
<path d="M44.9394 39.4427L43.2433 39.5572L43.3589 42.8707L44.9593 42.7035L44.9394 39.4427Z" fill="#C7BB49"/>
<path d="M44.9394 39.4427L43.2433 39.5572L43.3589 42.8707L44.9593 42.7035L44.9394 39.4427Z" fill="#E84B18"/>
<path d="M46.1721 39.3594L44.9394 39.4427L44.9593 42.7035L46.1067 42.5835L46.1721 39.3594Z" fill="#D9D9D9"/>
<path d="M46.1721 39.3594L44.9394 39.4427L44.9593 42.7035L46.1067 42.5835L46.1721 39.3594Z" fill="#C7BB49"/>
<path d="M46.1721 39.3594L44.9394 39.4427L44.9593 42.7035L46.1067 42.5835L46.1721 39.3594Z" fill="#E84B18"/>
<path d="M47.7024 39.2561L46.1721 39.3594L46.1067 42.5835L47.5317 42.4346L47.7024 39.2561Z" fill="#D9D9D9"/>
<path d="M47.7024 39.2561L46.1721 39.3594L46.1067 42.5835L47.5317 42.4346L47.7024 39.2561Z" fill="#C7BB49"/>
<path d="M47.7024 39.2561L46.1721 39.3594L46.1067 42.5835L47.5317 42.4346L47.7024 39.2561Z" fill="#E84B18"/>
<path d="M48.7285 42.3095L49.0489 39.1651L47.7024 39.2561L47.5317 42.4346L48.7285 42.3095Z" fill="#D9D9D9"/>
<path d="M48.7285 42.3095L49.0489 39.1651L47.7024 39.2561L47.5317 42.4346L48.7285 42.3095Z" fill="#C7BB49"/>
<path d="M48.7285 42.3095L49.0489 39.1651L47.7024 39.2561L47.5317 42.4346L48.7285 42.3095Z" fill="#E84B18"/>
<path d="M43.1261 67H43.6635L41.9341 43.0197L40.5204 43.1674L43.1261 67Z" fill="#D9D9D9"/>
<path d="M43.1261 67H43.6635L41.9341 43.0197L40.5204 43.1674L43.1261 67Z" fill="#C7BB49"/>
<path d="M43.6635 67H44.2009L43.3589 42.8707L41.9341 43.0197L43.6635 67Z" fill="#D9D9D9"/>
<path d="M43.6635 67H44.2009L43.3589 42.8707L41.9341 43.0197L43.6635 67Z" fill="#C7BB49"/>
<path d="M44.2009 67H45.1077L44.9593 42.7035L43.3589 42.8707L44.2009 67Z" fill="#D9D9D9"/>
<path d="M44.2009 67H45.1077L44.9593 42.7035L43.3589 42.8707L44.2009 67Z" fill="#C7BB49"/>
<path d="M45.1077 67H45.6115L46.1067 42.5835L44.9593 42.7035L45.1077 67Z" fill="#D9D9D9"/>
<path d="M45.1077 67H45.6115L46.1067 42.5835L44.9593 42.7035L45.1077 67Z" fill="#C7BB49"/>
<path d="M45.6115 67H46.2124L47.5317 42.4346L46.1067 42.5835L45.6115 67Z" fill="#D9D9D9"/>
<path d="M45.6115 67H46.2124L47.5317 42.4346L46.1067 42.5835L45.6115 67Z" fill="#C7BB49"/>
<path d="M46.2124 67L48.7285 42.3095L47.5317 42.4346L46.2124 67Z" fill="#D9D9D9"/>
<path d="M46.2124 67L48.7285 42.3095L47.5317 42.4346L46.2124 67Z" fill="#C7BB49"/>
<path d="M5 46.8801V67H30.6321H35.9099H37.6684H41.0328H43.1261L40.5204 43.1674L5 46.8801Z" fill="#D9D9D9"/>
<path d="M5 46.8801V67H30.6321H35.9099H37.6684H41.0328H43.1261L40.5204 43.1674L5 46.8801Z" fill="#C7BB49"/>
<path d="M5 42.1401V46.8801L40.5204 43.1674L40.1485 39.7662L5 42.1401Z" fill="#D9D9D9"/>
<path d="M5 42.1401V46.8801L40.5204 43.1674L40.1485 39.7662L5 42.1401Z" fill="#C7BB49"/>
<path d="M5 20.5008V1H30.6321H35.9099M5 20.5008V24.9317M5 20.5008L38.4122 23.8857M5 24.9317V29.3626M5 24.9317L38.773 27.1855M5 29.3626V33.4844M5 29.3626L39.131 30.4603M5 33.4844V38.4305M5 33.4844H39.4617M5 38.4305V42.1401M5 38.4305L39.8554 37.0853M5 42.1401V46.8801M5 42.1401L40.1485 39.7662M5 46.8801V67H30.6321H35.9099H37.6684H41.0328H43.1261M5 46.8801L40.5204 43.1674M102 36.7414V38.6406L84.4093 67H59.7824H55.2591H49.7569H46.2124M102 36.7414V35.5889M102 36.7414L48.7285 42.3095M102 35.5889V34.687M102 35.5889L49.0489 39.1651M102 34.687V33.4844M102 34.687L49.298 36.7209M102 33.4844V32.4822M102 33.4844H49.6278M102 32.4822V31.4049M102 32.4822L49.9006 30.8066M102 31.4049V30.3276M102 31.4049L50.192 27.9475M102 30.3276V27.8125L84.4093 1H59.7824H55.2591H52.938M102 30.3276L50.4813 25.1084M52.938 1H49.7569M52.938 1L50.4813 25.1084M49.7569 1H46.9501M49.7569 1L48.4731 24.9049M46.9501 1H45.8274H44.7047M46.9501 1L46.4694 24.702M44.7047 1H41.8978M44.7047 1L44.8484 24.5377M41.8978 1H38.9039M41.8978 1L42.7116 24.3213M38.9039 1H35.9099M38.9039 1L40.5701 24.1043M35.9099 1L38.4122 23.8857M43.1261 67H43.6635M43.1261 67L40.5204 43.1674M43.6635 67H44.2009M43.6635 67L41.9341 43.0197M44.2009 67H45.1077M44.2009 67L43.3589 42.8707M45.1077 67H45.6115M45.1077 67L44.9593 42.7035M45.6115 67H46.2124M45.6115 67L46.1067 42.5835M46.2124 67L48.7285 42.3095M46.2124 67L47.5317 42.4346M40.5204 43.1674L40.1485 39.7662M40.5204 43.1674L41.9341 43.0197M48.7285 42.3095L49.0489 39.1651M48.7285 42.3095L47.5317 42.4346M50.4813 25.1084L50.192 27.9475M50.4813 25.1084L48.4731 24.9049M50.192 27.9475L49.9006 30.8066M50.192 27.9475L48.3165 27.8224M49.9006 30.8066L49.6278 33.4844M49.9006 30.8066L48.1592 30.7506M49.6278 33.4844L49.298 36.7209M49.6278 33.4844H48.0124M49.298 36.7209L49.0489 39.1651M49.298 36.7209L47.8355 36.7773M49.0489 39.1651L47.7024 39.2561M48.4731 24.9049L46.4694 24.702M48.4731 24.9049L48.3165 27.8224M46.4694 24.702L44.8484 24.5377M46.4694 24.702L46.4087 27.6951M44.8484 24.5377L42.7116 24.3213M44.8484 24.5377L44.867 27.5922M42.7116 24.3213L40.5701 24.1043M42.7116 24.3213L42.821 27.4556M40.5701 24.1043L38.4122 23.8857M40.5701 24.1043L40.802 27.3209M38.4122 23.8857L38.773 27.1855M40.1485 39.7662L39.8554 37.0853M40.1485 39.7662L41.692 39.662M39.8554 37.0853L39.4617 33.4844M39.8554 37.0853L41.5016 37.0218M39.4617 33.4844L39.131 30.4603M39.4617 33.4844H41.2465M39.131 30.4603L38.773 27.1855M39.131 30.4603L41.0328 30.5214M38.773 27.1855L40.802 27.3209M40.802 27.3209L42.821 27.4556M40.802 27.3209L41.0328 30.5214M42.821 27.4556L44.867 27.5922M42.821 27.4556L42.9301 30.5825M44.867 27.5922L46.4087 27.6951M44.867 27.5922L44.8857 30.6453M46.4087 27.6951L48.3165 27.8224M46.4087 27.6951L46.3479 30.6924M48.3165 27.8224L48.1592 30.7506M41.0328 30.5214L42.9301 30.5825M41.0328 30.5214L41.2465 33.4844M42.9301 30.5825L44.8857 30.6453M42.9301 30.5825L43.0314 33.4844M44.8857 30.6453L46.3479 30.6924M44.8857 30.6453L44.903 33.4844M46.3479 30.6924L48.1592 30.7506M46.3479 30.6924L46.2913 33.4844M48.1592 30.7506L48.0124 33.4844M41.2465 33.4844H43.0314M41.2465 33.4844L41.5016 37.0218M43.0314 33.4844H44.903M43.0314 33.4844L43.1526 36.9581M44.903 33.4844H46.2913M44.903 33.4844L44.9238 36.8897M46.2913 33.4844H48.0124M46.2913 33.4844L46.2232 36.8396M48.0124 33.4844L47.8355 36.7773M41.5016 37.0218L43.1526 36.9581M41.5016 37.0218L41.692 39.662M43.1526 36.9581L44.9238 36.8897M43.1526 36.9581L43.2433 39.5572M44.9238 36.8897L46.2232 36.8396M44.9238 36.8897L44.9394 39.4427M46.2232 36.8396L47.8355 36.7773M46.2232 36.8396L46.1721 39.3594M47.8355 36.7773L47.7024 39.2561M41.692 39.662L43.2433 39.5572M41.692 39.662L41.9341 43.0197M43.2433 39.5572L44.9394 39.4427M43.2433 39.5572L43.3589 42.8707M44.9394 39.4427L46.1721 39.3594M44.9394 39.4427L44.9593 42.7035M46.1721 39.3594L47.7024 39.2561M46.1721 39.3594L46.1067 42.5835M47.7024 39.2561L47.5317 42.4346M41.9341 43.0197L43.3589 42.8707M43.3589 42.8707L44.9593 42.7035M44.9593 42.7035L46.1067 42.5835M46.1067 42.5835L47.5317 42.4346" stroke="black"/>
<path d="M5 20.5008V1H30.6321H35.9099M5 20.5008V24.9317M5 20.5008L38.4122 23.8857M5 24.9317V29.3626M5 24.9317L38.773 27.1855M5 29.3626V33.4844M5 29.3626L39.131 30.4603M5 33.4844V38.4305M5 33.4844H39.4617M5 38.4305V42.1401M5 38.4305L39.8554 37.0853M5 42.1401V46.8801M5 42.1401L40.1485 39.7662M5 46.8801V67H30.6321H35.9099H37.6684H41.0328H43.1261M5 46.8801L40.5204 43.1674M102 36.7414V38.6406L84.4093 67H59.7824H55.2591H49.7569H46.2124M102 36.7414V35.5889M102 36.7414L48.7285 42.3095M102 35.5889V34.687M102 35.5889L49.0489 39.1651M102 34.687V33.4844M102 34.687L49.298 36.7209M102 33.4844V32.4822M102 33.4844H49.6278M102 32.4822V31.4049M102 32.4822L49.9006 30.8066M102 31.4049V30.3276M102 31.4049L50.192 27.9475M102 30.3276V27.8125L84.4093 1H59.7824H55.2591H52.938M102 30.3276L50.4813 25.1084M52.938 1H49.7569M52.938 1L50.4813 25.1084M49.7569 1H46.9501M49.7569 1L48.4731 24.9049M46.9501 1H45.8274H44.7047M46.9501 1L46.4694 24.702M44.7047 1H41.8978M44.7047 1L44.8484 24.5377M41.8978 1H38.9039M41.8978 1L42.7116 24.3213M38.9039 1H35.9099M38.9039 1L40.5701 24.1043M35.9099 1L38.4122 23.8857M43.1261 67H43.6635M43.1261 67L40.5204 43.1674M43.6635 67H44.2009M43.6635 67L41.9341 43.0197M44.2009 67H45.1077M44.2009 67L43.3589 42.8707M45.1077 67H45.6115M45.1077 67L44.9593 42.7035M45.6115 67H46.2124M45.6115 67L46.1067 42.5835M46.2124 67L48.7285 42.3095M46.2124 67L47.5317 42.4346M40.5204 43.1674L40.1485 39.7662M40.5204 43.1674L41.9341 43.0197M48.7285 42.3095L49.0489 39.1651M48.7285 42.3095L47.5317 42.4346M50.4813 25.1084L50.192 27.9475M50.4813 25.1084L48.4731 24.9049M50.192 27.9475L49.9006 30.8066M50.192 27.9475L48.3165 27.8224M49.9006 30.8066L49.6278 33.4844M49.9006 30.8066L48.1592 30.7506M49.6278 33.4844L49.298 36.7209M49.6278 33.4844H48.0124M49.298 36.7209L49.0489 39.1651M49.298 36.7209L47.8355 36.7773M49.0489 39.1651L47.7024 39.2561M48.4731 24.9049L46.4694 24.702M48.4731 24.9049L48.3165 27.8224M46.4694 24.702L44.8484 24.5377M46.4694 24.702L46.4087 27.6951M44.8484 24.5377L42.7116 24.3213M44.8484 24.5377L44.867 27.5922M42.7116 24.3213L40.5701 24.1043M42.7116 24.3213L42.821 27.4556M40.5701 24.1043L38.4122 23.8857M40.5701 24.1043L40.802 27.3209M38.4122 23.8857L38.773 27.1855M40.1485 39.7662L39.8554 37.0853M40.1485 39.7662L41.692 39.662M39.8554 37.0853L39.4617 33.4844M39.8554 37.0853L41.5016 37.0218M39.4617 33.4844L39.131 30.4603M39.4617 33.4844H41.2465M39.131 30.4603L38.773 27.1855M39.131 30.4603L41.0328 30.5214M38.773 27.1855L40.802 27.3209M40.802 27.3209L42.821 27.4556M40.802 27.3209L41.0328 30.5214M42.821 27.4556L44.867 27.5922M42.821 27.4556L42.9301 30.5825M44.867 27.5922L46.4087 27.6951M44.867 27.5922L44.8857 30.6453M46.4087 27.6951L48.3165 27.8224M46.4087 27.6951L46.3479 30.6924M48.3165 27.8224L48.1592 30.7506M41.0328 30.5214L42.9301 30.5825M41.0328 30.5214L41.2465 33.4844M42.9301 30.5825L44.8857 30.6453M42.9301 30.5825L43.0314 33.4844M44.8857 30.6453L46.3479 30.6924M44.8857 30.6453L44.903 33.4844M46.3479 30.6924L48.1592 30.7506M46.3479 30.6924L46.2913 33.4844M48.1592 30.7506L48.0124 33.4844M41.2465 33.4844H43.0314M41.2465 33.4844L41.5016 37.0218M43.0314 33.4844H44.903M43.0314 33.4844L43.1526 36.9581M44.903 33.4844H46.2913M44.903 33.4844L44.9238 36.8897M46.2913 33.4844H48.0124M46.2913 33.4844L46.2232 36.8396M48.0124 33.4844L47.8355 36.7773M41.5016 37.0218L43.1526 36.9581M41.5016 37.0218L41.692 39.662M43.1526 36.9581L44.9238 36.8897M43.1526 36.9581L43.2433 39.5572M44.9238 36.8897L46.2232 36.8396M44.9238 36.8897L44.9394 39.4427M46.2232 36.8396L47.8355 36.7773M46.2232 36.8396L46.1721 39.3594M47.8355 36.7773L47.7024 39.2561M41.692 39.662L43.2433 39.5572M41.692 39.662L41.9341 43.0197M43.2433 39.5572L44.9394 39.4427M43.2433 39.5572L43.3589 42.8707M44.9394 39.4427L46.1721 39.3594M44.9394 39.4427L44.9593 42.7035M46.1721 39.3594L47.7024 39.2561M46.1721 39.3594L46.1067 42.5835M47.7024 39.2561L47.5317 42.4346M41.9341 43.0197L43.3589 42.8707M43.3589 42.8707L44.9593 42.7035M44.9593 42.7035L46.1067 42.5835M46.1067 42.5835L47.5317 42.4346" stroke="#102D55"/>
</g>
<defs>
<filter id="filter0_d_28_2" x="0.5" y="0.5" width="106" height="75" filterUnits="userSpaceOnUse" color-interpolation-filters="sRGB">
<feFlood flood-opacity="0" result="BackgroundImageFix"/>
<feColorMatrix in="SourceAlpha" type="matrix" values="0 0 0 0 0 0 0 0 0 0 0 0 0 0 0 0 0 0 127 0" result="hardAlpha"/>
<feOffset dy="4"/>
<feGaussianBlur stdDeviation="2"/>
<feComposite in2="hardAlpha" operator="out"/>
<feColorMatrix type="matrix" values="0 0 0 0 0 0 0 0 0 0 0 0 0 0 0 0 0 0 0.25 0"/>
<feBlend mode="normal" in2="BackgroundImageFix" result="effect1_dropShadow_28_2"/>
<feBlend mode="normal" in="SourceGraphic" in2="effect1_dropShadow_28_2" result="shape"/>
</filter>
</defs>
</svg>
