<svg width="107" height="76" viewBox="0 0 107 76" fill="none" xmlns="http://www.w3.org/2000/svg">
<g filter="url(#filter0_d_28_4)">
<path d="M5 38.4305V42.1401V46.8801V67H30.6321H35.9099H39.3506L35.7862 40.0168L5 36.5587V38.4305Z" fill="#C2B644"/>
<path d="M5 34.687V36.5587L35.7862 40.0168L35.3977 37.0761L5 34.687Z" fill="#C2B644"/>
<path d="M5 32.4539V33.4844L35.0566 34.4936L34.7883 32.4626L5 32.4539Z" fill="#C2B644"/>
<path d="M34.6068 31.089L5 31.4235V32.4539L34.7883 32.4626L34.6068 31.089Z" fill="#C2B644"/>
<path d="M34.4113 29.6089L5 30.3906V31.4235L34.6068 31.089L34.4113 29.6089Z" fill="#C2B644"/>
<path d="M34.2035 28.036L5 30.3906L34.4113 29.6089L34.2035 28.036Z" fill="#C2B644"/>
<path d="M33.984 26.3739L5 30.3906L34.2035 28.036L33.984 26.3739Z" fill="#C2B644"/>
<path d="M5 1V20.5008V24.9317V30.3906L33.984 26.3739L30.6321 1H5Z" fill="#C2B644"/>
<path d="M35.9099 1H30.6321L33.984 26.3739L37.2094 25.927L35.9099 1Z" fill="#C2B644"/>
<path d="M41.8978 1H38.9039L39.0709 25.669L40.9558 25.4078L41.8978 1Z" fill="#C2B644"/>
<path d="M38.9039 1H35.9099L37.2094 25.927L39.0709 25.669L38.9039 1Z" fill="#C2B644"/>
<path d="M44.7047 1H41.8978L40.9558 25.4078L42.7448 25.1599L44.7047 1Z" fill="#C2B644"/>
<path d="M46.9501 1H45.8274H44.7047L42.7448 25.1599L44.1913 24.9594L46.9501 1Z" fill="#C2B644"/>
<path d="M49.7569 1H46.9501L44.1913 24.9594L46.0192 24.7061L49.7569 1Z" fill="#C2B644"/>
<path d="M52.938 1H49.7569L46.0192 24.7061L95.4663 17.8536L84.4093 1H59.7824H55.2591H52.938Z" fill="#C2B644"/>
<path d="M98.7332 22.8331L95.4663 17.8536L46.0192 24.7061L45.6395 27.1139L98.7332 22.8331Z" fill="#C2B644"/>
<path d="M102 27.8125L98.7332 22.8331L45.6395 27.1139L45.2917 29.3197L102 27.8125Z" fill="#C2B644"/>
<path d="M102 30.3276V27.8125L45.2917 29.3197L45.0314 30.9712L102 30.3276Z" fill="#C2B644"/>
<path d="M102 32.4822V31.4049V30.3276L45.0314 30.9712L44.7957 32.4656L102 32.4822Z" fill="#C2B644"/>
<path d="M102 36.7414V35.5889V34.687V33.4844V32.4822L44.7957 32.4656L44.4264 34.8082L102 36.7414Z" fill="#C2B644"/>
<path d="M102 38.6406V36.7414L44.4264 34.8082L44.1936 36.2845L102 38.6406Z" fill="#C2B644"/>
<path d="M99.8294 42.1401L102 38.6406L44.1936 36.2845L43.9626 37.7492L99.8294 42.1401Z" fill="#C2B644"/>
<path d="M96.8892 46.8801L99.8294 42.1401L43.9626 37.7492L43.469 40.8797L96.8892 46.8801Z" fill="#C2B644"/>
<path d="M43.1261 67H43.6635H44.2009H45.1077H45.6115H46.2124H49.7569H55.2591H59.7824H84.4093L96.8892 46.8801L43.469 40.8797L39.3506 67H41.0328H43.1261Z" fill="#C2B644"/>
<path d="M39.3506 67L43.469 40.8797L42.3724 40.7566L39.3506 67Z" fill="#C2B644"/>
<path d="M41.4876 40.6572L39.3506 67L42.3724 40.7566L41.4876 40.6572Z" fill="#C2B644"/>
<path d="M40.3721 40.5319L39.3506 67L41.4876 40.6572L40.3721 40.5319Z" fill="#C2B644"/>
<path d="M39.1706 40.3969L39.3506 67L40.3721 40.5319L39.1706 40.3969Z" fill="#C2B644"/>
<path d="M37.9567 40.2606L39.3506 67L39.1706 40.3969L37.9567 40.2606Z" fill="#C2B644"/>
<path d="M35.7862 40.0168L39.3506 67L37.9567 40.2606L35.7862 40.0168Z" fill="#C2B644"/>
<path d="M33.984 26.3739L34.2035 28.036L37.3063 27.7858L37.2094 25.927L33.984 26.3739Z" fill="#C2B644"/>
<path d="M33.984 26.3739L34.2035 28.036L37.3063 27.7858L37.2094 25.927L33.984 26.3739Z" fill="#E84B18"/>
<path d="M39.0709 25.669L37.2094 25.927L37.3063 27.7858L39.0842 27.6425L39.0709 25.669Z" fill="#C2B644"/>
<path d="M39.0709 25.669L37.2094 25.927L37.3063 27.7858L39.0842 27.6425L39.0709 25.669Z" fill="#E84B18"/>
<path d="M40.9558 25.4078L39.0709 25.669L39.0842 27.6425L40.8752 27.498L40.9558 25.4078Z" fill="#C2B644"/>
<path d="M40.9558 25.4078L39.0709 25.669L39.0842 27.6425L40.8752 27.498L40.9558 25.4078Z" fill="#E84B18"/>
<path d="M42.7448 25.1599L40.9558 25.4078L40.8752 27.498L42.5661 27.3617L42.7448 25.1599Z" fill="#C2B644"/>
<path d="M42.7448 25.1599L40.9558 25.4078L40.8752 27.498L42.5661 27.3617L42.7448 25.1599Z" fill="#E84B18"/>
<path d="M44.1913 24.9594L42.7448 25.1599L42.5661 27.3617L43.9274 27.252L44.1913 24.9594Z" fill="#C2B644"/>
<path d="M44.1913 24.9594L42.7448 25.1599L42.5661 27.3617L43.9274 27.252L44.1913 24.9594Z" fill="#E84B18"/>
<path d="M46.0192 24.7061L44.1913 24.9594L43.9274 27.252L45.6395 27.1139L46.0192 24.7061Z" fill="#C2B644"/>
<path d="M46.0192 24.7061L44.1913 24.9594L43.9274 27.252L45.6395 27.1139L46.0192 24.7061Z" fill="#E84B18"/>
<path d="M34.2035 28.036L34.4113 29.6089L37.3972 29.5295L37.3063 27.7858L34.2035 28.036Z" fill="#C2B644"/>
<path d="M34.2035 28.036L34.4113 29.6089L37.3972 29.5295L37.3063 27.7858L34.2035 28.036Z" fill="#E84B18"/>
<path d="M34.4113 29.6089L34.6068 31.089L37.4768 31.0566L37.3972 29.5295L34.4113 29.6089Z" fill="#C2B644"/>
<path d="M34.4113 29.6089L34.6068 31.089L37.4768 31.0566L37.3972 29.5295L34.4113 29.6089Z" fill="#E84B18"/>
<path d="M34.6068 31.089L34.7883 32.4626L37.5502 32.4634L37.4768 31.0566L34.6068 31.089Z" fill="#C2B644"/>
<path d="M34.6068 31.089L34.7883 32.4626L37.5502 32.4634L37.4768 31.0566L34.6068 31.089Z" fill="#E84B18"/>
<path d="M39.0842 27.6425L37.3063 27.7858L37.3972 29.5295L39.0967 29.4844L39.0842 27.6425Z" fill="#C2B644"/>
<path d="M39.0842 27.6425L37.3063 27.7858L37.3972 29.5295L39.0967 29.4844L39.0842 27.6425Z" fill="#E84B18"/>
<path d="M40.8752 27.498L39.0842 27.6425L39.0967 29.4844L40.8003 29.4391L40.8752 27.498Z" fill="#C2B644"/>
<path d="M40.8752 27.498L39.0842 27.6425L39.0967 29.4844L40.8003 29.4391L40.8752 27.498Z" fill="#E84B18"/>
<path d="M42.5661 27.3617L40.8752 27.498L40.8003 29.4391L42.4011 29.3965L42.5661 27.3617Z" fill="#C2B644"/>
<path d="M42.5661 27.3617L40.8752 27.498L40.8003 29.4391L42.4011 29.3965L42.5661 27.3617Z" fill="#E84B18"/>
<path d="M43.9274 27.252L42.5661 27.3617L42.4011 29.3965L43.6844 29.3624L43.9274 27.252Z" fill="#C2B644"/>
<path d="M43.9274 27.252L42.5661 27.3617L42.4011 29.3965L43.6844 29.3624L43.9274 27.252Z" fill="#E84B18"/>
<path d="M45.2917 29.3197L45.6395 27.1139L43.9274 27.252L43.6844 29.3624L45.2917 29.3197Z" fill="#C2B644"/>
<path d="M45.2917 29.3197L45.6395 27.1139L43.9274 27.252L43.6844 29.3624L45.2917 29.3197Z" fill="#E84B18"/>
<path d="M37.3972 29.5295L37.4768 31.0566L39.1072 31.0381L39.0967 29.4844L37.3972 29.5295Z" fill="#C2B644"/>
<path d="M37.3972 29.5295L37.4768 31.0566L39.1072 31.0381L39.0967 29.4844L37.3972 29.5295Z" fill="#E84B18"/>
<path d="M40.8003 29.4391L39.0967 29.4844L39.1072 31.0381L40.7392 31.0197L40.8003 29.4391Z" fill="#C2B644"/>
<path d="M40.8003 29.4391L39.0967 29.4844L39.1072 31.0381L40.7392 31.0197L40.8003 29.4391Z" fill="#E84B18"/>
<path d="M42.4011 29.3965L40.8003 29.4391L40.7392 31.0197L42.2708 31.0024L42.4011 29.3965Z" fill="#C2B644"/>
<path d="M42.4011 29.3965L40.8003 29.4391L40.7392 31.0197L42.2708 31.0024L42.4011 29.3965Z" fill="#E84B18"/>
<path d="M43.6844 29.3624L42.4011 29.3965L42.2708 31.0024L43.4971 30.9885L43.6844 29.3624Z" fill="#C2B644"/>
<path d="M43.6844 29.3624L42.4011 29.3965L42.2708 31.0024L43.4971 30.9885L43.6844 29.3624Z" fill="#E84B18"/>
<path d="M45.0314 30.9712L45.2917 29.3197L43.6844 29.3624L43.4971 30.9885L45.0314 30.9712Z" fill="#C2B644"/>
<path d="M45.0314 30.9712L45.2917 29.3197L43.6844 29.3624L43.4971 30.9885L45.0314 30.9712Z" fill="#E84B18"/>
<path d="M37.4768 31.0566L37.5502 32.4634L39.1169 32.4639L39.1072 31.0381L37.4768 31.0566Z" fill="#C2B644"/>
<path d="M37.4768 31.0566L37.5502 32.4634L39.1169 32.4639L39.1072 31.0381L37.4768 31.0566Z" fill="#E84B18"/>
<path d="M34.7883 32.4626L35.0566 34.4936L37.6606 34.581L37.5502 32.4634L34.7883 32.4626Z" fill="#C2B644"/>
<path d="M34.7883 32.4626L35.0566 34.4936L37.6606 34.581L37.5502 32.4634L34.7883 32.4626Z" fill="#E84B18"/>
<path d="M37.6606 34.581L35.0566 34.4936L35.245 35.9197L37.7357 36.0212L37.6606 34.581Z" fill="#C2B644"/>
<path d="M37.6606 34.581L35.0566 34.4936L35.245 35.9197L37.7357 36.0212L37.6606 34.581Z" fill="#E84B18"/>
<path d="M35.3977 37.0761L35.7862 40.0168L37.9567 40.2606L37.8005 37.2649L35.3977 37.0761Z" fill="#C2B644"/>
<path d="M35.3977 37.0761L35.7862 40.0168L37.9567 40.2606L37.8005 37.2649L35.3977 37.0761Z" fill="#E84B18"/>
<path d="M37.7357 36.0212L35.245 35.9197L35.3977 37.0761L37.8005 37.2649L37.7357 36.0212Z" fill="#C2B644"/>
<path d="M37.7357 36.0212L35.245 35.9197L35.3977 37.0761L37.8005 37.2649L37.7357 36.0212Z" fill="#E84B18"/>
<path d="M37.9567 40.2606L39.1706 40.3969L39.1501 37.371L37.8005 37.2649L37.9567 40.2606Z" fill="#C2B644"/>
<path d="M37.9567 40.2606L39.1706 40.3969L39.1501 37.371L37.8005 37.2649L37.9567 40.2606Z" fill="#E84B18"/>
<path d="M39.1706 40.3969L40.3721 40.5319L40.4901 37.4763L39.1501 37.371L39.1706 40.3969Z" fill="#C2B644"/>
<path d="M39.1706 40.3969L40.3721 40.5319L40.4901 37.4763L39.1501 37.371L39.1706 40.3969Z" fill="#E84B18"/>
<path d="M40.3721 40.5319L41.4876 40.6572L41.7376 37.5744L40.4901 37.4763L40.3721 40.5319Z" fill="#C2B644"/>
<path d="M40.3721 40.5319L41.4876 40.6572L41.7376 37.5744L40.4901 37.4763L40.3721 40.5319Z" fill="#E84B18"/>
<path d="M43.469 40.8797L43.9626 37.7492L42.7298 37.6524L42.3724 40.7566L43.469 40.8797Z" fill="#C2B644"/>
<path d="M43.469 40.8797L43.9626 37.7492L42.7298 37.6524L42.3724 40.7566L43.469 40.8797Z" fill="#E84B18"/>
<path d="M43.9626 37.7492L44.1936 36.2845L42.8934 36.2315L42.7298 37.6524L43.9626 37.7492Z" fill="#C2B644"/>
<path d="M43.9626 37.7492L44.1936 36.2845L42.8934 36.2315L42.7298 37.6524L43.9626 37.7492Z" fill="#E84B18"/>
<path d="M40.5418 36.1356L40.4901 37.4763L41.7376 37.5744L41.85 36.189L40.5418 36.1356Z" fill="#C2B644"/>
<path d="M40.5418 36.1356L40.4901 37.4763L41.7376 37.5744L41.85 36.189L40.5418 36.1356Z" fill="#E84B18"/>
<path d="M39.1413 36.0786L39.1501 37.371L40.4901 37.4763L40.5418 36.1356L39.1413 36.0786Z" fill="#C2B644"/>
<path d="M39.1413 36.0786L39.1501 37.371L40.4901 37.4763L40.5418 36.1356L39.1413 36.0786Z" fill="#E84B18"/>
<path d="M37.7357 36.0212L37.8005 37.2649L39.1501 37.371L39.1413 36.0786L37.7357 36.0212Z" fill="#C2B644"/>
<path d="M37.7357 36.0212L37.8005 37.2649L39.1501 37.371L39.1413 36.0786L37.7357 36.0212Z" fill="#E84B18"/>
<path d="M40.7392 31.0197L39.1072 31.0381L39.1169 32.4639L40.6835 32.4644L40.7392 31.0197Z" fill="#C2B644"/>
<path d="M40.7392 31.0197L39.1072 31.0381L39.1169 32.4639L40.6835 32.4644L40.7392 31.0197Z" fill="#E84B18"/>
<path d="M42.2708 31.0024L40.7392 31.0197L40.6835 32.4644L42.1522 32.4648L42.2708 31.0024Z" fill="#C2B644"/>
<path d="M42.2708 31.0024L40.7392 31.0197L40.6835 32.4644L42.1522 32.4648L42.2708 31.0024Z" fill="#E84B18"/>
<path d="M43.4971 30.9885L42.2708 31.0024L42.1522 32.4648L43.3271 32.4651L43.4971 30.9885Z" fill="#C2B644"/>
<path d="M43.4971 30.9885L42.2708 31.0024L42.1522 32.4648L43.3271 32.4651L43.4971 30.9885Z" fill="#E84B18"/>
<path d="M44.7957 32.4656L45.0314 30.9712L43.4971 30.9885L43.3271 32.4651L44.7957 32.4656Z" fill="#C2B644"/>
<path d="M44.7957 32.4656L45.0314 30.9712L43.4971 30.9885L43.3271 32.4651L44.7957 32.4656Z" fill="#E84B18"/>
<path d="M37.5502 32.4634L37.6606 34.581L39.1315 34.6304L39.1169 32.4639L37.5502 32.4634Z" fill="#C2B644"/>
<path d="M37.5502 32.4634L37.6606 34.581L39.1315 34.6304L39.1169 32.4639L37.5502 32.4634Z" fill="#E84B18"/>
<path d="M40.6835 32.4644L39.1169 32.4639L39.1315 34.6304L40.598 34.6797L40.6835 32.4644Z" fill="#C2B644"/>
<path d="M40.6835 32.4644L39.1169 32.4639L39.1315 34.6304L40.598 34.6797L40.6835 32.4644Z" fill="#E84B18"/>
<path d="M42.1522 32.4648L40.6835 32.4644L40.598 34.6797L41.9688 34.7257L42.1522 32.4648Z" fill="#C2B644"/>
<path d="M42.1522 32.4648L40.6835 32.4644L40.598 34.6797L41.9688 34.7257L42.1522 32.4648Z" fill="#E84B18"/>
<path d="M41.9688 34.7257L43.0626 34.7624L43.3271 32.4651L42.1522 32.4648L41.9688 34.7257Z" fill="#C2B644"/>
<path d="M41.9688 34.7257L43.0626 34.7624L43.3271 32.4651L42.1522 32.4648L41.9688 34.7257Z" fill="#E84B18"/>
<path d="M44.4264 34.8082L44.7957 32.4656L43.3271 32.4651L43.0626 34.7624L44.4264 34.8082Z" fill="#C2B644"/>
<path d="M44.4264 34.8082L44.7957 32.4656L43.3271 32.4651L43.0626 34.7624L44.4264 34.8082Z" fill="#E84B18"/>
<path d="M37.6606 34.581L37.7357 36.0212L39.1413 36.0786L39.1315 34.6304L37.6606 34.581Z" fill="#C2B644"/>
<path d="M37.6606 34.581L37.7357 36.0212L39.1413 36.0786L39.1315 34.6304L37.6606 34.581Z" fill="#E84B18"/>
<path d="M39.1413 36.0786L40.5418 36.1356L40.598 34.6797L39.1315 34.6304L39.1413 36.0786Z" fill="#C2B644"/>
<path d="M39.1413 36.0786L40.5418 36.1356L40.598 34.6797L39.1315 34.6304L39.1413 36.0786Z" fill="#E84B18"/>
<path d="M41.85 36.189L41.9688 34.7257L40.598 34.6797L40.5418 36.1356L41.85 36.189Z" fill="#C2B644"/>
<path d="M41.85 36.189L41.9688 34.7257L40.598 34.6797L40.5418 36.1356L41.85 36.189Z" fill="#E84B18"/>
<path d="M41.4876 40.6572L42.3724 40.7566L42.7298 37.6524L41.7376 37.5744L41.4876 40.6572Z" fill="#E84B18"/>
<path d="M102 38.6406V36.7414M102 38.6406L99.8294 42.1401M102 38.6406L44.1936 36.2845M102 27.8125V30.3276M102 27.8125L98.7332 22.8331M102 27.8125L45.2917 29.3197M5 30.3906V24.9317V20.5008V1H30.6321M5 30.3906V31.4235M5 30.3906L34.4113 29.6089M5 30.3906L34.2035 28.036M5 30.3906L33.984 26.3739M5 33.4844V32.4539M5 33.4844V34.687M5 33.4844L35.0566 34.4936M102 36.7414V35.5889V34.687V33.4844V32.4822M102 36.7414L44.4264 34.8082M102 32.4822V31.4049V30.3276M102 32.4822L44.7957 32.4656M102 30.3276L45.0314 30.9712M49.7569 1H52.938H55.2591H59.7824H84.4093L95.4663 17.8536M49.7569 1H46.9501M49.7569 1L46.0192 24.7061M46.9501 1H45.8274H44.7047M46.9501 1L44.1913 24.9594M44.7047 1H41.8978M44.7047 1L42.7448 25.1599M41.8978 1H38.9039M41.8978 1L40.9558 25.4078M38.9039 1H35.9099M38.9039 1L39.0709 25.669M35.9099 1H30.6321M35.9099 1L37.2094 25.927M39.3506 67H35.9099H30.6321H5V46.8801V42.1401V38.4305V36.5587M39.3506 67H41.0328H43.1261H43.6635H44.2009H45.1077H45.6115H46.2124H49.7569H55.2591H59.7824H84.4093L96.8892 46.8801M39.3506 67L35.7862 40.0168M39.3506 67L43.469 40.8797M39.3506 67L42.3724 40.7566M39.3506 67L41.4876 40.6572M39.3506 67L40.3721 40.5319M39.3506 67L39.1706 40.3969M39.3506 67L37.9567 40.2606M30.6321 1L33.984 26.3739M95.4663 17.8536L98.7332 22.8331M95.4663 17.8536L46.0192 24.7061M98.7332 22.8331L45.6395 27.1139M5 31.4235V32.4539M5 31.4235L34.6068 31.089M5 32.4539L34.7883 32.4626M5 34.687V36.5587M5 34.687L35.3977 37.0761M5 34.687L35.245 35.9197M99.8294 42.1401L96.8892 46.8801M99.8294 42.1401L43.9626 37.7492M96.8892 46.8801L43.469 40.8797M5 36.5587L35.7862 40.0168M35.7862 40.0168L35.3977 37.0761M35.7862 40.0168L37.9567 40.2606M43.469 40.8797L43.9626 37.7492M43.469 40.8797L42.3724 40.7566M43.9626 37.7492L44.1936 36.2845M43.9626 37.7492L42.7298 37.6524M35.3977 37.0761L35.245 35.9197M35.3977 37.0761L37.8005 37.2649M35.0566 34.4936L34.7883 32.4626M35.0566 34.4936L37.6606 34.581M35.0566 34.4936L35.245 35.9197M34.7883 32.4626L34.6068 31.089M34.7883 32.4626L37.5502 32.4634M34.6068 31.089L34.4113 29.6089M34.6068 31.089L37.4768 31.0566M34.4113 29.6089L34.2035 28.036M34.4113 29.6089L37.3972 29.5295M34.2035 28.036L33.984 26.3739M34.2035 28.036L37.3063 27.7858M33.984 26.3739L37.2094 25.927M37.2094 25.927L39.0709 25.669M37.2094 25.927L37.3063 27.7858M39.0709 25.669L40.9558 25.4078M39.0709 25.669L39.0842 27.6425M40.9558 25.4078L42.7448 25.1599M40.9558 25.4078L40.8752 27.498M42.7448 25.1599L44.1913 24.9594M42.7448 25.1599L42.5661 27.3617M44.1913 24.9594L46.0192 24.7061M44.1913 24.9594L43.9274 27.252M46.0192 24.7061L45.6395 27.1139M45.6395 27.1139L45.2917 29.3197M45.6395 27.1139L43.9274 27.252M45.2917 29.3197L45.0314 30.9712M45.2917 29.3197L43.6844 29.3624M45.0314 30.9712L44.7957 32.4656M45.0314 30.9712L43.4971 30.9885M44.7957 32.4656L44.4264 34.8082M44.7957 32.4656L43.3271 32.4651M44.4264 34.8082L44.1936 36.2845M44.4264 34.8082L43.0626 34.7624M44.1936 36.2845L42.8934 36.2315M42.3724 40.7566L41.4876 40.6572M42.3724 40.7566L42.7298 37.6524M41.4876 40.6572L40.3721 40.5319M41.4876 40.6572L41.7376 37.5744M40.3721 40.5319L39.1706 40.3969M40.3721 40.5319L40.4901 37.4763M39.1706 40.3969L37.9567 40.2606M39.1706 40.3969L39.1501 37.371M37.9567 40.2606L37.8005 37.2649M37.3063 27.7858L39.0842 27.6425M37.3063 27.7858L37.3972 29.5295M39.0842 27.6425L40.8752 27.498M39.0842 27.6425L39.0967 29.4844M40.8752 27.498L42.5661 27.3617M40.8752 27.498L40.8003 29.4391M42.5661 27.3617L43.9274 27.252M42.5661 27.3617L42.4011 29.3965M43.9274 27.252L43.6844 29.3624M37.3972 29.5295L37.4768 31.0566M37.3972 29.5295L39.0967 29.4844M37.4768 31.0566L37.5502 32.4634M37.4768 31.0566L39.1072 31.0381M37.5502 32.4634L37.6606 34.581M37.5502 32.4634L39.1169 32.4639M37.6606 34.581L37.7357 36.0212M37.6606 34.581L39.1315 34.6304M35.245 35.9197L37.7357 36.0212M37.7357 36.0212L37.8005 37.2649M37.7357 36.0212L39.1413 36.0786M39.0967 29.4844L40.8003 29.4391M39.0967 29.4844L39.1072 31.0381M40.8003 29.4391L42.4011 29.3965M40.8003 29.4391L40.7392 31.0197M42.4011 29.3965L43.6844 29.3624M42.4011 29.3965L42.2708 31.0024M43.6844 29.3624L43.4971 30.9885M39.1072 31.0381L40.7392 31.0197M39.1072 31.0381L39.1169 32.4639M40.7392 31.0197L42.2708 31.0024M40.7392 31.0197L40.6835 32.4644M42.2708 31.0024L43.4971 30.9885M42.2708 31.0024L42.1522 32.4648M43.4971 30.9885L43.3271 32.4651M39.1169 32.4639L40.6835 32.4644M39.1169 32.4639L39.1315 34.6304M37.8005 37.2649L39.1501 37.371M39.1501 37.371L40.4901 37.4763M39.1501 37.371L39.1413 36.0786M40.4901 37.4763L41.7376 37.5744M40.4901 37.4763L40.5418 36.1356M41.7376 37.5744L42.7298 37.6524M41.7376 37.5744L41.85 36.189M42.7298 37.6524L42.8934 36.2315M42.8934 36.2315L41.85 36.189M42.8934 36.2315L43.0626 34.7624M43.0626 34.7624L41.9688 34.7257M43.0626 34.7624L43.3271 32.4651M41.9688 34.7257L41.85 36.189M41.9688 34.7257L42.1522 32.4648M41.9688 34.7257L40.598 34.6797M41.85 36.189L40.5418 36.1356M40.5418 36.1356L39.1413 36.0786M40.5418 36.1356L40.598 34.6797M39.1413 36.0786L39.1315 34.6304M40.6835 32.4644L42.1522 32.4648M40.6835 32.4644L40.598 34.6797M42.1522 32.4648L43.3271 32.4651M39.1315 34.6304L40.598 34.6797" stroke="black"/>
<path d="M102 38.6406V36.7414M102 38.6406L99.8294 42.1401M102 38.6406L44.1936 36.2845M102 27.8125V30.3276M102 27.8125L98.7332 22.8331M102 27.8125L45.2917 29.3197M5 30.3906V24.9317V20.5008V1H30.6321M5 30.3906V31.4235M5 30.3906L34.4113 29.6089M5 30.3906L34.2035 28.036M5 30.3906L33.984 26.3739M5 33.4844V32.4539M5 33.4844V34.687M5 33.4844L35.0566 34.4936M102 36.7414V35.5889V34.687V33.4844V32.4822M102 36.7414L44.4264 34.8082M102 32.4822V31.4049V30.3276M102 32.4822L44.7957 32.4656M102 30.3276L45.0314 30.9712M49.7569 1H52.938H55.2591H59.7824H84.4093L95.4663 17.8536M49.7569 1H46.9501M49.7569 1L46.0192 24.7061M46.9501 1H45.8274H44.7047M46.9501 1L44.1913 24.9594M44.7047 1H41.8978M44.7047 1L42.7448 25.1599M41.8978 1H38.9039M41.8978 1L40.9558 25.4078M38.9039 1H35.9099M38.9039 1L39.0709 25.669M35.9099 1H30.6321M35.9099 1L37.2094 25.927M39.3506 67H35.9099H30.6321H5V46.8801V42.1401V38.4305V36.5587M39.3506 67H41.0328H43.1261H43.6635H44.2009H45.1077H45.6115H46.2124H49.7569H55.2591H59.7824H84.4093L96.8892 46.8801M39.3506 67L35.7862 40.0168M39.3506 67L43.469 40.8797M39.3506 67L42.3724 40.7566M39.3506 67L41.4876 40.6572M39.3506 67L40.3721 40.5319M39.3506 67L39.1706 40.3969M39.3506 67L37.9567 40.2606M30.6321 1L33.984 26.3739M95.4663 17.8536L98.7332 22.8331M95.4663 17.8536L46.0192 24.7061M98.7332 22.8331L45.6395 27.1139M5 31.4235V32.4539M5 31.4235L34.6068 31.089M5 32.4539L34.7883 32.4626M5 34.687V36.5587M5 34.687L35.3977 37.0761M5 34.687L35.245 35.9197M99.8294 42.1401L96.8892 46.8801M99.8294 42.1401L43.9626 37.7492M96.8892 46.8801L43.469 40.8797M5 36.5587L35.7862 40.0168M35.7862 40.0168L35.3977 37.0761M35.7862 40.0168L37.9567 40.2606M43.469 40.8797L43.9626 37.7492M43.469 40.8797L42.3724 40.7566M43.9626 37.7492L44.1936 36.2845M43.9626 37.7492L42.7298 37.6524M35.3977 37.0761L35.245 35.9197M35.3977 37.0761L37.8005 37.2649M35.0566 34.4936L34.7883 32.4626M35.0566 34.4936L37.6606 34.581M35.0566 34.4936L35.245 35.9197M34.7883 32.4626L34.6068 31.089M34.7883 32.4626L37.5502 32.4634M34.6068 31.089L34.4113 29.6089M34.6068 31.089L37.4768 31.0566M34.4113 29.6089L34.2035 28.036M34.4113 29.6089L37.3972 29.5295M34.2035 28.036L33.984 26.3739M34.2035 28.036L37.3063 27.7858M33.984 26.3739L37.2094 25.927M37.2094 25.927L39.0709 25.669M37.2094 25.927L37.3063 27.7858M39.0709 25.669L40.9558 25.4078M39.0709 25.669L39.0842 27.6425M40.9558 25.4078L42.7448 25.1599M40.9558 25.4078L40.8752 27.498M42.7448 25.1599L44.1913 24.9594M42.7448 25.1599L42.5661 27.3617M44.1913 24.9594L46.0192 24.7061M44.1913 24.9594L43.9274 27.252M46.0192 24.7061L45.6395 27.1139M45.6395 27.1139L45.2917 29.3197M45.6395 27.1139L43.9274 27.252M45.2917 29.3197L45.0314 30.9712M45.2917 29.3197L43.6844 29.3624M45.0314 30.9712L44.7957 32.4656M45.0314 30.9712L43.4971 30.9885M44.7957 32.4656L44.4264 34.8082M44.7957 32.4656L43.3271 32.4651M44.4264 34.8082L44.1936 36.2845M44.4264 34.8082L43.0626 34.7624M44.1936 36.2845L42.8934 36.2315M42.3724 40.7566L41.4876 40.6572M42.3724 40.7566L42.7298 37.6524M41.4876 40.6572L40.3721 40.5319M41.4876 40.6572L41.7376 37.5744M40.3721 40.5319L39.1706 40.3969M40.3721 40.5319L40.4901 37.4763M39.1706 40.3969L37.9567 40.2606M39.1706 40.3969L39.1501 37.371M37.9567 40.2606L37.8005 37.2649M37.3063 27.7858L39.0842 27.6425M37.3063 27.7858L37.3972 29.5295M39.0842 27.6425L40.8752 27.498M39.0842 27.6425L39.0967 29.4844M40.8752 27.498L42.5661 27.3617M40.8752 27.498L40.8003 29.4391M42.5661 27.3617L43.9274 27.252M42.5661 27.3617L42.4011 29.3965M43.9274 27.252L43.6844 29.3624M37.3972 29.5295L37.4768 31.0566M37.3972 29.5295L39.0967 29.4844M37.4768 31.0566L37.5502 32.4634M37.4768 31.0566L39.1072 31.0381M37.5502 32.4634L37.6606 34.581M37.5502 32.4634L39.1169 32.4639M37.6606 34.581L37.7357 36.0212M37.6606 34.581L39.1315 34.6304M35.245 35.9197L37.7357 36.0212M37.7357 36.0212L37.8005 37.2649M37.7357 36.0212L39.1413 36.0786M39.0967 29.4844L40.8003 29.4391M39.0967 29.4844L39.1072 31.0381M40.8003 29.4391L42.4011 29.3965M40.8003 29.4391L40.7392 31.0197M42.4011 29.3965L43.6844 29.3624M42.4011 29.3965L42.2708 31.0024M43.6844 29.3624L43.4971 30.9885M39.1072 31.0381L40.7392 31.0197M39.1072 31.0381L39.1169 32.4639M40.7392 31.0197L42.2708 31.0024M40.7392 31.0197L40.6835 32.4644M42.2708 31.0024L43.4971 30.9885M42.2708 31.0024L42.1522 32.4648M43.4971 30.9885L43.3271 32.4651M39.1169 32.4639L40.6835 32.4644M39.1169 32.4639L39.1315 34.6304M37.8005 37.2649L39.1501 37.371M39.1501 37.371L40.4901 37.4763M39.1501 37.371L39.1413 36.0786M40.4901 37.4763L41.7376 37.5744M40.4901 37.4763L40.5418 36.1356M41.7376 37.5744L42.7298 37.6524M41.7376 37.5744L41.85 36.189M42.7298 37.6524L42.8934 36.2315M42.8934 36.2315L41.85 36.189M42.8934 36.2315L43.0626 34.7624M43.0626 34.7624L41.9688 34.7257M43.0626 34.7624L43.3271 32.4651M41.9688 34.7257L41.85 36.189M41.9688 34.7257L42.1522 32.4648M41.9688 34.7257L40.598 34.6797M41.85 36.189L40.5418 36.1356M40.5418 36.1356L39.1413 36.0786M40.5418 36.1356L40.598 34.6797M39.1413 36.0786L39.1315 34.6304M40.6835 32.4644L42.1522 32.4648M40.6835 32.4644L40.598 34.6797M42.1522 32.4648L43.3271 32.4651M39.1315 34.6304L40.598 34.6797" stroke="#102D55"/>
</g>
<defs>
<filter id="filter0_d_28_4" x="0.5" y="0.5" width="106" height="75" filterUnits="userSpaceOnUse" color-interpolation-filters="sRGB">
<feFlood flood-opacity="0" result="BackgroundImageFix"/>
<feColorMatrix in="SourceAlpha" type="matrix" values="0 0 0 0 0 0 0 0 0 0 0 0 0 0 0 0 0 0 127 0" result="hardAlpha"/>
<feOffset dy="4"/>
<feGaussianBlur stdDeviation="2"/>
<feComposite in2="hardAlpha" operator="out"/>
<feColorMatrix type="matrix" values="0 0 0 0 0 0 0 0 0 0 0 0 0 0 0 0 0 0 0.25 0"/>
<feBlend mode="normal" in2="BackgroundImageFix" result="effect1_dropShadow_28_4"/>
<feBlend mode="normal" in="SourceGraphic" in2="effect1_dropShadow_28_4" result="shape"/>
</filter>
</defs>
</svg>
