<svg width="107" height="76" viewBox="0 0 107 76" fill="none" xmlns="http://www.w3.org/2000/svg">
<g filter="url(#filter0_d_28_6)">
<path d="M30.6321 1H5V5.125L31.6784 7.63959L30.6321 1Z" fill="#E84B18"/>
<path d="M30.6321 1H5V5.125L31.6784 7.63959L30.6321 1Z" fill="#C2B644"/>
<path d="M30.6321 1H5V5.125L31.6784 7.63959L30.6321 1Z" fill="#C2B644"/>
<path d="M5 5.125V14.9219L33.0939 16.6218L31.6784 7.63959L5 5.125Z" fill="#E84B18"/>
<path d="M5 5.125V14.9219L33.0939 16.6218L31.6784 7.63959L5 5.125Z" fill="#C2B644"/>
<path d="M5 5.125V14.9219L33.0939 16.6218L31.6784 7.63959L5 5.125Z" fill="#C2B644"/>
<path d="M5 33.4844V38.4305V42.1401L36.9337 40.988L35.7512 33.4844H5Z" fill="#E84B18"/>
<path d="M5 33.4844V38.4305V42.1401L36.9337 40.988L35.7512 33.4844H5Z" fill="#C2B644"/>
<path d="M5 33.4844V38.4305V42.1401L36.9337 40.988L35.7512 33.4844H5Z" fill="#C2B644"/>
<path d="M5 24.9317V29.3626V33.4844H35.7512L34.5417 25.809L5 24.9317Z" fill="#E84B18"/>
<path d="M5 24.9317V29.3626V33.4844H35.7512L34.5417 25.809L5 24.9317Z" fill="#C2B644"/>
<path d="M5 24.9317V29.3626V33.4844H35.7512L34.5417 25.809L5 24.9317Z" fill="#C2B644"/>
<path d="M5 20.5008V24.9317L34.5417 25.809L33.0939 16.6218L5 14.9219V20.5008Z" fill="#E84B18"/>
<path d="M5 20.5008V24.9317L34.5417 25.809L33.0939 16.6218L5 14.9219V20.5008Z" fill="#C2B644"/>
<path d="M5 20.5008V24.9317L34.5417 25.809L33.0939 16.6218L5 14.9219V20.5008Z" fill="#C2B644"/>
<path d="M5 42.1401V46.8801V51.0156L38.2152 49.1199L36.9337 40.988L5 42.1401Z" fill="#E84B18"/>
<path d="M5 42.1401V46.8801V51.0156L38.2152 49.1199L36.9337 40.988L5 42.1401Z" fill="#C2B644"/>
<path d="M5 42.1401V46.8801V51.0156L38.2152 49.1199L36.9337 40.988L5 42.1401Z" fill="#C2B644"/>
<path d="M5 51.0156V60.8125L39.5642 57.6807L38.2152 49.1199L5 51.0156Z" fill="#E84B18"/>
<path d="M5 51.0156V60.8125L39.5642 57.6807L38.2152 49.1199L5 51.0156Z" fill="#C2B644"/>
<path d="M5 51.0156V60.8125L39.5642 57.6807L38.2152 49.1199L5 51.0156Z" fill="#C2B644"/>
<path d="M5 67H30.6321H35.9099H37.6684H41.0328L39.5642 57.6807L5 60.8125V67Z" fill="#E84B18"/>
<path d="M5 67H30.6321H35.9099H37.6684H41.0328L39.5642 57.6807L5 60.8125V67Z" fill="#C2B644"/>
<path d="M5 67H30.6321H35.9099H37.6684H41.0328L39.5642 57.6807L5 60.8125V67Z" fill="#C2B644"/>
<path d="M45.1077 67H45.6115H46.2124H49.7569H55.2591H59.7824H84.4093L93.2047 52.8203L45.6553 57.1287L44.6543 67H45.1077Z" fill="#E84B18"/>
<path d="M45.1077 67H45.6115H46.2124H49.7569H55.2591H59.7824H84.4093L93.2047 52.8203L45.6553 57.1287L44.6543 67H45.1077Z" fill="#C2B644"/>
<path d="M45.1077 67H45.6115H46.2124H49.7569H55.2591H59.7824H84.4093L93.2047 52.8203L45.6553 57.1287L44.6543 67H45.1077Z" fill="#C2B644"/>
<path d="M93.2047 52.8203L97.6023 45.7305L46.5156 48.6462L45.6553 57.1287L93.2047 52.8203Z" fill="#E84B18"/>
<path d="M93.2047 52.8203L97.6023 45.7305L46.5156 48.6462L45.6553 57.1287L93.2047 52.8203Z" fill="#C2B644"/>
<path d="M93.2047 52.8203L97.6023 45.7305L46.5156 48.6462L45.6553 57.1287L93.2047 52.8203Z" fill="#C2B644"/>
<path d="M97.6023 45.7305L102 38.6406L47.3302 40.6129L46.5156 48.6462L97.6023 45.7305Z" fill="#E84B18"/>
<path d="M97.6023 45.7305L102 38.6406L47.3302 40.6129L46.5156 48.6462L97.6023 45.7305Z" fill="#C2B644"/>
<path d="M97.6023 45.7305L102 38.6406L47.3302 40.6129L46.5156 48.6462L97.6023 45.7305Z" fill="#C2B644"/>
<path d="M102 38.6406V36.7414V35.5889V34.687V33.4844H48.0532L47.3302 40.6129L102 38.6406Z" fill="#E84B18"/>
<path d="M102 38.6406V36.7414V35.5889V34.687V33.4844H48.0532L47.3302 40.6129L102 38.6406Z" fill="#C2B644"/>
<path d="M102 38.6406V36.7414V35.5889V34.687V33.4844H48.0532L47.3302 40.6129L102 38.6406Z" fill="#C2B644"/>
<path d="M102 33.4844V32.4822V31.4049V30.3276V27.8125L48.7886 26.2322L48.0532 33.4844H102Z" fill="#E84B18"/>
<path d="M102 33.4844V32.4822V31.4049V30.3276V27.8125L48.7886 26.2322L48.0532 33.4844H102Z" fill="#C2B644"/>
<path d="M102 33.4844V32.4822V31.4049V30.3276V27.8125L48.7886 26.2322L48.0532 33.4844H102Z" fill="#C2B644"/>
<path d="M102 27.8125L97.2031 20.5008L49.6616 17.6242L48.7886 26.2322L102 27.8125Z" fill="#E84B18"/>
<path d="M102 27.8125L97.2031 20.5008L49.6616 17.6242L48.7886 26.2322L102 27.8125Z" fill="#C2B644"/>
<path d="M102 27.8125L97.2031 20.5008L49.6616 17.6242L48.7886 26.2322L102 27.8125Z" fill="#C2B644"/>
<path d="M97.2031 20.5008L92.5281 13.375L50.4943 9.41309L49.6616 17.6242L97.2031 20.5008Z" fill="#E84B18"/>
<path d="M97.2031 20.5008L92.5281 13.375L50.4943 9.41309L49.6616 17.6242L97.2031 20.5008Z" fill="#C2B644"/>
<path d="M97.2031 20.5008L92.5281 13.375L50.4943 9.41309L49.6616 17.6242L97.2031 20.5008Z" fill="#C2B644"/>
<path d="M55.2591 1H52.938H51.3475L50.4943 9.41309L92.5281 13.375L84.4093 1H59.7824H55.2591Z" fill="#E84B18"/>
<path d="M55.2591 1H52.938H51.3475L50.4943 9.41309L92.5281 13.375L84.4093 1H59.7824H55.2591Z" fill="#C2B644"/>
<path d="M55.2591 1H52.938H51.3475L50.4943 9.41309L92.5281 13.375L84.4093 1H59.7824H55.2591Z" fill="#C2B644"/>
<path d="M49.7569 1H46.9501H45.8274H44.7047H41.8978H38.9039H35.9099H30.6321L31.6784 7.63959L50.4943 9.41309L51.3475 1H49.7569Z" fill="#E84B18"/>
<path d="M49.7569 1H46.9501H45.8274H44.7047H41.8978H38.9039H35.9099H30.6321L31.6784 7.63959L50.4943 9.41309L51.3475 1H49.7569Z" fill="#C2B644"/>
<path d="M49.7569 1H46.9501H45.8274H44.7047H41.8978H38.9039H35.9099H30.6321L31.6784 7.63959L50.4943 9.41309L51.3475 1H49.7569Z" fill="#C2B644"/>
<path d="M33.0939 16.6218L34.5417 25.809L48.7886 26.2322L49.6616 17.6242L33.0939 16.6218Z" fill="#E84B18"/>
<path d="M33.0939 16.6218L34.5417 25.809L48.7886 26.2322L49.6616 17.6242L33.0939 16.6218Z" fill="#C2B644"/>
<path d="M33.0939 16.6218L34.5417 25.809L48.7886 26.2322L49.6616 17.6242L33.0939 16.6218Z" fill="#C2B644"/>
<path d="M33.0939 16.6218L34.5417 25.809L48.7886 26.2322L49.6616 17.6242L33.0939 16.6218Z" fill="#E84B18"/>
<path d="M31.6784 7.63959L33.0939 16.6218L49.6616 17.6242L50.4943 9.41309L31.6784 7.63959Z" fill="#E84B18"/>
<path d="M31.6784 7.63959L33.0939 16.6218L49.6616 17.6242L50.4943 9.41309L31.6784 7.63959Z" fill="#C2B644"/>
<path d="M31.6784 7.63959L33.0939 16.6218L49.6616 17.6242L50.4943 9.41309L31.6784 7.63959Z" fill="#C2B644"/>
<path d="M31.6784 7.63959L33.0939 16.6218L49.6616 17.6242L50.4943 9.41309L31.6784 7.63959Z" fill="#E84B18"/>
<path d="M34.5417 25.809L35.7512 33.4844H48.0532L48.7886 26.2322L34.5417 25.809Z" fill="#E84B18"/>
<path d="M34.5417 25.809L35.7512 33.4844H48.0532L48.7886 26.2322L34.5417 25.809Z" fill="#C2B644"/>
<path d="M34.5417 25.809L35.7512 33.4844H48.0532L48.7886 26.2322L34.5417 25.809Z" fill="#C2B644"/>
<path d="M34.5417 25.809L35.7512 33.4844H48.0532L48.7886 26.2322L34.5417 25.809Z" fill="#E84B18"/>
<path d="M35.7512 33.4844L36.9337 40.988L47.3302 40.6129L48.0532 33.4844H35.7512Z" fill="#E84B18"/>
<path d="M35.7512 33.4844L36.9337 40.988L47.3302 40.6129L48.0532 33.4844H35.7512Z" fill="#C2B644"/>
<path d="M35.7512 33.4844L36.9337 40.988L47.3302 40.6129L48.0532 33.4844H35.7512Z" fill="#C2B644"/>
<path d="M35.7512 33.4844L36.9337 40.988L47.3302 40.6129L48.0532 33.4844H35.7512Z" fill="#E84B18"/>
<path d="M36.9337 40.988L38.2152 49.1199L46.5156 48.6462L47.3302 40.6129L36.9337 40.988Z" fill="#E84B18"/>
<path d="M36.9337 40.988L38.2152 49.1199L46.5156 48.6462L47.3302 40.6129L36.9337 40.988Z" fill="#C2B644"/>
<path d="M36.9337 40.988L38.2152 49.1199L46.5156 48.6462L47.3302 40.6129L36.9337 40.988Z" fill="#C2B644"/>
<path d="M36.9337 40.988L38.2152 49.1199L46.5156 48.6462L47.3302 40.6129L36.9337 40.988Z" fill="#E84B18"/>
<path d="M38.2152 49.1199L39.5642 57.6807L45.6553 57.1287L46.5156 48.6462L38.2152 49.1199Z" fill="#E84B18"/>
<path d="M38.2152 49.1199L39.5642 57.6807L45.6553 57.1287L46.5156 48.6462L38.2152 49.1199Z" fill="#C2B644"/>
<path d="M38.2152 49.1199L39.5642 57.6807L45.6553 57.1287L46.5156 48.6462L38.2152 49.1199Z" fill="#C2B644"/>
<path d="M38.2152 49.1199L39.5642 57.6807L45.6553 57.1287L46.5156 48.6462L38.2152 49.1199Z" fill="#E84B18"/>
<path d="M43.1261 67H43.6635H44.2009H44.6543L45.6553 57.1287L39.5642 57.6807L41.0328 67H43.1261Z" fill="#E84B18"/>
<path d="M43.1261 67H43.6635H44.2009H44.6543L45.6553 57.1287L39.5642 57.6807L41.0328 67H43.1261Z" fill="#C2B644"/>
<path d="M43.1261 67H43.6635H44.2009H44.6543L45.6553 57.1287L39.5642 57.6807L41.0328 67H43.1261Z" fill="#C2B644"/>
<path d="M43.1261 67H43.6635H44.2009H44.6543L45.6553 57.1287L39.5642 57.6807L41.0328 67H43.1261Z" fill="#E84B18"/>
<path d="M102 38.6406V36.7414V35.5889V34.687V33.4844M102 38.6406L97.6023 45.7305M102 38.6406L47.3302 40.6129M102 27.8125V30.3276V31.4049V32.4822V33.4844M102 27.8125L97.2031 20.5008M102 27.8125L48.7886 26.2322M5 24.9317V20.5008V14.9219M5 24.9317V29.3626V33.4844M5 24.9317L34.5417 25.809M5 33.4844V38.4305V42.1401M5 33.4844H35.7512M5 42.1401V46.8801V51.0156M5 42.1401L36.9337 40.988M102 33.4844H48.0532M30.6321 1H35.9099H38.9039H41.8978H44.7047H45.8274H46.9501H49.7569H51.3475M30.6321 1H5V5.125M30.6321 1L31.6784 7.63959M41.0328 67H37.6684H35.9099H30.6321H5V60.8125M41.0328 67H43.1261H43.6635H44.2009H44.6543M41.0328 67L39.5642 57.6807M5 60.8125V51.0156M5 60.8125L39.5642 57.6807M93.2047 52.8203L84.4093 67H59.7824H55.2591H49.7569H46.2124H45.6115H45.1077H44.6543M93.2047 52.8203L97.6023 45.7305M93.2047 52.8203L45.6553 57.1287M97.6023 45.7305L46.5156 48.6462M5 51.0156L38.2152 49.1199M5 14.9219V5.125M5 14.9219L33.0939 16.6218M97.2031 20.5008L92.5281 13.375M97.2031 20.5008L49.6616 17.6242M5 5.125L31.6784 7.63959M92.5281 13.375L84.4093 1H59.7824H55.2591H52.938H51.3475M92.5281 13.375L50.4943 9.41309M51.3475 1L50.4943 9.41309M44.6543 67L45.6553 57.1287M31.6784 7.63959L33.0939 16.6218M31.6784 7.63959L50.4943 9.41309M33.0939 16.6218L34.5417 25.809M33.0939 16.6218L49.6616 17.6242M34.5417 25.809L35.7512 33.4844M34.5417 25.809L48.7886 26.2322M35.7512 33.4844L36.9337 40.988M35.7512 33.4844H48.0532M36.9337 40.988L38.2152 49.1199M36.9337 40.988L47.3302 40.6129M38.2152 49.1199L39.5642 57.6807M38.2152 49.1199L46.5156 48.6462M39.5642 57.6807L45.6553 57.1287M45.6553 57.1287L46.5156 48.6462M46.5156 48.6462L47.3302 40.6129M47.3302 40.6129L48.0532 33.4844M48.0532 33.4844L48.7886 26.2322M48.7886 26.2322L49.6616 17.6242M49.6616 17.6242L50.4943 9.41309" stroke="black"/>
<path d="M102 38.6406V36.7414V35.5889V34.687V33.4844M102 38.6406L97.6023 45.7305M102 38.6406L47.3302 40.6129M102 27.8125V30.3276V31.4049V32.4822V33.4844M102 27.8125L97.2031 20.5008M102 27.8125L48.7886 26.2322M5 24.9317V20.5008V14.9219M5 24.9317V29.3626V33.4844M5 24.9317L34.5417 25.809M5 33.4844V38.4305V42.1401M5 33.4844H35.7512M5 42.1401V46.8801V51.0156M5 42.1401L36.9337 40.988M102 33.4844H48.0532M30.6321 1H35.9099H38.9039H41.8978H44.7047H45.8274H46.9501H49.7569H51.3475M30.6321 1H5V5.125M30.6321 1L31.6784 7.63959M41.0328 67H37.6684H35.9099H30.6321H5V60.8125M41.0328 67H43.1261H43.6635H44.2009H44.6543M41.0328 67L39.5642 57.6807M5 60.8125V51.0156M5 60.8125L39.5642 57.6807M93.2047 52.8203L84.4093 67H59.7824H55.2591H49.7569H46.2124H45.6115H45.1077H44.6543M93.2047 52.8203L97.6023 45.7305M93.2047 52.8203L45.6553 57.1287M97.6023 45.7305L46.5156 48.6462M5 51.0156L38.2152 49.1199M5 14.9219V5.125M5 14.9219L33.0939 16.6218M97.2031 20.5008L92.5281 13.375M97.2031 20.5008L49.6616 17.6242M5 5.125L31.6784 7.63959M92.5281 13.375L84.4093 1H59.7824H55.2591H52.938H51.3475M92.5281 13.375L50.4943 9.41309M51.3475 1L50.4943 9.41309M44.6543 67L45.6553 57.1287M31.6784 7.63959L33.0939 16.6218M31.6784 7.63959L50.4943 9.41309M33.0939 16.6218L34.5417 25.809M33.0939 16.6218L49.6616 17.6242M34.5417 25.809L35.7512 33.4844M34.5417 25.809L48.7886 26.2322M35.7512 33.4844L36.9337 40.988M35.7512 33.4844H48.0532M36.9337 40.988L38.2152 49.1199M36.9337 40.988L47.3302 40.6129M38.2152 49.1199L39.5642 57.6807M38.2152 49.1199L46.5156 48.6462M39.5642 57.6807L45.6553 57.1287M45.6553 57.1287L46.5156 48.6462M46.5156 48.6462L47.3302 40.6129M47.3302 40.6129L48.0532 33.4844M48.0532 33.4844L48.7886 26.2322M48.7886 26.2322L49.6616 17.6242M49.6616 17.6242L50.4943 9.41309" stroke="#102D55"/>
</g>
<defs>
<filter id="filter0_d_28_6" x="0.5" y="0.5" width="106" height="75" filterUnits="userSpaceOnUse" color-interpolation-filters="sRGB">
<feFlood flood-opacity="0" result="BackgroundImageFix"/>
<feColorMatrix in="SourceAlpha" type="matrix" values="0 0 0 0 0 0 0 0 0 0 0 0 0 0 0 0 0 0 127 0" result="hardAlpha"/>
<feOffset dy="4"/>
<feGaussianBlur stdDeviation="2"/>
<feComposite in2="hardAlpha" operator="out"/>
<feColorMatrix type="matrix" values="0 0 0 0 0 0 0 0 0 0 0 0 0 0 0 0 0 0 0.25 0"/>
<feBlend mode="normal" in2="BackgroundImageFix" result="effect1_dropShadow_28_6"/>
<feBlend mode="normal" in="SourceGraphic" in2="effect1_dropShadow_28_6" result="shape"/>
</filter>
</defs>
</svg>
