<svg width="107" height="76" viewBox="0 0 107 76" fill="none" xmlns="http://www.w3.org/2000/svg">
<g filter="url(#filter0_d_28_10)">
<path d="M35.8731 40.055L30.3872 40.4255L30.7951 44.1839L36.1112 43.6283L35.8731 40.055Z" fill="#E84B18"/>
<path fill-rule="evenodd" clip-rule="evenodd" d="M62.3678 40.8839L57.0106 41.4438L51.5695 42.0125L46.4858 42.5439L41.4708 43.0681L36.1112 43.6283L35.8731 40.055L30.3872 40.4255L30.0657 37.4631L29.634 33.4844L29.2714 30.1432L28.8788 26.5252L28.4832 22.8798L34.7713 23.5169L40.9896 24.1468L46.685 24.7238L52.128 25.2752L58.0774 25.8779L63.7959 26.4572L63.5601 28.8396L63.3226 31.2383L63.1003 33.4844L62.8316 36.1986L62.6287 38.248L62.3678 40.8839Z" fill="#E84B18"/>
<path d="M5 1V20.5008L28.4832 22.8798L26.1088 1H5Z" fill="#E84B18"/>
<path d="M5 1V20.5008L28.4832 22.8798L26.1088 1H5Z" fill="#C2B644"/>
<path d="M5 20.5008V24.9317L28.8788 26.5252L28.4832 22.8798L5 20.5008Z" fill="#E84B18"/>
<path d="M5 20.5008V24.9317L28.8788 26.5252L28.4832 22.8798L5 20.5008Z" fill="#C2B644"/>
<path d="M30.6321 1H26.1088L28.4832 22.8798L34.7713 23.5169L33.271 1H30.6321Z" fill="#E84B18"/>
<path d="M30.6321 1H26.1088L28.4832 22.8798L34.7713 23.5169L33.271 1H30.6321Z" fill="#C2B644"/>
<path d="M38.9039 1H35.9099H33.271L34.7713 23.5169L40.9896 24.1468L40.4009 1H38.9039Z" fill="#E84B18"/>
<path d="M38.9039 1H35.9099H33.271L34.7713 23.5169L40.9896 24.1468L40.4009 1H38.9039Z" fill="#C2B644"/>
<path d="M44.7047 1H41.8978H40.4009L40.9896 24.1468L46.685 24.7238L46.9501 1H45.8274H44.7047Z" fill="#E84B18"/>
<path d="M44.7047 1H41.8978H40.4009L40.9896 24.1468L46.685 24.7238L46.9501 1H45.8274H44.7047Z" fill="#C2B644"/>
<path d="M52.938 1H49.7569H46.9501L46.685 24.7238L52.128 25.2752L52.938 1Z" fill="#E84B18"/>
<path d="M52.938 1H49.7569H46.9501L46.685 24.7238L52.128 25.2752L52.938 1Z" fill="#C2B644"/>
<path d="M55.2591 1H52.938L52.128 25.2752L58.0774 25.8779L59.7824 1H55.2591Z" fill="#E84B18"/>
<path d="M55.2591 1H52.938L52.128 25.2752L58.0774 25.8779L59.7824 1H55.2591Z" fill="#C2B644"/>
<path d="M66.3161 1H59.7824L58.0774 25.8779L63.7959 26.4572L66.3161 1Z" fill="#E84B18"/>
<path d="M66.3161 1H59.7824L58.0774 25.8779L63.7959 26.4572L66.3161 1Z" fill="#C2B644"/>
<path d="M102 27.8125L84.4093 1H66.3161L63.7959 26.4572L102 30.3276V27.8125Z" fill="#E84B18"/>
<path d="M102 27.8125L84.4093 1H66.3161L63.7959 26.4572L102 30.3276V27.8125Z" fill="#C2B644"/>
<path d="M102 31.4049V30.3276L63.7959 26.4572L63.5601 28.8396L102 31.4049Z" fill="#E84B18"/>
<path d="M102 31.4049V30.3276L63.7959 26.4572L63.5601 28.8396L102 31.4049Z" fill="#C2B644"/>
<path d="M102 32.4822V31.4049L63.5601 28.8396L63.3226 31.2383L102 32.4822Z" fill="#E84B18"/>
<path d="M102 32.4822V31.4049L63.5601 28.8396L63.3226 31.2383L102 32.4822Z" fill="#C2B644"/>
<path d="M102 33.4844V32.4822L63.3226 31.2383L63.1003 33.4844H102Z" fill="#E84B18"/>
<path d="M102 33.4844V32.4822L63.3226 31.2383L63.1003 33.4844H102Z" fill="#C2B644"/>
<path d="M102 34.687V33.4844H63.1003L62.8316 36.1986L102 34.687Z" fill="#E84B18"/>
<path d="M102 34.687V33.4844H63.1003L62.8316 36.1986L102 34.687Z" fill="#C2B644"/>
<path d="M102 35.5889V34.687L62.8316 36.1986L62.6287 38.248L102 35.5889Z" fill="#E84B18"/>
<path d="M102 35.5889V34.687L62.8316 36.1986L62.6287 38.248L102 35.5889Z" fill="#C2B644"/>
<path d="M102 36.7414V35.5889L62.6287 38.248L62.3678 40.8839L102 36.7414Z" fill="#E84B18"/>
<path d="M102 36.7414V35.5889L62.6287 38.248L62.3678 40.8839L102 36.7414Z" fill="#C2B644"/>
<path d="M84.4093 67L102 38.6406V36.7414L62.3678 40.8839L59.7824 67H84.4093Z" fill="#E84B18"/>
<path d="M84.4093 67L102 38.6406V36.7414L62.3678 40.8839L59.7824 67H84.4093Z" fill="#C2B644"/>
<path d="M55.2591 67H59.7824L62.3678 40.8839L57.0106 41.4438L55.2591 67Z" fill="#E84B18"/>
<path d="M55.2591 67H59.7824L62.3678 40.8839L57.0106 41.4438L55.2591 67Z" fill="#C2B644"/>
<path d="M50.7357 67H55.2591L57.0106 41.4438L51.5695 42.0125L50.7357 67Z" fill="#E84B18"/>
<path d="M50.7357 67H55.2591L57.0106 41.4438L51.5695 42.0125L50.7357 67Z" fill="#C2B644"/>
<path d="M46.2124 67H49.7569H50.7357L51.5695 42.0125L46.4858 42.5439L46.2124 67Z" fill="#E84B18"/>
<path d="M46.2124 67H49.7569H50.7357L51.5695 42.0125L46.4858 42.5439L46.2124 67Z" fill="#C2B644"/>
<path d="M43.1261 67H43.6635H44.2009H45.1077H45.6115H46.2124L46.4858 42.5439L41.4708 43.0681L42.0795 67H43.1261Z" fill="#E84B18"/>
<path d="M43.1261 67H43.6635H44.2009H45.1077H45.6115H46.2124L46.4858 42.5439L41.4708 43.0681L42.0795 67H43.1261Z" fill="#C2B644"/>
<path d="M37.6684 67H41.0328H42.0795L41.4708 43.0681L36.1112 43.6283L37.6684 67Z" fill="#E84B18"/>
<path d="M37.6684 67H41.0328H42.0795L41.4708 43.0681L36.1112 43.6283L37.6684 67Z" fill="#C2B644"/>
<path d="M35.9099 67H37.6684L36.1112 43.6283L30.7951 44.1839L33.271 67H35.9099Z" fill="#E84B18"/>
<path d="M35.9099 67H37.6684L36.1112 43.6283L30.7951 44.1839L33.271 67H35.9099Z" fill="#C2B644"/>
<path d="M5 46.8801V67H30.6321H33.271L30.7951 44.1839L5 46.8801Z" fill="#E84B18"/>
<path d="M5 46.8801V67H30.6321H33.271L30.7951 44.1839L5 46.8801Z" fill="#C2B644"/>
<path d="M5 24.9317V29.3626L29.2714 30.1432L28.8788 26.5252L5 24.9317Z" fill="#E84B18"/>
<path d="M5 24.9317V29.3626L29.2714 30.1432L28.8788 26.5252L5 24.9317Z" fill="#C2B644"/>
<path d="M5 29.3626V33.4844H29.634L29.2714 30.1432L5 29.3626Z" fill="#E84B18"/>
<path d="M5 29.3626V33.4844H29.634L29.2714 30.1432L5 29.3626Z" fill="#C2B644"/>
<path d="M5 33.4844V38.4305L30.0657 37.4631L29.634 33.4844H5Z" fill="#E84B18"/>
<path d="M5 33.4844V38.4305L30.0657 37.4631L29.634 33.4844H5Z" fill="#C2B644"/>
<path d="M5 38.4305V42.1401L30.3872 40.4255L30.0657 37.4631L5 38.4305Z" fill="#E84B18"/>
<path d="M5 38.4305V42.1401L30.3872 40.4255L30.0657 37.4631L5 38.4305Z" fill="#C2B644"/>
<path d="M5 42.1401V46.8801L30.7951 44.1839L30.3872 40.4255L5 42.1401Z" fill="#E84B18"/>
<path d="M5 42.1401V46.8801L30.7951 44.1839L30.3872 40.4255L5 42.1401Z" fill="#C2B644"/>
<path d="M5 20.5008V1H26.1088M5 20.5008V24.9317M5 20.5008L28.4832 22.8798M5 24.9317V29.3626M5 24.9317L28.8788 26.5252M5 29.3626V33.4844M5 29.3626L29.2714 30.1432M5 33.4844V38.4305M5 33.4844H29.634M5 38.4305V42.1401M5 38.4305L30.0657 37.4631M5 42.1401V46.8801M5 42.1401L30.3872 40.4255M5 46.8801V67H30.6321H33.271M5 46.8801L30.7951 44.1839M102 36.7414V38.6406L84.4093 67H59.7824M102 36.7414V35.5889M102 36.7414L62.3678 40.8839M102 35.5889V34.687M102 35.5889L62.6287 38.248M102 34.687V33.4844M102 34.687L62.8316 36.1986M102 33.4844V32.4822M102 33.4844H63.1003M102 32.4822V31.4049M102 32.4822L63.3226 31.2383M102 31.4049V30.3276M102 31.4049L63.5601 28.8396M102 30.3276V27.8125L84.4093 1H66.3161M102 30.3276L63.7959 26.4572M52.938 1H49.7569H46.9501M52.938 1H55.2591H59.7824M52.938 1L52.128 25.2752M46.9501 1H45.8274H44.7047H41.8978H40.4009M46.9501 1L46.685 24.7238M37.6684 67H35.9099H33.271M37.6684 67H41.0328H42.0795M37.6684 67L36.1112 43.6283M46.2124 67H45.6115H45.1077H44.2009H43.6635H43.1261H42.0795M46.2124 67H49.7569H50.7357M46.2124 67L46.4858 42.5439M55.2591 67H59.7824M55.2591 67H50.7357M55.2591 67L57.0106 41.4438M59.7824 1H66.3161M59.7824 1L58.0774 25.8779M59.7824 67L62.3678 40.8839M26.1088 1H30.6321H33.271M26.1088 1L28.4832 22.8798M33.271 67L30.7951 44.1839M33.271 1H35.9099H38.9039H40.4009M33.271 1L34.7713 23.5169M40.4009 1L40.9896 24.1468M42.0795 67L41.4708 43.0681M50.7357 67L51.5695 42.0125M66.3161 1L63.7959 26.4572M30.3872 40.4255L35.8731 40.055M30.3872 40.4255L30.7951 44.1839M30.3872 40.4255L30.0657 37.4631M35.8731 40.055L36.1112 43.6283M35.8731 40.055L62.6287 38.248M35.8731 40.055L34.7713 23.5169M36.1112 43.6283L30.7951 44.1839M36.1112 43.6283L41.4708 43.0681M41.4708 43.0681L46.4858 42.5439M41.4708 43.0681L40.9896 24.1468M46.4858 42.5439L51.5695 42.0125M46.4858 42.5439L46.685 24.7238M51.5695 42.0125L57.0106 41.4438M51.5695 42.0125L52.128 25.2752M57.0106 41.4438L62.3678 40.8839M57.0106 41.4438L58.0774 25.8779M62.3678 40.8839L62.6287 38.248M62.6287 38.248L62.8316 36.1986M62.8316 36.1986L63.1003 33.4844M62.8316 36.1986L30.0657 37.4631M63.1003 33.4844L63.3226 31.2383M63.1003 33.4844H29.634M63.3226 31.2383L63.5601 28.8396M63.3226 31.2383L29.2714 30.1432M63.5601 28.8396L63.7959 26.4572M63.5601 28.8396L28.8788 26.5252M63.7959 26.4572L58.0774 25.8779M58.0774 25.8779L52.128 25.2752M52.128 25.2752L46.685 24.7238M46.685 24.7238L40.9896 24.1468M40.9896 24.1468L34.7713 23.5169M34.7713 23.5169L28.4832 22.8798M28.4832 22.8798L28.8788 26.5252M28.8788 26.5252L29.2714 30.1432M29.2714 30.1432L29.634 33.4844M29.634 33.4844L30.0657 37.4631" stroke="black"/>
<path d="M5 20.5008V1H26.1088M5 20.5008V24.9317M5 20.5008L28.4832 22.8798M5 24.9317V29.3626M5 24.9317L28.8788 26.5252M5 29.3626V33.4844M5 29.3626L29.2714 30.1432M5 33.4844V38.4305M5 33.4844H29.634M5 38.4305V42.1401M5 38.4305L30.0657 37.4631M5 42.1401V46.8801M5 42.1401L30.3872 40.4255M5 46.8801V67H30.6321H33.271M5 46.8801L30.7951 44.1839M102 36.7414V38.6406L84.4093 67H59.7824M102 36.7414V35.5889M102 36.7414L62.3678 40.8839M102 35.5889V34.687M102 35.5889L62.6287 38.248M102 34.687V33.4844M102 34.687L62.8316 36.1986M102 33.4844V32.4822M102 33.4844H63.1003M102 32.4822V31.4049M102 32.4822L63.3226 31.2383M102 31.4049V30.3276M102 31.4049L63.5601 28.8396M102 30.3276V27.8125L84.4093 1H66.3161M102 30.3276L63.7959 26.4572M52.938 1H49.7569H46.9501M52.938 1H55.2591H59.7824M52.938 1L52.128 25.2752M46.9501 1H45.8274H44.7047H41.8978H40.4009M46.9501 1L46.685 24.7238M37.6684 67H35.9099H33.271M37.6684 67H41.0328H42.0795M37.6684 67L36.1112 43.6283M46.2124 67H45.6115H45.1077H44.2009H43.6635H43.1261H42.0795M46.2124 67H49.7569H50.7357M46.2124 67L46.4858 42.5439M55.2591 67H59.7824M55.2591 67H50.7357M55.2591 67L57.0106 41.4438M59.7824 1H66.3161M59.7824 1L58.0774 25.8779M59.7824 67L62.3678 40.8839M26.1088 1H30.6321H33.271M26.1088 1L28.4832 22.8798M33.271 67L30.7951 44.1839M33.271 1H35.9099H38.9039H40.4009M33.271 1L34.7713 23.5169M40.4009 1L40.9896 24.1468M42.0795 67L41.4708 43.0681M50.7357 67L51.5695 42.0125M66.3161 1L63.7959 26.4572M30.3872 40.4255L35.8731 40.055M30.3872 40.4255L30.7951 44.1839M30.3872 40.4255L30.0657 37.4631M35.8731 40.055L36.1112 43.6283M35.8731 40.055L62.6287 38.248M35.8731 40.055L34.7713 23.5169M36.1112 43.6283L30.7951 44.1839M36.1112 43.6283L41.4708 43.0681M41.4708 43.0681L46.4858 42.5439M41.4708 43.0681L40.9896 24.1468M46.4858 42.5439L51.5695 42.0125M46.4858 42.5439L46.685 24.7238M51.5695 42.0125L57.0106 41.4438M51.5695 42.0125L52.128 25.2752M57.0106 41.4438L62.3678 40.8839M57.0106 41.4438L58.0774 25.8779M62.3678 40.8839L62.6287 38.248M62.6287 38.248L62.8316 36.1986M62.8316 36.1986L63.1003 33.4844M62.8316 36.1986L30.0657 37.4631M63.1003 33.4844L63.3226 31.2383M63.1003 33.4844H29.634M63.3226 31.2383L63.5601 28.8396M63.3226 31.2383L29.2714 30.1432M63.5601 28.8396L63.7959 26.4572M63.5601 28.8396L28.8788 26.5252M63.7959 26.4572L58.0774 25.8779M58.0774 25.8779L52.128 25.2752M52.128 25.2752L46.685 24.7238M46.685 24.7238L40.9896 24.1468M40.9896 24.1468L34.7713 23.5169M34.7713 23.5169L28.4832 22.8798M28.4832 22.8798L28.8788 26.5252M28.8788 26.5252L29.2714 30.1432M29.2714 30.1432L29.634 33.4844M29.634 33.4844L30.0657 37.4631" stroke="#102D55"/>
</g>
<defs>
<filter id="filter0_d_28_10" x="0.5" y="0.5" width="106" height="75" filterUnits="userSpaceOnUse" color-interpolation-filters="sRGB">
<feFlood flood-opacity="0" result="BackgroundImageFix"/>
<feColorMatrix in="SourceAlpha" type="matrix" values="0 0 0 0 0 0 0 0 0 0 0 0 0 0 0 0 0 0 127 0" result="hardAlpha"/>
<feOffset dy="4"/>
<feGaussianBlur stdDeviation="2"/>
<feComposite in2="hardAlpha" operator="out"/>
<feColorMatrix type="matrix" values="0 0 0 0 0 0 0 0 0 0 0 0 0 0 0 0 0 0 0.25 0"/>
<feBlend mode="normal" in2="BackgroundImageFix" result="effect1_dropShadow_28_10"/>
<feBlend mode="normal" in="SourceGraphic" in2="effect1_dropShadow_28_10" result="shape"/>
</filter>
</defs>
</svg>
