<svg width="319" height="209" viewBox="0 0 319 209" fill="none" xmlns="http://www.w3.org/2000/svg">
<path fill-rule="evenodd" clip-rule="evenodd" d="M1 1V208.5H318.5V1H1ZM271 132H190.5V196H271L286.5 168V158.5L271 132ZM10.5 48V44.5H19V48H10.5ZM25.5 48V44.5H34V48H25.5ZM40.5 48V44.5H49V48H40.5ZM54.5 48V44.5H63V48H54.5ZM69 48V44.5H72V43.5H75.5V44.5H77.5V48H75.5V50H72V48H69ZM83.5 48V44.5H92V48H83.5ZM98 48V44.5H106.5V48H98ZM112.5 48V44.5H121V48H112.5ZM126 48V44.5H134.5V48H126ZM141 48V44.5H149.5V48H141ZM155.5 48V44.5H164V48H155.5ZM169.5 48V44.5H178V48H169.5ZM184 48V44.5H192.5V48H184ZM199 48V44.5H207.5V48H199ZM213 48V44.5H221.5V48H213ZM227.5 48V44.5H230.5V43.5H234V44.5H236V48H234V50H230.5V48H227.5ZM243 48V44.5H251.5V48H243ZM257 48V44.5H265.5V48H257ZM271 48V44.5H279.5V48H271ZM286.5 48V44.5H295V48H286.5ZM300 48V44.5H308.5V48H300ZM11.5 165.5V162H20V165.5H11.5ZM26 165.5V162H34.5V165.5H26ZM40.5 165.5V162H49V165.5H40.5ZM55 165.5V162H63.5V165.5H55ZM69.5 165.5V162H72.5V160.5H76V162H78V165.5H76V167H72.5V165.5H69.5ZM84 165.5V162H92.5V165.5H84ZM98 165.5V162H106.5V165.5H98ZM113 165.5V162H121.5V165.5H113ZM127 165.5V162H135.5V165.5H127ZM141.5 165.5V162H150V165.5H141.5ZM155 165.5V162H163.5V165.5H155ZM170.5 165.5V162H179V165.5H170.5ZM181 165.5V162H189.5V165.5H181ZM300 165.5V162H308.5V165.5H300ZM234 2H230.5V8.5H234V2ZM234 15H230.5V21.5H234V15ZM234.5 29.5H231V36H234.5V29.5ZM234.5 58H231V64.5H234.5V58ZM234.5 72H231V78.5H234.5V72ZM234.5 86.5H231V93H234.5V86.5ZM234.5 101H231V107.5H234.5V101ZM234.5 116.5H231V123H234.5V116.5ZM234.5 200.5H231V207H234.5V200.5ZM75.5 2H72V8.5H75.5V2ZM75.5 15.5H72V22H75.5V15.5ZM75.5 30H72V36.5H75.5V30ZM75.5 58H72V64.5H75.5V58ZM75.5 73.5H72V80H75.5V73.5ZM75.5 88H72V94.5H75.5V88ZM75.5 103H72V109.5H75.5V103ZM76 130H72.5V136.5H76V130ZM75.5 117H72V123.5H75.5V117ZM76 146.5H72.5V153H76V146.5ZM76 173.5H72.5V180H76V173.5ZM76 188H72.5V194.5H76V188ZM76 200.5H72.5V207H76V200.5Z" fill="black"/>
<path fill-rule="evenodd" clip-rule="evenodd" d="M1 1V208.5H318.5V1H1ZM271 132H190.5V196H271L286.5 168V158.5L271 132ZM10.5 48V44.5H19V48H10.5ZM25.5 48V44.5H34V48H25.5ZM40.5 48V44.5H49V48H40.5ZM54.5 48V44.5H63V48H54.5ZM69 48V44.5H72V43.5H75.5V44.5H77.5V48H75.5V50H72V48H69ZM83.5 48V44.5H92V48H83.5ZM98 48V44.5H106.5V48H98ZM112.5 48V44.5H121V48H112.5ZM126 48V44.5H134.5V48H126ZM141 48V44.5H149.5V48H141ZM155.5 48V44.5H164V48H155.5ZM169.5 48V44.5H178V48H169.5ZM184 48V44.5H192.5V48H184ZM199 48V44.5H207.5V48H199ZM213 48V44.5H221.5V48H213ZM227.5 48V44.5H230.5V43.5H234V44.5H236V48H234V50H230.5V48H227.5ZM243 48V44.5H251.5V48H243ZM257 48V44.5H265.5V48H257ZM271 48V44.5H279.5V48H271ZM286.5 48V44.5H295V48H286.5ZM300 48V44.5H308.5V48H300ZM11.5 165.5V162H20V165.5H11.5ZM26 165.5V162H34.5V165.5H26ZM40.5 165.5V162H49V165.5H40.5ZM55 165.5V162H63.5V165.5H55ZM69.5 165.5V162H72.5V160.5H76V162H78V165.5H76V167H72.5V165.5H69.5ZM84 165.5V162H92.5V165.5H84ZM98 165.5V162H106.5V165.5H98ZM113 165.5V162H121.5V165.5H113ZM127 165.5V162H135.5V165.5H127ZM141.5 165.5V162H150V165.5H141.5ZM155 165.5V162H163.5V165.5H155ZM170.5 165.5V162H179V165.5H170.5ZM181 165.5V162H189.5V165.5H181ZM300 165.5V162H308.5V165.5H300ZM234 2H230.5V8.5H234V2ZM234 15H230.5V21.5H234V15ZM234.5 29.5H231V36H234.5V29.5ZM234.5 58H231V64.5H234.5V58ZM234.5 72H231V78.5H234.5V72ZM234.5 86.5H231V93H234.5V86.5ZM234.5 101H231V107.5H234.5V101ZM234.5 116.5H231V123H234.5V116.5ZM234.5 200.5H231V207H234.5V200.5ZM75.5 2H72V8.5H75.5V2ZM75.5 15.5H72V22H75.5V15.5ZM75.5 30H72V36.5H75.5V30ZM75.5 58H72V64.5H75.5V58ZM75.5 73.5H72V80H75.5V73.5ZM75.5 88H72V94.5H75.5V88ZM75.5 103H72V109.5H75.5V103ZM76 130H72.5V136.5H76V130ZM75.5 117H72V123.5H75.5V117ZM76 146.5H72.5V153H76V146.5ZM76 173.5H72.5V180H76V173.5ZM76 188H72.5V194.5H76V188ZM76 200.5H72.5V207H76V200.5Z" fill="#EC451A"/>
<path d="M72 2H75.5V8.5H72V2Z" fill="black"/>
<path d="M72 15.5H75.5V22H72V15.5Z" fill="black"/>
<path d="M72 30H75.5V36.5H72V30Z" fill="black"/>
<path d="M169.5 44.5V48H178V44.5H169.5Z" fill="black"/>
<path d="M72 58H75.5V64.5H72V58Z" fill="black"/>
<path d="M72 73.5H75.5V80H72V73.5Z" fill="black"/>
<path d="M72 88H75.5V94.5H72V88Z" fill="black"/>
<path d="M72 103H75.5V109.5H72V103Z" fill="black"/>
<path d="M54.5 44.5V48H63V44.5H54.5Z" fill="black"/>
<path d="M72 117H75.5V123.5H72V117Z" fill="black"/>
<path d="M72.5 130H76V136.5H72.5V130Z" fill="black"/>
<path d="M72.5 146.5H76V153H72.5V146.5Z" fill="black"/>
<path d="M76 162H72.5V165.5H76V162Z" fill="black"/>
<path d="M76 160.5H72.5V162H76V160.5Z" fill="black"/>
<path d="M72.5 167H76V165.5H72.5V167Z" fill="black"/>
<path d="M69.5 162V165.5H72.5V162H69.5Z" fill="black"/>
<path d="M78 165.5V162H76V165.5H78Z" fill="black"/>
<path d="M84 162V165.5H92.5V162H84Z" fill="black"/>
<path d="M72.5 173.5H76V180H72.5V173.5Z" fill="black"/>
<path d="M72.5 188H76V194.5H72.5V188Z" fill="black"/>
<path d="M72.5 200.5H76V207H72.5V200.5Z" fill="black"/>
<path d="M40.5 162V165.5H49V162H40.5Z" fill="black"/>
<path d="M98 162V165.5H106.5V162H98Z" fill="black"/>
<path d="M55 162V165.5H63.5V162H55Z" fill="black"/>
<path d="M113 162V165.5H121.5V162H113Z" fill="black"/>
<path d="M141.5 162V165.5H150V162H141.5Z" fill="black"/>
<path d="M127 162V165.5H135.5V162H127Z" fill="black"/>
<path d="M155 162V165.5H163.5V162H155Z" fill="black"/>
<path d="M170.5 162V165.5H179V162H170.5Z" fill="black"/>
<path d="M181 162V165.5H189.5V162H181Z" fill="black"/>
<path d="M231 200.5H234.5V207H231V200.5Z" fill="black"/>
<path d="M300 44.5V48H308.5V44.5H300Z" fill="black"/>
<path d="M286.5 44.5V48H295V44.5H286.5Z" fill="black"/>
<path d="M271 44.5V48H279.5V44.5H271Z" fill="black"/>
<path d="M257 44.5V48H265.5V44.5H257Z" fill="black"/>
<path d="M243 44.5V48H251.5V44.5H243Z" fill="black"/>
<path d="M234 48V44.5H230.5V48H234Z" fill="black"/>
<path d="M227.5 44.5V48H230.5V44.5H227.5Z" fill="black"/>
<path d="M230.5 50H234V48H230.5V50Z" fill="black"/>
<path d="M234 43.5H230.5V44.5H234V43.5Z" fill="black"/>
<path d="M236 48V44.5H234V48H236Z" fill="black"/>
<path d="M199 44.5V48H207.5V44.5H199Z" fill="black"/>
<path d="M231 29.5H234.5V36H231V29.5Z" fill="black"/>
<path d="M230.5 15H234V21.5H230.5V15Z" fill="black"/>
<path d="M231 58H234.5V64.5H231V58Z" fill="black"/>
<path d="M231 72H234.5V78.5H231V72Z" fill="black"/>
<path d="M231 116.5H234.5V123H231V116.5Z" fill="black"/>
<path d="M231 101H234.5V107.5H231V101Z" fill="black"/>
<path d="M231 86.5H234.5V93H231V86.5Z" fill="black"/>
<path d="M69 44.5V48H72V44.5H69Z" fill="black"/>
<path d="M72 48H75.5V44.5H72V48Z" fill="black"/>
<path d="M75.5 43.5H72V44.5H75.5V43.5Z" fill="black"/>
<path d="M77.5 48V44.5H75.5V48H77.5Z" fill="black"/>
<path d="M72 50H75.5V48H72V50Z" fill="black"/>
<path d="M98 44.5V48H106.5V44.5H98Z" fill="black"/>
<path d="M112.5 44.5V48H121V44.5H112.5Z" fill="black"/>
<path d="M126 44.5V48H134.5V44.5H126Z" fill="black"/>
<path d="M141 44.5V48H149.5V44.5H141Z" fill="black"/>
<path d="M155.5 44.5V48H164V44.5H155.5Z" fill="black"/>
<path d="M184 44.5V48H192.5V44.5H184Z" fill="black"/>
<path d="M213 44.5V48H221.5V44.5H213Z" fill="black"/>
<path d="M230.5 2H234V8.5H230.5V2Z" fill="black"/>
<path d="M300 162V165.5H308.5V162H300Z" fill="black"/>
<path d="M10.5 44.5V48H19V44.5H10.5Z" fill="black"/>
<path d="M25.5 44.5V48H34V44.5H25.5Z" fill="black"/>
<path d="M40.5 44.5V48H49V44.5H40.5Z" fill="black"/>
<path d="M83.5 44.5V48H92V44.5H83.5Z" fill="black"/>
<path d="M11.5 162V165.5H20V162H11.5Z" fill="black"/>
<path d="M26 162V165.5H34.5V162H26Z" fill="black"/>
<path d="M72 48H69V44.5H72M72 48V50H75.5V48M72 48H75.5M72 48V44.5M75.5 48H77.5V44.5H75.5M75.5 48V44.5M75.5 44.5V43.5H72V44.5M75.5 44.5H72M230.5 48H227.5V44.5H230.5M230.5 48V50H234V48M230.5 48V44.5M230.5 48H234M234 48H236V44.5H234M234 48V44.5M234 44.5V43.5H230.5V44.5M234 44.5H230.5M72.5 165.5H69.5V162H72.5M72.5 165.5V167H76V165.5M72.5 165.5V162M72.5 165.5H76M76 165.5H78V162H76M76 165.5V162M76 162V160.5H72.5V162M76 162H72.5M1 1V208.5H318.5V1H1ZM190.5 132H271L286.5 158.5V168L271 196H190.5V132ZM10.5 44.5V48H19V44.5H10.5ZM25.5 44.5V48H34V44.5H25.5ZM40.5 44.5V48H49V44.5H40.5ZM54.5 44.5V48H63V44.5H54.5ZM83.5 44.5V48H92V44.5H83.5ZM98 44.5V48H106.5V44.5H98ZM112.5 44.5V48H121V44.5H112.5ZM126 44.5V48H134.5V44.5H126ZM141 44.5V48H149.5V44.5H141ZM155.5 44.5V48H164V44.5H155.5ZM169.5 44.5V48H178V44.5H169.5ZM184 44.5V48H192.5V44.5H184ZM199 44.5V48H207.5V44.5H199ZM213 44.5V48H221.5V44.5H213ZM243 44.5V48H251.5V44.5H243ZM257 44.5V48H265.5V44.5H257ZM271 44.5V48H279.5V44.5H271ZM286.5 44.5V48H295V44.5H286.5ZM300 44.5V48H308.5V44.5H300ZM11.5 162V165.5H20V162H11.5ZM26 162V165.5H34.5V162H26ZM40.5 162V165.5H49V162H40.5ZM55 162V165.5H63.5V162H55ZM84 162V165.5H92.5V162H84ZM98 162V165.5H106.5V162H98ZM113 162V165.5H121.5V162H113ZM127 162V165.5H135.5V162H127ZM141.5 162V165.5H150V162H141.5ZM155 162V165.5H163.5V162H155ZM170.5 162V165.5H179V162H170.5ZM181 162V165.5H189.5V162H181ZM300 162V165.5H308.5V162H300ZM230.5 2H234V8.5H230.5V2ZM230.5 15H234V21.5H230.5V15ZM231 29.5H234.5V36H231V29.5ZM231 58H234.5V64.5H231V58ZM231 72H234.5V78.5H231V72ZM231 86.5H234.5V93H231V86.5ZM231 101H234.5V107.5H231V101ZM231 116.5H234.5V123H231V116.5ZM231 200.5H234.5V207H231V200.5ZM72 2H75.5V8.5H72V2ZM72 15.5H75.5V22H72V15.5ZM72 30H75.5V36.5H72V30ZM72 58H75.5V64.5H72V58ZM72 73.5H75.5V80H72V73.5ZM72 88H75.5V94.5H72V88ZM72 103H75.5V109.5H72V103ZM72.5 130H76V136.5H72.5V130ZM72 117H75.5V123.5H72V117ZM72.5 146.5H76V153H72.5V146.5ZM72.5 173.5H76V180H72.5V173.5ZM72.5 188H76V194.5H72.5V188ZM72.5 200.5H76V207H72.5V200.5Z" stroke="black"/>
</svg>
