<svg width="98" height="66" viewBox="0 0 98 66" fill="none" xmlns="http://www.w3.org/2000/svg">
<path d="M6 31.25V34.75H14.5V31.25H6Z" fill="black"/>
<path d="M21 31.25V34.75H29.5V31.25H21Z" fill="black"/>
<path fill-rule="evenodd" clip-rule="evenodd" d="M38 31.25V34.75H41.5V35.75H45V34.75H46.5V31.25H45V29.25H41.5V31.25H38ZM53.5 31.25V34.75H62V31.25H53.5ZM67.5 31.25V34.75H76V31.25H67.5ZM81.5 31.25V34.75H90V31.25H81.5ZM41.5 5.25H45V11.75H41.5V5.25ZM41.5 16.25H45V22.75H41.5V16.25ZM41.5 41H45V47.5H41.5V41ZM41.5 53.25H45V59.75H41.5V53.25Z" fill="black"/>
<path fill-rule="evenodd" clip-rule="evenodd" d="M1 1.25H81.5L97 27.75V37.25L81.5 65.25H1V1.25ZM6 34.75V31.25H14.5V34.75H6ZM21 34.75V31.25H29.5V34.75H21ZM38 34.75V31.25H41.5V29.25H45V31.25H46.5V34.75H45V35.75H41.5V34.75H38ZM53.5 34.75V31.25H62V34.75H53.5ZM67.5 34.75V31.25H76V34.75H67.5ZM81.5 34.75V31.25H90V34.75H81.5ZM45 5.25H41.5V11.75H45V5.25ZM45 16.25H41.5V22.75H45V16.25ZM45 41H41.5V47.5H45V41ZM45 53.25H41.5V59.75H45V53.25Z" fill="black"/>
<path fill-rule="evenodd" clip-rule="evenodd" d="M1 1.25H81.5L97 27.75V37.25L81.5 65.25H1V1.25ZM6 34.75V31.25H14.5V34.75H6ZM21 34.75V31.25H29.5V34.75H21ZM38 34.75V31.25H41.5V29.25H45V31.25H46.5V34.75H45V35.75H41.5V34.75H38ZM53.5 34.75V31.25H62V34.75H53.5ZM67.5 34.75V31.25H76V34.75H67.5ZM81.5 34.75V31.25H90V34.75H81.5ZM45 5.25H41.5V11.75H45V5.25ZM45 16.25H41.5V22.75H45V16.25ZM45 41H41.5V47.5H45V41ZM45 53.25H41.5V59.75H45V53.25Z" fill="#EC451A"/>
<path d="M41.5 34.75H38V31.25H41.5M41.5 34.75V35.75H45V34.75M41.5 34.75V31.25M41.5 34.75H45M45 34.75H46.5V31.25H45M45 34.75V31.25M45 31.25V29.25H41.5V31.25M45 31.25H41.5M1 1.25H81.5L97 27.75V37.25L81.5 65.25H1V1.25ZM6 31.25V34.75H14.5V31.25H6ZM21 31.25V34.75H29.5V31.25H21ZM53.5 31.25V34.75H62V31.25H53.5ZM67.5 31.25V34.75H76V31.25H67.5ZM81.5 31.25V34.75H90V31.25H81.5ZM41.5 5.25H45V11.75H41.5V5.25ZM41.5 16.25H45V22.75H41.5V16.25ZM41.5 41H45V47.5H41.5V41ZM41.5 53.25H45V59.75H41.5V53.25Z" stroke="black"/>
</svg>
