<svg width="98" height="66" viewBox="0 0 98 66" fill="none" xmlns="http://www.w3.org/2000/svg">
<path fill-rule="evenodd" clip-rule="evenodd" d="M81.5 1H1V65H81.5L97 37V27.5L81.5 1ZM6 31V34.5H14.5V31H6ZM21 31V34.5H29.5V31H21ZM53.5 31V34.5H62V31H53.5ZM67.5 31V34.5H76V31H67.5ZM81.5 31V34.5H90V31H81.5ZM38 34.5V31H41.5H45H46.5V34.5H45H41.5H38Z" fill="black"/>
<path fill-rule="evenodd" clip-rule="evenodd" d="M81.5 1H1V65H81.5L97 37V27.5L81.5 1ZM6 31V34.5H14.5V31H6ZM21 31V34.5H29.5V31H21ZM53.5 31V34.5H62V31H53.5ZM67.5 31V34.5H76V31H67.5ZM81.5 31V34.5H90V31H81.5ZM38 34.5V31H41.5H45H46.5V34.5H45H41.5H38Z" fill="#EC451A"/>
<path d="M6 31V34.5H14.5V31H6Z" fill="black"/>
<path d="M6 31V34.5H14.5V31H6Z" fill="black"/>
<path d="M21 31V34.5H29.5V31H21Z" fill="black"/>
<path d="M38 31V34.5H41.5H45H46.5V31H45H41.5H38Z" fill="black"/>
<path d="M53.5 31V34.5H62V31H53.5Z" fill="black"/>
<path d="M53.5 31V34.5H62V31H53.5Z" fill="black"/>
<path d="M67.5 31V34.5H76V31H67.5Z" fill="black"/>
<path d="M67.5 31V34.5H76V31H67.5Z" fill="black"/>
<path d="M81.5 31V34.5H90V31H81.5Z" fill="black"/>
<path d="M81.5 31V34.5H90V31H81.5Z" fill="black"/>
<path fill-rule="evenodd" clip-rule="evenodd" d="M81.5 1H1V65H81.5L97 37V27.5L81.5 1ZM6 31V34.5H14.5V31H6ZM21 31V34.5H29.5V31H21ZM53.5 31V34.5H62V31H53.5ZM67.5 31V34.5H76V31H67.5ZM81.5 31V34.5H90V31H81.5ZM38 34.5V31H41.5H45H46.5V34.5H45H41.5H38Z" stroke="black"/>
<path d="M6 31V34.5H14.5V31H6Z" stroke="black"/>
<path d="M21 31V34.5H29.5V31H21Z" stroke="black"/>
<path d="M38 31V34.5H41.5H45H46.5V31H45H41.5H38Z" stroke="black"/>
<path d="M53.5 31V34.5H62V31H53.5Z" stroke="black"/>
<path d="M67.5 31V34.5H76V31H67.5Z" stroke="black"/>
<path d="M81.5 31V34.5H90V31H81.5Z" stroke="black"/>
</svg>
