<svg width="98" height="66" viewBox="0 0 98 66" fill="none" xmlns="http://www.w3.org/2000/svg">
<path d="M41.5 5H45V11.5H41.5V5Z" fill="black"/>
<path d="M41.5 5H45V11.5H41.5V5Z" fill="black"/>
<path fill-rule="evenodd" clip-rule="evenodd" d="M81.5 1H1V65H81.5L97 37V27.5L81.5 1ZM41.5 5H45V11.5H41.5V5ZM41.5 16H45V22.5H41.5V16ZM41.5 40.75H45V47.25H41.5V40.75ZM41.5 53H45V59.5H41.5V53ZM45 29H41.5V35.5H45V29Z" fill="black"/>
<path fill-rule="evenodd" clip-rule="evenodd" d="M81.5 1H1V65H81.5L97 37V27.5L81.5 1ZM41.5 5H45V11.5H41.5V5ZM41.5 16H45V22.5H41.5V16ZM41.5 40.75H45V47.25H41.5V40.75ZM41.5 53H45V59.5H41.5V53ZM45 29H41.5V35.5H45V29Z" fill="#EC451A"/>
<path d="M41.5 5H45V11.5H41.5V5Z" stroke="black"/>
<path fill-rule="evenodd" clip-rule="evenodd" d="M81.5 1H1V65H81.5L97 37V27.5L81.5 1ZM41.5 5H45V11.5H41.5V5ZM41.5 16H45V22.5H41.5V16ZM41.5 40.75H45V47.25H41.5V40.75ZM41.5 53H45V59.5H41.5V53ZM45 29H41.5V35.5H45V29Z" stroke="black"/>
</svg>
