<svg width="98" height="66" viewBox="0 0 98 66" fill="none" xmlns="http://www.w3.org/2000/svg">
<path d="M8.5 9.5L10.5 7.5L15.5 12.5L13.5 14.5L8.5 9.5Z" fill="black"/>
<path d="M21 19L23 17L28 22L26 24L21 19Z" fill="black"/>
<path d="M32.5 27.5L34.5 25.5L39.5 30.5L37.5 32.5L32.5 27.5Z" fill="black"/>
<path d="M51 25.5L45 30.5L47 32.5L53 27.5L51 25.5Z" fill="black"/>
<path d="M63 17L57 22L59 24L65 19L63 17Z" fill="black"/>
<path d="M75.5 6.5L69.5 11.5L71.5 13.5L77.5 8.5L75.5 6.5Z" fill="black"/>
<path d="M38.5 35L32.5 40L34.5 42L40.5 37L38.5 35Z" fill="black"/>
<path d="M46 37L48 35L53 40L51 42L46 37Z" fill="black"/>
<path d="M26 44.5L20 49.5L22 51.5L28 46.5L26 44.5Z" fill="black"/>
<path d="M58 46.5L60 44.5L65 49.5L63 51.5L58 46.5Z" fill="black"/>
<path d="M69.5 55.5L71.5 53.5L76.5 58.5L74.5 60.5L69.5 55.5Z" fill="black"/>
<path d="M14 53.5L8 58.5L10 60.5L16 55.5L14 53.5Z" fill="black"/>
<path fill-rule="evenodd" clip-rule="evenodd" d="M1 1H81.5L97 27.5V37L81.5 65H1V1ZM69.5 11.5L75.5 6.5L77.5 8.5L71.5 13.5L69.5 11.5ZM57 22L63 17L65 19L59 24L57 22ZM45 30.5L51 25.5L53 27.5L47 32.5L45 30.5ZM32.5 40L38.5 35L40.5 37L34.5 42L32.5 40ZM20 49.5L26 44.5L28 46.5L22 51.5L20 49.5ZM8 58.5L14 53.5L16 55.5L10 60.5L8 58.5ZM10.5 7.5L8.5 9.5L13.5 14.5L15.5 12.5L10.5 7.5ZM23 17L21 19L26 24L28 22L23 17ZM34.5 25.5L32.5 27.5L37.5 32.5L39.5 30.5L34.5 25.5ZM48 35L46 37L51 42L53 40L48 35ZM60 44.5L58 46.5L63 51.5L65 49.5L60 44.5ZM71.5 53.5L69.5 55.5L74.5 60.5L76.5 58.5L71.5 53.5Z" fill="#EC451A"/>
<path d="M8.5 9.5L10.5 7.5L15.5 12.5L13.5 14.5L8.5 9.5Z" stroke="black"/>
<path d="M21 19L23 17L28 22L26 24L21 19Z" stroke="black"/>
<path d="M32.5 27.5L34.5 25.5L39.5 30.5L37.5 32.5L32.5 27.5Z" stroke="black"/>
<path d="M51 25.5L45 30.5L47 32.5L53 27.5L51 25.5Z" stroke="black"/>
<path d="M63 17L57 22L59 24L65 19L63 17Z" stroke="black"/>
<path d="M75.5 6.5L69.5 11.5L71.5 13.5L77.5 8.5L75.5 6.5Z" stroke="black"/>
<path d="M38.5 35L32.5 40L34.5 42L40.5 37L38.5 35Z" stroke="black"/>
<path d="M46 37L48 35L53 40L51 42L46 37Z" stroke="black"/>
<path d="M26 44.5L20 49.5L22 51.5L28 46.5L26 44.5Z" stroke="black"/>
<path d="M58 46.5L60 44.5L65 49.5L63 51.5L58 46.5Z" stroke="black"/>
<path d="M69.5 55.5L71.5 53.5L76.5 58.5L74.5 60.5L69.5 55.5Z" stroke="black"/>
<path d="M14 53.5L8 58.5L10 60.5L16 55.5L14 53.5Z" stroke="black"/>
<path fill-rule="evenodd" clip-rule="evenodd" d="M1 1H81.5L97 27.5V37L81.5 65H1V1ZM69.5 11.5L75.5 6.5L77.5 8.5L71.5 13.5L69.5 11.5ZM57 22L63 17L65 19L59 24L57 22ZM45 30.5L51 25.5L53 27.5L47 32.5L45 30.5ZM32.5 40L38.5 35L40.5 37L34.5 42L32.5 40ZM20 49.5L26 44.5L28 46.5L22 51.5L20 49.5ZM8 58.5L14 53.5L16 55.5L10 60.5L8 58.5ZM10.5 7.5L8.5 9.5L13.5 14.5L15.5 12.5L10.5 7.5ZM23 17L21 19L26 24L28 22L23 17ZM34.5 25.5L32.5 27.5L37.5 32.5L39.5 30.5L34.5 25.5ZM48 35L46 37L51 42L53 40L48 35ZM60 44.5L58 46.5L63 51.5L65 49.5L60 44.5ZM71.5 53.5L69.5 55.5L74.5 60.5L76.5 58.5L71.5 53.5Z" stroke="black"/>
</svg>
