<svg width="98" height="66" viewBox="0 0 98 66" fill="none" xmlns="http://www.w3.org/2000/svg">
<path d="M1 65H41.5V34H1V65Z" fill="black"/>
<path d="M1 65H41.5V34H1V65Z" fill="#EC451A"/>
<path d="M1 65H41.5V34H1V65Z" fill="black"/>
<path d="M41.5 1H1V30H41.5V1Z" fill="black"/>
<path d="M41.5 1H1V30H41.5V1Z" fill="#EC451A"/>
<path d="M41.5 1H1V30H41.5V1Z" fill="black"/>
<path d="M81.5 1H45.5V30H97V27.5L81.5 1Z" fill="black"/>
<path d="M81.5 1H45.5V30H97V27.5L81.5 1Z" fill="#EC451A"/>
<path d="M81.5 1H45.5V30H97V27.5L81.5 1Z" fill="black"/>
<path d="M97 37V34H45.5V65H81.5L97 37Z" fill="black"/>
<path d="M97 37V34H45.5V65H81.5L97 37Z" fill="#EC451A"/>
<path d="M97 37V34H45.5V65H81.5L97 37Z" fill="black"/>
<path d="M45.5 1H41.5V30H1V33.5V34H41.5V65H45.5V34H97V30H45.5V1Z" fill="black"/>
<path d="M45.5 1H41.5V30H1V33.5V34H41.5V65H45.5V34H97V30H45.5V1Z" fill="#EC451A"/>
<path d="M1 1H81.5M1 1V65M1 1H41.5M1 1V30M81.5 1L97 27.5M81.5 1H45.5M97 27.5V37M97 27.5V30M97 37L81.5 65M97 37V34M81.5 65H1M81.5 65H45.5M1 65H41.5M1 65V34M1 30V33.5V34M1 30H41.5V1M41.5 1H45.5M45.5 1V30H97M97 30V34M97 34H45.5V65M45.5 65H41.5M41.5 65V34H1" stroke="black"/>
</svg>
