<svg width="323" height="212" viewBox="0 0 323 212" fill="none" xmlns="http://www.w3.org/2000/svg">
<path d="M2.62227 42.0855L2.51056 53.7518H322V44.1145L2.62227 42.0855Z" fill="white"/>
<path d="M2.21913 84.1855L2.09285 97.3735H322V84.1855H2.21913Z" fill="white"/>
<path d="M193.499 134.401H274.631L276.225 136.937H322V121.72H1.85971L1.71399 136.937H193.499V134.401Z" fill="white"/>
<path d="M1.55857 153.169L1.374 172.443H193.499V153.422L1.55857 153.169Z" fill="white"/>
<path d="M290.253 159.255V172.443H322V153.169H286.427L290.253 159.255Z" fill="white"/>
<path d="M274.631 199.327H193.499V183.095H1.272L1.09228 201.863H322V183.095H284.063L274.631 199.327Z" fill="white"/>
<path d="M1.02429 208.964L1 211.5H322V208.964H1.02429Z" fill="white"/>
<path d="M3.0157 1L2.62227 42.0855L322 44.1145V2.52169L3.0157 1Z" fill="#F6623A"/>
<path d="M2.51056 53.7518L2.21913 84.1855H322V53.7518H2.51056Z" fill="white"/>
<path d="M2.51056 53.7518L2.21913 84.1855H322V53.7518H2.51056Z" fill="#F6623A"/>
<path d="M2.09285 97.3735L1.85971 121.72H322V97.3735H2.09285Z" fill="white"/>
<path d="M2.09285 97.3735L1.85971 121.72H322V97.3735H2.09285Z" fill="#F6623A"/>
<path d="M1.71399 136.937L1.55857 153.169L193.499 153.422V136.937H1.71399Z" fill="white"/>
<path d="M1.71399 136.937L1.55857 153.169L193.499 153.422V136.937H1.71399Z" fill="#F6623A"/>
<path d="M1.374 172.443L1.272 183.095H193.499V172.443H1.374Z" fill="white"/>
<path d="M1.374 172.443L1.272 183.095H193.499V172.443H1.374Z" fill="#F6623A"/>
<path d="M1.09228 201.863L1.02429 208.964H322V201.863H1.09228Z" fill="white"/>
<path d="M1.09228 201.863L1.02429 208.964H322V201.863H1.09228Z" fill="#F6623A"/>
<path d="M322 183.095V172.443H290.253L284.063 183.095H322Z" fill="white"/>
<path d="M322 183.095V172.443H290.253L284.063 183.095H322Z" fill="#F6623A"/>
<path d="M322 153.169V136.937H276.225L286.427 153.169H322Z" fill="white"/>
<path d="M322 153.169V136.937H276.225L286.427 153.169H322Z" fill="#F6623A"/>
<path d="M290.253 172.443V159.255L286.427 153.169M290.253 172.443L284.063 183.095M290.253 172.443H322M3.0157 1L1 211.5M3.0157 1L322 2.52169M3.0157 1L2.62227 42.0855M1 211.5H322M1 211.5L1.02429 208.964M322 211.5V2.52169M322 211.5V208.964M322 2.52169V44.1145M2.62227 42.0855L322 44.1145M2.62227 42.0855L2.51056 53.7518M322 44.1145V53.7518M2.51056 53.7518L2.21913 84.1855M2.51056 53.7518H322M2.21913 84.1855H322M2.21913 84.1855L2.09285 97.3735M322 84.1855V53.7518M322 84.1855V97.3735M2.09285 97.3735L1.85971 121.72M2.09285 97.3735H322M1.85971 121.72H322M1.85971 121.72L1.71399 136.937M322 121.72V97.3735M322 121.72V136.937M1.71399 136.937L1.55857 153.169M1.71399 136.937H193.499M1.55857 153.169L193.499 153.422M1.55857 153.169L1.374 172.443M322 153.169V136.937M322 153.169H286.427M322 153.169V172.443M322 136.937H276.225M1.374 172.443L1.272 183.095M1.374 172.443H193.499M1.272 183.095H193.499M1.272 183.095L1.09228 201.863M322 183.095V172.443M322 183.095H284.063M322 183.095V201.863M1.09228 201.863L1.02429 208.964M1.09228 201.863H322M1.02429 208.964H322M322 208.964V201.863M193.499 172.443V183.095M193.499 172.443V153.422M193.499 183.095V199.327H274.631L284.063 183.095M193.499 153.422V136.937M193.499 136.937V134.401H274.631L276.225 136.937M276.225 136.937L286.427 153.169" stroke="black"/>
</svg>
