<svg width="99" height="68" viewBox="0 0 99 68" fill="none" xmlns="http://www.w3.org/2000/svg">
<path fill-rule="evenodd" clip-rule="evenodd" d="M1 1H82.3385L83.9367 3.55844L85.4856 6.03817H1V3.55844V1ZM1 34.7557H98V39.3767L91.7945 50.1221H1V39.3767V34.7557ZM1 56.4198V66.4962L81.6684 67L88.0161 56.4198H1Z" fill="#F6623A"/>
<path d="M98 34.7557V26.0728L94.1645 19.9325L85.4856 6.03817H1V20.1883V34.7557H98Z" fill="#F6623A"/>
<path d="M98 34.7557V26.0728L94.1645 19.9325L85.4856 6.03817H1V20.1883V34.7557H98Z" fill="white"/>
<path d="M1 50.1221V56.4198H88.0161L91.7945 50.1221H1Z" fill="#F6623A"/>
<path d="M1 50.1221V56.4198H88.0161L91.7945 50.1221H1Z" fill="white"/>
<path d="M1 1H82.3385M1 1V3.55844M1 1V6.03817M82.3385 1L83.9367 3.55844M82.3385 1L85.4856 6.03817M98 26.0728V39.3767M98 26.0728L94.1645 19.9325M98 26.0728V34.7557M98 39.3767L91.7945 50.1221M98 39.3767V34.7557M81.6684 67L1 66.4962M81.6684 67L91.7945 50.1221M81.6684 67L88.0161 56.4198M1 66.4962V50.1221M1 66.4962V56.4198M1 50.1221V39.3767M1 50.1221V34.7557M1 50.1221H91.7945M1 50.1221V56.4198M1 39.3767V20.1883M1 39.3767V34.7557M1 20.1883V3.55844M1 20.1883V34.7557M1 20.1883V6.03817M1 3.55844V6.03817M83.9367 3.55844L94.1645 19.9325M83.9367 3.55844L85.4856 6.03817M94.1645 19.9325L85.4856 6.03817M91.7945 50.1221L88.0161 56.4198M1 6.03817H85.4856M1 34.7557H98M1 56.4198H88.0161" stroke="black"/>
</svg>
