<svg width="99" height="68" viewBox="0 0 99 68" fill="none" xmlns="http://www.w3.org/2000/svg">
<path d="M7.92857 1H1V3.55844V20.1883V39.3767V50.1221V66.4962H7.92857V1Z" fill="#D9D9D9"/>
<path d="M7.92857 1H1V3.55844V20.1883V39.3767V50.1221V66.4962H7.92857V1Z" fill="#F6623A"/>
<path d="M42.5714 1H30.6939V66.4962H42.5714V1Z" fill="#D9D9D9"/>
<path d="M42.5714 1H30.6939V66.4962H42.5714V1Z" fill="#F6623A"/>
<path d="M79.6888 1H65.3367V66.4962H79.6888V1Z" fill="#D9D9D9"/>
<path d="M79.6888 1H65.3367V66.4962H79.6888V1Z" fill="#F6623A"/>
<path d="M30.6939 1H7.92857V66.4962H1L81.6684 67L91.7945 50.1221L98 39.3767V26.0728L94.1645 19.9325L83.9367 3.55844L82.3385 1H79.6888V66.4962H65.3367V1H42.5714V66.4962H30.6939V1Z" fill="#D9D9D9"/>
<path d="M30.6939 1H7.92857V66.4962H1L81.6684 67L91.7945 50.1221L98 39.3767V26.0728L94.1645 19.9325L83.9367 3.55844L82.3385 1H79.6888V66.4962H65.3367V1H42.5714V66.4962H30.6939V1Z" fill="white"/>
<path d="M1 1H82.3385M1 1V3.55844V20.1883V39.3767V50.1221V66.4962M1 1H7.92857M1 1V66.4962M82.3385 1L83.9367 3.55844L94.1645 19.9325L98 26.0728V39.3767L91.7945 50.1221L81.6684 67L1 66.4962M82.3385 1H79.6888M1 66.4962H7.92857V1M7.92857 1H30.6939M30.6939 1H42.5714M30.6939 1V66.4962H42.5714V1M42.5714 1H65.3367M65.3367 1H79.6888M65.3367 1V66.4962H79.6888V1" stroke="black"/>
</svg>
