<svg width="99" height="68" viewBox="0 0 99 68" fill="none" xmlns="http://www.w3.org/2000/svg">
<path d="M13.3724 1H8.42347V66.5704L13.3724 66.5994V1Z" fill="#FCC4AD"/>
<path d="M13.3724 1H8.42347V66.5704L13.3724 66.5994V1Z" fill="white"/>
<path d="M23.7653 1H20.301V66.6401L23.7653 66.6604V1Z" fill="#FCC4AD"/>
<path d="M23.7653 1H20.301V66.6401L23.7653 66.6604V1Z" fill="white"/>
<path d="M35.6429 1H31.1888L30.6939 66.6753L25.5208 66.6707L36.1377 66.733L35.6429 1Z" fill="#FCC4AD"/>
<path d="M35.6429 1H31.1888L30.6939 66.6753L25.5208 66.6707L36.1377 66.733L35.6429 1Z" fill="white"/>
<path d="M46.5306 1H43.0663V66.7736L46.5306 66.7939V1Z" fill="#FCC4AD"/>
<path d="M46.5306 1H43.0663V66.7736L46.5306 66.7939V1Z" fill="white"/>
<path d="M57.9133 1H53.4592V66.8346L57.9133 66.8607V1Z" fill="#FCC4AD"/>
<path d="M57.9133 1H53.4592V66.8346L57.9133 66.8607V1Z" fill="white"/>
<path d="M69.7908 1H65.3367L64.842 66.9013L69.7908 66.9303V1Z" fill="#FCC4AD"/>
<path d="M69.7908 1H65.3367L64.842 66.9013L69.7908 66.9303V1Z" fill="white"/>
<path d="M82.3385 1H76.7194V66.971L81.6684 67L82.3385 1Z" fill="#FCC4AD"/>
<path d="M82.3385 1H76.7194V66.971L81.6684 67L82.3385 1Z" fill="white"/>
<path d="M89.0506 11.7505L88.5969 55.4675L91.0714 51.3487V14.9872L89.0506 11.7505Z" fill="#FCC4AD"/>
<path d="M89.0506 11.7505L88.5969 55.4675L91.0714 51.3487V14.9872L89.0506 11.7505Z" fill="white"/>
<path d="M8.42347 1H1V3.55964V20.1973V39.3947V50.1452V66.5269L8.42347 66.5704V1Z" fill="#FCC4AD"/>
<path d="M8.42347 1H1V3.55964V20.1973V39.3947V50.1452V66.5269L8.42347 66.5704V1Z" fill="#F6623A"/>
<path fill-rule="evenodd" clip-rule="evenodd" d="M23.7653 66.6691V66.6604L25.5208 66.6707L23.7653 66.6691Z" fill="#FCC4AD"/>
<path fill-rule="evenodd" clip-rule="evenodd" d="M43.0663 66.7736L36.1377 66.733L36.1378 66.7402L43.0663 66.7835V66.7736Z" fill="#FCC4AD"/>
<path fill-rule="evenodd" clip-rule="evenodd" d="M46.5306 66.8114V66.7939L53.4592 66.8346V66.8547L46.5306 66.8114Z" fill="#FCC4AD"/>
<path fill-rule="evenodd" clip-rule="evenodd" d="M57.9133 66.8825V66.8607L64.842 66.9013L64.8418 66.9258L57.9133 66.8825Z" fill="#FCC4AD"/>
<path fill-rule="evenodd" clip-rule="evenodd" d="M69.7908 66.9938V66.9303L76.7194 66.971V67L69.7908 66.9938Z" fill="#FCC4AD"/>
<path d="M83.9367 3.55964L82.3385 1L81.6684 67L88.5969 55.4675L89.0506 11.7505L83.9367 3.55964Z" fill="#FCC4AD"/>
<path d="M83.9367 3.55964L82.3385 1L81.6684 67L88.5969 55.4675L89.0506 11.7505L83.9367 3.55964Z" fill="#F6623A"/>
<path d="M98 39.3947V26.0845L94.1645 19.9414L91.0714 14.9872V51.3487L91.7945 50.1452L98 39.3947Z" fill="#FCC4AD"/>
<path d="M98 39.3947V26.0845L94.1645 19.9414L91.0714 14.9872V51.3487L91.7945 50.1452L98 39.3947Z" fill="#F6623A"/>
<path d="M20.301 1H13.3724V66.5994L20.301 66.6401V1Z" fill="#FCC4AD"/>
<path d="M20.301 1H13.3724V66.5994L20.301 66.6401V1Z" fill="#F6623A"/>
<path d="M31.1888 1H23.7653V66.6604L25.5208 66.6707L30.6939 66.6753L31.1888 1Z" fill="#FCC4AD"/>
<path d="M31.1888 1H23.7653V66.6604L25.5208 66.6707L30.6939 66.6753L31.1888 1Z" fill="#F6623A"/>
<path d="M43.0663 1H35.6429L36.1377 66.733L43.0663 66.7736V1Z" fill="#FCC4AD"/>
<path d="M43.0663 1H35.6429L36.1377 66.733L43.0663 66.7736V1Z" fill="#F6623A"/>
<path d="M53.4592 1H46.5306V66.7939L53.4592 66.8346V1Z" fill="#FCC4AD"/>
<path d="M53.4592 1H46.5306V66.7939L53.4592 66.8346V1Z" fill="#F6623A"/>
<path d="M65.3367 1H57.9133V66.8607L64.842 66.9013L65.3367 1Z" fill="#FCC4AD"/>
<path d="M65.3367 1H57.9133V66.8607L64.842 66.9013L65.3367 1Z" fill="#F6623A"/>
<path d="M76.7194 1H69.7908V66.9303L76.7194 66.971V1Z" fill="#FCC4AD"/>
<path d="M76.7194 1H69.7908V66.9303L76.7194 66.971V1Z" fill="#F6623A"/>
<path d="M1 1H82.3385M1 1V3.55964V20.1973V39.3947V50.1452V66.5269M1 1H8.42347M1 1V66.5269M82.3385 1L83.9367 3.55964M82.3385 1L89.0506 11.7505M82.3385 1L81.6684 67M82.3385 1H76.7194M98 26.0845V39.3947L91.7945 50.1452L91.0714 51.3487M98 26.0845L94.1645 19.9414L91.0714 14.9872M98 26.0845L91.0714 14.9872M81.6684 67L88.5969 55.4675M81.6684 67L91.0714 51.3487M81.6684 67L76.7194 66.971M1 66.5269L8.42347 66.5733V66.5704M1 66.5269L8.42347 66.5704M83.9367 3.55964L91.0714 14.9872M83.9367 3.55964L89.0506 11.7505M8.42347 1H13.3724M8.42347 1V66.5704M13.3724 1H20.301M13.3724 1V66.5994M20.301 1V66.6401M20.301 1H23.7653M20.301 66.6401L13.3724 66.5994M20.301 66.6401L23.7653 66.6604M13.3724 66.5994L8.42347 66.5704M23.7653 1H31.1888M23.7653 1V66.6604M31.1888 1L30.6939 66.6753L25.5208 66.6707M31.1888 1H35.6429M35.6429 1H43.0663M35.6429 1L36.1377 66.733M43.0663 1H46.5306M43.0663 1V66.7736M46.5306 1H53.4592M46.5306 1V66.7939M53.4592 1H57.9133M53.4592 1V66.8346M57.9133 1H65.3367M57.9133 1V66.8607M65.3367 1H69.7908M65.3367 1L64.842 66.9013M69.7908 1H76.7194M69.7908 1V66.9303M76.7194 1V66.971M89.0506 11.7505L88.5969 55.4675M89.0506 11.7505L91.0714 14.9872M88.5969 55.4675L91.0714 51.3487M91.0714 14.9872V51.3487M8.42347 66.5704L23.7653 66.6604M23.7653 66.6604V66.6691L25.5208 66.6707M23.7653 66.6604L25.5208 66.6707M25.5208 66.6707L36.1377 66.733M36.1377 66.733L36.1378 66.7402L43.0663 66.7835V66.7736M36.1377 66.733L43.0663 66.7736M43.0663 66.7736L46.5306 66.7939M46.5306 66.7939V66.8114L53.4592 66.8547V66.8346M46.5306 66.7939L53.4592 66.8346M53.4592 66.8346L57.9133 66.8607M57.9133 66.8607V66.8825L64.8418 66.9258L64.842 66.9013M57.9133 66.8607L64.842 66.9013M64.842 66.9013L69.7908 66.9303M69.7908 66.9303V66.9938L76.7194 67V66.971M69.7908 66.9303L76.7194 66.971" stroke="black"/>
</svg>
