<svg width="99" height="68" viewBox="0 0 99 68" fill="none" xmlns="http://www.w3.org/2000/svg">
<path d="M32.1786 1H25.7449V6.54198V11.7455V23.6718V28.7099V39.8766V45.3359V56.4198V61.9618V66.6507L32.1786 66.6909V61.9618V56.4198V45.3359V39.8766V28.7099V23.6718V11.7455V6.54198V1Z" fill="#F6623A"/>
<path d="M56.4286 1H49.9949V6.54198V11.7455V23.6718V28.7099V39.8766V45.3359V56.4198V61.9618V66.8022L56.4286 66.8424V61.9618V56.4198V45.3359V39.8766V28.7099V23.6718V11.7455V6.54198V1Z" fill="#F6623A"/>
<path d="M80.1837 1H73.2551V6.54198V11.7455V23.6718V28.7099V39.8766V45.3359V56.4198V61.9618V66.9475L80.1837 66.9907V61.9618V56.4198V45.3359V39.8766V28.7099V23.6718V11.7455V6.54198V1Z" fill="#F6623A"/>
<path d="M7.92857 1H1V3.55844V20.1883V39.3767V50.1221V66.4962L7.92857 66.5395V61.9618V56.4198V45.3359V39.8766V28.7099V23.6718V11.7455V6.54198V1Z" fill="#F6623A"/>
<path d="M7.92857 39.8766V45.3359H25.7449V39.8766H7.92857Z" fill="#F6623A"/>
<path fill-rule="evenodd" clip-rule="evenodd" d="M96.5002 23.6718H80.1837H73.2551H56.4286H49.9949H32.1786H25.7449V28.7099H32.1786H49.9949H56.4286H73.2551H80.1837H98V26.0728L96.5002 23.6718Z" fill="#F6623A"/>
<path d="M7.92857 23.6718V28.7099H25.7449V23.6718H7.92857Z" fill="#F6623A"/>
<path d="M7.92857 6.54198V11.7455H25.7449V6.54198H7.92857Z" fill="#F6623A"/>
<path d="M32.1786 6.54198V11.7455H49.9949V6.54198H32.1786Z" fill="#F6623A"/>
<path d="M49.9949 39.8766H32.1786V45.3359H49.9949V39.8766Z" fill="#F6623A"/>
<path d="M32.1786 61.9618H49.9949V56.4198H32.1786V61.9618Z" fill="#F6623A"/>
<path d="M56.4286 56.4198V61.9618H73.2551V56.4198H56.4286Z" fill="#F6623A"/>
<path d="M56.4286 45.3359H73.2551V39.8766H56.4286V45.3359Z" fill="#F6623A"/>
<path d="M94.5586 45.3359L97.7113 39.8766H80.1837V45.3359H94.5586Z" fill="#F6623A"/>
<path d="M84.6911 61.9618L88.0161 56.4198H80.1837V61.9618H84.6911Z" fill="#F6623A"/>
<path d="M89.0506 11.7455L85.8003 6.54198H80.1837V11.7455H89.0506Z" fill="#F6623A"/>
<path d="M73.2551 11.7455V6.54198H56.4286V11.7455H73.2551Z" fill="#F6623A"/>
<path d="M7.92857 56.4198V61.9618H25.7449V56.4198H7.92857Z" fill="#F6623A"/>
<path d="M25.7449 1H7.92857V6.54198H25.7449V1Z" fill="#F6623A"/>
<path d="M25.7449 1H7.92857V6.54198H25.7449V1Z" fill="white"/>
<path d="M49.9949 1H32.1786V6.54198H49.9949V1Z" fill="#F6623A"/>
<path d="M49.9949 1H32.1786V6.54198H49.9949V1Z" fill="white"/>
<path d="M73.2551 1H56.4286V6.54198H73.2551V1Z" fill="#F6623A"/>
<path d="M73.2551 1H56.4286V6.54198H73.2551V1Z" fill="white"/>
<path d="M7.92857 11.7455V23.6718H25.7449V11.7455H7.92857Z" fill="#F6623A"/>
<path d="M7.92857 11.7455V23.6718H25.7449V11.7455H7.92857Z" fill="white"/>
<path d="M32.1786 23.6718H49.9949V11.7455H32.1786V23.6718Z" fill="#F6623A"/>
<path d="M32.1786 23.6718H49.9949V11.7455H32.1786V23.6718Z" fill="white"/>
<path d="M73.2551 11.7455H56.4286V23.6718H73.2551V11.7455Z" fill="#F6623A"/>
<path d="M73.2551 11.7455H56.4286V23.6718H73.2551V11.7455Z" fill="white"/>
<path d="M94.1645 19.9325L89.0506 11.7455H80.1837V23.6718H96.5002L94.1645 19.9325Z" fill="#F6623A"/>
<path d="M94.1645 19.9325L89.0506 11.7455H80.1837V23.6718H96.5002L94.1645 19.9325Z" fill="white"/>
<path d="M7.92857 28.7099V39.8766H25.7449V28.7099H7.92857Z" fill="#F6623A"/>
<path d="M7.92857 28.7099V39.8766H25.7449V28.7099H7.92857Z" fill="white"/>
<path d="M49.9949 28.7099H32.1786V39.8766H49.9949V28.7099Z" fill="#F6623A"/>
<path d="M49.9949 28.7099H32.1786V39.8766H49.9949V28.7099Z" fill="white"/>
<path d="M56.4286 39.8766H73.2551V28.7099H56.4286V39.8766Z" fill="#F6623A"/>
<path d="M56.4286 39.8766H73.2551V28.7099H56.4286V39.8766Z" fill="white"/>
<path d="M7.92857 45.3359V56.4198H25.7449V45.3359H7.92857Z" fill="#F6623A"/>
<path d="M7.92857 45.3359V56.4198H25.7449V45.3359H7.92857Z" fill="white"/>
<path d="M7.92857 66.5395L25.7449 66.6507V61.9618H7.92857V66.5395Z" fill="#F6623A"/>
<path d="M7.92857 66.5395L25.7449 66.6507V61.9618H7.92857V66.5395Z" fill="white"/>
<path d="M49.9949 45.3359H32.1786V56.4198H49.9949V45.3359Z" fill="#F6623A"/>
<path d="M49.9949 45.3359H32.1786V56.4198H49.9949V45.3359Z" fill="white"/>
<path d="M32.1786 66.6909L49.9949 66.8022V61.9618H32.1786V66.6909Z" fill="#F6623A"/>
<path d="M32.1786 66.6909L49.9949 66.8022V61.9618H32.1786V66.6909Z" fill="white"/>
<path d="M56.4286 56.4198H73.2551V45.3359H56.4286V56.4198Z" fill="#F6623A"/>
<path d="M56.4286 56.4198H73.2551V45.3359H56.4286V56.4198Z" fill="white"/>
<path d="M56.4286 66.8424L73.2551 66.9475V61.9618H56.4286V66.8424Z" fill="#F6623A"/>
<path d="M56.4286 66.8424L73.2551 66.9475V61.9618H56.4286V66.8424Z" fill="white"/>
<path d="M98 39.3767V28.7099H80.1837V39.8766H97.7113L98 39.3767Z" fill="#F6623A"/>
<path d="M98 39.3767V28.7099H80.1837V39.8766H97.7113L98 39.3767Z" fill="white"/>
<path d="M91.7945 50.1221L94.5586 45.3359H80.1837V56.4198H88.0161L91.7945 50.1221Z" fill="#F6623A"/>
<path d="M91.7945 50.1221L94.5586 45.3359H80.1837V56.4198H88.0161L91.7945 50.1221Z" fill="white"/>
<path d="M80.1837 66.9907L81.6684 67L84.6911 61.9618H80.1837V66.9907Z" fill="#F6623A"/>
<path d="M80.1837 66.9907L81.6684 67L84.6911 61.9618H80.1837V66.9907Z" fill="white"/>
<path d="M82.3385 1H80.1837V6.54198H85.8003L83.9367 3.55844L82.3385 1Z" fill="#F6623A"/>
<path d="M82.3385 1H80.1837V6.54198H85.8003L83.9367 3.55844L82.3385 1Z" fill="white"/>
<path d="M1 1H82.3385M1 1V3.55844V20.1883V39.3767V50.1221V66.4962M1 1H7.92857M1 1V66.4962M82.3385 1L83.9367 3.55844M82.3385 1H80.1837M98 26.0728V39.3767M98 26.0728L94.1645 19.9325M98 26.0728V28.7099M98 26.0728L96.5002 23.6718M98 39.3767L91.7945 50.1221M98 39.3767V28.7099M98 39.3767L97.7113 39.8766M81.6684 67L1 66.4962M81.6684 67L91.7945 50.1221M81.6684 67L80.1837 66.9907M81.6684 67L84.6911 61.9618M1 66.4962L7.92857 66.5395M83.9367 3.55844L94.1645 19.9325M83.9367 3.55844L85.8003 6.54198M94.1645 19.9325L89.0506 11.7455M94.1645 19.9325L96.5002 23.6718M91.7945 50.1221L94.5586 45.3359M91.7945 50.1221L88.0161 56.4198M7.92857 1V66.5395M7.92857 1V6.54198M7.92857 1H25.7449M7.92857 66.5395V61.9618M7.92857 66.5395L25.7449 66.6507M25.7449 1H32.1786M25.7449 1V6.54198M32.1786 1V6.54198M32.1786 1H49.9949M32.1786 66.6909L25.7449 66.6507M32.1786 66.6909V61.9618M32.1786 66.6909L49.9949 66.8022M25.7449 66.6507V61.9618M49.9949 1H56.4286M49.9949 1V6.54198M56.4286 1V6.54198M56.4286 1H73.2551M56.4286 66.8424L49.9949 66.8022M56.4286 66.8424V61.9618M56.4286 66.8424L73.2551 66.9475M49.9949 66.8022V61.9618M73.2551 1H80.1837M73.2551 1V6.54198M80.1837 1V6.54198M80.1837 66.9907L73.2551 66.9475M80.1837 66.9907V61.9618M73.2551 66.9475V61.9618M7.92857 6.54198V11.7455M7.92857 6.54198H25.7449M7.92857 11.7455V23.6718M7.92857 11.7455H25.7449M89.0506 11.7455L85.8003 6.54198M89.0506 11.7455H80.1837M85.8003 6.54198H80.1837M7.92857 23.6718V28.7099M7.92857 23.6718H25.7449M7.92857 28.7099V39.8766M7.92857 28.7099H25.7449M98 28.7099H80.1837M96.5002 23.6718H80.1837M7.92857 39.8766V45.3359M7.92857 39.8766H25.7449M7.92857 45.3359V56.4198M7.92857 45.3359H25.7449M94.5586 45.3359L97.7113 39.8766M94.5586 45.3359H80.1837M97.7113 39.8766H80.1837M7.92857 56.4198V61.9618M7.92857 56.4198H25.7449M7.92857 61.9618H25.7449M84.6911 61.9618L88.0161 56.4198M84.6911 61.9618H80.1837M88.0161 56.4198H80.1837M25.7449 45.3359V39.8766M25.7449 45.3359H32.1786M25.7449 45.3359V56.4198M25.7449 39.8766V28.7099M25.7449 39.8766H32.1786M25.7449 23.6718V28.7099M25.7449 23.6718V11.7455M25.7449 23.6718H32.1786M25.7449 28.7099H32.1786M25.7449 11.7455V6.54198M25.7449 11.7455H32.1786M25.7449 6.54198H32.1786M32.1786 6.54198V11.7455M32.1786 6.54198H49.9949M32.1786 11.7455H49.9949M32.1786 11.7455V23.6718M49.9949 11.7455V6.54198M49.9949 11.7455H56.4286M49.9949 11.7455V23.6718M49.9949 6.54198H56.4286M49.9949 39.8766H32.1786M49.9949 39.8766V45.3359M49.9949 39.8766H56.4286M49.9949 39.8766V28.7099M32.1786 39.8766V45.3359M32.1786 39.8766V28.7099M32.1786 45.3359H49.9949M32.1786 45.3359V56.4198M49.9949 45.3359V56.4198M49.9949 45.3359H56.4286M32.1786 61.9618H49.9949M32.1786 61.9618V56.4198M32.1786 61.9618H25.7449M49.9949 61.9618V56.4198M49.9949 61.9618H56.4286M49.9949 56.4198H32.1786M49.9949 56.4198H56.4286M32.1786 56.4198H25.7449M56.4286 56.4198V61.9618M56.4286 56.4198H73.2551M56.4286 56.4198V45.3359M56.4286 61.9618H73.2551M73.2551 61.9618V56.4198M73.2551 61.9618H80.1837M73.2551 56.4198V45.3359M73.2551 56.4198H80.1837M56.4286 45.3359H73.2551M56.4286 45.3359V39.8766M73.2551 45.3359V39.8766M73.2551 45.3359H80.1837M73.2551 39.8766H56.4286M73.2551 39.8766H80.1837M73.2551 39.8766V28.7099M56.4286 39.8766V28.7099M80.1837 39.8766V45.3359M80.1837 39.8766V28.7099M80.1837 45.3359V56.4198M80.1837 56.4198V61.9618M80.1837 6.54198V11.7455M80.1837 6.54198H73.2551M80.1837 11.7455H73.2551M80.1837 11.7455V23.6718M73.2551 11.7455V6.54198M73.2551 11.7455H56.4286M73.2551 11.7455V23.6718M73.2551 6.54198H56.4286M56.4286 6.54198V11.7455M56.4286 11.7455V23.6718M25.7449 61.9618V56.4198M32.1786 23.6718H49.9949M32.1786 23.6718V28.7099M49.9949 23.6718H56.4286M49.9949 23.6718V28.7099M56.4286 23.6718H73.2551M56.4286 23.6718V28.7099M73.2551 23.6718H80.1837M73.2551 23.6718V28.7099M80.1837 23.6718V28.7099M49.9949 28.7099H32.1786M49.9949 28.7099H56.4286M73.2551 28.7099H56.4286M73.2551 28.7099H80.1837" stroke="black"/>
</svg>
