<svg width="99" height="68" viewBox="0 0 99 68" fill="none" xmlns="http://www.w3.org/2000/svg">
<path fill-rule="evenodd" clip-rule="evenodd" d="M35.6429 1H26.2398V14.0992L35.6429 23.6718V1ZM1 1V3.55844V20.1883V39.3767V50.1221V66.4962L11.8878 66.5642V12.084L1 1ZM60.8827 1H50.9847V37.7786L60.8827 45.8397V1ZM82.3385 1H75.7296L76.2245 61.9618L81.1735 66.9969L81.6684 67L85.5979 60.4504L91.7945 50.1221L98 39.3767V26.0728L94.1645 19.9325L85.5979 6.218L83.9367 3.55844L82.3385 1ZM60.8827 66.8702V59.4427L50.9847 50.1221V66.8084L60.8827 66.8702ZM35.6429 66.7125V35.2595L26.2398 26.0728V66.6538L35.6429 66.7125Z" fill="#F6623A"/>
<path d="M26.2398 1H1L11.8878 12.084V66.5642L26.2398 66.6538V26.0728L35.6429 35.2595V66.7125L50.9847 66.8084V50.1221L60.8827 59.4427V66.8702L81.1735 66.9969L76.2245 61.9618L75.7296 1H60.8827V45.8397L50.9847 37.7786V1H35.6429V23.6718L26.2398 14.0992V1Z" fill="#F6623A"/>
<path d="M26.2398 1H1L11.8878 12.084V66.5642L26.2398 66.6538V26.0728L35.6429 35.2595V66.7125L50.9847 66.8084V50.1221L60.8827 59.4427V66.8702L81.1735 66.9969L76.2245 61.9618L75.7296 1H60.8827V45.8397L50.9847 37.7786V1H35.6429V23.6718L26.2398 14.0992V1Z" fill="white"/>
<path d="M1 1H82.3385M1 1V3.55844V20.1883V39.3767V50.1221V66.4962M1 1L11.8878 12.084V66.5642M1 1V66.4962M1 1H26.2398M82.3385 1L83.9367 3.55844M82.3385 1L85.5979 6.218M82.3385 1H75.7296M81.6684 67L1 66.4962M81.6684 67L91.7945 50.1221M81.6684 67L85.5979 60.4504M81.6684 67L81.1735 66.9969M1 66.4962L11.8878 66.5642M83.9367 3.55844L94.1645 19.9325M83.9367 3.55844L85.5979 6.218M94.1645 19.9325L98 26.0728V39.3767L91.7945 50.1221M94.1645 19.9325L85.5979 6.218M91.7945 50.1221L85.5979 60.4504M11.8878 66.5642L26.2398 66.6538M35.6429 66.7125V35.2595L26.2398 26.0728V66.6538M35.6429 66.7125L26.2398 66.6538M35.6429 66.7125L50.9847 66.8084M60.8827 66.8702V59.4427L50.9847 50.1221V66.8084M60.8827 66.8702L50.9847 66.8084M60.8827 66.8702L81.1735 66.9969M81.1735 66.9969L76.2245 61.9618L75.7296 1M81.1735 66.9969L85.5979 60.4504M85.5979 60.4504V6.218M75.7296 1H60.8827M60.8827 1V45.8397L50.9847 37.7786V1M60.8827 1H50.9847M50.9847 1H35.6429M26.2398 1V14.0992L35.6429 23.6718V1M26.2398 1H35.6429" stroke="black"/>
</svg>
