<svg width="367" height="231" viewBox="0 0 367 231" fill="none" xmlns="http://www.w3.org/2000/svg">
<path d="M113.224 1.03271L101.95 25.8401L118.616 67.6452L135.773 32.7311L125.969 1.03271H113.224Z" fill="#D9D9D9"/>
<path d="M113.224 1.03271L101.95 25.8401L118.616 67.6452L135.773 32.7311L125.969 1.03271H113.224Z" fill="#0C381E"/>
<path d="M113.224 1.03271L101.95 25.8401L118.616 67.6452L135.773 32.7311L125.969 1.03271H113.224Z" fill="#070D0B"/>
<path d="M40.6773 84.1834L5.87429 103.019L40.6773 121.854L79.4017 105.775L40.6773 84.1834Z" fill="#D9D9D9"/>
<path d="M40.6773 84.1834L5.87429 103.019L40.6773 121.854L79.4017 105.775L40.6773 84.1834Z" fill="#0C381E"/>
<path d="M40.6773 84.1834L5.87429 103.019L40.6773 121.854L79.4017 105.775L40.6773 84.1834Z" fill="#080B0A"/>
<path d="M118.616 141.608L101.95 174.225L118.616 215.571L135.773 174.225L118.616 141.608Z" fill="#D9D9D9"/>
<path d="M118.616 141.608L101.95 174.225L118.616 215.571L135.773 174.225L118.616 141.608Z" fill="#0C381E"/>
<path d="M118.616 141.608L101.95 174.225L118.616 215.571L135.773 174.225L118.616 141.608Z" fill="#080B0A"/>
<path d="M154.4 105.775L194.595 84.1834L234.79 102.1L199.006 121.854L154.4 105.775Z" fill="#D9D9D9"/>
<path d="M154.4 105.775L194.595 84.1834L234.79 102.1L199.006 121.854L154.4 105.775Z" fill="#0C381E"/>
<path d="M154.4 105.775L194.595 84.1834L234.79 102.1L199.006 121.854L154.4 105.775Z" fill="#070D0B"/>
<path fill-rule="evenodd" clip-rule="evenodd" d="M1.46265 1.03271V229.812H46.682H91.9014H182.34L239.201 147.58V77.2925L302.435 1.03271H125.969L135.773 32.7311L118.616 67.6452L101.95 25.8401L113.224 1.03271H1.46265ZM101.95 174.225L118.616 141.608L135.773 174.225L118.616 215.571L101.95 174.225ZM194.595 84.1834L154.4 105.775L199.006 121.854L234.79 102.1L194.595 84.1834ZM5.87429 103.019L40.6773 84.1834L79.4017 105.775L40.6773 121.854L5.87429 103.019Z" fill="#D9D9D9"/>
<path fill-rule="evenodd" clip-rule="evenodd" d="M1.46265 1.03271V229.812H46.682H91.9014H182.34L239.201 147.58V77.2925L302.435 1.03271H125.969L135.773 32.7311L118.616 67.6452L101.95 25.8401L113.224 1.03271H1.46265ZM101.95 174.225L118.616 141.608L135.773 174.225L118.616 215.571L101.95 174.225ZM194.595 84.1834L154.4 105.775L199.006 121.854L234.79 102.1L194.595 84.1834ZM5.87429 103.019L40.6773 84.1834L79.4017 105.775L40.6773 121.854L5.87429 103.019Z" fill="#0C381E"/>
<path fill-rule="evenodd" clip-rule="evenodd" d="M1.46265 1.03271V229.812H46.682H91.9014H182.34L239.201 147.58V77.2925L302.435 1.03271H125.969L135.773 32.7311L118.616 67.6452L101.95 25.8401L113.224 1.03271H1.46265ZM101.95 174.225L118.616 141.608L135.773 174.225L118.616 215.571L101.95 174.225ZM194.595 84.1834L154.4 105.775L199.006 121.854L234.79 102.1L194.595 84.1834ZM5.87429 103.019L40.6773 84.1834L79.4017 105.775L40.6773 121.854L5.87429 103.019Z" fill="#154B2A"/>
<path d="M302.435 1.03271L334.297 46.5129L348.022 67.6452L359.296 84.1834L365.669 100.262V119.098L359.296 141.608L302.435 229.812H182.34M302.435 1.03271L239.201 77.2925V147.58L182.34 229.812M302.435 1.03271H125.969M182.34 229.812H146.5H91.9014M182.34 229.812H91.9014M113.224 1.03271H1.46265V229.812H46.682H91.9014M113.224 1.03271L101.95 25.8401L118.616 67.6452L135.773 32.7311L125.969 1.03271M113.224 1.03271H125.969M118.616 141.608L101.95 174.225L118.616 215.571L135.773 174.225L118.616 141.608ZM154.4 105.775L194.595 84.1834L234.79 102.1L199.006 121.854L154.4 105.775ZM40.6773 84.1834L5.87429 103.019L40.6773 121.854L79.4017 105.775L40.6773 84.1834Z" stroke="black"/>
</svg>
