<svg width="366" height="244" viewBox="0 0 366 244" fill="none" xmlns="http://www.w3.org/2000/svg">
<path d="M126 2.41395H110.5L108.5 241.297L124.5 241.434L126 2.41395Z" fill="black"/>
<path d="M126 2.41395H110.5L108.5 241.297L124.5 241.434L126 2.41395Z" fill="black"/>
<path fill-rule="evenodd" clip-rule="evenodd" d="M2.5 2.36917H18L18 2.37479L2.5 2.36917Z" fill="black"/>
<path fill-rule="evenodd" clip-rule="evenodd" d="M2.5 2.36917H18L18 2.37479L2.5 2.36917Z" fill="black"/>
<path fill-rule="evenodd" clip-rule="evenodd" d="M51.8876 240.811L36.0001 240.674L36 240.68L51.8876 240.811Z" fill="black"/>
<path fill-rule="evenodd" clip-rule="evenodd" d="M51.8876 240.811L36.0001 240.674L36 240.68L51.8876 240.811Z" fill="black"/>
<path fill-rule="evenodd" clip-rule="evenodd" d="M76 2.39582H91.5L91.5 2.40144L76 2.39582Z" fill="black"/>
<path fill-rule="evenodd" clip-rule="evenodd" d="M76 2.39582H91.5L91.5 2.40144L76 2.39582Z" fill="black"/>
<path fill-rule="evenodd" clip-rule="evenodd" d="M183.75 2.58005L199.25 2.43489L199.25 2.44051L183.75 2.58005Z" fill="black"/>
<path fill-rule="evenodd" clip-rule="evenodd" d="M183.75 2.58005L199.25 2.43489L199.25 2.44051L183.75 2.58005Z" fill="black"/>
<path d="M183.75 2.58005L182 241.928L198 242.066L199.25 2.44051L183.75 2.58005Z" fill="black"/>
<path d="M183.75 2.58005L182 241.928L198 242.066L199.25 2.44051L183.75 2.58005Z" fill="black"/>
<path d="M147.5 1.42737L147.492 2.42174L145.5 241.615L161.5 241.752L162.994 2.42737L163 1.42737H147.5Z" fill="black"/>
<path d="M147.5 1.42737L147.492 2.42174L145.5 241.615L161.5 241.752L162.994 2.42737L163 1.42737H147.5Z" fill="black"/>
<path d="M333 181.501V197.001L326.784 206.651V243.172L344 243.32V2.493L328.5 2.48738L327.069 172.76L333 181.501Z" fill="black"/>
<path d="M333 181.501V197.001L326.784 206.651V243.172L344 243.32V2.493L328.5 2.48738L327.069 172.76L333 181.501Z" fill="black"/>
<path d="M2.5 2.36917L0.5 240.369L16.5 240.5L18 2.37479L2.5 2.36917Z" fill="black"/>
<path d="M2.5 2.36917L0.5 240.369L16.5 240.5L18 2.37479L2.5 2.36917Z" fill="black"/>
<path d="M222.327 2.44888H221L219.731 153.501H235.549L236.5 2.45402L222.327 2.44888Z" fill="black"/>
<path d="M222.327 2.44888H221L219.731 153.501H235.549L236.5 2.45402L222.327 2.44888Z" fill="black"/>
<path d="M273.5 4.57048H258L256.748 153.501H272.562L273.5 4.57048Z" fill="black"/>
<path d="M273.5 4.57048H258L256.748 153.501H272.562L273.5 4.57048Z" fill="black"/>
<path d="M219.117 242.247L235.089 242.385V226.501H219.117V242.247Z" fill="black"/>
<path d="M219.117 242.247L235.089 242.385V226.501H219.117V242.247Z" fill="black"/>
<path d="M272 242.702L272.102 226.501H256.135L256 242.564L272 242.702Z" fill="black"/>
<path d="M272 242.702L272.102 226.501H256.135L256 242.564L272 242.702Z" fill="black"/>
<path d="M308 4.86058H292.5L291.251 153.501H307.064L308 4.86058Z" fill="black"/>
<path d="M308 4.86058H292.5L291.251 153.501H307.064L308 4.86058Z" fill="black"/>
<path d="M290.5 242.861L306.5 242.992L306.604 226.501H290.637L290.5 242.861Z" fill="black"/>
<path d="M290.5 242.861L306.5 242.992L306.604 226.501H290.637L290.5 242.861Z" fill="black"/>
<path d="M16.5 240.5L0.5 240.369L36.0001 240.674L38 2.6804H53.5L52 240.812L74 241.001L76 2.39582L18 2.37479L16.5 240.5Z" fill="black"/>
<path d="M16.5 240.5L0.5 240.369L36.0001 240.674L38 2.6804H53.5L52 240.812L74 241.001L76 2.39582L18 2.37479L16.5 240.5Z" fill="black"/>
<path d="M16.5 240.5L0.5 240.369L36.0001 240.674L38 2.6804H53.5L52 240.812L74 241.001L76 2.39582L18 2.37479L16.5 240.5Z" fill="#23713D"/>
<path d="M108.5 241.297L110.5 2.41395H126L91.5 2.40144L90.5 241.142L108.5 241.297Z" fill="black"/>
<path d="M108.5 241.297L110.5 2.41395H126L91.5 2.40144L90.5 241.142L108.5 241.297Z" fill="black"/>
<path d="M108.5 241.297L110.5 2.41395H126L91.5 2.40144L90.5 241.142L108.5 241.297Z" fill="#23713D"/>
<path d="M126 2.41395L124.5 241.434L145.5 241.615L147.492 2.42174L126 2.41395Z" fill="black"/>
<path d="M126 2.41395L124.5 241.434L145.5 241.615L147.492 2.42174L126 2.41395Z" fill="black"/>
<path d="M126 2.41395L124.5 241.434L145.5 241.615L147.492 2.42174L126 2.41395Z" fill="#23713D"/>
<path d="M182 241.928L183.75 2.58005L162.994 2.42737L161.5 241.752L182 241.928Z" fill="black"/>
<path d="M182 241.928L183.75 2.58005L162.994 2.42737L161.5 241.752L182 241.928Z" fill="black"/>
<path d="M182 241.928L183.75 2.58005L162.994 2.42737L161.5 241.752L182 241.928Z" fill="#23713D"/>
<path d="M219.117 226.501L219.731 153.501L221 2.44888H222.327L199.25 2.44051L198 242.066L219.117 242.247V226.501Z" fill="black"/>
<path d="M219.117 226.501L219.731 153.501L221 2.44888H222.327L199.25 2.44051L198 242.066L219.117 242.247V226.501Z" fill="black"/>
<path d="M219.117 226.501L219.731 153.501L221 2.44888H222.327L199.25 2.44051L198 242.066L219.117 242.247V226.501Z" fill="#23713D"/>
<path d="M258 4.57048H273.5L272.562 153.501H291.251L292.5 4.86058H308L307.064 153.501H314L327.069 172.76L328.5 2.48738L236.5 2.45402L235.549 153.501H256.748L258 4.57048Z" fill="black"/>
<path d="M258 4.57048H273.5L272.562 153.501H291.251L292.5 4.86058H308L307.064 153.501H314L327.069 172.76L328.5 2.48738L236.5 2.45402L235.549 153.501H256.748L258 4.57048Z" fill="black"/>
<path d="M258 4.57048H273.5L272.562 153.501H291.251L292.5 4.86058H308L307.064 153.501H314L327.069 172.76L328.5 2.48738L236.5 2.45402L235.549 153.501H256.748L258 4.57048Z" fill="#23713D"/>
<path d="M235.089 226.501V242.385L256 242.564L256.135 226.501H235.089Z" fill="black"/>
<path d="M235.089 226.501V242.385L256 242.564L256.135 226.501H235.089Z" fill="black"/>
<path d="M235.089 226.501V242.385L256 242.564L256.135 226.501H235.089Z" fill="#23713D"/>
<path d="M272.102 226.501L272 242.702L290.5 242.861L290.637 226.501H272.102Z" fill="black"/>
<path d="M272.102 226.501L272 242.702L290.5 242.861L290.637 226.501H272.102Z" fill="black"/>
<path d="M272.102 226.501L272 242.702L290.5 242.861L290.637 226.501H272.102Z" fill="#23713D"/>
<path d="M306.5 242.992L290.5 242.861L326.784 243.172V206.651L314 226.501H306.604L306.5 242.992Z" fill="black"/>
<path d="M306.5 242.992L290.5 242.861L326.784 243.172V206.651L314 226.501H306.604L306.5 242.992Z" fill="black"/>
<path d="M306.5 242.992L290.5 242.861L326.784 243.172V206.651L314 226.501H306.604L306.5 242.992Z" fill="#23713D"/>
<path d="M365 243.501V2.50061L344 2.493V243.32L365 243.501Z" fill="black"/>
<path d="M365 243.501V2.50061L344 2.493V243.32L365 243.501Z" fill="black"/>
<path d="M365 243.501V2.50061L344 2.493V243.32L365 243.501Z" fill="#23713D"/>
<path d="M53.5 2.6804H38L36.0001 240.674L51.8876 240.811L52 240.812L53.5 2.6804Z" fill="black"/>
<path d="M53.5 2.6804H38L36.0001 240.674L51.8876 240.811L52 240.812L53.5 2.6804Z" fill="black"/>
<path d="M76 2.39582L74 241.001L90.5 241.142L91.5 2.40144L76 2.39582Z" fill="black"/>
<path d="M76 2.39582L74 241.001L90.5 241.142L91.5 2.40144L76 2.39582Z" fill="black"/>
<path d="M2.5 2.36917L0.5 240.369M2.5 2.36917H18L18 2.37479M2.5 2.36917L18 2.37479M365 243.501V2.50061L344 2.493M365 243.501L256 242.564M365 243.501L344 243.32M0.5 240.369L16.5 240.5L18 2.37479M0.5 240.369L36.0001 240.674M219.731 153.501L219.117 226.501M219.731 153.501H235.549M219.731 153.501L221 2.44888H222.327M219.117 226.501H235.089M219.117 226.501V242.247M52 240.812L53.5 2.6804H38L36.0001 240.674M52 240.812L51.8876 240.811M52 240.812L256 242.564M52 240.812L74 241.001M76 2.39582L74 241.001M76 2.39582H91.5L91.5 2.40144M76 2.39582L91.5 2.40144M76 2.39582L18 2.37479M74 241.001L90.5 241.142M90.5 241.142L91.5 2.40144M90.5 241.142L108.5 241.297M108.5 241.297L110.5 2.41395H126M108.5 241.297L124.5 241.434M126 2.41395L124.5 241.434M126 2.41395L147.492 2.42174M126 2.41395L91.5 2.40144M124.5 241.434L145.5 241.615M145.5 241.615L161.5 241.752M145.5 241.615L147.492 2.42174M161.5 241.752L162.994 2.42737M161.5 241.752L182 241.928M183.75 2.58005L182 241.928M183.75 2.58005L199.25 2.43489L199.25 2.44051M183.75 2.58005L199.25 2.44051M183.75 2.58005L162.994 2.42737M182 241.928L198 242.066M198 242.066L199.25 2.44051M198 242.066L219.117 242.247M219.117 242.247L235.089 242.385M235.089 242.385V226.501M235.089 242.385L256 242.564M272 242.702L256 242.57L256 242.564M272 242.702L272.102 226.501M272 242.702L256 242.564M272 242.702L290.5 242.861M290.5 242.861L306.5 242.992L306.604 226.501M290.5 242.861L290.637 226.501M290.5 242.861L326.784 243.172M328.5 2.48738H344L344 2.493M328.5 2.48738L327.069 172.76M328.5 2.48738L344 2.493M328.5 2.48738L236.5 2.45402M326.784 243.172L344 243.32M326.784 243.172V206.651M344 243.32V2.493M235.549 153.501H256.748M235.549 153.501L236.5 2.45402M235.089 226.501H256.135M272.102 226.501H256.135M272.102 226.501H290.637M256.135 226.501L256 242.564M256.748 153.501L258 4.57048H273.5L272.562 153.501M256.748 153.501H272.562M272.562 153.501H291.251M326.784 206.651L314 226.501H306.604M326.784 206.651L333 197.001V181.501L327.069 172.76M291.251 153.501L292.5 4.86058H308L307.064 153.501M291.251 153.501H307.064M307.064 153.501H314L327.069 172.76M290.637 226.501H306.604M18 2.37479L91.5 2.40144M51.8876 240.811L36.0001 240.674M51.8876 240.811L36 240.68L36.0001 240.674M51.8876 240.811L256 242.564M91.5 2.40144L147.492 2.42174M199.25 2.44051L222.327 2.44888M199.25 2.44051L162.994 2.42737M344 2.493L236.5 2.45402M222.327 2.44888L236.5 2.45402M222.327 2.44888H236.5L236.5 2.45402M162.994 2.42737L147.492 2.42174M162.994 2.42737L163 1.42737H147.5L147.492 2.42174" stroke="black"/>
</svg>
