<svg width="112" height="77" viewBox="0 0 112 77" fill="none" xmlns="http://www.w3.org/2000/svg">
<path d="M111 45.6918V29.7671L106.557 22.9051V52L111 45.6918Z" fill="#2C7145"/>
<path d="M83.0004 1H81.8614H69.5004V76H81.3448H83.0004V1Z" fill="#2C7145"/>
<path d="M33.614 76H42.5832H47.4838V1H43.0998H33.614V76Z" fill="#2C7145"/>
<path d="M1 76H10.9836V1H1.51661H1V76Z" fill="#2C7145"/>
<path d="M10.9836 76H24.6448H33.614V1H25.334H10.9836V76Z" fill="black"/>
<path d="M64.0963 1H47.4838V76H63.4071H69.5004V1H64.0963Z" fill="black"/>
<path d="M89.6542 76L104.017 55.6069L106.557 52V22.9051L105 20.5L92 1H83.0004V76H89.6542Z" fill="black"/>
<path d="M89.6542 76L104.017 55.6069M89.6542 76H81.3448M89.6542 76H83.0004M111 45.6918V29.7671M111 45.6918L104.017 55.6069M111 45.6918L106.557 52M111 29.7671L105 20.5M111 29.7671L106.557 22.9051M92 1H81.8614M92 1L105 20.5M92 1H83.0004M1.51661 1H25.334M1.51661 1H10.9836M1.51661 1H1M1 76H24.6448M1 76V1M1 76H10.9836M42.5832 76H24.6448M42.5832 76H63.4071M42.5832 76H33.614M42.5832 76H47.4838M24.6448 76H10.9836M24.6448 76H33.614M25.334 1H43.0998M25.334 1H33.614M25.334 1H10.9836M43.0998 1H64.0963M43.0998 1H47.4838M43.0998 1H33.614M104.017 55.6069L106.557 52M64.0963 1H81.8614M64.0963 1H47.4838M64.0963 1H69.5004M81.8614 1H83.0004M81.8614 1H69.5004M63.4071 76H81.3448M63.4071 76H47.4838M63.4071 76H69.5004M81.3448 76H69.5004M81.3448 76H83.0004M105 20.5L106.557 22.9051M1 1H10.9836M10.9836 1V76M33.614 1H47.4838M33.614 1V76M47.4838 1V76M47.4838 76H33.614M69.5004 1H83.0004M69.5004 1V76M83.0004 1V76M83.0004 76H69.5004M106.557 52V22.9051" stroke="black"/>
<path d="M89.6542 76L104.017 55.6069M89.6542 76H81.3448M89.6542 76H83.0004M111 45.6918V29.7671M111 45.6918L104.017 55.6069M111 45.6918L106.557 52M111 29.7671L105 20.5M111 29.7671L106.557 22.9051M92 1H81.8614M92 1L105 20.5M92 1H83.0004M1.51661 1H25.334M1.51661 1H10.9836M1.51661 1H1M1 76H24.6448M1 76V1M1 76H10.9836M42.5832 76H24.6448M42.5832 76H63.4071M42.5832 76H33.614M42.5832 76H47.4838M24.6448 76H10.9836M24.6448 76H33.614M25.334 1H43.0998M25.334 1H33.614M25.334 1H10.9836M43.0998 1H64.0963M43.0998 1H47.4838M43.0998 1H33.614M104.017 55.6069L106.557 52M64.0963 1H81.8614M64.0963 1H47.4838M64.0963 1H69.5004M81.8614 1H83.0004M81.8614 1H69.5004M63.4071 76H81.3448M63.4071 76H47.4838M63.4071 76H69.5004M81.3448 76H69.5004M81.3448 76H83.0004M105 20.5L106.557 22.9051M1 1H10.9836M10.9836 1V76M33.614 1H47.4838M33.614 1V76M47.4838 1V76M47.4838 76H33.614M69.5004 1H83.0004M69.5004 1V76M83.0004 1V76M83.0004 76H69.5004M106.557 52V22.9051" stroke="#2C7145"/>
</svg>
