<svg width="112" height="77" viewBox="0 0 112 77" fill="none" xmlns="http://www.w3.org/2000/svg">
<path d="M111 29.7671V45.6918L106.557 52L104.017 55.6069L89.6542 76H83.0004H81.3448H69.5004H63.4071H47.4838H42.5832H33.614H24.6448H10.9836H1V1H1.51661H10.9836H25.334H33.614H43.0998H47.4838H64.0963H69.5004H81.8614H83.0004H92L105 20.5L106.557 22.9051L111 29.7671Z" fill="black"/>
<path d="M89.6542 76L104.017 55.6069M89.6542 76H81.3448M89.6542 76H83.0004M111 45.6918V29.7671M111 45.6918L104.017 55.6069M111 45.6918L106.557 52L104.017 55.6069M111 29.7671L105 20.5M111 29.7671L106.557 22.9051L105 20.5M92 1H81.8614M92 1L105 20.5M92 1H83.0004M1.51661 1H25.334M1.51661 1H10.9836M1.51661 1H1M1 76H24.6448M1 76V1M1 76H10.9836H24.6448M42.5832 76H24.6448M42.5832 76H63.4071M42.5832 76H33.614M42.5832 76H47.4838M24.6448 76H33.614M25.334 1H43.0998M25.334 1H33.614M25.334 1H10.9836M43.0998 1H64.0963M43.0998 1H47.4838M43.0998 1H33.614M64.0963 1H81.8614M64.0963 1H47.4838M64.0963 1H69.5004M81.8614 1H83.0004M81.8614 1H69.5004M63.4071 76H81.3448M63.4071 76H47.4838M63.4071 76H69.5004M81.3448 76H69.5004M81.3448 76H83.0004M1 1H10.9836M33.614 1H47.4838M47.4838 76H33.614M69.5004 1H83.0004M83.0004 76H69.5004" stroke="black"/>
<path d="M89.6542 76L104.017 55.6069M89.6542 76H81.3448M89.6542 76H83.0004M111 45.6918V29.7671M111 45.6918L104.017 55.6069M111 45.6918L106.557 52L104.017 55.6069M111 29.7671L105 20.5M111 29.7671L106.557 22.9051L105 20.5M92 1H81.8614M92 1L105 20.5M92 1H83.0004M1.51661 1H25.334M1.51661 1H10.9836M1.51661 1H1M1 76H24.6448M1 76V1M1 76H10.9836H24.6448M42.5832 76H24.6448M42.5832 76H63.4071M42.5832 76H33.614M42.5832 76H47.4838M24.6448 76H33.614M25.334 1H43.0998M25.334 1H33.614M25.334 1H10.9836M43.0998 1H64.0963M43.0998 1H47.4838M43.0998 1H33.614M64.0963 1H81.8614M64.0963 1H47.4838M64.0963 1H69.5004M81.8614 1H83.0004M81.8614 1H69.5004M63.4071 76H81.3448M63.4071 76H47.4838M63.4071 76H69.5004M81.3448 76H69.5004M81.3448 76H83.0004M1 1H10.9836M33.614 1H47.4838M47.4838 76H33.614M69.5004 1H83.0004M83.0004 76H69.5004" stroke="#2C7145"/>
</svg>
