<svg width="112" height="77" viewBox="0 0 112 77" fill="none" xmlns="http://www.w3.org/2000/svg">
<path d="M25.334 1H10.9836H1.51661H1H50.5H92H83.0004H81.8614H69.5004H64.0963H50.5H47.4838H43.0998H33.614H25.334Z" fill="#2C7145"/>
<path d="M92 1H83.0004H81.8614H69.5004H64.0963H50.5V36H56.2583H111V29.7671L106.557 22.9051L105 20.5L92 1Z" fill="#2C7145"/>
<path d="M25.334 1H10.9836H1.51661H1V20.5V36.25L1.51661 36H33.614V1H25.334Z" fill="#2C7145"/>
<path d="M1 76H10.9836H24.6448H33.614V52H1V66.5V76Z" fill="#2C7145"/>
<path d="M104.017 55.6069L106.557 52H50.5V76H63.4071H69.5004H81.3448H83.0004H89.6542L96.8355 65.8035L104.017 55.6069Z" fill="#2C7145"/>
<path d="M33.614 76H42.5832H47.4838H50.5V52H106.557L111 45.6918V36H56.2583H50.5V1H47.4838H43.0998H33.614V36H1.51661L1 36.25V52H33.614V76Z" fill="black"/>
<path d="M89.6542 76H81.3448M89.6542 76H83.0004M89.6542 76L96.8355 65.8035L104.017 55.6069M111 45.6918L104.017 55.6069M111 45.6918L106.557 52M111 45.6918V36M111 29.7671L105 20.5M111 29.7671L106.557 22.9051L105 20.5M111 29.7671V36M92 1H81.8614M92 1H83.0004M92 1L105 20.5M92 1H50.5M1.51661 1H25.334M1.51661 1H10.9836M1.51661 1H1M1 76H24.6448M1 76H10.9836H24.6448M1 76V66.5V52M42.5832 76H24.6448M42.5832 76H33.614M42.5832 76H47.4838M42.5832 76H50.5M24.6448 76H33.614M25.334 1H43.0998M25.334 1H33.614M25.334 1H10.9836M43.0998 1H47.4838M43.0998 1H33.614M43.0998 1H50.5M104.017 55.6069L106.557 52M64.0963 1H81.8614M64.0963 1H69.5004M64.0963 1H50.5M81.8614 1H83.0004M81.8614 1H69.5004M63.4071 76H81.3448M63.4071 76H69.5004M63.4071 76H50.5M81.3448 76H69.5004M81.3448 76H83.0004M1 1H10.9836M1 1V20.5V36.25M1 1H50.5M33.614 1H47.4838M33.614 1V36H1.51661L1 36.25M47.4838 1H50.5M47.4838 76H33.614M47.4838 76H50.5M33.614 76V52H1M69.5004 1H83.0004M83.0004 76H69.5004M106.557 52H50.5V76M111 36H56.2583H50.5V1M1 52V36.25" stroke="black"/>
<path d="M89.6542 76H81.3448M89.6542 76H83.0004M89.6542 76L96.8355 65.8035L104.017 55.6069M111 45.6918L104.017 55.6069M111 45.6918L106.557 52M111 45.6918V36M111 29.7671L105 20.5M111 29.7671L106.557 22.9051L105 20.5M111 29.7671V36M92 1H81.8614M92 1H83.0004M92 1L105 20.5M92 1H50.5M1.51661 1H25.334M1.51661 1H10.9836M1.51661 1H1M1 76H24.6448M1 76H10.9836H24.6448M1 76V66.5V52M42.5832 76H24.6448M42.5832 76H33.614M42.5832 76H47.4838M42.5832 76H50.5M24.6448 76H33.614M25.334 1H43.0998M25.334 1H33.614M25.334 1H10.9836M43.0998 1H47.4838M43.0998 1H33.614M43.0998 1H50.5M104.017 55.6069L106.557 52M64.0963 1H81.8614M64.0963 1H69.5004M64.0963 1H50.5M81.8614 1H83.0004M81.8614 1H69.5004M63.4071 76H81.3448M63.4071 76H69.5004M63.4071 76H50.5M81.3448 76H69.5004M81.3448 76H83.0004M1 1H10.9836M1 1V20.5V36.25M1 1H50.5M33.614 1H47.4838M33.614 1V36H1.51661L1 36.25M47.4838 1H50.5M47.4838 76H33.614M47.4838 76H50.5M33.614 76V52H1M69.5004 1H83.0004M83.0004 76H69.5004M106.557 52H50.5V76M111 36H56.2583H50.5V1M1 52V36.25" stroke="#2C7145"/>
</svg>
