<svg width="2671" height="1756" viewBox="0 0 2671 1756" fill="none" xmlns="http://www.w3.org/2000/svg">
<path d="M86 57H184V164.5H86V57Z" fill="black"/>
<path d="M308 57H416V164.5H308V57Z" fill="black"/>
<path d="M530 57V164.5H638V57H530Z" fill="black"/>
<path d="M752 57V164.5H860V57H752Z" fill="black"/>
<path d="M971 57V164.5H1079V57H971Z" fill="black"/>
<path d="M1183.5 57V164.5H1291.5V57H1183.5Z" fill="black"/>
<path d="M1409 57V164.5H1517V57H1409Z" fill="black"/>
<path d="M1627.5 57V164.5H1735.5V57H1627.5Z" fill="black"/>
<path d="M1846.5 57V164.5H1954.5V57H1846.5Z" fill="black"/>
<path d="M2075 57V164.5H2183V57H2075Z" fill="black"/>
<path d="M2297.5 57V164.5H2405.5V57H2297.5Z" fill="black"/>
<path d="M2513 57V164.5H2621V57H2513Z" fill="black"/>
<path d="M86 269V376.5H194V269H86Z" fill="black"/>
<path d="M308 269V376.5H416V269H308Z" fill="black"/>
<path d="M530 269V376.5H638V269H530Z" fill="black"/>
<path d="M752 269V376.5H860V269H752Z" fill="black"/>
<path d="M971 269V376.5H1079V269H971Z" fill="black"/>
<path d="M1183.5 269V376.5H1291.5V269H1183.5Z" fill="black"/>
<path d="M1409 269V376.5H1517V269H1409Z" fill="black"/>
<path d="M1627.5 269V376.5H1735.5V269H1627.5Z" fill="black"/>
<path d="M1846.5 269V376.5H1954.5V269H1846.5Z" fill="black"/>
<path d="M2075 269V376.5H2183V269H2075Z" fill="black"/>
<path d="M2297.5 269V376.5H2405.5V269H2297.5Z" fill="black"/>
<path d="M2513 269V376.5H2621V269H2513Z" fill="black"/>
<path d="M2513 501V608.5H2621V501H2513Z" fill="black"/>
<path d="M2297.5 501V608.5H2405.5V501H2297.5Z" fill="black"/>
<path d="M2075 501V608.5H2183V501H2075Z" fill="black"/>
<path d="M2513 726.5V834H2621V726.5H2513Z" fill="black"/>
<path d="M2297.5 726.5V834H2405.5V726.5H2297.5Z" fill="black"/>
<path d="M2075 726.5V834H2183V726.5H2075Z" fill="black"/>
<path d="M1846.5 704V811.5H1954.5V704H1846.5Z" fill="black"/>
<path d="M1846.5 501V608.5H1954.5V501H1846.5Z" fill="black"/>
<path d="M1627.5 501V608.5H1735.5V501H1627.5Z" fill="black"/>
<path d="M1627.5 704V811.5H1735.5V704H1627.5Z" fill="black"/>
<path d="M1409 501V608.5H1517V501H1409Z" fill="black"/>
<path d="M1409 726.5V834H1517V726.5H1409Z" fill="black"/>
<path d="M1183.5 501V608.5H1291.5V501H1183.5Z" fill="black"/>
<path d="M1183.5 704V811.5H1291.5V704H1183.5Z" fill="black"/>
<path d="M971 501V608.5H1079V501H971Z" fill="black"/>
<path d="M971 704V811.5H1079V704H971Z" fill="black"/>
<path d="M752 481.5V589H860V481.5H752Z" fill="black"/>
<path d="M732.5 704V811.5H840.5V704H732.5Z" fill="black"/>
<path d="M530 481.5V589H638V481.5H530Z" fill="black"/>
<path d="M530 704V811.5H638V704H530Z" fill="black"/>
<path d="M308 481.5V589H416V481.5H308Z" fill="black"/>
<path d="M308 704V811.5H416V704H308Z" fill="black"/>
<path d="M76 481.5V589H184V481.5H76Z" fill="black"/>
<path d="M86 704V811.5H194V704H86Z" fill="black"/>
<path d="M86 919.5V1027H194V919.5H86Z" fill="black"/>
<path d="M308 936V1043.5H416V936H308Z" fill="black"/>
<path d="M530 919.5V1027H638V919.5H530Z" fill="black"/>
<path d="M732.5 936V1043.5H840.5V936H732.5Z" fill="black"/>
<path d="M971 936V1043.5H1079V936H971Z" fill="black"/>
<path d="M1183.5 936V1043.5H1291.5V936H1183.5Z" fill="black"/>
<path d="M1409 936V1043.5H1517V936H1409Z" fill="black"/>
<path d="M1627.5 936V1043.5H1735.5V936H1627.5Z" fill="black"/>
<path d="M1846.5 936V1043.5H1954.5V936H1846.5Z" fill="black"/>
<path d="M2075 936V1043.5H2183V936H2075Z" fill="black"/>
<path d="M2297.5 936V1043.5H2405.5V936H2297.5Z" fill="black"/>
<path d="M2513 936V1043.5H2621V936H2513Z" fill="black"/>
<path d="M76 1145V1252.5H184V1145H76Z" fill="black"/>
<path d="M308 1145V1252.5H416V1145H308Z" fill="black"/>
<path d="M504 1145V1252.5H612V1145H504Z" fill="black"/>
<path d="M732.5 1145V1252.5H840.5V1145H732.5Z" fill="black"/>
<path d="M942 1145V1252.5H1050V1145H942Z" fill="black"/>
<path d="M1183.5 1168V1275.5H1291.5V1168H1183.5Z" fill="black"/>
<path d="M1409 1168V1275.5H1517V1168H1409Z" fill="black"/>
<path d="M56.5 1373.5V1481H164.5V1373.5H56.5Z" fill="black"/>
<path d="M292 1370V1477.5H400V1370H292Z" fill="black"/>
<path d="M530 1373.5V1481H638V1373.5H530Z" fill="black"/>
<path d="M752 1370V1477.5H860V1370H752Z" fill="black"/>
<path d="M971 1373.5V1481H1079V1373.5H971Z" fill="black"/>
<path d="M1183.5 1373.5V1481H1291.5V1373.5H1183.5Z" fill="black"/>
<path d="M1409 1370V1477.5H1517V1370H1409Z" fill="black"/>
<path d="M76 1602.5V1710H184V1602.5H76Z" fill="black"/>
<path d="M308 1602.5V1710H416V1602.5H308Z" fill="black"/>
<path d="M530 1589.5V1697H638V1589.5H530Z" fill="black"/>
<path d="M732.5 1589.5V1697H840.5V1589.5H732.5Z" fill="black"/>
<path d="M971 1602.5V1710H1079V1602.5H971Z" fill="black"/>
<path d="M1170.5 1589.5V1697H1278.5V1589.5H1170.5Z" fill="black"/>
<path d="M2297.5 1602.5V1710H2405.5V1602.5H2297.5Z" fill="black"/>
<path d="M2513 1602.5V1710H2621V1602.5H2513Z" fill="black"/>
<path d="M2513 1373.5V1481H2621V1373.5H2513Z" fill="black"/>
<path d="M2533 1168V1275.5H2641V1168H2533Z" fill="black"/>
<path d="M2533 1168V1275.5H2641V1168H2533Z" fill="black" fill-opacity="0.2"/>
<path fill-rule="evenodd" clip-rule="evenodd" d="M17 1H2670V1755.5L1 1752L17 1ZM184 57H86V164.5H184V57ZM416 57H308V164.5H416V57ZM1183.5 164.5V57H1291.5V164.5H1183.5ZM752 164.5V57H860V164.5H752ZM971 164.5V57H1079V164.5H971ZM530 164.5V57H638V164.5H530ZM1409 164.5V57H1517V164.5H1409ZM1627.5 164.5V57H1735.5V164.5H1627.5ZM1846.5 164.5V57H1954.5V164.5H1846.5ZM2075 164.5V57H2183V164.5H2075ZM2297.5 164.5V57H2405.5V164.5H2297.5ZM2513 164.5V57H2621V164.5H2513ZM86 376.5V269H194V376.5H86ZM308 376.5V269H416V376.5H308ZM530 376.5V269H638V376.5H530ZM752 376.5V269H860V376.5H752ZM971 376.5V269H1079V376.5H971ZM1183.5 376.5V269H1291.5V376.5H1183.5ZM1409 376.5V269H1517V376.5H1409ZM1627.5 376.5V269H1735.5V376.5H1627.5ZM1846.5 376.5V269H1954.5V376.5H1846.5ZM2075 376.5V269H2183V376.5H2075ZM2297.5 376.5V269H2405.5V376.5H2297.5ZM2513 376.5V269H2621V376.5H2513ZM76 589V481.5H184V589H76ZM308 589V481.5H416V589H308ZM530 589V481.5H638V589H530ZM752 589V481.5H860V589H752ZM971 608.5V501H1079V608.5H971ZM1183.5 608.5V501H1291.5V608.5H1183.5ZM1627.5 608.5V501H1735.5V608.5H1627.5ZM1846.5 608.5V501H1954.5V608.5H1846.5ZM1409 608.5V501H1517V608.5H1409ZM2075 608.5V501H2183V608.5H2075ZM2297.5 608.5V501H2405.5V608.5H2297.5ZM2513 608.5V501H2621V608.5H2513ZM86 811.5V704H194V811.5H86ZM308 811.5V704H416V811.5H308ZM530 811.5V704H638V811.5H530ZM86 1027V919.5H194V1027H86ZM308 1043.5V936H416V1043.5H308ZM530 1027V919.5H638V1027H530ZM732.5 1043.5V936H840.5V1043.5H732.5ZM732.5 811.5V704H840.5V811.5H732.5ZM971 811.5V704H1079V811.5H971ZM971 1043.5V936H1079V1043.5H971ZM1183.5 811.5V704H1291.5V811.5H1183.5ZM1183.5 1043.5V936H1291.5V1043.5H1183.5ZM1409 834V726.5H1517V834H1409ZM1409 1477.5V1370H1517V1477.5H1409ZM1627.5 811.5V704H1735.5V811.5H1627.5ZM1627.5 1043.5V936H1735.5V1043.5H1627.5ZM1846.5 1043.5V936H1954.5V1043.5H1846.5ZM1846.5 811.5V704H1954.5V811.5H1846.5ZM2075 834V726.5H2183V834H2075ZM2075 1043.5V936H2183V1043.5H2075ZM2297.5 834V726.5H2405.5V834H2297.5ZM2513 834V726.5H2621V834H2513ZM2297.5 1043.5V936H2405.5V1043.5H2297.5ZM2513 1043.5V936H2621V1043.5H2513ZM2533 1275.5V1168H2641V1275.5H2533ZM2513 1481V1373.5H2621V1481H2513ZM2513 1710V1602.5H2621V1710H2513ZM2297.5 1710V1602.5H2405.5V1710H2297.5ZM1409 1275.5V1168H1517V1275.5H1409ZM1183.5 1275.5V1168H1291.5V1275.5H1183.5ZM76 1252.5V1145H184V1252.5H76ZM308 1252.5V1145H416V1252.5H308ZM504 1252.5V1145H612V1252.5H504ZM732.5 1252.5V1145H840.5V1252.5H732.5ZM942 1252.5V1145H1050V1252.5H942ZM56.5 1481V1373.5H164.5V1481H56.5ZM292 1477.5V1370H400V1477.5H292ZM530 1481V1373.5H638V1481H530ZM752 1477.5V1370H860V1477.5H752ZM971 1481V1373.5H1079V1481H971ZM1183.5 1481V1373.5H1291.5V1481H1183.5ZM1409 1043.5V936H1517V1043.5H1409ZM76 1710V1602.5H184V1710H76ZM1392.5 1710V1602.5H1500.5V1710H1392.5ZM1170.5 1697V1589.5H1278.5V1697H1170.5ZM971 1710V1602.5H1079V1710H971ZM732.5 1697V1589.5H840.5V1697H732.5ZM530 1697V1589.5H638V1697H530ZM308 1710V1602.5H416V1710H308ZM1601.5 1641V1112H2261.5L2376 1275.5L2405.5 1324.5V1370V1422.5L2261.5 1641H1601.5Z" fill="black"/>
<path fill-rule="evenodd" clip-rule="evenodd" d="M17 1H2670V1755.5L1 1752L17 1ZM184 57H86V164.5H184V57ZM416 57H308V164.5H416V57ZM1183.5 164.5V57H1291.5V164.5H1183.5ZM752 164.5V57H860V164.5H752ZM971 164.5V57H1079V164.5H971ZM530 164.5V57H638V164.5H530ZM1409 164.5V57H1517V164.5H1409ZM1627.5 164.5V57H1735.5V164.5H1627.5ZM1846.5 164.5V57H1954.5V164.5H1846.5ZM2075 164.5V57H2183V164.5H2075ZM2297.5 164.5V57H2405.5V164.5H2297.5ZM2513 164.5V57H2621V164.5H2513ZM86 376.5V269H194V376.5H86ZM308 376.5V269H416V376.5H308ZM530 376.5V269H638V376.5H530ZM752 376.5V269H860V376.5H752ZM971 376.5V269H1079V376.5H971ZM1183.5 376.5V269H1291.5V376.5H1183.5ZM1409 376.5V269H1517V376.5H1409ZM1627.5 376.5V269H1735.5V376.5H1627.5ZM1846.5 376.5V269H1954.5V376.5H1846.5ZM2075 376.5V269H2183V376.5H2075ZM2297.5 376.5V269H2405.5V376.5H2297.5ZM2513 376.5V269H2621V376.5H2513ZM76 589V481.5H184V589H76ZM308 589V481.5H416V589H308ZM530 589V481.5H638V589H530ZM752 589V481.5H860V589H752ZM971 608.5V501H1079V608.5H971ZM1183.5 608.5V501H1291.5V608.5H1183.5ZM1627.5 608.5V501H1735.5V608.5H1627.5ZM1846.5 608.5V501H1954.5V608.5H1846.5ZM1409 608.5V501H1517V608.5H1409ZM2075 608.5V501H2183V608.5H2075ZM2297.5 608.5V501H2405.5V608.5H2297.5ZM2513 608.5V501H2621V608.5H2513ZM86 811.5V704H194V811.5H86ZM308 811.5V704H416V811.5H308ZM530 811.5V704H638V811.5H530ZM86 1027V919.5H194V1027H86ZM308 1043.5V936H416V1043.5H308ZM530 1027V919.5H638V1027H530ZM732.5 1043.5V936H840.5V1043.5H732.5ZM732.5 811.5V704H840.5V811.5H732.5ZM971 811.5V704H1079V811.5H971ZM971 1043.5V936H1079V1043.5H971ZM1183.5 811.5V704H1291.5V811.5H1183.5ZM1183.5 1043.5V936H1291.5V1043.5H1183.5ZM1409 834V726.5H1517V834H1409ZM1409 1477.5V1370H1517V1477.5H1409ZM1627.5 811.5V704H1735.5V811.5H1627.5ZM1627.5 1043.5V936H1735.5V1043.5H1627.5ZM1846.5 1043.5V936H1954.5V1043.5H1846.5ZM1846.5 811.5V704H1954.5V811.5H1846.5ZM2075 834V726.5H2183V834H2075ZM2075 1043.5V936H2183V1043.5H2075ZM2297.5 834V726.5H2405.5V834H2297.5ZM2513 834V726.5H2621V834H2513ZM2297.5 1043.5V936H2405.5V1043.5H2297.5ZM2513 1043.5V936H2621V1043.5H2513ZM2533 1275.5V1168H2641V1275.5H2533ZM2513 1481V1373.5H2621V1481H2513ZM2513 1710V1602.5H2621V1710H2513ZM2297.5 1710V1602.5H2405.5V1710H2297.5ZM1409 1275.5V1168H1517V1275.5H1409ZM1183.5 1275.5V1168H1291.5V1275.5H1183.5ZM76 1252.5V1145H184V1252.5H76ZM308 1252.5V1145H416V1252.5H308ZM504 1252.5V1145H612V1252.5H504ZM732.5 1252.5V1145H840.5V1252.5H732.5ZM942 1252.5V1145H1050V1252.5H942ZM56.5 1481V1373.5H164.5V1481H56.5ZM292 1477.5V1370H400V1477.5H292ZM530 1481V1373.5H638V1481H530ZM752 1477.5V1370H860V1477.5H752ZM971 1481V1373.5H1079V1481H971ZM1183.5 1481V1373.5H1291.5V1481H1183.5ZM1409 1043.5V936H1517V1043.5H1409ZM76 1710V1602.5H184V1710H76ZM1392.5 1710V1602.5H1500.5V1710H1392.5ZM1170.5 1697V1589.5H1278.5V1697H1170.5ZM971 1710V1602.5H1079V1710H971ZM732.5 1697V1589.5H840.5V1697H732.5ZM530 1697V1589.5H638V1697H530ZM308 1710V1602.5H416V1710H308ZM1601.5 1641V1112H2261.5L2376 1275.5L2405.5 1324.5V1370V1422.5L2261.5 1641H1601.5Z" fill="#EEDE53"/>
<path d="M2297.5 1602.5V1710H2405.5V1602.5H2297.5Z" fill="black"/>
<path d="M1392.5 1602.5V1710H1500.5V1602.5H1392.5Z" fill="black"/>
<path d="M86 57H184V164.5H86V57Z" stroke="black"/>
<path d="M308 57H416V164.5H308V57Z" stroke="black"/>
<path d="M530 57V164.5H638V57H530Z" stroke="black"/>
<path d="M752 57V164.5H860V57H752Z" stroke="black"/>
<path d="M971 57V164.5H1079V57H971Z" stroke="black"/>
<path d="M1183.5 57V164.5H1291.5V57H1183.5Z" stroke="black"/>
<path d="M1409 57V164.5H1517V57H1409Z" stroke="black"/>
<path d="M1627.5 57V164.5H1735.5V57H1627.5Z" stroke="black"/>
<path d="M1846.5 57V164.5H1954.5V57H1846.5Z" stroke="black"/>
<path d="M2075 57V164.5H2183V57H2075Z" stroke="black"/>
<path d="M2297.5 57V164.5H2405.5V57H2297.5Z" stroke="black"/>
<path d="M2513 57V164.5H2621V57H2513Z" stroke="black"/>
<path d="M86 269V376.5H194V269H86Z" stroke="black"/>
<path d="M308 269V376.5H416V269H308Z" stroke="black"/>
<path d="M530 269V376.5H638V269H530Z" stroke="black"/>
<path d="M752 269V376.5H860V269H752Z" stroke="black"/>
<path d="M971 269V376.5H1079V269H971Z" stroke="black"/>
<path d="M1183.5 269V376.5H1291.5V269H1183.5Z" stroke="black"/>
<path d="M1409 269V376.5H1517V269H1409Z" stroke="black"/>
<path d="M1627.5 269V376.5H1735.5V269H1627.5Z" stroke="black"/>
<path d="M1846.5 269V376.5H1954.5V269H1846.5Z" stroke="black"/>
<path d="M2075 269V376.5H2183V269H2075Z" stroke="black"/>
<path d="M2297.5 269V376.5H2405.5V269H2297.5Z" stroke="black"/>
<path d="M2513 269V376.5H2621V269H2513Z" stroke="black"/>
<path d="M2513 501V608.5H2621V501H2513Z" stroke="black"/>
<path d="M2297.5 501V608.5H2405.5V501H2297.5Z" stroke="black"/>
<path d="M2075 501V608.5H2183V501H2075Z" stroke="black"/>
<path d="M2513 726.5V834H2621V726.5H2513Z" stroke="black"/>
<path d="M2297.5 726.5V834H2405.5V726.5H2297.5Z" stroke="black"/>
<path d="M2075 726.5V834H2183V726.5H2075Z" stroke="black"/>
<path d="M1846.5 704V811.5H1954.5V704H1846.5Z" stroke="black"/>
<path d="M1846.5 501V608.5H1954.5V501H1846.5Z" stroke="black"/>
<path d="M1627.5 501V608.5H1735.5V501H1627.5Z" stroke="black"/>
<path d="M1627.5 704V811.5H1735.5V704H1627.5Z" stroke="black"/>
<path d="M1409 501V608.5H1517V501H1409Z" stroke="black"/>
<path d="M1409 726.5V834H1517V726.5H1409Z" stroke="black"/>
<path d="M1183.5 501V608.5H1291.5V501H1183.5Z" stroke="black"/>
<path d="M1183.5 704V811.5H1291.5V704H1183.5Z" stroke="black"/>
<path d="M971 501V608.5H1079V501H971Z" stroke="black"/>
<path d="M971 704V811.5H1079V704H971Z" stroke="black"/>
<path d="M752 481.5V589H860V481.5H752Z" stroke="black"/>
<path d="M732.5 704V811.5H840.5V704H732.5Z" stroke="black"/>
<path d="M530 481.5V589H638V481.5H530Z" stroke="black"/>
<path d="M530 704V811.5H638V704H530Z" stroke="black"/>
<path d="M308 481.5V589H416V481.5H308Z" stroke="black"/>
<path d="M308 704V811.5H416V704H308Z" stroke="black"/>
<path d="M76 481.5V589H184V481.5H76Z" stroke="black"/>
<path d="M86 704V811.5H194V704H86Z" stroke="black"/>
<path d="M86 919.5V1027H194V919.5H86Z" stroke="black"/>
<path d="M308 936V1043.5H416V936H308Z" stroke="black"/>
<path d="M530 919.5V1027H638V919.5H530Z" stroke="black"/>
<path d="M732.5 936V1043.5H840.5V936H732.5Z" stroke="black"/>
<path d="M971 936V1043.5H1079V936H971Z" stroke="black"/>
<path d="M1183.5 936V1043.5H1291.5V936H1183.5Z" stroke="black"/>
<path d="M1409 936V1043.5H1517V936H1409Z" stroke="black"/>
<path d="M1627.5 936V1043.5H1735.5V936H1627.5Z" stroke="black"/>
<path d="M1846.5 936V1043.5H1954.5V936H1846.5Z" stroke="black"/>
<path d="M2075 936V1043.5H2183V936H2075Z" stroke="black"/>
<path d="M2297.5 936V1043.5H2405.5V936H2297.5Z" stroke="black"/>
<path d="M2513 936V1043.5H2621V936H2513Z" stroke="black"/>
<path d="M76 1145V1252.5H184V1145H76Z" stroke="black"/>
<path d="M308 1145V1252.5H416V1145H308Z" stroke="black"/>
<path d="M504 1145V1252.5H612V1145H504Z" stroke="black"/>
<path d="M732.5 1145V1252.5H840.5V1145H732.5Z" stroke="black"/>
<path d="M942 1145V1252.5H1050V1145H942Z" stroke="black"/>
<path d="M1183.5 1168V1275.5H1291.5V1168H1183.5Z" stroke="black"/>
<path d="M1409 1168V1275.5H1517V1168H1409Z" stroke="black"/>
<path d="M56.5 1373.5V1481H164.5V1373.5H56.5Z" stroke="black"/>
<path d="M292 1370V1477.5H400V1370H292Z" stroke="black"/>
<path d="M530 1373.5V1481H638V1373.5H530Z" stroke="black"/>
<path d="M752 1370V1477.5H860V1370H752Z" stroke="black"/>
<path d="M971 1373.5V1481H1079V1373.5H971Z" stroke="black"/>
<path d="M1183.5 1373.5V1481H1291.5V1373.5H1183.5Z" stroke="black"/>
<path d="M1409 1370V1477.5H1517V1370H1409Z" stroke="black"/>
<path d="M76 1602.5V1710H184V1602.5H76Z" stroke="black"/>
<path d="M308 1602.5V1710H416V1602.5H308Z" stroke="black"/>
<path d="M530 1589.5V1697H638V1589.5H530Z" stroke="black"/>
<path d="M732.5 1589.5V1697H840.5V1589.5H732.5Z" stroke="black"/>
<path d="M971 1602.5V1710H1079V1602.5H971Z" stroke="black"/>
<path d="M1170.5 1589.5V1697H1278.5V1589.5H1170.5Z" stroke="black"/>
<path d="M2297.5 1602.5V1710H2405.5V1602.5H2297.5Z" stroke="black"/>
<path d="M2513 1602.5V1710H2621V1602.5H2513Z" stroke="black"/>
<path d="M2513 1373.5V1481H2621V1373.5H2513Z" stroke="black"/>
<path d="M2533 1168V1275.5H2641V1168H2533Z" stroke="black"/>
<path fill-rule="evenodd" clip-rule="evenodd" d="M17 1H2670V1755.5L1 1752L17 1ZM184 57H86V164.5H184V57ZM416 57H308V164.5H416V57ZM1183.5 164.5V57H1291.5V164.5H1183.5ZM752 164.5V57H860V164.5H752ZM971 164.5V57H1079V164.5H971ZM530 164.5V57H638V164.5H530ZM1409 164.5V57H1517V164.5H1409ZM1627.5 164.5V57H1735.5V164.5H1627.5ZM1846.5 164.5V57H1954.5V164.5H1846.5ZM2075 164.5V57H2183V164.5H2075ZM2297.5 164.5V57H2405.5V164.5H2297.5ZM2513 164.5V57H2621V164.5H2513ZM86 376.5V269H194V376.5H86ZM308 376.5V269H416V376.5H308ZM530 376.5V269H638V376.5H530ZM752 376.5V269H860V376.5H752ZM971 376.5V269H1079V376.5H971ZM1183.5 376.5V269H1291.5V376.5H1183.5ZM1409 376.5V269H1517V376.5H1409ZM1627.5 376.5V269H1735.5V376.5H1627.5ZM1846.5 376.5V269H1954.5V376.5H1846.5ZM2075 376.5V269H2183V376.5H2075ZM2297.5 376.5V269H2405.5V376.5H2297.5ZM2513 376.5V269H2621V376.5H2513ZM76 589V481.5H184V589H76ZM308 589V481.5H416V589H308ZM530 589V481.5H638V589H530ZM752 589V481.5H860V589H752ZM971 608.5V501H1079V608.5H971ZM1183.5 608.5V501H1291.5V608.5H1183.5ZM1627.5 608.5V501H1735.5V608.5H1627.5ZM1846.5 608.5V501H1954.5V608.5H1846.5ZM1409 608.5V501H1517V608.5H1409ZM2075 608.5V501H2183V608.5H2075ZM2297.5 608.5V501H2405.5V608.5H2297.5ZM2513 608.5V501H2621V608.5H2513ZM86 811.5V704H194V811.5H86ZM308 811.5V704H416V811.5H308ZM530 811.5V704H638V811.5H530ZM86 1027V919.5H194V1027H86ZM308 1043.5V936H416V1043.5H308ZM530 1027V919.5H638V1027H530ZM732.5 1043.5V936H840.5V1043.5H732.5ZM732.5 811.5V704H840.5V811.5H732.5ZM971 811.5V704H1079V811.5H971ZM971 1043.5V936H1079V1043.5H971ZM1183.5 811.5V704H1291.5V811.5H1183.5ZM1183.5 1043.5V936H1291.5V1043.5H1183.5ZM1409 834V726.5H1517V834H1409ZM1409 1477.5V1370H1517V1477.5H1409ZM1627.5 811.5V704H1735.5V811.5H1627.5ZM1627.5 1043.5V936H1735.5V1043.5H1627.5ZM1846.5 1043.5V936H1954.5V1043.5H1846.5ZM1846.5 811.5V704H1954.5V811.5H1846.5ZM2075 834V726.5H2183V834H2075ZM2075 1043.5V936H2183V1043.5H2075ZM2297.5 834V726.5H2405.5V834H2297.5ZM2513 834V726.5H2621V834H2513ZM2297.5 1043.5V936H2405.5V1043.5H2297.5ZM2513 1043.5V936H2621V1043.5H2513ZM2533 1275.5V1168H2641V1275.5H2533ZM2513 1481V1373.5H2621V1481H2513ZM2513 1710V1602.5H2621V1710H2513ZM2297.5 1710V1602.5H2405.5V1710H2297.5ZM1409 1275.5V1168H1517V1275.5H1409ZM1183.5 1275.5V1168H1291.5V1275.5H1183.5ZM76 1252.5V1145H184V1252.5H76ZM308 1252.5V1145H416V1252.5H308ZM504 1252.5V1145H612V1252.5H504ZM732.5 1252.5V1145H840.5V1252.5H732.5ZM942 1252.5V1145H1050V1252.5H942ZM56.5 1481V1373.5H164.5V1481H56.5ZM292 1477.5V1370H400V1477.5H292ZM530 1481V1373.5H638V1481H530ZM752 1477.5V1370H860V1477.5H752ZM971 1481V1373.5H1079V1481H971ZM1183.5 1481V1373.5H1291.5V1481H1183.5ZM1409 1043.5V936H1517V1043.5H1409ZM76 1710V1602.5H184V1710H76ZM1392.5 1710V1602.5H1500.5V1710H1392.5ZM1170.5 1697V1589.5H1278.5V1697H1170.5ZM971 1710V1602.5H1079V1710H971ZM732.5 1697V1589.5H840.5V1697H732.5ZM530 1697V1589.5H638V1697H530ZM308 1710V1602.5H416V1710H308ZM1601.5 1641V1112H2261.5L2376 1275.5L2405.5 1324.5V1370V1422.5L2261.5 1641H1601.5Z" stroke="black"/>
<path d="M2297.5 1602.5V1710H2405.5V1602.5H2297.5Z" stroke="black"/>
<path d="M1392.5 1602.5V1710H1500.5V1602.5H1392.5Z" stroke="black"/>
</svg>
