<svg width="806" height="530" viewBox="0 0 806 530" fill="none" xmlns="http://www.w3.org/2000/svg">
<path d="M275.5 85V54.5H442.5V85H275.5Z" fill="black"/>
<path d="M494 85V54.5H661V85H494Z" fill="black"/>
<path d="M35.5 176V145.5H202.5V176H35.5Z" fill="black"/>
<path d="M275.5 184.5V154H442.5V184.5H275.5Z" fill="black"/>
<path d="M494 184.5V154H661V184.5H494Z" fill="black"/>
<path d="M35.5 278V247.5H202.5V278H35.5Z" fill="black"/>
<path d="M260.5 278V247.5H427.5V278H260.5Z" fill="black"/>
<path d="M494 289V258.5H661V289H494Z" fill="black"/>
<path d="M35.5 384.5V354H202.5V384.5H35.5Z" fill="black"/>
<path d="M260.5 384.5V354H427.5V384.5H260.5Z" fill="black"/>
<path d="M494 392.5V362H661V392.5H494Z" fill="black"/>
<path d="M35.5 472.5V442H202.5V472.5H35.5Z" fill="black"/>
<path d="M260.5 483.5V453H427.5V483.5H260.5Z" fill="black"/>
<path d="M494 483.5V453H661V483.5H494Z" fill="black"/>
<path d="M35.5 85V54.5H202.5V85H35.5Z" fill="black"/>
<path fill-rule="evenodd" clip-rule="evenodd" d="M1 0.5V529.5H661L805 311V258.5V213L775.5 164L661 0.5H1ZM275.5 85V54.5H442.5V85H275.5ZM494 85V54.5H661V85H494ZM35.5 176V145.5H202.5V176H35.5ZM275.5 184.5V154H442.5V184.5H275.5ZM494 184.5V154H661V184.5H494ZM35.5 278V247.5H202.5V278H35.5ZM260.5 278V247.5H427.5V278H260.5ZM494 289V258.5H661V289H494ZM35.5 384.5V354H202.5V384.5H35.5ZM260.5 384.5V354H427.5V384.5H260.5ZM494 392.5V362H661V392.5H494ZM35.5 472.5V442H202.5V472.5H35.5ZM260.5 483.5V453H427.5V483.5H260.5ZM494 483.5V453H661V483.5H494ZM35.5 85V54.5H202.5V85H35.5Z" fill="black"/>
<path fill-rule="evenodd" clip-rule="evenodd" d="M1 0.5V529.5H661L805 311V258.5V213L775.5 164L661 0.5H1ZM275.5 85V54.5H442.5V85H275.5ZM494 85V54.5H661V85H494ZM35.5 176V145.5H202.5V176H35.5ZM275.5 184.5V154H442.5V184.5H275.5ZM494 184.5V154H661V184.5H494ZM35.5 278V247.5H202.5V278H35.5ZM260.5 278V247.5H427.5V278H260.5ZM494 289V258.5H661V289H494ZM35.5 384.5V354H202.5V384.5H35.5ZM260.5 384.5V354H427.5V384.5H260.5ZM494 392.5V362H661V392.5H494ZM35.5 472.5V442H202.5V472.5H35.5ZM260.5 483.5V453H427.5V483.5H260.5ZM494 483.5V453H661V483.5H494ZM35.5 85V54.5H202.5V85H35.5Z" fill="#EFE876"/>
<path d="M275.5 85V54.5H442.5V85H275.5Z" stroke="black"/>
<path d="M494 85V54.5H661V85H494Z" stroke="black"/>
<path d="M35.5 176V145.5H202.5V176H35.5Z" stroke="black"/>
<path d="M275.5 184.5V154H442.5V184.5H275.5Z" stroke="black"/>
<path d="M494 184.5V154H661V184.5H494Z" stroke="black"/>
<path d="M35.5 278V247.5H202.5V278H35.5Z" stroke="black"/>
<path d="M260.5 278V247.5H427.5V278H260.5Z" stroke="black"/>
<path d="M494 289V258.5H661V289H494Z" stroke="black"/>
<path d="M35.5 384.5V354H202.5V384.5H35.5Z" stroke="black"/>
<path d="M260.5 384.5V354H427.5V384.5H260.5Z" stroke="black"/>
<path d="M494 392.5V362H661V392.5H494Z" stroke="black"/>
<path d="M35.5 472.5V442H202.5V472.5H35.5Z" stroke="black"/>
<path d="M260.5 483.5V453H427.5V483.5H260.5Z" stroke="black"/>
<path d="M494 483.5V453H661V483.5H494Z" stroke="black"/>
<path d="M35.5 85V54.5H202.5V85H35.5Z" stroke="black"/>
<path fill-rule="evenodd" clip-rule="evenodd" d="M1 0.5V529.5H661L805 311V258.5V213L775.5 164L661 0.5H1ZM275.5 85V54.5H442.5V85H275.5ZM494 85V54.5H661V85H494ZM35.5 176V145.5H202.5V176H35.5ZM275.5 184.5V154H442.5V184.5H275.5ZM494 184.5V154H661V184.5H494ZM35.5 278V247.5H202.5V278H35.5ZM260.5 278V247.5H427.5V278H260.5ZM494 289V258.5H661V289H494ZM35.5 384.5V354H202.5V384.5H35.5ZM260.5 384.5V354H427.5V384.5H260.5ZM494 392.5V362H661V392.5H494ZM35.5 472.5V442H202.5V472.5H35.5ZM260.5 483.5V453H427.5V483.5H260.5ZM494 483.5V453H661V483.5H494ZM35.5 85V54.5H202.5V85H35.5Z" stroke="black"/>
</svg>
