<svg width="806" height="531" viewBox="0 0 806 531" fill="none" xmlns="http://www.w3.org/2000/svg">
<path d="M275.5 213.5V321H383.5V213.5H275.5Z" fill="black"/>
<path fill-rule="evenodd" clip-rule="evenodd" d="M1 1V530H661L805 311.5V259V213.5L775.5 164.5L661 1H1ZM275.5 321V213.5H383.5V321H275.5Z" fill="black"/>
<path fill-rule="evenodd" clip-rule="evenodd" d="M1 1V530H661L805 311.5V259V213.5L775.5 164.5L661 1H1ZM275.5 321V213.5H383.5V321H275.5Z" fill="#F5E655"/>
<path d="M275.5 213.5V321H383.5V213.5H275.5Z" stroke="black"/>
<path fill-rule="evenodd" clip-rule="evenodd" d="M1 1V530H661L805 311.5V259V213.5L775.5 164.5L661 1H1ZM275.5 321V213.5H383.5V321H275.5Z" stroke="black"/>
</svg>
