<svg width="805" height="531" viewBox="0 0 805 531" fill="none" xmlns="http://www.w3.org/2000/svg">
<path d="M16.5 26.5V134H124.5V26.5H16.5Z" fill="black"/>
<path d="M457.5 26.5V134H565.5V26.5H457.5Z" fill="black"/>
<path d="M16.5 258V365.5H124.5V258H16.5Z" fill="black"/>
<path d="M667 248.762V356.262H775V248.762H667Z" fill="black"/>
<path d="M229 257V364.5H337V257H229Z" fill="black"/>
<path d="M667 248.762V356.262H775V248.762H667Z" fill="black"/>
<path d="M667 248.762V356.262H775V248.762H667Z" fill="black"/>
<path d="M457.5 258V365.5H565.5V258H457.5Z" fill="black"/>
<path d="M16.5 422.5V530H124.5V422.5H16.5Z" fill="black"/>
<path d="M222.5 422.5V530H330.5V422.5H222.5Z" fill="black"/>
<path d="M444 422.5V530H552V422.5H444Z" fill="black"/>
<path d="M229 34.5V142H337V34.5H229Z" fill="black"/>
<path fill-rule="evenodd" clip-rule="evenodd" d="M0.5 1V530H16.5V422.5H124.5V530H222.5V422.5H330.5V530H444V422.5H552V530H660.5L775 356.262H667V248.762H775V356.262L804.5 311.5V259V213.5L775 164.5L660.5 1H0.5ZM16.5 134V26.5H124.5V134H16.5ZM457.5 134V26.5H565.5V134H457.5ZM16.5 365.5V258H124.5V365.5H16.5ZM229 364.5V257H337V364.5H229ZM457.5 365.5V258H565.5V365.5H457.5ZM229 142V34.5H337V142H229Z" fill="black"/>
<path fill-rule="evenodd" clip-rule="evenodd" d="M0.5 1V530H16.5V422.5H124.5V530H222.5V422.5H330.5V530H444V422.5H552V530H660.5L775 356.262H667V248.762H775V356.262L804.5 311.5V259V213.5L775 164.5L660.5 1H0.5ZM16.5 134V26.5H124.5V134H16.5ZM457.5 134V26.5H565.5V134H457.5ZM16.5 365.5V258H124.5V365.5H16.5ZM229 364.5V257H337V364.5H229ZM457.5 365.5V258H565.5V365.5H457.5ZM229 142V34.5H337V142H229Z" fill="#F5E655"/>
<path d="M0.5 530V1H660.5L775 164.5L804.5 213.5V259V311.5M0.5 530H660.5M0.5 530H16.5M660.5 530L804.5 311.5M660.5 530H552M660.5 530L775 356.262M804.5 311.5L775 356.262M775 356.262H667V248.762H775V356.262ZM16.5 530V422.5H124.5V530M16.5 530H124.5M124.5 530H222.5M222.5 530V422.5H330.5V530M222.5 530H330.5M330.5 530H444M444 530V422.5H552V530M444 530H552M16.5 26.5V134H124.5V26.5H16.5ZM457.5 26.5V134H565.5V26.5H457.5ZM16.5 258V365.5H124.5V258H16.5ZM229 257V364.5H337V257H229ZM457.5 258V365.5H565.5V258H457.5ZM229 34.5V142H337V34.5H229Z" stroke="black"/>
</svg>
