<svg width="805" height="531" viewBox="0 0 805 531" fill="none" xmlns="http://www.w3.org/2000/svg">
<path d="M707.496 70.5L691.525 51.4214L689.498 49V51.3923V70.5V486L703.667 464.5L707.496 70.5Z" fill="black"/>
<path fill-rule="evenodd" clip-rule="evenodd" d="M503.5 1H472.5V48.2766L267.455 45.3328L268 1H244.5V45.0032L48.9938 42.1963L23.5 41.8303L0.5 41.5V70.5H23.5H48.646H244.5V277.187L46.1382 274.596L23.5 274.301L0.5 274V302H23.5H45.8015H244.5V489.442V514.5V530H261.5L261.69 514.5L261.995 489.688L264.302 302H472.5V492.658V514.5V530H489.5L489.91 514.5L490.482 492.911L495.534 302H689.498V283L496.104 280.474L501.661 70.5H689.498H697V51.5L694.625 51.4658L691.525 51.4214L689.498 51.3923L502.238 48.7036L503.5 1ZM472.5 280.166L496.104 280.474L495.534 302H472.5V280.166ZM264.603 277.45L244.5 277.187V302H264.302L264.603 277.45ZM267.146 70.5H472.5V280.166L264.603 277.45L267.146 70.5ZM267.146 70.5L267.455 45.3328L244.5 45.0032V70.5H267.146Z" fill="black"/>
<path d="M264.603 277.45L244.5 277.187V302H264.302L264.603 277.45Z" fill="black"/>
<path d="M267.455 45.3328L244.5 45.0032V70.5H267.146L267.455 45.3328Z" fill="black"/>
<path fill-rule="evenodd" clip-rule="evenodd" d="M43 530H23.5V514.5H43.1904L43 530ZM43.5332 486.607L23.5 486.324V302V274.301V70.5V41.8303V1H49.5L48.9938 42.1963L48.646 70.5L46.1382 274.596L45.8015 302L43.5332 486.607ZM43.5332 486.607L43.1904 514.5H244.5H261.69H472.5H489.91H670.715H674V509.516V495.5L490.482 492.911L472.5 492.658L261.995 489.688L244.5 489.442L43.5332 486.607ZM23.5 486.324L0.5 486V514.5H23.5V486.324Z" fill="black"/>
<path d="M23.5 514.5H43.1904L43.5332 486.607L23.5 486.324V514.5Z" fill="black"/>
<path d="M244.5 70.5H48.646L46.1382 274.596L244.5 277.187V70.5Z" fill="#FEE854"/>
<path d="M472.5 70.5H267.146L264.603 277.45L472.5 280.166V70.5Z" fill="black"/>
<path d="M472.5 70.5H267.146L264.603 277.45L472.5 280.166V70.5Z" fill="#FEE854"/>
<path d="M689.498 283V70.5H501.661L496.104 280.474L689.498 283Z" fill="black"/>
<path d="M689.498 283V70.5H501.661L496.104 280.474L689.498 283Z" fill="#FEE854"/>
<path d="M244.5 302H45.8015L43.5332 486.607L244.5 489.442V302Z" fill="black"/>
<path d="M244.5 302H45.8015L43.5332 486.607L244.5 489.442V302Z" fill="#FEE854"/>
<path d="M472.5 492.658V302H264.302L261.995 489.688L472.5 492.658Z" fill="black"/>
<path d="M472.5 492.658V302H264.302L261.995 489.688L472.5 492.658Z" fill="#FEE854"/>
<path d="M674 509.516L689.498 486V302H495.534L490.482 492.911L674 495.5V509.516Z" fill="black"/>
<path d="M674 509.516L689.498 486V302H495.534L490.482 492.911L674 495.5V509.516Z" fill="#FEE854"/>
<path d="M804.5 311.5V259V213.5L775 164.5L707.496 70.5L703.667 464.5L804.5 311.5Z" fill="black"/>
<path d="M804.5 311.5V259V213.5L775 164.5L707.496 70.5L703.667 464.5L804.5 311.5Z" fill="#FEE854"/>
<path d="M660.5 1H503.5L502.238 48.7036L689.498 51.3923V49L691.525 51.4214L694.625 51.4658L660.5 1Z" fill="black"/>
<path d="M660.5 1H503.5L502.238 48.7036L689.498 51.3923V49L691.525 51.4214L694.625 51.4658L660.5 1Z" fill="#FEE854"/>
<path d="M472.5 1H268L267.455 45.3328L472.5 48.2766V1Z" fill="black"/>
<path d="M472.5 1H268L267.455 45.3328L472.5 48.2766V1Z" fill="#FEE854"/>
<path d="M472.5 1H268L267.455 45.3328L472.5 48.2766V1Z" fill="#FEE854"/>
<path d="M244.5 1H49.5L48.9938 42.1963L244.5 45.0032V1Z" fill="black"/>
<path d="M244.5 1H49.5L48.9938 42.1963L244.5 45.0032V1Z" fill="#FEE854"/>
<path d="M0.5 1V41.5L23.5 41.8303V1H0.5Z" fill="black"/>
<path d="M0.5 1V41.5L23.5 41.8303V1H0.5Z" fill="#FEE854"/>
<path d="M0.5 70.5V274L23.5 274.301V70.5H0.5Z" fill="black"/>
<path d="M0.5 70.5V274L23.5 274.301V70.5H0.5Z" fill="#FEE854"/>
<path d="M0.5 302V486L23.5 486.324V302H0.5Z" fill="black"/>
<path d="M0.5 302V486L23.5 486.324V302H0.5Z" fill="#FEE854"/>
<path d="M0.5 514.5V530H23.5V514.5H0.5Z" fill="black"/>
<path d="M0.5 514.5V530H23.5V514.5H0.5Z" fill="#FEE854"/>
<path d="M261.5 530H472.5V514.5H261.69L261.5 530Z" fill="black"/>
<path d="M261.5 530H472.5V514.5H261.69L261.5 530Z" fill="#FEE854"/>
<path d="M489.5 530H660.5L670.715 514.5H489.91L489.5 530Z" fill="black"/>
<path d="M489.5 530H660.5L670.715 514.5H489.91L489.5 530Z" fill="#FEE854"/>
<path d="M43 530H244.5V514.5H43.1904L43 530Z" fill="black"/>
<path d="M43 530H244.5V514.5H43.1904L43 530Z" fill="#FEE854"/>
<path d="M0.5 1V530M0.5 1H660.5M0.5 1V41.5M0.5 1H23.5M0.5 530H660.5M0.5 530V514.5M0.5 530H23.5M660.5 530H489.5M660.5 530L670.715 514.5M804.5 311.5V259V213.5L775 164.5L707.496 70.5M804.5 311.5L674 509.516M804.5 311.5L703.667 464.5M660.5 1H503.5M660.5 1L694.625 51.4658M23.5 1H49.5M23.5 1V41.8303M49.5 1H244.5M49.5 1L48.9938 42.1963M43 530H23.5M43 530L43.1904 514.5M43 530H244.5M23.5 530V514.5M244.5 1H268M244.5 1V45.0032M268 1L267.455 45.3328M268 1H472.5M261.5 530H244.5M261.5 530H472.5M261.5 530L261.69 514.5M244.5 530V514.5M472.5 1H503.5M472.5 1V48.2766M503.5 1L502.238 48.7036M489.5 530H472.5M489.5 530L489.91 514.5M472.5 530V514.5M707.496 70.5L703.667 464.5M707.496 70.5L691.525 51.4214M707.496 70.5L694.625 51.4658M703.667 464.5L689.498 486M689.498 486V70.5M689.498 486L674 509.516M689.498 486V302M0.5 274V302M0.5 274V70.5M0.5 274L23.5 274.301M0.5 302V486M0.5 302H23.5M689.498 302V283M689.498 302H495.534M689.498 283L496.104 280.474M689.498 283V70.5M0.5 486V514.5M0.5 486L23.5 486.324M0.5 514.5H23.5M0.5 41.5V70.5M0.5 41.5L23.5 41.8303M0.5 70.5H23.5M496.104 280.474L472.5 280.166M496.104 280.474L495.534 302M496.104 280.474L501.661 70.5M472.5 280.166V302M472.5 280.166V70.5M472.5 280.166L264.603 277.45M472.5 302H495.534M472.5 302H264.302M472.5 302V492.658M495.534 302L490.482 492.911M267.455 45.3328L244.5 45.0032M267.455 45.3328L267.146 70.5M267.455 45.3328L472.5 48.2766M244.5 45.0032V70.5M244.5 45.0032L48.9938 42.1963M244.5 70.5H267.146M244.5 70.5V277.187M244.5 70.5H48.646M267.146 70.5H472.5M267.146 70.5L264.603 277.45M472.5 48.2766L502.238 48.7036M472.5 48.2766V70.5M244.5 277.187L264.603 277.45M244.5 277.187V302M244.5 277.187L46.1382 274.596M244.5 302H264.302M244.5 302H45.8015M244.5 302V489.442M264.302 302L264.603 277.45M264.302 302L261.995 489.688M501.661 70.5H472.5M501.661 70.5L502.238 48.7036M501.661 70.5H689.498M502.238 48.7036L689.498 51.3923M23.5 514.5H43.1904M23.5 514.5V486.324M43.1904 514.5L43.5332 486.607M43.1904 514.5H244.5M43.5332 486.607L23.5 486.324M43.5332 486.607L45.8015 302M43.5332 486.607L244.5 489.442M23.5 486.324V302M23.5 41.8303L48.9938 42.1963M23.5 41.8303V70.5M48.9938 42.1963L48.646 70.5M48.646 70.5L46.1382 274.596M48.646 70.5H23.5M46.1382 274.596L45.8015 302M46.1382 274.596L23.5 274.301M689.498 70.5H697V51.5L694.625 51.4658M689.498 70.5V51.3923M45.8015 302H23.5M244.5 489.442L261.995 489.688M244.5 489.442V514.5M472.5 492.658L261.995 489.688M472.5 492.658L490.482 492.911M472.5 492.658V514.5M261.995 489.688L261.69 514.5M674 509.516V495.5L490.482 492.911M674 509.516V514.5H670.715M674 509.516L670.715 514.5M490.482 492.911L489.91 514.5M689.498 51.3923V49L691.525 51.4214M689.498 51.3923L691.525 51.4214M691.525 51.4214L694.625 51.4658M23.5 274.301V70.5M23.5 274.301V302M244.5 514.5H261.69M472.5 514.5H261.69M472.5 514.5H489.91M670.715 514.5H489.91" stroke="black"/>
</svg>
