<svg width="806" height="531" viewBox="0 0 806 531" fill="none" xmlns="http://www.w3.org/2000/svg">
<path d="M159 106V213.5H267V106H159Z" fill="black"/>
<path d="M396.5 106V213.5H504.5V106H396.5Z" fill="black"/>
<path d="M159 315V422.5H267V315H159Z" fill="black"/>
<path d="M396 325.5V433H504V325.5H396Z" fill="black"/>
<path fill-rule="evenodd" clip-rule="evenodd" d="M1 1V530H661L805 311.5V259V213.5L775.5 164.5L661 1H1ZM159 213.5V106H267V213.5H159ZM396.5 213.5V106H504.5V213.5H396.5ZM159 422.5V315H267V422.5H159ZM396 433V325.5H504V433H396Z" fill="black"/>
<path fill-rule="evenodd" clip-rule="evenodd" d="M1 1V530H661L805 311.5V259V213.5L775.5 164.5L661 1H1ZM159 213.5V106H267V213.5H159ZM396.5 213.5V106H504.5V213.5H396.5ZM159 422.5V315H267V422.5H159ZM396 433V325.5H504V433H396Z" fill="#F5E655"/>
<path d="M396.5 106V213.5H504.5V106H396.5Z" fill="black"/>
<path d="M396.5 106V213.5H504.5V106H396.5Z" fill="black"/>
<path d="M159 106V213.5H267V106H159Z" stroke="black"/>
<path d="M396.5 106V213.5H504.5V106H396.5Z" stroke="black"/>
<path d="M159 315V422.5H267V315H159Z" stroke="black"/>
<path d="M396 325.5V433H504V325.5H396Z" stroke="black"/>
<path fill-rule="evenodd" clip-rule="evenodd" d="M1 1V530H661L805 311.5V259V213.5L775.5 164.5L661 1H1ZM159 213.5V106H267V213.5H159ZM396.5 213.5V106H504.5V213.5H396.5ZM159 422.5V315H267V422.5H159ZM396 433V325.5H504V433H396Z" stroke="black"/>
<path d="M396.5 106V213.5H504.5V106H396.5Z" stroke="black"/>
<path d="M396.5 106V213.5H504.5V106H396.5Z" stroke="black"/>
</svg>
